<svg width="29" height="20" viewBox="0 0 29 20" fill="none" xmlns="http://www.w3.org/2000/svg">
<path d="M24.3571 0H27.631C28.2857 0 28.2857 -6.23317e-08 28.2857 0.653595V19.3464C28.2857 20 28.2857 20 27.631 20H24.3571C23.7024 20 23.7024 20 23.7024 19.3464V12.0261H17.8749V19.3464C17.8749 20 17.8749 20 17.2201 20H9.88671C9.88671 20 13.7722 19.0571 13.7722 14.245C13.7722 10.132 6.54771 7.84314 5.17272 6.9281C3.79772 6.01307 4.38664 4.11765 6.61286 4.11765C8.02553 4.11765 8.72634 4.98615 9.04988 5.62092C9.36325 6.27451 9.29777 6.27451 9.95254 6.27451H12.7022C13.357 6.27451 13.3245 6.27863 13.3245 5.62504C13.3245 5.62504 13.3981 3.85621 12.5058 2.4183C11.6135 0.980392 9.29742 0 9.29742 0H17.2201C17.8749 0 17.8749 0 17.8749 0.653595V7.45098H23.7024V0.653595C23.7024 -6.23317e-08 23.7024 0 24.3571 0Z" fill="white"/>
<path d="M0 6.66675C0 6.66675 0.113723 9.01969 2.35717 10.3922C4.60062 11.7648 9.23226 12.6798 9.42869 14.0524C9.60049 15.2528 9.16678 16.0785 7.07152 16.0785C5.23323 16.0785 4.45562 15.0755 4.13728 14.3792C3.83847 13.7256 3.92862 13.7256 3.27385 13.7256H0V6.66675Z" fill="white"/>
</svg>
