<svg width="24" height="24" viewBox="0 0 24 24" fill="none" xmlns="http://www.w3.org/2000/svg">
<g clip-path="url(#clip0_231_255)">
<path d="M24 12C24 5.37258 18.6274 0 12 0C5.37258 0 0 5.37258 0 12C0 18.6274 5.37258 24 12 24C18.6274 24 24 18.6274 24 12Z" fill="url(#paint0_linear_231_255)"/>
<path opacity="0.1" d="M21.0316 4.1055C19.2821 7.31708 16.8079 10.6297 13.7163 13.7213C10.6247 16.8129 7.31209 19.2823 4.10525 21.0318C3.9042 20.8571 3.70893 20.675 3.51946 20.4855C2.37418 19.3785 1.46076 18.0545 0.832466 16.5908C0.204168 15.1271 -0.126434 13.5529 -0.140064 11.9601C-0.153693 10.3673 0.149922 8.78772 0.753079 7.31347C1.35624 5.83922 2.24686 4.49981 3.37303 3.37333C4.4992 2.24684 5.83836 1.35584 7.31244 0.752273C8.78652 0.148705 10.366 -0.155352 11.9588 -0.142167C13.5516 -0.128982 15.1259 0.201181 16.5898 0.82907C18.0536 1.45696 19.3779 2.37001 20.4852 3.51498C20.6747 3.70445 20.8568 3.90129 21.0316 4.1055Z" fill="white"/>
<path d="M14.8421 5.68457H9.15789C8.23661 5.68457 7.35306 6.05055 6.70162 6.70199C6.05018 7.35343 5.6842 8.23698 5.6842 9.15825V14.8425C5.6842 15.7637 6.05018 16.6473 6.70162 17.2987C7.35306 17.9502 8.23661 18.3161 9.15789 18.3161H14.8421C15.7634 18.3161 16.6469 17.9502 17.2984 17.2987C17.9498 16.6473 18.3158 15.7637 18.3158 14.8425V9.15825C18.3158 8.23698 17.9498 7.35343 17.2984 6.70199C16.6469 6.05055 15.7634 5.68457 14.8421 5.68457ZM17.2105 14.3435C17.2105 15.104 16.9084 15.8333 16.3707 16.3711C15.833 16.9088 15.1036 17.2109 14.3432 17.2109H9.65684C8.89636 17.2109 8.16704 16.9088 7.6293 16.3711C7.09156 15.8333 6.78947 15.104 6.78947 14.3435V9.6572C6.78947 8.89673 7.09156 8.1674 7.6293 7.62967C8.16704 7.09193 8.89636 6.78983 9.65684 6.78983H14.3432C15.1036 6.78983 15.833 7.09193 16.3707 7.62967C16.9084 8.1674 17.2105 8.89673 17.2105 9.6572V14.3435Z" fill="white"/>
<path d="M14.3036 9.7205L14.2736 9.6905L14.2484 9.66524C13.6514 9.0703 12.8428 8.73642 12 8.73682C11.5743 8.73971 11.1535 8.82643 10.7614 8.99204C10.3693 9.15764 10.0137 9.39887 9.71483 9.70196C9.416 10.005 9.17981 10.364 9.01976 10.7584C8.85972 11.1528 8.77895 11.5749 8.78207 12.0005C8.78143 12.8643 9.12191 13.6933 9.72944 14.3073C10.027 14.6085 10.3816 14.8474 10.7725 15.0101C11.1635 15.1728 11.5829 15.2559 12.0063 15.2547C12.6414 15.2414 13.2589 15.0435 13.7835 14.6853C14.3081 14.3271 14.7171 13.8239 14.9607 13.2372C15.2042 12.6505 15.2718 12.0056 15.1551 11.3811C15.0385 10.7567 14.7426 10.1797 14.3036 9.7205ZM12 14.1416C11.5753 14.1475 11.1584 14.027 10.8024 13.7954C10.4464 13.5638 10.1673 13.2315 10.0006 12.8408C9.83397 12.4502 9.78726 12.0188 9.86646 11.6015C9.94565 11.1842 10.1472 10.7999 10.4454 10.4975C10.7436 10.195 11.125 9.98812 11.5411 9.90305C11.9572 9.81797 12.3892 9.85859 12.7822 10.0197C13.1752 10.1809 13.5114 10.4552 13.748 10.8079C13.9846 11.1607 14.111 11.5758 14.111 12.0005C14.1131 12.2797 14.0601 12.5566 13.9551 12.8154C13.8502 13.0741 13.6952 13.3096 13.4992 13.5085C13.3031 13.7073 13.0698 13.8656 12.8125 13.9742C12.5553 14.0828 12.2792 14.1397 12 14.1416Z" fill="white"/>
<path d="M16.1732 8.58667C16.174 8.68799 16.1549 8.78848 16.1168 8.88239C16.0787 8.97629 16.0225 9.06177 15.9514 9.13393C15.8803 9.20608 15.7956 9.2635 15.7023 9.3029C15.6089 9.3423 15.5087 9.36289 15.4074 9.36351C15.3069 9.36346 15.2075 9.34348 15.1148 9.30473C15.0221 9.26597 14.938 9.2092 14.8674 9.13772C14.7604 9.02919 14.6877 8.89165 14.6581 8.74216C14.6286 8.59266 14.6436 8.43779 14.7013 8.29673C14.7589 8.15568 14.8567 8.03466 14.9825 7.94867C15.1083 7.86267 15.2566 7.8155 15.409 7.81299C15.5873 7.81295 15.76 7.87554 15.8969 7.98983L15.9127 8.00562C15.9381 8.02635 15.9614 8.04963 15.9821 8.07509L15.9995 8.09404C16.1125 8.23328 16.1739 8.40734 16.1732 8.58667Z" fill="white"/>
</g>
<defs>
<linearGradient id="paint0_linear_231_255" x1="3.51474" y1="3.51474" x2="20.4853" y2="20.4853" gradientUnits="userSpaceOnUse">
<stop stop-color="#FAE100"/>
<stop offset="0.15" stop-color="#FCB720"/>
<stop offset="0.3" stop-color="#FF7950"/>
<stop offset="0.5" stop-color="#FF1C74"/>
<stop offset="1" stop-color="#6C1CD1"/>
</linearGradient>
<clipPath id="clip0_231_255">
<rect width="24" height="24" fill="white"/>
</clipPath>
</defs>
</svg>
