<svg width="282" height="259" viewBox="0 0 282 259" fill="none" xmlns="http://www.w3.org/2000/svg">
<path d="M256.549 139.804C261.616 82.711 214.076 31.8448 150.365 26.1907C86.6547 20.5366 30.8996 62.2357 25.8328 119.328C20.7661 176.421 68.3064 227.287 132.017 232.941C195.728 238.595 251.483 196.896 256.549 139.804Z" stroke="url(#paint0_linear_56_433)" stroke-width="50" stroke-miterlimit="10"/>
<path d="M259.622 123.864L259.692 124.764L257.372 122.854L254.352 125.074L254.282 124.244L256.842 122.414L255.942 121.674L254.082 121.764L254.032 121.114L259.382 120.864L259.432 121.514L256.822 121.634L259.622 123.864Z" fill="white"/>
<path d="M255.102 127.754C255.082 127.794 255.062 127.834 255.042 127.884L255.002 128.034C254.992 128.084 254.992 128.124 254.992 128.174C254.992 128.264 255.012 128.354 255.042 128.434C255.072 128.504 255.112 128.564 255.162 128.614C255.212 128.664 255.272 128.714 255.332 128.744C255.402 128.774 255.472 128.794 255.532 128.824L259.792 126.864L259.802 127.624L256.272 129.204L259.842 130.444L259.852 131.174L255.822 129.634C255.562 129.524 255.322 129.424 255.142 129.334C254.942 129.234 254.792 129.144 254.672 129.034C254.552 128.924 254.462 128.804 254.402 128.664C254.342 128.524 254.312 128.364 254.312 128.174C254.312 128.074 254.322 127.974 254.352 127.884C254.382 127.794 254.412 127.714 254.462 127.664H255.152C255.142 127.674 255.122 127.714 255.102 127.754Z" fill="white"/>
<path d="M259.562 136.264C259.472 136.444 259.362 136.604 259.222 136.724C259.082 136.844 258.912 136.924 258.712 136.974C258.512 137.034 258.302 137.044 258.062 137.034C257.822 137.024 257.612 136.984 257.422 136.904C257.232 136.834 257.072 136.724 256.942 136.594C256.802 136.454 256.712 136.294 256.642 136.094C256.582 135.894 256.552 135.664 256.562 135.394L256.632 134.004L254.412 133.874L254.442 133.224L259.792 133.544L259.692 135.574C259.692 135.854 259.642 136.074 259.562 136.264ZM257.402 136.124C257.562 136.284 257.782 136.374 258.092 136.394C258.402 136.414 258.632 136.354 258.802 136.204C258.962 136.064 259.062 135.824 259.082 135.474L259.152 134.154L257.272 134.044L257.202 135.364C257.182 135.704 257.252 135.964 257.402 136.124Z" fill="white"/>
<path d="M255.782 139.984C255.502 140.024 255.262 140.104 255.062 140.224C254.852 140.344 254.692 140.494 254.562 140.674C254.432 140.854 254.362 141.064 254.332 141.304C254.312 141.514 254.322 141.694 254.392 141.874C254.452 142.044 254.542 142.194 254.662 142.324C254.792 142.464 254.922 142.574 255.082 142.664C255.242 142.754 255.412 142.824 255.582 142.864L255.512 143.484C255.362 143.454 255.202 143.404 255.052 143.344C254.892 143.274 254.742 143.194 254.612 143.094C254.472 142.994 254.342 142.884 254.222 142.754C254.102 142.634 254.002 142.494 253.912 142.334C253.832 142.174 253.772 142.004 253.742 141.814C253.702 141.634 253.692 141.434 253.722 141.224C253.742 141.074 253.772 140.924 253.832 140.764C253.882 140.604 253.962 140.444 254.062 140.284C254.152 140.124 254.282 139.984 254.442 139.844C254.592 139.704 254.782 139.594 254.992 139.504C255.202 139.414 255.462 139.344 255.742 139.314C256.022 139.274 256.352 139.274 256.722 139.314C257.082 139.354 257.402 139.424 257.672 139.524C257.942 139.614 258.182 139.734 258.382 139.864C258.582 139.994 258.742 140.144 258.872 140.304C259.002 140.464 259.102 140.634 259.182 140.804C259.252 140.984 259.302 141.164 259.322 141.344C259.342 141.534 259.342 141.714 259.322 141.884C259.292 142.104 259.242 142.304 259.182 142.474C259.112 142.644 259.022 142.804 258.922 142.944C258.812 143.074 258.702 143.184 258.572 143.274C258.452 143.364 258.322 143.444 258.182 143.504C258.052 143.564 257.912 143.604 257.772 143.624C257.632 143.644 257.502 143.664 257.382 143.654L257.452 143.024C257.632 143.004 257.792 142.964 257.932 142.894C258.072 142.834 258.202 142.754 258.312 142.634C258.412 142.534 258.502 142.414 258.572 142.274C258.632 142.134 258.682 141.984 258.702 141.824C258.732 141.574 258.702 141.344 258.622 141.134C258.552 140.924 258.422 140.734 258.252 140.574C258.072 140.414 257.862 140.274 257.612 140.164C257.352 140.064 257.052 139.984 256.732 139.944C256.362 139.934 256.052 139.944 255.782 139.984Z" fill="white"/>
<path d="M255.982 148.074C255.922 148.354 255.842 148.594 255.722 148.794C255.612 148.994 255.472 149.144 255.312 149.254C255.152 149.374 254.972 149.444 254.772 149.474C254.572 149.504 254.352 149.504 254.102 149.454C253.862 149.414 253.662 149.344 253.492 149.244C253.312 149.144 253.162 149.014 253.052 148.864C252.942 148.714 252.862 148.534 252.832 148.334C252.792 148.134 252.802 147.914 252.852 147.674L253.252 145.614L258.532 146.554L258.412 147.194L256.232 146.804L255.982 148.074ZM252.422 149.824L257.702 150.764L257.582 151.404L252.302 150.464L252.422 149.824ZM253.452 148.074C253.462 148.194 253.502 148.294 253.552 148.394C253.612 148.484 253.692 148.574 253.802 148.634C253.912 148.704 254.052 148.744 254.232 148.774C254.412 148.804 254.562 148.814 254.682 148.784C254.812 148.754 254.922 148.694 255.022 148.624C255.102 148.544 255.182 148.444 255.242 148.324C255.302 148.194 255.342 148.054 255.372 147.894L255.612 146.684L253.742 146.354L253.482 147.694C253.452 147.834 253.442 147.954 253.452 148.074Z" fill="white"/>
<path d="M249.812 159.354L254.362 160.614L255.142 158.144L250.592 156.884L250.792 156.264L255.942 157.684L254.772 161.384L249.622 159.964L249.812 159.354Z" fill="white"/>
<path d="M249.002 167.164C248.802 167.054 248.622 166.924 248.452 166.774C248.292 166.624 248.142 166.464 248.022 166.294C247.902 166.114 247.812 165.924 247.752 165.714C247.692 165.504 247.662 165.294 247.672 165.054C247.682 164.824 247.742 164.584 247.842 164.334C247.942 164.084 248.072 163.864 248.222 163.684C248.372 163.504 248.542 163.354 248.742 163.234C248.922 163.114 249.132 163.024 249.342 162.964C249.562 162.894 249.782 162.854 250.012 162.844C250.242 162.834 250.472 162.844 250.702 162.874C250.932 162.904 251.152 162.964 251.372 163.034C251.762 163.164 252.102 163.334 252.392 163.554C252.672 163.764 252.902 164.004 253.062 164.264C253.222 164.534 253.312 164.824 253.332 165.144C253.352 165.464 253.292 165.794 253.162 166.144C253.022 166.494 252.832 166.784 252.592 167.014C252.352 167.244 252.082 167.414 251.772 167.524C251.462 167.634 251.132 167.674 250.762 167.664C250.392 167.654 250.022 167.584 249.622 167.444C249.412 167.374 249.192 167.274 249.002 167.164ZM250.742 167.014C251.022 167.034 251.282 166.994 251.522 166.924C251.762 166.844 251.972 166.724 252.142 166.564C252.332 166.394 252.462 166.184 252.562 165.934C252.662 165.684 252.702 165.434 252.682 165.204C252.662 164.974 252.592 164.754 252.462 164.564C252.332 164.364 252.162 164.184 251.932 164.024C251.702 163.864 251.442 163.734 251.142 163.634C250.832 163.524 250.542 163.464 250.272 163.444C249.992 163.424 249.732 163.454 249.502 163.524C249.262 163.594 249.062 163.714 248.882 163.874C248.702 164.044 248.562 164.264 248.452 164.534C248.342 164.804 248.302 165.054 248.322 165.294C248.352 165.534 248.412 165.744 248.542 165.944C248.672 166.134 248.852 166.304 249.082 166.454C249.302 166.604 249.572 166.734 249.882 166.844C250.162 166.944 250.452 166.994 250.742 167.014Z" fill="white"/>
<path d="M243.132 174.754L247.412 176.664L248.622 174.354L244.342 172.444L244.652 171.864L249.502 174.024L247.672 177.494L242.822 175.334L243.132 174.754Z" fill="white"/>
<path d="M244.692 182.324C244.522 182.454 244.342 182.544 244.152 182.594C243.962 182.644 243.772 182.654 243.572 182.614C243.362 182.584 243.172 182.514 242.962 182.404C242.752 182.294 242.582 182.174 242.452 182.034C242.312 181.894 242.222 181.734 242.172 181.564C242.112 181.384 242.112 181.204 242.142 181.004C242.182 180.804 242.272 180.584 242.412 180.354L243.152 179.144L241.202 178.144L241.542 177.584L246.242 180.004L245.162 181.774C245.012 182.004 244.862 182.184 244.692 182.324ZM242.812 181.324C242.872 181.534 243.042 181.704 243.302 181.844C243.572 181.984 243.812 182.024 244.042 181.964C244.262 181.904 244.462 181.724 244.642 181.424L245.342 180.274L243.692 179.424L242.992 180.574C242.812 180.874 242.752 181.134 242.812 181.324Z" fill="white"/>
<path d="M237.332 187.474C237.162 187.324 237.012 187.164 236.892 186.984C236.772 186.804 236.662 186.624 236.592 186.424C236.512 186.224 236.472 186.024 236.472 185.814C236.462 185.604 236.492 185.384 236.562 185.164C236.632 184.944 236.742 184.724 236.902 184.494C237.062 184.274 237.232 184.084 237.432 183.934C237.622 183.794 237.832 183.674 238.052 183.594C238.262 183.514 238.482 183.464 238.712 183.444C238.942 183.424 239.172 183.424 239.392 183.464C239.622 183.494 239.842 183.554 240.062 183.624C240.272 183.704 240.482 183.804 240.682 183.914C241.032 184.124 241.322 184.354 241.552 184.624C241.782 184.884 241.942 185.164 242.032 185.454C242.122 185.744 242.132 186.054 242.082 186.364C242.022 186.684 241.892 186.994 241.672 187.304C241.452 187.614 241.192 187.864 240.902 188.034C240.612 188.214 240.302 188.324 239.982 188.364C239.652 188.414 239.312 188.384 238.962 188.304C238.602 188.214 238.252 188.074 237.902 187.864C237.672 187.764 237.492 187.624 237.332 187.474ZM239.062 187.674C239.332 187.744 239.592 187.764 239.842 187.744C240.092 187.714 240.332 187.644 240.542 187.514C240.762 187.394 240.952 187.214 241.112 186.984C241.272 186.754 241.372 186.534 241.402 186.294C241.442 186.064 241.422 185.844 241.342 185.624C241.262 185.404 241.142 185.194 240.952 184.994C240.772 184.794 240.542 184.614 240.272 184.454C239.992 184.294 239.722 184.164 239.462 184.094C239.192 184.024 238.932 183.994 238.682 184.014C238.432 184.034 238.202 184.114 237.992 184.234C237.772 184.364 237.582 184.544 237.412 184.784C237.242 185.024 237.142 185.264 237.102 185.494C237.072 185.734 237.082 185.954 237.162 186.164C237.242 186.384 237.382 186.584 237.562 186.774C237.742 186.964 237.972 187.144 238.252 187.304C238.522 187.494 238.792 187.604 239.062 187.674Z" fill="white"/>
<path d="M237.582 191.494L233.732 188.924L234.152 188.404L238.512 191.314L236.682 193.594L236.172 193.254L237.582 191.494Z" fill="white"/>
<path d="M233.052 197.574C232.862 197.674 232.662 197.734 232.472 197.754C232.282 197.774 232.082 197.754 231.892 197.684C231.692 197.624 231.512 197.524 231.322 197.384C231.132 197.244 230.992 197.104 230.882 196.944C230.772 196.784 230.712 196.614 230.692 196.444C230.672 196.264 230.702 196.074 230.772 195.894C230.852 195.704 230.982 195.504 231.162 195.294L232.122 194.224L230.382 192.934L230.832 192.434L235.012 195.544L233.602 197.104C233.432 197.314 233.242 197.464 233.052 197.574ZM231.382 196.304C231.402 196.514 231.532 196.714 231.772 196.884C232.012 197.064 232.242 197.144 232.482 197.114C232.712 197.094 232.942 196.944 233.182 196.684L234.092 195.664L232.622 194.574L231.712 195.594C231.462 195.864 231.362 196.104 231.382 196.304Z" fill="white"/>
<path d="M223.642 199.934L224.182 199.404L225.782 200.054L227.192 198.664L226.372 197.254L226.882 196.754L229.572 201.454L228.992 202.024L223.642 199.934ZM226.332 200.264L228.642 201.204L227.482 199.134L226.332 200.264Z" fill="white"/>
<path d="M220.752 203.584L222.812 207.504L222.072 208.144L218.332 204.594L218.812 204.184L221.952 207.164L221.962 207.154L219.902 203.244L220.412 202.804L224.642 204.854L224.652 204.844L221.512 201.864L221.992 201.454L225.732 205.004L224.992 205.644L220.762 203.594L220.752 203.584Z" fill="white"/>
<path d="M214.842 208.324L216.592 212.354L215.802 212.944L212.342 209.174L212.852 208.794L215.762 211.964L215.772 211.954L214.012 207.924L214.562 207.514L218.622 209.824L218.632 209.814L215.722 206.644L216.232 206.264L219.692 210.034L218.902 210.624L214.832 208.314L214.842 208.324Z" fill="white"/>
<path d="M210.152 211.834L210.532 216.464L209.862 216.894L206.682 212.934L207.262 212.564L209.852 215.784L209.862 215.774L209.472 211.134L210.142 210.704L213.322 214.664L212.742 215.034L210.172 211.824L210.152 211.834Z" fill="white"/>
<path d="M204.672 219.814C204.452 219.854 204.242 219.854 204.052 219.814C203.862 219.774 203.682 219.704 203.522 219.584C203.352 219.474 203.212 219.324 203.082 219.144C202.952 218.964 202.862 218.784 202.822 218.604C202.772 218.424 202.772 218.244 202.822 218.074C202.862 217.894 202.962 217.734 203.092 217.574C203.232 217.414 203.422 217.264 203.672 217.124L204.962 216.394L203.752 214.684L204.352 214.344L207.262 218.474L205.372 219.544C205.132 219.674 204.892 219.764 204.672 219.814ZM203.522 218.144C203.472 218.354 203.522 218.574 203.692 218.804C203.862 219.044 204.052 219.174 204.282 219.224C204.502 219.264 204.782 219.194 205.102 219.014L206.332 218.324L205.312 216.874L204.082 217.564C203.762 217.744 203.572 217.944 203.522 218.144Z" fill="white"/>
<path d="M195.422 221.124C195.352 220.924 195.302 220.714 195.282 220.514C195.262 220.304 195.272 220.104 195.302 219.904C195.342 219.704 195.412 219.504 195.522 219.314C195.622 219.124 195.762 218.944 195.942 218.784C196.122 218.624 196.332 218.474 196.592 218.344C196.842 218.224 197.102 218.134 197.352 218.084C197.592 218.044 197.842 218.034 198.082 218.054C198.302 218.074 198.532 218.124 198.742 218.214C198.962 218.294 199.162 218.394 199.342 218.524C199.532 218.654 199.692 218.794 199.852 218.954C200.002 219.114 200.132 219.294 200.242 219.474C200.442 219.804 200.572 220.134 200.642 220.464C200.702 220.784 200.702 221.104 200.632 221.394C200.562 221.684 200.412 221.954 200.192 222.204C199.972 222.454 199.692 222.664 199.332 222.844C198.972 223.014 198.612 223.124 198.262 223.144C197.912 223.174 197.582 223.134 197.262 223.034C196.942 222.934 196.662 222.764 196.382 222.544C196.102 222.314 195.872 222.044 195.672 221.704C195.572 221.514 195.482 221.324 195.422 221.124ZM196.852 222.044C197.052 222.224 197.282 222.354 197.512 222.444C197.752 222.534 198.002 222.564 198.252 222.544C198.512 222.534 198.772 222.464 199.032 222.334C199.292 222.204 199.502 222.054 199.652 221.864C199.802 221.684 199.902 221.474 199.952 221.254C200.002 221.034 200.002 220.794 199.942 220.544C199.882 220.294 199.772 220.034 199.622 219.784C199.462 219.524 199.282 219.304 199.092 219.124C198.892 218.944 198.672 218.814 198.442 218.724C198.212 218.634 197.962 218.604 197.712 218.614C197.452 218.634 197.182 218.704 196.902 218.844C196.622 218.984 196.402 219.144 196.252 219.324C196.102 219.514 195.992 219.714 195.952 219.934C195.912 220.154 195.922 220.384 195.992 220.634C196.052 220.874 196.162 221.134 196.322 221.394C196.472 221.644 196.652 221.864 196.852 222.044Z" fill="white"/>
<path d="M192.182 225.904C192.032 225.954 191.892 225.984 191.742 226.014C191.612 226.034 191.472 226.034 191.342 226.024C191.212 226.014 191.082 225.974 190.962 225.924C190.832 225.874 190.722 225.794 190.612 225.704C190.512 225.604 190.412 225.484 190.342 225.334C190.302 225.264 190.272 225.164 190.242 225.074C190.222 224.974 190.212 224.874 190.212 224.774C190.222 224.664 190.242 224.564 190.292 224.454C190.332 224.344 190.402 224.244 190.502 224.144C190.382 224.154 190.262 224.154 190.132 224.144C190.002 224.134 189.872 224.104 189.742 224.054C189.612 224.004 189.492 223.924 189.372 223.834C189.252 223.734 189.152 223.594 189.062 223.434C189.012 223.334 188.972 223.234 188.942 223.124C188.912 223.004 188.902 222.884 188.902 222.774C188.912 222.654 188.932 222.524 188.982 222.404C189.022 222.284 189.092 222.164 189.182 222.054C189.272 221.934 189.392 221.824 189.532 221.724C189.672 221.624 189.852 221.524 190.062 221.434L192.102 220.584L194.422 225.004L192.692 225.724C192.502 225.784 192.332 225.844 192.182 225.904ZM191.092 224.144C190.982 224.234 190.912 224.334 190.872 224.424C190.842 224.514 190.832 224.604 190.852 224.704C190.882 224.794 190.912 224.894 190.962 224.994C191.012 225.094 191.082 225.184 191.152 225.254C191.232 225.314 191.322 225.364 191.432 225.384C191.542 225.414 191.672 225.414 191.812 225.384C191.952 225.364 192.122 225.314 192.302 225.244L193.502 224.744L192.782 223.374L191.582 223.874C191.362 223.964 191.202 224.054 191.092 224.144ZM189.922 222.174C189.802 222.274 189.712 222.364 189.652 222.484C189.592 222.584 189.582 222.694 189.592 222.804C189.602 222.914 189.632 223.024 189.692 223.144C189.752 223.264 189.832 223.354 189.922 223.434C190.012 223.514 190.112 223.574 190.242 223.604C190.372 223.634 190.512 223.634 190.672 223.614C190.842 223.594 191.022 223.534 191.232 223.444L192.532 222.904L191.722 221.364L190.422 221.904C190.222 221.984 190.052 222.074 189.922 222.174Z" fill="white"/>
<path d="M181.952 224.434L182.692 224.174L183.842 225.374L185.792 224.694L185.722 223.114L186.422 222.874L186.622 228.124L185.822 228.404L181.952 224.434ZM184.242 225.794L185.892 227.544L185.832 225.244L184.242 225.794Z" fill="white"/>
<path d="M177.352 228.824L178.062 230.734L177.382 230.924L175.662 226.294L176.342 226.104L177.152 228.284L179.852 227.514L179.042 225.334L179.722 225.144L181.442 229.774L180.762 229.964L180.052 228.054L177.352 228.824Z" fill="white"/>
<path d="M172.532 228.044L171.032 232.444L170.232 232.624L168.842 227.914L169.532 227.754L170.662 231.584H170.672L172.172 227.164L172.972 226.984L174.362 231.694L173.672 231.854L172.542 228.044H172.532Z" fill="white"/>
<path d="M165.152 231.384C165.202 231.724 165.192 232.034 165.122 232.334C165.062 232.624 164.942 232.884 164.782 233.114C164.622 233.334 164.402 233.534 164.122 233.684C163.852 233.834 163.522 233.944 163.142 234.004C162.742 234.064 162.362 234.064 162.032 233.984C161.692 233.914 161.402 233.784 161.142 233.594C160.882 233.404 160.672 233.164 160.492 232.874C160.312 232.574 160.192 232.254 160.112 231.884C160.072 231.674 160.042 231.464 160.042 231.264C160.042 231.054 160.062 230.844 160.112 230.644C160.162 230.444 160.232 230.254 160.332 230.074C160.442 229.894 160.572 229.724 160.732 229.584C160.892 229.434 161.082 229.314 161.302 229.204C161.532 229.104 161.782 229.024 162.072 228.984C162.342 228.944 162.602 228.934 162.832 228.954C163.072 228.974 163.282 229.024 163.482 229.104C163.682 229.174 163.862 229.274 164.032 229.394C164.192 229.514 164.342 229.644 164.472 229.804C164.612 229.954 164.712 230.114 164.812 230.294C164.902 230.474 164.982 230.654 165.032 230.844L165.862 230.714L165.412 228.594L166.112 228.484L167.132 233.264L166.432 233.374L165.982 231.274L165.152 231.384ZM161.112 232.524C161.252 232.754 161.412 232.934 161.602 233.084C161.792 233.234 162.012 233.334 162.252 233.394C162.502 233.454 162.762 233.464 163.032 233.424C163.312 233.384 163.552 233.294 163.752 233.164C163.952 233.034 164.112 232.874 164.232 232.674C164.352 232.474 164.422 232.254 164.452 232.004C164.492 231.754 164.472 231.474 164.412 231.194C164.352 230.904 164.252 230.644 164.112 230.424C163.972 230.194 163.812 230.014 163.612 229.864C163.422 229.714 163.202 229.614 162.962 229.554C162.732 229.494 162.472 229.484 162.202 229.524C161.882 229.574 161.622 229.664 161.422 229.794C161.212 229.934 161.062 230.084 160.952 230.284C160.842 230.484 160.772 230.704 160.762 230.954C160.742 231.194 160.762 231.474 160.832 231.764C160.882 232.034 160.982 232.294 161.112 232.524Z" fill="white"/>
<path d="M150.452 235.134L149.452 235.194L151.482 233.104L148.912 230.364L149.822 230.304L151.942 232.624L152.732 231.814L152.562 230.134L153.272 230.094L153.752 234.934L153.042 234.974L152.812 232.614L150.452 235.134Z" fill="white"/>
<path d="M145.992 231.024C145.942 231.004 145.902 230.994 145.852 230.974L145.682 230.934C145.632 230.924 145.572 230.924 145.522 230.924C145.422 230.924 145.322 230.944 145.242 230.964C145.172 230.994 145.102 231.024 145.042 231.074C144.992 231.124 144.942 231.174 144.902 231.234C144.862 231.294 144.842 231.354 144.822 231.414L147.152 235.274L146.312 235.284L144.432 232.084L143.202 235.314L142.392 235.324L143.942 231.684C144.052 231.444 144.162 231.234 144.252 231.064C144.352 230.884 144.452 230.754 144.562 230.644C144.682 230.534 144.812 230.454 144.962 230.404C145.112 230.344 145.292 230.324 145.492 230.324C145.602 230.324 145.712 230.334 145.812 230.364C145.922 230.394 146.002 230.424 146.052 230.464L146.072 231.094C146.072 231.064 146.042 231.044 145.992 231.024Z" fill="white"/>
<path d="M136.752 235.024C136.542 234.944 136.372 234.834 136.232 234.714C136.092 234.584 135.992 234.434 135.932 234.254C135.862 234.074 135.842 233.884 135.842 233.674C135.852 233.454 135.882 233.274 135.962 233.104C136.032 232.934 136.142 232.784 136.292 232.674C136.442 232.554 136.622 232.464 136.832 232.404C137.052 232.344 137.302 232.324 137.602 232.334L139.142 232.404L139.202 230.394L139.922 230.424L139.772 235.264L137.522 235.164C137.212 235.144 136.962 235.094 136.752 235.024ZM136.832 233.074C136.652 233.214 136.562 233.424 136.562 233.694C136.552 233.974 136.632 234.184 136.792 234.344C136.952 234.494 137.222 234.584 137.602 234.594L139.062 234.664L139.112 232.964L137.652 232.894C137.282 232.874 137.002 232.934 136.832 233.074Z" fill="white"/>
<path d="M132.492 231.584C132.432 231.334 132.332 231.114 132.192 230.934C132.052 230.744 131.882 230.594 131.672 230.484C131.462 230.364 131.232 230.294 130.972 230.274C130.742 230.254 130.542 230.264 130.342 230.324C130.152 230.384 129.992 230.454 129.852 230.564C129.702 230.674 129.592 230.804 129.492 230.944C129.402 231.094 129.332 231.244 129.292 231.394L128.602 231.324C128.632 231.184 128.672 231.044 128.742 230.904C128.812 230.764 128.902 230.624 129.002 230.504C129.102 230.374 129.222 230.264 129.362 230.154C129.492 230.044 129.642 229.954 129.822 229.874C129.992 229.804 130.182 229.744 130.382 229.724C130.582 229.694 130.802 229.684 131.032 229.704C131.192 229.724 131.362 229.754 131.552 229.804C131.732 229.854 131.912 229.924 132.082 230.014C132.262 230.104 132.422 230.214 132.582 230.354C132.742 230.494 132.872 230.664 132.982 230.854C133.092 231.044 133.172 231.284 133.222 231.534C133.282 231.794 133.282 232.094 133.252 232.414C133.222 232.734 133.152 233.024 133.062 233.274C132.972 233.524 132.852 233.734 132.712 233.914C132.572 234.094 132.412 234.234 132.242 234.354C132.072 234.474 131.892 234.564 131.692 234.634C131.502 234.694 131.302 234.734 131.102 234.754C130.902 234.764 130.692 234.764 130.502 234.744C130.252 234.724 130.032 234.674 129.842 234.614C129.642 234.544 129.472 234.464 129.322 234.374C129.172 234.274 129.052 234.174 128.942 234.054C128.832 233.944 128.742 233.824 128.672 233.704C128.602 233.584 128.552 233.454 128.522 233.334C128.492 233.204 128.472 233.094 128.472 232.974L129.172 233.044C129.202 233.204 129.252 233.354 129.332 233.484C129.412 233.614 129.502 233.734 129.632 233.824C129.752 233.914 129.882 233.994 130.032 234.064C130.192 234.124 130.362 234.164 130.542 234.184C130.822 234.214 131.072 234.194 131.302 234.114C131.522 234.044 131.732 233.934 131.902 233.784C132.072 233.624 132.222 233.434 132.332 233.204C132.442 232.974 132.512 232.704 132.542 232.404C132.572 232.114 132.552 231.834 132.492 231.584Z" fill="white"/>
<path d="M123.562 231.724C123.242 231.674 122.982 231.594 122.752 231.494C122.532 231.384 122.352 231.264 122.222 231.124C122.092 230.984 122.002 230.814 121.962 230.634C121.922 230.454 121.912 230.254 121.952 230.034C121.992 229.824 122.062 229.634 122.162 229.484C122.262 229.324 122.402 229.184 122.562 229.094C122.722 228.994 122.922 228.924 123.132 228.894C123.352 228.864 123.602 228.864 123.862 228.914L126.152 229.294L125.312 234.064L124.602 233.944L124.952 231.974L123.562 231.724ZM123.472 229.434C123.342 229.444 123.232 229.474 123.122 229.524C123.022 229.574 122.932 229.654 122.862 229.744C122.792 229.844 122.742 229.974 122.722 230.134C122.692 230.294 122.692 230.434 122.722 230.544C122.762 230.664 122.832 230.764 122.912 230.844C123.002 230.924 123.122 230.984 123.252 231.044C123.392 231.094 123.552 231.134 123.732 231.164L125.072 231.384L125.372 229.694L123.872 229.454C123.732 229.434 123.602 229.424 123.472 229.434ZM121.492 228.494L120.652 233.264L119.942 233.144L120.782 228.374L121.492 228.494Z" fill="white"/>
<path d="M110.862 226.084L109.642 230.194L112.402 230.914L113.622 226.804L114.312 226.984L112.932 231.644L108.792 230.564L110.172 225.904L110.862 226.084Z" fill="white"/>
<path d="M102.202 225.314C102.322 225.134 102.452 224.964 102.612 224.824C102.772 224.674 102.942 224.544 103.132 224.434C103.322 224.324 103.532 224.244 103.762 224.194C103.992 224.144 104.232 224.114 104.482 224.124C104.742 224.134 105.002 224.184 105.292 224.274C105.572 224.364 105.822 224.484 106.032 224.624C106.232 224.764 106.412 224.914 106.552 225.094C106.692 225.264 106.802 225.444 106.882 225.644C106.962 225.844 107.022 226.044 107.032 226.254C107.062 226.464 107.052 226.664 107.032 226.884C107.002 227.084 106.952 227.294 106.872 227.494C106.742 227.854 106.562 228.144 106.342 228.414C106.122 228.674 105.862 228.874 105.582 229.014C105.292 229.154 104.972 229.234 104.622 229.254C104.262 229.274 103.902 229.214 103.512 229.094C103.122 228.964 102.792 228.794 102.532 228.574C102.262 228.354 102.072 228.114 101.942 227.834C101.812 227.554 101.752 227.254 101.742 226.924C101.742 226.584 101.802 226.254 101.942 225.894C101.982 225.684 102.082 225.494 102.202 225.314ZM102.432 226.884C102.422 227.134 102.472 227.374 102.552 227.584C102.642 227.804 102.792 227.984 102.972 228.144C103.162 228.314 103.402 228.444 103.682 228.534C103.962 228.624 104.232 228.664 104.502 228.644C104.752 228.624 104.992 228.564 105.202 228.444C105.422 228.334 105.612 228.174 105.782 227.964C105.942 227.764 106.082 227.524 106.182 227.254C106.282 226.974 106.352 226.704 106.362 226.464C106.372 226.214 106.332 225.974 106.242 225.764C106.152 225.554 106.012 225.364 105.822 225.204C105.632 225.044 105.382 224.914 105.082 224.814C104.782 224.714 104.502 224.674 104.242 224.694C103.982 224.714 103.742 224.774 103.532 224.894C103.322 225.014 103.142 225.174 102.982 225.384C102.822 225.584 102.692 225.824 102.582 226.104C102.492 226.364 102.432 226.634 102.432 226.884Z" fill="white"/>
<path d="M93.5919 219.964L91.6419 223.824L94.2419 224.934L96.1919 221.074L96.8419 221.354L94.6419 225.734L90.7319 224.064L92.9319 219.684L93.5919 219.964Z" fill="white"/>
<path d="M85.292 221.334C85.142 221.174 85.032 221.014 84.972 220.844C84.912 220.674 84.892 220.504 84.922 220.314C84.942 220.124 85.0219 219.954 85.1319 219.764C85.2419 219.574 85.372 219.424 85.522 219.304C85.672 219.184 85.842 219.094 86.032 219.054C86.222 219.004 86.432 219.004 86.652 219.034C86.882 219.074 87.1219 219.154 87.3819 219.284L88.742 219.954L89.782 218.194L90.412 218.504L87.912 222.744L85.922 221.754C85.652 221.634 85.442 221.484 85.292 221.334ZM86.312 219.634C86.082 219.684 85.902 219.834 85.762 220.074C85.622 220.314 85.582 220.534 85.662 220.744C85.732 220.944 85.942 221.124 86.272 221.294L87.562 221.934L88.4419 220.444L87.152 219.804C86.812 219.644 86.532 219.584 86.312 219.634Z" fill="white"/>
<path d="M79.3121 214.654C79.4721 214.504 79.6421 214.364 79.8321 214.254C80.0221 214.144 80.2221 214.044 80.4321 213.984C80.6421 213.914 80.8721 213.884 81.1021 213.874C81.3421 213.864 81.5721 213.894 81.8221 213.954C82.0721 214.014 82.3221 214.124 82.5721 214.264C82.8221 214.404 83.0321 214.574 83.2121 214.744C83.3821 214.914 83.5121 215.104 83.6121 215.304C83.7021 215.494 83.7721 215.694 83.8021 215.904C83.8321 216.114 83.8421 216.324 83.8021 216.524C83.7721 216.734 83.7221 216.924 83.6421 217.134C83.5621 217.324 83.4621 217.514 83.3421 217.694C83.1221 218.014 82.8821 218.264 82.5921 218.474C82.3121 218.674 82.0121 218.824 81.6921 218.904C81.3721 218.984 81.0321 218.994 80.6921 218.944C80.3421 218.894 79.9921 218.764 79.6421 218.564C79.2921 218.364 79.0121 218.134 78.8121 217.864C78.6021 217.604 78.4721 217.324 78.4121 217.024C78.3521 216.724 78.3621 216.424 78.4421 216.104C78.5221 215.774 78.6621 215.464 78.8821 215.144C79.0121 214.964 79.1521 214.794 79.3121 214.654ZM79.1521 216.224C79.0821 216.464 79.0721 216.704 79.1021 216.934C79.1421 217.164 79.2321 217.374 79.3821 217.564C79.5321 217.764 79.7321 217.934 79.9821 218.084C80.2421 218.234 80.4921 218.324 80.7521 218.354C81.0021 218.384 81.2521 218.374 81.4921 218.304C81.7321 218.234 81.9621 218.124 82.1721 217.954C82.3821 217.794 82.5721 217.584 82.7421 217.344C82.9121 217.094 83.0321 216.844 83.1121 216.614C83.1821 216.374 83.2021 216.134 83.1721 215.914C83.1421 215.694 83.0421 215.484 82.9021 215.284C82.7521 215.084 82.5421 214.914 82.2721 214.754C82.0021 214.594 81.7321 214.504 81.4721 214.464C81.2121 214.434 80.9621 214.444 80.7321 214.514C80.5021 214.584 80.2821 214.704 80.0821 214.874C79.8721 215.034 79.6921 215.244 79.5221 215.494C79.3421 215.724 79.2221 215.974 79.1521 216.224Z" fill="white"/>
<path d="M74.872 214.854L77.562 211.384L78.152 211.764L75.102 215.694L72.512 214.024L72.872 213.564L74.872 214.854Z" fill="white"/>
<path d="M67.9819 210.714C67.8719 210.534 67.7918 210.364 67.7618 210.184C67.7318 210.004 67.7519 209.834 67.8119 209.654C67.8719 209.474 67.9719 209.314 68.1219 209.144C68.2719 208.974 68.4218 208.844 68.6018 208.754C68.7718 208.654 68.9618 208.604 69.1518 208.584C69.3518 208.564 69.5518 208.594 69.7718 208.664C69.9918 208.734 70.2118 208.854 70.4518 209.024L71.6719 209.904L73.0318 208.344L73.6018 208.754L70.3218 212.524L68.5418 211.244C68.2818 211.064 68.1019 210.894 67.9819 210.714ZM69.3218 209.214C69.0818 209.234 68.8818 209.344 68.6918 209.564C68.5018 209.784 68.4318 209.984 68.4618 210.204C68.4918 210.404 68.6618 210.624 68.9618 210.844L70.1219 211.674L71.2718 210.354L70.1119 209.524C69.8119 209.294 69.5418 209.194 69.3218 209.214Z" fill="white"/>
<path d="M65.0219 202.194L65.6219 202.684L64.9719 204.124L66.5619 205.404L68.0919 204.674L68.6619 205.134L63.5718 207.544L62.9219 207.014L65.0219 202.194ZM64.7519 204.624L63.7919 206.714L66.0419 205.674L64.7519 204.624Z" fill="white"/>
<path d="M60.8818 199.574L56.6318 201.414L55.9019 200.744L59.6819 197.384L60.1619 197.824L56.9819 200.654L56.9919 200.664L61.2419 198.814L61.7519 199.284L59.6418 203.094L59.6519 203.104L62.8318 200.274L63.3119 200.714L59.5319 204.074L58.8019 203.404L60.9119 199.584L60.8818 199.574Z" fill="white"/>
<path d="M55.4318 194.204L51.0418 195.774L50.3618 195.064L54.4018 191.954L54.8418 192.424L51.4518 195.044L51.4618 195.054L55.8518 193.484L56.3218 193.984L53.9218 197.644L53.9318 197.654L57.3218 195.034L57.7618 195.504L53.7218 198.614L53.0418 197.904L55.4418 194.234L55.4318 194.204Z" fill="white"/>
<path d="M51.362 189.934L46.262 190.254L45.762 189.644L50.022 186.784L50.452 187.304L46.982 189.624L46.992 189.634L52.112 189.304L52.612 189.914L48.352 192.774L47.922 192.254L51.372 189.944L51.362 189.934Z" fill="white"/>
<path d="M42.3418 184.934C42.2918 184.734 42.2818 184.544 42.3118 184.374C42.3418 184.204 42.4218 184.044 42.5418 183.894C42.6618 183.744 42.8218 183.614 43.0218 183.504C43.2218 183.384 43.4118 183.304 43.6118 183.274C43.8118 183.234 44.0018 183.234 44.1918 183.274C44.3918 183.314 44.5718 183.394 44.7518 183.524C44.9318 183.654 45.1018 183.824 45.2718 184.054L46.1318 185.224L47.9818 184.144L48.3818 184.694L43.9318 187.304L42.6818 185.584C42.5118 185.344 42.4018 185.134 42.3418 184.934ZM44.1418 183.894C43.9118 183.844 43.6718 183.894 43.4218 184.044C43.1718 184.194 43.0218 184.364 42.9818 184.584C42.9418 184.784 43.0318 185.034 43.2418 185.324L44.0518 186.444L45.6118 185.524L44.8018 184.404C44.5918 184.114 44.3718 183.944 44.1418 183.894Z" fill="white"/>
<path d="M40.5419 176.554C40.7619 176.484 40.9819 176.444 41.2119 176.434C41.4419 176.424 41.6619 176.424 41.8919 176.454C42.1219 176.484 42.3419 176.554 42.5519 176.654C42.7619 176.744 42.9619 176.874 43.1519 177.034C43.3419 177.194 43.5119 177.394 43.6619 177.624C43.8119 177.854 43.9119 178.094 43.9719 178.314C44.0319 178.534 44.0519 178.754 44.0319 178.974C44.0119 179.174 43.9619 179.384 43.8819 179.574C43.8019 179.774 43.692 179.954 43.562 180.114C43.432 180.284 43.2719 180.434 43.1019 180.574C42.9319 180.704 42.7419 180.824 42.5419 180.924C42.1819 181.104 41.8319 181.224 41.4619 181.284C41.1019 181.344 40.7619 181.334 40.4419 181.274C40.1119 181.204 39.8119 181.074 39.5319 180.874C39.2419 180.674 39.0019 180.414 38.7919 180.094C38.5819 179.774 38.4519 179.444 38.4119 179.124C38.3619 178.804 38.3919 178.504 38.4919 178.224C38.5919 177.934 38.772 177.674 39.002 177.434C39.242 177.184 39.5419 176.974 39.9019 176.794C40.1119 176.694 40.3219 176.604 40.5419 176.554ZM39.5719 177.844C39.3819 178.024 39.2419 178.224 39.1519 178.434C39.0619 178.654 39.042 178.874 39.062 179.104C39.082 179.344 39.1719 179.574 39.3219 179.814C39.4719 180.054 39.652 180.244 39.872 180.384C40.082 180.524 40.3119 180.614 40.5519 180.654C40.8019 180.694 41.0619 180.694 41.3419 180.644C41.6119 180.594 41.8919 180.494 42.1619 180.354C42.4419 180.214 42.682 180.054 42.872 179.874C43.062 179.694 43.2019 179.494 43.2919 179.284C43.3819 179.074 43.4019 178.854 43.3819 178.624C43.3519 178.394 43.2619 178.144 43.0919 177.894C42.9319 177.644 42.7419 177.444 42.5319 177.304C42.3119 177.164 42.0919 177.064 41.8419 177.024C41.5919 176.984 41.3419 176.994 41.0719 177.054C40.8019 177.104 40.5319 177.204 40.2419 177.354C40.0019 177.494 39.7619 177.664 39.5719 177.844Z" fill="white"/>
<path d="M35.1419 173.604C35.0819 173.474 35.0419 173.344 35.0119 173.214C34.9919 173.094 34.9819 172.974 34.9819 172.844C34.9919 172.724 35.0319 172.614 35.0819 172.494C35.1319 172.384 35.222 172.274 35.312 172.184C35.422 172.094 35.5419 172.004 35.7019 171.934C35.7819 171.904 35.8819 171.874 35.9819 171.844C36.0919 171.824 36.202 171.814 36.312 171.824C36.432 171.834 36.5519 171.854 36.6619 171.894C36.7919 171.934 36.9019 171.994 37.0119 172.084C36.9919 171.974 36.9919 171.864 36.9919 171.754C37.0019 171.634 37.0319 171.524 37.0819 171.404C37.1319 171.294 37.212 171.184 37.312 171.074C37.422 170.964 37.5619 170.874 37.7419 170.794C37.8519 170.744 37.9619 170.714 38.0819 170.684C38.2119 170.654 38.3419 170.644 38.4719 170.654C38.6119 170.664 38.7419 170.684 38.8819 170.724C39.0219 170.764 39.1519 170.824 39.2819 170.904C39.4219 170.984 39.5419 171.094 39.6619 171.224C39.7819 171.354 39.892 171.514 40.002 171.704L41.0119 173.554L36.2219 175.634L35.3619 174.064C35.2819 173.884 35.2119 173.734 35.1419 173.604ZM39.1819 171.574C39.0719 171.464 38.9619 171.384 38.8319 171.334C38.7219 171.284 38.6019 171.274 38.4819 171.274C38.3619 171.284 38.2419 171.314 38.1119 171.364C37.9819 171.414 37.8819 171.484 37.8019 171.564C37.7219 171.644 37.6619 171.744 37.6319 171.854C37.6019 171.974 37.6119 172.094 37.6419 172.244C37.6719 172.394 37.7419 172.564 37.8419 172.754L38.4819 173.934L40.1519 173.214L39.5119 172.034C39.4019 171.844 39.2919 171.694 39.1819 171.574ZM37.0419 172.624C36.9419 172.524 36.8319 172.464 36.7219 172.424C36.6219 172.394 36.5219 172.384 36.4119 172.404C36.3119 172.424 36.2019 172.454 36.0919 172.504C35.9819 172.554 35.882 172.604 35.812 172.674C35.742 172.744 35.7019 172.824 35.6819 172.924C35.6519 173.024 35.6619 173.134 35.6919 173.264C35.7219 173.394 35.7819 173.544 35.8719 173.704L36.4719 174.794L37.9519 174.154L37.3519 173.064C37.2519 172.874 37.1519 172.724 37.0419 172.624Z" fill="white"/>
<path d="M36.3719 164.344L36.6819 165.014L35.3918 166.044L36.2219 167.814L37.9619 167.764L38.2618 168.394L32.4719 168.544L32.1318 167.814L36.3719 164.344ZM34.9619 166.414L33.0919 167.904L35.6318 167.854L34.9619 166.414Z" fill="white"/>
<path d="M31.352 160.174L29.272 160.804L29.032 160.184L34.082 158.654L34.322 159.274L31.942 159.994L32.902 162.444L35.282 161.724L35.522 162.344L30.472 163.874L30.232 163.254L32.312 162.624L31.352 160.174Z" fill="white"/>
<path d="M32.0319 155.804L27.1119 154.424L26.8818 153.704L32.0319 152.464L32.2319 153.094L28.0419 154.104V154.114L32.9819 155.494L33.2119 156.214L28.0619 157.454L27.8619 156.824L32.0319 155.824V155.804Z" fill="white"/>
<path d="M28.0719 149.114C27.7019 149.154 27.352 149.144 27.022 149.084C26.702 149.034 26.402 148.924 26.152 148.774C25.902 148.624 25.672 148.424 25.492 148.174C25.312 147.924 25.182 147.634 25.102 147.284C25.022 146.914 25.012 146.584 25.082 146.284C25.152 145.974 25.282 145.714 25.482 145.474C25.682 145.244 25.942 145.054 26.252 144.894C26.572 144.734 26.922 144.624 27.332 144.554C27.562 144.514 27.792 144.494 28.012 144.494C28.252 144.494 28.4719 144.514 28.6919 144.564C28.9119 144.604 29.132 144.674 29.332 144.764C29.532 144.864 29.7219 144.984 29.8819 145.124C30.0519 145.264 30.2019 145.444 30.3219 145.644C30.4419 145.854 30.542 146.084 30.602 146.344C30.662 146.594 30.682 146.824 30.662 147.034C30.652 147.254 30.602 147.444 30.522 147.624C30.452 147.804 30.352 147.974 30.222 148.114C30.092 148.264 29.952 148.394 29.792 148.504C29.632 148.624 29.452 148.724 29.262 148.804C29.072 148.884 28.872 148.954 28.662 149.004L28.832 149.754L31.152 149.354L31.302 149.994L26.062 150.894L25.912 150.254L28.222 149.854L28.0719 149.114ZM26.652 145.444C26.412 145.564 26.202 145.714 26.052 145.884C25.892 146.054 25.792 146.254 25.732 146.474C25.672 146.694 25.672 146.934 25.732 147.174C25.792 147.424 25.892 147.644 26.052 147.824C26.202 148.004 26.382 148.154 26.612 148.264C26.832 148.374 27.082 148.434 27.362 148.464C27.642 148.494 27.942 148.484 28.252 148.434C28.572 148.374 28.852 148.284 29.092 148.164C29.332 148.044 29.5419 147.894 29.6919 147.714C29.8519 147.544 29.952 147.344 30.012 147.124C30.072 146.914 30.072 146.684 30.012 146.434C29.942 146.144 29.8419 145.914 29.6919 145.734C29.5319 145.544 29.3619 145.404 29.1319 145.304C28.9119 145.204 28.6619 145.144 28.3819 145.124C28.1119 145.104 27.812 145.124 27.492 145.184C27.182 145.244 26.892 145.324 26.652 145.444Z" fill="white"/>
<path d="M23.4621 135.034L23.3921 134.134L25.7121 136.044L28.7321 133.824L28.8021 134.654L26.2421 136.484L27.1421 137.224L29.0021 137.134L29.0521 137.784L23.7021 138.034L23.6521 137.384L26.2621 137.264L23.4621 135.034Z" fill="white"/>
<path d="M27.9922 131.154C28.0122 131.114 28.0322 131.074 28.0522 131.024L28.0922 130.874C28.1022 130.824 28.1022 130.784 28.1022 130.734C28.1022 130.644 28.0822 130.554 28.0522 130.474C28.0222 130.404 27.9822 130.344 27.9322 130.294C27.8822 130.244 27.8221 130.194 27.7621 130.164C27.7021 130.134 27.6222 130.114 27.5622 130.084L23.3022 132.044L23.2922 131.284L26.8221 129.704L23.2522 128.464L23.2422 127.734L27.2722 129.274C27.5322 129.384 27.7721 129.484 27.9521 129.574C28.1521 129.674 28.3022 129.764 28.4222 129.874C28.5422 129.984 28.6321 130.104 28.6921 130.244C28.7521 130.384 28.7822 130.544 28.7822 130.734C28.7822 130.834 28.7722 130.934 28.7422 131.024C28.7122 131.114 28.6821 131.194 28.6321 131.244H27.9421C27.9421 131.224 27.9622 131.194 27.9922 131.154Z" fill="white"/>
<path d="M23.5322 122.634C23.6222 122.454 23.7323 122.294 23.8723 122.174C24.0123 122.054 24.1822 121.974 24.3822 121.924C24.5822 121.864 24.7922 121.854 25.0322 121.864C25.2722 121.874 25.4822 121.914 25.6722 121.994C25.8622 122.064 26.0222 122.174 26.1522 122.304C26.2922 122.444 26.3822 122.604 26.4522 122.804C26.5222 123.004 26.5422 123.234 26.5322 123.504L26.4622 124.894L28.6823 125.024L28.6522 125.674L23.3022 125.354L23.4022 123.324C23.3922 123.054 23.4422 122.824 23.5322 122.634ZM25.6823 122.784C25.5223 122.624 25.3022 122.534 24.9922 122.514C24.6822 122.494 24.4522 122.554 24.2822 122.704C24.1222 122.844 24.0223 123.084 24.0023 123.434L23.9323 124.754L25.8123 124.864L25.8822 123.544C25.9022 123.194 25.8323 122.944 25.6823 122.784Z" fill="white"/>
<path d="M27.3121 118.924C27.5921 118.884 27.8321 118.804 28.0321 118.684C28.2421 118.564 28.4021 118.414 28.5321 118.234C28.6621 118.054 28.7321 117.844 28.7621 117.604C28.7821 117.394 28.7721 117.214 28.7021 117.034C28.6421 116.864 28.5521 116.714 28.4321 116.584C28.3021 116.444 28.1721 116.334 28.0121 116.244C27.8521 116.154 27.6821 116.084 27.5121 116.044L27.5821 115.424C27.7321 115.454 27.8921 115.504 28.0421 115.564C28.2021 115.634 28.3521 115.714 28.4821 115.814C28.6221 115.914 28.7521 116.024 28.8721 116.154C28.9921 116.274 29.0921 116.414 29.1821 116.574C29.2621 116.734 29.3221 116.904 29.3521 117.094C29.3921 117.274 29.4021 117.474 29.3721 117.684C29.3521 117.834 29.3221 117.984 29.2621 118.144C29.2121 118.304 29.1321 118.464 29.0321 118.624C28.9421 118.784 28.8121 118.924 28.6521 119.064C28.5021 119.204 28.3121 119.314 28.1021 119.404C27.8921 119.494 27.6321 119.564 27.3521 119.594C27.0721 119.634 26.7421 119.634 26.3721 119.594C26.0121 119.554 25.6921 119.484 25.4221 119.384C25.1521 119.294 24.9121 119.174 24.7121 119.044C24.5121 118.914 24.3521 118.764 24.2221 118.604C24.0921 118.444 23.9921 118.274 23.9121 118.104C23.8421 117.924 23.7921 117.744 23.7721 117.564C23.7521 117.374 23.7521 117.194 23.7721 117.024C23.8021 116.804 23.8521 116.604 23.9121 116.434C23.9821 116.264 24.0721 116.104 24.1721 115.964C24.2821 115.834 24.3921 115.724 24.5221 115.634C24.6421 115.544 24.7721 115.464 24.9121 115.404C25.0421 115.344 25.1821 115.304 25.3221 115.284C25.4621 115.264 25.5921 115.244 25.7121 115.254L25.6421 115.884C25.4621 115.904 25.3021 115.944 25.1621 116.014C25.0221 116.074 24.8921 116.164 24.7821 116.274C24.6821 116.374 24.5921 116.494 24.5221 116.634C24.4621 116.774 24.4121 116.924 24.3921 117.084C24.3621 117.334 24.3921 117.564 24.4721 117.774C24.5421 117.984 24.6721 118.174 24.8421 118.334C25.0221 118.494 25.2321 118.634 25.4821 118.744C25.7421 118.844 26.0421 118.924 26.3621 118.964C26.7221 118.974 27.0321 118.964 27.3121 118.924Z" fill="white"/>
<path d="M30.662 109.084L25.382 108.144L25.502 107.504L30.782 108.444L30.662 109.084ZM27.112 110.834C27.172 110.554 27.252 110.314 27.372 110.114C27.482 109.914 27.622 109.764 27.782 109.654C27.942 109.534 28.122 109.464 28.322 109.434C28.522 109.404 28.742 109.404 28.992 109.454C29.232 109.494 29.432 109.564 29.602 109.664C29.782 109.764 29.932 109.894 30.042 110.044C30.152 110.194 30.232 110.374 30.262 110.574C30.292 110.774 30.292 110.994 30.242 111.234L29.842 113.294L24.562 112.354L24.682 111.714L26.862 112.104L27.112 110.834ZM29.632 110.834C29.622 110.714 29.582 110.614 29.532 110.514C29.472 110.424 29.392 110.334 29.282 110.274C29.172 110.204 29.032 110.164 28.852 110.134C28.672 110.104 28.522 110.094 28.402 110.124C28.272 110.154 28.162 110.214 28.062 110.284C27.982 110.364 27.902 110.464 27.842 110.584C27.782 110.714 27.742 110.854 27.712 111.014L27.472 112.224L29.342 112.554L29.602 111.214C29.632 111.074 29.642 110.954 29.632 110.834Z" fill="white"/>
<path d="M33.2721 99.5542L28.7221 98.2942L27.9421 100.764L32.4921 102.024L32.2921 102.644L27.1421 101.224L28.3121 97.5242L33.4621 98.9442L33.2721 99.5542Z" fill="white"/>
<path d="M34.082 91.7442C34.282 91.8542 34.462 91.9842 34.632 92.1342C34.792 92.2842 34.9421 92.4442 35.0621 92.6142C35.1821 92.7942 35.272 92.9842 35.332 93.1942C35.392 93.4042 35.422 93.6142 35.412 93.8542C35.402 94.0842 35.3421 94.3242 35.2421 94.5742C35.1421 94.8242 35.012 95.0442 34.862 95.2242C34.712 95.4042 34.542 95.5542 34.342 95.6742C34.162 95.7942 33.9521 95.8842 33.7421 95.9442C33.5221 96.0142 33.302 96.0542 33.072 96.0642C32.842 96.0842 32.612 96.0642 32.382 96.0342C32.152 96.0042 31.932 95.9442 31.712 95.8742C31.322 95.7442 30.982 95.5742 30.692 95.3542C30.412 95.1442 30.182 94.9041 30.022 94.6441C29.862 94.3741 29.7721 94.0842 29.7521 93.7642C29.7321 93.4442 29.792 93.1142 29.922 92.7642C30.062 92.4142 30.2521 92.1241 30.4921 91.8941C30.7321 91.6641 31.0021 91.4942 31.3121 91.3842C31.6221 91.2742 31.952 91.2342 32.322 91.2442C32.692 91.2542 33.062 91.3242 33.462 91.4642C33.682 91.5342 33.892 91.6242 34.082 91.7442ZM32.352 91.8941C32.072 91.8741 31.812 91.9142 31.572 91.9842C31.332 92.0642 31.122 92.1842 30.952 92.3442C30.762 92.5142 30.632 92.7242 30.532 92.9742C30.432 93.2242 30.392 93.4742 30.412 93.7042C30.432 93.9342 30.502 94.1542 30.632 94.3442C30.762 94.5442 30.932 94.7242 31.162 94.8842C31.392 95.0442 31.652 95.1742 31.952 95.2742C32.262 95.3842 32.552 95.4442 32.822 95.4642C33.102 95.4842 33.362 95.4542 33.592 95.3842C33.832 95.3142 34.032 95.1942 34.212 95.0342C34.392 94.8642 34.532 94.6442 34.642 94.3742C34.752 94.1042 34.792 93.8542 34.772 93.6142C34.742 93.3742 34.682 93.1642 34.552 92.9642C34.422 92.7642 34.242 92.6042 34.012 92.4542C33.792 92.3042 33.522 92.1742 33.212 92.0642C32.922 91.9642 32.632 91.9041 32.352 91.8941Z" fill="white"/>
<path d="M39.952 84.1542L35.6721 82.2442L34.462 84.5542L38.7421 86.4642L38.442 87.0442L33.592 84.8842L35.4221 81.4142L40.272 83.5742L39.952 84.1542Z" fill="white"/>
<path d="M38.402 76.5841C38.572 76.4541 38.752 76.3641 38.942 76.3141C39.132 76.2641 39.322 76.2541 39.522 76.2941C39.732 76.3241 39.922 76.3941 40.132 76.5041C40.342 76.6141 40.512 76.7341 40.642 76.8741C40.782 77.0141 40.8721 77.1741 40.9221 77.3441C40.9821 77.5241 40.982 77.7041 40.952 77.9041C40.912 78.1041 40.8221 78.3241 40.6821 78.5541L39.942 79.7641L41.892 80.7641L41.5521 81.3241L36.8521 78.9041L37.9321 77.1341C38.0721 76.9041 38.232 76.7241 38.402 76.5841ZM40.282 77.5741C40.222 77.3641 40.0521 77.1941 39.7921 77.0541C39.5221 76.9141 39.2821 76.8741 39.0521 76.9341C38.8321 76.9941 38.632 77.1741 38.452 77.4741L37.7521 78.6241L39.402 79.4741L40.1021 78.3241C40.2821 78.0341 40.342 77.7741 40.282 77.5741Z" fill="white"/>
<path d="M45.7521 71.4342C45.9221 71.5842 46.072 71.7442 46.192 71.9242C46.312 72.1042 46.4221 72.2842 46.4921 72.4842C46.5721 72.6842 46.6121 72.8842 46.6121 73.0942C46.6221 73.3042 46.5921 73.5242 46.5221 73.7442C46.4521 73.9642 46.3421 74.1842 46.1821 74.4142C46.0221 74.6342 45.8521 74.8242 45.6521 74.9742C45.4621 75.1142 45.2521 75.2342 45.0321 75.3142C44.8221 75.3942 44.6021 75.4442 44.3721 75.4642C44.1421 75.4842 43.912 75.4842 43.692 75.4442C43.462 75.4142 43.2421 75.3542 43.0221 75.2742C42.8121 75.1942 42.6021 75.0942 42.4021 74.9842C42.0521 74.7742 41.7621 74.5442 41.5321 74.2742C41.3021 74.0142 41.1421 73.7342 41.0521 73.4442C40.9621 73.1542 40.9521 72.8442 41.0021 72.5342C41.0621 72.2142 41.1921 71.9042 41.4121 71.5942C41.6321 71.2842 41.8921 71.0341 42.1821 70.8641C42.4721 70.6841 42.7821 70.5742 43.1021 70.5342C43.4221 70.4942 43.7721 70.5142 44.1221 70.5942C44.4821 70.6842 44.8321 70.8242 45.1821 71.0342C45.4121 71.1442 45.5921 71.2842 45.7521 71.4342ZM44.0221 71.2242C43.7521 71.1542 43.4921 71.1342 43.2421 71.1542C42.9921 71.1842 42.7521 71.2542 42.5421 71.3842C42.3221 71.5042 42.1321 71.6842 41.9721 71.9142C41.8121 72.1442 41.7121 72.3642 41.6821 72.6042C41.6421 72.8342 41.6621 73.0542 41.7421 73.2742C41.8221 73.4942 41.9421 73.7042 42.1321 73.9042C42.3121 74.1042 42.5421 74.2842 42.8121 74.4442C43.0921 74.6042 43.3621 74.7241 43.6221 74.8041C43.8921 74.8741 44.1521 74.9042 44.4021 74.8842C44.6521 74.8642 44.8821 74.7842 45.0921 74.6642C45.3121 74.5342 45.5021 74.3541 45.6721 74.1141C45.8421 73.8741 45.9421 73.6342 45.9821 73.4042C46.0121 73.1642 46.0021 72.9442 45.9221 72.7342C45.8421 72.5242 45.7021 72.3142 45.5221 72.1242C45.3421 71.9342 45.1121 71.7542 44.8321 71.5942C44.5721 71.4142 44.2921 71.3042 44.0221 71.2242Z" fill="white"/>
<path d="M45.5021 67.4141L49.3521 69.9841L48.9321 70.5041L44.572 67.5941L46.402 65.3141L46.912 65.6541L45.5021 67.4141Z" fill="white"/>
<path d="M50.0421 61.3341C50.2321 61.2341 50.4321 61.1741 50.6221 61.1541C50.8121 61.1341 51.012 61.1541 51.202 61.2241C51.402 61.2841 51.582 61.3841 51.772 61.5241C51.962 61.6641 52.102 61.8041 52.212 61.9641C52.322 62.1241 52.382 62.2941 52.402 62.4641C52.422 62.6441 52.392 62.8341 52.322 63.0141C52.242 63.2041 52.1121 63.4041 51.9321 63.6141L50.972 64.6841L52.712 65.9741L52.262 66.4741L48.082 63.3641L49.4921 61.8041C49.6621 61.5941 49.8421 61.4441 50.0421 61.3341ZM51.712 62.6041C51.692 62.3941 51.562 62.1941 51.322 62.0241C51.082 61.8541 50.8521 61.7641 50.6121 61.7941C50.3821 61.8141 50.152 61.9641 49.912 62.2241L49.0021 63.2441L50.472 64.3341L51.382 63.3141C51.622 63.0441 51.732 62.8041 51.712 62.6041Z" fill="white"/>
<path d="M59.452 58.9742L58.912 59.5042L57.312 58.8542L55.902 60.2441L56.722 61.6541L56.212 62.1541L53.522 57.4542L54.102 56.8842L59.452 58.9742ZM56.762 58.6342L54.452 57.6942L55.612 59.7642L56.762 58.6342Z" fill="white"/>
<path d="M62.332 55.3141L60.272 51.3941L61.012 50.7542L64.7521 54.3041L64.272 54.7141L61.132 51.7342L61.1221 51.7441L63.1821 55.6541L62.6721 56.0941L58.442 54.0442L58.4321 54.0541L61.572 57.0341L61.092 57.4442L57.3521 53.8941L58.092 53.2542L62.322 55.3041L62.332 55.3141Z" fill="white"/>
<path d="M68.2421 50.5841L66.4921 46.5541L67.2821 45.9641L70.7421 49.7341L70.2321 50.1141L67.3221 46.9441L67.3121 46.9541L69.0721 50.9841L68.5221 51.3941L64.4621 49.0841L64.4521 49.0941L67.3621 52.2641L66.8521 52.6441L63.3921 48.8741L64.1821 48.2841L68.2521 50.5941L68.2421 50.5841Z" fill="white"/>
<path d="M72.9323 47.0742L72.5522 42.4442L73.2222 42.0142L76.4022 45.9742L75.8222 46.3441L73.2322 43.1241L73.2222 43.1342L73.6122 47.7741L72.9422 48.2042L69.7622 44.2441L70.3422 43.8741L72.9122 47.0841L72.9323 47.0742Z" fill="white"/>
<path d="M78.412 39.0941C78.632 39.0541 78.842 39.0541 79.032 39.0941C79.222 39.1341 79.4021 39.2041 79.5621 39.3241C79.7321 39.4341 79.8721 39.5841 80.0021 39.7641C80.1321 39.9441 80.222 40.1241 80.262 40.3041C80.312 40.4841 80.312 40.6641 80.262 40.8341C80.222 41.0141 80.1221 41.1741 79.9921 41.3341C79.8521 41.4941 79.662 41.6441 79.412 41.7841L78.1221 42.5141L79.332 44.2241L78.7321 44.5641L75.822 40.4341L77.712 39.3641C77.962 39.2341 78.192 39.1441 78.412 39.0941ZM79.572 40.7641C79.622 40.5541 79.572 40.3341 79.402 40.1041C79.232 39.8641 79.0421 39.7341 78.8121 39.6841C78.5921 39.6441 78.3121 39.7141 77.9921 39.8941L76.762 40.5841L77.782 42.0341L79.012 41.3341C79.332 41.1641 79.512 40.9641 79.572 40.7641Z" fill="white"/>
<path d="M87.6721 37.7841C87.7421 37.9841 87.7921 38.1941 87.8121 38.3941C87.8321 38.6041 87.822 38.8041 87.792 39.0041C87.752 39.2041 87.682 39.4041 87.572 39.5941C87.472 39.7841 87.332 39.9641 87.152 40.1241C86.972 40.2841 86.7621 40.4341 86.5021 40.5641C86.2521 40.6841 85.9921 40.7741 85.7421 40.8241C85.5021 40.8641 85.252 40.8741 85.012 40.8541C84.782 40.8341 84.562 40.7841 84.352 40.6941C84.132 40.6141 83.9321 40.5141 83.7521 40.3841C83.5621 40.2541 83.4021 40.1141 83.2421 39.9541C83.0921 39.7941 82.962 39.6241 82.852 39.4341C82.652 39.1041 82.522 38.7741 82.452 38.4441C82.392 38.1241 82.392 37.8041 82.462 37.5141C82.532 37.2241 82.682 36.9541 82.902 36.7041C83.122 36.4541 83.402 36.2441 83.762 36.0641C84.122 35.8941 84.482 35.7841 84.832 35.7641C85.182 35.7341 85.512 35.7741 85.832 35.8741C86.152 35.9741 86.432 36.1441 86.712 36.3641C86.992 36.5941 87.2221 36.8641 87.4221 37.2041C87.5121 37.3841 87.6021 37.5841 87.6721 37.7841ZM86.232 36.8541C86.032 36.6741 85.802 36.5441 85.572 36.4541C85.332 36.3641 85.082 36.3341 84.832 36.3541C84.572 36.3641 84.3121 36.4341 84.0521 36.5641C83.7921 36.6941 83.5821 36.8441 83.4321 37.0341C83.2821 37.2141 83.182 37.4241 83.132 37.6441C83.082 37.8641 83.082 38.1041 83.142 38.3541C83.202 38.6041 83.312 38.8641 83.462 39.1141C83.622 39.3741 83.8021 39.5941 83.9921 39.7741C84.1921 39.9541 84.412 40.0841 84.642 40.1741C84.872 40.2641 85.1221 40.2941 85.3721 40.2841C85.6321 40.2641 85.9021 40.1941 86.1821 40.0541C86.4621 39.9141 86.682 39.7541 86.832 39.5741C86.982 39.3841 87.092 39.1841 87.132 38.9641C87.172 38.7441 87.162 38.5141 87.092 38.2641C87.032 38.0241 86.922 37.7641 86.762 37.5041C86.622 37.2541 86.432 37.0341 86.232 36.8541Z" fill="white"/>
<path d="M90.9021 33.0041C91.0521 32.9541 91.1921 32.9241 91.3421 32.8941C91.4721 32.8741 91.6121 32.8741 91.7421 32.8841C91.8721 32.8941 92.0021 32.9341 92.1221 32.9841C92.2521 33.0341 92.3621 33.1141 92.4721 33.2041C92.5721 33.3041 92.6721 33.4241 92.7421 33.5741C92.7821 33.6441 92.8121 33.7441 92.8421 33.8341C92.8621 33.9341 92.8721 34.0341 92.8721 34.1341C92.8621 34.2441 92.8421 34.3441 92.7921 34.4541C92.7521 34.5641 92.6821 34.6641 92.5821 34.7641C92.7021 34.7541 92.8221 34.7541 92.9521 34.7641C93.0821 34.7741 93.2121 34.8041 93.3421 34.8541C93.4721 34.9041 93.5921 34.9841 93.7121 35.0741C93.8321 35.1741 93.9321 35.3141 94.0221 35.4741C94.0721 35.5741 94.1121 35.6741 94.1421 35.7841C94.1721 35.9041 94.1821 36.0241 94.1821 36.1341C94.1721 36.2541 94.1521 36.3841 94.1021 36.5041C94.0621 36.6241 93.9921 36.7441 93.9021 36.8541C93.8121 36.9741 93.6921 37.0841 93.5521 37.1841C93.4121 37.2841 93.2321 37.3841 93.0221 37.4741L90.9821 38.3241L88.6621 33.9041L90.3921 33.1841C90.5821 33.1241 90.7521 33.0641 90.9021 33.0041ZM93.1621 36.7341C93.2821 36.6341 93.3721 36.5441 93.4321 36.4241C93.4921 36.3241 93.5021 36.2141 93.4921 36.1041C93.4821 35.9941 93.4521 35.8841 93.3921 35.7641C93.3321 35.6441 93.2521 35.5541 93.1621 35.4741C93.0721 35.3941 92.9721 35.3341 92.8421 35.3041C92.7121 35.2741 92.5721 35.2741 92.4121 35.2941C92.2421 35.3141 92.0621 35.3741 91.8521 35.4641L90.5521 36.0041L91.3621 37.5441L92.6621 37.0041C92.8721 36.9241 93.0321 36.8341 93.1621 36.7341ZM91.9921 34.7641C92.1021 34.6741 92.1721 34.5741 92.2121 34.4841C92.2521 34.3941 92.2521 34.3041 92.2321 34.2041C92.2121 34.1141 92.1721 34.0141 92.1221 33.9141C92.0721 33.8141 92.0021 33.7241 91.9321 33.6541C91.8521 33.5941 91.7621 33.5441 91.6521 33.5241C91.5421 33.4941 91.4121 33.4941 91.2721 33.5241C91.1321 33.5441 90.9621 33.5941 90.7821 33.6641L89.5821 34.1641L90.3021 35.5341L91.5021 35.0341C91.7221 34.9441 91.8821 34.8541 91.9921 34.7641Z" fill="white"/>
<path d="M101.132 34.474L100.392 34.734L99.2422 33.534L97.2922 34.214L97.3622 35.794L96.6622 36.034L96.4622 30.784L97.2621 30.504L101.132 34.474ZM98.8522 33.114L97.2021 31.364L97.2621 33.664L98.8522 33.114Z" fill="white"/>
<path d="M105.732 30.084L105.022 28.1741L105.702 27.9841L107.422 32.614L106.742 32.804L105.932 30.6241L103.232 31.394L104.042 33.5741L103.362 33.7641L101.642 29.1341L102.322 28.9441L103.032 30.8541L105.732 30.084Z" fill="white"/>
<path d="M110.552 30.864L112.052 26.4641L112.852 26.2841L114.242 30.994L113.552 31.1541L112.422 27.3241H112.412L110.912 31.744L110.112 31.9241L108.722 27.2141L109.412 27.054L110.542 30.864H110.552Z" fill="white"/>
<path d="M117.932 27.5241C117.882 27.1841 117.892 26.8741 117.962 26.5741C118.022 26.2841 118.142 26.0241 118.302 25.7941C118.462 25.5741 118.682 25.3741 118.962 25.2241C119.232 25.0741 119.562 24.9641 119.942 24.9041C120.342 24.8441 120.722 24.8441 121.052 24.9241C121.392 24.9941 121.682 25.1241 121.942 25.3141C122.202 25.5041 122.412 25.7441 122.592 26.0341C122.772 26.3341 122.892 26.6541 122.972 27.0241C123.012 27.2341 123.042 27.4441 123.042 27.6441C123.042 27.8541 123.022 28.0641 122.972 28.2641C122.922 28.4641 122.852 28.6541 122.752 28.8341C122.652 29.0141 122.512 29.1841 122.352 29.3241C122.192 29.4741 122.002 29.5941 121.782 29.7041C121.552 29.8041 121.302 29.8841 121.012 29.9241C120.742 29.9641 120.482 29.9741 120.252 29.9541C120.012 29.9341 119.802 29.8841 119.602 29.8041C119.402 29.7341 119.222 29.6341 119.052 29.5141C118.892 29.3941 118.742 29.2641 118.612 29.1041C118.472 28.9541 118.372 28.7941 118.272 28.6141C118.182 28.4341 118.102 28.2541 118.052 28.0641L117.222 28.1941L117.672 30.3141L116.972 30.4241L115.952 25.6441L116.652 25.5341L117.102 27.6341L117.932 27.5241ZM121.972 26.3841C121.832 26.1541 121.672 25.9741 121.482 25.8241C121.292 25.6741 121.072 25.5741 120.832 25.5141C120.582 25.4541 120.322 25.4441 120.052 25.4841C119.772 25.5241 119.532 25.6141 119.332 25.7441C119.132 25.8741 118.972 26.0341 118.852 26.2341C118.732 26.4341 118.662 26.6541 118.632 26.9041C118.592 27.1541 118.612 27.4341 118.672 27.7141C118.732 28.0041 118.832 28.2641 118.972 28.4841C119.112 28.7141 119.272 28.8941 119.472 29.0441C119.662 29.1941 119.882 29.2941 120.122 29.3541C120.352 29.4141 120.612 29.4241 120.882 29.3841C121.202 29.3341 121.462 29.2441 121.662 29.1141C121.872 28.9741 122.022 28.8241 122.132 28.6241C122.242 28.4241 122.312 28.2041 122.322 27.9541C122.342 27.7141 122.322 27.4341 122.252 27.1441C122.202 26.8641 122.112 26.6041 121.972 26.3841Z" fill="white"/>
<path d="M132.632 23.7641L133.632 23.7041L131.602 25.7941L134.172 28.5341L133.262 28.5941L131.142 26.2741L130.352 27.0841L130.522 28.7641L129.812 28.8041L129.332 23.9641L130.042 23.9241L130.272 26.2841L132.632 23.7641Z" fill="white"/>
<path d="M137.092 27.8841C137.142 27.9041 137.182 27.9141 137.232 27.9341L137.402 27.9741C137.452 27.9841 137.512 27.9841 137.562 27.9841C137.662 27.9841 137.762 27.9641 137.842 27.9441C137.912 27.9141 137.982 27.884 138.042 27.834C138.092 27.784 138.142 27.7341 138.182 27.6741C138.222 27.6141 138.242 27.554 138.262 27.494L135.932 23.6341L136.772 23.6241L138.652 26.8241L139.882 23.5941L140.692 23.584L139.142 27.2241C139.032 27.4641 138.922 27.6741 138.832 27.8441C138.732 28.0241 138.632 28.1541 138.522 28.2641C138.402 28.3741 138.272 28.4541 138.122 28.5041C137.972 28.5641 137.792 28.584 137.592 28.584C137.482 28.584 137.372 28.5741 137.272 28.5441C137.162 28.5141 137.082 28.4841 137.032 28.4441L137.012 27.8141C137.012 27.8441 137.052 27.8641 137.092 27.8841Z" fill="white"/>
<path d="M146.342 23.8841C146.552 23.9641 146.722 24.0741 146.862 24.1941C147.002 24.3241 147.102 24.4741 147.162 24.6541C147.232 24.8341 147.252 25.0241 147.252 25.2341C147.242 25.4541 147.212 25.6341 147.132 25.8141C147.062 25.9841 146.952 26.134 146.802 26.244C146.652 26.364 146.472 26.4541 146.262 26.5141C146.042 26.5741 145.792 26.594 145.492 26.584L143.952 26.5141L143.892 28.524L143.172 28.494L143.322 23.6541L145.572 23.7541C145.872 23.7641 146.122 23.8041 146.342 23.8841ZM146.252 25.834C146.432 25.694 146.522 25.4841 146.522 25.2141C146.532 24.9341 146.452 24.7241 146.292 24.5641C146.132 24.4141 145.862 24.3241 145.482 24.3141L144.022 24.244L143.972 25.9441L145.432 26.0141C145.802 26.0341 146.082 25.964 146.252 25.834Z" fill="white"/>
<path d="M150.592 27.324C150.652 27.574 150.752 27.794 150.892 27.974C151.032 28.164 151.202 28.314 151.412 28.424C151.622 28.544 151.852 28.614 152.112 28.634C152.342 28.654 152.542 28.644 152.742 28.584C152.932 28.524 153.092 28.454 153.232 28.344C153.382 28.234 153.492 28.104 153.592 27.964C153.682 27.814 153.752 27.664 153.792 27.514L154.482 27.584C154.452 27.724 154.412 27.864 154.342 28.004C154.272 28.144 154.182 28.284 154.082 28.404C153.982 28.534 153.862 28.644 153.722 28.754C153.592 28.864 153.442 28.954 153.262 29.034C153.092 29.104 152.902 29.164 152.702 29.184C152.502 29.214 152.282 29.224 152.052 29.204C151.892 29.184 151.722 29.154 151.532 29.104C151.352 29.054 151.172 28.984 151.002 28.894C150.822 28.804 150.662 28.694 150.502 28.554C150.342 28.414 150.212 28.244 150.102 28.054C149.992 27.864 149.912 27.624 149.862 27.374C149.802 27.114 149.802 26.814 149.832 26.494C149.862 26.174 149.932 25.884 150.022 25.634C150.112 25.384 150.232 25.174 150.372 24.994C150.512 24.814 150.672 24.674 150.842 24.554C151.012 24.434 151.192 24.344 151.392 24.274C151.582 24.214 151.782 24.174 151.982 24.154C152.182 24.144 152.392 24.144 152.582 24.164C152.832 24.184 153.052 24.234 153.242 24.294C153.442 24.364 153.612 24.444 153.762 24.534C153.912 24.634 154.032 24.734 154.142 24.854C154.252 24.964 154.342 25.084 154.412 25.204C154.482 25.324 154.532 25.454 154.562 25.574C154.592 25.704 154.612 25.814 154.612 25.934L153.912 25.864C153.882 25.704 153.832 25.554 153.752 25.424C153.672 25.294 153.582 25.174 153.452 25.084C153.332 24.994 153.202 24.914 153.052 24.844C152.892 24.784 152.722 24.744 152.542 24.724C152.262 24.694 152.012 24.714 151.782 24.794C151.562 24.864 151.352 24.974 151.182 25.124C151.012 25.284 150.862 25.474 150.752 25.704C150.642 25.934 150.572 26.204 150.542 26.504C150.522 26.794 150.532 27.074 150.592 27.324Z" fill="white"/>
<path d="M161.592 30.4141L162.432 25.644L163.142 25.7641L162.302 30.5341L161.592 30.4141ZM159.522 27.1841C159.842 27.2341 160.102 27.3141 160.332 27.4141C160.552 27.5241 160.732 27.6441 160.862 27.7841C160.992 27.9341 161.082 28.094 161.122 28.274C161.162 28.454 161.172 28.6541 161.132 28.8741C161.092 29.0841 161.022 29.2741 160.922 29.4241C160.822 29.5841 160.682 29.7241 160.522 29.8141C160.362 29.9141 160.162 29.9841 159.952 30.0141C159.732 30.0441 159.482 30.044 159.222 29.994L156.932 29.614L157.772 24.8441L158.482 24.9641L158.132 26.9341L159.522 27.1841ZM159.622 29.4741C159.752 29.4641 159.862 29.4341 159.972 29.3841C160.072 29.3341 160.162 29.2541 160.232 29.1641C160.302 29.0641 160.352 28.934 160.372 28.774C160.402 28.614 160.402 28.474 160.372 28.364C160.332 28.244 160.262 28.1441 160.182 28.0641C160.092 27.9841 159.972 27.924 159.842 27.864C159.702 27.814 159.542 27.774 159.362 27.744L158.022 27.524L157.722 29.2141L159.222 29.4541C159.352 29.4741 159.492 29.4741 159.622 29.4741Z" fill="white"/>
<path d="M172.232 32.824L173.452 28.714L170.692 27.994L169.472 32.104L168.782 31.924L170.162 27.264L174.302 28.344L172.922 33.004L172.232 32.824Z" fill="white"/>
<path d="M180.882 33.5941C180.762 33.7741 180.632 33.9441 180.472 34.0841C180.312 34.2341 180.142 34.3641 179.952 34.4741C179.762 34.5841 179.552 34.6641 179.322 34.7141C179.092 34.7641 178.852 34.7941 178.602 34.7841C178.342 34.7741 178.082 34.7241 177.792 34.6341C177.512 34.5441 177.262 34.4241 177.052 34.2841C176.852 34.1441 176.672 33.9941 176.532 33.8141C176.392 33.6441 176.282 33.4641 176.202 33.2641C176.122 33.0641 176.062 32.8641 176.052 32.6541C176.022 32.4441 176.032 32.2441 176.052 32.0241C176.082 31.8241 176.132 31.6141 176.212 31.4141C176.342 31.0541 176.522 30.7641 176.742 30.4941C176.962 30.2341 177.222 30.034 177.502 29.894C177.792 29.754 178.112 29.6741 178.462 29.6541C178.822 29.6341 179.182 29.6941 179.572 29.8141C179.962 29.9441 180.292 30.1141 180.552 30.3341C180.822 30.5541 181.012 30.7941 181.142 31.0741C181.272 31.3541 181.332 31.6541 181.342 31.9841C181.342 32.3241 181.282 32.6541 181.142 33.0141C181.102 33.2241 181.012 33.4141 180.882 33.5941ZM180.662 32.0241C180.672 31.7741 180.622 31.5341 180.542 31.3241C180.452 31.1041 180.302 30.9241 180.122 30.7641C179.932 30.5941 179.692 30.4641 179.412 30.3741C179.132 30.2841 178.862 30.2441 178.592 30.2641C178.342 30.2841 178.102 30.3441 177.892 30.4641C177.672 30.5741 177.482 30.7341 177.312 30.9441C177.152 31.1441 177.012 31.3841 176.912 31.6541C176.812 31.9341 176.742 32.2041 176.732 32.4441C176.722 32.6941 176.762 32.934 176.852 33.144C176.942 33.354 177.082 33.5441 177.272 33.7041C177.462 33.8641 177.712 33.9941 178.012 34.0941C178.312 34.1941 178.592 34.2341 178.852 34.2141C179.112 34.1941 179.352 34.1341 179.562 34.0141C179.772 33.8941 179.952 33.7341 180.112 33.5241C180.272 33.3241 180.402 33.0841 180.512 32.8041C180.602 32.5441 180.652 32.2741 180.662 32.0241Z" fill="white"/>
<path d="M189.502 38.9442L191.452 35.0842L188.852 33.9742L186.902 37.8342L186.252 37.5542L188.452 33.1742L192.362 34.8442L190.162 39.2242L189.502 38.9442Z" fill="white"/>
<path d="M197.802 37.5742C197.952 37.7342 198.062 37.8942 198.122 38.0642C198.182 38.2342 198.202 38.4042 198.172 38.5942C198.152 38.7842 198.072 38.9542 197.962 39.1442C197.852 39.3342 197.722 39.4842 197.572 39.6042C197.422 39.7242 197.252 39.8142 197.062 39.8542C196.872 39.9042 196.662 39.9042 196.442 39.8742C196.212 39.8342 195.972 39.7542 195.712 39.6242L194.352 38.9542L193.312 40.7142L192.682 40.4042L195.182 36.1642L197.172 37.1542C197.432 37.2742 197.642 37.4142 197.802 37.5742ZM196.772 39.2642C197.002 39.2142 197.182 39.0642 197.322 38.8242C197.462 38.5842 197.502 38.3642 197.422 38.1542C197.352 37.9542 197.142 37.7742 196.812 37.6042L195.522 36.9642L194.642 38.4542L195.932 39.0942C196.272 39.2642 196.552 39.3242 196.772 39.2642Z" fill="white"/>
<path d="M203.782 44.2542C203.622 44.4042 203.452 44.5442 203.262 44.6542C203.072 44.7642 202.872 44.8642 202.662 44.9242C202.452 44.9942 202.222 45.0242 201.992 45.0342C201.752 45.0442 201.522 45.0142 201.272 44.9542C201.022 44.8942 200.772 44.7841 200.522 44.6441C200.272 44.5041 200.062 44.3342 199.882 44.1642C199.712 43.9942 199.582 43.8042 199.482 43.6042C199.392 43.4142 199.322 43.2142 199.292 43.0042C199.262 42.7942 199.252 42.5842 199.292 42.3842C199.322 42.1742 199.372 41.9842 199.452 41.7742C199.532 41.5842 199.632 41.3942 199.752 41.2142C199.972 40.8942 200.212 40.6442 200.502 40.4342C200.782 40.2342 201.082 40.0842 201.402 40.0042C201.722 39.9242 202.062 39.9142 202.402 39.9642C202.752 40.0142 203.102 40.1442 203.452 40.3442C203.802 40.5442 204.082 40.7742 204.282 41.0442C204.492 41.3042 204.622 41.5842 204.682 41.8842C204.742 42.1842 204.732 42.4841 204.652 42.8041C204.572 43.1341 204.432 43.4442 204.212 43.7642C204.082 43.9442 203.942 44.1142 203.782 44.2542ZM203.942 42.6842C204.012 42.4342 204.022 42.2042 203.992 41.9742C203.952 41.7442 203.862 41.5342 203.712 41.3442C203.562 41.1442 203.362 40.9742 203.112 40.8242C202.852 40.6742 202.602 40.5841 202.342 40.5541C202.092 40.5241 201.842 40.5342 201.602 40.6042C201.362 40.6742 201.132 40.7842 200.922 40.9542C200.712 41.1242 200.522 41.3242 200.352 41.5642C200.182 41.8142 200.062 42.0642 199.982 42.2942C199.912 42.5342 199.892 42.7742 199.922 42.9942C199.952 43.2142 200.052 43.4242 200.192 43.6242C200.342 43.8242 200.552 43.9942 200.822 44.1542C201.092 44.3142 201.362 44.4042 201.622 44.4442C201.882 44.4742 202.132 44.4641 202.362 44.3941C202.592 44.3241 202.812 44.2042 203.012 44.0342C203.222 43.8742 203.402 43.6642 203.572 43.4142C203.752 43.1842 203.872 42.9342 203.942 42.6842Z" fill="white"/>
<path d="M208.212 44.0541L205.522 47.5241L204.932 47.1441L207.982 43.2141L210.572 44.8841L210.212 45.3441L208.212 44.0541Z" fill="white"/>
<path d="M215.102 48.1942C215.212 48.3742 215.292 48.5442 215.322 48.7242C215.352 48.9042 215.332 49.0742 215.272 49.2542C215.212 49.4342 215.112 49.5942 214.962 49.7642C214.812 49.9342 214.662 50.0641 214.482 50.1541C214.312 50.2541 214.122 50.3042 213.932 50.3242C213.732 50.3442 213.532 50.3141 213.312 50.2441C213.092 50.1741 212.872 50.0542 212.632 49.8842L211.412 49.0042L210.052 50.5641L209.482 50.1541L212.762 46.3842L214.542 47.6642C214.802 47.8442 214.982 48.0142 215.102 48.1942ZM213.762 49.6942C214.002 49.6742 214.202 49.5641 214.392 49.3441C214.582 49.1241 214.652 48.9242 214.622 48.7042C214.592 48.5042 214.422 48.2841 214.122 48.0641L212.962 47.2342L211.812 48.5541L212.972 49.3842C213.272 49.6142 213.542 49.7142 213.762 49.6942Z" fill="white"/>
<path d="M218.062 56.7141L217.462 56.2242L218.112 54.7841L216.522 53.5042L214.992 54.2342L214.422 53.7741L219.512 51.3641L220.162 51.8941L218.062 56.7141ZM218.332 54.2841L219.292 52.1942L217.042 53.2342L218.332 54.2841Z" fill="white"/>
<path d="M222.202 59.3341L226.452 57.4941L227.182 58.1641L223.402 61.5241L222.922 61.0841L226.102 58.2541L226.092 58.2441L221.842 60.0941L221.332 59.6241L223.442 55.8141L223.432 55.8041L220.252 58.6341L219.772 58.1941L223.552 54.8341L224.282 55.5041L222.172 59.3241L222.202 59.3341Z" fill="white"/>
<path d="M227.662 64.7042L232.052 63.1342L232.732 63.8442L228.692 66.9542L228.252 66.4842L231.642 63.8642L231.632 63.8542L227.242 65.4242L226.772 64.9242L229.172 61.2642L229.162 61.2542L225.772 63.8742L225.332 63.4042L229.372 60.2942L230.052 61.0042L227.652 64.6742L227.662 64.7042Z" fill="white"/>
<path d="M231.722 68.9742L236.822 68.6541L237.322 69.2642L233.062 72.1241L232.632 71.6042L236.102 69.2841L236.092 69.2741L230.972 69.6042L230.472 68.9941L234.732 66.1342L235.162 66.6541L231.712 68.9641L231.722 68.9742Z" fill="white"/>
<path d="M240.742 73.9741C240.792 74.1741 240.802 74.3641 240.772 74.5341C240.742 74.7041 240.662 74.8641 240.542 75.0141C240.422 75.1641 240.262 75.2941 240.062 75.4041C239.862 75.5241 239.672 75.6041 239.472 75.6341C239.272 75.6741 239.082 75.6741 238.892 75.6341C238.692 75.5941 238.512 75.5141 238.332 75.3841C238.152 75.2541 237.982 75.0841 237.812 74.8541L236.952 73.6841L235.102 74.7641L234.702 74.2141L239.152 71.6041L240.402 73.3241C240.572 73.5641 240.682 73.7741 240.742 73.9741ZM238.942 75.0141C239.172 75.0641 239.412 75.0141 239.662 74.8641C239.912 74.7141 240.062 74.5441 240.102 74.3241C240.142 74.1241 240.052 73.8741 239.842 73.5841L239.032 72.4641L237.472 73.3841L238.282 74.5041C238.492 74.7941 238.722 74.9641 238.942 75.0141Z" fill="white"/>
<path d="M242.542 82.3542C242.322 82.4242 242.102 82.4642 241.872 82.4742C241.642 82.4842 241.422 82.4842 241.192 82.4542C240.962 82.4242 240.742 82.3542 240.532 82.2542C240.322 82.1642 240.122 82.0342 239.932 81.8742C239.742 81.7142 239.572 81.5142 239.422 81.2842C239.272 81.0542 239.172 80.8142 239.112 80.5942C239.052 80.3742 239.032 80.1542 239.052 79.9342C239.072 79.7342 239.112 79.5242 239.202 79.3342C239.282 79.1342 239.392 78.9542 239.522 78.7942C239.652 78.6242 239.812 78.4742 239.982 78.3342C240.152 78.2042 240.342 78.0842 240.542 77.9842C240.902 77.8042 241.252 77.6842 241.622 77.6242C241.982 77.5642 242.322 77.5742 242.642 77.6342C242.972 77.7042 243.272 77.8342 243.552 78.0342C243.842 78.2342 244.082 78.4942 244.292 78.8142C244.502 79.1342 244.632 79.4642 244.672 79.7842C244.722 80.1042 244.692 80.4042 244.592 80.6842C244.492 80.9642 244.312 81.2342 244.082 81.4742C243.842 81.7242 243.542 81.9342 243.182 82.1142C242.972 82.2142 242.762 82.3042 242.542 82.3542ZM243.512 81.0642C243.702 80.8842 243.842 80.6842 243.932 80.4742C244.022 80.2542 244.042 80.0342 244.022 79.8042C244.002 79.5642 243.912 79.3342 243.762 79.0942C243.612 78.8542 243.432 78.6642 243.212 78.5242C243.002 78.3842 242.772 78.2942 242.532 78.2542C242.282 78.2142 242.022 78.2142 241.742 78.2642C241.472 78.3142 241.192 78.4142 240.922 78.5542C240.642 78.6942 240.402 78.8542 240.212 79.0342C240.022 79.2142 239.882 79.4142 239.792 79.6242C239.702 79.8342 239.682 80.0542 239.702 80.2842C239.732 80.5142 239.822 80.7642 239.992 81.0142C240.152 81.2642 240.342 81.4642 240.552 81.6042C240.772 81.7442 240.992 81.8442 241.242 81.8842C241.492 81.9242 241.742 81.9142 242.012 81.8542C242.282 81.8042 242.552 81.7042 242.842 81.5542C243.092 81.4142 243.322 81.2442 243.512 81.0642Z" fill="white"/>
<path d="M247.942 85.3042C248.002 85.4342 248.042 85.5642 248.072 85.6942C248.092 85.8142 248.102 85.9342 248.102 86.0642C248.092 86.1842 248.052 86.2942 248.002 86.4142C247.952 86.5242 247.862 86.6342 247.772 86.7242C247.662 86.8142 247.542 86.9042 247.382 86.9742C247.302 87.0042 247.202 87.0342 247.102 87.0642C246.992 87.0842 246.882 87.0942 246.772 87.0842C246.652 87.0742 246.532 87.0542 246.422 87.0142C246.292 86.9742 246.182 86.9142 246.072 86.8242C246.092 86.9342 246.092 87.0442 246.092 87.1542C246.082 87.2742 246.052 87.3842 246.002 87.5042C245.952 87.6142 245.872 87.7242 245.772 87.8342C245.662 87.9442 245.522 88.0342 245.342 88.1142C245.232 88.1642 245.122 88.1942 245.002 88.2242C244.872 88.2542 244.742 88.2642 244.612 88.2542C244.472 88.2442 244.342 88.2242 244.202 88.1842C244.062 88.1442 243.932 88.0842 243.802 88.0042C243.662 87.9242 243.542 87.8142 243.422 87.6842C243.302 87.5542 243.192 87.3942 243.082 87.2042L242.072 85.3542L246.862 83.2742L247.722 84.8442C247.802 85.0142 247.882 85.1742 247.942 85.3042ZM246.042 86.2842C246.142 86.3842 246.252 86.4442 246.362 86.4842C246.462 86.5142 246.562 86.5242 246.672 86.5042C246.772 86.4842 246.882 86.4542 246.992 86.4042C247.102 86.3542 247.202 86.3042 247.272 86.2342C247.342 86.1642 247.382 86.0842 247.402 85.9842C247.432 85.8842 247.422 85.7742 247.392 85.6442C247.362 85.5142 247.302 85.3642 247.212 85.2042L246.612 84.1142L245.132 84.7542L245.732 85.8442C245.832 86.0342 245.932 86.1842 246.042 86.2842ZM243.912 87.3342C244.022 87.4442 244.132 87.5242 244.262 87.5742C244.372 87.6242 244.492 87.6342 244.612 87.6342C244.732 87.6242 244.852 87.5942 244.982 87.5442C245.112 87.4942 245.212 87.4242 245.292 87.3442C245.372 87.2642 245.432 87.1642 245.462 87.0542C245.492 86.9342 245.482 86.8142 245.452 86.6642C245.422 86.5142 245.352 86.3442 245.252 86.1542L244.612 84.9742L242.942 85.6942L243.582 86.8742C243.682 87.0642 243.792 87.2142 243.912 87.3342Z" fill="white"/>
<path d="M246.712 94.5641L246.402 93.8941L247.692 92.8641L246.862 91.0941L245.122 91.1441L244.822 90.5142L250.612 90.3641L250.952 91.0941L246.712 94.5641ZM248.132 92.4941L250.002 91.0042L247.452 91.0541L248.132 92.4941Z" fill="white"/>
<path d="M251.732 98.7342L253.812 98.1042L254.052 98.7242L249.002 100.254L248.762 99.6342L251.142 98.9142L250.182 96.4642L247.802 97.1842L247.562 96.5642L252.612 95.0342L252.852 95.6542L250.772 96.2842L251.732 98.7342Z" fill="white"/>
<path d="M251.052 103.104L255.972 104.484L256.202 105.204L251.052 106.444L250.852 105.814L255.042 104.804V104.794L250.102 103.414L249.872 102.694L255.022 101.454L255.222 102.084L251.052 103.084V103.104Z" fill="white"/>
<path d="M255.022 109.794C255.392 109.754 255.742 109.764 256.072 109.824C256.392 109.874 256.692 109.984 256.942 110.134C257.192 110.284 257.422 110.484 257.602 110.734C257.782 110.984 257.912 111.274 257.992 111.624C258.072 111.994 258.082 112.324 258.012 112.624C257.942 112.934 257.812 113.194 257.612 113.434C257.412 113.664 257.152 113.854 256.842 114.014C256.522 114.174 256.172 114.284 255.762 114.354C255.532 114.394 255.302 114.414 255.082 114.414C254.842 114.414 254.622 114.394 254.402 114.344C254.182 114.304 253.962 114.234 253.762 114.144C253.562 114.044 253.372 113.924 253.212 113.784C253.042 113.644 252.892 113.464 252.772 113.264C252.652 113.054 252.552 112.824 252.492 112.564C252.432 112.314 252.412 112.084 252.432 111.874C252.442 111.654 252.492 111.464 252.572 111.284C252.642 111.104 252.742 110.934 252.872 110.794C253.002 110.644 253.142 110.514 253.302 110.404C253.462 110.284 253.642 110.184 253.832 110.104C254.022 110.024 254.222 109.954 254.432 109.904L254.262 109.154L251.942 109.554L251.792 108.914L257.032 108.014L257.182 108.654L254.872 109.054L255.022 109.794ZM256.442 113.464C256.682 113.344 256.892 113.194 257.042 113.024C257.202 112.854 257.302 112.654 257.362 112.434C257.422 112.214 257.422 111.974 257.362 111.734C257.302 111.484 257.202 111.264 257.042 111.084C256.892 110.904 256.712 110.754 256.482 110.644C256.262 110.534 256.012 110.474 255.732 110.444C255.452 110.414 255.152 110.424 254.842 110.474C254.522 110.534 254.242 110.624 254.002 110.744C253.762 110.864 253.552 111.014 253.402 111.194C253.242 111.364 253.142 111.564 253.082 111.784C253.022 111.994 253.022 112.224 253.082 112.474C253.152 112.764 253.252 112.994 253.402 113.174C253.562 113.364 253.732 113.504 253.962 113.604C254.182 113.704 254.432 113.764 254.712 113.784C254.982 113.804 255.282 113.784 255.602 113.724C255.912 113.664 256.192 113.574 256.442 113.464Z" fill="white"/>
<defs>
<linearGradient id="paint0_linear_56_433" x1="25.8328" y1="119.328" x2="256.549" y2="139.804" gradientUnits="userSpaceOnUse">
<stop stop-color="#23002F"/>
<stop offset="1" stop-color="white" stop-opacity="0"/>
</linearGradient>
</defs>
</svg>
