<svg width="632" height="502" viewBox="0 0 632 502" fill="none" xmlns="http://www.w3.org/2000/svg">
<path d="M376.371 357.965C517.376 278.92 604.736 166.768 571.493 107.469C538.25 48.1691 396.994 64.1767 255.989 143.223C114.983 222.269 27.6235 334.42 60.8661 393.719C94.1086 453.019 235.365 437.011 376.371 357.965Z" stroke="url(#paint0_linear_56_821)" stroke-width="50" stroke-miterlimit="10"/>
<path d="M460.332 68.4841L462.262 68.2841L455.322 72.0541L455.862 76.4841L454.092 76.6741L453.732 72.9141L451.042 74.3741L448.772 77.2341L447.392 77.3841L453.902 69.1641L455.282 69.0141L452.102 73.0241L460.332 68.4841Z" fill="white"/>
<path d="M462.272 75.0741C462.322 75.1041 462.392 75.1241 462.452 75.1541L462.692 75.2041C462.782 75.2141 462.862 75.2141 462.962 75.2141C463.152 75.2041 463.352 75.1641 463.552 75.1141C463.732 75.0641 463.902 74.9941 464.082 74.9041C464.252 74.8141 464.412 74.7341 464.572 74.6241C464.732 74.5141 464.862 74.4141 464.992 74.3041L466.622 67.9341L468.172 67.8441L466.742 73.1241L473.952 67.4941L475.442 67.4041L467.012 73.7741C466.442 74.1941 465.932 74.5641 465.502 74.8541C465.052 75.1641 464.662 75.4041 464.282 75.6041C463.902 75.8041 463.532 75.9541 463.192 76.0541C462.832 76.1641 462.472 76.2141 462.082 76.2441C461.872 76.2541 461.702 76.2441 461.542 76.2141C461.382 76.1841 461.282 76.1341 461.252 76.0641L462.172 74.9941C462.172 75.0141 462.212 75.0441 462.272 75.0741Z" fill="white"/>
<path d="M485.412 67.3441C485.662 67.4641 485.832 67.6241 485.892 67.8341C485.952 68.0341 485.902 68.2941 485.742 68.5941C485.592 68.8941 485.352 69.2141 485.002 69.5841C484.652 69.9541 484.302 70.2741 483.892 70.5741C483.492 70.8741 483.072 71.1341 482.632 71.3441C482.182 71.5641 481.712 71.7341 481.232 71.8541C480.742 71.9741 480.242 72.0341 479.712 72.0441L476.992 72.0741L473.802 75.5141L472.532 75.5241L480.222 67.2341L484.212 67.1841C484.742 67.1841 485.132 67.2341 485.412 67.3441ZM482.282 70.6841C482.822 70.4241 483.302 70.0641 483.742 69.5941C484.182 69.1241 484.372 68.7641 484.302 68.5141C484.232 68.2741 483.862 68.1541 483.192 68.1641L480.602 68.1941L477.902 71.1041L480.492 71.0741C481.152 71.0641 481.762 70.9341 482.282 70.6841Z" fill="white"/>
<path d="M487.982 72.8041C487.702 73.2241 487.552 73.5941 487.522 73.8941C487.482 74.2041 487.582 74.4341 487.782 74.6141C487.982 74.7941 488.302 74.8941 488.742 74.9141C489.132 74.9341 489.532 74.8841 489.982 74.7641C490.412 74.6541 490.832 74.5041 491.252 74.3041C491.692 74.0941 492.102 73.8741 492.492 73.6241C492.882 73.3641 493.252 73.1041 493.562 72.8241L494.732 72.8741C494.462 73.1141 494.172 73.3541 493.832 73.6041C493.482 73.8541 493.122 74.0941 492.742 74.3141C492.362 74.5341 491.962 74.7541 491.542 74.9441C491.132 75.1441 490.712 75.3141 490.272 75.4641C489.842 75.6041 489.422 75.7141 489.002 75.7841C488.582 75.8641 488.172 75.8941 487.772 75.8741C487.492 75.8641 487.232 75.8241 486.972 75.7541C486.702 75.6941 486.482 75.5841 486.312 75.4441C486.112 75.3141 486.002 75.1341 485.912 74.9041C485.832 74.6841 485.842 74.4041 485.942 74.0841C486.042 73.7641 486.242 73.3741 486.542 72.9441C486.832 72.5141 487.272 72.0041 487.832 71.4341C488.382 70.8841 488.952 70.3741 489.502 69.9441C490.052 69.5141 490.592 69.1341 491.132 68.8141C491.652 68.5041 492.172 68.2341 492.672 68.0141C493.162 67.7941 493.642 67.6241 494.102 67.4841C494.552 67.3641 494.982 67.2741 495.382 67.2141C495.782 67.1741 496.152 67.1541 496.482 67.1641C496.892 67.1841 497.222 67.2441 497.482 67.3241C497.742 67.4241 497.942 67.5341 498.092 67.6741C498.222 67.8241 498.282 67.9941 498.312 68.1741C498.342 68.3541 498.332 68.5441 498.272 68.7541C498.212 68.9541 498.112 69.1641 497.972 69.3741C497.842 69.5841 497.692 69.7841 497.512 69.9841L496.332 69.9341C496.522 69.6641 496.652 69.4141 496.702 69.2041C496.762 68.9941 496.762 68.7941 496.682 68.6541C496.602 68.5041 496.482 68.3841 496.302 68.2841C496.092 68.2041 495.852 68.1441 495.552 68.1341C495.092 68.1141 494.592 68.1741 494.052 68.3241C493.542 68.4541 492.982 68.6741 492.432 68.9541C491.872 69.2441 491.312 69.5741 490.762 69.9841C490.212 70.3941 489.662 70.8641 489.162 71.3741C488.652 71.9141 488.252 72.3841 487.982 72.8041Z" fill="white"/>
<path d="M504.652 71.6941C505.152 71.7541 505.532 71.8541 505.782 72.0141C506.032 72.1741 506.162 72.3641 506.182 72.6041C506.202 72.8341 506.112 73.1141 505.912 73.4241C505.712 73.7341 505.412 74.0741 505.002 74.4541C504.612 74.8241 504.192 75.1441 503.762 75.4241C503.322 75.7041 502.862 75.9541 502.422 76.1341C501.982 76.3141 501.512 76.4541 501.062 76.5341C500.612 76.6141 500.162 76.6241 499.742 76.5741L496.092 76.1541L504.942 67.9241L506.072 68.0541L502.422 71.4441L504.652 71.6941ZM503.532 77.0041L512.382 68.7741L513.512 68.9041L504.662 77.1341L503.532 77.0041ZM501.332 75.5941C501.592 75.5641 501.842 75.4941 502.122 75.4041C502.382 75.3041 502.662 75.1741 502.942 74.9941C503.222 74.8241 503.502 74.5941 503.802 74.3241C504.102 74.0441 504.312 73.8141 504.422 73.6241C504.522 73.4341 504.552 73.2641 504.542 73.1241C504.492 73.0041 504.372 72.9041 504.212 72.8141C504.022 72.7441 503.792 72.6941 503.512 72.6541L501.372 72.4141L498.242 75.3241L500.622 75.5941C500.852 75.6141 501.082 75.6141 501.332 75.5941Z" fill="white"/>
<path d="M519.432 80.0841L527.962 72.9441L523.982 71.9841L515.452 79.1241L514.452 78.8841L524.112 70.7941L530.092 72.2341L520.432 80.3241L519.432 80.0841Z" fill="white"/>
<path d="M534.212 80.5541C533.722 80.8741 533.222 81.1741 532.702 81.4341C532.182 81.7041 531.672 81.9441 531.152 82.1441C530.632 82.3441 530.122 82.5041 529.632 82.6141C529.132 82.7341 528.662 82.7941 528.202 82.7941C527.742 82.7941 527.332 82.7341 526.952 82.6041C526.582 82.4741 526.302 82.3041 526.122 82.0841C525.962 81.8741 525.872 81.6141 525.882 81.3341C525.882 81.0641 525.962 80.7541 526.122 80.4341C526.272 80.1041 526.482 79.7641 526.762 79.4141C527.032 79.0641 527.352 78.7141 527.732 78.3441C528.102 77.9941 528.512 77.6441 528.942 77.2941C529.732 76.6741 530.512 76.1441 531.332 75.6741C532.132 75.2141 532.912 74.8441 533.662 74.5741C534.412 74.3041 535.132 74.1341 535.792 74.0741C536.482 74.0041 537.072 74.0641 537.592 74.2441C538.112 74.4241 538.462 74.6841 538.602 75.0341C538.762 75.3741 538.742 75.7841 538.562 76.2441C538.382 76.7041 538.022 77.2241 537.532 77.7841C537.022 78.3541 536.392 78.9341 535.602 79.5541C535.162 79.9141 534.702 80.2441 534.212 80.5541ZM536.192 77.8941C536.592 77.4641 536.872 77.0641 537.042 76.7041C537.202 76.3441 537.222 76.0341 537.132 75.7841C537.042 75.5141 536.792 75.3241 536.412 75.1941C536.032 75.0641 535.592 75.0241 535.072 75.0841C534.582 75.1341 534.042 75.2741 533.472 75.4941C532.892 75.7141 532.292 76.0041 531.682 76.3641C531.072 76.7241 530.452 77.1541 529.852 77.6141C529.232 78.1041 528.712 78.5641 528.312 78.9841C527.912 79.4141 527.622 79.8141 527.452 80.1741C527.282 80.5341 527.272 80.8241 527.352 81.0941C527.462 81.3541 527.712 81.5541 528.122 81.6841C528.532 81.8241 528.982 81.8641 529.482 81.8141C530.002 81.7541 530.522 81.6241 531.092 81.4041C531.662 81.1841 532.242 80.8841 532.842 80.5241C533.442 80.1741 534.052 79.7441 534.672 79.2541C535.282 78.7941 535.792 78.3341 536.192 77.8941Z" fill="white"/>
<path d="M541.882 88.8542L551.372 82.0641L548.282 80.4242L538.792 87.2141L538.012 86.8041L548.762 79.1141L553.402 81.5841L542.652 89.2741L541.882 88.8542Z" fill="white"/>
<path d="M559.292 85.7041C559.322 85.9541 559.282 86.2241 559.132 86.5041C558.982 86.7841 558.752 87.0841 558.412 87.4041C558.082 87.7241 557.682 88.0341 557.182 88.3741C556.682 88.7141 556.222 88.9841 555.752 89.2041C555.282 89.4341 554.842 89.5941 554.432 89.6841C554.002 89.7841 553.612 89.8141 553.262 89.7841C552.902 89.7441 552.582 89.6241 552.292 89.4341L550.812 88.4141L546.212 91.5241L545.522 91.0541L556.612 83.5641L558.772 85.0541C559.072 85.2341 559.232 85.4541 559.292 85.7041ZM554.802 88.7041C555.302 88.5841 555.862 88.3241 556.502 87.8941C557.132 87.4641 557.532 87.0841 557.712 86.7441C557.882 86.4141 557.782 86.1141 557.422 85.8641L556.022 84.8941L552.132 87.5241L553.532 88.4941C553.882 88.7441 554.322 88.8141 554.802 88.7041Z" fill="white"/>
<path d="M560.072 96.5341C559.542 96.8141 559.032 97.0541 558.502 97.2641C557.982 97.4741 557.472 97.6541 556.972 97.7841C556.472 97.9241 556.002 98.0041 555.572 98.0341C555.122 98.0741 554.722 98.0541 554.362 97.9641C554.002 97.8841 553.702 97.7341 553.452 97.5041C553.212 97.2841 553.062 97.0241 553.012 96.7441C552.972 96.4641 553.012 96.1541 553.132 95.8241C553.252 95.5141 553.442 95.1741 553.702 94.8241C553.962 94.4741 554.272 94.1141 554.642 93.7641C555.002 93.4041 555.412 93.0641 555.862 92.7141C556.302 92.3741 556.772 92.0441 557.262 91.7341C558.152 91.1641 558.992 90.7041 559.842 90.3241C560.672 89.9441 561.452 89.6741 562.152 89.5041C562.862 89.3341 563.502 89.2841 564.052 89.3441C564.622 89.3941 565.072 89.5841 565.412 89.8841C565.752 90.1841 565.922 90.5641 565.882 90.9941C565.872 91.4241 565.682 91.8841 565.342 92.3841C565.002 92.8841 564.502 93.4141 563.872 93.9641C563.222 94.5241 562.482 95.0741 561.592 95.6441C561.102 95.9741 560.592 96.2741 560.072 96.5341ZM562.772 93.8341C563.272 93.4041 563.662 93.0041 563.942 92.6241C564.222 92.2341 564.372 91.8841 564.402 91.5741C564.442 91.2441 564.332 90.9741 564.082 90.7441C563.832 90.5241 563.502 90.3941 563.062 90.3641C562.652 90.3341 562.162 90.3841 561.622 90.5241C561.072 90.6641 560.472 90.8841 559.842 91.1841C559.202 91.4841 558.532 91.8541 557.862 92.2841C557.162 92.7241 556.562 93.1641 556.062 93.5741C555.562 94.0041 555.162 94.4041 554.882 94.7841C554.602 95.1641 554.462 95.5041 554.422 95.8341C554.402 96.1541 554.512 96.4341 554.782 96.6741C555.052 96.9141 555.392 97.0541 555.812 97.0841C556.252 97.1141 556.712 97.0741 557.262 96.9241C557.802 96.7741 558.392 96.5541 559.022 96.2441C559.642 95.9541 560.312 95.5741 561.012 95.1341C561.662 94.7041 562.262 94.2641 562.772 93.8341Z" fill="white"/>
<path d="M568.552 95.7541L558.282 101.944L557.782 101.354L569.412 94.3441L571.632 96.9441L570.272 97.7641L568.552 95.7541Z" fill="white"/>
<path d="M574.922 102.134C574.862 102.424 574.742 102.714 574.522 103.014C574.312 103.314 574.012 103.614 573.622 103.914C573.242 104.224 572.792 104.514 572.272 104.814C571.742 105.114 571.272 105.354 570.802 105.534C570.332 105.714 569.912 105.834 569.532 105.874C569.132 105.924 568.802 105.894 568.512 105.804C568.222 105.704 567.992 105.524 567.812 105.254L566.912 103.874L562.012 106.674L561.592 106.034L573.402 99.2741L574.722 101.294C574.902 101.574 574.962 101.844 574.922 102.134ZM570.162 104.834C570.622 104.784 571.182 104.564 571.852 104.174C572.522 103.784 572.992 103.424 573.252 103.064C573.502 102.724 573.522 102.364 573.302 102.024L572.442 100.714L568.292 103.084L569.152 104.394C569.372 104.744 569.722 104.884 570.162 104.834Z" fill="white"/>
<path d="M567.332 116.414L566.972 115.644L570.382 113.114L569.422 111.074L565.482 112.474L565.142 111.744L578.212 107.124L578.602 107.964L567.332 116.414ZM571.562 112.224L576.512 108.564L570.782 110.564L571.562 112.224Z" fill="white"/>
<path d="M570.972 120.494L581.632 116.934L581.952 118.014L569.842 124.134L569.632 123.434L579.822 118.284V118.264L569.162 121.834L568.942 121.084L578.662 114.364V114.344L568.472 119.494L568.262 118.794L580.372 112.674L580.692 113.754L570.972 120.484V120.494Z" fill="white"/>
<path d="M572.802 129.134L583.292 126.034L583.442 127.194L571.242 132.904L571.142 132.154L581.402 127.354V127.334L570.912 130.444L570.802 129.644L580.832 123.154V123.134L570.572 127.934L570.472 127.184L582.672 121.474L582.822 122.634L572.792 129.134H572.802Z" fill="white"/>
<path d="M573.762 136.024L583.652 134.974V135.964L571.432 141.264V140.414L581.372 136.104V136.084L571.432 137.154V136.164L583.652 130.864V131.714L573.762 136.004V136.024Z" fill="white"/>
<path d="M582.732 143.674C582.512 144.014 582.252 144.324 581.922 144.624C581.592 144.924 581.212 145.204 580.762 145.464C580.312 145.734 579.832 145.964 579.282 146.184C578.742 146.404 578.262 146.554 577.832 146.644C577.402 146.734 577.042 146.754 576.752 146.704C576.452 146.654 576.232 146.524 576.092 146.334C575.952 146.134 575.902 145.854 575.942 145.474L576.162 143.554L571.102 145.584L571.202 144.694L583.402 139.794L583.082 142.604C583.052 142.984 582.932 143.344 582.732 143.674ZM577.832 145.624C578.182 145.684 578.692 145.584 579.392 145.304C580.092 145.024 580.622 144.714 581.022 144.344C581.402 143.994 581.632 143.574 581.682 143.104L581.892 141.274L577.612 142.994L577.402 144.824C577.352 145.294 577.492 145.564 577.832 145.624Z" fill="white"/>
<path d="M573.232 157.814C572.722 157.944 572.252 158.044 571.802 158.094C571.352 158.144 570.952 158.154 570.582 158.124C570.222 158.084 569.912 157.994 569.682 157.844C569.432 157.704 569.262 157.504 569.162 157.254C569.062 156.994 569.052 156.674 569.142 156.284C569.222 155.904 569.392 155.514 569.622 155.134C569.862 154.764 570.162 154.384 570.522 154.014C570.862 153.664 571.262 153.314 571.712 152.974C572.162 152.634 572.632 152.314 573.132 152.024C573.632 151.724 574.142 151.454 574.682 151.194C575.202 150.954 575.732 150.724 576.252 150.534C577.202 150.184 578.022 149.954 578.782 149.814C579.522 149.684 580.152 149.654 580.652 149.734C581.142 149.824 581.502 150.014 581.722 150.324C581.952 150.634 582.002 151.054 581.882 151.584C581.762 152.114 581.512 152.664 581.092 153.194C580.692 153.734 580.182 154.244 579.562 154.744C578.942 155.244 578.222 155.704 577.412 156.144C576.582 156.594 575.722 156.984 574.782 157.334C574.242 157.534 573.722 157.694 573.232 157.814ZM577.002 155.504C577.632 155.174 578.192 154.814 578.672 154.454C579.162 154.074 579.552 153.694 579.852 153.304C580.172 152.904 580.372 152.504 580.452 152.114C580.532 151.724 580.492 151.414 580.312 151.204C580.142 150.994 579.862 150.854 579.462 150.814C579.072 150.764 578.582 150.794 578.002 150.904C577.412 151.024 576.752 151.214 576.042 151.474C575.302 151.744 574.612 152.044 574.002 152.364C573.372 152.694 572.812 153.044 572.332 153.414C571.852 153.784 571.472 154.164 571.152 154.554C570.852 154.954 570.652 155.354 570.562 155.774C570.472 156.194 570.512 156.504 570.682 156.734C570.872 156.954 571.132 157.094 571.522 157.134C571.912 157.174 572.412 157.134 572.992 157.004C573.562 156.894 574.222 156.694 574.972 156.424C575.682 156.144 576.362 155.834 577.002 155.504Z" fill="white"/>
<path d="M578.672 162.324C578.572 162.544 578.462 162.764 578.312 162.984C578.172 163.184 578.002 163.394 577.802 163.604C577.602 163.804 577.362 164.004 577.092 164.204C576.822 164.404 576.502 164.594 576.182 164.764C575.842 164.934 575.482 165.084 575.082 165.224C574.882 165.294 574.652 165.354 574.432 165.394C574.212 165.434 573.992 165.464 573.782 165.464C573.572 165.464 573.382 165.444 573.242 165.374C573.062 165.324 572.962 165.224 572.882 165.084C572.752 165.264 572.582 165.454 572.402 165.654C572.202 165.854 571.972 166.054 571.702 166.264C571.432 166.464 571.112 166.664 570.772 166.854C570.412 167.044 570.002 167.224 569.542 167.374C569.272 167.464 569.012 167.534 568.752 167.594C568.462 167.654 568.212 167.684 567.992 167.684C567.752 167.684 567.542 167.654 567.342 167.604C567.152 167.554 567.002 167.454 566.892 167.334C566.772 167.204 566.702 167.034 566.682 166.824C566.662 166.614 566.692 166.354 566.792 166.034L567.752 162.974L579.762 158.954L578.942 161.554C578.852 161.844 578.752 162.104 578.672 162.324ZM573.672 164.184C573.712 164.344 573.812 164.444 573.952 164.494C574.092 164.534 574.262 164.544 574.492 164.504C574.712 164.454 574.962 164.394 575.232 164.304C575.512 164.204 575.772 164.104 576.012 163.984C576.252 163.854 576.462 163.704 576.642 163.534C576.842 163.364 577.012 163.164 577.142 162.954C577.282 162.734 577.412 162.484 577.492 162.214L578.062 160.404L574.352 161.644L573.782 163.454C573.662 163.784 573.632 164.014 573.672 164.184ZM568.132 166.184C568.162 166.364 568.242 166.494 568.402 166.564C568.532 166.644 568.732 166.654 568.962 166.624C569.192 166.604 569.472 166.534 569.782 166.434C570.102 166.324 570.392 166.204 570.662 166.054C570.932 165.914 571.192 165.744 571.422 165.544C571.652 165.344 571.842 165.124 572.002 164.874C572.172 164.614 572.302 164.334 572.402 164.024L573.012 162.074L568.832 163.474L568.222 165.424C568.132 165.744 568.102 165.994 568.132 166.184Z" fill="white"/>
<path d="M562.242 178.254L562.692 177.144L566.642 175.254L567.822 172.314L564.522 172.574L564.942 171.524L575.852 170.694L575.362 171.904L562.242 178.254ZM568.012 174.584L573.732 171.864L568.972 172.194L568.012 174.584Z" fill="white"/>
<path d="M565.102 184.904L569.902 183.624L569.402 184.654L557.762 187.764L558.262 186.734L563.742 185.274L565.722 181.184L560.242 182.644L560.742 181.614L572.382 178.504L571.882 179.534L567.082 180.814L565.102 184.904Z" fill="white"/>
<path d="M557.182 192.414L564.132 194.294L563.442 195.514L552.062 198.134L552.652 197.084L561.912 194.954L561.922 194.934L554.922 193.064L555.612 191.844L566.992 189.224L566.402 190.274L557.192 192.394L557.182 192.414Z" fill="white"/>
<path d="M554.252 203.464C555.002 203.354 555.632 203.334 556.142 203.414C556.652 203.474 557.022 203.634 557.262 203.864C557.502 204.094 557.612 204.414 557.552 204.824C557.502 205.224 557.292 205.714 556.912 206.304C556.512 206.924 556.012 207.494 555.412 208.014C554.822 208.544 554.162 209.014 553.442 209.434C552.722 209.854 551.952 210.204 551.142 210.504C550.312 210.804 549.492 211.024 548.632 211.184C548.152 211.274 547.702 211.324 547.272 211.354C546.842 211.374 546.462 211.354 546.112 211.304C545.772 211.254 545.482 211.154 545.242 211.024C545.012 210.884 544.852 210.694 544.772 210.464C544.682 210.234 544.672 209.954 544.752 209.624C544.842 209.284 545.022 208.894 545.312 208.454C545.582 208.044 545.892 207.644 546.252 207.284C546.602 206.914 547.002 206.574 547.402 206.264C547.812 205.954 548.242 205.654 548.702 205.394C549.152 205.134 549.632 204.884 550.102 204.684C550.592 204.454 551.052 204.284 551.542 204.114C552.022 203.954 552.492 203.824 552.952 203.714L553.782 202.454L548.892 203.364L549.592 202.294L560.632 200.244L559.932 201.314L555.072 202.214L554.252 203.464ZM551.262 209.574C551.902 209.334 552.492 209.074 553.052 208.764C553.602 208.454 554.102 208.104 554.542 207.734C555.002 207.344 555.352 206.944 555.622 206.534C555.902 206.104 556.042 205.744 556.032 205.454C556.032 205.154 555.922 204.924 555.672 204.764C555.422 204.604 555.062 204.514 554.592 204.494C554.122 204.464 553.552 204.514 552.912 204.624C552.232 204.754 551.572 204.934 550.952 205.164C550.312 205.404 549.722 205.664 549.152 205.984C548.602 206.294 548.112 206.634 547.662 207.014C547.232 207.374 546.882 207.774 546.612 208.194C546.302 208.674 546.132 209.074 546.132 209.364C546.132 209.664 546.242 209.894 546.502 210.044C546.752 210.194 547.122 210.274 547.612 210.274C548.082 210.274 548.662 210.214 549.342 210.094C549.972 209.974 550.622 209.804 551.262 209.574Z" fill="white"/>
<path d="M542.552 225.754L541.372 227.284L539.802 224.364L530.862 228.594L531.952 227.194L539.452 223.694L538.852 222.564L535.212 222.984L536.062 221.884L546.502 220.664L545.652 221.764L540.562 222.354L542.552 225.754Z" fill="white"/>
<path d="M528.342 233.044C528.242 233.114 528.152 233.184 528.042 233.274L527.742 233.534C527.662 233.614 527.582 233.694 527.512 233.774C527.372 233.934 527.282 234.084 527.232 234.204C527.192 234.314 527.172 234.414 527.192 234.494C527.222 234.564 527.252 234.644 527.332 234.684C527.412 234.734 527.502 234.754 527.602 234.784L538.502 230.814L537.422 232.104L528.462 235.314L533.392 236.894L532.342 238.134L527.002 236.094C526.662 235.944 526.382 235.804 526.152 235.684C525.922 235.554 525.782 235.414 525.712 235.244C525.642 235.074 525.652 234.884 525.742 234.654C525.822 234.434 526.012 234.164 526.282 233.834C526.432 233.664 526.592 233.494 526.782 233.334C526.972 233.164 527.152 233.034 527.302 232.954L528.602 232.854C528.532 232.904 528.442 232.964 528.342 233.044Z" fill="white"/>
<path d="M524.292 246.894C523.852 247.224 523.412 247.504 522.972 247.724C522.532 247.954 522.092 248.114 521.642 248.234C521.192 248.354 520.772 248.414 520.342 248.424C519.912 248.434 519.582 248.394 519.342 248.294C519.092 248.204 518.942 248.044 518.902 247.834C518.842 247.624 518.912 247.344 519.072 247.034C519.242 246.704 519.532 246.314 519.952 245.854L522.112 243.474L518.122 243.574L519.132 242.464L528.752 242.214L525.582 245.694C525.152 246.164 524.732 246.554 524.292 246.894ZM520.452 246.954C520.502 247.214 520.802 247.324 521.352 247.314C521.902 247.304 522.432 247.164 522.972 246.894C523.482 246.634 524.022 246.204 524.552 245.614L526.612 243.354L523.232 243.444L521.172 245.704C520.642 246.284 520.402 246.704 520.452 246.954Z" fill="white"/>
<path d="M511.722 253.794C511.142 253.904 510.562 254.084 510.012 254.314C509.442 254.544 508.922 254.824 508.412 255.154C507.902 255.484 507.452 255.854 507.062 256.254C506.712 256.614 506.472 256.924 506.342 257.214C506.212 257.494 506.152 257.744 506.192 257.944C506.232 258.154 506.332 258.324 506.482 258.464C506.662 258.584 506.862 258.684 507.132 258.734L506.082 259.804C505.842 259.774 505.612 259.724 505.412 259.634C505.222 259.534 505.052 259.424 504.932 259.274C504.812 259.124 504.732 258.964 504.692 258.754C504.642 258.564 504.652 258.334 504.722 258.084C504.802 257.824 504.932 257.544 505.152 257.234C505.342 256.934 505.622 256.594 505.982 256.224C506.232 255.974 506.512 255.704 506.862 255.414C507.192 255.124 507.582 254.844 507.992 254.564C508.402 254.284 508.852 254.024 509.342 253.764C509.832 253.504 510.352 253.284 510.882 253.094C511.422 252.904 511.992 252.754 512.582 252.654C513.182 252.544 513.792 252.494 514.422 252.514C515.032 252.534 515.542 252.604 515.922 252.724C516.302 252.844 516.582 253.004 516.762 253.194C516.942 253.394 517.032 253.614 517.032 253.874C517.052 254.124 516.992 254.394 516.882 254.684C516.752 254.974 516.572 255.284 516.352 255.584C516.112 255.894 515.842 256.214 515.552 256.514C515.182 256.894 514.792 257.244 514.422 257.534C514.032 257.844 513.642 258.114 513.252 258.364C512.862 258.604 512.482 258.804 512.112 258.984C511.742 259.164 511.382 259.324 511.042 259.444C510.702 259.564 510.382 259.654 510.082 259.714C509.782 259.774 509.522 259.814 509.292 259.824L510.352 258.744C510.712 258.684 511.082 258.584 511.442 258.454C511.802 258.324 512.172 258.164 512.522 257.964C512.862 257.774 513.212 257.554 513.532 257.314C513.862 257.064 514.172 256.794 514.442 256.524C514.862 256.094 515.142 255.714 515.302 255.364C515.462 255.024 515.502 254.714 515.422 254.464C515.332 254.214 515.142 254.004 514.802 253.864C514.472 253.724 514.012 253.644 513.452 253.624C512.892 253.624 512.302 253.684 511.722 253.794Z" fill="white"/>
<path d="M500.262 267.544C499.742 268.034 499.232 268.454 498.722 268.814C498.212 269.174 497.732 269.454 497.272 269.664C496.802 269.884 496.362 270.034 495.932 270.114C495.502 270.194 495.092 270.224 494.702 270.184C494.322 270.144 494.032 270.054 493.852 269.914C493.662 269.774 493.572 269.574 493.582 269.334C493.602 269.094 493.712 268.804 493.932 268.464C494.152 268.134 494.492 267.744 494.932 267.334L498.702 263.764L507.272 264.594L506.102 265.694L502.572 265.354L500.262 267.544ZM495.502 267.924C495.352 268.124 495.272 268.294 495.232 268.454C495.202 268.604 495.242 268.734 495.342 268.834C495.452 268.934 495.652 268.994 495.932 269.014C496.212 269.034 496.492 269.034 496.772 268.964C497.062 268.894 497.352 268.784 497.642 268.644C497.922 268.494 498.212 268.304 498.502 268.094C498.792 267.864 499.082 267.614 499.372 267.344L501.582 265.254L498.552 264.964L496.092 267.294C495.852 267.514 495.662 267.724 495.502 267.924ZM491.002 271.054L499.572 271.884L498.402 272.984L489.832 272.154L491.002 271.054Z" fill="white"/>
<path d="M472.122 287.704L478.862 289.174L483.942 284.854L477.202 283.384L478.482 282.294L486.112 283.964L478.482 290.454L470.852 288.784L472.122 287.704Z" fill="white"/>
<path d="M459.182 301.124C458.962 300.964 458.802 300.774 458.712 300.544C458.622 300.314 458.572 300.064 458.612 299.784C458.642 299.504 458.762 299.184 458.952 298.834C459.142 298.494 459.412 298.124 459.772 297.724C460.132 297.324 460.592 296.914 461.142 296.464C461.682 296.034 462.252 295.634 462.812 295.294C463.352 294.964 463.912 294.674 464.452 294.444C464.962 294.214 465.492 294.024 465.992 293.884C466.502 293.734 466.982 293.634 467.422 293.584C467.872 293.524 468.282 293.514 468.682 293.534C469.062 293.554 469.402 293.624 469.702 293.714C470.252 293.884 470.622 294.124 470.862 294.444C471.092 294.764 471.152 295.144 471.072 295.564C470.972 295.994 470.712 296.494 470.292 297.024C469.862 297.574 469.272 298.144 468.502 298.754C467.732 299.364 466.952 299.894 466.162 300.314C465.372 300.744 464.612 301.074 463.872 301.304C463.132 301.534 462.432 301.664 461.762 301.694C461.082 301.724 460.482 301.664 459.932 301.494C459.642 301.424 459.382 301.294 459.182 301.124ZM462.672 300.614C463.172 300.604 463.712 300.504 464.262 300.354C464.822 300.184 465.392 299.944 465.962 299.644C466.552 299.334 467.122 298.954 467.682 298.504C468.242 298.054 468.672 297.634 468.972 297.234C469.272 296.844 469.452 296.484 469.492 296.174C469.542 295.854 469.482 295.564 469.282 295.334C469.082 295.104 468.782 294.914 468.372 294.784C467.942 294.654 467.482 294.584 467.002 294.584C466.502 294.594 465.972 294.684 465.422 294.834C464.872 294.984 464.312 295.234 463.732 295.534C463.152 295.844 462.562 296.234 461.962 296.714C461.362 297.194 460.912 297.624 460.602 298.024C460.302 298.424 460.112 298.784 460.072 299.094C460.032 299.404 460.122 299.664 460.332 299.894C460.522 300.124 460.842 300.304 461.272 300.434C461.692 300.574 462.162 300.634 462.672 300.614Z" fill="white"/>
<path d="M437.002 314.934L442.282 317.554L447.952 313.434L442.672 310.814L444.102 309.784L450.082 312.744L441.562 318.934L435.582 315.974L437.002 314.934Z" fill="white"/>
<path d="M428.872 327.594C428.362 327.834 427.892 328.024 427.462 328.134C427.042 328.244 426.662 328.294 426.332 328.264C425.982 328.244 425.722 328.154 425.482 328.004C425.242 327.854 425.102 327.674 425.062 327.444C425.012 327.224 425.062 326.974 425.212 326.684C425.362 326.394 425.622 326.074 425.982 325.734C426.352 325.384 426.832 325.004 427.452 324.584L430.612 322.424L428.402 321.004L429.872 319.994L435.192 323.424L430.562 326.594C429.942 327.004 429.392 327.344 428.872 327.594ZM426.772 326.184C426.582 326.534 426.642 326.794 426.952 326.994C427.252 327.194 427.652 327.224 428.172 327.084C428.662 326.954 429.312 326.614 430.092 326.084L433.092 324.024L431.222 322.824L428.222 324.884C427.442 325.414 426.952 325.854 426.772 326.184Z" fill="white"/>
<path d="M407.452 337.474C407.352 337.244 407.302 336.994 407.322 336.714C407.352 336.434 407.412 336.134 407.562 335.814C407.702 335.494 407.932 335.144 408.232 334.784C408.522 334.424 408.892 334.054 409.352 333.664C409.812 333.274 410.342 332.884 410.972 332.474C411.582 332.074 412.202 331.724 412.782 331.444C413.352 331.174 413.912 330.944 414.442 330.774C414.942 330.614 415.442 330.494 415.902 330.424C416.372 330.354 416.792 330.324 417.162 330.354C417.552 330.374 417.872 330.444 418.182 330.534C418.472 330.634 418.712 330.774 418.912 330.944C419.272 331.244 419.472 331.604 419.522 332.014C419.562 332.424 419.462 332.874 419.212 333.354C418.952 333.834 418.532 334.354 417.972 334.894C417.402 335.444 416.682 335.994 415.822 336.554C414.952 337.114 414.112 337.574 413.312 337.914C412.502 338.264 411.772 338.494 411.082 338.614C410.392 338.744 409.792 338.744 409.242 338.664C408.692 338.574 408.242 338.384 407.882 338.074C407.682 337.914 407.532 337.714 407.452 337.474ZM410.422 337.564C410.832 337.644 411.292 337.644 411.792 337.574C412.302 337.494 412.862 337.324 413.442 337.084C414.042 336.844 414.652 336.514 415.282 336.104C415.912 335.694 416.432 335.294 416.842 334.884C417.242 334.494 417.542 334.104 417.702 333.754C417.882 333.384 417.952 333.044 417.892 332.744C417.832 332.434 417.672 332.154 417.402 331.934C417.122 331.694 416.782 331.534 416.402 331.444C416.002 331.364 415.542 331.354 415.052 331.424C414.552 331.494 414.002 331.664 413.422 331.904C412.832 332.154 412.202 332.494 411.522 332.934C410.842 333.374 410.302 333.784 409.892 334.184C409.482 334.594 409.182 334.974 409.022 335.324C408.862 335.684 408.822 336.004 408.892 336.294C408.942 336.594 409.122 336.864 409.402 337.104C409.672 337.334 410.022 337.484 410.422 337.564Z" fill="white"/>
<path d="M402.022 344.304L398.522 340.494L400.072 339.544L404.032 343.854L397.232 348.014L396.772 347.514L402.022 344.304Z" fill="white"/>
<path d="M384.572 355.334C384.062 355.524 383.602 355.664 383.212 355.724C382.822 355.784 382.482 355.774 382.212 355.694C381.932 355.624 381.732 355.474 381.582 355.264C381.432 355.054 381.372 354.834 381.412 354.564C381.442 354.304 381.562 354.034 381.792 353.734C382.012 353.434 382.342 353.114 382.752 352.774C383.182 352.434 383.712 352.074 384.372 351.694L387.742 349.734L386.362 347.784L387.932 346.874L391.262 351.564L386.312 354.434C385.672 354.834 385.092 355.124 384.572 355.334ZM383.282 353.424C383.012 353.784 382.972 354.094 383.162 354.364C383.352 354.634 383.672 354.734 384.152 354.654C384.612 354.584 385.262 354.304 386.102 353.814L389.312 351.944L388.142 350.294L384.932 352.164C384.102 352.654 383.552 353.074 383.282 353.424Z" fill="white"/>
<path d="M363.392 360.744L365.172 359.764L367.242 360.624L371.932 358.054L372.452 355.764L374.132 354.844L372.332 362.464L370.402 363.524L363.392 360.744ZM367.972 360.924L370.952 362.194L371.792 358.834L367.972 360.924Z" fill="white"/>
<path d="M352.622 367.394L350.762 373.774L348.442 374.964L346.592 369.464L348.102 368.684L349.662 373.304L349.692 373.284L351.532 366.914L353.142 366.084L358.102 368.964L358.132 368.944L356.572 364.324L358.082 363.544L359.932 369.044L357.612 370.234L352.642 367.364L352.622 367.394Z" fill="white"/>
<path d="M334.562 376.334L331.962 382.954L329.622 384.074L328.612 378.164L330.142 377.434L330.992 382.404L331.022 382.384L333.602 375.774L335.232 374.994L339.502 378.334L339.532 378.314L338.682 373.344L340.212 372.614L341.222 378.524L338.882 379.644L334.592 376.314L334.562 376.334Z" fill="white"/>
<path d="M320.552 383.024L314.502 390.854L312.612 391.684L312.422 385.394L314.052 384.674L314.212 389.784L314.242 389.764L320.292 381.904L322.182 381.074L322.372 387.364L320.742 388.084L320.582 382.994L320.552 383.024Z" fill="white"/>
<path d="M298.552 397.434C298.082 397.524 297.692 397.564 297.382 397.534C297.072 397.504 296.852 397.394 296.722 397.224C296.572 397.054 296.522 396.824 296.552 396.534C296.572 396.244 296.662 395.954 296.852 395.644C297.022 395.344 297.282 395.044 297.622 394.744C297.962 394.434 298.382 394.144 298.862 393.854C299.362 393.564 299.942 393.274 300.622 392.994L304.122 391.554L304.352 388.814L305.982 388.144L305.432 394.754L300.292 396.864C299.612 397.124 299.042 397.314 298.552 397.434ZM298.832 394.754C298.422 395.114 298.212 395.474 298.182 395.854C298.152 396.234 298.312 396.444 298.692 396.484C299.052 396.524 299.672 396.364 300.542 396.014L303.872 394.644L304.062 392.324L300.732 393.694C299.862 394.044 299.222 394.404 298.832 394.754Z" fill="white"/>
<path d="M279.182 401.034C279.342 400.694 279.542 400.364 279.822 400.004C280.092 399.654 280.392 399.304 280.762 398.954C281.132 398.604 281.552 398.254 282.022 397.924C282.492 397.584 283.012 397.264 283.592 396.954C284.172 396.644 284.792 396.374 285.462 396.114C286.122 395.864 286.742 395.674 287.282 395.564C287.802 395.454 288.292 395.404 288.692 395.404C289.082 395.404 289.432 395.464 289.712 395.574C290.002 395.674 290.232 395.824 290.382 396.014C290.552 396.204 290.652 396.424 290.712 396.674C290.762 396.924 290.752 397.204 290.692 397.504C290.592 398.044 290.362 398.574 290.002 399.134C289.642 399.674 289.182 400.214 288.632 400.714C288.062 401.224 287.392 401.714 286.632 402.154C285.852 402.614 285.002 403.014 284.072 403.364C283.142 403.714 282.312 403.944 281.622 404.034C280.912 404.144 280.352 404.124 279.902 403.994C279.452 403.864 279.152 403.624 278.972 403.284C278.792 402.934 278.742 402.504 278.852 401.964C278.902 401.684 279.012 401.374 279.182 401.034ZM280.542 402.404C280.662 402.684 280.892 402.874 281.202 402.984C281.522 403.094 281.942 403.114 282.442 403.054C282.952 402.994 283.552 402.834 284.232 402.574C284.912 402.314 285.532 402.024 286.102 401.674C286.652 401.344 287.142 400.974 287.552 400.594C287.972 400.204 288.312 399.794 288.572 399.384C288.822 398.964 289.002 398.544 289.072 398.144C289.152 397.724 289.142 397.364 289.042 397.094C288.922 396.814 288.712 396.624 288.402 396.504C288.092 396.384 287.672 396.374 287.172 396.434C286.652 396.504 286.042 396.674 285.312 396.944C284.582 397.214 283.942 397.524 283.382 397.864C282.812 398.214 282.322 398.564 281.922 398.954C281.522 399.334 281.212 399.734 280.972 400.144C280.722 400.554 280.562 400.964 280.482 401.394C280.392 401.774 280.422 402.124 280.542 402.404Z" fill="white"/>
<path d="M266.112 409.654C265.762 409.754 265.442 409.844 265.132 409.904C264.862 409.954 264.592 409.984 264.352 409.984C264.122 409.984 263.942 409.934 263.782 409.864C263.622 409.794 263.522 409.674 263.452 409.534C263.402 409.374 263.402 409.194 263.472 408.954C263.502 408.834 263.582 408.684 263.672 408.524C263.782 408.364 263.902 408.194 264.062 408.014C264.232 407.824 264.422 407.644 264.672 407.464C264.912 407.264 265.192 407.084 265.512 406.904C265.272 406.944 265.042 406.954 264.812 406.964C264.582 406.964 264.382 406.934 264.202 406.864C264.042 406.794 263.922 406.684 263.832 406.544C263.752 406.394 263.762 406.174 263.842 405.904C263.892 405.744 263.972 405.574 264.062 405.394C264.182 405.194 264.332 404.994 264.502 404.804C264.702 404.594 264.932 404.374 265.182 404.164C265.442 403.954 265.742 403.734 266.072 403.534C266.422 403.314 266.802 403.114 267.222 402.914C267.642 402.714 268.122 402.524 268.642 402.344L273.722 400.604L271.632 407.784L267.322 409.264C266.872 409.404 266.462 409.544 266.112 409.654ZM267.302 403.634C266.932 403.814 266.622 403.994 266.352 404.194C266.102 404.364 265.912 404.564 265.772 404.744C265.632 404.924 265.532 405.114 265.472 405.304C265.412 405.494 265.422 405.644 265.472 405.764C265.532 405.884 265.642 405.964 265.822 406.004C266.022 406.034 266.282 406.014 266.622 405.954C266.972 405.884 267.402 405.764 267.922 405.594L271.162 404.484L271.892 401.984L268.652 403.094C268.132 403.264 267.692 403.444 267.302 403.634ZM266.612 406.824C266.272 406.994 266.002 407.174 265.782 407.334C265.582 407.494 265.432 407.654 265.322 407.814C265.232 407.974 265.152 408.134 265.112 408.294C265.062 408.464 265.052 408.604 265.102 408.704C265.162 408.804 265.272 408.864 265.442 408.884C265.602 408.924 265.842 408.894 266.152 408.834C266.452 408.774 266.832 408.674 267.282 408.514L270.282 407.484L270.932 405.264L267.932 406.294C267.392 406.474 266.972 406.644 266.612 406.824Z" fill="white"/>
<path d="M248.952 408.674L250.722 408.124L251.122 410.004L255.792 408.554L257.982 405.874L259.652 405.354L252.342 414.274L250.422 414.874L248.952 408.674ZM251.272 410.654L251.832 413.394L255.082 409.474L251.272 410.654Z" fill="white"/>
<path d="M233.882 416.824L232.422 419.974L230.862 420.404L234.402 412.774L235.962 412.344L234.302 415.934L240.532 414.214L242.192 410.624L243.752 410.194L240.212 417.824L238.652 418.254L240.112 415.104L233.882 416.824Z" fill="white"/>
<path d="M225.922 416.214L216.652 423.934L214.882 424.354L219.152 416.534L220.682 416.164L217.212 422.524L217.242 422.514L226.532 414.764L228.302 414.344L224.032 422.164L222.502 422.534L225.952 416.204L225.922 416.214Z" fill="white"/>
<path d="M207.112 422.994C206.712 423.564 206.232 424.104 205.682 424.614C205.142 425.124 204.542 425.574 203.902 425.984C203.262 426.394 202.572 426.754 201.822 427.054C201.092 427.354 200.322 427.584 199.512 427.744C198.662 427.914 197.962 427.964 197.452 427.874C196.912 427.804 196.552 427.624 196.342 427.344C196.122 427.064 196.082 426.684 196.172 426.214C196.272 425.734 196.512 425.204 196.912 424.574C197.132 424.224 197.392 423.874 197.682 423.524C197.992 423.164 198.342 422.814 198.722 422.464C199.102 422.114 199.522 421.784 199.972 421.454C200.432 421.124 200.922 420.824 201.432 420.564C201.942 420.284 202.492 420.044 203.062 419.834C203.642 419.624 204.242 419.454 204.842 419.344C205.412 419.234 205.912 419.174 206.312 419.184C206.732 419.184 207.062 419.244 207.332 419.334C207.602 419.424 207.812 419.564 207.942 419.744C208.072 419.924 208.162 420.134 208.172 420.374C208.212 420.614 208.172 420.874 208.092 421.164C208.002 421.454 207.882 421.754 207.712 422.064L209.462 421.724L211.712 418.184L213.202 417.894L208.132 425.894L206.642 426.184L208.872 422.664L207.112 422.994ZM197.822 425.544C197.752 425.904 197.782 426.204 197.922 426.434C198.062 426.664 198.322 426.804 198.692 426.864C199.062 426.934 199.542 426.914 200.112 426.804C200.702 426.684 201.272 426.504 201.852 426.254C202.412 426.004 202.962 425.704 203.472 425.354C203.982 425.004 204.452 424.604 204.872 424.174C205.312 423.734 205.692 423.274 205.982 422.804C206.292 422.314 206.482 421.884 206.542 421.534C206.612 421.174 206.582 420.874 206.422 420.654C206.282 420.424 206.012 420.294 205.652 420.224C205.302 420.154 204.822 420.184 204.252 420.294C203.582 420.424 202.962 420.614 202.402 420.864C201.812 421.124 201.292 421.414 200.802 421.764C200.312 422.114 199.852 422.504 199.462 422.934C199.072 423.354 198.712 423.814 198.402 424.304C198.112 424.754 197.902 425.184 197.822 425.544Z" fill="white"/>
<path d="M172.522 431.494L170.592 431.694L177.532 427.924L176.992 423.494L178.762 423.304L179.122 427.064L181.812 425.604L184.082 422.744L185.462 422.594L178.952 430.814L177.572 430.964L180.752 426.954L172.522 431.494Z" fill="white"/>
<path d="M170.582 424.904C170.532 424.874 170.462 424.854 170.402 424.824L170.152 424.774C170.062 424.764 169.982 424.764 169.882 424.764C169.692 424.774 169.492 424.814 169.292 424.864C169.112 424.914 168.942 424.984 168.762 425.074C168.592 425.164 168.432 425.244 168.272 425.354C168.112 425.464 167.982 425.564 167.852 425.674L166.222 432.044L164.672 432.134L166.102 426.854L158.892 432.484L157.402 432.574L165.832 426.204C166.402 425.784 166.912 425.414 167.342 425.124C167.792 424.814 168.182 424.574 168.562 424.374C168.942 424.174 169.312 424.024 169.652 423.924C170.012 423.814 170.372 423.764 170.762 423.734C170.972 423.724 171.142 423.734 171.302 423.764C171.462 423.794 171.562 423.844 171.592 423.914L170.672 424.984C170.682 424.964 170.642 424.934 170.582 424.904Z" fill="white"/>
<path d="M147.442 432.624C147.192 432.504 147.022 432.344 146.962 432.134C146.902 431.934 146.952 431.674 147.112 431.374C147.262 431.074 147.502 430.754 147.852 430.384C148.192 430.014 148.552 429.694 148.962 429.394C149.362 429.094 149.782 428.834 150.222 428.624C150.672 428.404 151.142 428.234 151.622 428.114C152.112 427.994 152.612 427.934 153.142 427.924L155.872 427.894L159.062 424.454L160.332 424.444L152.642 432.734L148.642 432.784C148.112 432.794 147.722 432.734 147.442 432.624ZM150.582 429.294C150.042 429.554 149.562 429.914 149.122 430.384C148.682 430.854 148.492 431.214 148.562 431.464C148.632 431.704 149.002 431.824 149.672 431.814L152.262 431.784L154.962 428.874L152.372 428.904C151.702 428.914 151.092 429.044 150.582 429.294Z" fill="white"/>
<path d="M144.872 427.164C145.152 426.744 145.302 426.374 145.332 426.074C145.372 425.764 145.272 425.534 145.072 425.354C144.872 425.174 144.552 425.074 144.112 425.054C143.722 425.034 143.322 425.084 142.872 425.204C142.442 425.314 142.022 425.464 141.602 425.664C141.162 425.874 140.752 426.094 140.362 426.344C139.972 426.604 139.612 426.864 139.292 427.144L138.122 427.094C138.392 426.854 138.682 426.614 139.022 426.364C139.372 426.114 139.732 425.874 140.112 425.654C140.492 425.434 140.882 425.214 141.312 425.024C141.722 424.824 142.142 424.654 142.582 424.504C143.012 424.364 143.432 424.254 143.852 424.184C144.272 424.104 144.682 424.074 145.082 424.094C145.362 424.104 145.622 424.144 145.882 424.214C146.152 424.274 146.372 424.384 146.542 424.524C146.742 424.654 146.852 424.834 146.942 425.064C147.022 425.284 147.012 425.564 146.912 425.884C146.812 426.204 146.612 426.594 146.312 427.024C146.022 427.454 145.582 427.964 145.022 428.534C144.472 429.084 143.902 429.594 143.352 430.024C142.802 430.454 142.262 430.834 141.722 431.154C141.202 431.464 140.682 431.734 140.182 431.954C139.692 432.174 139.212 432.344 138.752 432.484C138.302 432.604 137.872 432.694 137.472 432.754C137.072 432.794 136.702 432.814 136.372 432.804C135.962 432.784 135.632 432.724 135.372 432.644C135.112 432.544 134.912 432.434 134.762 432.294C134.632 432.144 134.572 431.974 134.542 431.794C134.512 431.614 134.522 431.424 134.582 431.214C134.642 431.014 134.742 430.804 134.882 430.594C135.012 430.384 135.162 430.184 135.342 429.984L136.522 430.034C136.332 430.304 136.202 430.554 136.152 430.764C136.092 430.974 136.092 431.174 136.172 431.314C136.252 431.464 136.372 431.584 136.552 431.684C136.762 431.764 137.002 431.824 137.302 431.834C137.762 431.854 138.262 431.794 138.802 431.644C139.312 431.514 139.872 431.294 140.422 431.014C140.982 430.724 141.542 430.394 142.092 429.984C142.642 429.574 143.192 429.104 143.702 428.594C144.202 428.064 144.602 427.584 144.872 427.164Z" fill="white"/>
<path d="M129.322 422.974L120.472 431.204L119.342 431.074L128.192 422.844L129.322 422.974ZM128.202 428.274C127.702 428.214 127.322 428.114 127.072 427.954C126.822 427.794 126.682 427.604 126.672 427.364C126.652 427.134 126.742 426.854 126.942 426.544C127.142 426.234 127.442 425.894 127.852 425.514C128.242 425.144 128.662 424.824 129.092 424.544C129.532 424.264 129.992 424.014 130.432 423.834C130.882 423.654 131.342 423.514 131.792 423.434C132.242 423.354 132.692 423.344 133.112 423.394L136.762 423.814L127.912 432.044L126.782 431.914L130.432 428.524L128.202 428.274ZM131.522 424.384C131.262 424.414 131.012 424.484 130.732 424.574C130.472 424.674 130.192 424.804 129.912 424.984C129.632 425.154 129.352 425.384 129.052 425.654C128.752 425.934 128.542 426.164 128.432 426.354C128.332 426.544 128.302 426.714 128.312 426.854C128.362 426.974 128.482 427.084 128.642 427.164C128.832 427.234 129.062 427.284 129.342 427.324L131.482 427.564L134.612 424.654L132.232 424.384C132.002 424.364 131.772 424.364 131.522 424.384Z" fill="white"/>
<path d="M113.422 419.894L104.892 427.034L108.872 427.994L117.402 420.854L118.402 421.094L108.742 429.184L102.762 427.744L112.422 419.654L113.422 419.894Z" fill="white"/>
<path d="M98.642 419.414C99.142 419.094 99.632 418.794 100.152 418.534C100.672 418.264 101.182 418.024 101.702 417.824C102.222 417.624 102.742 417.464 103.222 417.354C103.722 417.234 104.202 417.174 104.652 417.174C105.102 417.174 105.522 417.234 105.902 417.364C106.272 417.494 106.552 417.664 106.732 417.884C106.892 418.094 106.982 418.354 106.972 418.634C106.972 418.904 106.892 419.214 106.732 419.534C106.582 419.864 106.372 420.204 106.092 420.554C105.822 420.904 105.502 421.254 105.122 421.624C104.752 421.974 104.342 422.334 103.912 422.674C103.122 423.294 102.342 423.824 101.522 424.294C100.722 424.754 99.942 425.124 99.192 425.394C98.442 425.664 97.7221 425.834 97.0621 425.894C96.3721 425.964 95.782 425.904 95.262 425.724C94.742 425.544 94.3921 425.284 94.2521 424.934C94.0921 424.594 94.112 424.184 94.292 423.724C94.472 423.264 94.822 422.744 95.322 422.184C95.832 421.614 96.4621 421.034 97.2521 420.414C97.6921 420.064 98.152 419.724 98.642 419.414ZM96.662 422.074C96.262 422.504 95.9821 422.904 95.8121 423.264C95.6521 423.624 95.632 423.934 95.722 424.184C95.812 424.454 96.062 424.644 96.442 424.774C96.822 424.904 97.262 424.944 97.782 424.884C98.272 424.824 98.812 424.694 99.382 424.474C99.962 424.254 100.552 423.964 101.172 423.604C101.782 423.244 102.402 422.814 103.002 422.354C103.622 421.864 104.142 421.404 104.542 420.984C104.942 420.554 105.232 420.154 105.402 419.794C105.572 419.434 105.582 419.144 105.502 418.874C105.392 418.614 105.142 418.414 104.732 418.284C104.322 418.144 103.872 418.104 103.372 418.154C102.852 418.214 102.332 418.344 101.762 418.564C101.192 418.784 100.612 419.084 100.012 419.444C99.412 419.794 98.802 420.224 98.182 420.714C97.572 421.184 97.062 421.644 96.662 422.074Z" fill="white"/>
<path d="M90.9722 411.114L81.4822 417.904L84.5721 419.544L94.0622 412.754L94.8422 413.164L84.0922 420.854L79.4521 418.384L90.2021 410.694L90.9722 411.114Z" fill="white"/>
<path d="M73.572 414.274C73.542 414.024 73.5821 413.754 73.7321 413.474C73.8721 413.194 74.112 412.894 74.452 412.574C74.782 412.254 75.1821 411.944 75.6821 411.604C76.1721 411.274 76.6421 410.994 77.1121 410.774C77.5821 410.544 78.0221 410.384 78.4321 410.294C78.8621 410.194 79.2521 410.164 79.6021 410.194C79.9621 410.234 80.282 410.344 80.572 410.544L82.0521 411.564L86.652 408.454L87.342 408.934L76.2521 416.424L74.092 414.934C73.792 414.744 73.622 414.524 73.572 414.274ZM78.0521 411.274C77.5521 411.394 76.9921 411.654 76.3621 412.084C75.7321 412.514 75.332 412.894 75.152 413.234C74.982 413.564 75.082 413.864 75.442 414.114L76.842 415.084L80.7321 412.454L79.332 411.484C78.972 411.234 78.5321 411.164 78.0521 411.274Z" fill="white"/>
<path d="M72.7821 403.434C73.3121 403.154 73.8221 402.914 74.3521 402.704C74.8721 402.494 75.382 402.314 75.882 402.184C76.382 402.054 76.8521 401.964 77.2821 401.934C77.7321 401.894 78.1321 401.914 78.4921 402.004C78.8521 402.084 79.1521 402.234 79.4021 402.464C79.6421 402.684 79.792 402.944 79.832 403.224C79.872 403.504 79.832 403.814 79.712 404.144C79.602 404.454 79.402 404.794 79.142 405.144C78.882 405.494 78.572 405.854 78.202 406.204C77.842 406.564 77.4321 406.904 76.9821 407.254C76.5421 407.594 76.072 407.924 75.582 408.234C74.692 408.804 73.8521 409.264 73.0021 409.644C72.1721 410.024 71.392 410.294 70.692 410.464C69.982 410.634 69.3421 410.684 68.7921 410.624C68.2221 410.574 67.7721 410.384 67.4321 410.084C67.0921 409.774 66.922 409.404 66.962 408.974C66.972 408.544 67.1621 408.084 67.5021 407.584C67.8421 407.084 68.3421 406.554 68.9721 406.004C69.6221 405.444 70.3621 404.894 71.2521 404.324C71.7521 403.994 72.2621 403.704 72.7821 403.434ZM70.0921 406.134C69.5921 406.554 69.2021 406.964 68.9221 407.344C68.6421 407.734 68.492 408.084 68.462 408.394C68.422 408.724 68.5321 408.994 68.7821 409.224C69.0321 409.444 69.3621 409.574 69.8021 409.604C70.2121 409.634 70.7021 409.584 71.2421 409.444C71.7921 409.304 72.392 409.084 73.022 408.784C73.662 408.484 74.3321 408.114 75.0021 407.684C75.7021 407.244 76.3021 406.804 76.7921 406.394C77.2921 405.974 77.6921 405.564 77.9721 405.184C78.2521 404.804 78.3921 404.464 78.4321 404.134C78.4521 403.814 78.342 403.534 78.072 403.294C77.802 403.054 77.4621 402.914 77.0421 402.884C76.6021 402.854 76.1421 402.894 75.5921 403.044C75.0521 403.194 74.462 403.414 73.832 403.724C73.212 404.014 72.5421 404.394 71.8421 404.834C71.1921 405.274 70.5921 405.714 70.0921 406.134Z" fill="white"/>
<path d="M64.3022 404.224L74.5721 398.034L75.0721 398.624L63.4421 405.634L61.2222 403.034L62.5822 402.214L64.3022 404.224Z" fill="white"/>
<path d="M57.9321 397.834C57.9921 397.544 58.1121 397.254 58.3321 396.954C58.5421 396.654 58.8421 396.354 59.2321 396.054C59.6121 395.744 60.0621 395.454 60.5821 395.154C61.1121 394.854 61.5821 394.614 62.0521 394.434C62.5221 394.244 62.9421 394.134 63.3221 394.094C63.7221 394.044 64.0521 394.074 64.3421 394.164C64.6321 394.264 64.8621 394.444 65.0421 394.714L65.9421 396.094L70.8421 393.294L71.2621 393.934L59.4521 400.694L58.1321 398.674C57.9621 398.404 57.8921 398.124 57.9321 397.834ZM62.6921 395.134C62.2321 395.184 61.6721 395.404 61.0021 395.794C60.3321 396.184 59.8621 396.544 59.6021 396.904C59.3521 397.244 59.3321 397.604 59.5521 397.944L60.4121 399.254L64.5521 396.884L63.6921 395.574C63.4821 395.234 63.1321 395.084 62.6921 395.134Z" fill="white"/>
<path d="M65.5222 383.564L65.8821 384.334L62.4722 386.864L63.4322 388.904L67.3722 387.504L67.7122 388.234L54.6422 392.854L54.2522 392.014L65.5222 383.564ZM61.2922 387.744L56.3422 391.404L62.0721 389.404L61.2922 387.744Z" fill="white"/>
<path d="M61.8821 379.484L51.2221 383.044L50.9021 381.964L63.0121 375.844L63.2221 376.544L53.0321 381.694V381.714L63.6921 378.144L63.9121 378.894L54.1921 385.614V385.634L64.3821 380.484L64.5921 381.184L52.4821 387.304L52.1621 386.224L61.8821 379.494V379.484Z" fill="white"/>
<path d="M60.0521 370.844L49.5621 373.944L49.4021 372.794L61.6021 367.084L61.7021 367.834L51.4421 372.634V372.654L61.9321 369.544L62.0421 370.344L52.0121 376.834V376.854L62.2721 372.054L62.3721 372.804L50.1721 378.514L50.0221 377.354L60.0521 370.854V370.844Z" fill="white"/>
<path d="M59.0922 363.954L49.2021 365.004V364.014L61.4222 358.714V359.564L51.4822 363.874V363.894L61.4222 362.824V363.814L49.2021 369.114V368.264L59.0922 363.974V363.954Z" fill="white"/>
<path d="M50.1222 356.294C50.3422 355.954 50.6022 355.644 50.9222 355.344C51.2522 355.044 51.6322 354.764 52.0822 354.504C52.5322 354.234 53.0122 354.004 53.5622 353.784C54.1022 353.564 54.5821 353.414 55.0121 353.324C55.4421 353.234 55.8022 353.214 56.0922 353.264C56.3922 353.314 56.6122 353.444 56.7522 353.634C56.8922 353.834 56.9422 354.114 56.9022 354.494L56.6822 356.414L61.7422 354.384L61.6422 355.274L49.4421 360.174L49.7621 357.364C49.8021 356.984 49.9222 356.634 50.1222 356.294ZM55.0222 354.354C54.6722 354.294 54.1522 354.394 53.4622 354.674C52.7622 354.954 52.2322 355.264 51.8322 355.634C51.4522 355.984 51.2222 356.404 51.1722 356.874L50.9622 358.704L55.2422 356.984L55.4521 355.154C55.5121 354.684 55.3622 354.414 55.0222 354.354Z" fill="white"/>
<path d="M59.6221 342.164C60.1321 342.034 60.6021 341.934 61.0521 341.894C61.5021 341.844 61.902 341.834 62.272 341.864C62.642 341.894 62.9421 341.994 63.1721 342.144C63.4221 342.284 63.592 342.484 63.692 342.734C63.792 342.994 63.802 343.314 63.712 343.704C63.632 344.084 63.462 344.474 63.232 344.854C62.992 345.224 62.692 345.604 62.332 345.974C61.992 346.324 61.592 346.674 61.142 347.014C60.692 347.354 60.222 347.674 59.722 347.964C59.222 348.264 58.7121 348.534 58.1721 348.794C57.6521 349.034 57.122 349.264 56.602 349.454C55.652 349.804 54.832 350.034 54.072 350.174C53.332 350.304 52.702 350.334 52.202 350.254C51.712 350.164 51.342 349.974 51.132 349.664C50.902 349.354 50.852 348.934 50.972 348.404C51.092 347.874 51.342 347.324 51.762 346.794C52.162 346.254 52.672 345.744 53.292 345.244C53.912 344.744 54.632 344.284 55.442 343.844C56.272 343.394 57.132 343.004 58.072 342.664C58.612 342.444 59.1321 342.274 59.6221 342.164ZM55.8621 344.464C55.2321 344.794 54.672 345.154 54.192 345.524C53.702 345.904 53.312 346.284 53.012 346.674C52.692 347.074 52.492 347.474 52.412 347.864C52.322 348.254 52.3721 348.564 52.5521 348.774C52.7221 348.984 53.002 349.124 53.402 349.174C53.792 349.224 54.2821 349.194 54.8621 349.084C55.4421 348.964 56.112 348.774 56.822 348.514C57.562 348.244 58.2521 347.944 58.8621 347.624C59.4921 347.294 60.052 346.944 60.532 346.574C61.012 346.204 61.392 345.824 61.712 345.434C62.012 345.034 62.2121 344.634 62.3021 344.214C62.3921 343.794 62.3521 343.484 62.1821 343.254C61.9921 343.034 61.732 342.894 61.342 342.854C60.952 342.814 60.4521 342.854 59.8721 342.984C59.3021 343.094 58.642 343.294 57.892 343.564C57.182 343.824 56.4921 344.134 55.8621 344.464Z" fill="white"/>
<path d="M54.1821 337.654C54.2821 337.434 54.3921 337.214 54.5421 336.994C54.6821 336.794 54.8521 336.584 55.0521 336.374C55.2521 336.174 55.492 335.974 55.762 335.774C56.032 335.574 56.3421 335.384 56.6721 335.214C57.0121 335.044 57.372 334.894 57.772 334.754C57.972 334.684 58.2021 334.624 58.4221 334.584C58.6421 334.544 58.862 334.514 59.072 334.514C59.282 334.514 59.4721 334.534 59.6121 334.604C59.7921 334.654 59.892 334.754 59.972 334.894C60.102 334.714 60.272 334.524 60.452 334.324C60.652 334.124 60.882 333.924 61.152 333.714C61.422 333.514 61.742 333.314 62.082 333.124C62.442 332.934 62.8521 332.754 63.3121 332.604C63.5821 332.514 63.8421 332.444 64.1021 332.384C64.3921 332.324 64.6421 332.294 64.8621 332.294C65.1021 332.294 65.312 332.324 65.512 332.374C65.702 332.424 65.852 332.524 65.962 332.644C66.082 332.774 66.1521 332.944 66.1721 333.154C66.1921 333.364 66.1621 333.624 66.0621 333.944L65.1021 337.004L53.092 341.024L53.912 338.424C54.002 338.124 54.1021 337.864 54.1821 337.654ZM64.722 333.794C64.692 333.614 64.612 333.484 64.452 333.414C64.322 333.334 64.122 333.324 63.892 333.354C63.662 333.374 63.382 333.444 63.072 333.544C62.762 333.644 62.462 333.774 62.192 333.924C61.922 334.064 61.6621 334.234 61.4321 334.434C61.2021 334.634 61.0121 334.854 60.8521 335.104C60.6821 335.364 60.552 335.644 60.452 335.954L59.842 337.904L64.022 336.504L64.632 334.554C64.722 334.224 64.752 333.984 64.722 333.794ZM59.1821 335.784C59.1421 335.624 59.042 335.524 58.902 335.474C58.762 335.424 58.5921 335.424 58.3621 335.464C58.1421 335.514 57.8921 335.574 57.6221 335.664C57.3421 335.754 57.082 335.864 56.842 335.984C56.602 336.114 56.392 336.264 56.212 336.434C56.012 336.604 55.842 336.804 55.712 337.014C55.572 337.234 55.4421 337.484 55.3621 337.754L54.7921 339.564L58.5021 338.324L59.072 336.514C59.192 336.194 59.2221 335.954 59.1821 335.784Z" fill="white"/>
<path d="M70.6122 321.724L70.1622 322.834L66.2122 324.724L65.0322 327.664L68.3322 327.404L67.9122 328.454L57.0022 329.284L57.4822 328.074L70.6122 321.724ZM64.8522 325.384L59.1321 328.104L63.8922 327.774L64.8522 325.384Z" fill="white"/>
<path d="M67.7522 315.074L62.9521 316.354L63.4521 315.324L75.0922 312.214L74.5922 313.244L69.1122 314.704L67.1321 318.794L72.6122 317.334L72.1122 318.364L60.4722 321.474L60.9722 320.444L65.7722 319.164L67.7522 315.074Z" fill="white"/>
<path d="M75.6721 307.564L68.722 305.684L69.412 304.464L80.7921 301.844L80.192 302.894L70.9321 305.024L70.9221 305.044L77.9221 306.914L77.2321 308.134L65.8521 310.754L66.442 309.704L75.652 307.584L75.6721 307.564Z" fill="white"/>
<path d="M78.6122 296.514C77.8622 296.624 77.2322 296.644 76.7222 296.574C76.2122 296.514 75.8422 296.354 75.6022 296.124C75.3622 295.894 75.2522 295.574 75.3122 295.164C75.3622 294.764 75.5721 294.274 75.9521 293.684C76.3521 293.064 76.8521 292.494 77.4521 291.974C78.0421 291.444 78.7022 290.974 79.4222 290.554C80.1422 290.134 80.9122 289.784 81.7222 289.484C82.5522 289.184 83.3722 288.964 84.2322 288.804C84.7122 288.714 85.1622 288.664 85.5922 288.634C86.0222 288.614 86.4022 288.634 86.7422 288.684C87.0822 288.734 87.3722 288.834 87.6122 288.964C87.8422 289.104 88.0022 289.294 88.0822 289.524C88.1722 289.754 88.1822 290.034 88.1022 290.364C88.0122 290.704 87.8322 291.094 87.5422 291.534C87.2722 291.944 86.9622 292.344 86.6022 292.704C86.2522 293.074 85.8521 293.414 85.4521 293.724C85.0421 294.034 84.6122 294.334 84.1522 294.594C83.6922 294.854 83.2222 295.104 82.7522 295.304C82.2622 295.534 81.8022 295.704 81.3122 295.874C80.8322 296.034 80.3622 296.164 79.9022 296.274L79.0721 297.534L83.9622 296.624L83.2621 297.694L72.2222 299.754L72.9222 298.684L77.7822 297.784L78.6122 296.514ZM81.5922 290.394C80.9522 290.634 80.3622 290.894 79.8022 291.204C79.2522 291.514 78.7522 291.864 78.3122 292.234C77.8522 292.624 77.5022 293.024 77.2322 293.434C76.9522 293.864 76.8121 294.224 76.8221 294.514C76.8221 294.814 76.9322 295.044 77.1822 295.204C77.4322 295.364 77.7921 295.454 78.2621 295.474C78.7321 295.504 79.3021 295.454 79.9421 295.334C80.6221 295.204 81.2822 295.024 81.9022 294.794C82.5422 294.554 83.1321 294.294 83.7021 293.974C84.2521 293.664 84.7421 293.324 85.1921 292.944C85.6221 292.584 85.9722 292.184 86.2422 291.764C86.5522 291.284 86.7222 290.884 86.7222 290.594C86.7222 290.294 86.6122 290.064 86.3522 289.914C86.0922 289.764 85.7322 289.684 85.2422 289.684C84.7722 289.684 84.1921 289.744 83.5121 289.864C82.8821 290.004 82.2322 290.174 81.5922 290.394Z" fill="white"/>
<path d="M90.3121 274.224L91.4921 272.694L93.0621 275.614L102.002 271.384L100.912 272.784L93.412 276.284L94.012 277.414L97.652 276.994L96.8021 278.094L86.3621 279.314L87.212 278.214L92.3021 277.624L90.3121 274.224Z" fill="white"/>
<path d="M104.512 266.934C104.612 266.864 104.702 266.794 104.812 266.704L105.112 266.444C105.192 266.364 105.272 266.284 105.342 266.204C105.482 266.044 105.572 265.894 105.622 265.774C105.662 265.664 105.682 265.564 105.662 265.484C105.632 265.414 105.602 265.334 105.522 265.294C105.442 265.244 105.352 265.224 105.252 265.194L94.3521 269.164L95.4321 267.874L104.392 264.664L99.462 263.084L100.512 261.844L105.852 263.884C106.192 264.034 106.472 264.174 106.702 264.294C106.932 264.424 107.072 264.564 107.142 264.734C107.212 264.904 107.202 265.094 107.112 265.324C107.032 265.544 106.842 265.814 106.572 266.144C106.422 266.314 106.262 266.484 106.072 266.644C105.882 266.814 105.702 266.944 105.552 267.024L104.252 267.124C104.322 267.064 104.412 267.004 104.512 266.934Z" fill="white"/>
<path d="M108.562 253.084C109.002 252.754 109.442 252.474 109.882 252.254C110.322 252.024 110.762 251.864 111.212 251.744C111.662 251.624 112.082 251.564 112.512 251.554C112.942 251.544 113.272 251.584 113.522 251.684C113.772 251.774 113.922 251.934 113.962 252.144C114.022 252.354 113.952 252.624 113.792 252.944C113.622 253.274 113.332 253.664 112.912 254.124L110.752 256.504L114.742 256.404L113.732 257.514L104.112 257.764L107.282 254.284C107.702 253.814 108.122 253.424 108.562 253.084ZM112.402 253.014C112.352 252.754 112.052 252.644 111.502 252.654C110.952 252.664 110.422 252.804 109.882 253.074C109.372 253.334 108.832 253.764 108.302 254.354L106.242 256.614L109.622 256.524L111.682 254.264C112.212 253.684 112.452 253.264 112.402 253.014Z" fill="white"/>
<path d="M121.132 246.174C121.712 246.064 122.292 245.884 122.842 245.654C123.412 245.424 123.932 245.144 124.442 244.814C124.952 244.484 125.402 244.114 125.792 243.714C126.142 243.354 126.382 243.044 126.512 242.754C126.642 242.474 126.702 242.224 126.662 242.024C126.622 241.814 126.522 241.644 126.372 241.504C126.192 241.384 125.992 241.284 125.722 241.234L126.772 240.164C127.022 240.194 127.242 240.244 127.442 240.334C127.632 240.434 127.802 240.544 127.922 240.694C128.042 240.844 128.122 241.004 128.162 241.214C128.212 241.404 128.202 241.634 128.132 241.884C128.052 242.144 127.922 242.424 127.702 242.734C127.512 243.034 127.232 243.374 126.872 243.744C126.622 243.994 126.342 244.264 125.992 244.554C125.662 244.844 125.272 245.124 124.862 245.404C124.452 245.684 124.002 245.944 123.512 246.204C123.022 246.464 122.502 246.684 121.972 246.874C121.432 247.064 120.862 247.214 120.272 247.314C119.672 247.424 119.062 247.474 118.432 247.454C117.822 247.434 117.312 247.364 116.932 247.244C116.552 247.124 116.272 246.964 116.082 246.774C115.902 246.574 115.812 246.354 115.812 246.094C115.792 245.844 115.852 245.574 115.962 245.284C116.092 244.994 116.272 244.684 116.492 244.384C116.732 244.074 117.002 243.754 117.292 243.454C117.662 243.074 118.052 242.724 118.422 242.434C118.812 242.124 119.202 241.854 119.592 241.604C119.982 241.364 120.362 241.164 120.732 240.984C121.102 240.804 121.462 240.644 121.802 240.524C122.142 240.404 122.462 240.314 122.762 240.254C123.062 240.194 123.322 240.154 123.552 240.144L122.492 241.224C122.132 241.284 121.762 241.384 121.392 241.514C121.032 241.644 120.662 241.804 120.312 242.004C119.972 242.194 119.622 242.414 119.302 242.654C118.972 242.904 118.662 243.174 118.392 243.444C117.972 243.874 117.692 244.254 117.532 244.604C117.372 244.944 117.332 245.254 117.412 245.504C117.502 245.754 117.692 245.964 118.032 246.104C118.362 246.244 118.822 246.324 119.382 246.344C119.962 246.344 120.552 246.294 121.132 246.174Z" fill="white"/>
<path d="M141.852 228.914L133.282 228.084L134.452 226.984L143.022 227.814L141.852 228.914ZM132.592 232.424C133.112 231.934 133.622 231.514 134.132 231.154C134.642 230.794 135.122 230.514 135.582 230.304C136.052 230.084 136.492 229.934 136.932 229.854C137.362 229.774 137.772 229.744 138.162 229.784C138.542 229.824 138.832 229.914 139.012 230.054C139.202 230.194 139.292 230.394 139.282 230.634C139.272 230.874 139.152 231.164 138.932 231.504C138.712 231.834 138.372 232.224 137.932 232.634L134.162 236.204L125.592 235.374L126.752 234.274L130.282 234.614L132.592 232.424ZM137.352 232.054C137.502 231.854 137.582 231.684 137.622 231.524C137.652 231.374 137.612 231.244 137.512 231.144C137.402 231.044 137.202 230.984 136.922 230.964C136.632 230.934 136.362 230.944 136.082 231.014C135.792 231.084 135.502 231.204 135.212 231.334C134.932 231.484 134.642 231.674 134.352 231.884C134.062 232.114 133.772 232.364 133.482 232.634L131.272 234.724L134.302 235.014L136.762 232.684C137.002 232.464 137.192 232.254 137.352 232.054Z" fill="white"/>
<path d="M160.732 212.274L153.992 210.804L148.912 215.124L155.652 216.594L154.372 217.684L146.742 216.014L154.372 209.524L162.002 211.194L160.732 212.274Z" fill="white"/>
<path d="M173.672 198.854C173.892 199.014 174.052 199.204 174.142 199.434C174.232 199.664 174.282 199.914 174.242 200.194C174.212 200.474 174.092 200.804 173.902 201.144C173.712 201.484 173.442 201.854 173.082 202.254C172.722 202.654 172.262 203.064 171.712 203.514C171.172 203.944 170.602 204.344 170.042 204.684C169.502 205.014 168.942 205.304 168.402 205.534C167.892 205.764 167.362 205.954 166.862 206.094C166.352 206.244 165.872 206.344 165.432 206.394C164.972 206.454 164.572 206.464 164.172 206.444C163.792 206.424 163.452 206.354 163.152 206.264C162.602 206.094 162.232 205.854 161.992 205.534C161.772 205.214 161.702 204.834 161.782 204.414C161.882 203.984 162.142 203.484 162.562 202.954C162.992 202.404 163.592 201.834 164.352 201.224C165.122 200.614 165.902 200.084 166.692 199.664C167.482 199.234 168.242 198.904 168.982 198.674C169.722 198.444 170.422 198.314 171.092 198.284C171.772 198.254 172.372 198.314 172.922 198.484C173.212 198.554 173.472 198.684 173.672 198.854ZM170.182 199.354C169.682 199.364 169.142 199.464 168.592 199.614C168.032 199.784 167.462 200.024 166.892 200.324C166.302 200.634 165.732 201.014 165.172 201.454C164.612 201.904 164.182 202.324 163.882 202.724C163.582 203.114 163.402 203.474 163.362 203.784C163.312 204.104 163.372 204.394 163.572 204.624C163.772 204.854 164.072 205.044 164.482 205.174C164.912 205.304 165.372 205.374 165.852 205.374C166.352 205.364 166.882 205.274 167.432 205.124C167.982 204.974 168.542 204.724 169.122 204.424C169.702 204.114 170.292 203.724 170.892 203.244C171.492 202.764 171.942 202.334 172.252 201.934C172.552 201.534 172.742 201.174 172.782 200.864C172.822 200.554 172.732 200.294 172.522 200.064C172.332 199.834 172.012 199.654 171.582 199.524C171.162 199.394 170.692 199.344 170.182 199.354Z" fill="white"/>
<path d="M195.862 185.044L190.582 182.424L184.912 186.544L190.192 189.164L188.772 190.194L182.792 187.234L191.312 181.044L197.292 184.004L195.862 185.044Z" fill="white"/>
<path d="M203.982 172.374C204.492 172.134 204.962 171.944 205.392 171.834C205.812 171.724 206.192 171.674 206.522 171.704C206.872 171.724 207.132 171.814 207.372 171.964C207.612 172.114 207.752 172.294 207.792 172.524C207.842 172.744 207.792 172.994 207.642 173.284C207.492 173.574 207.232 173.894 206.872 174.234C206.502 174.584 206.022 174.964 205.402 175.384L202.242 177.544L204.452 178.964L202.982 179.974L197.662 176.544L202.292 173.374C202.912 172.964 203.462 172.634 203.982 172.374ZM206.082 173.784C206.272 173.434 206.212 173.174 205.912 172.974C205.612 172.774 205.212 172.744 204.692 172.884C204.202 173.014 203.552 173.354 202.772 173.884L199.772 175.944L201.642 177.144L204.642 175.084C205.412 174.564 205.902 174.124 206.082 173.784Z" fill="white"/>
<path d="M225.402 162.494C225.502 162.724 225.552 162.974 225.522 163.254C225.502 163.534 225.432 163.834 225.282 164.154C225.132 164.474 224.912 164.824 224.612 165.184C224.322 165.544 223.952 165.914 223.492 166.304C223.032 166.694 222.502 167.084 221.872 167.494C221.262 167.894 220.642 168.244 220.062 168.524C219.492 168.794 218.932 169.024 218.402 169.194C217.902 169.354 217.402 169.474 216.952 169.544C216.482 169.614 216.062 169.644 215.692 169.614C215.302 169.594 214.982 169.524 214.672 169.434C214.382 169.334 214.142 169.194 213.942 169.024C213.582 168.724 213.382 168.364 213.332 167.954C213.292 167.544 213.392 167.094 213.642 166.614C213.902 166.134 214.322 165.614 214.882 165.074C215.452 164.524 216.172 163.974 217.032 163.414C217.902 162.854 218.742 162.394 219.542 162.054C220.352 161.704 221.082 161.474 221.772 161.354C222.462 161.224 223.062 161.224 223.612 161.304C224.162 161.394 224.612 161.584 224.972 161.894C225.172 162.064 225.322 162.264 225.402 162.494ZM222.432 162.404C222.022 162.324 221.562 162.324 221.062 162.394C220.552 162.474 219.992 162.644 219.412 162.884C218.812 163.124 218.202 163.454 217.572 163.864C216.942 164.274 216.422 164.674 216.012 165.084C215.612 165.474 215.322 165.864 215.152 166.214C214.972 166.584 214.902 166.924 214.962 167.224C215.022 167.534 215.182 167.814 215.452 168.034C215.732 168.274 216.072 168.434 216.452 168.524C216.862 168.604 217.312 168.614 217.802 168.544C218.302 168.474 218.852 168.304 219.432 168.064C220.022 167.814 220.652 167.474 221.332 167.034C222.012 166.594 222.552 166.184 222.962 165.784C223.372 165.374 223.672 164.994 223.832 164.644C223.992 164.294 224.032 163.964 223.962 163.674C223.912 163.374 223.732 163.104 223.452 162.864C223.192 162.644 222.832 162.484 222.432 162.404Z" fill="white"/>
<path d="M230.832 155.674L234.332 159.484L232.782 160.434L228.822 156.124L235.622 151.964L236.082 152.464L230.832 155.674Z" fill="white"/>
<path d="M248.282 144.634C248.792 144.444 249.252 144.304 249.642 144.244C250.042 144.184 250.372 144.194 250.642 144.274C250.922 144.344 251.122 144.494 251.272 144.704C251.422 144.914 251.482 145.134 251.442 145.404C251.412 145.664 251.292 145.934 251.062 146.234C250.842 146.534 250.512 146.854 250.102 147.194C249.672 147.534 249.142 147.894 248.482 148.274L245.112 150.234L246.492 152.184L244.922 153.094L241.592 148.404L246.542 145.534C247.182 145.134 247.762 144.844 248.282 144.634ZM249.572 146.554C249.842 146.194 249.882 145.884 249.692 145.614C249.502 145.344 249.182 145.244 248.702 145.324C248.242 145.394 247.592 145.674 246.752 146.164L243.542 148.034L244.712 149.684L247.922 147.814C248.752 147.324 249.312 146.904 249.572 146.554Z" fill="white"/>
<path d="M269.462 139.234L267.682 140.214L265.612 139.344L260.922 141.914L260.402 144.204L258.722 145.124L260.522 137.504L262.452 136.444L269.462 139.234ZM264.882 139.054L261.902 137.784L261.062 141.144L264.882 139.054Z" fill="white"/>
<path d="M280.232 132.584L282.092 126.204L284.412 125.014L286.262 130.514L284.752 131.294L283.192 126.674L283.162 126.694L281.322 133.064L279.702 133.894L274.742 131.014L274.712 131.034L276.272 135.654L274.762 136.434L272.912 130.934L275.232 129.744L280.202 132.614L280.232 132.584Z" fill="white"/>
<path d="M298.292 123.644L300.892 117.024L303.232 115.904L304.242 121.814L302.712 122.544L301.862 117.574L301.832 117.594L299.252 124.204L297.622 124.984L293.352 121.644L293.322 121.664L294.172 126.634L292.642 127.364L291.632 121.454L293.972 120.334L298.262 123.664L298.292 123.644Z" fill="white"/>
<path d="M312.302 116.944L318.352 109.114L320.242 108.284L320.432 114.574L318.802 115.294L318.642 110.184L318.612 110.204L312.562 118.064L310.672 118.894L310.482 112.604L312.112 111.884L312.272 116.974L312.302 116.944Z" fill="white"/>
<path d="M334.302 102.544C334.772 102.454 335.162 102.414 335.472 102.444C335.782 102.474 336.002 102.584 336.132 102.754C336.282 102.924 336.332 103.154 336.302 103.444C336.282 103.734 336.192 104.024 336.002 104.334C335.832 104.634 335.572 104.934 335.232 105.234C334.892 105.544 334.472 105.834 333.992 106.124C333.492 106.414 332.912 106.704 332.232 106.984L328.732 108.424L328.502 111.164L326.872 111.834L327.422 105.224L332.562 103.114C333.242 102.844 333.812 102.654 334.302 102.544ZM334.022 105.224C334.432 104.864 334.642 104.504 334.672 104.124C334.702 103.744 334.542 103.534 334.162 103.494C333.802 103.454 333.182 103.614 332.312 103.964L328.982 105.334L328.792 107.654L332.122 106.284C332.992 105.934 333.632 105.574 334.022 105.224Z" fill="white"/>
<path d="M353.672 98.9341C353.512 99.2741 353.312 99.6041 353.032 99.9641C352.762 100.314 352.462 100.664 352.092 101.014C351.722 101.364 351.302 101.714 350.832 102.044C350.362 102.384 349.842 102.704 349.262 103.014C348.682 103.324 348.062 103.594 347.392 103.854C346.732 104.104 346.112 104.294 345.572 104.404C345.052 104.514 344.562 104.564 344.162 104.564C343.772 104.564 343.422 104.504 343.142 104.394C342.852 104.294 342.622 104.144 342.472 103.954C342.302 103.764 342.202 103.544 342.142 103.294C342.092 103.044 342.102 102.764 342.162 102.464C342.262 101.924 342.492 101.394 342.852 100.834C343.212 100.294 343.672 99.7541 344.222 99.2541C344.792 98.7441 345.462 98.2541 346.222 97.8141C347.002 97.3541 347.852 96.9541 348.782 96.6041C349.712 96.2541 350.542 96.0241 351.232 95.9341C351.942 95.8241 352.502 95.8441 352.952 95.9741C353.402 96.1041 353.702 96.3441 353.882 96.6841C354.062 97.0341 354.112 97.4641 354.002 98.0041C353.952 98.2841 353.842 98.6041 353.672 98.9341ZM352.312 97.5741C352.192 97.2941 351.962 97.1041 351.652 96.9941C351.332 96.8841 350.902 96.8641 350.412 96.9241C349.902 96.9841 349.302 97.1441 348.622 97.4041C347.942 97.6641 347.322 97.9541 346.752 98.3041C346.202 98.6341 345.712 99.0041 345.302 99.3841C344.882 99.7741 344.532 100.184 344.282 100.594C344.032 101.014 343.852 101.434 343.782 101.834C343.702 102.254 343.712 102.614 343.812 102.884C343.932 103.164 344.142 103.354 344.452 103.474C344.762 103.594 345.182 103.604 345.682 103.544C346.202 103.474 346.812 103.304 347.542 103.034C348.272 102.764 348.912 102.454 349.472 102.114C350.042 101.764 350.532 101.414 350.932 101.024C351.332 100.644 351.642 100.244 351.882 99.8341C352.132 99.4241 352.292 99.0141 352.372 98.5841C352.462 98.1941 352.432 97.8441 352.312 97.5741Z" fill="white"/>
<path d="M366.742 90.3242C367.092 90.2242 367.412 90.1342 367.722 90.0742C367.992 90.0242 368.262 89.9941 368.502 89.9941C368.732 89.9941 368.912 90.0441 369.072 90.1141C369.232 90.1841 369.332 90.3042 369.402 90.4442C369.452 90.6042 369.452 90.7841 369.382 91.0241C369.352 91.1441 369.272 91.2942 369.182 91.4542C369.072 91.6142 368.952 91.7841 368.792 91.9641C368.612 92.1541 368.432 92.3342 368.182 92.5142C367.942 92.7142 367.662 92.8942 367.342 93.0742C367.582 93.0342 367.812 93.0242 368.042 93.0142C368.272 93.0142 368.472 93.0441 368.652 93.1141C368.812 93.1841 368.932 93.2941 369.032 93.4341C369.112 93.5841 369.102 93.8042 369.022 94.0742C368.972 94.2342 368.892 94.4041 368.802 94.5841C368.682 94.7841 368.532 94.9842 368.362 95.1742C368.162 95.3842 367.932 95.6041 367.682 95.8141C367.432 96.0241 367.122 96.2442 366.792 96.4442C366.442 96.6642 366.062 96.8641 365.642 97.0641C365.222 97.2641 364.742 97.4542 364.222 97.6342L359.142 99.3741L361.232 92.1942L365.542 90.7141C365.982 90.5641 366.392 90.4342 366.742 90.3242ZM366.242 93.1541C366.582 92.9841 366.852 92.8041 367.072 92.6441C367.272 92.4841 367.422 92.3242 367.532 92.1642C367.622 92.0042 367.702 91.8441 367.742 91.6841C367.792 91.5141 367.802 91.3741 367.752 91.2741C367.692 91.1741 367.592 91.1141 367.412 91.0941C367.252 91.0541 367.012 91.0841 366.702 91.1441C366.402 91.2041 366.022 91.3041 365.572 91.4641L362.572 92.4941L361.922 94.7141L364.922 93.6841C365.462 93.5041 365.892 93.3241 366.242 93.1541ZM365.552 96.3441C365.922 96.1641 366.232 95.9841 366.502 95.7841C366.752 95.6141 366.942 95.4142 367.092 95.2342C367.232 95.0542 367.332 94.8642 367.392 94.6742C367.452 94.4842 367.442 94.3341 367.392 94.2141C367.332 94.0941 367.222 94.0142 367.042 93.9742C366.842 93.9442 366.582 93.9641 366.242 94.0241C365.892 94.0941 365.462 94.2142 364.942 94.3842L361.702 95.4941L360.972 97.9941L364.212 96.8842C364.722 96.7042 365.172 96.5241 365.552 96.3441Z" fill="white"/>
<path d="M383.902 91.3041L382.132 91.8541L381.732 89.9741L377.062 91.4241L374.872 94.1041L373.202 94.6241L380.512 85.7041L382.432 85.1041L383.902 91.3041ZM381.582 89.3241L381.022 86.5841L377.772 90.5041L381.582 89.3241Z" fill="white"/>
<path d="M398.972 83.1441L400.432 79.9941L401.992 79.5641L398.452 87.1941L396.892 87.6241L398.552 84.0341L392.322 85.7541L390.662 89.3441L389.102 89.7741L392.642 82.1441L394.202 81.7141L392.742 84.8641L398.972 83.1441Z" fill="white"/>
<path d="M406.932 83.7642L416.202 76.0442L417.972 75.6241L413.712 83.4442L412.182 83.8141L415.652 77.4542L415.622 77.4641L406.332 85.2141L404.562 85.6342L408.832 77.8141L410.362 77.4442L406.912 83.7741L406.932 83.7642Z" fill="white"/>
<path d="M425.742 76.9741C426.142 76.4041 426.622 75.8641 427.172 75.3541C427.712 74.8441 428.312 74.3941 428.952 73.9841C429.592 73.5741 430.282 73.2141 431.032 72.9141C431.762 72.6141 432.532 72.3841 433.342 72.2241C434.192 72.0541 434.892 72.0041 435.402 72.0941C435.942 72.1641 436.302 72.3441 436.512 72.6241C436.732 72.9041 436.772 73.2841 436.682 73.7541C436.582 74.2341 436.342 74.7641 435.942 75.3941C435.722 75.7441 435.462 76.0941 435.172 76.4441C434.862 76.8041 434.512 77.1541 434.132 77.5041C433.752 77.8541 433.332 78.1841 432.882 78.5141C432.422 78.8441 431.932 79.1441 431.422 79.4041C430.912 79.6841 430.362 79.9241 429.792 80.1341C429.212 80.3441 428.622 80.5141 428.012 80.6241C427.442 80.7341 426.942 80.7941 426.542 80.7841C426.122 80.7841 425.792 80.7241 425.522 80.6341C425.252 80.5441 425.042 80.4041 424.912 80.2241C424.782 80.0441 424.692 79.8341 424.682 79.5941C424.642 79.3541 424.682 79.0941 424.762 78.8041C424.852 78.5141 424.972 78.2141 425.142 77.9041L423.392 78.2441L421.142 81.7841L419.652 82.0741L424.722 74.0741L426.212 73.7841L423.982 77.3041L425.742 76.9741ZM435.032 74.4241C435.102 74.0641 435.072 73.7641 434.932 73.5341C434.792 73.3041 434.532 73.1641 434.162 73.1041C433.792 73.0341 433.312 73.0541 432.742 73.1641C432.152 73.2841 431.582 73.4641 431.002 73.7141C430.442 73.9641 429.892 74.2641 429.382 74.6141C428.872 74.9641 428.402 75.3641 427.982 75.7941C427.542 76.2341 427.162 76.6941 426.872 77.1641C426.562 77.6541 426.372 78.0841 426.312 78.4341C426.242 78.7941 426.272 79.0941 426.432 79.3141C426.572 79.5441 426.842 79.6741 427.202 79.7441C427.552 79.8141 428.032 79.7841 428.602 79.6741C429.272 79.5441 429.892 79.3541 430.452 79.1041C431.042 78.8441 431.562 78.5541 432.052 78.2041C432.542 77.8541 433.002 77.4641 433.392 77.0341C433.782 76.6141 434.142 76.1541 434.452 75.6641C434.742 75.2241 434.952 74.7941 435.032 74.4241Z" fill="white"/>
<defs>
<linearGradient id="paint0_linear_56_821" x1="255.989" y1="143.223" x2="376.371" y2="357.966" gradientUnits="userSpaceOnUse">
<stop stop-color="#73009B"/>
<stop offset="1" stop-color="white" stop-opacity="0"/>
</linearGradient>
</defs>
</svg>
