<svg width="536" height="387" viewBox="0 0 536 387" fill="none" xmlns="http://www.w3.org/2000/svg">
<path d="M308.921 298.58C434.056 250.032 517.254 163.652 494.749 105.643C472.243 47.6354 352.558 39.9665 227.423 88.5145C102.288 137.063 19.0897 223.443 41.5948 281.451C64.0999 339.459 183.786 347.128 308.921 298.58Z" stroke="url(#paint0_linear_56_724)" stroke-width="50" stroke-miterlimit="10"/>
<path d="M431.042 57.074L432.492 57.364L426.282 59.214L425.222 63.534L423.892 63.274L424.852 59.634L422.442 60.344L419.882 62.484L418.842 62.284L426.202 56.124L427.242 56.324L423.652 59.324L431.042 57.074Z" fill="white"/>
<path d="M430.292 63.784C430.322 63.824 430.362 63.854 430.402 63.904L430.562 64.014C430.622 64.044 430.682 64.064 430.752 64.084C430.892 64.124 431.052 64.134 431.202 64.134C431.352 64.124 431.492 64.104 431.652 64.074C431.802 64.034 431.952 63.994 432.092 63.934C432.242 63.874 432.372 63.804 432.502 63.734L435.742 58.114L436.882 58.404L434.132 63.044L441.142 59.504L442.242 59.784L434.112 63.724C433.572 63.974 433.082 64.194 432.672 64.374C432.242 64.554 431.882 64.684 431.552 64.784C431.212 64.874 430.902 64.934 430.622 64.934C430.332 64.944 430.052 64.914 429.762 64.834C429.612 64.794 429.492 64.744 429.392 64.674C429.292 64.604 429.232 64.534 429.232 64.464L430.242 63.684C430.242 63.704 430.262 63.744 430.292 63.784Z" fill="white"/>
<path d="M449.432 62.214C449.572 62.394 449.642 62.584 449.622 62.794C449.602 63.004 449.482 63.224 449.272 63.474C449.072 63.724 448.792 63.964 448.422 64.224C448.052 64.484 447.692 64.704 447.302 64.894C446.922 65.084 446.532 65.214 446.142 65.304C445.742 65.404 445.352 65.444 444.972 65.434C444.582 65.424 444.202 65.364 443.812 65.234L441.842 64.594L438.432 67.054L437.512 66.754L445.732 60.824L448.622 61.774C449.002 61.884 449.272 62.034 449.432 62.214ZM446.092 64.584C446.562 64.474 447.022 64.254 447.492 63.914C447.962 63.574 448.212 63.284 448.242 63.034C448.272 62.794 448.042 62.584 447.562 62.424L445.692 61.814L442.802 63.894L444.672 64.504C445.162 64.664 445.642 64.694 446.092 64.584Z" fill="white"/>
<path d="M449.502 68.004C449.162 68.334 448.932 68.644 448.822 68.924C448.692 69.214 448.692 69.454 448.772 69.674C448.862 69.894 449.062 70.064 449.372 70.194C449.642 70.304 449.942 70.364 450.312 70.354C450.652 70.354 451.012 70.314 451.372 70.234C451.762 70.144 452.122 70.034 452.482 69.894C452.842 69.744 453.192 69.584 453.512 69.404L454.332 69.744C454.062 69.904 453.772 70.064 453.452 70.214C453.112 70.364 452.782 70.494 452.442 70.614C452.092 70.734 451.742 70.834 451.372 70.914C451.012 71.004 450.652 71.064 450.292 71.094C449.942 71.114 449.602 71.124 449.272 71.074C448.942 71.044 448.642 70.974 448.362 70.854C448.172 70.774 447.992 70.674 447.832 70.544C447.662 70.424 447.532 70.264 447.452 70.094C447.352 69.924 447.332 69.714 447.342 69.494C447.352 69.274 447.452 69.004 447.632 68.724C447.812 68.444 448.082 68.124 448.432 67.794C448.782 67.454 449.262 67.084 449.852 66.684C450.432 66.294 451.002 65.964 451.542 65.684C452.082 65.404 452.592 65.194 453.082 65.014C453.562 64.844 454.012 64.724 454.452 64.644C454.882 64.564 455.272 64.514 455.652 64.504C456.022 64.494 456.352 64.524 456.662 64.564C456.962 64.624 457.232 64.694 457.462 64.794C457.752 64.914 457.972 65.054 458.132 65.194C458.282 65.344 458.392 65.504 458.452 65.674C458.492 65.844 458.482 66.024 458.442 66.204C458.402 66.384 458.332 66.564 458.232 66.744C458.122 66.924 457.982 67.094 457.812 67.264C457.652 67.434 457.482 67.584 457.282 67.724L456.452 67.384C456.672 67.174 456.852 66.974 456.962 66.784C457.072 66.594 457.142 66.414 457.122 66.254C457.112 66.094 457.072 65.944 456.972 65.814C456.852 65.684 456.692 65.574 456.482 65.484C456.152 65.354 455.782 65.284 455.342 65.294C454.932 65.294 454.462 65.364 453.972 65.484C453.472 65.614 452.962 65.794 452.432 66.044C451.902 66.294 451.352 66.604 450.832 66.954C450.282 67.324 449.842 67.674 449.502 68.004Z" fill="white"/>
<path d="M461.842 71.084C462.182 71.264 462.422 71.454 462.552 71.664C462.682 71.874 462.712 72.094 462.652 72.314C462.592 72.544 462.432 72.774 462.192 73.024C461.942 73.264 461.622 73.514 461.202 73.774C460.802 74.024 460.392 74.224 460.002 74.384C459.592 74.544 459.182 74.664 458.802 74.724C458.422 74.784 458.042 74.804 457.692 74.764C457.342 74.724 457.012 74.624 456.732 74.474L454.242 73.174L463.282 67.584L464.052 67.984L460.322 70.294L461.842 71.084ZM459.312 75.824L468.352 70.234L469.122 70.634L460.082 76.224L459.312 75.824ZM458.192 73.944C458.392 73.974 458.592 73.984 458.822 73.954C459.042 73.924 459.292 73.864 459.542 73.774C459.802 73.674 460.072 73.534 460.382 73.344C460.682 73.154 460.912 72.984 461.052 72.834C461.192 72.674 461.262 72.524 461.302 72.394C461.302 72.264 461.252 72.144 461.162 72.024C461.052 71.914 460.902 71.804 460.712 71.704L459.252 70.944L456.052 72.924L457.672 73.774C457.832 73.844 458.002 73.904 458.192 73.944Z" fill="white"/>
<path d="M469.732 82.6641L478.192 78.024L475.642 76.1341L467.182 80.774L466.542 80.304L476.122 75.0441L479.952 77.8841L470.372 83.144L469.732 82.6641Z" fill="white"/>
<path d="M480.202 86.774C479.742 86.954 479.292 87.114 478.832 87.234C478.372 87.364 477.932 87.464 477.492 87.524C477.052 87.584 476.632 87.614 476.242 87.594C475.842 87.584 475.482 87.524 475.152 87.414C474.822 87.304 474.542 87.144 474.312 86.934C474.082 86.724 473.942 86.484 473.882 86.244C473.832 86.004 473.852 85.744 473.952 85.474C474.042 85.224 474.192 84.944 474.412 84.674C474.622 84.394 474.892 84.134 475.202 83.874C475.512 83.604 475.862 83.354 476.242 83.104C476.622 82.864 477.032 82.634 477.452 82.414C478.222 82.024 478.952 81.714 479.692 81.474C480.412 81.244 481.102 81.084 481.722 81.014C482.352 80.944 482.922 80.964 483.422 81.074C483.942 81.184 484.342 81.384 484.662 81.684C484.982 81.984 485.142 82.314 485.132 82.684C485.142 83.044 484.992 83.424 484.712 83.814C484.432 84.204 484.012 84.604 483.472 85.014C482.922 85.424 482.282 85.824 481.512 86.214C481.092 86.394 480.652 86.594 480.202 86.774ZM482.492 84.744C482.922 84.434 483.252 84.124 483.482 83.834C483.712 83.534 483.832 83.244 483.842 82.984C483.862 82.704 483.752 82.464 483.522 82.244C483.292 82.024 482.982 81.884 482.592 81.814C482.222 81.744 481.792 81.734 481.312 81.804C480.832 81.864 480.302 81.994 479.742 82.184C479.182 82.374 478.602 82.624 478.022 82.914C477.422 83.224 476.892 83.524 476.472 83.824C476.042 84.134 475.712 84.434 475.472 84.734C475.232 85.034 475.132 85.304 475.102 85.584C475.092 85.854 475.212 86.104 475.462 86.334C475.712 86.564 476.022 86.714 476.402 86.794C476.792 86.864 477.212 86.874 477.692 86.804C478.172 86.734 478.682 86.604 479.232 86.404C479.772 86.224 480.352 85.964 480.962 85.664C481.542 85.374 482.062 85.054 482.492 84.744Z" fill="white"/>
<path d="M483.012 96.514L492.042 92.444L490.362 90.124L481.332 94.194L480.912 93.614L491.142 89.004L493.672 92.484L483.442 97.094L483.012 96.514Z" fill="white"/>
<path d="M496.542 97.8441C496.482 98.0941 496.362 98.3341 496.172 98.5641C495.982 98.7941 495.712 99.0141 495.362 99.2341C495.022 99.4541 494.632 99.6541 494.162 99.8441C493.702 100.034 493.282 100.184 492.862 100.274C492.452 100.374 492.082 100.414 491.762 100.404C491.422 100.394 491.132 100.324 490.892 100.204C490.642 100.074 490.452 99.8841 490.312 99.6341L489.582 98.304L485.262 100.104L484.922 99.4841L495.322 95.144L496.392 97.0941C496.542 97.3441 496.592 97.5941 496.542 97.8441ZM492.342 99.5641C492.742 99.5841 493.232 99.4641 493.822 99.2141C494.412 98.9641 494.822 98.7041 495.062 98.4241C495.292 98.1541 495.322 97.854 495.132 97.524L494.442 96.2641L490.792 97.7841L491.482 99.0441C491.672 99.3841 491.962 99.5541 492.342 99.5641Z" fill="white"/>
<path d="M493.582 108.284C493.112 108.414 492.662 108.524 492.212 108.584C491.762 108.654 491.342 108.694 490.942 108.704C490.542 108.714 490.172 108.674 489.852 108.594C489.522 108.514 489.242 108.404 489.002 108.234C488.772 108.064 488.602 107.844 488.492 107.574C488.392 107.304 488.362 107.024 488.432 106.744C488.492 106.474 488.622 106.184 488.822 105.904C489.002 105.634 489.252 105.364 489.562 105.094C489.862 104.824 490.202 104.564 490.582 104.324C490.962 104.074 491.362 103.854 491.802 103.634C492.222 103.424 492.672 103.234 493.132 103.054C493.952 102.744 494.712 102.514 495.442 102.354C496.162 102.204 496.812 102.134 497.372 102.144C497.932 102.164 498.412 102.264 498.792 102.464C499.182 102.654 499.442 102.944 499.592 103.314C499.742 103.684 499.732 104.084 499.572 104.484C499.422 104.884 499.132 105.274 498.732 105.664C498.322 106.054 497.792 106.434 497.162 106.794C496.512 107.164 495.802 107.504 494.982 107.814C494.502 108.004 494.042 108.154 493.582 108.284ZM496.392 106.394C496.892 106.114 497.302 105.824 497.632 105.534C497.952 105.234 498.182 104.944 498.302 104.654C498.442 104.354 498.452 104.064 498.342 103.794C498.242 103.524 498.042 103.314 497.732 103.184C497.442 103.054 497.082 102.984 496.642 102.984C496.202 102.984 495.702 103.034 495.142 103.164C494.582 103.294 493.982 103.474 493.362 103.714C492.712 103.964 492.142 104.224 491.652 104.484C491.152 104.764 490.742 105.044 490.412 105.334C490.082 105.624 489.872 105.914 489.742 106.214C489.622 106.514 489.612 106.804 489.722 107.094C489.832 107.384 490.032 107.604 490.322 107.744C490.622 107.874 490.972 107.954 491.412 107.954C491.852 107.954 492.342 107.874 492.902 107.744C493.442 107.624 494.042 107.434 494.692 107.184C495.322 106.944 495.892 106.674 496.392 106.394Z" fill="white"/>
<path d="M499.932 109.634L490.542 112.944L490.372 112.264L501.012 108.514L501.762 111.524L500.522 111.964L499.932 109.634Z" fill="white"/>
<path d="M502.432 117.254C502.292 117.514 502.112 117.764 501.862 117.984C501.612 118.214 501.302 118.424 500.922 118.614C500.542 118.814 500.132 118.974 499.652 119.134C499.172 119.284 498.752 119.394 498.362 119.444C497.962 119.504 497.622 119.504 497.342 119.454C497.042 119.404 496.812 119.294 496.632 119.134C496.452 118.964 496.352 118.744 496.312 118.444L496.112 116.924L491.672 118.364L491.582 117.654L502.272 114.184L502.562 116.414C502.592 116.714 502.552 116.984 502.432 117.254ZM498.132 118.624C498.482 118.684 498.952 118.624 499.562 118.424C500.172 118.224 500.622 117.994 500.932 117.714C501.222 117.454 501.352 117.124 501.302 116.744L501.112 115.294L497.362 116.514L497.552 117.964C497.592 118.344 497.792 118.564 498.132 118.624Z" fill="white"/>
<path d="M492.332 128.864L492.322 128.044L495.602 126.494L495.582 124.334L492.292 124.684L492.282 123.914L503.182 122.784L503.192 123.674L492.332 128.864ZM496.732 125.964L501.482 123.734L496.712 124.204L496.732 125.964Z" fill="white"/>
<path d="M493.612 133.624L502.432 132.894L502.312 133.994L491.622 136.784L491.702 136.074L500.702 133.734V133.714L491.882 134.454L491.962 133.694L501.132 129.744V129.724L492.132 132.064L492.212 131.354L502.902 128.564L502.782 129.664L493.612 133.624V133.624Z" fill="white"/>
<path d="M492.122 142.244L500.672 141.904L500.412 143.034L489.792 145.414L489.962 144.674L498.902 142.674V142.654L490.352 143.004L490.532 142.214L499.852 138.554V138.534L490.912 140.534L491.082 139.794L501.702 137.414L501.442 138.544L492.112 142.204L492.122 142.244Z" fill="white"/>
<path d="M490.562 149.004L498.002 150.464L497.682 151.394L487.172 153.374L487.452 152.564L496.002 150.954L496.012 150.934L488.522 149.484L488.842 148.554L499.352 146.574L499.072 147.384L490.572 148.994L490.562 149.004Z" fill="white"/>
<path d="M494.522 158.464C494.262 158.724 493.962 158.964 493.632 159.164C493.302 159.364 492.932 159.534 492.522 159.674C492.112 159.814 491.692 159.914 491.232 159.984C490.772 160.054 490.382 160.084 490.042 160.054C489.702 160.034 489.432 159.964 489.252 159.844C489.052 159.724 488.942 159.554 488.902 159.334C488.872 159.104 488.922 158.834 489.072 158.484L489.852 156.724L485.552 157.394L485.912 156.574L496.272 154.964L495.132 157.544C494.972 157.894 494.772 158.194 494.522 158.464ZM490.362 159.084C490.592 159.234 491.002 159.254 491.592 159.164C492.182 159.074 492.672 158.904 493.072 158.664C493.462 158.424 493.752 158.084 493.952 157.654L494.692 155.974L491.052 156.544L490.312 158.224C490.122 158.654 490.142 158.944 490.362 159.084Z" fill="white"/>
<path d="M483.092 169.474C482.682 169.474 482.312 169.444 481.972 169.384C481.632 169.314 481.342 169.234 481.092 169.114C480.842 168.994 480.652 168.824 480.532 168.634C480.402 168.444 480.332 168.214 480.352 167.944C480.362 167.674 480.462 167.374 480.652 167.024C480.832 166.684 481.082 166.354 481.372 166.054C481.662 165.764 482.002 165.474 482.382 165.224C482.742 164.974 483.142 164.744 483.572 164.534C484.002 164.324 484.452 164.134 484.902 163.984C485.362 163.824 485.812 163.694 486.282 163.584C486.732 163.484 487.192 163.404 487.622 163.354C488.412 163.254 489.082 163.244 489.672 163.304C490.252 163.364 490.712 163.494 491.042 163.694C491.372 163.894 491.562 164.174 491.612 164.514C491.672 164.864 491.572 165.274 491.312 165.754C491.052 166.234 490.692 166.684 490.222 167.084C489.762 167.494 489.222 167.854 488.612 168.164C488.002 168.484 487.332 168.744 486.612 168.954C485.872 169.174 485.122 169.324 484.332 169.424C483.902 169.454 483.482 169.484 483.092 169.474ZM486.542 168.224C487.102 168.064 487.622 167.864 488.092 167.644C488.562 167.414 488.972 167.144 489.312 166.844C489.672 166.544 489.942 166.214 490.132 165.874C490.322 165.524 490.392 165.224 490.322 164.974C490.272 164.734 490.112 164.524 489.842 164.394C489.572 164.244 489.222 164.154 488.762 164.114C488.302 164.084 487.762 164.094 487.172 164.164C486.552 164.234 485.962 164.354 485.412 164.494C484.852 164.654 484.332 164.844 483.872 165.064C483.402 165.294 483.012 165.554 482.652 165.854C482.302 166.154 482.032 166.484 481.832 166.864C481.632 167.234 481.552 167.544 481.602 167.804C481.662 168.054 481.812 168.254 482.072 168.394C482.342 168.534 482.712 168.614 483.172 168.634C483.612 168.674 484.162 168.644 484.782 168.574C485.392 168.504 485.982 168.384 486.542 168.224Z" fill="white"/>
<path d="M485.532 175.084C485.392 175.274 485.232 175.444 485.062 175.624C484.902 175.774 484.702 175.934 484.492 176.084C484.282 176.224 484.042 176.354 483.782 176.474C483.522 176.594 483.232 176.694 482.952 176.774C482.652 176.844 482.342 176.904 482.012 176.934C481.842 176.944 481.662 176.944 481.482 176.934C481.312 176.914 481.142 176.884 480.992 176.844C480.842 176.794 480.712 176.724 480.632 176.624C480.522 176.534 480.482 176.414 480.472 176.264C480.322 176.404 480.142 176.544 479.942 176.684C479.732 176.824 479.502 176.964 479.242 177.094C478.982 177.214 478.692 177.324 478.382 177.424C478.062 177.514 477.702 177.584 477.332 177.614C477.112 177.634 476.902 177.634 476.692 177.624C476.462 177.614 476.272 177.574 476.112 177.524C475.942 177.464 475.792 177.384 475.672 177.284C475.552 177.184 475.472 177.064 475.432 176.914C475.382 176.764 475.392 176.584 475.442 176.384C475.492 176.184 475.612 175.934 475.782 175.664L477.472 173.004L487.412 172.174L485.982 174.424C485.812 174.684 485.662 174.904 485.532 175.084ZM481.332 175.614C481.312 175.774 481.352 175.894 481.432 175.984C481.512 176.064 481.642 176.104 481.812 176.124C481.992 176.134 482.182 176.134 482.412 176.114C482.652 176.094 482.862 176.064 483.072 176.004C483.282 175.934 483.482 175.854 483.672 175.734C483.872 175.624 484.062 175.474 484.222 175.304C484.402 175.134 484.562 174.924 484.722 174.694L485.722 173.124L482.652 173.384L481.652 174.954C481.452 175.224 481.362 175.444 481.332 175.614ZM476.702 176.124C476.672 176.304 476.682 176.444 476.772 176.554C476.842 176.654 476.982 176.724 477.152 176.754C477.322 176.794 477.542 176.794 477.812 176.774C478.072 176.754 478.322 176.704 478.572 176.634C478.812 176.564 479.052 176.474 479.282 176.344C479.512 176.204 479.722 176.054 479.922 175.864C480.132 175.664 480.312 175.434 480.482 175.164L481.562 173.474L478.102 173.764L477.022 175.454C476.842 175.714 476.742 175.944 476.702 176.124Z" fill="white"/>
<path d="M468.542 186.074L469.222 185.134L472.672 184.324L474.472 181.834L472.022 181.264L472.672 180.374L480.782 182.294L480.042 183.314L468.542 186.074ZM473.872 184.044L478.872 182.884L475.342 182.014L473.872 184.044Z" fill="white"/>
<path d="M468.422 193.074L472.292 193.054L471.602 193.904L462.222 193.964L462.912 193.114L467.322 193.084L470.082 189.704L465.672 189.734L466.362 188.884L475.742 188.824L475.052 189.674L471.182 189.694L468.422 193.074Z" fill="white"/>
<path d="M460.292 198.214L464.672 201.714L463.782 202.694L454.752 202.354L455.522 201.504L462.872 201.784L462.892 201.764L458.472 198.264L459.362 197.284L468.392 197.624L467.622 198.474L460.312 198.194L460.292 198.214Z" fill="white"/>
<path d="M454.582 207.934C455.152 208.014 455.612 208.154 455.952 208.344C456.302 208.534 456.512 208.774 456.612 209.044C456.712 209.324 456.682 209.644 456.512 210.024C456.352 210.394 456.032 210.804 455.572 211.264C455.082 211.744 454.542 212.164 453.942 212.514C453.342 212.874 452.722 213.154 452.072 213.364C451.422 213.574 450.752 213.724 450.072 213.804C449.372 213.884 448.712 213.894 448.042 213.824C447.672 213.794 447.322 213.724 447.012 213.654C446.692 213.564 446.432 213.454 446.202 213.324C445.972 213.184 445.792 213.024 445.672 212.844C445.552 212.654 445.502 212.434 445.512 212.194C445.522 211.954 445.612 211.684 445.772 211.394C445.942 211.094 446.202 210.774 446.552 210.434C446.882 210.114 447.232 209.814 447.602 209.564C447.972 209.304 448.372 209.074 448.762 208.884C449.152 208.694 449.562 208.514 449.982 208.384C450.392 208.254 450.812 208.134 451.222 208.054C451.642 207.954 452.042 207.904 452.442 207.874C452.842 207.844 453.222 207.834 453.582 207.844L454.592 206.854L450.782 206.504L451.632 205.664L460.232 206.464L459.382 207.304L455.602 206.954L454.582 207.934ZM450.442 212.984C450.982 212.914 451.492 212.814 451.992 212.654C452.492 212.494 452.962 212.294 453.392 212.044C453.852 211.784 454.232 211.494 454.562 211.174C454.902 210.844 455.122 210.534 455.202 210.254C455.302 209.974 455.292 209.724 455.172 209.514C455.052 209.304 454.822 209.124 454.482 208.994C454.162 208.844 453.732 208.754 453.232 208.704C452.702 208.654 452.172 208.664 451.642 208.734C451.102 208.804 450.592 208.904 450.082 209.074C449.582 209.234 449.122 209.434 448.682 209.684C448.252 209.924 447.872 210.214 447.542 210.534C447.162 210.914 446.912 211.244 446.812 211.524C446.712 211.814 446.722 212.054 446.852 212.254C446.982 212.454 447.222 212.624 447.572 212.744C447.912 212.864 448.342 212.954 448.872 212.994C449.392 213.044 449.922 213.044 450.442 212.984Z" fill="white"/>
<path d="M438.922 226.124L437.572 227.274L437.392 224.124L429.592 225.914L430.832 224.854L437.362 223.394L437.302 222.174L434.552 221.674L435.522 220.844L443.422 222.274L442.452 223.104L438.602 222.404L438.922 226.124Z" fill="white"/>
<path d="M426.342 229.494C426.242 229.534 426.162 229.584 426.052 229.634L425.752 229.804C425.662 229.864 425.582 229.914 425.502 229.974C425.352 230.094 425.232 230.204 425.162 230.314C425.092 230.404 425.052 230.494 425.042 230.584C425.042 230.664 425.042 230.734 425.082 230.804C425.122 230.864 425.182 230.914 425.242 230.964L434.372 229.904L433.172 230.854L425.682 231.674L428.702 234.384L427.542 235.304L424.362 232.054C424.172 231.834 424.012 231.624 423.882 231.454C423.762 231.274 423.702 231.104 423.712 230.924C423.712 230.744 423.782 230.564 423.922 230.374C424.052 230.184 424.282 229.974 424.582 229.734C424.742 229.604 424.912 229.494 425.102 229.384C425.292 229.274 425.462 229.194 425.602 229.154L426.572 229.384C426.522 229.414 426.432 229.454 426.342 229.494Z" fill="white"/>
<path d="M418.922 241.594C418.502 241.794 418.092 241.954 417.702 242.054C417.312 242.154 416.942 242.204 416.582 242.204C416.212 242.214 415.902 242.154 415.582 242.064C415.272 241.964 415.042 241.854 414.902 241.694C414.752 241.544 414.692 241.364 414.732 241.144C414.762 240.934 414.892 240.684 415.112 240.424C415.342 240.154 415.682 239.854 416.132 239.524L418.462 237.814L415.562 236.924L416.642 236.124L423.642 238.274L420.232 240.784C419.782 241.114 419.342 241.384 418.922 241.594ZM416.142 240.704C416.092 240.964 416.272 241.144 416.672 241.264C417.072 241.384 417.502 241.384 417.972 241.264C418.422 241.144 418.952 240.874 419.522 240.444L421.732 238.814L419.272 238.064L417.062 239.694C416.492 240.114 416.182 240.454 416.142 240.704Z" fill="white"/>
<path d="M407.642 245.004C407.182 244.964 406.712 244.984 406.242 245.074C405.762 245.154 405.292 245.294 404.822 245.474C404.352 245.664 403.912 245.894 403.492 246.184C403.122 246.434 402.852 246.674 402.662 246.914C402.472 247.144 402.352 247.364 402.312 247.564C402.272 247.774 402.282 247.964 402.352 248.124C402.442 248.284 402.552 248.434 402.732 248.534L401.632 249.284C401.462 249.194 401.322 249.084 401.212 248.954C401.112 248.814 401.022 248.664 400.992 248.494C400.962 248.324 400.952 248.144 400.992 247.944C401.022 247.754 401.102 247.544 401.232 247.314C401.372 247.094 401.562 246.854 401.822 246.614C402.062 246.374 402.362 246.124 402.742 245.864C403.002 245.684 403.292 245.504 403.632 245.324C403.962 245.134 404.332 244.964 404.722 244.804C405.112 244.634 405.522 244.504 405.952 244.374C406.392 244.254 406.832 244.164 407.282 244.124C407.732 244.084 408.192 244.084 408.642 244.134C409.102 244.174 409.562 244.284 410.002 244.454C410.432 244.624 410.772 244.814 411.012 245.024C411.252 245.234 411.392 245.454 411.462 245.684C411.522 245.914 411.512 246.154 411.432 246.394C411.362 246.634 411.232 246.874 411.052 247.124C410.862 247.364 410.632 247.614 410.382 247.844C410.102 248.084 409.812 248.314 409.502 248.524C409.112 248.794 408.722 249.024 408.352 249.214C407.972 249.404 407.602 249.574 407.242 249.714C406.882 249.844 406.542 249.944 406.222 250.014C405.892 250.094 405.582 250.154 405.302 250.184C405.022 250.214 404.762 250.214 404.522 250.204C404.292 250.194 404.092 250.164 403.922 250.114L405.042 249.354C405.322 249.384 405.622 249.384 405.922 249.354C406.232 249.324 406.542 249.264 406.862 249.154C407.172 249.054 407.492 248.934 407.802 248.794C408.122 248.634 408.422 248.464 408.712 248.264C409.152 247.964 409.482 247.674 409.712 247.384C409.942 247.104 410.062 246.824 410.092 246.564C410.102 246.304 410.042 246.064 409.842 245.844C409.652 245.624 409.352 245.434 408.952 245.284C408.542 245.134 408.092 245.044 407.642 245.004Z" fill="white"/>
<path d="M394.932 255.174C394.392 255.514 393.892 255.784 393.412 255.994C392.932 256.204 392.492 256.354 392.092 256.434C391.682 256.524 391.312 256.554 390.982 256.524C390.642 256.494 390.342 256.424 390.072 256.284C389.812 256.154 389.632 255.994 389.552 255.814C389.462 255.634 389.462 255.424 389.552 255.194C389.642 254.974 389.822 254.724 390.082 254.464C390.352 254.204 390.722 253.924 391.172 253.644L395.052 251.204L400.942 254.104L399.742 254.854L397.312 253.654L394.932 255.174ZM391.382 254.354C391.212 254.504 391.092 254.644 391.012 254.784C390.942 254.914 390.922 255.054 390.972 255.174C391.012 255.294 391.142 255.394 391.342 255.494C391.542 255.594 391.742 255.644 391.962 255.654C392.192 255.654 392.432 255.624 392.692 255.564C392.942 255.494 393.212 255.384 393.482 255.254C393.762 255.114 394.052 254.944 394.352 254.764L396.622 253.334L394.542 252.304L392.012 253.894C391.772 254.054 391.562 254.204 391.382 254.354ZM387.132 256.204L393.022 259.104L391.822 259.854L385.932 256.954L387.132 256.204Z" fill="white"/>
<path d="M368.142 267.274L372.502 270.334L377.562 267.504L373.202 264.444L374.472 263.734L379.412 267.204L371.812 271.454L366.872 267.984L368.142 267.274Z" fill="white"/>
<path d="M354.482 276.764C354.382 276.554 354.322 276.344 354.332 276.104C354.342 275.864 354.392 275.624 354.502 275.354C354.612 275.084 354.802 274.814 355.062 274.544C355.312 274.264 355.622 273.984 356.012 273.704C356.402 273.414 356.862 273.134 357.412 272.854C357.942 272.574 358.482 272.344 358.992 272.164C359.492 271.994 359.982 271.854 360.442 271.764C360.882 271.674 361.322 271.624 361.732 271.614C362.152 271.604 362.522 271.624 362.852 271.684C363.202 271.744 363.492 271.834 363.782 271.944C364.042 272.064 364.272 272.204 364.462 272.364C364.802 272.664 364.992 272.984 365.052 273.344C365.112 273.704 365.032 274.074 364.842 274.454C364.632 274.844 364.282 275.244 363.802 275.644C363.312 276.054 362.702 276.454 361.952 276.844C361.202 277.234 360.462 277.544 359.762 277.744C359.052 277.964 358.402 278.074 357.802 278.114C357.192 278.154 356.652 278.094 356.162 277.964C355.662 277.824 355.252 277.624 354.912 277.324C354.712 277.154 354.562 276.964 354.482 276.764ZM357.152 277.144C357.522 277.254 357.932 277.304 358.382 277.294C358.842 277.274 359.332 277.194 359.832 277.044C360.362 276.894 360.892 276.684 361.442 276.394C361.992 276.114 362.442 275.824 362.782 275.514C363.122 275.224 363.372 274.924 363.502 274.634C363.642 274.344 363.692 274.054 363.622 273.784C363.552 273.514 363.402 273.264 363.142 273.034C362.872 272.804 362.572 272.624 362.222 272.514C361.852 272.404 361.452 272.354 361.012 272.364C360.572 272.374 360.082 272.464 359.572 272.604C359.052 272.754 358.502 272.984 357.912 273.284C357.322 273.584 356.862 273.884 356.512 274.184C356.162 274.494 355.912 274.784 355.782 275.064C355.652 275.354 355.632 275.624 355.712 275.884C355.772 276.144 355.942 276.394 356.212 276.624C356.462 276.864 356.782 277.034 357.152 277.144Z" fill="white"/>
<path d="M334.042 284.324L336.982 288.104L342.392 285.614L339.452 281.834L340.812 281.204L344.142 285.484L336.002 289.224L332.672 284.944L334.042 284.324Z" fill="white"/>
<path d="M324.072 294.294C323.622 294.394 323.232 294.454 322.882 294.454C322.542 294.454 322.252 294.404 322.022 294.294C321.782 294.194 321.612 294.034 321.492 293.834C321.372 293.634 321.322 293.424 321.372 293.204C321.402 292.984 321.522 292.754 321.732 292.524C321.932 292.284 322.232 292.054 322.592 291.814C322.972 291.574 323.442 291.334 324.022 291.084L326.992 289.814L325.872 287.924L327.262 287.334L329.972 291.894L325.612 293.744C325.042 293.994 324.532 294.174 324.072 294.294ZM323.032 292.434C322.782 292.714 322.742 292.984 322.892 293.244C323.042 293.504 323.322 293.634 323.732 293.634C324.132 293.634 324.702 293.474 325.442 293.164L328.272 291.964L327.322 290.364L324.492 291.564C323.762 291.874 323.272 292.164 323.032 292.434Z" fill="white"/>
<path d="M305.462 298.334C305.462 298.094 305.512 297.844 305.622 297.584C305.732 297.324 305.882 297.064 306.092 296.794C306.302 296.524 306.582 296.254 306.912 295.984C307.242 295.714 307.622 295.454 308.082 295.194C308.532 294.934 309.052 294.694 309.632 294.464C310.202 294.244 310.762 294.064 311.272 293.944C311.772 293.824 312.252 293.754 312.682 293.724C313.092 293.694 313.492 293.704 313.842 293.754C314.202 293.804 314.512 293.884 314.772 294.004C315.042 294.114 315.252 294.264 315.452 294.434C315.622 294.604 315.762 294.794 315.842 295.004C316.002 295.384 316.032 295.764 315.932 296.174C315.832 296.574 315.602 296.974 315.272 297.364C314.932 297.754 314.462 298.144 313.882 298.514C313.292 298.894 312.602 299.234 311.792 299.554C310.982 299.874 310.232 300.094 309.542 300.214C308.842 300.344 308.242 300.374 307.712 300.324C307.182 300.274 306.742 300.134 306.372 299.914C306.002 299.694 305.742 299.404 305.582 299.024C305.492 298.804 305.452 298.574 305.462 298.334ZM307.572 299.154C307.832 299.334 308.172 299.444 308.552 299.494C308.952 299.544 309.402 299.524 309.892 299.434C310.402 299.354 310.952 299.194 311.532 298.964C312.122 298.734 312.622 298.484 313.052 298.194C313.462 297.924 313.802 297.634 314.042 297.334C314.292 297.034 314.452 296.724 314.512 296.424C314.572 296.124 314.542 295.814 314.422 295.534C314.292 295.234 314.112 294.994 313.862 294.824C313.602 294.644 313.272 294.524 312.892 294.474C312.512 294.424 312.062 294.444 311.562 294.524C311.052 294.614 310.492 294.774 309.862 295.024C309.232 295.274 308.712 295.534 308.282 295.804C307.852 296.084 307.512 296.374 307.282 296.664C307.052 296.954 306.922 297.254 306.872 297.554C306.812 297.854 306.852 298.154 306.982 298.444C307.112 298.744 307.312 298.974 307.572 299.154Z" fill="white"/>
<path d="M299.342 303.444L298.072 298.984L299.492 298.474L300.932 303.534L294.692 305.784L294.522 305.194L299.342 303.444Z" fill="white"/>
<path d="M283.212 309.554C282.782 309.614 282.412 309.624 282.102 309.594C281.802 309.554 281.562 309.464 281.392 309.314C281.212 309.174 281.122 308.984 281.082 308.754C281.042 308.524 281.072 308.294 281.192 308.054C281.292 307.824 281.472 307.584 281.742 307.364C282.002 307.134 282.342 306.914 282.742 306.694C283.162 306.474 283.662 306.274 284.252 306.074L287.312 305.054L286.952 302.874L288.382 302.394L289.242 307.654L284.752 309.144C284.172 309.354 283.652 309.484 283.212 309.554ZM282.912 307.424C282.592 307.694 282.472 307.984 282.522 308.284C282.572 308.584 282.772 308.754 283.142 308.804C283.492 308.854 284.062 308.744 284.812 308.494L287.722 307.524L287.422 305.684L284.512 306.654C283.752 306.904 283.212 307.164 282.912 307.424Z" fill="white"/>
<path d="M266.232 309.424L267.832 308.944L269.042 310.274L273.252 309.004L274.372 306.974L275.882 306.514L272.102 313.264L270.372 313.784L266.232 309.424ZM269.462 310.734L271.192 312.664L272.892 309.694L269.462 310.734Z" fill="white"/>
<path d="M256.332 313.054L252.922 318.624L250.862 319.174L251.322 313.524L252.662 313.164L252.272 317.924L252.302 317.914L255.702 312.344L257.132 311.964L259.752 315.914L259.782 315.904L260.172 311.144L261.512 310.784L261.052 316.434L258.992 316.984L256.352 313.044L256.332 313.054Z" fill="white"/>
<path d="M240.442 317.034L236.422 322.644L234.372 323.124L235.572 317.284L236.902 316.974L235.892 321.884L235.922 321.874L239.922 316.264L241.342 315.934L243.322 320.154L243.352 320.144L244.362 315.234L245.692 314.924L244.492 320.764L242.442 321.244L240.442 317.034V317.034Z" fill="white"/>
<path d="M228.192 319.894L221.292 325.804L219.662 326.124L221.572 320.134L222.982 319.854L221.432 324.724L221.462 324.714L228.372 318.784L230.002 318.464L228.092 324.454L226.682 324.734L228.222 319.884L228.192 319.894Z" fill="white"/>
<path d="M207.702 328.074C207.332 328.044 207.042 327.984 206.822 327.874C206.612 327.764 206.482 327.614 206.452 327.414C206.402 327.214 206.442 326.984 206.552 326.714C206.662 326.444 206.822 326.194 207.062 325.944C207.282 325.704 207.562 325.484 207.902 325.284C208.242 325.074 208.642 324.904 209.082 324.754C209.542 324.604 210.052 324.474 210.632 324.384L213.612 323.894L214.672 321.354L216.062 321.124L213.512 327.234L209.132 327.954C208.552 328.054 208.082 328.084 207.702 328.074ZM208.762 325.604C208.352 325.844 208.082 326.134 207.932 326.484C207.782 326.834 207.832 327.074 208.092 327.204C208.332 327.334 208.832 327.334 209.572 327.214L212.412 326.744L213.302 324.604L210.462 325.074C209.732 325.194 209.162 325.374 208.762 325.604Z" fill="white"/>
<path d="M192.602 326.694C192.822 326.414 193.082 326.144 193.392 325.884C193.702 325.614 194.032 325.364 194.412 325.124C194.792 324.884 195.212 324.654 195.652 324.464C196.102 324.264 196.582 324.084 197.092 323.934C197.602 323.784 198.142 323.674 198.712 323.604C199.272 323.534 199.772 323.504 200.202 323.534C200.612 323.564 200.982 323.624 201.272 323.734C201.552 323.834 201.782 323.974 201.952 324.144C202.132 324.314 202.242 324.514 202.292 324.734C202.352 324.954 202.352 325.184 202.312 325.444C202.262 325.694 202.172 325.954 202.032 326.224C201.782 326.704 201.442 327.154 201.012 327.594C200.582 328.024 200.072 328.414 199.512 328.744C198.942 329.084 198.292 329.374 197.602 329.614C196.892 329.864 196.152 330.024 195.372 330.134C194.592 330.234 193.912 330.254 193.392 330.164C192.842 330.094 192.452 329.934 192.172 329.704C191.892 329.474 191.752 329.164 191.732 328.804C191.712 328.424 191.822 328.014 192.072 327.524C192.192 327.234 192.372 326.964 192.602 326.694ZM193.132 328.314C193.132 328.604 193.232 328.844 193.412 329.024C193.612 329.204 193.902 329.334 194.282 329.394C194.672 329.464 195.152 329.454 195.722 329.384C196.292 329.314 196.832 329.184 197.362 328.994C197.862 328.814 198.342 328.594 198.752 328.334C199.182 328.064 199.562 327.774 199.882 327.434C200.202 327.104 200.462 326.744 200.652 326.384C200.852 326.004 200.952 325.664 200.972 325.384C200.972 325.094 200.882 324.854 200.702 324.664C200.522 324.474 200.222 324.364 199.842 324.294C199.452 324.234 198.952 324.244 198.342 324.324C197.732 324.404 197.172 324.534 196.652 324.714C196.132 324.904 195.662 325.114 195.242 325.384C194.822 325.644 194.472 325.944 194.172 326.274C193.862 326.594 193.612 326.954 193.412 327.334C193.232 327.694 193.142 328.024 193.132 328.314Z" fill="white"/>
<path d="M180.402 331.604C180.122 331.614 179.862 331.614 179.622 331.594C179.412 331.574 179.212 331.534 179.042 331.474C178.882 331.414 178.762 331.324 178.672 331.224C178.582 331.114 178.542 330.984 178.542 330.834C178.562 330.674 178.612 330.494 178.742 330.284C178.802 330.184 178.912 330.054 179.022 329.924C179.152 329.794 179.292 329.664 179.472 329.534C179.662 329.404 179.852 329.274 180.092 329.164C180.332 329.034 180.582 328.934 180.882 328.844C180.702 328.824 180.532 328.774 180.362 328.724C180.202 328.664 180.062 328.584 179.962 328.484C179.872 328.374 179.822 328.244 179.802 328.084C179.802 327.924 179.872 327.714 180.012 327.474C180.102 327.334 180.212 327.194 180.342 327.044C180.492 326.884 180.662 326.734 180.852 326.594C181.062 326.444 181.292 326.294 181.552 326.154C181.812 326.014 182.092 325.894 182.402 325.774C182.722 325.654 183.062 325.554 183.422 325.474C183.792 325.394 184.192 325.324 184.622 325.284L188.842 324.894L185.002 331.174L181.422 331.504C181.032 331.564 180.692 331.584 180.402 331.604ZM183.222 326.204C182.902 326.284 182.622 326.374 182.362 326.494C182.132 326.594 181.932 326.734 181.762 326.874C181.602 327.014 181.462 327.164 181.362 327.334C181.262 327.504 181.212 327.644 181.212 327.764C181.212 327.884 181.262 327.994 181.392 328.074C181.532 328.154 181.722 328.204 181.982 328.224C182.252 328.244 182.602 328.244 183.032 328.204L185.722 327.954L187.062 325.774L184.372 326.024C183.932 326.064 183.552 326.124 183.222 326.204ZM181.682 329.054C181.382 329.134 181.132 329.234 180.922 329.334C180.732 329.434 180.572 329.544 180.442 329.674C180.322 329.804 180.222 329.934 180.132 330.074C180.042 330.224 179.992 330.354 179.992 330.454C180.002 330.564 180.062 330.644 180.182 330.704C180.282 330.774 180.472 330.814 180.712 330.824C180.952 330.844 181.252 330.844 181.632 330.804L184.122 330.574L185.312 328.634L182.822 328.864C182.362 328.914 181.992 328.974 181.682 329.054Z" fill="white"/>
<path d="M168.392 326.434L169.842 326.354L169.512 328.234L173.342 328.014L175.782 326.014L177.152 325.934L169.002 332.554L167.422 332.644L168.392 326.434ZM169.412 328.874L168.922 331.594L172.532 328.694L169.412 328.874Z" fill="white"/>
<path d="M154.902 330.414L152.832 333.024L151.572 333.044L156.602 326.704L157.862 326.684L155.492 329.674L160.522 329.594L162.892 326.604L164.152 326.584L159.122 332.924L157.862 332.944L159.932 330.334L154.902 330.414Z" fill="white"/>
<path d="M149.382 327.864L140.202 332.874L138.792 332.834L144.402 326.494L145.622 326.524L141.062 331.684H141.092L150.292 326.654L151.702 326.694L146.092 333.034L144.872 333.004L149.412 327.874L149.382 327.864Z" fill="white"/>
<path d="M133.662 329.624C133.192 330.064 132.672 330.454 132.102 330.794C131.552 331.134 130.972 331.424 130.372 331.654C129.782 331.884 129.172 332.054 128.532 332.154C127.912 332.254 127.282 332.284 126.652 332.234C125.982 332.184 125.472 332.054 125.122 331.844C124.762 331.644 124.562 331.384 124.492 331.064C124.432 330.744 124.522 330.374 124.742 329.954C124.972 329.524 125.322 329.084 125.812 328.584C126.082 328.314 126.392 328.044 126.712 327.784C127.052 327.514 127.412 327.274 127.802 327.034C128.192 326.804 128.602 326.584 129.022 326.394C129.462 326.204 129.912 326.034 130.362 325.914C130.822 325.784 131.292 325.684 131.772 325.624C132.262 325.564 132.742 325.554 133.212 325.594C133.662 325.634 134.042 325.694 134.322 325.804C134.632 325.904 134.842 326.044 135.002 326.204C135.162 326.354 135.272 326.534 135.312 326.744C135.352 326.944 135.342 327.164 135.272 327.394C135.222 327.624 135.112 327.864 134.962 328.114C134.802 328.364 134.622 328.614 134.392 328.874L135.762 328.984L138.532 326.194L139.692 326.284L133.442 332.594L132.282 332.504L135.032 329.724L133.662 329.624ZM126.152 329.734C125.982 330.064 125.912 330.354 125.932 330.594C125.962 330.844 126.102 331.044 126.342 331.194C126.592 331.354 126.942 331.454 127.382 331.484C127.842 331.524 128.312 331.494 128.812 331.394C129.302 331.304 129.782 331.154 130.262 330.944C130.742 330.734 131.202 330.474 131.652 330.174C132.112 329.874 132.532 329.524 132.902 329.154C133.282 328.764 133.562 328.414 133.722 328.094C133.892 327.764 133.962 327.474 133.922 327.234C133.892 326.984 133.742 326.794 133.512 326.634C133.282 326.484 132.932 326.384 132.482 326.354C131.962 326.314 131.452 326.334 130.962 326.434C130.452 326.534 129.992 326.674 129.522 326.884C129.052 327.094 128.602 327.354 128.182 327.654C127.772 327.954 127.362 328.304 126.972 328.684C126.622 329.054 126.332 329.404 126.152 329.734Z" fill="white"/>
<path d="M106.042 329.094L104.592 328.804L110.802 326.954L111.852 322.634L113.182 322.894L112.222 326.534L114.632 325.824L117.192 323.684L118.232 323.884L110.872 330.044L109.832 329.844L113.422 326.844L106.042 329.094Z" fill="white"/>
<path d="M106.792 322.384C106.762 322.344 106.722 322.314 106.682 322.264L106.522 322.154C106.462 322.124 106.402 322.104 106.332 322.084C106.192 322.044 106.032 322.034 105.882 322.034C105.732 322.044 105.592 322.064 105.432 322.094C105.282 322.134 105.132 322.174 104.992 322.234C104.842 322.294 104.712 322.364 104.582 322.434L101.342 328.054L100.202 327.764L102.952 323.124L95.942 326.664L94.842 326.384L102.972 322.444C103.512 322.194 104.002 321.974 104.412 321.794C104.842 321.614 105.202 321.484 105.532 321.384C105.872 321.294 106.182 321.234 106.462 321.234C106.752 321.214 107.032 321.254 107.322 321.334C107.472 321.374 107.592 321.424 107.692 321.494C107.792 321.564 107.852 321.634 107.852 321.704L106.842 322.484C106.842 322.464 106.822 322.424 106.792 322.384Z" fill="white"/>
<path d="M87.6521 323.964C87.5121 323.784 87.4421 323.594 87.4621 323.384C87.4921 323.174 87.6021 322.954 87.8121 322.704C88.0121 322.454 88.2921 322.214 88.6621 321.954C89.0321 321.694 89.3921 321.474 89.7821 321.284C90.1621 321.094 90.5521 320.964 90.9421 320.874C91.3421 320.774 91.7321 320.734 92.1121 320.744C92.5021 320.754 92.8821 320.814 93.2721 320.944L95.2421 321.584L98.6521 319.124L99.5721 319.424L91.3521 325.354L88.4621 324.404C88.0821 324.284 87.8121 324.134 87.6521 323.964ZM90.9921 321.584C90.5221 321.694 90.0621 321.914 89.5921 322.254C89.1221 322.594 88.8721 322.884 88.8421 323.134C88.8121 323.374 89.0421 323.584 89.5221 323.744L91.3921 324.354L94.2821 322.274L92.4121 321.664C91.9221 321.504 91.4421 321.474 90.9921 321.584Z" fill="white"/>
<path d="M87.5821 318.164C87.9221 317.834 88.1521 317.524 88.2621 317.244C88.3921 316.954 88.3922 316.714 88.3122 316.494C88.2222 316.274 88.0221 316.104 87.7121 315.974C87.4421 315.864 87.1421 315.804 86.7721 315.814C86.4321 315.814 86.0721 315.854 85.7021 315.934C85.3121 316.024 84.9521 316.134 84.5921 316.274C84.2321 316.424 83.8822 316.584 83.5622 316.764L82.7422 316.424C83.0122 316.264 83.3022 316.104 83.6222 315.954C83.9622 315.804 84.2921 315.674 84.6321 315.554C84.9821 315.434 85.3321 315.334 85.7021 315.254C86.0621 315.164 86.4221 315.104 86.7821 315.074C87.1321 315.044 87.4722 315.044 87.8022 315.094C88.1322 315.124 88.4321 315.194 88.7121 315.314C88.9021 315.394 89.0822 315.494 89.2422 315.624C89.4122 315.744 89.5422 315.904 89.6222 316.074C89.7222 316.244 89.7422 316.454 89.7322 316.674C89.7222 316.904 89.6221 317.164 89.4421 317.444C89.2721 317.724 88.9921 318.044 88.6421 318.374C88.2921 318.714 87.8121 319.084 87.2221 319.484C86.6421 319.874 86.0721 320.204 85.5321 320.484C84.9921 320.754 84.4822 320.974 83.9922 321.154C83.5122 321.324 83.0622 321.444 82.6222 321.524C82.1922 321.614 81.8022 321.654 81.4222 321.664C81.0622 321.674 80.7221 321.644 80.4121 321.604C80.1121 321.544 79.8422 321.474 79.6122 321.374C79.3222 321.254 79.1021 321.114 78.9421 320.974C78.7921 320.824 78.6822 320.664 78.6222 320.494C78.5822 320.324 78.5921 320.144 78.6321 319.964C78.6721 319.784 78.7421 319.604 78.8421 319.424C78.9421 319.244 79.0921 319.074 79.2621 318.904C79.4221 318.734 79.5921 318.584 79.7921 318.444L80.6222 318.784C80.4022 318.994 80.2222 319.194 80.1122 319.384C80.0022 319.574 79.9321 319.754 79.9521 319.914C79.9621 320.074 80.0022 320.224 80.1122 320.354C80.2322 320.484 80.3921 320.594 80.6021 320.684C80.9321 320.814 81.3022 320.884 81.7422 320.874C82.1522 320.874 82.6222 320.804 83.1122 320.684C83.6122 320.554 84.1221 320.374 84.6521 320.124C85.1821 319.874 85.7322 319.564 86.2522 319.214C86.8022 318.844 87.2421 318.494 87.5821 318.164Z" fill="white"/>
<path d="M77.7722 310.354L68.7322 315.944L67.9622 315.544L77.0022 309.954L77.7722 310.354ZM75.2422 315.084C74.9022 314.904 74.6622 314.714 74.5322 314.504C74.4022 314.294 74.3722 314.074 74.4322 313.854C74.4922 313.624 74.6522 313.394 74.8922 313.144C75.1422 312.904 75.4621 312.654 75.8821 312.394C76.2821 312.144 76.6922 311.944 77.0822 311.784C77.4922 311.624 77.9022 311.504 78.2822 311.444C78.6622 311.384 79.0422 311.364 79.3922 311.404C79.7422 311.444 80.0722 311.544 80.3522 311.694L82.8422 312.994L73.8022 318.584L73.0322 318.184L76.7621 315.874L75.2422 315.084ZM78.8922 312.224C78.6922 312.194 78.4921 312.184 78.2621 312.214C78.0421 312.244 77.7922 312.304 77.5422 312.394C77.2822 312.494 77.0121 312.634 76.7021 312.824C76.4021 313.014 76.1722 313.184 76.0322 313.334C75.8922 313.494 75.8222 313.644 75.7822 313.774C75.7822 313.904 75.8322 314.024 75.9222 314.144C76.0322 314.254 76.1822 314.364 76.3722 314.464L77.8322 315.224L81.0322 313.244L79.4122 312.394C79.2422 312.324 79.0822 312.264 78.8922 312.224Z" fill="white"/>
<path d="M67.3521 303.504L58.8921 308.144L61.4421 310.034L69.9021 305.394L70.5421 305.864L60.9621 311.124L57.1321 308.284L66.7121 303.024L67.3521 303.504Z" fill="white"/>
<path d="M56.8821 299.404C57.3421 299.224 57.7922 299.064 58.2522 298.944C58.7122 298.814 59.1521 298.714 59.5921 298.654C60.0321 298.594 60.4521 298.564 60.8421 298.584C61.2421 298.594 61.6022 298.654 61.9322 298.764C62.2622 298.874 62.5421 299.034 62.7721 299.244C63.0021 299.454 63.1421 299.694 63.2021 299.934C63.2521 300.174 63.2321 300.434 63.1321 300.704C63.0421 300.954 62.8922 301.234 62.6622 301.504C62.4522 301.784 62.1822 302.044 61.8722 302.304C61.5622 302.574 61.2121 302.824 60.8321 303.074C60.4521 303.314 60.0422 303.544 59.6222 303.764C58.8522 304.154 58.1221 304.464 57.3821 304.704C56.6521 304.934 55.9722 305.094 55.3522 305.164C54.7222 305.234 54.1521 305.214 53.6521 305.104C53.1321 304.994 52.7322 304.794 52.4122 304.494C52.0922 304.194 51.9321 303.864 51.9421 303.494C51.9321 303.134 52.0822 302.754 52.3622 302.364C52.6422 301.974 53.0622 301.574 53.6022 301.164C54.1522 300.754 54.7922 300.354 55.5622 299.964C55.9922 299.774 56.4321 299.574 56.8821 299.404ZM54.5921 301.424C54.1621 301.734 53.8321 302.044 53.5921 302.334C53.3621 302.634 53.2422 302.924 53.2322 303.184C53.2122 303.464 53.3222 303.704 53.5522 303.924C53.7822 304.144 54.0922 304.284 54.4822 304.354C54.8522 304.424 55.2821 304.434 55.7621 304.364C56.2421 304.304 56.7721 304.174 57.3321 303.984C57.8921 303.794 58.4722 303.544 59.0522 303.254C59.6522 302.944 60.1822 302.644 60.6022 302.344C61.0322 302.034 61.3722 301.734 61.6022 301.434C61.8422 301.134 61.9421 300.864 61.9721 300.584C61.9821 300.314 61.8622 300.064 61.6122 299.834C61.3622 299.604 61.0522 299.454 60.6722 299.374C60.2822 299.304 59.8621 299.294 59.3821 299.364C58.9021 299.434 58.3921 299.564 57.8421 299.764C57.3021 299.944 56.7222 300.204 56.1122 300.504C55.5422 300.804 55.0221 301.114 54.5921 301.424Z" fill="white"/>
<path d="M54.0721 289.654L45.0421 293.724L46.7221 296.044L55.7521 291.974L56.1721 292.554L45.9421 297.164L43.4121 293.684L53.6421 289.074L54.0721 289.654Z" fill="white"/>
<path d="M40.5422 288.334C40.6022 288.084 40.7222 287.844 40.9122 287.614C41.1022 287.384 41.3722 287.164 41.7222 286.944C42.0622 286.724 42.4522 286.524 42.9222 286.334C43.3822 286.144 43.8022 285.994 44.2222 285.904C44.6322 285.804 45.0022 285.764 45.3222 285.774C45.6622 285.784 45.9522 285.854 46.1922 285.974C46.4422 286.104 46.6322 286.294 46.7722 286.544L47.5022 287.874L51.8222 286.074L52.1622 286.694L41.7622 291.034L40.6922 289.084C40.5422 288.824 40.4922 288.574 40.5422 288.334ZM44.7322 286.604C44.3322 286.584 43.8422 286.704 43.2522 286.954C42.6622 287.204 42.2522 287.464 42.0122 287.744C41.7822 288.014 41.7522 288.314 41.9422 288.644L42.6322 289.904L46.2822 288.384L45.5922 287.124C45.4122 286.794 45.1222 286.614 44.7322 286.604Z" fill="white"/>
<path d="M43.5021 277.894C43.9721 277.764 44.4221 277.654 44.8721 277.594C45.3121 277.524 45.742 277.484 46.142 277.474C46.542 277.464 46.912 277.504 47.232 277.584C47.562 277.664 47.842 277.774 48.082 277.944C48.312 278.114 48.482 278.334 48.592 278.604C48.692 278.874 48.722 279.154 48.652 279.434C48.592 279.704 48.462 279.994 48.262 280.274C48.082 280.544 47.832 280.814 47.532 281.084C47.232 281.354 46.892 281.614 46.512 281.854C46.132 282.104 45.732 282.324 45.292 282.544C44.872 282.754 44.422 282.944 43.962 283.124C43.142 283.434 42.382 283.664 41.652 283.824C40.932 283.974 40.282 284.044 39.722 284.034C39.162 284.014 38.682 283.904 38.302 283.714C37.912 283.524 37.6521 283.234 37.5021 282.864C37.3621 282.494 37.362 282.094 37.522 281.694C37.672 281.294 37.962 280.904 38.362 280.514C38.762 280.124 39.3021 279.754 39.9321 279.384C40.5821 279.014 41.292 278.674 42.112 278.364C42.582 278.164 43.0421 278.014 43.5021 277.894ZM40.6821 279.774C40.1821 280.054 39.772 280.344 39.442 280.634C39.122 280.934 38.892 281.224 38.772 281.514C38.632 281.814 38.622 282.104 38.732 282.374C38.832 282.644 39.032 282.854 39.342 282.984C39.632 283.114 39.9921 283.184 40.4321 283.184C40.8721 283.184 41.3721 283.134 41.9321 283.004C42.4921 282.874 43.092 282.694 43.712 282.454C44.362 282.204 44.932 281.944 45.422 281.684C45.922 281.404 46.332 281.124 46.662 280.834C46.992 280.544 47.202 280.254 47.332 279.954C47.452 279.654 47.462 279.364 47.352 279.074C47.242 278.784 47.0421 278.564 46.7521 278.424C46.4521 278.294 46.102 278.214 45.662 278.214C45.222 278.214 44.732 278.294 44.172 278.424C43.632 278.544 43.032 278.734 42.382 278.984C41.762 279.234 41.1821 279.494 40.6821 279.774Z" fill="white"/>
<path d="M37.152 276.534L46.5421 273.224L46.712 273.904L36.072 277.654L35.322 274.644L36.5621 274.204L37.152 276.534Z" fill="white"/>
<path d="M34.6521 268.924C34.7921 268.664 34.9721 268.414 35.2221 268.194C35.4721 267.964 35.7821 267.754 36.1621 267.564C36.5421 267.364 36.9522 267.204 37.4322 267.044C37.9122 266.894 38.3321 266.784 38.7221 266.734C39.1221 266.674 39.4622 266.674 39.7422 266.724C40.0422 266.774 40.2721 266.884 40.4521 267.044C40.6321 267.214 40.7321 267.434 40.7721 267.734L40.9721 269.254L45.4121 267.814L45.5022 268.524L34.8122 271.994L34.5221 269.764C34.4921 269.454 34.5321 269.184 34.6521 268.924ZM38.9521 267.544C38.6021 267.484 38.1321 267.544 37.5221 267.744C36.9121 267.944 36.4621 268.174 36.1521 268.454C35.8621 268.714 35.7321 269.044 35.7821 269.424L35.9721 270.874L39.7221 269.654L39.5321 268.204C39.4921 267.824 39.2921 267.604 38.9521 267.544Z" fill="white"/>
<path d="M44.7521 257.304L44.7621 258.124L41.4821 259.674L41.5021 261.834L44.7921 261.484L44.8021 262.254L33.9021 263.384L33.8921 262.494L44.7521 257.304ZM40.3521 260.214L35.6021 262.444L40.3721 261.974L40.3521 260.214Z" fill="white"/>
<path d="M43.4721 252.544L34.6521 253.274L34.7721 252.174L45.4621 249.384L45.3821 250.094L36.3821 252.434V252.454L45.2021 251.714L45.1221 252.474L35.9521 256.424V256.444L44.9521 254.104L44.8721 254.814L34.1721 257.604L34.2921 256.504L43.4621 252.544H43.4721Z" fill="white"/>
<path d="M44.9621 243.924L36.4121 244.264L36.6721 243.134L47.2921 240.754L47.1221 241.494L38.1821 243.494V243.514L46.7321 243.164L46.5521 243.954L37.2321 247.614V247.634L46.1721 245.634L46.0021 246.374L35.3821 248.754L35.6521 247.624L44.9821 243.964L44.9621 243.924Z" fill="white"/>
<path d="M46.5222 237.174L39.0721 235.714L39.3922 234.784L49.9022 232.804L49.6222 233.614L41.0721 235.224L41.0622 235.244L48.5522 236.694L48.2322 237.624L37.7222 239.604L38.0022 238.794L46.5022 237.184L46.5222 237.174Z" fill="white"/>
<path d="M42.5621 227.714C42.8321 227.454 43.1221 227.214 43.4521 227.014C43.7821 226.814 44.1521 226.644 44.5621 226.504C44.9721 226.364 45.3921 226.264 45.8521 226.194C46.3121 226.124 46.7021 226.094 47.0421 226.124C47.3821 226.144 47.6521 226.214 47.8321 226.334C48.0321 226.454 48.1421 226.624 48.1821 226.844C48.2121 227.074 48.1621 227.344 48.0121 227.694L47.2321 229.454L51.5321 228.784L51.1721 229.604L40.8121 231.214L41.9521 228.634C42.1121 228.284 42.3121 227.984 42.5621 227.714ZM46.7221 227.084C46.4921 226.934 46.0821 226.914 45.4921 227.004C44.9021 227.094 44.4121 227.264 44.0121 227.504C43.6221 227.734 43.3321 228.084 43.1321 228.514L42.3921 230.194L46.0321 229.624L46.7721 227.944C46.9621 227.514 46.9421 227.224 46.7221 227.084Z" fill="white"/>
<path d="M53.9922 216.694C54.4022 216.694 54.7722 216.724 55.1022 216.784C55.4422 216.854 55.7322 216.934 55.9822 217.054C56.2322 217.174 56.4222 217.344 56.5422 217.534C56.6722 217.724 56.7422 217.954 56.7222 218.224C56.7122 218.494 56.6122 218.794 56.4222 219.144C56.2422 219.484 55.9922 219.814 55.7022 220.114C55.4122 220.404 55.0722 220.694 54.6922 220.944C54.3322 221.194 53.9322 221.424 53.5022 221.634C53.0722 221.844 52.6222 222.034 52.1722 222.184C51.7122 222.344 51.2622 222.474 50.7922 222.584C50.3422 222.684 49.8822 222.764 49.4522 222.814C48.6622 222.914 47.9922 222.924 47.4022 222.864C46.8222 222.804 46.3622 222.674 46.0322 222.474C45.7022 222.274 45.5122 221.994 45.4622 221.654C45.4022 221.304 45.5022 220.894 45.7622 220.414C46.0222 219.934 46.3822 219.484 46.8522 219.084C47.3122 218.674 47.8522 218.314 48.4622 218.004C49.0722 217.684 49.7422 217.434 50.4622 217.214C51.2022 216.994 51.9522 216.844 52.7422 216.744C53.1822 216.714 53.6022 216.684 53.9922 216.694ZM50.5422 217.944C49.9822 218.104 49.4622 218.304 48.9922 218.524C48.5222 218.754 48.1122 219.024 47.7722 219.324C47.4122 219.624 47.1422 219.954 46.9522 220.294C46.7622 220.644 46.6922 220.944 46.7622 221.194C46.8122 221.444 46.9722 221.644 47.2422 221.774C47.5122 221.924 47.8622 222.014 48.3222 222.044C48.7822 222.074 49.3222 222.064 49.9122 221.994C50.5322 221.924 51.1222 221.804 51.6722 221.664C52.2322 221.504 52.7522 221.314 53.2122 221.094C53.6722 220.874 54.0722 220.604 54.4322 220.304C54.7822 220.004 55.0522 219.674 55.2522 219.294C55.4522 218.924 55.5322 218.614 55.4822 218.354C55.4222 218.104 55.2722 217.904 55.0022 217.764C54.7322 217.624 54.3622 217.544 53.9022 217.524C53.4622 217.484 52.9122 217.514 52.2922 217.584C51.6922 217.664 51.1022 217.784 50.5422 217.944Z" fill="white"/>
<path d="M51.5521 211.084C51.6921 210.894 51.8521 210.724 52.0221 210.544C52.1821 210.394 52.3821 210.234 52.5921 210.084C52.8021 209.944 53.0421 209.814 53.3021 209.694C53.5621 209.574 53.8521 209.474 54.1321 209.394C54.4321 209.324 54.7421 209.264 55.0721 209.234C55.2421 209.224 55.4221 209.224 55.6021 209.234C55.7721 209.254 55.9421 209.284 56.0921 209.324C56.2421 209.374 56.3721 209.444 56.4521 209.544C56.5621 209.634 56.6021 209.754 56.6121 209.904C56.7621 209.764 56.9421 209.624 57.1421 209.484C57.3521 209.344 57.5821 209.204 57.8521 209.074C58.1121 208.954 58.4021 208.844 58.7121 208.744C59.0321 208.654 59.3921 208.584 59.7621 208.554C59.9821 208.534 60.1921 208.534 60.4021 208.544C60.6321 208.554 60.8121 208.594 60.9821 208.644C61.1521 208.704 61.3021 208.784 61.4221 208.884C61.5421 208.984 61.6221 209.104 61.6621 209.254C61.7121 209.404 61.7021 209.584 61.6521 209.784C61.6021 209.984 61.4921 210.234 61.3121 210.504L59.6221 213.164L49.6821 213.994L51.1121 211.744C51.2721 211.494 51.4221 211.274 51.5521 211.084ZM60.3821 210.044C60.4121 209.864 60.4021 209.724 60.3121 209.614C60.2421 209.514 60.1021 209.444 59.9321 209.414C59.7621 209.374 59.5421 209.374 59.2721 209.394C59.0021 209.414 58.7521 209.464 58.5121 209.534C58.2721 209.604 58.0321 209.694 57.8021 209.824C57.5721 209.964 57.3621 210.114 57.1621 210.304C56.9521 210.504 56.7721 210.734 56.6021 211.004L55.5221 212.694L58.9821 212.404L60.0621 210.714C60.2421 210.454 60.3421 210.234 60.3821 210.044ZM55.7521 210.564C55.7721 210.404 55.7321 210.284 55.6521 210.194C55.5721 210.114 55.4421 210.074 55.2721 210.054C55.0921 210.044 54.9021 210.044 54.6821 210.064C54.4421 210.084 54.2321 210.114 54.0221 210.174C53.8121 210.244 53.6121 210.324 53.4221 210.444C53.2221 210.554 53.0321 210.704 52.8721 210.874C52.7021 211.044 52.5321 211.254 52.3821 211.484L51.3821 213.054L54.4521 212.794L55.4521 211.224C55.6321 210.944 55.7221 210.734 55.7521 210.564Z" fill="white"/>
<path d="M68.5421 200.094L67.8621 201.034L64.4121 201.844L62.6121 204.334L65.0621 204.904L64.4121 205.794L56.3021 203.874L57.0421 202.854L68.5421 200.094ZM63.2121 202.124L58.2121 203.284L61.7421 204.154L63.2121 202.124Z" fill="white"/>
<path d="M68.652 193.094L64.782 193.114L65.472 192.264L74.8521 192.204L74.162 193.054L69.7521 193.084L67.0021 196.464L71.412 196.434L70.722 197.284L61.342 197.344L62.032 196.494L65.902 196.474L68.652 193.094Z" fill="white"/>
<path d="M76.7922 187.954L72.4122 184.454L73.3022 183.474L82.3322 183.814L81.5622 184.664L74.2122 184.384L74.1921 184.404L78.6122 187.904L77.7222 188.884L68.6921 188.544L69.4622 187.694L76.7722 187.974L76.7922 187.954Z" fill="white"/>
<path d="M82.5021 178.234C81.9321 178.154 81.472 178.014 81.132 177.824C80.782 177.634 80.572 177.394 80.472 177.124C80.372 176.844 80.402 176.524 80.572 176.144C80.732 175.774 81.052 175.364 81.512 174.904C82.002 174.424 82.542 174.004 83.142 173.654C83.742 173.294 84.362 173.014 85.012 172.804C85.662 172.584 86.332 172.444 87.012 172.364C87.712 172.284 88.3721 172.274 89.0421 172.344C89.4121 172.374 89.762 172.444 90.072 172.514C90.392 172.604 90.662 172.714 90.882 172.844C91.112 172.984 91.292 173.144 91.412 173.324C91.532 173.514 91.582 173.734 91.572 173.974C91.562 174.214 91.4721 174.484 91.3121 174.774C91.1421 175.074 90.882 175.394 90.532 175.734C90.202 176.054 89.8521 176.354 89.4821 176.604C89.1121 176.864 88.712 177.094 88.322 177.284C87.932 177.474 87.5221 177.654 87.1021 177.784C86.6821 177.914 86.2721 178.034 85.8621 178.114C85.4421 178.214 85.042 178.264 84.642 178.294C84.242 178.324 83.8621 178.334 83.5021 178.324L82.4921 179.314L86.3021 179.664L85.452 180.504L76.8521 179.704L77.702 178.864L81.4821 179.214L82.5021 178.234ZM86.632 173.184C86.092 173.254 85.582 173.354 85.082 173.514C84.582 173.664 84.1121 173.874 83.6821 174.124C83.2221 174.384 82.842 174.674 82.512 174.994C82.172 175.324 81.9521 175.634 81.8721 175.914C81.7721 176.194 81.782 176.444 81.902 176.654C82.022 176.864 82.252 177.044 82.592 177.174C82.912 177.324 83.342 177.414 83.842 177.464C84.372 177.514 84.9021 177.504 85.4321 177.434C85.9721 177.364 86.4821 177.264 86.9921 177.094C87.4921 176.934 87.952 176.734 88.392 176.484C88.822 176.244 89.202 175.954 89.532 175.634C89.912 175.254 90.162 174.924 90.262 174.644C90.362 174.354 90.352 174.114 90.222 173.914C90.092 173.714 89.8521 173.544 89.5021 173.424C89.1621 173.304 88.732 173.214 88.202 173.174C87.692 173.134 87.162 173.134 86.632 173.184Z" fill="white"/>
<path d="M98.1621 160.054L99.5121 158.904L99.6921 162.054L107.492 160.264L106.252 161.324L99.7221 162.784L99.7821 164.004L102.532 164.504L101.562 165.334L93.6621 163.904L94.6321 163.074L98.4821 163.774L98.1621 160.054Z" fill="white"/>
<path d="M110.742 156.674C110.842 156.634 110.922 156.584 111.032 156.534L111.332 156.364C111.422 156.304 111.502 156.254 111.582 156.194C111.732 156.074 111.852 155.964 111.922 155.854C111.992 155.764 112.032 155.674 112.042 155.584C112.042 155.504 112.042 155.434 112.002 155.364C111.962 155.304 111.902 155.254 111.842 155.204L102.712 156.264L103.912 155.314L111.402 154.494L108.382 151.784L109.542 150.864L112.722 154.114C112.912 154.334 113.072 154.544 113.202 154.714C113.322 154.894 113.382 155.064 113.372 155.244C113.362 155.424 113.302 155.604 113.162 155.794C113.032 155.984 112.802 156.194 112.502 156.434C112.342 156.564 112.172 156.674 111.982 156.784C111.792 156.894 111.622 156.974 111.482 157.014L110.512 156.784C110.562 156.754 110.652 156.714 110.742 156.674Z" fill="white"/>
<path d="M118.162 144.584C118.582 144.384 118.992 144.224 119.382 144.124C119.772 144.024 120.142 143.974 120.502 143.974C120.872 143.964 121.182 144.024 121.502 144.114C121.812 144.214 122.042 144.324 122.182 144.484C122.332 144.634 122.392 144.814 122.352 145.034C122.322 145.244 122.192 145.494 121.972 145.754C121.742 146.024 121.402 146.324 120.952 146.654L118.622 148.364L121.522 149.254L120.442 150.054L113.442 147.904L116.852 145.394C117.302 145.054 117.742 144.794 118.162 144.584ZM120.942 145.474C120.992 145.214 120.812 145.034 120.412 144.914C120.012 144.794 119.582 144.794 119.112 144.914C118.662 145.034 118.132 145.304 117.562 145.734L115.352 147.364L117.812 148.114L120.022 146.484C120.592 146.054 120.902 145.714 120.942 145.474Z" fill="white"/>
<path d="M129.442 141.164C129.902 141.204 130.372 141.184 130.842 141.094C131.322 141.014 131.792 140.874 132.262 140.694C132.732 140.504 133.172 140.274 133.592 139.984C133.962 139.734 134.232 139.494 134.422 139.254C134.612 139.024 134.732 138.804 134.772 138.604C134.812 138.394 134.802 138.204 134.732 138.044C134.642 137.884 134.532 137.734 134.352 137.634L135.452 136.884C135.622 136.974 135.762 137.084 135.872 137.214C135.972 137.354 136.062 137.504 136.102 137.674C136.142 137.844 136.142 138.024 136.102 138.224C136.072 138.414 135.992 138.624 135.862 138.854C135.722 139.074 135.532 139.314 135.272 139.554C135.032 139.794 134.732 140.044 134.352 140.304C134.092 140.484 133.802 140.664 133.462 140.844C133.132 141.034 132.762 141.204 132.372 141.364C131.982 141.534 131.572 141.664 131.142 141.794C130.702 141.914 130.262 142.004 129.812 142.044C129.362 142.084 128.902 142.084 128.452 142.034C127.992 141.994 127.532 141.884 127.092 141.714C126.662 141.544 126.322 141.354 126.082 141.144C125.842 140.934 125.702 140.714 125.632 140.484C125.572 140.254 125.582 140.014 125.662 139.774C125.732 139.534 125.862 139.294 126.042 139.044C126.232 138.804 126.462 138.554 126.712 138.324C126.992 138.084 127.282 137.854 127.592 137.644C127.982 137.374 128.372 137.144 128.742 136.954C129.122 136.764 129.492 136.594 129.852 136.454C130.212 136.324 130.552 136.224 130.872 136.154C131.202 136.074 131.512 136.014 131.792 135.984C132.072 135.954 132.332 135.954 132.572 135.964C132.802 135.974 133.002 136.004 133.172 136.054L132.052 136.814C131.772 136.784 131.472 136.784 131.172 136.814C130.872 136.844 130.552 136.904 130.232 137.014C129.922 137.114 129.602 137.234 129.292 137.374C128.972 137.534 128.672 137.704 128.382 137.904C127.942 138.204 127.612 138.494 127.382 138.784C127.152 139.064 127.022 139.344 127.002 139.604C126.992 139.864 127.062 140.104 127.252 140.324C127.442 140.544 127.742 140.734 128.142 140.884C128.542 141.034 128.992 141.124 129.442 141.164Z" fill="white"/>
<path d="M149.952 129.964L144.062 127.064L145.262 126.314L151.152 129.214L149.952 129.964ZM142.152 130.994C142.692 130.654 143.192 130.384 143.672 130.174C144.152 129.964 144.592 129.814 144.992 129.734C145.402 129.644 145.772 129.614 146.102 129.644C146.442 129.674 146.742 129.744 147.012 129.884C147.272 130.014 147.452 130.174 147.532 130.354C147.622 130.534 147.622 130.744 147.532 130.974C147.442 131.194 147.262 131.444 147.002 131.704C146.732 131.964 146.362 132.244 145.912 132.524L142.032 134.964L136.142 132.064L137.342 131.314L139.772 132.514L142.152 130.994ZM145.702 131.814C145.872 131.664 145.992 131.524 146.072 131.384C146.142 131.254 146.162 131.114 146.112 130.994C146.072 130.874 145.942 130.774 145.742 130.674C145.542 130.574 145.342 130.524 145.122 130.514C144.892 130.514 144.642 130.544 144.392 130.604C144.142 130.674 143.872 130.784 143.592 130.914C143.312 131.054 143.022 131.224 142.722 131.404L140.452 132.834L142.532 133.864L145.062 132.274C145.312 132.114 145.522 131.964 145.702 131.814Z" fill="white"/>
<path d="M168.942 118.904L164.582 115.844L159.522 118.674L163.882 121.734L162.612 122.444L157.672 118.974L165.272 114.724L170.212 118.194L168.942 118.904Z" fill="white"/>
<path d="M182.602 109.414C182.702 109.624 182.762 109.834 182.752 110.074C182.742 110.314 182.692 110.554 182.582 110.824C182.462 111.084 182.282 111.364 182.022 111.634C181.772 111.914 181.462 112.194 181.072 112.474C180.682 112.764 180.222 113.044 179.672 113.324C179.142 113.604 178.602 113.834 178.092 114.014C177.592 114.184 177.102 114.324 176.642 114.414C176.202 114.504 175.762 114.554 175.352 114.564C174.932 114.574 174.562 114.554 174.232 114.494C173.882 114.434 173.592 114.344 173.302 114.234C173.042 114.114 172.812 113.974 172.622 113.814C172.282 113.514 172.092 113.194 172.032 112.834C171.972 112.474 172.052 112.104 172.242 111.724C172.452 111.334 172.802 110.934 173.282 110.534C173.772 110.124 174.382 109.724 175.132 109.334C175.882 108.944 176.622 108.634 177.322 108.434C178.032 108.214 178.682 108.104 179.282 108.064C179.892 108.024 180.432 108.084 180.922 108.214C181.422 108.354 181.832 108.554 182.172 108.854C182.372 109.014 182.522 109.204 182.602 109.414ZM179.932 109.024C179.562 108.914 179.142 108.864 178.702 108.874C178.242 108.894 177.752 108.974 177.252 109.124C176.722 109.274 176.192 109.484 175.642 109.774C175.092 110.054 174.642 110.344 174.302 110.654C173.962 110.944 173.712 111.244 173.582 111.534C173.442 111.824 173.392 112.114 173.462 112.384C173.532 112.654 173.682 112.904 173.942 113.134C174.202 113.364 174.512 113.544 174.862 113.654C175.232 113.764 175.632 113.814 176.072 113.804C176.512 113.794 177.002 113.704 177.512 113.564C178.032 113.414 178.582 113.184 179.172 112.884C179.762 112.584 180.222 112.284 180.572 111.984C180.922 111.674 181.172 111.384 181.302 111.104C181.432 110.814 181.452 110.544 181.372 110.284C181.312 110.024 181.142 109.774 180.872 109.544C180.622 109.314 180.302 109.144 179.932 109.024Z" fill="white"/>
<path d="M203.042 101.844L200.102 98.0641L194.682 100.554L197.622 104.334L196.262 104.964L192.932 100.684L201.072 96.9442L204.402 101.224L203.042 101.844Z" fill="white"/>
<path d="M213.012 91.884C213.462 91.784 213.852 91.724 214.202 91.724C214.542 91.724 214.832 91.774 215.062 91.884C215.302 91.984 215.472 92.144 215.592 92.344C215.712 92.544 215.762 92.754 215.712 92.974C215.682 93.194 215.562 93.424 215.352 93.654C215.152 93.894 214.852 94.124 214.492 94.364C214.112 94.604 213.642 94.844 213.062 95.094L210.092 96.364L211.212 98.254L209.822 98.844L207.112 94.284L211.472 92.434C212.042 92.174 212.552 91.994 213.012 91.884ZM214.052 93.734C214.302 93.454 214.342 93.184 214.192 92.924C214.042 92.664 213.762 92.534 213.342 92.534C212.942 92.534 212.372 92.694 211.632 93.004L208.802 94.204L209.752 95.804L212.582 94.604C213.322 94.304 213.812 94.004 214.052 93.734Z" fill="white"/>
<path d="M231.622 87.834C231.622 88.074 231.572 88.324 231.462 88.584C231.352 88.844 231.202 89.104 230.992 89.374C230.782 89.644 230.502 89.914 230.172 90.184C229.842 90.454 229.462 90.714 229.002 90.974C228.542 91.234 228.032 91.474 227.452 91.704C226.882 91.924 226.322 92.104 225.812 92.224C225.312 92.344 224.832 92.414 224.402 92.444C223.992 92.474 223.592 92.464 223.242 92.414C222.882 92.364 222.572 92.284 222.312 92.164C222.042 92.054 221.832 91.904 221.632 91.734C221.462 91.564 221.322 91.374 221.242 91.164C221.082 90.784 221.052 90.404 221.152 89.994C221.252 89.594 221.472 89.194 221.812 88.804C222.162 88.414 222.622 88.024 223.202 87.654C223.792 87.274 224.482 86.934 225.292 86.614C226.102 86.294 226.852 86.074 227.542 85.954C228.242 85.824 228.842 85.794 229.372 85.844C229.902 85.894 230.342 86.034 230.712 86.254C231.082 86.474 231.342 86.764 231.502 87.144C231.592 87.374 231.632 87.594 231.622 87.834ZM229.512 87.014C229.252 86.834 228.912 86.724 228.532 86.674C228.132 86.624 227.682 86.644 227.192 86.734C226.682 86.814 226.132 86.974 225.552 87.204C224.962 87.434 224.462 87.684 224.032 87.974C223.622 88.244 223.282 88.534 223.042 88.834C222.792 89.134 222.632 89.444 222.572 89.744C222.512 90.054 222.542 90.354 222.662 90.634C222.792 90.934 222.972 91.174 223.222 91.344C223.482 91.524 223.812 91.644 224.192 91.694C224.572 91.744 225.022 91.724 225.522 91.644C226.032 91.554 226.592 91.394 227.222 91.144C227.852 90.894 228.372 90.634 228.802 90.364C229.232 90.084 229.572 89.794 229.802 89.504C230.032 89.214 230.162 88.914 230.212 88.614C230.272 88.314 230.232 88.014 230.102 87.724C229.972 87.434 229.772 87.194 229.512 87.014Z" fill="white"/>
<path d="M237.742 82.7341L239.012 87.1941L237.592 87.7041L236.152 82.644L242.392 80.394L242.562 80.9841L237.742 82.7341Z" fill="white"/>
<path d="M253.872 76.614C254.302 76.554 254.672 76.544 254.982 76.574C255.282 76.614 255.522 76.704 255.692 76.854C255.872 76.994 255.962 77.184 256.002 77.414C256.042 77.644 256.012 77.874 255.892 78.114C255.792 78.344 255.612 78.584 255.342 78.804C255.082 79.034 254.742 79.254 254.342 79.474C253.922 79.694 253.422 79.894 252.832 80.094L249.772 81.114L250.132 83.294L248.702 83.764L247.842 78.504L252.332 77.014C252.912 76.814 253.422 76.684 253.872 76.614ZM254.172 78.744C254.492 78.474 254.612 78.184 254.562 77.884C254.512 77.584 254.312 77.414 253.942 77.364C253.592 77.314 253.022 77.424 252.272 77.674L249.362 78.644L249.662 80.484L252.572 79.514C253.332 79.274 253.872 79.004 254.172 78.744Z" fill="white"/>
<path d="M270.852 76.744L269.252 77.224L268.042 75.894L263.832 77.164L262.712 79.194L261.202 79.654L264.982 72.904L266.712 72.384L270.852 76.744ZM267.622 75.444L265.892 73.514L264.192 76.484L267.622 75.444Z" fill="white"/>
<path d="M280.752 73.124L284.162 67.554L286.222 67.004L285.762 72.654L284.422 73.014L284.812 68.254L284.782 68.264L281.382 73.834L279.952 74.214L277.332 70.264L277.302 70.274L276.912 75.034L275.572 75.394L276.032 69.744L278.092 69.194L280.732 73.134L280.752 73.124Z" fill="white"/>
<path d="M296.642 69.1341L300.662 63.524L302.712 63.0441L301.512 68.8841L300.182 69.1941L301.192 64.2841L301.162 64.2941L297.162 69.9041L295.742 70.2341L293.762 66.0141L293.732 66.024L292.722 70.9341L291.392 71.244L292.592 65.4041L294.642 64.9241L296.642 69.1341V69.1341Z" fill="white"/>
<path d="M308.892 66.274L315.792 60.364L317.422 60.0441L315.512 66.0341L314.102 66.3141L315.652 61.4441L315.622 61.4541L308.712 67.3841L307.082 67.7041L308.992 61.7141L310.402 61.4341L308.862 66.2841L308.892 66.274Z" fill="white"/>
<path d="M329.382 58.094C329.752 58.124 330.042 58.184 330.262 58.294C330.482 58.404 330.602 58.554 330.632 58.754C330.682 58.954 330.642 59.184 330.532 59.454C330.422 59.724 330.262 59.974 330.022 60.224C329.802 60.464 329.522 60.684 329.182 60.884C328.842 61.094 328.442 61.264 328.002 61.414C327.542 61.564 327.032 61.694 326.452 61.784L323.472 62.274L322.412 64.814L321.022 65.044L323.572 58.934L327.952 58.214C328.522 58.124 329.002 58.084 329.382 58.094ZM328.312 60.564C328.722 60.324 328.992 60.034 329.142 59.684C329.292 59.334 329.242 59.094 328.982 58.964C328.742 58.834 328.242 58.834 327.502 58.954L324.662 59.424L323.772 61.564L326.612 61.094C327.352 60.974 327.922 60.794 328.312 60.564Z" fill="white"/>
<path d="M344.482 59.474C344.262 59.754 344.002 60.024 343.692 60.284C343.382 60.554 343.052 60.804 342.672 61.044C342.292 61.284 341.872 61.514 341.432 61.704C340.982 61.904 340.502 62.084 339.992 62.234C339.482 62.384 338.942 62.494 338.372 62.564C337.812 62.634 337.312 62.664 336.882 62.634C336.472 62.604 336.102 62.544 335.812 62.434C335.532 62.334 335.302 62.194 335.132 62.024C334.952 61.854 334.842 61.654 334.792 61.434C334.732 61.214 334.732 60.984 334.772 60.724C334.822 60.474 334.912 60.214 335.052 59.944C335.302 59.464 335.642 59.014 336.072 58.574C336.502 58.144 337.012 57.754 337.572 57.424C338.142 57.084 338.792 56.794 339.482 56.554C340.192 56.304 340.932 56.144 341.712 56.034C342.492 55.934 343.172 55.914 343.692 56.004C344.242 56.074 344.632 56.234 344.912 56.464C345.192 56.694 345.322 57.004 345.352 57.364C345.372 57.744 345.262 58.154 345.012 58.644C344.892 58.934 344.712 59.204 344.482 59.474ZM343.952 57.854C343.952 57.564 343.852 57.324 343.672 57.144C343.472 56.964 343.182 56.834 342.802 56.774C342.412 56.704 341.932 56.714 341.362 56.784C340.792 56.854 340.252 56.984 339.722 57.174C339.222 57.354 338.742 57.574 338.332 57.834C337.902 58.104 337.522 58.394 337.202 58.734C336.882 59.064 336.622 59.424 336.432 59.784C336.232 60.164 336.132 60.504 336.112 60.784C336.112 61.074 336.202 61.314 336.382 61.504C336.562 61.694 336.862 61.804 337.242 61.874C337.632 61.934 338.132 61.924 338.742 61.844C339.352 61.764 339.912 61.634 340.432 61.454C340.952 61.264 341.422 61.054 341.842 60.784C342.252 60.524 342.612 60.224 342.912 59.894C343.222 59.574 343.472 59.214 343.672 58.834C343.852 58.474 343.942 58.144 343.952 57.854Z" fill="white"/>
<path d="M356.682 54.5741C356.962 54.5641 357.222 54.5641 357.462 54.5841C357.672 54.6041 357.872 54.6441 358.042 54.7041C358.202 54.7641 358.322 54.8541 358.412 54.9541C358.502 55.0641 358.542 55.1941 358.542 55.3441C358.522 55.5041 358.472 55.6841 358.342 55.8941C358.282 55.9941 358.172 56.1241 358.062 56.2541C357.932 56.3841 357.782 56.5141 357.612 56.6441C357.422 56.7741 357.232 56.9041 356.992 57.0141C356.752 57.1441 356.502 57.2441 356.202 57.3341C356.382 57.3541 356.552 57.4041 356.722 57.4541C356.882 57.5141 357.022 57.5941 357.122 57.6941C357.212 57.8041 357.262 57.9341 357.282 58.0941C357.282 58.2541 357.212 58.4641 357.072 58.7041C356.982 58.8441 356.872 58.9841 356.742 59.1341C356.592 59.2941 356.422 59.4441 356.232 59.5841C356.022 59.7341 355.792 59.8841 355.532 60.0241C355.272 60.1641 354.992 60.2841 354.682 60.4041C354.362 60.5241 354.022 60.6241 353.662 60.7041C353.292 60.7841 352.892 60.8541 352.462 60.8941L348.242 61.2841L352.082 55.0041L355.662 54.6741C356.052 54.6141 356.392 54.5841 356.682 54.5741ZM355.392 57.1241C355.692 57.0441 355.942 56.9441 356.152 56.8441C356.342 56.7441 356.502 56.6341 356.632 56.5041C356.752 56.3741 356.862 56.2441 356.942 56.1041C357.032 55.9541 357.082 55.8241 357.082 55.7241C357.072 55.6141 357.012 55.5341 356.892 55.4741C356.792 55.4041 356.612 55.3641 356.362 55.3541C356.122 55.3341 355.822 55.3341 355.442 55.3741L352.952 55.6041L351.762 57.5441L354.252 57.3141C354.722 57.2541 355.082 57.1941 355.392 57.1241ZM353.862 59.9641C354.182 59.8841 354.462 59.7941 354.722 59.6741C354.952 59.5741 355.152 59.4341 355.322 59.2941C355.482 59.1541 355.622 59.0041 355.722 58.8341C355.822 58.6641 355.872 58.5241 355.872 58.4041C355.872 58.2841 355.822 58.1741 355.692 58.0941C355.552 58.0141 355.362 57.9641 355.102 57.9441C354.832 57.9241 354.482 57.9241 354.052 57.9641L351.362 58.2141L350.022 60.3941L352.712 60.1441C353.152 60.1041 353.532 60.0441 353.862 59.9641Z" fill="white"/>
<path d="M368.692 59.744L367.242 59.8241L367.572 57.9441L363.742 58.1641L361.302 60.1641L359.932 60.244L368.082 53.6241L369.662 53.5341L368.692 59.744ZM367.672 57.2941L368.162 54.5741L364.552 57.4741L367.672 57.2941Z" fill="white"/>
<path d="M382.172 55.764L384.242 53.154L385.502 53.134L380.472 59.474L379.202 59.494L381.572 56.504L376.542 56.584L374.172 59.574L372.902 59.594L377.932 53.254L379.202 53.234L377.132 55.844L382.172 55.764Z" fill="white"/>
<path d="M387.702 58.3141L396.882 53.304L398.292 53.3441L392.682 59.6841L391.462 59.6541L396.022 54.494H395.992L386.792 59.524L385.382 59.4841L390.992 53.144L392.212 53.1741L387.672 58.304L387.702 58.3141Z" fill="white"/>
<path d="M403.422 56.554C403.892 56.114 404.412 55.724 404.982 55.384C405.532 55.044 406.112 54.754 406.712 54.524C407.302 54.294 407.912 54.124 408.552 54.024C409.172 53.924 409.802 53.894 410.432 53.944C411.102 53.994 411.612 54.124 411.962 54.334C412.322 54.534 412.522 54.794 412.592 55.114C412.652 55.434 412.562 55.804 412.342 56.224C412.112 56.654 411.762 57.094 411.282 57.594C411.012 57.864 410.702 58.134 410.382 58.394C410.042 58.664 409.682 58.904 409.292 59.144C408.902 59.374 408.492 59.594 408.072 59.784C407.632 59.974 407.182 60.144 406.732 60.264C406.272 60.394 405.802 60.494 405.322 60.554C404.832 60.614 404.352 60.624 403.882 60.584C403.432 60.544 403.052 60.484 402.772 60.374C402.462 60.274 402.252 60.134 402.092 59.974C401.932 59.824 401.822 59.644 401.782 59.434C401.742 59.224 401.752 59.014 401.822 58.784C401.872 58.554 401.982 58.314 402.132 58.064C402.292 57.814 402.472 57.564 402.702 57.304L401.332 57.194L398.562 59.984L397.402 59.894L403.652 53.584L404.812 53.674L402.062 56.454L403.422 56.554ZM410.932 56.434C411.102 56.104 411.172 55.814 411.152 55.574C411.122 55.324 410.982 55.124 410.742 54.974C410.492 54.814 410.142 54.714 409.702 54.684C409.242 54.644 408.772 54.674 408.272 54.774C407.782 54.864 407.302 55.014 406.822 55.224C406.342 55.434 405.882 55.694 405.432 55.994C404.972 56.294 404.552 56.644 404.182 57.014C403.802 57.404 403.522 57.754 403.362 58.074C403.192 58.404 403.122 58.694 403.162 58.934C403.192 59.184 403.342 59.374 403.572 59.534C403.802 59.684 404.152 59.784 404.602 59.814C405.122 59.854 405.632 59.834 406.122 59.734C406.632 59.634 407.092 59.494 407.562 59.284C408.032 59.074 408.482 58.814 408.902 58.514C409.312 58.214 409.722 57.864 410.112 57.484C410.462 57.124 410.752 56.764 410.932 56.434Z" fill="white"/>
<defs>
<linearGradient id="paint0_linear_56_724" x1="227.423" y1="88.5145" x2="308.921" y2="298.58" gradientUnits="userSpaceOnUse">
<stop stop-color="#3D0052"/>
<stop offset="1" stop-color="white" stop-opacity="0"/>
</linearGradient>
</defs>
</svg>
