<svg width="905" height="1030" viewBox="0 0 905 1030" fill="none" xmlns="http://www.w3.org/2000/svg">
<path d="M764.152 622.034C841.591 397.16 764.696 166.765 592.401 107.432C420.106 48.0989 217.656 182.296 140.216 407.17C62.777 632.044 139.673 862.439 311.968 921.772C484.263 981.105 686.713 846.907 764.152 622.034Z" stroke="url(#paint0_linear_56_1306)" stroke-width="50" stroke-miterlimit="10"/>
<path d="M140.922 380.034L142.302 376.544L144.892 386.784L156.422 382.424L155.162 385.624L145.482 389.144L146.482 393.114L151.372 395.234L150.382 397.734L136.342 391.654L137.332 389.154L144.172 392.124L140.922 380.034Z" fill="white"/>
<path d="M159.152 371.424C159.282 371.304 159.382 371.164 159.522 371.024L159.882 370.524C159.982 370.354 160.082 370.184 160.162 370.014C160.322 369.654 160.432 369.304 160.482 368.984C160.522 368.694 160.532 368.414 160.492 368.134C160.442 367.884 160.382 367.634 160.272 367.424C160.162 367.204 160.022 367.044 159.892 366.874L145.662 368.614L146.942 365.764L158.652 364.484L151.712 355.144L152.942 352.394L160.522 363.494C161.002 364.254 161.412 364.944 161.742 365.524C162.072 366.144 162.292 366.694 162.412 367.264C162.532 367.834 162.552 368.414 162.452 368.994C162.372 369.584 162.162 370.224 161.842 370.934C161.672 371.314 161.472 371.654 161.242 371.974C161.012 372.294 160.782 372.524 160.592 372.644L158.832 371.714C158.912 371.644 159.032 371.544 159.152 371.424Z" fill="white"/>
<path d="M162.552 333.604C163.102 333.034 163.662 332.604 164.222 332.334C164.792 332.074 165.362 331.974 165.952 332.044C166.552 332.094 167.112 332.314 167.692 332.684C168.272 333.054 168.732 333.474 169.082 334.024C169.442 334.544 169.672 335.144 169.752 335.824C169.862 336.514 169.812 337.274 169.642 338.084C169.462 338.924 169.122 339.824 168.622 340.814L166.042 345.934L171.462 349.364L170.262 351.744L157.202 343.494L160.982 335.994C161.492 334.994 162.012 334.204 162.552 333.604ZM167.782 337.004C167.672 336.184 167.242 335.554 166.502 335.084C165.752 334.614 165.052 334.534 164.362 334.844C163.702 335.144 163.042 335.944 162.402 337.204L159.952 342.074L164.532 344.974L166.992 340.104C167.622 338.834 167.882 337.784 167.782 337.004Z" fill="white"/>
<path d="M178.612 324.644C179.392 324.844 180.142 324.864 180.862 324.684C181.602 324.514 182.272 324.164 182.912 323.644C183.552 323.124 184.112 322.444 184.582 321.604C185.002 320.854 185.282 320.144 185.412 319.384C185.552 318.664 185.592 317.974 185.512 317.334C185.422 316.654 185.272 316.054 185.032 315.504C184.772 314.964 184.472 314.474 184.102 314.084L185.372 311.844C185.712 312.164 186.022 312.534 186.312 312.984C186.582 313.464 186.832 313.954 187.012 314.504C187.192 315.054 187.332 315.634 187.422 316.284C187.522 316.904 187.532 317.574 187.482 318.284C187.412 318.984 187.272 319.704 187.032 320.444C186.822 321.174 186.492 321.924 186.052 322.694C185.752 323.224 185.402 323.754 184.972 324.294C184.562 324.844 184.082 325.344 183.562 325.774C183.052 326.244 182.472 326.604 181.852 326.924C181.222 327.244 180.552 327.424 179.852 327.484C179.152 327.544 178.382 327.454 177.602 327.214C176.812 326.994 175.972 326.544 175.122 325.914C174.292 325.294 173.592 324.594 173.052 323.884C172.512 323.174 172.112 322.434 171.832 321.674C171.562 320.924 171.402 320.154 171.352 319.364C171.292 318.594 171.322 317.834 171.442 317.064C171.572 316.304 171.772 315.564 172.022 314.854C172.302 314.134 172.622 313.454 172.972 312.824C173.422 312.034 173.902 311.354 174.362 310.814C174.852 310.254 175.332 309.794 175.822 309.404C176.312 309.054 176.802 308.804 177.282 308.614C177.762 308.424 178.232 308.294 178.672 308.254C179.122 308.214 179.542 308.254 179.932 308.344C180.332 308.434 180.672 308.554 180.982 308.754L179.702 311.014C179.222 310.864 178.732 310.804 178.252 310.854C177.772 310.904 177.302 311.034 176.852 311.314C176.412 311.564 175.982 311.894 175.572 312.314C175.172 312.764 174.782 313.264 174.462 313.844C173.962 314.734 173.632 315.624 173.462 316.524C173.292 317.394 173.292 318.274 173.432 319.104C173.602 319.944 173.892 320.744 174.362 321.484C174.842 322.214 175.472 322.894 176.232 323.464C177.042 324.054 177.832 324.434 178.612 324.644Z" fill="white"/>
<path d="M192.112 294.044C192.742 293.044 193.372 292.264 194.012 291.674C194.652 291.084 195.262 290.684 195.852 290.484C196.462 290.264 197.042 290.234 197.612 290.374C198.182 290.524 198.732 290.834 199.282 291.314C199.812 291.784 200.212 292.324 200.472 292.924C200.752 293.534 200.912 294.214 200.922 294.924C200.932 295.634 200.832 296.404 200.582 297.194C200.332 297.984 199.932 298.824 199.392 299.654L194.802 306.854L183.012 296.374L184.432 294.154L189.292 298.474L192.112 294.044ZM204.182 292.144L192.392 281.664L193.812 279.444L205.602 289.924L204.182 292.144ZM198.542 297.364C198.712 296.894 198.802 296.474 198.832 296.024C198.842 295.604 198.782 295.174 198.622 294.784C198.462 294.384 198.182 294.024 197.782 293.674C197.392 293.324 197.012 293.104 196.652 293.034C196.272 292.984 195.892 293.054 195.522 293.194C195.172 293.384 194.802 293.674 194.442 294.044C194.082 294.444 193.722 294.924 193.372 295.484L190.682 299.694L194.852 303.404L197.852 298.704C198.122 298.254 198.352 297.814 198.542 297.364Z" fill="white"/>
<path d="M227.332 259.844L217.932 249.134L211.682 257.354L221.082 268.064L219.512 270.134L208.862 258.014L218.252 245.654L228.902 257.774L227.332 259.844Z" fill="white"/>
<path d="M242.912 231.614C243.232 232.304 243.472 233.014 243.632 233.794C243.792 234.574 243.892 235.354 243.892 236.174C243.892 237.004 243.782 237.854 243.572 238.694C243.372 239.554 243.062 240.404 242.632 241.254C242.202 242.114 241.642 242.934 240.952 243.754C240.282 244.544 239.572 245.214 238.862 245.704C238.172 246.174 237.462 246.534 236.762 246.734C236.092 246.934 235.412 247.014 234.752 246.964C234.072 246.934 233.442 246.784 232.852 246.514C232.242 246.264 231.692 245.924 231.142 245.504C230.622 245.074 230.152 244.574 229.722 244.004C228.952 242.984 228.402 241.904 228.032 240.724C227.682 239.554 227.522 238.364 227.572 237.164C227.642 235.954 227.922 234.724 228.422 233.514C228.922 232.274 229.642 231.104 230.602 229.984C231.562 228.864 232.542 228.004 233.542 227.474C234.552 226.904 235.532 226.644 236.502 226.634C237.472 226.624 238.402 226.904 239.312 227.424C240.232 227.954 241.062 228.704 241.832 229.724C242.252 230.304 242.622 230.924 242.912 231.614ZM238.242 229.884C237.562 229.454 236.842 229.234 236.122 229.184C235.382 229.154 234.642 229.344 233.912 229.724C233.152 230.104 232.432 230.704 231.742 231.524C231.052 232.344 230.522 233.204 230.172 234.124C229.832 235.014 229.632 235.924 229.632 236.834C229.612 237.754 229.742 238.674 230.042 239.554C230.342 240.434 230.792 241.284 231.372 242.054C231.972 242.854 232.612 243.484 233.262 243.924C233.942 244.354 234.652 244.594 235.372 244.644C236.092 244.694 236.822 244.484 237.562 244.134C238.312 243.734 239.042 243.114 239.792 242.234C240.542 241.354 241.082 240.474 241.442 239.564C241.792 238.634 241.992 237.744 242.002 236.834C242.012 235.934 241.842 235.064 241.522 234.204C241.232 233.344 240.772 232.514 240.162 231.704C239.582 230.924 238.932 230.314 238.242 229.884Z" fill="white"/>
<path d="M270.992 210.884L263.402 198.104L256.312 205.164L263.902 217.944L262.122 219.724L253.532 205.244L264.182 194.624L272.772 209.104L270.992 210.884Z" fill="white"/>
<path d="M280.142 180.434C280.802 180.184 281.412 180.064 281.972 180.124C282.532 180.184 283.042 180.404 283.492 180.804C283.962 181.184 284.342 181.714 284.692 182.394C285.042 183.074 285.262 183.734 285.352 184.464C285.462 185.174 285.432 185.884 285.262 186.594C285.102 187.324 284.792 188.034 284.362 188.734C283.912 189.444 283.312 190.134 282.542 190.824L278.572 194.374L281.792 200.704L279.942 202.354L272.172 187.094L277.992 181.884C278.762 181.204 279.472 180.724 280.142 180.434ZM283.212 186.634C283.412 185.774 283.292 184.924 282.852 184.054C282.412 183.184 281.862 182.714 281.182 182.644C280.532 182.574 279.702 182.984 278.722 183.864L274.952 187.244L277.682 192.604L281.452 189.224C282.422 188.334 283.012 187.454 283.212 186.634Z" fill="white"/>
<path d="M307.792 170.784C307.972 171.574 308.072 172.364 308.082 173.194C308.092 174.024 308.042 174.844 307.892 175.684C307.742 176.524 307.492 177.354 307.132 178.144C306.792 178.954 306.342 179.734 305.782 180.474C305.222 181.224 304.552 181.904 303.752 182.534C302.972 183.154 302.192 183.624 301.442 183.924C300.712 184.214 299.982 184.374 299.292 184.384C298.632 184.404 297.972 184.294 297.362 184.064C296.732 183.844 296.162 183.524 295.662 183.084C295.132 182.664 294.682 182.164 294.242 181.584C293.832 181.014 293.482 180.364 293.182 179.674C292.642 178.424 292.322 177.184 292.192 175.884C292.072 174.604 292.142 173.344 292.402 172.154C292.682 170.944 293.172 169.774 293.852 168.694C294.542 167.574 295.432 166.594 296.532 165.724C297.622 164.854 298.712 164.254 299.742 164.004C300.792 163.704 301.752 163.714 302.672 163.974C303.582 164.234 304.412 164.774 305.162 165.544C305.932 166.334 306.572 167.324 307.102 168.574C307.402 169.264 307.642 170.004 307.792 170.784ZM303.722 167.734C303.162 167.104 302.522 166.684 301.852 166.434C301.162 166.204 300.432 166.184 299.682 166.364C298.902 166.534 298.122 166.954 297.322 167.584C296.522 168.214 295.872 168.944 295.382 169.784C294.902 170.584 294.552 171.464 294.382 172.374C294.192 173.304 294.152 174.264 294.282 175.244C294.412 176.224 294.672 177.204 295.072 178.144C295.492 179.124 295.982 179.934 296.512 180.564C297.072 181.194 297.692 181.634 298.362 181.874C299.032 182.124 299.752 182.114 300.512 181.954C301.282 181.754 302.082 181.324 302.942 180.644C303.802 179.964 304.462 179.214 304.972 178.394C305.462 177.554 305.822 176.704 305.992 175.784C306.162 174.874 306.162 173.944 306.012 172.984C305.892 172.024 305.612 171.054 305.192 170.074C304.792 169.164 304.292 168.364 303.722 167.734Z" fill="white"/>
<path d="M314.112 155.384L319.462 170.074L317.502 171.474L311.452 154.834L320.072 148.694L320.782 150.644L314.112 155.384Z" fill="white"/>
<path d="M336.172 138.544C336.832 138.434 337.442 138.454 337.962 138.624C338.492 138.804 338.942 139.144 339.322 139.644C339.722 140.134 340.012 140.754 340.242 141.514C340.472 142.284 340.602 143.004 340.582 143.754C340.582 144.494 340.452 145.204 340.192 145.894C339.932 146.604 339.542 147.254 339.032 147.864C338.502 148.484 337.832 149.064 336.992 149.594L332.702 152.334L334.882 159.464L332.882 160.744L327.632 143.574L333.922 139.564C334.752 139.024 335.492 138.694 336.172 138.544ZM338.222 145.494C338.542 144.664 338.542 143.774 338.242 142.794C337.942 141.814 337.482 141.214 336.842 140.994C336.232 140.784 335.382 141.014 334.312 141.694L330.232 144.294L332.072 150.324L336.152 147.724C337.232 147.044 337.922 146.294 338.222 145.494Z" fill="white"/>
<path d="M364.182 142.094L361.912 143.364L358.962 138.834L352.972 142.174L352.612 148.544L350.472 149.744L351.762 128.574L354.222 127.204L364.182 142.094ZM357.932 137.284L353.682 130.704L353.052 140.004L357.932 137.284Z" fill="white"/>
<path d="M377.862 132.164L379.412 114.754L382.392 113.344L385.762 131.574L383.822 132.494L380.992 117.164L380.952 117.184L379.422 134.584L377.352 135.564L370.162 122.294L370.122 122.314L372.952 137.644L371.012 138.564L367.642 120.334L370.622 118.924L377.832 132.184L377.862 132.164Z" fill="white"/>
<path d="M401.082 122.184L403.612 104.744L406.632 103.584L408.902 122.284L406.932 123.044L405.022 107.314L404.982 107.334L402.472 124.764L400.372 125.574L394.042 111.554L394.002 111.574L395.912 127.304L393.942 128.064L391.672 109.364L394.692 108.204L401.042 122.224L401.082 122.184Z" fill="white"/>
<path d="M419.112 115.174L426.162 97.3141L428.602 96.5741L429.822 115.624L427.712 116.264L426.712 100.764L426.672 100.774L419.632 118.714L417.192 119.454L415.972 100.404L418.082 99.7641L419.072 115.184L419.112 115.174Z" fill="white"/>
<path d="M446.872 92.4741C447.492 92.6241 448.032 92.8841 448.452 93.2741C448.872 93.6641 449.192 94.1841 449.402 94.8341C449.632 95.4841 449.732 96.2141 449.742 97.0741C449.752 97.9341 449.672 98.7041 449.462 99.4641C449.272 100.204 448.972 100.874 448.562 101.454C448.152 102.064 447.622 102.554 447.012 102.964C446.372 103.384 445.622 103.684 444.742 103.884L440.192 104.924L440.302 112.934L438.182 113.414L437.932 94.1041L444.602 92.5841C445.472 92.3941 446.222 92.3541 446.872 92.4741ZM446.902 100.264C447.402 99.5541 447.632 98.6641 447.622 97.5641C447.612 96.4641 447.352 95.6841 446.842 95.2041C446.352 94.7541 445.532 94.6441 444.402 94.8941L440.072 95.8841L440.162 102.664L444.492 101.674C445.612 101.424 446.422 100.944 446.902 100.264Z" fill="white"/>
<path d="M472.682 99.7341C472.522 100.594 472.292 101.414 471.972 102.214C471.652 103.014 471.302 103.774 470.852 104.494C470.412 105.214 469.882 105.854 469.292 106.404C468.702 106.984 468.042 107.454 467.302 107.834C466.562 108.214 465.762 108.474 464.882 108.604C464.022 108.734 463.212 108.724 462.492 108.564C461.792 108.404 461.152 108.124 460.592 107.714C460.062 107.334 459.572 106.844 459.182 106.254C458.762 105.674 458.442 105.014 458.202 104.294C457.942 103.574 457.772 102.824 457.652 102.004C457.552 101.214 457.512 100.374 457.552 99.5341C457.612 98.0141 457.842 96.6241 458.242 95.2941C458.642 93.9941 459.192 92.8241 459.862 91.8341C460.562 90.8341 461.402 90.0041 462.372 89.3741C463.362 88.7141 464.452 88.3041 465.662 88.1141C466.872 87.9341 467.972 88.0041 468.902 88.3841C469.852 88.7241 470.622 89.3141 471.252 90.1041C471.882 90.9041 472.322 91.9141 472.632 93.1041C472.932 94.3241 473.062 95.6541 473.002 97.1741C472.962 98.0441 472.862 98.8941 472.682 99.7341ZM470.622 94.3741C470.412 93.4341 470.072 92.6441 469.632 92.0141C469.172 91.3841 468.602 90.9241 467.932 90.6541C467.242 90.3541 466.452 90.2841 465.572 90.4141C464.692 90.5441 463.892 90.8541 463.162 91.3741C462.462 91.8541 461.842 92.4941 461.352 93.2641C460.842 94.0441 460.432 94.9441 460.152 95.9541C459.872 96.9641 459.702 98.0741 459.652 99.2141C459.602 100.404 459.672 101.474 459.862 102.394C460.072 103.334 460.392 104.124 460.822 104.764C461.262 105.404 461.832 105.824 462.502 106.134C463.192 106.404 464.002 106.474 464.952 106.334C465.902 106.194 466.722 105.874 467.442 105.394C468.162 104.884 468.782 104.274 469.272 103.494C469.762 102.714 470.122 101.824 470.382 100.814C470.662 99.8241 470.812 98.7241 470.862 97.5241C470.922 96.3841 470.832 95.3141 470.622 94.3741Z" fill="white"/>
<path d="M489.172 86.0741C489.632 86.0941 490.062 86.1441 490.462 86.2541C490.822 86.3641 491.182 86.5241 491.512 86.7441C491.822 86.9641 492.072 87.2741 492.302 87.6341C492.532 87.9941 492.692 88.4441 492.802 88.9241C492.892 89.4341 492.922 90.0041 492.862 90.6541C492.832 90.9841 492.752 91.3641 492.652 91.7541C492.532 92.1441 492.382 92.5341 492.202 92.9241C491.992 93.3241 491.762 93.6941 491.452 94.0141C491.152 94.3841 490.802 94.6641 490.392 94.9041C490.712 95.0141 491.022 95.1841 491.332 95.3741C491.642 95.5941 491.922 95.8741 492.172 96.2341C492.402 96.5941 492.582 97.0441 492.732 97.5541C492.862 98.0841 492.892 98.7341 492.822 99.4741C492.782 99.9141 492.702 100.354 492.592 100.794C492.462 101.294 492.292 101.744 492.082 102.164C491.842 102.614 491.572 103.044 491.252 103.444C490.932 103.844 490.552 104.204 490.132 104.504C489.692 104.834 489.212 105.084 488.662 105.294C488.122 105.494 487.502 105.624 486.822 105.674L480.172 106.164L481.912 86.5441L487.552 86.1241C488.172 86.0941 488.712 86.0841 489.172 86.0741ZM488.922 94.1041C489.352 93.9041 489.702 93.6341 489.972 93.3441C490.212 93.0541 490.402 92.7141 490.522 92.3241C490.622 91.9341 490.702 91.5241 490.742 91.0841C490.782 90.6241 490.772 90.2141 490.702 89.8641C490.602 89.5141 490.452 89.2341 490.212 89.0041C489.992 88.7441 489.662 88.5841 489.252 88.5041C488.842 88.3941 488.352 88.3541 487.752 88.3941L483.822 88.6841L483.282 94.7541L487.212 94.4641C487.912 94.4241 488.462 94.3041 488.922 94.1041ZM488.472 103.044C488.952 102.844 489.342 102.604 489.672 102.254C489.982 101.964 490.212 101.564 490.382 101.144C490.552 100.724 490.662 100.254 490.702 99.7341C490.752 99.2141 490.722 98.7541 490.632 98.3541C490.532 97.9541 490.372 97.5841 490.112 97.3041C489.832 97.0241 489.482 96.8341 489.032 96.7041C488.562 96.5741 488.002 96.5341 487.322 96.5841L483.082 96.8941L482.472 103.724L486.712 103.414C487.392 103.364 487.972 103.244 488.472 103.044Z" fill="white"/>
<path d="M512.672 105.044H510.342L509.512 99.0241L503.372 99.0141L500.802 105.034H498.602L507.192 85.0841H509.722L512.672 105.044ZM509.212 96.9341L508.032 88.2041L504.202 96.9341H509.212Z" fill="white"/>
<path d="M531.972 94.6341L533.472 86.5441L535.532 86.7041L531.882 106.314L529.822 106.154L531.542 96.9241L523.332 96.2741L521.612 105.504L519.552 105.344L523.192 85.7341L525.252 85.8941L523.752 93.9841L531.972 94.6341Z" fill="white"/>
<path d="M542.872 103.904L554.312 89.3841L556.662 89.7641L552.052 109.254L550.022 108.924L553.772 93.0741L553.732 93.0641L542.272 107.674L539.922 107.294L544.532 87.8041L546.562 88.1341L542.832 103.904H542.872Z" fill="white"/>
<path d="M567.432 101.104C567.892 99.7741 568.462 98.5941 569.132 97.5841C569.782 96.5741 570.542 95.7541 571.342 95.1241C572.152 94.4941 573.032 94.0641 574.002 93.8541C574.952 93.6341 575.962 93.6741 577.042 93.9541C578.172 94.2441 579.112 94.7541 579.832 95.4841C580.572 96.1941 581.092 97.0841 581.432 98.1241C581.772 99.1641 581.882 100.354 581.832 101.664C581.772 103.004 581.522 104.384 581.072 105.884C580.822 106.714 580.522 107.534 580.182 108.314C579.812 109.114 579.402 109.844 578.932 110.534C578.462 111.224 577.952 111.834 577.382 112.384C576.802 112.924 576.182 113.374 575.532 113.694C574.872 114.044 574.162 114.264 573.422 114.364C572.662 114.454 571.882 114.394 571.072 114.184C570.312 113.984 569.642 113.694 569.092 113.294C568.512 112.914 568.062 112.424 567.682 111.884C567.302 111.354 566.992 110.754 566.792 110.094C566.582 109.434 566.442 108.734 566.392 107.994C566.302 107.244 566.322 106.504 566.382 105.704C566.462 104.914 566.582 104.134 566.762 103.344L564.432 102.734L561.912 111.264L559.932 110.754L565.612 91.4841L567.592 91.9941L565.092 100.474L567.432 101.104ZM579.702 102.124C579.742 101.094 579.652 100.174 579.432 99.3641C579.202 98.5541 578.822 97.8741 578.322 97.3441C577.802 96.7741 577.152 96.4041 576.392 96.2041C575.612 96.0041 574.852 96.0041 574.112 96.2441C573.382 96.4641 572.692 96.8541 572.052 97.4441C571.412 98.0341 570.842 98.7741 570.322 99.6841C569.792 100.584 569.352 101.624 569.012 102.754C568.662 103.934 568.472 105.044 568.442 106.044C568.402 107.074 568.492 107.994 568.732 108.804C568.962 109.614 569.342 110.264 569.842 110.824C570.332 111.354 570.972 111.724 571.742 111.924C572.632 112.154 573.452 112.164 574.182 111.954C574.942 111.714 575.602 111.344 576.222 110.754C576.842 110.164 577.392 109.414 577.862 108.494C578.322 107.604 578.742 106.554 579.092 105.374C579.432 104.244 579.642 103.144 579.702 102.124Z" fill="white"/>
<path d="M611.342 106.354L613.982 107.434L605.202 112.604L606.982 126.274L604.562 125.284L603.182 113.784L599.782 115.774L597.292 122.314L595.402 121.544L602.562 102.774L604.452 103.544L600.962 112.694L611.342 106.354Z" fill="white"/>
<path d="M615.572 127.644C615.652 127.774 615.742 127.884 615.842 128.034L616.192 128.394C616.312 128.484 616.442 128.584 616.572 128.644C616.842 128.774 617.112 128.854 617.362 128.854C617.602 128.844 617.822 128.804 618.052 128.704C618.262 128.594 618.472 128.484 618.672 128.294C618.872 128.114 619.022 127.914 619.182 127.704L619.952 110.144L622.092 111.214L621.332 125.694L630.062 115.214L632.122 116.244L621.862 127.864C621.172 128.604 620.532 129.264 620.012 129.774C619.452 130.304 618.962 130.684 618.482 130.944C618.002 131.204 617.522 131.334 617.062 131.324C616.592 131.334 616.102 131.184 615.562 130.914C615.272 130.774 615.032 130.584 614.812 130.344C614.592 130.104 614.432 129.874 614.372 129.654L615.402 127.274C615.422 127.384 615.482 127.504 615.572 127.644Z" fill="white"/>
<path d="M645.992 124.824C646.372 125.414 646.642 126.024 646.772 126.684C646.902 127.344 646.892 128.054 646.742 128.804C646.612 129.564 646.342 130.314 645.952 131.114C645.562 131.914 645.142 132.574 644.642 133.104C644.162 133.654 643.632 134.054 643.062 134.294C642.482 134.554 641.872 134.644 641.232 134.584C640.572 134.514 639.892 134.264 639.152 133.814L635.362 131.534L631.722 138.994L629.952 137.934L638.722 119.974L644.282 123.324C645.022 123.754 645.582 124.254 645.992 124.824ZM642.402 132.024C643.092 131.724 643.672 131.074 644.172 130.054C644.672 129.034 644.852 128.134 644.692 127.324C644.542 126.554 644.002 125.874 643.062 125.304L639.452 123.134L636.372 129.434L639.982 131.604C640.932 132.174 641.742 132.304 642.402 132.024Z" fill="white"/>
<path d="M650.862 143.324C650.572 144.334 650.442 145.294 650.482 146.164C650.502 147.064 650.692 147.834 651.022 148.544C651.342 149.254 651.812 149.824 652.432 150.264C652.982 150.654 653.522 150.874 654.122 150.894C654.692 150.924 655.252 150.854 655.792 150.634C656.362 150.404 656.872 150.094 657.362 149.694C657.842 149.264 658.292 148.804 658.662 148.254L660.302 149.424C659.992 149.914 659.632 150.364 659.222 150.814C658.792 151.244 658.352 151.644 657.872 151.984C657.392 152.314 656.892 152.604 656.352 152.824C655.832 153.064 655.282 153.214 654.712 153.274C654.152 153.314 653.582 153.274 653.012 153.104C652.452 152.974 651.882 152.704 651.322 152.304C650.932 152.024 650.552 151.684 650.182 151.254C649.792 150.844 649.462 150.334 649.182 149.764C648.872 149.204 648.672 148.554 648.502 147.824C648.332 147.094 648.292 146.284 648.352 145.414C648.412 144.544 648.602 143.564 648.922 142.544C649.222 141.504 649.722 140.374 650.372 139.184C651.012 138.014 651.682 137.014 652.352 136.204C653.022 135.394 653.682 134.754 654.352 134.254C655.012 133.774 655.662 133.434 656.312 133.224C656.952 133.004 657.562 132.904 658.182 132.904C658.782 132.924 659.362 133.034 659.902 133.214C660.442 133.434 660.962 133.704 661.422 134.024C662.002 134.444 662.482 134.914 662.852 135.384C663.232 135.894 663.542 136.414 663.782 136.964C663.992 137.524 664.122 138.084 664.202 138.654C664.282 139.224 664.322 139.784 664.282 140.334C664.252 140.884 664.152 141.424 664.012 141.934C663.882 142.444 663.722 142.914 663.512 143.334L661.852 142.154C662.052 141.524 662.172 140.894 662.202 140.304C662.232 139.714 662.202 139.154 662.042 138.634C661.902 138.124 661.702 137.644 661.422 137.214C661.112 136.794 660.762 136.404 660.342 136.104C659.692 135.634 659.012 135.394 658.302 135.354C657.622 135.304 656.892 135.464 656.192 135.804C655.472 136.174 654.772 136.684 654.102 137.424C653.432 138.164 652.772 139.084 652.192 140.154C651.592 141.244 651.152 142.314 650.862 143.324Z" fill="white"/>
<path d="M673.822 154.554C674.542 155.164 675.082 155.814 675.472 156.494C675.862 157.184 676.092 157.884 676.162 158.584C676.252 159.304 676.182 160.034 675.972 160.784C675.762 161.534 675.422 162.284 674.942 163.054C674.482 163.804 673.972 164.414 673.442 164.854C672.902 165.324 672.312 165.644 671.742 165.794C671.162 165.944 670.552 165.954 669.932 165.784C669.322 165.624 668.702 165.264 668.102 164.754L662.922 160.334L673.332 143.544L674.932 144.914L670.642 151.834L673.822 154.554ZM670.102 163.254C670.462 163.384 670.792 163.414 671.152 163.364C671.492 163.304 671.852 163.144 672.202 162.864C672.552 162.594 672.892 162.164 673.242 161.604C673.592 161.044 673.832 160.534 673.942 160.064C674.042 159.574 674.042 159.114 673.992 158.674C673.892 158.264 673.712 157.864 673.462 157.474C673.182 157.094 672.852 156.734 672.452 156.394L669.422 153.804L665.742 159.744L669.122 162.634C669.432 162.904 669.762 163.114 670.102 163.254ZM673.502 169.374L683.912 152.584L685.512 153.954L675.102 170.744L673.502 169.374Z" fill="white"/>
<path d="M696.382 192.424L706.612 178.604L700.842 172.284L690.612 186.104L689.162 184.514L700.742 168.864L709.402 178.364L697.822 194.014L696.382 192.424Z" fill="white"/>
<path d="M717.072 206.694C716.462 207.224 715.842 207.664 715.182 208.014C714.522 208.364 713.872 208.634 713.192 208.784C712.512 208.944 711.832 208.964 711.182 208.844C710.512 208.754 709.862 208.524 709.232 208.134C708.602 207.754 708.012 207.204 707.452 206.494C706.902 205.794 706.472 205.024 706.182 204.234C705.902 203.454 705.722 202.624 705.662 201.784C705.602 200.984 705.642 200.134 705.782 199.304C705.912 198.444 706.132 197.624 706.442 196.834C706.742 196.024 707.102 195.264 707.542 194.494C707.972 193.764 708.452 193.074 708.982 192.434C709.942 191.274 710.902 190.384 711.932 189.704C712.942 189.044 713.942 188.624 714.912 188.464C715.892 188.314 716.862 188.444 717.772 188.844C718.712 189.244 719.552 189.934 720.322 190.914C721.092 191.904 721.642 192.984 721.922 194.144C722.232 195.304 722.292 196.484 722.152 197.704C722.012 198.924 721.632 200.144 721.072 201.384C720.492 202.644 719.752 203.824 718.792 204.974C718.262 205.614 717.692 206.204 717.072 206.694ZM719.212 200.504C719.672 199.564 719.962 198.614 720.112 197.704C720.242 196.774 720.212 195.874 720.012 195.034C719.822 194.154 719.432 193.364 718.872 192.644C718.312 191.924 717.682 191.424 716.982 191.164C716.312 190.894 715.592 190.824 714.852 190.994C714.102 191.134 713.332 191.474 712.562 192.024C711.792 192.574 711.022 193.294 710.312 194.164C709.562 195.074 708.952 195.994 708.492 196.894C708.032 197.834 707.722 198.764 707.582 199.674C707.432 200.584 707.482 201.464 707.662 202.334C707.872 203.194 708.272 204.004 708.872 204.774C709.472 205.544 710.112 206.064 710.802 206.344C711.502 206.604 712.212 206.694 712.952 206.534C713.692 206.374 714.432 206.004 715.182 205.434C715.932 204.904 716.682 204.164 717.442 203.254C718.162 202.384 718.752 201.454 719.212 200.504Z" fill="white"/>
<path d="M729.712 238.124L741.352 226.194L736.662 218.604L725.022 230.534L723.842 228.624L737.032 215.114L744.072 226.514L730.882 240.024L729.712 238.124Z" fill="white"/>
<path d="M753.202 243.894C753.302 244.674 753.302 245.424 753.172 246.134C753.042 246.844 752.772 247.524 752.382 248.174C751.992 248.844 751.512 249.414 750.902 249.974C750.292 250.534 749.712 250.944 749.102 251.194C748.502 251.464 747.932 251.554 747.372 251.474C746.802 251.414 746.262 251.154 745.762 250.744C745.252 250.314 744.772 249.684 744.332 248.844L742.042 244.524L736.362 249.764L735.292 247.754L748.992 235.134L752.352 241.464C752.792 242.314 753.072 243.114 753.202 243.894ZM747.662 248.914C748.342 249.014 749.052 248.694 749.832 247.974C750.612 247.254 751.082 246.474 751.242 245.604C751.402 244.774 751.192 243.804 750.632 242.734L748.452 238.624L743.642 243.054L745.822 247.164C746.392 248.234 747.012 248.824 747.662 248.914Z" fill="white"/>
<path d="M756.832 276.844C756.162 277.214 755.502 277.484 754.822 277.654C754.142 277.824 753.482 277.914 752.812 277.884C752.152 277.854 751.512 277.684 750.912 277.394C750.302 277.114 749.732 276.704 749.212 276.134C748.692 275.564 748.232 274.854 747.832 273.974C747.442 273.114 747.182 272.214 747.052 271.324C746.932 270.454 746.912 269.564 747.012 268.704C747.102 267.874 747.282 267.034 747.572 266.224C747.852 265.394 748.202 264.624 748.632 263.904C749.052 263.164 749.542 262.494 750.082 261.834C750.612 261.214 751.192 260.644 751.812 260.144C752.922 259.234 753.982 258.604 755.072 258.194C756.142 257.804 757.152 257.654 758.092 257.764C759.042 257.894 759.922 258.284 760.702 258.934C761.512 259.594 762.172 260.524 762.722 261.744C763.272 262.954 763.582 264.204 763.642 265.464C763.722 266.724 763.562 267.944 763.212 269.134C762.862 270.334 762.282 271.464 761.532 272.564C760.762 273.684 759.852 274.664 758.752 275.574C758.142 276.074 757.502 276.504 756.832 276.844ZM759.962 271.164C760.562 270.334 761.012 269.464 761.312 268.574C761.612 267.664 761.732 266.744 761.702 265.834C761.682 264.884 761.462 263.974 761.062 263.094C760.662 262.214 760.172 261.534 759.552 261.074C758.972 260.614 758.302 260.344 757.582 260.304C756.852 260.244 756.072 260.374 755.252 260.714C754.432 261.054 753.582 261.574 752.752 262.254C751.882 262.964 751.142 263.724 750.552 264.514C749.952 265.344 749.502 266.194 749.192 267.084C748.892 267.974 748.782 268.874 748.792 269.804C748.832 270.734 749.062 271.664 749.492 272.614C749.922 273.564 750.422 274.264 751.012 274.744C751.622 275.204 752.272 275.494 752.992 275.534C753.712 275.574 754.472 275.404 755.282 275.034C756.082 274.704 756.922 274.174 757.792 273.454C758.632 272.774 759.362 271.984 759.962 271.164Z" fill="white"/>
<path d="M768.472 281.924L755.612 291.394L754.772 289.194L769.332 278.474L773.032 288.154L771.332 289.404L768.472 281.924Z" fill="white"/>
<path d="M778.842 306.504C778.832 307.314 778.722 308.074 778.492 308.774C778.262 309.474 777.912 310.104 777.442 310.674C776.982 311.264 776.432 311.744 775.762 312.184C775.102 312.624 774.492 312.914 773.872 313.024C773.262 313.164 772.702 313.134 772.182 312.934C771.642 312.744 771.172 312.364 770.752 311.834C770.322 311.284 769.962 310.544 769.652 309.594L768.072 304.714L761.892 308.784L761.162 306.504L776.042 296.694L778.352 303.854C778.672 304.804 778.832 305.684 778.842 306.504ZM772.832 310.384C773.462 310.624 774.192 310.464 775.042 309.904C775.892 309.344 776.452 308.664 776.732 307.814C777.002 307.004 776.942 305.974 776.552 304.764L775.052 300.114L769.832 303.554L771.332 308.204C771.722 309.424 772.232 310.154 772.832 310.384Z" fill="white"/>
<path d="M771.602 342.374L770.912 339.754L775.072 335.194L773.262 328.294L768.102 329.034L767.452 326.564L784.592 324.224L785.332 327.064L771.602 342.374ZM776.512 333.604L782.562 327.034L775.042 327.984L776.512 333.604Z" fill="white"/>
<path d="M777.602 357.664L791.612 356.354L792.302 359.834L776.862 367.474L776.412 365.204L789.402 358.784L789.392 358.734L775.382 360.064L774.902 357.644L786.872 346.124L786.862 346.074L773.872 352.494L773.422 350.224L788.862 342.584L789.552 346.064L777.582 357.604L777.602 357.664Z" fill="white"/>
<path d="M782.172 384.984L796.052 384.894L796.542 388.464L780.892 394.824L780.572 392.494L793.742 387.144L793.732 387.094L779.852 387.214L779.512 384.724L791.972 374.144L791.962 374.094L778.792 379.444L778.472 377.114L794.122 370.754L794.612 374.324L782.162 384.924L782.172 384.984Z" fill="white"/>
<path d="M785.122 406.354L798.652 411.864L798.882 414.794L783.092 419.904L782.892 417.364L795.732 413.214V413.164L782.142 407.674L781.912 404.744L797.702 399.634L797.902 402.174L785.122 406.304V406.354Z" fill="white"/>
<path d="M799.412 436.974C799.192 437.784 798.902 438.504 798.512 439.114C798.132 439.724 797.652 440.214 797.082 440.594C796.512 441.004 795.902 441.264 795.192 441.444C794.482 441.624 793.862 441.664 793.282 441.544C792.702 441.444 792.202 441.194 791.792 440.784C791.362 440.374 791.032 439.814 790.792 439.114C790.552 438.394 790.412 437.504 790.392 436.434L790.242 430.914L783.662 432.544L783.592 429.974L799.442 426.034L799.662 434.134C799.702 435.204 799.612 436.134 799.412 436.974ZM793.032 438.474C793.532 438.974 794.222 439.094 795.132 438.874C796.032 438.644 796.712 438.184 797.182 437.444C797.632 436.744 797.842 435.684 797.812 434.324L797.672 429.074L792.112 430.454L792.252 435.704C792.282 437.074 792.552 438.004 793.032 438.474Z" fill="white"/>
<path d="M789.482 470.774C788.802 470.724 788.172 470.594 787.562 470.344C786.952 470.094 786.392 469.794 785.872 469.364C785.352 468.944 784.902 468.394 784.552 467.754C784.172 467.114 783.882 466.384 783.682 465.534C783.482 464.674 783.402 463.724 783.422 462.634C783.452 461.574 783.582 460.554 783.822 459.624C784.062 458.714 784.392 457.854 784.812 457.084C785.202 456.344 785.682 455.634 786.222 455.034C786.762 454.404 787.352 453.864 787.972 453.434C788.602 452.974 789.242 452.624 789.932 452.314C790.602 452.034 791.282 451.834 791.972 451.724C793.212 451.514 794.312 451.544 795.332 451.794C796.332 452.054 797.202 452.524 797.912 453.184C798.622 453.874 799.172 454.774 799.542 455.874C799.932 456.994 800.102 458.284 800.062 459.784C800.022 461.274 799.792 462.664 799.342 463.904C798.912 465.164 798.312 466.244 797.572 467.174C796.822 468.114 795.922 468.864 794.902 469.464C793.852 470.074 792.742 470.484 791.512 470.694C790.822 470.814 790.132 470.854 789.482 470.774ZM794.182 467.194C794.982 466.764 795.682 466.184 796.272 465.514C796.862 464.824 797.322 464.014 797.652 463.114C798.002 462.194 798.182 461.184 798.212 460.104C798.242 459.024 798.112 458.074 797.802 457.264C797.512 456.474 797.092 455.824 796.532 455.354C795.972 454.854 795.302 454.514 794.512 454.354C793.722 454.194 792.842 454.184 791.922 454.344C790.952 454.514 790.062 454.794 789.282 455.204C788.482 455.634 787.782 456.194 787.192 456.854C786.602 457.524 786.162 458.324 785.812 459.224C785.482 460.144 785.302 461.174 785.272 462.344C785.242 463.514 785.372 464.484 785.662 465.304C785.972 466.114 786.372 466.774 786.932 467.244C787.492 467.714 788.162 468.004 788.952 468.134C789.722 468.304 790.602 468.284 791.572 468.114C792.492 467.934 793.382 467.624 794.182 467.194Z" fill="white"/>
<path d="M798.102 488.944C798.012 489.524 797.912 490.074 797.762 490.604C797.612 491.074 797.432 491.554 797.192 492.014C796.962 492.444 796.672 492.824 796.342 493.174C796.012 493.534 795.622 493.814 795.202 494.034C794.772 494.234 794.302 494.394 793.772 494.434C793.512 494.454 793.202 494.434 792.902 494.384C792.602 494.304 792.302 494.194 792.012 494.034C791.722 493.844 791.452 493.624 791.242 493.294C790.982 492.994 790.812 492.604 790.672 492.124C790.532 492.544 790.342 492.964 790.142 493.394C789.912 493.824 789.642 494.224 789.312 494.614C788.982 494.974 788.582 495.274 788.152 495.564C787.692 495.824 787.162 495.984 786.562 496.034C786.212 496.064 785.862 496.044 785.512 495.994C785.122 495.924 784.782 495.794 784.472 495.604C784.142 495.394 783.832 495.124 783.552 494.794C783.272 494.464 783.042 494.054 782.862 493.584C782.662 493.084 782.522 492.534 782.442 491.894C782.362 491.254 782.352 490.494 782.412 489.644L783.042 481.374L798.832 479.894L798.302 486.904C798.242 487.684 798.162 488.364 798.102 488.944ZM784.322 491.234C784.412 491.794 784.552 492.244 784.782 492.604C784.972 492.934 785.262 493.154 785.582 493.294C785.902 493.424 786.262 493.474 786.682 493.434C787.102 493.394 787.482 493.274 787.822 493.084C788.162 492.884 788.492 492.614 788.762 492.234C789.032 491.834 789.242 491.354 789.422 490.764C789.602 490.154 789.722 489.434 789.782 488.594L790.182 483.324L784.682 483.844L784.282 489.114C784.222 489.944 784.242 490.644 784.322 491.234ZM791.572 490.124C791.662 490.634 791.832 491.024 792.032 491.304C792.232 491.554 792.482 491.724 792.782 491.804C793.082 491.854 793.412 491.884 793.762 491.844C794.132 491.814 794.472 491.724 794.762 491.564C795.062 491.374 795.322 491.134 795.542 490.784C795.782 490.464 795.972 490.014 796.102 489.484C796.252 488.954 796.362 488.324 796.422 487.584L796.792 482.704L791.912 483.164L791.542 488.044C791.462 488.914 791.482 489.584 791.572 490.124Z" fill="white"/>
<path d="M778.942 522.034L779.302 519.104L784.362 516.934L785.322 509.214L780.792 507.114L781.132 504.354L796.132 511.404L795.742 514.574L778.942 522.034ZM786.112 516.164L793.442 513.044L786.892 509.864L786.112 516.164Z" fill="white"/>
<path d="M784.482 544.304L790.872 544.674L790.422 547.294L774.932 546.384L775.382 543.764L782.672 544.194L784.482 533.754L777.192 533.324L777.642 530.704L793.132 531.614L792.682 534.234L786.292 533.864L784.482 544.304Z" fill="white"/>
<path d="M775.192 559.784L785.312 571.444L784.642 574.464L769.402 572.324L769.982 569.714L782.382 571.454L782.392 571.404L772.212 559.734L772.882 556.714L788.122 558.854L787.542 561.464L775.202 559.734L775.192 559.784Z" fill="white"/>
<path d="M773.682 590.124C774.692 590.454 775.572 590.944 776.302 591.604C777.032 592.234 777.582 593.024 777.972 593.924C778.362 594.824 778.582 595.844 778.602 597.034C778.632 598.194 778.452 599.464 778.052 600.864C777.632 602.344 777.082 603.624 776.362 604.654C775.662 605.724 774.862 606.534 773.952 607.154C773.052 607.774 772.062 608.144 770.992 608.314C769.902 608.484 768.812 608.434 767.652 608.154C767.012 608.004 766.392 607.764 765.802 607.484C765.202 607.174 764.672 606.784 764.182 606.324C763.692 605.864 763.262 605.334 762.902 604.724C762.552 604.094 762.282 603.394 762.112 602.644C761.932 601.884 761.862 601.034 761.892 600.124C761.932 599.184 762.102 598.194 762.402 597.144C762.682 596.144 763.022 595.254 763.442 594.484C763.842 593.684 764.322 593.024 764.812 592.454C765.302 591.884 765.842 591.374 766.422 590.994C767.002 590.614 767.592 590.294 768.202 590.094C768.822 589.844 769.432 589.724 770.072 589.644C770.702 589.594 771.322 589.594 771.942 589.684L772.802 586.644L766.202 585.084L766.932 582.504L781.832 586.034L781.102 588.614L774.542 587.064L773.682 590.124ZM770.952 605.734C771.792 605.584 772.552 605.314 773.252 604.874C773.952 604.434 774.562 603.834 775.082 603.094C775.632 602.334 776.032 601.454 776.312 600.454C776.602 599.434 776.712 598.484 776.632 597.604C776.572 596.724 776.352 595.934 775.972 595.234C775.592 594.544 775.072 593.954 774.402 593.484C773.742 592.984 772.962 592.624 772.092 592.414C771.182 592.194 770.302 592.164 769.482 592.314C768.642 592.464 767.882 592.734 767.172 593.204C766.472 593.644 765.882 594.244 765.342 594.984C764.832 595.694 764.432 596.574 764.152 597.574C763.822 598.734 763.692 599.764 763.752 600.634C763.832 601.544 764.032 602.304 764.422 602.974C764.812 603.644 765.342 604.194 766.022 604.614C766.682 605.024 767.472 605.364 768.382 605.574C769.252 605.794 770.122 605.854 770.952 605.734Z" fill="white"/>
<path d="M761.022 648.964L759.642 652.454L757.052 642.214L745.522 646.574L746.782 643.374L756.462 639.854L755.462 635.884L750.572 633.764L751.562 631.264L765.602 637.354L764.612 639.854L757.772 636.884L761.022 648.964Z" fill="white"/>
<path d="M742.792 657.584C742.662 657.704 742.562 657.844 742.422 657.984L742.062 658.484C741.962 658.654 741.862 658.824 741.782 659.004C741.622 659.364 741.512 659.714 741.462 660.034C741.422 660.324 741.412 660.604 741.452 660.884C741.502 661.134 741.562 661.384 741.672 661.594C741.782 661.814 741.922 661.974 742.052 662.144L756.282 660.404L755.002 663.254L743.302 664.534L750.242 673.874L749.012 676.624L741.432 665.524C740.952 664.764 740.542 664.074 740.212 663.494C739.882 662.874 739.662 662.324 739.542 661.754C739.422 661.184 739.402 660.604 739.492 660.034C739.572 659.444 739.782 658.804 740.102 658.094C740.272 657.714 740.472 657.374 740.702 657.054C740.942 656.734 741.162 656.504 741.352 656.384L743.112 657.314C743.032 657.364 742.922 657.454 742.792 657.584Z" fill="white"/>
<path d="M739.392 695.404C738.842 695.974 738.282 696.404 737.722 696.674C737.162 696.934 736.582 697.034 735.992 696.964C735.392 696.914 734.832 696.694 734.252 696.324C733.672 695.954 733.212 695.534 732.862 694.984C732.502 694.464 732.272 693.864 732.192 693.184C732.082 692.494 732.132 691.734 732.302 690.924C732.482 690.084 732.822 689.184 733.322 688.194L735.902 683.074L730.482 679.654L731.682 677.274L744.742 685.524L740.962 693.024C740.452 694.004 739.932 694.794 739.392 695.404ZM734.172 692.004C734.282 692.824 734.712 693.454 735.452 693.934C736.202 694.404 736.902 694.484 737.592 694.174C738.252 693.864 738.912 693.074 739.552 691.814L742.002 686.944L737.422 684.044L734.962 688.914C734.322 690.174 734.062 691.214 734.172 692.004Z" fill="white"/>
<path d="M723.342 704.364C722.562 704.164 721.812 704.144 721.092 704.324C720.352 704.494 719.682 704.844 719.042 705.364C718.402 705.884 717.842 706.564 717.372 707.404C716.952 708.154 716.672 708.864 716.542 709.624C716.402 710.344 716.362 711.034 716.442 711.674C716.532 712.354 716.682 712.954 716.922 713.504C717.182 714.044 717.472 714.534 717.852 714.914L716.582 717.154C716.242 716.834 715.932 716.464 715.642 716.014C715.372 715.534 715.122 715.044 714.942 714.494C714.762 713.944 714.612 713.364 714.532 712.714C714.442 712.094 714.422 711.424 714.472 710.714C714.542 710.014 714.682 709.294 714.922 708.554C715.132 707.824 715.462 707.074 715.902 706.304C716.202 705.774 716.552 705.244 716.982 704.704C717.392 704.154 717.872 703.654 718.392 703.224C718.902 702.754 719.482 702.394 720.102 702.074C720.732 701.754 721.402 701.574 722.102 701.514C722.802 701.454 723.572 701.544 724.352 701.784C725.142 702.004 725.982 702.454 726.832 703.084C727.672 703.704 728.362 704.394 728.902 705.114C729.442 705.824 729.842 706.564 730.122 707.324C730.392 708.074 730.552 708.844 730.602 709.634C730.662 710.404 730.632 711.164 730.512 711.934C730.382 712.694 730.182 713.434 729.932 714.144C729.652 714.864 729.332 715.544 728.982 716.174C728.532 716.974 728.052 717.644 727.592 718.184C727.102 718.744 726.622 719.204 726.132 719.594C725.642 719.944 725.152 720.194 724.672 720.384C724.192 720.574 723.722 720.704 723.282 720.744C722.842 720.784 722.412 720.744 722.022 720.654C721.622 720.564 721.282 720.444 720.972 720.244L722.252 717.984C722.732 718.134 723.222 718.194 723.702 718.144C724.182 718.094 724.652 717.964 725.102 717.684C725.542 717.434 725.972 717.104 726.382 716.684C726.782 716.234 727.172 715.734 727.492 715.154C727.992 714.264 728.322 713.374 728.492 712.474C728.662 711.604 728.662 710.724 728.522 709.894C728.352 709.054 728.062 708.254 727.592 707.514C727.112 706.784 726.482 706.104 725.722 705.534C724.912 704.954 724.112 704.564 723.342 704.364Z" fill="white"/>
<path d="M697.772 736.854L709.562 747.334L708.142 749.554L696.352 739.074L697.772 736.854ZM709.832 734.964C709.202 735.954 708.572 736.744 707.932 737.334C707.292 737.924 706.682 738.324 706.092 738.524C705.482 738.744 704.902 738.774 704.332 738.634C703.762 738.484 703.202 738.174 702.662 737.694C702.132 737.224 701.732 736.684 701.472 736.084C701.192 735.474 701.032 734.794 701.022 734.084C701.012 733.384 701.112 732.604 701.362 731.814C701.612 731.024 702.012 730.184 702.552 729.354L707.142 722.154L718.932 732.634L717.512 734.854L712.652 730.534L709.832 734.964ZM703.412 731.644C703.242 732.114 703.152 732.534 703.122 732.984C703.112 733.404 703.172 733.824 703.332 734.224C703.492 734.624 703.772 734.984 704.172 735.334C704.562 735.684 704.942 735.904 705.302 735.974C705.682 736.024 706.062 735.954 706.432 735.814C706.782 735.624 707.152 735.334 707.512 734.964C707.872 734.564 708.232 734.084 708.582 733.524L711.272 729.314L707.102 725.604L704.102 730.304C703.822 730.744 703.592 731.194 703.412 731.644Z" fill="white"/>
<path d="M674.622 769.164L684.022 779.874L690.272 771.654L680.872 760.944L682.442 758.874L693.092 770.994L683.702 783.354L673.052 771.234L674.622 769.164Z" fill="white"/>
<path d="M659.032 797.384C658.712 796.694 658.472 795.984 658.312 795.204C658.152 794.424 658.052 793.644 658.052 792.824C658.052 791.994 658.162 791.144 658.382 790.304C658.582 789.444 658.892 788.594 659.322 787.744C659.752 786.894 660.312 786.064 661.002 785.244C661.672 784.444 662.382 783.784 663.092 783.294C663.782 782.824 664.492 782.474 665.192 782.264C665.862 782.064 666.542 781.984 667.202 782.034C667.872 782.064 668.512 782.214 669.102 782.484C669.712 782.724 670.262 783.074 670.812 783.494C671.332 783.924 671.802 784.424 672.232 784.994C673.002 786.014 673.552 787.094 673.922 788.274C674.272 789.444 674.432 790.644 674.382 791.834C674.312 793.044 674.032 794.274 673.532 795.484C673.032 796.724 672.312 797.894 671.352 799.014C670.402 800.134 669.412 800.994 668.412 801.524C667.402 802.094 666.422 802.354 665.452 802.364C664.482 802.374 663.552 802.094 662.642 801.574C661.722 801.044 660.892 800.294 660.122 799.274C659.702 798.704 659.322 798.074 659.032 797.384ZM663.702 799.114C664.382 799.544 665.102 799.764 665.822 799.814C666.562 799.844 667.302 799.654 668.032 799.274C668.792 798.894 669.512 798.294 670.202 797.474C670.892 796.654 671.422 795.794 671.772 794.874C672.112 793.984 672.312 793.074 672.312 792.164C672.332 791.244 672.202 790.334 671.902 789.444C671.602 788.564 671.152 787.714 670.572 786.944C669.972 786.144 669.332 785.514 668.682 785.074C668.002 784.644 667.292 784.404 666.572 784.354C665.852 784.304 665.122 784.514 664.382 784.864C663.632 785.264 662.902 785.884 662.152 786.764C661.412 787.644 660.862 788.524 660.502 789.424C660.152 790.354 659.952 791.244 659.942 792.154C659.932 793.054 660.102 793.924 660.422 794.794C660.712 795.654 661.172 796.484 661.782 797.294C662.362 798.074 663.012 798.684 663.702 799.114Z" fill="white"/>
<path d="M630.952 818.124L638.542 830.904L645.632 823.844L638.042 811.064L639.822 809.294L648.412 823.774L637.762 834.384L629.172 819.904L630.952 818.124Z" fill="white"/>
<path d="M621.812 848.564C621.152 848.814 620.542 848.924 619.982 848.874C619.422 848.824 618.912 848.594 618.462 848.194C617.992 847.814 617.612 847.284 617.262 846.604C616.912 845.924 616.692 845.264 616.602 844.534C616.492 843.824 616.522 843.114 616.692 842.404C616.852 841.674 617.162 840.964 617.592 840.264C618.042 839.554 618.642 838.854 619.412 838.174L623.382 834.624L620.152 828.294L622.002 826.634L629.772 841.894L623.962 847.104C623.182 847.794 622.472 848.274 621.812 848.564ZM618.742 842.374C618.542 843.234 618.662 844.084 619.102 844.954C619.542 845.824 620.092 846.294 620.772 846.364C621.422 846.434 622.252 846.024 623.232 845.144L627.002 841.764L624.272 836.404L620.502 839.784C619.532 840.674 618.932 841.544 618.742 842.374Z" fill="white"/>
<path d="M594.162 858.214C593.982 857.424 593.882 856.634 593.872 855.804C593.862 854.974 593.912 854.154 594.062 853.324C594.212 852.484 594.462 851.654 594.822 850.864C595.162 850.054 595.612 849.274 596.172 848.534C596.732 847.784 597.402 847.104 598.192 846.474C598.972 845.854 599.752 845.384 600.502 845.084C601.232 844.794 601.972 844.634 602.652 844.624C603.312 844.604 603.972 844.704 604.582 844.944C605.212 845.164 605.782 845.484 606.282 845.924C606.812 846.344 607.262 846.844 607.702 847.424C608.112 847.994 608.462 848.644 608.762 849.334C609.302 850.584 609.622 851.824 609.752 853.124C609.872 854.404 609.802 855.664 609.542 856.854C609.262 858.064 608.772 859.234 608.092 860.314C607.402 861.434 606.512 862.414 605.412 863.284C604.322 864.154 603.232 864.754 602.202 865.004C601.152 865.304 600.192 865.294 599.272 865.034C598.362 864.774 597.542 864.234 596.782 863.464C596.012 862.674 595.372 861.684 594.842 860.434C594.542 859.734 594.312 858.994 594.162 858.214ZM598.222 861.264C598.782 861.894 599.422 862.314 600.092 862.564C600.782 862.794 601.512 862.814 602.262 862.634C603.042 862.464 603.822 862.044 604.622 861.414C605.422 860.784 606.072 860.054 606.562 859.214C607.042 858.414 607.392 857.534 607.562 856.624C607.752 855.694 607.792 854.734 607.662 853.754C607.532 852.774 607.272 851.794 606.872 850.854C606.452 849.874 605.962 849.064 605.432 848.444C604.872 847.814 604.252 847.374 603.582 847.134C602.912 846.884 602.192 846.894 601.432 847.054C600.662 847.254 599.862 847.684 599.002 848.364C598.142 849.044 597.482 849.794 596.972 850.614C596.482 851.454 596.122 852.314 595.952 853.224C595.782 854.134 595.782 855.064 595.932 856.024C596.052 856.984 596.332 857.954 596.752 858.934C597.162 859.844 597.662 860.634 598.222 861.264Z" fill="white"/>
<path d="M587.832 873.624L582.482 858.934L584.442 857.534L590.492 874.174L581.872 880.314L581.162 878.364L587.832 873.624Z" fill="white"/>
<path d="M565.772 890.454C565.112 890.564 564.502 890.544 563.982 890.374C563.452 890.194 563.002 889.854 562.622 889.354C562.222 888.864 561.932 888.244 561.702 887.484C561.472 886.724 561.342 885.994 561.362 885.244C561.362 884.504 561.492 883.794 561.752 883.104C562.012 882.394 562.402 881.744 562.912 881.134C563.442 880.514 564.112 879.934 564.952 879.404L569.242 876.664L567.062 869.534L569.062 868.254L574.312 885.424L568.022 889.434C567.202 889.974 566.452 890.314 565.772 890.454ZM563.722 883.504C563.402 884.334 563.402 885.224 563.702 886.204C564.002 887.184 564.462 887.784 565.102 888.004C565.712 888.214 566.562 887.984 567.632 887.304L571.712 884.694L569.872 878.664L565.792 881.264C564.722 881.954 564.032 882.714 563.722 883.504Z" fill="white"/>
<path d="M537.762 886.904L540.032 885.634L542.982 890.164L548.972 886.824L549.332 880.454L551.482 879.254L550.192 900.424L547.732 901.794L537.762 886.904ZM544.012 891.724L548.262 898.304L548.902 889.004L544.012 891.724Z" fill="white"/>
<path d="M524.092 896.844L522.542 914.254L519.562 915.664L516.192 897.434L518.132 896.514L520.962 911.844L521.002 911.824L522.532 894.424L524.602 893.444L531.792 906.714L531.832 906.694L529.002 891.364L530.942 890.444L534.312 908.674L531.332 910.084L524.112 896.834L524.092 896.844Z" fill="white"/>
<path d="M500.862 906.814L498.332 924.254L495.312 925.414L493.042 906.714L495.012 905.954L496.922 921.684L496.962 921.664L499.472 904.234L501.572 903.424L507.902 917.444L507.942 917.424L506.032 901.694L508.002 900.934L510.272 919.634L507.252 920.794L500.902 906.774L500.862 906.814Z" fill="white"/>
<path d="M482.832 913.824L475.782 931.684L473.342 932.424L472.122 913.374L474.232 912.734L475.232 928.234L475.272 928.224L482.312 910.284L484.752 909.544L485.972 928.594L483.862 929.234L482.872 913.814L482.832 913.824Z" fill="white"/>
<path d="M455.082 936.524C454.462 936.364 453.922 936.114 453.502 935.724C453.072 935.334 452.762 934.814 452.552 934.164C452.322 933.514 452.222 932.784 452.212 931.924C452.202 931.064 452.282 930.294 452.492 929.534C452.682 928.794 452.982 928.124 453.392 927.544C453.802 926.934 454.332 926.444 454.942 926.034C455.582 925.614 456.332 925.314 457.212 925.114L461.762 924.074L461.652 916.064L463.772 915.584L464.032 934.894L457.362 936.414C456.472 936.604 455.722 936.644 455.082 936.524ZM455.042 928.734C454.542 929.444 454.312 930.334 454.322 931.434C454.332 932.534 454.592 933.314 455.102 933.794C455.592 934.244 456.412 934.354 457.542 934.104L461.872 933.114L461.782 926.334L457.452 927.324C456.332 927.574 455.522 928.064 455.042 928.734Z" fill="white"/>
<path d="M429.272 929.264C429.442 928.404 429.662 927.584 429.982 926.784C430.302 925.984 430.652 925.224 431.102 924.504C431.552 923.784 432.072 923.144 432.662 922.594C433.252 922.014 433.912 921.544 434.652 921.164C435.392 920.784 436.192 920.524 437.072 920.394C437.932 920.264 438.742 920.274 439.462 920.434C440.162 920.594 440.802 920.874 441.362 921.284C441.892 921.664 442.382 922.154 442.772 922.744C443.192 923.324 443.512 923.984 443.752 924.704C444.012 925.424 444.182 926.174 444.302 926.994C444.402 927.784 444.442 928.624 444.402 929.464C444.342 930.984 444.112 932.374 443.712 933.704C443.312 935.004 442.762 936.174 442.092 937.164C441.392 938.164 440.552 938.994 439.582 939.624C438.592 940.284 437.502 940.694 436.292 940.884C435.082 941.064 433.982 940.994 433.052 940.614C432.102 940.274 431.332 939.684 430.702 938.894C430.072 938.094 429.632 937.084 429.322 935.894C429.022 934.674 428.892 933.344 428.952 931.824C428.982 930.954 429.082 930.104 429.272 929.264ZM431.322 934.624C431.532 935.564 431.872 936.354 432.312 936.984C432.772 937.614 433.342 938.064 434.012 938.344C434.702 938.644 435.492 938.714 436.372 938.584C437.252 938.454 438.052 938.144 438.782 937.624C439.482 937.144 440.102 936.504 440.592 935.734C441.102 934.954 441.512 934.054 441.792 933.044C442.072 932.034 442.242 930.924 442.292 929.784C442.342 928.594 442.272 927.524 442.082 926.604C441.872 925.664 441.552 924.874 441.122 924.234C440.692 923.594 440.112 923.174 439.442 922.864C438.752 922.594 437.942 922.524 436.992 922.664C436.042 922.804 435.222 923.124 434.502 923.614C433.782 924.124 433.162 924.734 432.672 925.514C432.182 926.294 431.822 927.184 431.562 928.194C431.282 929.184 431.132 930.284 431.082 931.484C431.022 932.614 431.122 933.684 431.322 934.624Z" fill="white"/>
<path d="M412.772 942.924C412.312 942.904 411.882 942.854 411.482 942.744C411.122 942.634 410.762 942.474 410.432 942.254C410.122 942.034 409.872 941.724 409.642 941.364C409.412 941.004 409.252 940.554 409.142 940.074C409.052 939.564 409.022 938.994 409.082 938.344C409.112 938.014 409.192 937.634 409.292 937.244C409.412 936.854 409.562 936.464 409.742 936.074C409.952 935.684 410.182 935.314 410.492 934.984C410.792 934.604 411.142 934.344 411.552 934.094C411.232 933.984 410.922 933.814 410.612 933.624C410.302 933.404 410.022 933.124 409.772 932.764C409.542 932.404 409.362 931.954 409.212 931.444C409.082 930.914 409.052 930.264 409.122 929.524C409.162 929.084 409.242 928.644 409.352 928.204C409.482 927.704 409.652 927.254 409.862 926.834C410.102 926.384 410.372 925.954 410.692 925.554C411.012 925.154 411.392 924.794 411.812 924.494C412.252 924.164 412.732 923.914 413.282 923.704C413.832 923.494 414.442 923.374 415.122 923.324L421.772 922.834L420.032 942.454L414.392 942.874C413.782 942.904 413.232 942.914 412.772 942.924ZM413.472 925.964C412.992 926.164 412.602 926.404 412.272 926.764C411.962 927.054 411.732 927.454 411.562 927.874C411.392 928.294 411.282 928.764 411.242 929.284C411.192 929.804 411.222 930.264 411.312 930.664C411.412 931.064 411.572 931.434 411.832 931.714C412.112 931.994 412.462 932.184 412.912 932.314C413.382 932.444 413.942 932.484 414.622 932.434L418.862 932.124L419.472 925.294L415.232 925.604C414.552 925.634 413.972 925.764 413.472 925.964ZM413.032 934.904C412.602 935.104 412.252 935.364 411.982 935.664C411.742 935.954 411.552 936.294 411.432 936.684C411.332 937.074 411.252 937.484 411.212 937.924C411.172 938.384 411.182 938.794 411.252 939.144C411.352 939.484 411.502 939.774 411.742 940.004C411.962 940.264 412.292 940.424 412.702 940.504C413.102 940.614 413.602 940.654 414.202 940.614L418.132 940.324L418.672 934.254L414.742 934.544C414.042 934.584 413.482 934.704 413.032 934.904Z" fill="white"/>
<path d="M389.272 923.964H391.602L392.432 929.984L398.572 929.994L401.142 923.974H403.342L394.752 943.924H392.222L389.272 923.964ZM392.742 932.064L393.922 940.794L397.752 932.064H392.742Z" fill="white"/>
<path d="M369.972 934.374L368.472 942.454L366.412 942.294L370.062 922.684L372.122 922.844L370.402 932.074L378.612 932.724L380.332 923.494L382.392 923.654L378.752 943.264L376.692 943.104L378.192 935.014L369.972 934.374Z" fill="white"/>
<path d="M359.072 925.094L347.632 939.614L345.282 939.234L349.892 919.744L351.922 920.074L348.172 935.924L348.212 935.934L359.672 921.334L362.022 921.714L357.412 941.204L355.382 940.874L359.112 925.104L359.072 925.094Z" fill="white"/>
<path d="M334.512 927.904C334.052 929.234 333.482 930.414 332.812 931.424C332.152 932.434 331.402 933.254 330.602 933.884C329.802 934.514 328.912 934.944 327.942 935.154C326.992 935.364 325.982 935.334 324.902 935.054C323.772 934.764 322.832 934.254 322.112 933.524C321.372 932.814 320.852 931.924 320.512 930.884C320.172 929.844 320.062 928.654 320.112 927.344C320.172 926.004 320.422 924.624 320.872 923.124C321.122 922.294 321.422 921.474 321.762 920.694C322.132 919.894 322.542 919.164 323.012 918.474C323.482 917.784 323.992 917.164 324.562 916.624C325.142 916.084 325.762 915.634 326.412 915.314C327.072 914.964 327.782 914.744 328.522 914.644C329.282 914.554 330.062 914.614 330.872 914.824C331.632 915.024 332.302 915.314 332.852 915.714C333.432 916.094 333.882 916.584 334.262 917.124C334.642 917.654 334.952 918.254 335.152 918.914C335.362 919.574 335.502 920.274 335.552 921.014C335.642 921.764 335.622 922.504 335.562 923.304C335.482 924.094 335.362 924.874 335.182 925.664L337.512 926.264L340.032 917.734L342.012 918.244L336.332 937.514L334.352 937.004L336.852 928.524L334.512 927.904ZM322.242 926.884C322.202 927.914 322.292 928.834 322.512 929.644C322.742 930.454 323.112 931.134 323.622 931.664C324.142 932.234 324.792 932.604 325.552 932.804C326.332 933.004 327.092 933.004 327.832 932.764C328.562 932.554 329.252 932.154 329.892 931.564C330.532 930.984 331.102 930.234 331.622 929.324C332.152 928.424 332.592 927.384 332.932 926.254C333.282 925.074 333.472 923.964 333.502 922.964C333.542 921.934 333.452 921.014 333.212 920.204C332.982 919.394 332.602 918.744 332.102 918.184C331.612 917.654 330.972 917.284 330.202 917.084C329.312 916.854 328.492 916.844 327.772 917.054C327.012 917.294 326.352 917.664 325.732 918.254C325.112 918.844 324.562 919.594 324.092 920.514C323.632 921.404 323.212 922.454 322.862 923.634C322.522 924.754 322.302 925.854 322.242 926.884Z" fill="white"/>
<path d="M290.602 922.654L287.962 921.574L296.742 916.404L294.962 902.734L297.382 903.724L298.762 915.224L302.162 913.234L304.652 906.694L306.542 907.464L299.382 926.234L297.492 925.464L300.982 916.314L290.602 922.654Z" fill="white"/>
<path d="M286.382 901.364C286.302 901.224 286.212 901.124 286.112 900.974L285.762 900.614C285.642 900.524 285.512 900.434 285.382 900.364C285.112 900.234 284.842 900.154 284.592 900.154C284.352 900.164 284.132 900.204 283.902 900.304C283.692 900.414 283.482 900.524 283.282 900.714C283.082 900.894 282.932 901.094 282.772 901.304L282.002 918.864L279.862 917.794L280.622 903.314L271.892 913.794L269.832 912.764L280.092 901.144C280.782 900.404 281.412 899.754 281.942 899.234C282.502 898.704 282.992 898.324 283.472 898.064C283.952 897.804 284.432 897.674 284.892 897.684C285.362 897.674 285.852 897.824 286.392 898.094C286.682 898.234 286.922 898.424 287.142 898.664C287.362 898.904 287.522 899.134 287.582 899.354L286.552 901.734C286.522 901.624 286.462 901.494 286.382 901.364Z" fill="white"/>
<path d="M255.952 904.174C255.572 903.584 255.302 902.974 255.172 902.314C255.042 901.654 255.052 900.944 255.202 900.194C255.332 899.434 255.602 898.684 255.992 897.884C256.382 897.084 256.802 896.424 257.302 895.884C257.782 895.334 258.312 894.934 258.882 894.694C259.462 894.434 260.072 894.344 260.712 894.404C261.372 894.474 262.052 894.724 262.792 895.174L266.582 897.454L270.222 890.004L271.992 891.064L263.222 909.034L257.662 905.684C256.932 905.244 256.362 904.744 255.952 904.174ZM259.542 896.984C258.852 897.284 258.272 897.934 257.772 898.954C257.272 899.984 257.092 900.874 257.252 901.684C257.402 902.454 257.942 903.134 258.882 903.704L262.492 905.874L265.572 899.574L261.962 897.404C261.012 896.834 260.202 896.694 259.542 896.984Z" fill="white"/>
<path d="M251.082 885.674C251.372 884.664 251.502 883.704 251.462 882.834C251.442 881.934 251.252 881.164 250.922 880.454C250.602 879.744 250.132 879.174 249.512 878.734C248.962 878.344 248.422 878.124 247.822 878.104C247.252 878.074 246.692 878.144 246.162 878.364C245.592 878.604 245.082 878.914 244.592 879.304C244.112 879.734 243.662 880.194 243.292 880.744L241.652 879.574C241.962 879.084 242.322 878.624 242.732 878.184C243.162 877.754 243.602 877.354 244.082 877.014C244.562 876.674 245.062 876.394 245.602 876.174C246.122 875.934 246.672 875.784 247.242 875.724C247.802 875.684 248.372 875.724 248.942 875.884C249.502 876.014 250.072 876.284 250.632 876.684C251.022 876.964 251.402 877.294 251.772 877.734C252.162 878.144 252.492 878.654 252.772 879.224C253.082 879.784 253.282 880.434 253.452 881.164C253.612 881.894 253.662 882.704 253.602 883.574C253.542 884.444 253.352 885.424 253.032 886.444C252.732 887.484 252.232 888.614 251.582 889.804C250.942 890.974 250.272 891.974 249.602 892.784C248.932 893.594 248.272 894.234 247.602 894.734C246.942 895.214 246.292 895.554 245.642 895.764C245.002 895.984 244.392 896.084 243.772 896.084C243.172 896.064 242.592 895.954 242.052 895.774C241.512 895.554 240.992 895.284 240.532 894.964C239.952 894.544 239.472 894.074 239.102 893.604C238.722 893.094 238.412 892.574 238.172 892.024C237.962 891.464 237.832 890.904 237.752 890.334C237.672 889.764 237.632 889.204 237.672 888.654C237.702 888.104 237.802 887.564 237.942 887.054C238.072 886.544 238.232 886.074 238.442 885.654L240.102 886.834C239.902 887.474 239.782 888.094 239.752 888.684C239.722 889.274 239.752 889.834 239.912 890.354C240.052 890.864 240.252 891.344 240.532 891.774C240.842 892.194 241.192 892.584 241.612 892.884C242.262 893.354 242.942 893.594 243.652 893.634C244.332 893.684 245.062 893.524 245.762 893.184C246.482 892.814 247.182 892.304 247.852 891.564C248.522 890.824 249.182 889.904 249.762 888.834C250.352 887.764 250.802 886.684 251.082 885.674Z" fill="white"/>
<path d="M228.442 859.624L218.032 876.414L216.432 875.044L226.842 858.264L228.442 859.624ZM228.122 874.444C227.402 873.834 226.862 873.184 226.472 872.504C226.082 871.814 225.852 871.114 225.782 870.414C225.692 869.694 225.762 868.964 225.972 868.214C226.182 867.464 226.522 866.714 227.002 865.944C227.462 865.194 227.972 864.584 228.502 864.144C229.042 863.674 229.632 863.354 230.202 863.204C230.772 863.054 231.392 863.044 232.012 863.204C232.622 863.364 233.242 863.724 233.842 864.234L239.022 868.654L228.612 885.434L227.012 884.074L231.302 877.154L228.122 874.444ZM231.842 865.744C231.482 865.614 231.152 865.584 230.792 865.634C230.442 865.694 230.092 865.854 229.742 866.134C229.392 866.404 229.052 866.834 228.702 867.394C228.352 867.954 228.112 868.464 228.002 868.934C227.902 869.424 227.902 869.884 227.952 870.324C228.052 870.734 228.232 871.134 228.482 871.524C228.762 871.904 229.092 872.264 229.492 872.604L232.522 875.194L236.202 869.254L232.822 866.364C232.512 866.104 232.182 865.894 231.842 865.744Z" fill="white"/>
<path d="M205.562 836.574L195.332 850.394L201.102 856.714L211.332 842.894L212.782 844.484L201.202 860.134L192.542 850.644L204.122 834.994L205.562 836.574Z" fill="white"/>
<path d="M184.872 822.304C185.482 821.774 186.102 821.334 186.762 820.984C187.422 820.634 188.072 820.364 188.752 820.214C189.432 820.054 190.112 820.034 190.762 820.154C191.432 820.244 192.082 820.474 192.712 820.864C193.342 821.254 193.932 821.794 194.492 822.504C195.042 823.204 195.472 823.974 195.762 824.764C196.042 825.544 196.222 826.374 196.282 827.214C196.342 828.014 196.302 828.864 196.162 829.694C196.032 830.554 195.812 831.374 195.502 832.164C195.202 832.974 194.842 833.734 194.402 834.504C193.972 835.234 193.492 835.924 192.962 836.574C192.002 837.734 191.042 838.624 190.012 839.304C189.002 839.964 187.992 840.384 187.032 840.544C186.052 840.694 185.082 840.564 184.172 840.164C183.232 839.764 182.392 839.074 181.622 838.094C180.852 837.104 180.302 836.024 180.022 834.864C179.712 833.704 179.652 832.524 179.792 831.304C179.932 830.084 180.312 828.864 180.872 827.624C181.452 826.364 182.192 825.184 183.152 824.034C183.692 823.384 184.262 822.804 184.872 822.304ZM182.732 828.494C182.272 829.434 181.982 830.384 181.832 831.294C181.692 832.224 181.732 833.124 181.932 833.974C182.122 834.854 182.512 835.644 183.072 836.364C183.632 837.084 184.262 837.584 184.962 837.844C185.632 838.114 186.352 838.184 187.092 838.014C187.842 837.874 188.612 837.534 189.382 836.984C190.152 836.434 190.922 835.714 191.632 834.844C192.382 833.934 192.992 833.014 193.452 832.114C193.912 831.174 194.222 830.244 194.362 829.334C194.512 828.424 194.462 827.544 194.282 826.674C194.072 825.814 193.672 825.004 193.072 824.234C192.472 823.464 191.832 822.944 191.142 822.664C190.442 822.404 189.732 822.314 188.992 822.474C188.252 822.634 187.512 823.004 186.762 823.574C186.012 824.104 185.262 824.834 184.502 825.754C183.792 826.614 183.192 827.554 182.732 828.494Z" fill="white"/>
<path d="M172.232 790.884L160.592 802.814L165.282 810.404L176.922 798.474L178.102 800.384L164.912 813.894L157.872 802.494L171.062 788.984L172.232 790.884Z" fill="white"/>
<path d="M148.742 785.104C148.642 784.324 148.642 783.574 148.772 782.864C148.902 782.154 149.172 781.474 149.562 780.824C149.952 780.154 150.432 779.584 151.052 779.014C151.662 778.454 152.242 778.044 152.852 777.794C153.452 777.524 154.022 777.434 154.582 777.514C155.152 777.574 155.692 777.834 156.192 778.244C156.702 778.674 157.182 779.304 157.622 780.144L159.912 784.464L165.592 779.224L166.662 781.234L152.962 793.854L149.602 787.524C149.152 786.694 148.872 785.884 148.742 785.104ZM154.292 780.094C153.612 779.994 152.902 780.314 152.122 781.034C151.342 781.754 150.872 782.534 150.712 783.404C150.552 784.234 150.762 785.204 151.322 786.274L153.502 790.384L158.312 785.954L156.132 781.844C155.552 780.764 154.932 780.184 154.292 780.094Z" fill="white"/>
<path d="M145.112 752.164C145.782 751.794 146.442 751.524 147.122 751.354C147.802 751.184 148.462 751.094 149.132 751.124C149.792 751.154 150.432 751.324 151.032 751.614C151.642 751.894 152.212 752.304 152.732 752.874C153.252 753.444 153.712 754.154 154.112 755.034C154.502 755.894 154.762 756.794 154.892 757.684C155.012 758.554 155.032 759.444 154.932 760.304C154.842 761.134 154.662 761.974 154.372 762.784C154.092 763.614 153.742 764.384 153.312 765.104C152.892 765.844 152.402 766.514 151.862 767.174C151.332 767.794 150.752 768.364 150.132 768.864C149.022 769.774 147.962 770.404 146.872 770.814C145.802 771.204 144.792 771.354 143.852 771.244C142.902 771.114 142.022 770.724 141.242 770.074C140.432 769.414 139.772 768.474 139.222 767.264C138.672 766.054 138.362 764.804 138.302 763.544C138.222 762.284 138.382 761.064 138.732 759.874C139.082 758.674 139.662 757.544 140.412 756.444C141.182 755.324 142.092 754.344 143.192 753.434C143.802 752.934 144.452 752.494 145.112 752.164ZM141.982 757.844C141.382 758.674 140.932 759.554 140.632 760.434C140.342 761.344 140.212 762.264 140.242 763.174C140.262 764.124 140.482 765.024 140.882 765.914C141.282 766.794 141.772 767.474 142.392 767.934C142.972 768.394 143.642 768.664 144.362 768.704C145.092 768.764 145.872 768.634 146.692 768.294C147.512 767.954 148.362 767.434 149.192 766.754C150.062 766.044 150.802 765.284 151.392 764.494C151.992 763.664 152.452 762.814 152.752 761.924C153.052 761.044 153.162 760.134 153.152 759.214C153.112 758.284 152.882 757.354 152.452 756.404C152.022 755.454 151.522 754.754 150.932 754.274C150.322 753.814 149.672 753.524 148.952 753.484C148.232 753.444 147.472 753.614 146.662 753.984C145.862 754.314 145.022 754.844 144.152 755.564C143.322 756.234 142.582 757.014 141.982 757.844Z" fill="white"/>
<path d="M133.472 747.074L146.332 737.604L147.172 739.804L132.612 750.524L128.912 740.844L130.612 739.594L133.472 747.074Z" fill="white"/>
<path d="M123.102 722.494C123.112 721.684 123.222 720.924 123.452 720.224C123.682 719.524 124.032 718.894 124.502 718.324C124.962 717.734 125.512 717.254 126.172 716.814C126.832 716.374 127.442 716.084 128.062 715.974C128.672 715.834 129.232 715.864 129.752 716.064C130.292 716.254 130.762 716.634 131.182 717.164C131.612 717.714 131.972 718.454 132.282 719.404L133.852 724.284L140.032 720.214L140.762 722.494L125.882 732.304L123.572 725.144C123.272 724.194 123.122 723.324 123.102 722.494ZM129.112 718.614C128.482 718.374 127.752 718.534 126.902 719.094C126.052 719.654 125.492 720.334 125.212 721.184C124.942 721.994 125.002 723.024 125.392 724.234L126.892 728.884L132.112 725.444L130.612 720.794C130.232 719.584 129.722 718.854 129.112 718.614Z" fill="white"/>
<path d="M130.352 686.634L131.042 689.254L126.882 693.804L128.692 700.704L133.852 699.964L134.502 702.434L117.362 704.774L116.622 701.934L130.352 686.634ZM125.432 695.394L119.382 701.964L126.902 701.024L125.432 695.394Z" fill="white"/>
<path d="M124.352 671.334L110.342 672.644L109.652 669.164L125.092 661.524L125.542 663.794L112.552 670.224L112.562 670.274L126.572 668.944L127.052 671.364L115.082 682.884L115.092 682.934L128.082 676.504L128.532 678.774L113.092 686.414L112.402 682.934L124.372 671.394L124.352 671.334Z" fill="white"/>
<path d="M119.772 644.014L105.892 644.104L105.402 640.534L121.052 634.174L121.372 636.504L108.202 641.854L108.212 641.904L122.092 641.784L122.432 644.274L109.972 654.854L109.982 654.904L123.152 649.554L123.472 651.884L107.822 658.244L107.332 654.674L119.782 644.074L119.772 644.014Z" fill="white"/>
<path d="M116.822 622.644L103.292 617.134L103.062 614.204L118.852 609.094L119.052 611.634L106.212 615.784V615.834L119.802 621.324L120.032 624.254L104.242 629.364L104.042 626.824L116.812 622.694L116.822 622.644Z" fill="white"/>
<path d="M102.532 592.034C102.752 591.224 103.042 590.504 103.432 589.894C103.822 589.284 104.292 588.794 104.862 588.414C105.432 588.004 106.042 587.744 106.752 587.564C107.462 587.384 108.082 587.344 108.662 587.464C109.242 587.564 109.742 587.814 110.152 588.224C110.582 588.634 110.912 589.194 111.152 589.894C111.392 590.614 111.532 591.504 111.552 592.574L111.702 598.094L118.282 596.464L118.352 599.034L102.502 602.974L102.282 594.874C102.252 593.804 102.332 592.864 102.532 592.034ZM108.922 590.524C108.422 590.024 107.732 589.904 106.822 590.124C105.922 590.354 105.242 590.814 104.772 591.554C104.322 592.254 104.112 593.314 104.142 594.674L104.282 599.924L109.842 598.544L109.702 593.284C109.662 591.934 109.402 591.004 108.922 590.524Z" fill="white"/>
<path d="M112.472 558.224C113.152 558.274 113.782 558.404 114.392 558.654C115.002 558.904 115.562 559.204 116.082 559.634C116.602 560.054 117.052 560.604 117.402 561.244C117.782 561.884 118.072 562.614 118.272 563.464C118.472 564.324 118.552 565.274 118.532 566.364C118.502 567.424 118.372 568.444 118.132 569.374C117.892 570.284 117.562 571.144 117.142 571.914C116.752 572.654 116.272 573.364 115.732 573.964C115.192 574.594 114.602 575.134 113.972 575.564C113.342 576.024 112.702 576.374 112.012 576.684C111.342 576.964 110.662 577.164 109.972 577.274C108.732 577.484 107.632 577.454 106.612 577.204C105.612 576.944 104.742 576.474 104.032 575.814C103.322 575.124 102.772 574.224 102.402 573.124C102.012 572.004 101.842 570.714 101.882 569.214C101.922 567.724 102.152 566.334 102.602 565.094C103.032 563.834 103.632 562.754 104.382 561.824C105.132 560.884 106.032 560.134 107.052 559.534C108.102 558.924 109.212 558.514 110.442 558.304C111.132 558.184 111.812 558.154 112.472 558.224ZM107.762 561.814C106.962 562.244 106.262 562.824 105.672 563.494C105.082 564.194 104.622 564.994 104.292 565.894C103.942 566.814 103.762 567.824 103.732 568.904C103.702 569.984 103.832 570.934 104.142 571.744C104.432 572.534 104.852 573.184 105.412 573.654C105.972 574.154 106.642 574.494 107.432 574.654C108.222 574.814 109.102 574.824 110.022 574.664C110.992 574.494 111.882 574.214 112.662 573.804C113.462 573.374 114.162 572.814 114.752 572.154C115.342 571.484 115.782 570.684 116.132 569.784C116.462 568.864 116.642 567.834 116.672 566.664C116.702 565.494 116.572 564.524 116.282 563.704C115.972 562.894 115.572 562.234 115.012 561.764C114.452 561.294 113.782 561.004 112.992 560.874C112.222 560.714 111.342 560.724 110.372 560.894C109.452 561.064 108.562 561.374 107.762 561.814Z" fill="white"/>
<path d="M103.842 540.064C103.932 539.484 104.032 538.934 104.182 538.404C104.332 537.934 104.512 537.454 104.752 536.994C104.982 536.564 105.272 536.184 105.602 535.834C105.932 535.474 106.322 535.194 106.742 534.974C107.172 534.774 107.642 534.614 108.172 534.574C108.432 534.554 108.742 534.574 109.042 534.624C109.342 534.704 109.642 534.814 109.932 534.974C110.222 535.164 110.492 535.384 110.702 535.714C110.962 536.014 111.132 536.404 111.272 536.884C111.412 536.464 111.602 536.044 111.802 535.614C112.032 535.184 112.302 534.784 112.632 534.394C112.962 534.034 113.362 533.734 113.792 533.444C114.252 533.184 114.782 533.024 115.382 532.974C115.732 532.944 116.082 532.964 116.432 533.014C116.822 533.084 117.162 533.214 117.472 533.404C117.802 533.614 118.112 533.884 118.392 534.214C118.672 534.544 118.902 534.954 119.082 535.424C119.282 535.924 119.422 536.474 119.502 537.114C119.582 537.754 119.592 538.514 119.532 539.364L118.902 547.634L103.112 549.114L103.642 542.104C103.712 541.324 103.782 540.634 103.842 540.064ZM110.372 538.884C110.282 538.374 110.112 537.984 109.912 537.704C109.712 537.454 109.462 537.284 109.162 537.204C108.862 537.154 108.532 537.124 108.182 537.164C107.812 537.194 107.472 537.284 107.182 537.444C106.882 537.634 106.622 537.874 106.402 538.224C106.162 538.544 105.972 538.994 105.842 539.524C105.692 540.054 105.582 540.684 105.522 541.424L105.152 546.304L110.032 545.844L110.402 540.964C110.482 540.094 110.472 539.414 110.372 538.884ZM117.622 537.764C117.532 537.204 117.392 536.754 117.162 536.394C116.972 536.064 116.682 535.844 116.362 535.704C116.042 535.574 115.682 535.524 115.262 535.564C114.842 535.604 114.462 535.724 114.122 535.914C113.782 536.114 113.452 536.384 113.182 536.764C112.912 537.164 112.702 537.644 112.522 538.234C112.342 538.844 112.222 539.564 112.162 540.404L111.762 545.674L117.262 545.154L117.662 539.884C117.722 539.054 117.712 538.354 117.622 537.764Z" fill="white"/>
<path d="M123.002 506.964L122.642 509.894L117.582 512.064L116.622 519.784L121.152 521.884L120.812 524.644L105.812 517.594L106.202 514.424L123.002 506.964ZM115.832 512.834L108.502 515.954L115.052 519.134L115.832 512.834Z" fill="white"/>
<path d="M117.472 484.694L111.082 484.314L111.532 481.694L127.022 482.604L126.572 485.234L119.282 484.804L117.472 495.244L124.762 495.674L124.312 498.304L108.822 497.394L109.272 494.764L115.662 495.144L117.472 484.694Z" fill="white"/>
<path d="M126.752 469.224L116.632 457.564L117.302 454.544L132.552 456.684L131.972 459.294L119.572 457.554L119.562 457.604L129.742 469.274L129.072 472.294L113.832 470.154L114.412 467.544L126.752 469.274V469.224Z" fill="white"/>
<path d="M128.262 438.874C127.252 438.544 126.372 438.054 125.642 437.394C124.912 436.764 124.362 435.974 123.972 435.074C123.582 434.174 123.362 433.144 123.342 431.964C123.312 430.804 123.492 429.534 123.892 428.134C124.312 426.654 124.862 425.374 125.582 424.344C126.282 423.274 127.082 422.464 127.992 421.844C128.892 421.224 129.882 420.854 130.952 420.684C132.042 420.514 133.132 420.564 134.292 420.844C134.932 420.994 135.552 421.234 136.142 421.514C136.742 421.824 137.272 422.214 137.762 422.674C138.252 423.134 138.682 423.664 139.042 424.274C139.392 424.904 139.662 425.604 139.832 426.354C140.012 427.114 140.082 427.964 140.052 428.874C140.012 429.814 139.842 430.804 139.542 431.854C139.262 432.854 138.922 433.744 138.502 434.514C138.102 435.314 137.622 435.974 137.132 436.544C136.642 437.114 136.102 437.624 135.522 438.004C134.952 438.384 134.352 438.704 133.742 438.904C133.122 439.154 132.512 439.274 131.872 439.354C131.242 439.404 130.622 439.404 130.002 439.314L129.142 442.354L135.742 443.914L135.012 446.494L120.112 442.964L120.842 440.384L127.402 441.934L128.262 438.874ZM130.992 423.264C130.152 423.414 129.392 423.684 128.692 424.124C127.992 424.564 127.382 425.164 126.862 425.904C126.312 426.664 125.912 427.544 125.632 428.544C125.342 429.564 125.232 430.514 125.312 431.394C125.372 432.274 125.592 433.064 125.972 433.764C126.352 434.454 126.872 435.044 127.542 435.514C128.202 436.014 128.982 436.374 129.852 436.584C130.762 436.804 131.642 436.834 132.462 436.684C133.302 436.534 134.062 436.264 134.772 435.794C135.472 435.354 136.062 434.754 136.602 434.014C137.112 433.304 137.512 432.424 137.792 431.424C138.122 430.264 138.252 429.234 138.192 428.364C138.112 427.454 137.912 426.684 137.522 426.024C137.132 425.354 136.602 424.804 135.922 424.384C135.262 423.974 134.472 423.634 133.562 423.424C132.692 423.214 131.822 423.144 130.992 423.264Z" fill="white"/>
<defs>
<linearGradient id="paint0_linear_56_1306" x1="140.216" y1="407.17" x2="764.152" y2="622.034" gradientUnits="userSpaceOnUse">
<stop stop-color="#3A4BE8"/>
<stop offset="1" stop-color="white" stop-opacity="0"/>
</linearGradient>
</defs>
</svg>
