<svg width="354" height="260" viewBox="0 0 354 260" fill="none" xmlns="http://www.w3.org/2000/svg">
<path d="M184.178 233.663C267.769 228.05 332.407 176.924 328.549 119.47C324.691 62.0151 253.799 19.9892 170.207 25.6022C86.6151 31.2152 21.9781 82.3416 25.836 139.796C29.6939 197.251 100.586 239.276 184.178 233.663Z" stroke="url(#paint0_linear_56_530)" stroke-width="50" stroke-miterlimit="10"/>
<path d="M322.102 85.614L322.582 86.4441L318.872 85.394L316.072 88.4741L315.632 87.7141L318.022 85.144L316.592 84.7341L314.312 85.4241L313.972 84.8241L320.512 82.8441L320.852 83.4441L317.662 84.4141L322.102 85.614Z" fill="white"/>
<path d="M318.132 90.7541C318.122 90.8041 318.122 90.8441 318.112 90.8941L318.122 91.0441C318.132 91.0941 318.142 91.1341 318.162 91.1841C318.202 91.2741 318.262 91.3541 318.332 91.4141C318.402 91.4641 318.472 91.5141 318.562 91.5441C318.652 91.5741 318.732 91.6041 318.832 91.6141C318.932 91.6241 319.022 91.6241 319.112 91.6241L323.572 88.3841L323.912 89.0941L320.202 91.7341L325.172 91.7441L325.502 92.4341L319.822 92.2841C319.452 92.2641 319.112 92.2441 318.842 92.2241C318.562 92.1941 318.332 92.1541 318.132 92.0941C317.932 92.0341 317.772 91.9441 317.642 91.8341C317.502 91.7241 317.402 91.5841 317.322 91.4041C317.272 91.3041 317.252 91.2141 317.252 91.1141C317.242 91.0141 317.262 90.9341 317.292 90.8741L318.162 90.6541C318.152 90.6741 318.142 90.7141 318.132 90.7541Z" fill="white"/>
<path d="M327.332 97.354C327.292 97.554 327.222 97.744 327.102 97.904C326.982 98.064 326.802 98.194 326.582 98.304C326.362 98.424 326.102 98.504 325.802 98.564C325.502 98.624 325.222 98.654 324.952 98.644C324.682 98.634 324.442 98.594 324.222 98.504C323.992 98.414 323.802 98.294 323.642 98.134C323.472 97.964 323.342 97.754 323.242 97.494L322.732 96.164L319.912 96.764L319.672 96.144L326.472 94.704L327.222 96.664C327.322 96.914 327.352 97.144 327.332 97.354ZM324.592 97.914C324.862 98.024 325.182 98.024 325.562 97.944C325.952 97.864 326.212 97.724 326.372 97.534C326.512 97.354 326.532 97.084 326.402 96.754L325.922 95.484L323.532 95.994L324.012 97.264C324.142 97.594 324.332 97.814 324.592 97.914Z" fill="white"/>
<path d="M324.222 102.104C323.892 102.234 323.632 102.394 323.432 102.564C323.222 102.744 323.082 102.944 323.002 103.154C322.922 103.364 322.912 103.594 322.982 103.824C323.042 104.024 323.142 104.194 323.302 104.344C323.452 104.484 323.622 104.604 323.832 104.684C324.052 104.774 324.262 104.834 324.502 104.874C324.742 104.904 324.982 104.914 325.212 104.904L325.392 105.514C325.182 105.534 324.982 105.544 324.752 105.534C324.522 105.514 324.312 105.494 324.092 105.444C323.882 105.394 323.672 105.334 323.462 105.254C323.262 105.174 323.072 105.074 322.892 104.954C322.722 104.834 322.572 104.694 322.452 104.524C322.322 104.364 322.232 104.184 322.172 103.974C322.132 103.824 322.102 103.674 322.112 103.504C322.102 103.334 322.132 103.154 322.192 102.984C322.242 102.804 322.342 102.624 322.472 102.444C322.602 102.264 322.782 102.094 323.012 101.944C323.242 101.784 323.532 101.644 323.862 101.514C324.192 101.384 324.612 101.274 325.082 101.204C325.542 101.124 325.972 101.094 326.352 101.084C326.732 101.084 327.072 101.114 327.382 101.174C327.682 101.234 327.952 101.324 328.182 101.434C328.412 101.544 328.612 101.664 328.782 101.814C328.942 101.964 329.082 102.114 329.182 102.274C329.282 102.444 329.362 102.614 329.412 102.784C329.472 103.004 329.492 103.204 329.482 103.384C329.462 103.574 329.422 103.744 329.362 103.904C329.282 104.064 329.182 104.204 329.072 104.334C328.962 104.464 328.832 104.584 328.692 104.684C328.552 104.784 328.392 104.864 328.232 104.934C328.072 105.004 327.912 105.054 327.752 105.094L327.572 104.474C327.782 104.394 327.962 104.304 328.112 104.194C328.262 104.084 328.392 103.964 328.472 103.834C328.552 103.704 328.612 103.564 328.642 103.414C328.662 103.264 328.652 103.104 328.612 102.944C328.542 102.704 328.412 102.494 328.222 102.314C328.042 102.144 327.802 102.004 327.522 101.904C327.232 101.804 326.912 101.744 326.542 101.724C326.172 101.714 325.772 101.734 325.352 101.804C324.932 101.864 324.542 101.974 324.222 102.104Z" fill="white"/>
<path d="M327.932 109.684C327.982 109.974 327.982 110.224 327.922 110.454C327.862 110.684 327.762 110.874 327.612 111.024C327.462 111.184 327.272 111.314 327.032 111.404C326.792 111.504 326.512 111.564 326.192 111.604C325.882 111.644 325.592 111.644 325.342 111.604C325.082 111.564 324.832 111.494 324.642 111.384C324.442 111.274 324.272 111.134 324.142 110.954C324.012 110.774 323.922 110.564 323.882 110.324L323.502 108.244L330.472 107.414L330.592 108.054L327.722 108.394L327.932 109.684ZM324.262 112.494L331.232 111.664L331.352 112.304L324.382 113.134L324.262 112.494ZM324.792 110.504C324.862 110.614 324.942 110.694 325.062 110.774C325.172 110.844 325.312 110.894 325.472 110.924C325.632 110.954 325.832 110.954 326.062 110.924C326.292 110.894 326.482 110.854 326.632 110.784C326.782 110.714 326.892 110.624 326.982 110.524C327.052 110.424 327.102 110.294 327.122 110.164C327.132 110.024 327.132 109.874 327.102 109.714L326.882 108.494L324.412 108.784L324.662 110.144C324.692 110.284 324.732 110.394 324.792 110.504Z" fill="white"/>
<path d="M325.092 122.354L331.292 122.064L331.202 119.484L325.002 119.774L324.982 119.124L332.002 118.794L332.132 122.674L325.112 123.004L325.092 122.354Z" fill="white"/>
<path d="M327.432 130.004C327.132 129.964 326.852 129.904 326.582 129.814C326.312 129.724 326.062 129.624 325.842 129.494C325.612 129.364 325.422 129.214 325.262 129.034C325.092 128.854 324.972 128.664 324.892 128.434C324.812 128.214 324.772 127.964 324.792 127.694C324.812 127.434 324.872 127.174 324.982 126.954C325.092 126.734 325.242 126.534 325.432 126.354C325.612 126.184 325.822 126.024 326.062 125.894C326.302 125.754 326.562 125.644 326.842 125.564C327.122 125.474 327.412 125.414 327.712 125.364C328.012 125.324 328.312 125.304 328.612 125.304C329.162 125.304 329.642 125.354 330.102 125.464C330.542 125.574 330.922 125.724 331.242 125.924C331.552 126.124 331.792 126.374 331.952 126.664C332.122 126.964 332.192 127.294 332.162 127.664C332.132 128.034 332.032 128.374 331.832 128.664C331.642 128.964 331.372 129.204 331.032 129.414C330.702 129.614 330.302 129.764 329.842 129.874C329.372 129.984 328.882 130.034 328.332 130.044C328.022 130.074 327.722 130.054 327.432 130.004ZM329.532 129.304C329.892 129.224 330.202 129.114 330.462 128.974C330.722 128.824 330.932 128.644 331.082 128.434C331.242 128.214 331.322 127.974 331.342 127.704C331.362 127.434 331.302 127.184 331.172 126.974C331.052 126.764 330.862 126.584 330.622 126.444C330.372 126.294 330.082 126.184 329.732 126.104C329.382 126.034 328.992 125.994 328.582 125.994C328.152 125.994 327.762 126.034 327.412 126.094C327.052 126.174 326.742 126.274 326.482 126.424C326.222 126.564 326.022 126.754 325.862 126.964C325.712 127.184 325.632 127.434 325.612 127.724C325.592 128.014 325.652 128.264 325.772 128.484C325.902 128.704 326.082 128.884 326.322 129.024C326.572 129.164 326.862 129.264 327.212 129.334C327.552 129.404 327.942 129.444 328.372 129.444C328.782 129.414 329.172 129.374 329.532 129.304Z" fill="white"/>
<path d="M323.372 139.094L329.512 139.504L330.032 136.924L323.892 136.514L324.022 135.864L330.982 136.324L330.202 140.204L323.242 139.744L323.372 139.094Z" fill="white"/>
<path d="M328.562 145.744C328.402 145.924 328.222 146.064 328.012 146.174C327.802 146.284 327.562 146.354 327.302 146.384C327.032 146.424 326.752 146.424 326.452 146.384C326.152 146.344 325.882 146.294 325.652 146.194C325.422 146.104 325.232 145.994 325.102 145.844C324.952 145.694 324.872 145.524 324.832 145.324C324.792 145.124 324.812 144.884 324.892 144.614L325.292 143.234L322.432 142.924L322.622 142.284L329.502 143.044L328.912 145.064C328.822 145.334 328.712 145.554 328.562 145.744ZM325.792 145.414C325.962 145.594 326.232 145.694 326.622 145.744C327.012 145.784 327.332 145.744 327.592 145.614C327.832 145.484 328.012 145.254 328.112 144.914L328.492 143.604L326.072 143.334L325.692 144.644C325.602 144.984 325.632 145.244 325.792 145.414Z" fill="white"/>
<path d="M321.612 153.014C321.332 152.924 321.082 152.824 320.852 152.694C320.622 152.564 320.412 152.434 320.232 152.264C320.052 152.104 319.912 151.924 319.822 151.724C319.722 151.524 319.662 151.314 319.652 151.084C319.642 150.854 319.682 150.604 319.792 150.344C319.892 150.084 320.032 149.844 320.212 149.644C320.392 149.444 320.602 149.264 320.832 149.124C321.052 148.984 321.312 148.864 321.592 148.774C321.872 148.674 322.152 148.614 322.452 148.574C322.752 148.534 323.042 148.514 323.362 148.514C323.662 148.514 323.962 148.544 324.252 148.594C324.782 148.674 325.232 148.804 325.632 148.974C326.022 149.144 326.342 149.354 326.582 149.604C326.822 149.854 326.972 150.134 327.032 150.444C327.102 150.764 327.062 151.104 326.922 151.464C326.782 151.824 326.572 152.144 326.282 152.404C326.002 152.664 325.662 152.874 325.272 153.024C324.882 153.174 324.452 153.264 323.972 153.304C323.492 153.344 322.992 153.324 322.462 153.234C322.162 153.164 321.882 153.104 321.612 153.014ZM323.862 152.634C324.232 152.614 324.562 152.544 324.862 152.444C325.162 152.334 325.422 152.184 325.632 152.004C325.852 151.814 326.012 151.584 326.112 151.324C326.212 151.064 326.242 150.814 326.182 150.574C326.132 150.344 326.012 150.144 325.812 149.964C325.622 149.784 325.372 149.624 325.062 149.494C324.752 149.364 324.392 149.274 323.992 149.204C323.572 149.144 323.182 149.114 322.832 149.124C322.462 149.144 322.132 149.204 321.832 149.304C321.532 149.404 321.282 149.554 321.062 149.734C320.852 149.924 320.692 150.164 320.582 150.444C320.472 150.724 320.442 150.984 320.492 151.214C320.552 151.444 320.662 151.654 320.852 151.834C321.042 152.014 321.302 152.154 321.612 152.274C321.912 152.394 322.282 152.494 322.692 152.554C323.102 152.634 323.492 152.654 323.862 152.634Z" fill="white"/>
<path d="M323.642 156.734L317.752 155.564L318.052 154.934L324.722 156.264L323.422 159.014L322.642 158.854L323.642 156.734Z" fill="white"/>
<path d="M320.612 163.954C320.412 164.114 320.202 164.234 319.962 164.314C319.732 164.394 319.482 164.434 319.212 164.434C318.942 164.444 318.672 164.404 318.382 164.334C318.092 164.264 317.852 164.174 317.652 164.054C317.452 163.944 317.302 163.804 317.202 163.644C317.102 163.484 317.052 163.294 317.062 163.094C317.072 162.884 317.152 162.654 317.292 162.404L318.032 161.084L315.322 160.424L315.662 159.804L322.202 161.384L321.122 163.324C320.972 163.584 320.802 163.784 320.612 163.954ZM317.992 163.294C318.112 163.494 318.352 163.624 318.722 163.714C319.092 163.804 319.412 163.804 319.702 163.704C319.972 163.604 320.202 163.394 320.392 163.064L321.092 161.804L318.802 161.254L318.102 162.514C317.912 162.844 317.872 163.114 317.992 163.294Z" fill="white"/>
<path d="M309.912 169.244L310.352 168.574L312.622 168.664L313.782 166.894L312.162 165.824L312.582 165.194L317.942 168.764L317.462 169.494L309.912 169.244ZM313.402 168.684L316.682 168.824L314.352 167.244L313.402 168.684Z" fill="white"/>
<path d="M307.892 173.644L312.132 176.684L311.482 177.524L305.312 175.384L305.732 174.834L310.922 176.634L310.932 176.624L306.692 173.594L307.142 173.004L313.282 173.574L313.292 173.564L308.102 171.764L308.522 171.214L314.692 173.354L314.042 174.194L307.902 173.634L307.892 173.644Z" fill="white"/>
<path d="M302.572 180.044L306.482 183.284L305.752 184.094L299.832 181.654L300.302 181.124L305.282 183.174L305.292 183.164L301.382 179.924L301.892 179.364L307.932 180.224L307.942 180.214L302.962 178.164L303.432 177.634L309.352 180.074L308.622 180.884L302.572 180.024V180.044Z" fill="white"/>
<path d="M298.232 184.894L300.682 189.144L300.042 189.774L294.392 187.064L294.952 186.524L299.552 188.734L299.562 188.724L297.082 184.464L297.722 183.834L303.372 186.544L302.812 187.084L298.232 184.884V184.894Z" fill="white"/>
<path d="M294.832 194.214C294.572 194.324 294.322 194.394 294.062 194.424C293.812 194.454 293.552 194.434 293.302 194.384C293.042 194.334 292.812 194.234 292.572 194.104C292.332 193.974 292.142 193.834 292.012 193.674C291.872 193.514 291.792 193.354 291.782 193.174C291.762 192.994 291.802 192.804 291.902 192.614C292.012 192.414 292.182 192.214 292.432 191.994L293.722 190.884L291.482 189.654L292.082 189.134L297.472 192.084L295.572 193.714C295.342 193.934 295.092 194.104 294.832 194.214ZM292.682 193.014C292.702 193.224 292.862 193.414 293.172 193.584C293.482 193.754 293.782 193.824 294.092 193.784C294.392 193.754 294.702 193.594 295.022 193.324L296.252 192.264L294.362 191.224L293.132 192.284C292.812 192.564 292.662 192.804 292.682 193.014Z" fill="white"/>
<path d="M283.882 198.474C283.702 198.304 283.562 198.134 283.442 197.944C283.332 197.754 283.252 197.564 283.202 197.354C283.162 197.154 283.162 196.934 283.222 196.734C283.272 196.524 283.362 196.314 283.522 196.094C283.672 195.884 283.882 195.674 284.152 195.464C284.412 195.264 284.702 195.094 284.992 194.974C285.282 194.854 285.582 194.764 285.882 194.714C286.172 194.664 286.472 194.634 286.772 194.644C287.082 194.644 287.372 194.684 287.652 194.744C287.942 194.804 288.202 194.884 288.472 194.984C288.722 195.084 288.962 195.214 289.182 195.344C289.582 195.594 289.882 195.854 290.102 196.144C290.322 196.434 290.452 196.724 290.492 197.024C290.522 197.324 290.462 197.634 290.292 197.934C290.132 198.244 289.862 198.534 289.492 198.814C289.122 199.094 288.722 199.314 288.292 199.444C287.872 199.594 287.442 199.654 287.002 199.664C286.562 199.674 286.132 199.604 285.702 199.484C285.262 199.354 284.852 199.174 284.452 198.924C284.252 198.794 284.052 198.644 283.882 198.474ZM286.072 198.874C286.402 198.974 286.732 199.024 287.062 199.034C287.392 199.034 287.722 198.984 288.022 198.894C288.342 198.794 288.632 198.644 288.902 198.434C289.172 198.234 289.362 198.014 289.472 197.784C289.582 197.564 289.622 197.334 289.582 197.114C289.542 196.884 289.442 196.664 289.262 196.444C289.082 196.224 288.842 196.014 288.542 195.834C288.232 195.634 287.912 195.484 287.592 195.384C287.262 195.284 286.932 195.224 286.612 195.214C286.282 195.204 285.972 195.264 285.652 195.354C285.342 195.454 285.042 195.614 284.752 195.834C284.462 196.054 284.262 196.274 284.142 196.504C284.032 196.734 283.982 196.954 284.032 197.184C284.072 197.404 284.192 197.624 284.382 197.834C284.552 198.044 284.802 198.254 285.122 198.444C285.412 198.624 285.742 198.774 286.072 198.874Z" fill="white"/>
<path d="M281.912 204.034C281.752 204.124 281.582 204.204 281.412 204.274C281.252 204.334 281.092 204.384 280.912 204.414C280.742 204.444 280.572 204.454 280.392 204.444C280.212 204.434 280.032 204.394 279.862 204.344C279.692 204.284 279.522 204.204 279.362 204.084C279.282 204.024 279.202 203.954 279.132 203.874C279.072 203.784 279.012 203.694 278.972 203.594C278.932 203.484 278.912 203.384 278.932 203.264C278.932 203.144 278.982 203.024 279.052 202.904C278.912 202.954 278.752 202.994 278.592 203.024C278.422 203.054 278.252 203.064 278.062 203.064C277.882 203.054 277.702 203.024 277.502 202.974C277.312 202.914 277.122 202.824 276.942 202.694C276.832 202.614 276.742 202.534 276.662 202.444C276.572 202.334 276.512 202.234 276.462 202.124C276.422 202.004 276.402 201.884 276.402 201.754C276.402 201.624 276.442 201.494 276.502 201.354C276.562 201.214 276.662 201.074 276.792 200.924C276.922 200.774 277.102 200.634 277.332 200.484L279.502 199.024L284.282 202.444L282.442 203.684C282.252 203.824 282.062 203.944 281.912 204.034ZM279.792 202.734C279.692 202.854 279.652 202.974 279.632 203.074C279.622 203.174 279.652 203.264 279.722 203.344C279.792 203.424 279.882 203.504 279.982 203.584C280.092 203.664 280.212 203.724 280.332 203.764C280.462 203.794 280.592 203.814 280.742 203.794C280.892 203.784 281.052 203.744 281.212 203.674C281.382 203.604 281.562 203.514 281.762 203.374L283.042 202.514L281.562 201.454L280.282 202.324C280.052 202.474 279.892 202.614 279.792 202.734ZM277.492 201.254C277.382 201.384 277.312 201.504 277.292 201.634C277.262 201.744 277.292 201.854 277.352 201.954C277.412 202.054 277.502 202.154 277.622 202.244C277.752 202.334 277.882 202.404 278.022 202.444C278.162 202.484 278.322 202.514 278.492 202.504C278.662 202.484 278.842 202.444 279.032 202.374C279.232 202.294 279.432 202.184 279.662 202.034L281.052 201.104L279.392 199.914L278.002 200.844C277.782 200.974 277.612 201.114 277.492 201.254Z" fill="white"/>
<path d="M268.552 205.984L269.362 205.494L271.302 206.264L273.432 204.984L272.672 203.514L273.432 203.054L275.922 207.954L275.042 208.484L268.552 205.984ZM271.972 206.524L274.782 207.634L273.712 205.474L271.972 206.524Z" fill="white"/>
<path d="M264.702 211.634L266.402 213.204L265.642 213.604L261.522 209.784L262.282 209.374L264.222 211.174L267.252 209.564L265.312 207.764L266.072 207.354L270.192 211.174L269.432 211.584L267.732 210.014L264.702 211.634Z" fill="white"/>
<path d="M258.372 212.464L258.392 217.114L257.472 217.544L253.722 213.544L254.512 213.174L257.562 216.424L257.582 216.414L257.552 211.744L258.472 211.314L262.222 215.314L261.432 215.684L258.402 212.454L258.372 212.464Z" fill="white"/>
<path d="M250.622 218.024C250.832 218.324 250.952 218.624 250.992 218.924C251.042 219.214 251.002 219.504 250.902 219.764C250.792 220.034 250.612 220.284 250.332 220.514C250.062 220.744 249.702 220.954 249.252 221.134C248.782 221.324 248.312 221.444 247.862 221.474C247.412 221.514 246.982 221.484 246.582 221.394C246.182 221.304 245.812 221.144 245.472 220.924C245.122 220.704 244.832 220.434 244.572 220.104C244.432 219.924 244.312 219.734 244.212 219.544C244.122 219.344 244.062 219.144 244.042 218.934C244.012 218.734 244.022 218.524 244.072 218.324C244.122 218.114 244.222 217.924 244.352 217.734C244.482 217.544 244.672 217.364 244.902 217.194C245.142 217.024 245.432 216.864 245.762 216.734C246.082 216.604 246.392 216.514 246.692 216.464C246.992 216.404 247.292 216.384 247.562 216.394C247.842 216.394 248.112 216.424 248.362 216.484C248.612 216.544 248.862 216.624 249.082 216.724C249.322 216.824 249.512 216.944 249.712 217.074C249.902 217.214 250.072 217.354 250.222 217.524L251.202 217.134L249.732 215.284L250.562 214.954L253.882 219.144L253.052 219.474L251.592 217.634L250.622 218.024ZM246.082 220.424C246.352 220.594 246.632 220.714 246.932 220.794C247.232 220.874 247.552 220.904 247.872 220.874C248.212 220.854 248.532 220.774 248.852 220.644C249.182 220.514 249.442 220.354 249.632 220.164C249.822 219.974 249.962 219.774 250.022 219.544C250.082 219.324 250.082 219.084 250.002 218.834C249.942 218.584 249.802 218.324 249.612 218.084C249.412 217.824 249.172 217.614 248.902 217.454C248.632 217.284 248.352 217.164 248.042 217.084C247.742 217.004 247.432 216.984 247.102 217.004C246.792 217.024 246.462 217.104 246.142 217.224C245.772 217.374 245.482 217.544 245.292 217.724C245.092 217.914 244.962 218.114 244.912 218.334C244.862 218.554 244.872 218.784 244.962 219.024C245.042 219.264 245.192 219.514 245.392 219.764C245.592 220.034 245.822 220.244 246.082 220.424Z" fill="white"/>
<path d="M233.942 226.364L232.732 226.744L234.362 224.104L229.992 222.344L231.102 221.994L234.732 223.504L235.362 222.484L234.432 220.944L235.302 220.674L237.972 225.094L237.102 225.364L235.802 223.214L233.942 226.364Z" fill="white"/>
<path d="M226.632 223.924C226.572 223.924 226.502 223.924 226.432 223.924L226.212 223.944C226.142 223.954 226.072 223.964 226.012 223.984C225.882 224.024 225.772 224.064 225.682 224.114C225.602 224.164 225.532 224.214 225.482 224.284C225.442 224.344 225.392 224.404 225.382 224.474C225.362 224.544 225.362 224.604 225.362 224.674L229.912 227.574L228.872 227.854L225.162 225.444L225.012 228.894L224.012 229.164L224.382 225.214C224.422 224.954 224.462 224.724 224.502 224.534C224.552 224.334 224.612 224.174 224.712 224.034C224.812 223.894 224.942 223.774 225.102 223.674C225.262 223.574 225.472 223.494 225.732 223.424C225.872 223.384 226.002 223.364 226.152 223.354C226.292 223.344 226.412 223.344 226.492 223.364L226.792 223.954C226.752 223.934 226.702 223.934 226.632 223.924Z" fill="white"/>
<path d="M216.842 230.714C216.552 230.704 216.282 230.664 216.062 230.584C215.832 230.504 215.642 230.394 215.492 230.244C215.332 230.094 215.222 229.924 215.132 229.724C215.052 229.514 215.012 229.324 215.042 229.144C215.062 228.954 215.132 228.784 215.262 228.634C215.392 228.474 215.582 228.334 215.822 228.204C216.072 228.074 216.372 227.974 216.752 227.894L218.692 227.464L217.912 225.544L218.812 225.344L220.692 229.974L217.842 230.614C217.482 230.674 217.142 230.714 216.842 230.714ZM216.112 228.844C215.952 229.034 215.932 229.254 216.042 229.524C216.152 229.784 216.332 229.964 216.612 230.054C216.872 230.144 217.252 230.134 217.732 230.024L219.582 229.614L218.922 227.994L217.072 228.404C216.592 228.514 216.272 228.664 216.112 228.844Z" fill="white"/>
<path d="M210.082 228.844C209.902 228.624 209.682 228.454 209.432 228.324C209.182 228.194 208.902 228.104 208.592 228.064C208.282 228.024 207.962 228.034 207.632 228.094C207.332 228.144 207.092 228.224 206.872 228.344C206.662 228.454 206.492 228.584 206.362 228.734C206.232 228.894 206.132 229.044 206.072 229.204C206.022 229.374 205.992 229.534 206.012 229.704L205.122 229.864C205.102 229.724 205.092 229.574 205.112 229.424C205.142 229.264 205.182 229.114 205.262 228.964C205.332 228.814 205.432 228.664 205.562 228.514C205.682 228.364 205.832 228.234 206.012 228.104C206.192 227.984 206.402 227.864 206.652 227.774C206.882 227.674 207.152 227.604 207.462 227.544C207.672 227.504 207.892 227.484 208.142 227.474C208.392 227.454 208.642 227.464 208.902 227.494C209.162 227.514 209.412 227.574 209.672 227.654C209.932 227.734 210.172 227.854 210.382 227.994C210.602 228.144 210.802 228.334 210.972 228.564C211.152 228.784 211.292 229.064 211.392 229.394C211.492 229.714 211.532 230.004 211.522 230.274C211.512 230.534 211.452 230.774 211.362 230.994C211.262 231.204 211.132 231.394 210.962 231.564C210.802 231.734 210.612 231.874 210.402 232.004C210.192 232.124 209.952 232.234 209.722 232.314C209.472 232.394 209.222 232.464 208.972 232.504C208.652 232.564 208.362 232.584 208.102 232.594C207.832 232.594 207.582 232.574 207.352 232.544C207.122 232.504 206.922 232.444 206.742 232.374C206.562 232.304 206.392 232.224 206.252 232.134C206.112 232.044 206.002 231.934 205.902 231.834C205.812 231.724 205.732 231.624 205.692 231.514L206.592 231.354C206.692 231.494 206.822 231.614 206.982 231.714C207.132 231.814 207.302 231.894 207.502 231.944C207.692 231.994 207.892 232.024 208.102 232.034C208.322 232.034 208.552 232.024 208.782 231.984C209.132 231.924 209.442 231.814 209.692 231.674C209.942 231.534 210.152 231.364 210.302 231.164C210.452 230.954 210.552 230.734 210.582 230.474C210.612 230.214 210.592 229.944 210.502 229.654C210.402 229.324 210.262 229.064 210.082 228.844Z" fill="white"/>
<path d="M199.032 231.884C198.612 231.934 198.252 231.954 197.922 231.924C197.602 231.894 197.322 231.834 197.112 231.744C196.882 231.654 196.712 231.524 196.572 231.364C196.442 231.204 196.352 231.014 196.302 230.794C196.262 230.584 196.262 230.384 196.332 230.204C196.392 230.014 196.502 229.844 196.662 229.704C196.822 229.564 197.032 229.434 197.292 229.324C197.552 229.224 197.862 229.144 198.212 229.104L201.222 228.714L202.212 233.504L201.282 233.624L200.872 231.654L199.032 231.884ZM197.932 229.754C197.772 229.804 197.652 229.874 197.532 229.954C197.432 230.034 197.352 230.134 197.302 230.254C197.252 230.374 197.252 230.504 197.292 230.664C197.322 230.824 197.382 230.954 197.472 231.054C197.572 231.154 197.692 231.224 197.842 231.284C197.992 231.324 198.162 231.354 198.352 231.364C198.552 231.364 198.772 231.354 199.002 231.324L200.762 231.094L200.412 229.404L198.442 229.664C198.262 229.664 198.092 229.704 197.932 229.754ZM195.072 229.504L196.062 234.294L195.132 234.414L194.142 229.624L195.072 229.504Z" fill="white"/>
<path d="M180.802 230.694L181.042 234.984L184.782 234.764L184.542 230.474L185.482 230.424L185.762 235.274L180.152 235.604L179.872 230.754L180.802 230.694Z" fill="white"/>
<path d="M169.712 232.784C169.782 232.574 169.872 232.374 170.012 232.184C170.142 231.994 170.302 231.814 170.492 231.644C170.682 231.474 170.912 231.334 171.172 231.214C171.432 231.084 171.722 230.994 172.042 230.914C172.372 230.844 172.722 230.804 173.112 230.794C173.492 230.784 173.852 230.814 174.172 230.884C174.482 230.944 174.772 231.034 175.022 231.154C175.262 231.264 175.482 231.404 175.662 231.564C175.852 231.724 176.002 231.894 176.112 232.084C176.232 232.274 176.312 232.464 176.372 232.674C176.422 232.874 176.442 233.084 176.442 233.294C176.432 233.674 176.342 234.014 176.172 234.334C176.002 234.644 175.772 234.924 175.482 235.154C175.182 235.384 174.812 235.564 174.382 235.694C173.952 235.824 173.462 235.894 172.932 235.904C172.392 235.914 171.902 235.854 171.492 235.734C171.062 235.614 170.722 235.444 170.432 235.224C170.142 235.004 169.942 234.734 169.792 234.424C169.652 234.104 169.582 233.774 169.592 233.394C169.592 233.194 169.632 232.984 169.712 232.784ZM170.662 234.194C170.762 234.434 170.922 234.644 171.122 234.814C171.332 234.984 171.592 235.124 171.892 235.214C172.202 235.314 172.552 235.354 172.942 235.344C173.332 235.334 173.692 235.284 174.002 235.184C174.312 235.084 174.582 234.944 174.792 234.764C175.012 234.584 175.192 234.374 175.302 234.124C175.422 233.874 175.492 233.604 175.502 233.324C175.512 233.024 175.472 232.754 175.382 232.514C175.282 232.274 175.132 232.064 174.932 231.894C174.732 231.724 174.472 231.594 174.172 231.494C173.862 231.404 173.502 231.364 173.082 231.364C172.662 231.374 172.302 231.424 171.982 231.524C171.662 231.634 171.392 231.764 171.182 231.944C170.972 232.124 170.812 232.334 170.712 232.584C170.592 232.824 170.532 233.094 170.522 233.394C170.512 233.684 170.562 233.954 170.662 234.194Z" fill="white"/>
<path d="M156.702 230.524L155.932 234.814L159.642 235.014L160.412 230.724L161.342 230.774L160.472 235.634L154.902 235.324L155.772 230.464L156.702 230.524Z" fill="white"/>
<path d="M146.962 234.524C146.712 234.424 146.502 234.304 146.352 234.164C146.202 234.024 146.102 233.864 146.062 233.684C146.012 233.504 146.022 233.304 146.082 233.094C146.142 232.884 146.232 232.694 146.372 232.534C146.502 232.364 146.682 232.234 146.892 232.134C147.112 232.024 147.362 231.954 147.652 231.914C147.952 231.874 148.282 231.874 148.672 231.914L150.652 232.104L151.192 230.104L152.112 230.194L150.822 235.014L147.922 234.724C147.542 234.684 147.222 234.624 146.962 234.524ZM147.512 232.584C147.252 232.714 147.092 232.904 147.012 233.184C146.942 233.464 146.992 233.674 147.172 233.844C147.342 234.004 147.682 234.114 148.172 234.164L150.062 234.354L150.512 232.664L148.632 232.474C148.132 232.424 147.762 232.464 147.512 232.584Z" fill="white"/>
<path d="M136.662 230.154C136.792 229.954 136.952 229.774 137.142 229.604C137.332 229.434 137.542 229.284 137.772 229.154C138.012 229.024 138.282 228.914 138.562 228.834C138.852 228.754 139.162 228.694 139.502 228.674C139.842 228.654 140.192 228.664 140.572 228.724C140.942 228.774 141.282 228.864 141.572 228.974C141.852 229.084 142.102 229.214 142.302 229.374C142.502 229.524 142.662 229.694 142.792 229.874C142.922 230.064 143.012 230.254 143.062 230.454C143.122 230.654 143.132 230.864 143.122 231.074C143.112 231.284 143.062 231.494 142.982 231.694C142.852 232.064 142.652 232.384 142.392 232.674C142.132 232.954 141.812 233.194 141.462 233.374C141.102 233.554 140.682 233.674 140.232 233.734C139.772 233.804 139.282 233.794 138.762 233.714C138.242 233.634 137.792 233.514 137.422 233.324C137.052 233.144 136.772 232.924 136.562 232.664C136.352 232.404 136.242 232.104 136.202 231.784C136.162 231.454 136.202 231.104 136.342 230.734C136.422 230.544 136.522 230.344 136.662 230.154ZM137.132 231.684C137.152 231.934 137.242 232.164 137.372 232.364C137.522 232.564 137.722 232.734 137.992 232.874C138.262 233.014 138.582 233.114 138.962 233.164C139.342 233.214 139.702 233.224 140.042 233.164C140.372 233.114 140.672 233.014 140.932 232.874C141.202 232.734 141.442 232.544 141.632 232.324C141.822 232.104 141.972 231.844 142.072 231.564C142.182 231.274 142.222 230.994 142.212 230.754C142.192 230.504 142.112 230.274 141.982 230.074C141.842 229.874 141.632 229.714 141.372 229.564C141.102 229.424 140.772 229.334 140.362 229.274C139.952 229.214 139.582 229.214 139.252 229.264C138.912 229.324 138.612 229.414 138.352 229.554C138.092 229.694 137.872 229.884 137.692 230.114C137.502 230.334 137.362 230.594 137.252 230.884C137.152 231.154 137.112 231.434 137.132 231.684Z" fill="white"/>
<path d="M131.222 231.784L133.082 227.624L133.982 227.794L131.872 232.504L127.932 231.764L128.182 231.214L131.222 231.784Z" fill="white"/>
<path d="M120.882 230.124C120.662 229.994 120.492 229.854 120.382 229.694C120.272 229.534 120.222 229.364 120.222 229.184C120.222 228.994 120.282 228.804 120.392 228.604C120.502 228.394 120.632 228.224 120.812 228.074C120.982 227.924 121.192 227.814 121.422 227.734C121.662 227.654 121.932 227.614 122.222 227.604C122.522 227.604 122.852 227.644 123.222 227.724L125.112 228.154L126.142 226.234L127.022 226.434L124.552 231.064L121.782 230.434C121.402 230.344 121.112 230.244 120.882 230.124ZM121.902 228.264C121.612 228.354 121.412 228.534 121.262 228.804C121.122 229.064 121.112 229.294 121.252 229.484C121.382 229.664 121.682 229.814 122.152 229.924L123.952 230.334L124.822 228.704L123.022 228.294C122.552 228.174 122.172 228.174 121.902 228.264Z" fill="white"/>
<path d="M113.552 223.024L114.512 223.284L114.312 224.864L116.832 225.564L118.422 224.374L119.322 224.624L114.022 228.564L112.982 228.274L113.552 223.024ZM114.252 225.414L113.962 227.704L116.312 225.984L114.252 225.414Z" fill="white"/>
<path d="M107.272 221.894L102.772 225.024L101.572 224.624L104.832 220.214L105.612 220.474L102.862 224.184L102.882 224.194L107.382 221.064L108.212 221.344L107.222 225.634L107.242 225.644L109.992 221.934L110.772 222.194L107.512 226.604L106.312 226.204L107.302 221.914L107.272 221.894Z" fill="white"/>
<path d="M98.1822 218.594L93.3922 221.504L92.2422 221.044L95.9322 216.784L96.6822 217.084L93.5822 220.664L93.6022 220.674L98.3821 217.764L99.1822 218.084L97.7621 222.334L97.7822 222.344L100.882 218.764L101.632 219.064L97.9421 223.324L96.7922 222.864L98.2021 218.614L98.1822 218.594Z" fill="white"/>
<path d="M91.3022 215.874L85.0922 217.834L84.2122 217.424L88.2922 213.334L89.0522 213.684L85.7322 217.014L85.7522 217.024L91.9722 215.044L92.8522 215.454L88.7722 219.544L88.0121 219.194L91.3122 215.884L91.3022 215.874Z" fill="white"/>
<path d="M77.9321 214.084C77.7821 213.914 77.6921 213.734 77.6521 213.564C77.6221 213.394 77.6521 213.214 77.7421 213.034C77.8221 212.854 77.9721 212.684 78.1621 212.504C78.3621 212.334 78.5621 212.194 78.8021 212.094C79.0321 211.984 79.2721 211.924 79.5321 211.904C79.7921 211.874 80.0621 211.894 80.3321 211.954C80.6121 212.014 80.9021 212.124 81.2121 212.284L82.7821 213.114L84.6121 211.484L85.3421 211.874L80.9221 215.794L78.6221 214.574C78.3221 214.424 78.0921 214.254 77.9321 214.084ZM79.7421 212.524C79.4321 212.554 79.1621 212.674 78.9021 212.904C78.6521 213.124 78.5421 213.344 78.5821 213.554C78.6221 213.754 78.8321 213.964 79.2221 214.174L80.7121 214.964L82.2621 213.584L80.7721 212.794C80.3821 212.584 80.0321 212.494 79.7421 212.524Z" fill="white"/>
<path d="M72.1023 206.744C72.3523 206.614 72.6122 206.494 72.8822 206.404C73.1622 206.314 73.4423 206.244 73.7423 206.204C74.0423 206.164 74.3422 206.154 74.6422 206.174C74.9522 206.194 75.2523 206.244 75.5523 206.344C75.8523 206.434 76.1523 206.564 76.4323 206.744C76.7123 206.914 76.9423 207.104 77.1223 207.294C77.2823 207.484 77.4123 207.694 77.4823 207.894C77.5523 208.094 77.5723 208.304 77.5523 208.504C77.5423 208.714 77.4822 208.924 77.3822 209.114C77.2922 209.314 77.1622 209.504 77.0122 209.694C76.8522 209.874 76.6722 210.054 76.4722 210.214C76.1022 210.504 75.7122 210.734 75.2822 210.904C74.8622 211.074 74.4323 211.184 74.0023 211.224C73.5723 211.264 73.1322 211.234 72.7022 211.144C72.2622 211.054 71.8422 210.884 71.4522 210.644C71.0522 210.404 70.7522 210.144 70.5722 209.854C70.3722 209.564 70.2823 209.274 70.2923 208.974C70.2923 208.674 70.4022 208.364 70.5922 208.054C70.7922 207.744 71.0623 207.444 71.4323 207.154C71.6323 207.024 71.8623 206.874 72.1023 206.744ZM71.4622 208.294C71.3022 208.534 71.2222 208.764 71.2022 208.994C71.1922 209.224 71.2522 209.444 71.3822 209.654C71.5122 209.874 71.7222 210.064 72.0122 210.244C72.3022 210.414 72.6023 210.544 72.9323 210.604C73.2523 210.664 73.5722 210.684 73.9022 210.634C74.2322 210.594 74.5622 210.504 74.8822 210.364C75.2022 210.224 75.5122 210.044 75.7822 209.824C76.0722 209.594 76.3022 209.364 76.4622 209.144C76.6222 208.914 76.7123 208.674 76.7323 208.454C76.7523 208.224 76.6823 208.014 76.5623 207.794C76.4223 207.584 76.2022 207.384 75.8922 207.194C75.5822 207.004 75.2722 206.884 74.9422 206.814C74.6122 206.754 74.2922 206.734 73.9722 206.774C73.6522 206.814 73.3322 206.914 73.0222 207.054C72.7122 207.184 72.4123 207.374 72.1223 207.604C71.8423 207.824 71.6122 208.054 71.4622 208.294Z" fill="white"/>
<path d="M64.132 205.714C64.002 205.604 63.892 205.494 63.792 205.384C63.712 205.284 63.642 205.164 63.602 205.044C63.562 204.934 63.562 204.814 63.582 204.684C63.602 204.564 63.662 204.434 63.742 204.314C63.832 204.194 63.952 204.074 64.122 203.954C64.202 203.894 64.322 203.834 64.442 203.784C64.572 203.734 64.702 203.684 64.852 203.654C65.002 203.624 65.162 203.604 65.322 203.604C65.492 203.594 65.662 203.624 65.842 203.664C65.772 203.574 65.722 203.464 65.682 203.354C65.642 203.244 65.632 203.124 65.642 202.994C65.662 202.874 65.712 202.734 65.782 202.604C65.872 202.464 66.012 202.334 66.202 202.204C66.312 202.124 66.442 202.054 66.572 201.994C66.722 201.924 66.882 201.874 67.042 201.834C67.212 201.794 67.392 201.774 67.582 201.764C67.772 201.754 67.962 201.774 68.152 201.804C68.362 201.834 68.562 201.894 68.762 201.984C68.972 202.064 69.182 202.184 69.392 202.324L71.442 203.744L66.372 207.264L64.632 206.064C64.422 205.944 64.262 205.824 64.132 205.714ZM68.282 202.484C68.102 202.414 67.922 202.374 67.742 202.364C67.582 202.354 67.422 202.374 67.272 202.424C67.122 202.474 66.982 202.534 66.852 202.634C66.722 202.734 66.622 202.824 66.552 202.924C66.482 203.024 66.452 203.134 66.462 203.254C66.482 203.374 66.542 203.494 66.642 203.624C66.752 203.754 66.902 203.894 67.112 204.034L68.422 204.934L70.192 203.704L68.882 202.804C68.672 202.664 68.472 202.564 68.282 202.484ZM66.072 204.174C65.902 204.114 65.732 204.084 65.592 204.084C65.452 204.084 65.322 204.114 65.192 204.164C65.072 204.214 64.952 204.284 64.842 204.364C64.722 204.444 64.632 204.534 64.572 204.614C64.522 204.704 64.502 204.794 64.512 204.894C64.512 204.994 64.572 205.104 64.672 205.214C64.762 205.324 64.902 205.454 65.082 205.574L66.292 206.414L67.862 205.324L66.652 204.484C66.442 204.334 66.252 204.234 66.072 204.174Z" fill="white"/>
<path d="M61.6921 196.564L62.3721 197.094L61.2121 198.484L63.0021 199.884L65.1521 199.264L65.7921 199.764L58.6521 201.794L57.9221 201.214L61.6921 196.564ZM60.8221 198.974L59.1321 200.994L62.2821 200.124L60.8221 198.974Z" fill="white"/>
<path d="M53.6621 194.254L51.3421 195.524L50.7821 195.024L56.4121 191.934L56.9721 192.434L54.3221 193.884L56.5621 195.884L59.2121 194.434L59.7721 194.934L54.1421 198.024L53.5821 197.524L55.9021 196.254L53.6621 194.254Z" fill="white"/>
<path d="M52.642 189.904L45.9321 190.194L45.342 189.584L51.222 186.734L51.7321 187.264L46.952 189.574L46.962 189.584L53.702 189.274L54.2921 189.884L48.412 192.734L47.902 192.204L52.662 189.904H52.642Z" fill="white"/>
<path d="M44.8322 184.864C44.3922 185.024 43.9522 185.134 43.5222 185.174C43.0922 185.224 42.6822 185.224 42.3022 185.164C41.9222 185.104 41.5622 184.994 41.2322 184.814C40.9022 184.644 40.6222 184.404 40.3722 184.104C40.1122 183.784 39.9522 183.474 39.9122 183.164C39.8622 182.854 39.9222 182.554 40.0622 182.274C40.2022 181.994 40.4522 181.724 40.7722 181.474C41.1022 181.224 41.4922 181.004 41.9722 180.804C42.2322 180.694 42.5122 180.604 42.7922 180.524C43.0822 180.444 43.3722 180.394 43.6722 180.364C43.9722 180.334 44.2622 180.324 44.5522 180.344C44.8522 180.364 45.1322 180.424 45.3922 180.504C45.6622 180.584 45.9222 180.704 46.1622 180.854C46.4022 181.004 46.6222 181.204 46.8022 181.424C46.9822 181.634 47.1022 181.844 47.1722 182.054C47.2522 182.264 47.2722 182.464 47.2522 182.654C47.2422 182.844 47.1922 183.034 47.0922 183.214C47.0022 183.394 46.8822 183.564 46.7222 183.724C46.5722 183.894 46.3922 184.034 46.1922 184.184C45.9822 184.324 45.7722 184.454 45.5322 184.564L46.0722 185.214L48.7922 184.084L49.2522 184.634L43.1122 187.194L42.6522 186.644L45.3522 185.514L44.8322 184.864ZM41.5022 181.864C41.2522 182.064 41.0622 182.264 40.9422 182.474C40.8222 182.684 40.7722 182.914 40.7922 183.134C40.8122 183.364 40.9122 183.584 41.0922 183.804C41.2722 184.024 41.4922 184.194 41.7622 184.314C42.0222 184.434 42.3222 184.514 42.6422 184.544C42.9622 184.574 43.3022 184.554 43.6622 184.494C44.0322 184.434 44.4022 184.324 44.7522 184.174C45.1322 184.014 45.4422 183.844 45.6822 183.644C45.9322 183.444 46.1222 183.244 46.2422 183.024C46.3622 182.814 46.4022 182.594 46.3922 182.364C46.3722 182.144 46.2722 181.924 46.0922 181.714C45.8922 181.464 45.6522 181.274 45.3922 181.154C45.1122 181.024 44.8322 180.954 44.5222 180.924C44.2022 180.904 43.8722 180.924 43.5222 181.004C43.1822 181.074 42.8122 181.194 42.4422 181.344C42.0722 181.494 41.7522 181.674 41.5022 181.864Z" fill="white"/>
<path d="M33.082 173.054L32.6021 172.224L36.3121 173.274L39.1121 170.194L39.5521 170.954L37.162 173.524L38.592 173.934L40.8721 173.244L41.212 173.844L34.6721 175.824L34.332 175.224L37.522 174.254L33.082 173.054Z" fill="white"/>
<path d="M37.0421 167.914C37.0521 167.864 37.0521 167.824 37.0621 167.774L37.0521 167.624C37.0421 167.574 37.0321 167.534 37.0121 167.484C36.9721 167.394 36.9121 167.314 36.8421 167.254C36.7721 167.204 36.7021 167.154 36.6121 167.124C36.5221 167.094 36.4421 167.064 36.3421 167.054C36.2421 167.044 36.1521 167.044 36.0621 167.044L31.6021 170.284L31.2621 169.574L34.9721 166.934L30.0021 166.924L29.6721 166.234L35.3521 166.384C35.7221 166.404 36.0621 166.424 36.3321 166.444C36.6121 166.474 36.8421 166.514 37.0421 166.574C37.2421 166.634 37.4021 166.724 37.5321 166.834C37.6721 166.944 37.7721 167.084 37.8521 167.264C37.9021 167.364 37.9221 167.454 37.9221 167.554C37.9321 167.654 37.9121 167.734 37.8821 167.794L37.0121 168.014C37.0221 167.994 37.0321 167.954 37.0421 167.914Z" fill="white"/>
<path d="M27.8421 161.314C27.8821 161.114 27.9521 160.924 28.0721 160.764C28.1921 160.604 28.3721 160.474 28.5921 160.364C28.8121 160.244 29.0721 160.164 29.3721 160.104C29.6721 160.044 29.9521 160.014 30.2221 160.024C30.4921 160.034 30.7321 160.074 30.9521 160.164C31.1821 160.244 31.3721 160.374 31.5321 160.534C31.7021 160.704 31.8321 160.914 31.9321 161.174L32.4421 162.504L35.2621 161.904L35.5021 162.524L28.7021 163.964L27.9521 162.004C27.8621 161.754 27.8221 161.524 27.8421 161.314ZM30.5921 160.754C30.3321 160.654 30.0021 160.644 29.6221 160.724C29.2321 160.804 28.9721 160.944 28.8121 161.134C28.6721 161.314 28.6521 161.584 28.7821 161.914L29.2621 163.184L31.6521 162.674L31.1721 161.404C31.0321 161.074 30.8421 160.854 30.5921 160.754Z" fill="white"/>
<path d="M30.9522 156.564C31.2822 156.434 31.5422 156.274 31.7422 156.104C31.9522 155.924 32.0922 155.724 32.1722 155.514C32.2522 155.304 32.2622 155.074 32.1922 154.844C32.1322 154.644 32.0322 154.474 31.8722 154.324C31.7222 154.184 31.5522 154.064 31.3422 153.984C31.1222 153.894 30.9122 153.834 30.6722 153.794C30.4322 153.764 30.1922 153.754 29.9622 153.764L29.7822 153.154C29.9922 153.134 30.1922 153.124 30.4222 153.134C30.6522 153.154 30.8722 153.174 31.0822 153.224C31.2922 153.274 31.5022 153.334 31.7122 153.414C31.9122 153.494 32.1022 153.594 32.2822 153.714C32.4522 153.834 32.6022 153.974 32.7222 154.144C32.8522 154.304 32.9422 154.484 33.0022 154.694C33.0422 154.844 33.0722 154.994 33.0622 155.164C33.0722 155.334 33.0422 155.514 32.9822 155.684C32.9322 155.864 32.8322 156.044 32.7022 156.224C32.5722 156.404 32.3922 156.574 32.1622 156.724C31.9322 156.884 31.6422 157.024 31.3122 157.154C30.9822 157.284 30.5622 157.394 30.0922 157.464C29.6322 157.544 29.2022 157.574 28.8222 157.584C28.4422 157.584 28.1022 157.554 27.7922 157.494C27.4922 157.434 27.2322 157.344 26.9922 157.234C26.7622 157.124 26.5622 157.004 26.3922 156.854C26.2322 156.704 26.0922 156.554 25.9922 156.394C25.8922 156.224 25.8122 156.054 25.7622 155.884C25.7022 155.664 25.6822 155.464 25.6922 155.284C25.7122 155.094 25.7522 154.924 25.8122 154.764C25.8922 154.604 25.9922 154.464 26.1022 154.334C26.2122 154.204 26.3422 154.084 26.4822 153.984C26.6222 153.884 26.7822 153.804 26.9422 153.734C27.1022 153.664 27.2622 153.614 27.4222 153.574L27.6022 154.194C27.3922 154.274 27.2122 154.364 27.0622 154.474C26.9122 154.584 26.7822 154.704 26.7022 154.834C26.6222 154.964 26.5622 155.104 26.5322 155.254C26.5122 155.404 26.5222 155.564 26.5622 155.724C26.6322 155.964 26.7622 156.174 26.9522 156.354C27.1322 156.524 27.3722 156.664 27.6522 156.764C27.9422 156.864 28.2622 156.924 28.6322 156.944C29.0022 156.954 29.4022 156.934 29.8222 156.864C30.2522 156.804 30.6322 156.694 30.9522 156.564Z" fill="white"/>
<path d="M30.912 146.174L23.942 147.004L23.822 146.364L30.7921 145.534L30.912 146.174ZM27.2421 148.984C27.1921 148.694 27.1921 148.444 27.2521 148.214C27.3121 147.984 27.4121 147.794 27.5621 147.644C27.7121 147.484 27.902 147.354 28.142 147.264C28.382 147.164 28.6621 147.104 28.9821 147.064C29.2921 147.024 29.582 147.024 29.832 147.064C30.092 147.104 30.342 147.174 30.532 147.284C30.732 147.394 30.902 147.534 31.032 147.714C31.162 147.894 31.2521 148.104 31.2921 148.344L31.6721 150.424L24.702 151.254L24.582 150.614L27.452 150.274L27.2421 148.984ZM30.382 148.164C30.312 148.054 30.2321 147.974 30.1121 147.894C30.0021 147.824 29.862 147.774 29.702 147.744C29.542 147.714 29.3421 147.714 29.1121 147.744C28.8821 147.774 28.6921 147.814 28.5421 147.884C28.3921 147.954 28.282 148.044 28.192 148.144C28.122 148.244 28.0721 148.374 28.0521 148.504C28.0421 148.644 28.042 148.794 28.072 148.954L28.2921 150.174L30.762 149.884L30.512 148.524C30.482 148.384 30.442 148.274 30.382 148.164Z" fill="white"/>
<path d="M30.0821 136.314L23.8821 136.604L23.9721 139.184L30.1721 138.894L30.1921 139.544L23.1721 139.874L23.0421 135.994L30.0621 135.664L30.0821 136.314Z" fill="white"/>
<path d="M27.7422 128.664C28.0422 128.704 28.3221 128.764 28.5921 128.854C28.8621 128.944 29.1121 129.044 29.3321 129.174C29.5621 129.304 29.7521 129.454 29.9121 129.634C30.0821 129.814 30.2021 130.004 30.2821 130.234C30.3621 130.454 30.4021 130.704 30.3821 130.974C30.3621 131.234 30.3021 131.494 30.1921 131.714C30.0821 131.934 29.9322 132.134 29.7422 132.314C29.5622 132.484 29.3522 132.644 29.1122 132.774C28.8722 132.914 28.6121 133.024 28.3321 133.104C28.0521 133.194 27.7621 133.254 27.4621 133.304C27.1621 133.344 26.8622 133.364 26.5622 133.364C26.0122 133.364 25.5321 133.314 25.0721 133.204C24.6321 133.094 24.2522 132.944 23.9322 132.744C23.6222 132.544 23.3821 132.294 23.2221 132.004C23.0521 131.704 22.9821 131.374 23.0121 131.004C23.0321 130.634 23.1421 130.294 23.3421 130.004C23.5321 129.704 23.8021 129.464 24.1421 129.254C24.4721 129.054 24.8721 128.904 25.3321 128.794C25.8021 128.684 26.2921 128.634 26.8421 128.624C27.1521 128.594 27.4522 128.614 27.7422 128.664ZM25.6521 129.364C25.2921 129.444 24.9821 129.554 24.7221 129.694C24.4621 129.844 24.2521 130.024 24.1021 130.234C23.9421 130.454 23.8621 130.694 23.8421 130.964C23.8221 131.234 23.8821 131.484 24.0121 131.694C24.1321 131.904 24.3222 132.084 24.5622 132.224C24.8122 132.374 25.1021 132.484 25.4521 132.564C25.8021 132.634 26.1921 132.674 26.6021 132.674C27.0321 132.674 27.4221 132.634 27.7721 132.574C28.1321 132.494 28.4421 132.394 28.7021 132.244C28.9621 132.104 29.1621 131.914 29.3221 131.704C29.4721 131.484 29.5521 131.234 29.5721 130.944C29.5921 130.654 29.5321 130.404 29.4121 130.184C29.2821 129.964 29.1022 129.784 28.8622 129.644C28.6222 129.504 28.3221 129.404 27.9721 129.334C27.6321 129.264 27.2422 129.224 26.8122 129.224C26.4022 129.254 26.0021 129.294 25.6521 129.364Z" fill="white"/>
<path d="M31.8022 119.574L25.6622 119.164L25.1422 121.744L31.2822 122.154L31.1522 122.804L24.1921 122.344L24.9722 118.464L31.9322 118.924L31.8022 119.574Z" fill="white"/>
<path d="M26.6221 112.924C26.7821 112.744 26.9621 112.604 27.1721 112.494C27.3821 112.384 27.6221 112.314 27.8821 112.284C28.1521 112.244 28.4221 112.244 28.7321 112.284C29.0421 112.314 29.3021 112.374 29.5321 112.474C29.7621 112.564 29.9521 112.674 30.0821 112.824C30.2321 112.974 30.3121 113.144 30.3521 113.344C30.3921 113.544 30.3721 113.784 30.2921 114.054L29.8921 115.434L32.7521 115.744L32.5621 116.384L25.6821 115.624L26.2721 113.604C26.3521 113.334 26.4621 113.114 26.6221 112.924ZM29.3821 113.254C29.2121 113.074 28.9421 112.974 28.5521 112.924C28.1621 112.884 27.8421 112.924 27.5821 113.054C27.3421 113.184 27.1621 113.414 27.0621 113.754L26.6821 115.064L29.1021 115.334L29.4821 114.024C29.5721 113.684 29.5421 113.424 29.3821 113.254Z" fill="white"/>
<path d="M33.5622 105.654C33.8422 105.744 34.0921 105.844 34.3221 105.974C34.5521 106.104 34.7621 106.234 34.9421 106.404C35.1221 106.564 35.2621 106.744 35.3521 106.944C35.4521 107.144 35.5121 107.354 35.5221 107.584C35.5321 107.814 35.4921 108.064 35.3821 108.324C35.2821 108.584 35.1421 108.824 34.9621 109.024C34.7821 109.224 34.5721 109.404 34.3421 109.544C34.1221 109.684 33.8621 109.804 33.5821 109.894C33.3021 109.994 33.0221 110.054 32.7221 110.094C32.4221 110.134 32.1322 110.154 31.8122 110.154C31.5122 110.154 31.2122 110.124 30.9222 110.074C30.3922 109.994 29.9421 109.864 29.5421 109.694C29.1521 109.524 28.8321 109.304 28.5921 109.064C28.3521 108.814 28.2021 108.534 28.1421 108.224C28.0721 107.904 28.1122 107.564 28.2522 107.204C28.3922 106.844 28.6021 106.524 28.8921 106.264C29.1721 106.004 29.5121 105.804 29.9021 105.644C30.2921 105.494 30.7221 105.404 31.2021 105.364C31.6821 105.324 32.1821 105.344 32.7121 105.434C33.0121 105.504 33.3022 105.564 33.5622 105.654ZM31.3122 106.034C30.9422 106.054 30.6122 106.124 30.3122 106.224C30.0122 106.334 29.7521 106.484 29.5421 106.664C29.3221 106.854 29.1622 107.084 29.0622 107.344C28.9622 107.604 28.9322 107.854 28.9922 108.094C29.0422 108.324 29.1621 108.524 29.3521 108.704C29.5421 108.884 29.7921 109.044 30.1021 109.174C30.4121 109.304 30.7722 109.394 31.1722 109.464C31.5922 109.524 31.9821 109.554 32.3321 109.544C32.7021 109.524 33.0321 109.464 33.3321 109.364C33.6321 109.264 33.8821 109.114 34.1021 108.934C34.3121 108.744 34.4721 108.504 34.5821 108.224C34.6921 107.944 34.7222 107.684 34.6722 107.454C34.6122 107.224 34.5022 107.014 34.3122 106.834C34.1222 106.654 33.8622 106.514 33.5522 106.394C33.2522 106.274 32.8821 106.174 32.4721 106.114C32.0821 106.034 31.6822 106.014 31.3122 106.034Z" fill="white"/>
<path d="M31.5322 101.934L37.4222 103.104L37.1222 103.734L30.4521 102.404L31.7522 99.6541L32.5322 99.8141L31.5322 101.934Z" fill="white"/>
<path d="M34.5622 94.714C34.7622 94.554 34.9722 94.4341 35.2122 94.3541C35.4422 94.2741 35.6922 94.2341 35.9622 94.2341C36.2322 94.2241 36.5022 94.264 36.7922 94.334C37.0822 94.404 37.3222 94.494 37.5222 94.614C37.7222 94.724 37.8722 94.864 37.9722 95.024C38.0722 95.184 38.1222 95.3741 38.1122 95.5741C38.1022 95.7841 38.0221 96.0141 37.8821 96.2641L37.1422 97.584L39.8522 98.244L39.5121 98.864L32.9722 97.2841L34.0522 95.3441C34.2022 95.0841 34.3722 94.884 34.5622 94.714ZM37.1822 95.374C37.0622 95.174 36.8221 95.0441 36.4521 94.9541C36.0821 94.8641 35.7622 94.864 35.4722 94.964C35.2022 95.064 34.9722 95.2741 34.7822 95.6041L34.0822 96.864L36.3722 97.4141L37.0721 96.154C37.2621 95.824 37.3022 95.554 37.1822 95.374Z" fill="white"/>
<path d="M45.2621 89.4241L44.8221 90.0941L42.5522 90.0041L41.3922 91.774L43.0121 92.8441L42.5922 93.4741L37.2322 89.9041L37.7122 89.1741L45.2621 89.4241ZM41.7722 89.9841L38.4922 89.8441L40.8221 91.4241L41.7722 89.9841Z" fill="white"/>
<path d="M47.2822 85.024L43.0422 81.9841L43.6921 81.144L49.8622 83.2841L49.4421 83.834L44.2522 82.0341L44.2422 82.0441L48.4822 85.0741L48.0322 85.6641L41.8922 85.0941L41.8821 85.1041L47.0721 86.9041L46.6522 87.4541L40.4822 85.3141L41.1321 84.4741L47.2722 85.0341L47.2822 85.024Z" fill="white"/>
<path d="M52.6021 78.6241L48.692 75.3841L49.4221 74.5741L55.342 77.0141L54.8721 77.5441L49.892 75.4941L49.882 75.5041L53.7921 78.7441L53.282 79.3041L47.2421 78.4441L47.2321 78.4541L52.212 80.5041L51.7421 81.0341L45.822 78.5941L46.5521 77.7841L52.6021 78.6441V78.6241Z" fill="white"/>
<path d="M56.9421 73.774L54.4921 69.524L55.1321 68.894L60.7821 71.6041L60.2221 72.144L55.6221 69.9341L55.6121 69.9441L58.0921 74.2041L57.4521 74.834L51.8021 72.1241L52.3621 71.584L56.9421 73.774Z" fill="white"/>
<path d="M60.3422 64.4541C60.6022 64.3441 60.8522 64.2741 61.1122 64.2441C61.3622 64.2141 61.6222 64.2341 61.8722 64.2841C62.1322 64.3341 62.3622 64.4341 62.6022 64.5641C62.8422 64.6941 63.0322 64.8341 63.1622 64.9941C63.3022 65.1541 63.3822 65.3141 63.3922 65.4941C63.4122 65.6741 63.3722 65.8641 63.2722 66.0541C63.1622 66.2541 62.9922 66.4541 62.7422 66.6741L61.4521 67.7841L63.6921 69.0141L63.0922 69.5341L57.7021 66.5841L59.6022 64.9541C59.8322 64.7341 60.0822 64.5641 60.3422 64.4541ZM62.4922 65.6541C62.4722 65.4441 62.3122 65.2541 62.0022 65.0841C61.6922 64.9141 61.3922 64.8441 61.0822 64.8841C60.7822 64.9141 60.4722 65.0741 60.1522 65.3441L58.9222 66.4041L60.8122 67.4441L62.0422 66.3841C62.3622 66.1041 62.5122 65.8641 62.4922 65.6541Z" fill="white"/>
<path d="M71.2922 60.1941C71.4722 60.3641 71.6122 60.5341 71.7322 60.7241C71.8422 60.9141 71.9222 61.1041 71.9722 61.3141C72.0122 61.5141 72.0122 61.7341 71.9522 61.9341C71.9022 62.1441 71.8122 62.3541 71.6522 62.5741C71.5022 62.7841 71.2922 62.9941 71.0222 63.1941C70.7622 63.3941 70.4722 63.5641 70.1822 63.6841C69.8922 63.8041 69.5922 63.8941 69.2922 63.9441C69.0022 63.9941 68.7022 64.0241 68.4022 64.0141C68.0922 64.0141 67.8022 63.9741 67.5222 63.9141C67.2322 63.8541 66.9722 63.7741 66.7022 63.6741C66.4522 63.5741 66.2122 63.4441 65.9922 63.3141C65.5922 63.0641 65.2922 62.8041 65.0722 62.5141C64.8522 62.2241 64.7222 61.9341 64.6822 61.6341C64.6522 61.3341 64.7122 61.0241 64.8822 60.7241C65.0422 60.4141 65.3122 60.1241 65.6822 59.8441C66.0522 59.5641 66.4522 59.344 66.8822 59.214C67.3022 59.064 67.7322 59.004 68.1722 58.994C68.6122 58.984 69.0422 59.0541 69.4722 59.1741C69.9122 59.3041 70.3222 59.4841 70.7222 59.7341C70.9222 59.8741 71.1222 60.0241 71.2922 60.1941ZM69.1122 59.7941C68.7822 59.6941 68.4522 59.6441 68.1222 59.6341C67.7922 59.6341 67.4622 59.684 67.1622 59.774C66.8422 59.874 66.5522 60.0241 66.2822 60.2341C66.0122 60.4341 65.8222 60.6541 65.7122 60.8841C65.6022 61.1041 65.5622 61.334 65.6022 61.554C65.6422 61.784 65.7422 62.0041 65.9222 62.2241C66.1022 62.4441 66.3422 62.654 66.6422 62.834C66.9522 63.034 67.2722 63.1841 67.5922 63.2841C67.9222 63.3841 68.2522 63.4441 68.5722 63.4541C68.9022 63.4641 69.2122 63.4041 69.5322 63.3141C69.8422 63.2141 70.1422 63.054 70.4322 62.834C70.7222 62.614 70.9222 62.3941 71.0422 62.1641C71.1522 61.9341 71.2022 61.7141 71.1522 61.4841C71.1122 61.2641 70.9922 61.044 70.8022 60.834C70.6322 60.624 70.3822 60.4141 70.0622 60.2241C69.7622 60.0441 69.4422 59.8941 69.1122 59.7941Z" fill="white"/>
<path d="M73.2721 54.6341C73.4321 54.5441 73.6021 54.4641 73.7721 54.3941C73.9321 54.3341 74.0921 54.2841 74.2721 54.2541C74.4421 54.2241 74.6121 54.2141 74.7921 54.2241C74.9721 54.2341 75.1521 54.2741 75.3221 54.3241C75.4921 54.3841 75.6621 54.4641 75.8221 54.5841C75.9021 54.6441 75.9821 54.7141 76.0521 54.7941C76.1121 54.8841 76.1721 54.9741 76.2221 55.0741C76.2621 55.1841 76.2821 55.2841 76.2621 55.4041C76.2621 55.5241 76.2121 55.6441 76.1421 55.7641C76.2821 55.7141 76.4421 55.6741 76.6021 55.6441C76.7721 55.6141 76.9421 55.6041 77.1321 55.6041C77.3121 55.6141 77.4921 55.6441 77.6921 55.6941C77.8821 55.7541 78.0721 55.8441 78.2521 55.9741C78.3621 56.0541 78.4521 56.1341 78.5321 56.2241C78.6221 56.3341 78.6821 56.4341 78.7321 56.5441C78.7721 56.6641 78.7921 56.7841 78.7921 56.9141C78.7921 57.0441 78.7521 57.1741 78.6921 57.3141C78.6321 57.4541 78.5321 57.5941 78.4021 57.7441C78.2721 57.8841 78.0921 58.0341 77.8621 58.1841L75.6921 59.6441L70.9121 56.2241L72.7521 54.9841C72.9221 54.8441 73.1121 54.7241 73.2721 54.6341ZM77.6821 57.4141C77.7921 57.2841 77.8621 57.1641 77.8821 57.0341C77.9121 56.9241 77.8821 56.8141 77.8221 56.7141C77.7621 56.6141 77.6721 56.5141 77.5521 56.4241C77.4321 56.3341 77.2921 56.2641 77.1521 56.2241C77.0121 56.1841 76.8521 56.1541 76.6821 56.1641C76.5121 56.1841 76.3321 56.2241 76.1421 56.2941C75.9421 56.3741 75.7421 56.4841 75.5121 56.6341L74.1221 57.5641L75.7821 58.7541L77.1721 57.8241C77.3921 57.6941 77.5621 57.5541 77.6821 57.4141ZM75.3821 55.9341C75.4821 55.8141 75.5221 55.6941 75.5421 55.5941C75.5521 55.4941 75.5221 55.4041 75.4521 55.3241C75.3821 55.2441 75.2921 55.1641 75.1921 55.0841C75.0821 55.0041 74.9621 54.9441 74.8421 54.9041C74.7121 54.8741 74.5821 54.8541 74.4321 54.8741C74.2821 54.8841 74.1221 54.9241 73.9621 54.9941C73.7921 55.0641 73.6121 55.1641 73.4121 55.2941L72.1321 56.1541L73.6121 57.2141L74.8921 56.3441C75.1221 56.1941 75.2821 56.0541 75.3821 55.9341Z" fill="white"/>
<path d="M86.6322 52.6841L85.8222 53.1741L83.8822 52.4141L81.7523 53.6941L82.5122 55.1641L81.7523 55.6241L79.2622 50.7241L80.1422 50.1941L86.6322 52.6841ZM83.2022 52.1441L80.3922 51.0341L81.4622 53.1941L83.2022 52.1441Z" fill="white"/>
<path d="M90.4722 47.0341L88.7722 45.4641L89.5322 45.0541L93.6522 48.8741L92.8922 49.2741L90.9521 47.4741L87.9222 49.0841L89.8622 50.8841L89.1022 51.2841L84.9822 47.4641L85.7422 47.0541L87.4421 48.6241L90.4722 47.0341Z" fill="white"/>
<path d="M96.8022 46.2041L96.7922 41.5541L97.7122 41.1241L101.462 45.1241L100.672 45.4941L97.6222 42.2441L97.6022 42.2541L97.6321 46.9241L96.7122 47.3541L92.9622 43.3541L93.7522 42.9841L96.7822 46.2141L96.8022 46.2041Z" fill="white"/>
<path d="M104.552 40.6441C104.342 40.3441 104.222 40.0441 104.182 39.7441C104.132 39.4541 104.172 39.1641 104.272 38.9041C104.382 38.6341 104.562 38.3841 104.842 38.1541C105.112 37.9241 105.472 37.7141 105.922 37.5341C106.392 37.3441 106.862 37.2241 107.312 37.1941C107.762 37.1541 108.192 37.1841 108.592 37.2741C108.992 37.3641 109.362 37.5241 109.702 37.7441C110.052 37.9641 110.342 38.2341 110.602 38.5641C110.742 38.7441 110.862 38.9341 110.962 39.1241C111.052 39.3241 111.112 39.5241 111.132 39.7341C111.162 39.9341 111.152 40.1441 111.102 40.3441C111.052 40.5541 110.952 40.7441 110.822 40.9341C110.692 41.1241 110.502 41.3041 110.272 41.4741C110.032 41.6441 109.742 41.8041 109.412 41.9341C109.092 42.0641 108.782 42.1541 108.482 42.2041C108.182 42.2641 107.882 42.2841 107.612 42.2741C107.332 42.2741 107.062 42.2441 106.812 42.1841C106.562 42.1241 106.312 42.0441 106.092 41.9441C105.852 41.8441 105.662 41.7241 105.462 41.5941C105.272 41.4541 105.102 41.3141 104.952 41.1441L103.982 41.5341L105.452 43.3841L104.622 43.7141L101.302 39.5241L102.132 39.1941L103.592 41.0341L104.552 40.6441ZM109.092 38.2441C108.822 38.0741 108.542 37.9541 108.242 37.8741C107.942 37.7941 107.622 37.7641 107.302 37.7941C106.962 37.8141 106.642 37.8941 106.322 38.0241C105.992 38.1541 105.732 38.3141 105.542 38.5041C105.352 38.6941 105.212 38.8941 105.152 39.1241C105.092 39.3441 105.092 39.5841 105.172 39.8341C105.232 40.0841 105.372 40.3441 105.562 40.5841C105.762 40.8441 106.002 41.0541 106.272 41.2141C106.542 41.3841 106.822 41.5041 107.132 41.5841C107.432 41.6641 107.742 41.6841 108.072 41.6641C108.382 41.6441 108.712 41.5641 109.032 41.4441C109.402 41.2941 109.692 41.1241 109.882 40.9441C110.082 40.7541 110.212 40.5541 110.262 40.3341C110.312 40.1141 110.302 39.8841 110.212 39.6341C110.132 39.3941 109.982 39.1441 109.782 38.8941C109.582 38.6341 109.352 38.4241 109.092 38.2441Z" fill="white"/>
<path d="M121.232 32.304L122.442 31.924L120.812 34.564L125.182 36.324L124.072 36.674L120.442 35.164L119.812 36.184L120.742 37.724L119.872 37.994L117.202 33.574L118.072 33.304L119.372 35.454L121.232 32.304Z" fill="white"/>
<path d="M128.542 34.744C128.612 34.744 128.672 34.744 128.742 34.744L128.962 34.724C129.032 34.714 129.102 34.704 129.162 34.684C129.292 34.654 129.402 34.604 129.492 34.554C129.572 34.504 129.642 34.454 129.692 34.384C129.732 34.324 129.782 34.264 129.792 34.194C129.812 34.124 129.812 34.064 129.812 33.994L125.262 31.094L126.302 30.814L130.012 33.224L130.162 29.774L131.162 29.504L130.792 33.454C130.752 33.714 130.712 33.944 130.672 34.134C130.622 34.334 130.562 34.494 130.462 34.634C130.362 34.774 130.232 34.894 130.072 34.994C129.912 35.094 129.702 35.174 129.442 35.244C129.302 35.284 129.162 35.304 129.022 35.314C128.882 35.324 128.762 35.324 128.682 35.304L128.382 34.714C128.422 34.734 128.472 34.734 128.542 34.744Z" fill="white"/>
<path d="M138.332 27.954C138.622 27.964 138.892 28.004 139.112 28.084C139.342 28.164 139.532 28.274 139.682 28.424C139.842 28.574 139.952 28.744 140.042 28.944C140.122 29.154 140.162 29.344 140.132 29.524C140.112 29.714 140.042 29.884 139.912 30.034C139.782 30.194 139.592 30.334 139.352 30.464C139.102 30.594 138.802 30.694 138.422 30.774L136.482 31.214L137.262 33.134L136.362 33.334L134.482 28.704L137.332 28.064C137.692 27.994 138.032 27.954 138.332 27.954ZM139.062 29.824C139.222 29.634 139.242 29.414 139.132 29.144C139.022 28.884 138.842 28.704 138.562 28.614C138.302 28.524 137.922 28.534 137.442 28.644L135.592 29.054L136.252 30.674L138.102 30.264C138.592 30.154 138.902 30.004 139.062 29.824Z" fill="white"/>
<path d="M145.092 29.824C145.272 30.044 145.492 30.214 145.742 30.344C145.992 30.474 146.272 30.564 146.582 30.604C146.892 30.644 147.212 30.634 147.542 30.574C147.842 30.524 148.082 30.444 148.302 30.324C148.512 30.214 148.682 30.084 148.812 29.934C148.942 29.774 149.042 29.624 149.102 29.464C149.152 29.294 149.182 29.134 149.162 28.964L150.052 28.804C150.072 28.944 150.082 29.094 150.062 29.244C150.032 29.404 149.992 29.554 149.912 29.704C149.842 29.854 149.742 30.004 149.612 30.154C149.492 30.304 149.342 30.434 149.162 30.564C148.982 30.684 148.772 30.804 148.532 30.894C148.302 30.994 148.032 31.064 147.722 31.124C147.512 31.164 147.292 31.184 147.042 31.194C146.792 31.214 146.542 31.204 146.292 31.174C146.032 31.154 145.782 31.094 145.522 31.014C145.262 30.934 145.022 30.814 144.812 30.674C144.592 30.524 144.392 30.334 144.222 30.104C144.042 29.884 143.902 29.604 143.802 29.274C143.702 28.954 143.662 28.664 143.672 28.394C143.682 28.134 143.742 27.894 143.832 27.674C143.932 27.464 144.062 27.274 144.232 27.104C144.392 26.934 144.582 26.794 144.792 26.664C145.002 26.544 145.242 26.434 145.472 26.354C145.722 26.274 145.972 26.204 146.222 26.164C146.542 26.104 146.832 26.084 147.092 26.074C147.362 26.074 147.612 26.094 147.842 26.124C148.072 26.164 148.272 26.224 148.452 26.294C148.632 26.364 148.802 26.444 148.942 26.534C149.082 26.624 149.192 26.734 149.292 26.834C149.382 26.944 149.462 27.044 149.502 27.154L148.602 27.314C148.502 27.174 148.372 27.054 148.212 26.954C148.052 26.854 147.892 26.774 147.692 26.724C147.502 26.674 147.302 26.644 147.092 26.634C146.872 26.634 146.642 26.644 146.412 26.684C146.062 26.744 145.752 26.854 145.502 26.994C145.252 27.134 145.042 27.304 144.892 27.504C144.742 27.714 144.642 27.934 144.612 28.194C144.582 28.454 144.602 28.724 144.692 29.014C144.772 29.344 144.922 29.604 145.092 29.824Z" fill="white"/>
<path d="M160.102 29.164L159.112 24.374L160.042 24.254L161.032 29.044L160.102 29.164ZM156.142 26.784C156.562 26.734 156.922 26.714 157.252 26.744C157.572 26.774 157.852 26.834 158.062 26.924C158.292 27.014 158.462 27.144 158.602 27.304C158.732 27.464 158.822 27.654 158.872 27.874C158.912 28.084 158.912 28.284 158.842 28.464C158.782 28.654 158.672 28.824 158.512 28.964C158.352 29.104 158.142 29.234 157.882 29.344C157.622 29.444 157.312 29.524 156.962 29.564L153.952 29.954L152.962 25.164L153.892 25.044L154.302 27.014L156.142 26.784ZM157.242 28.914C157.402 28.864 157.522 28.794 157.642 28.714C157.742 28.634 157.822 28.534 157.872 28.414C157.922 28.294 157.922 28.164 157.882 28.004C157.852 27.844 157.792 27.714 157.702 27.614C157.602 27.514 157.482 27.444 157.332 27.384C157.182 27.344 157.012 27.314 156.822 27.304C156.622 27.304 156.402 27.314 156.172 27.344L154.412 27.574L154.762 29.264L156.732 29.004C156.912 28.994 157.082 28.964 157.242 28.914Z" fill="white"/>
<path d="M174.372 27.974L174.132 23.684L170.392 23.904L170.632 28.194L169.692 28.244L169.412 23.394L175.022 23.064L175.302 27.914L174.372 27.974Z" fill="white"/>
<path d="M185.472 25.884C185.402 26.094 185.312 26.294 185.172 26.484C185.042 26.674 184.882 26.854 184.692 27.024C184.502 27.194 184.272 27.334 184.012 27.454C183.752 27.584 183.462 27.674 183.142 27.754C182.812 27.824 182.462 27.864 182.072 27.874C181.692 27.884 181.332 27.854 181.012 27.784C180.702 27.724 180.412 27.634 180.162 27.514C179.922 27.404 179.702 27.264 179.522 27.104C179.332 26.944 179.182 26.774 179.072 26.584C178.952 26.394 178.872 26.204 178.812 25.994C178.762 25.794 178.742 25.584 178.742 25.374C178.752 24.994 178.842 24.654 179.012 24.334C179.182 24.024 179.412 23.744 179.702 23.514C180.002 23.284 180.372 23.104 180.802 22.974C181.242 22.844 181.722 22.774 182.252 22.764C182.792 22.754 183.282 22.814 183.692 22.934C184.122 23.054 184.462 23.224 184.752 23.444C185.042 23.664 185.242 23.934 185.392 24.244C185.532 24.564 185.602 24.894 185.592 25.274C185.582 25.474 185.542 25.684 185.472 25.884ZM184.512 24.474C184.412 24.234 184.252 24.024 184.052 23.854C183.842 23.684 183.582 23.544 183.282 23.454C182.972 23.354 182.622 23.314 182.232 23.324C181.842 23.334 181.482 23.384 181.172 23.484C180.862 23.584 180.592 23.724 180.382 23.904C180.162 24.084 179.982 24.294 179.872 24.544C179.752 24.794 179.682 25.064 179.672 25.344C179.662 25.644 179.702 25.914 179.792 26.154C179.892 26.394 180.042 26.604 180.242 26.774C180.442 26.944 180.702 27.074 181.002 27.174C181.312 27.264 181.672 27.304 182.092 27.304C182.512 27.294 182.872 27.244 183.192 27.144C183.512 27.034 183.782 26.904 183.992 26.724C184.202 26.544 184.362 26.334 184.462 26.084C184.582 25.844 184.642 25.574 184.652 25.274C184.662 24.984 184.612 24.714 184.512 24.474Z" fill="white"/>
<path d="M198.472 28.144L199.242 23.854L195.532 23.654L194.762 27.944L193.832 27.894L194.702 23.034L200.272 23.344L199.402 28.204L198.472 28.144Z" fill="white"/>
<path d="M208.212 24.144C208.462 24.244 208.672 24.364 208.822 24.504C208.972 24.644 209.072 24.804 209.112 24.984C209.162 25.164 209.152 25.364 209.092 25.574C209.032 25.784 208.942 25.974 208.802 26.134C208.672 26.304 208.492 26.434 208.282 26.534C208.062 26.644 207.812 26.714 207.522 26.754C207.222 26.794 206.892 26.794 206.502 26.754L204.522 26.564L203.982 28.564L203.062 28.474L204.352 23.654L207.252 23.944C207.632 23.984 207.952 24.044 208.212 24.144ZM207.672 26.084C207.932 25.954 208.092 25.764 208.172 25.484C208.242 25.204 208.192 24.994 208.012 24.824C207.842 24.664 207.502 24.554 207.012 24.504L205.122 24.314L204.672 26.004L206.552 26.194C207.042 26.244 207.422 26.204 207.672 26.084Z" fill="white"/>
<path d="M218.512 28.514C218.382 28.714 218.222 28.894 218.032 29.064C217.842 29.234 217.632 29.384 217.402 29.514C217.162 29.644 216.892 29.754 216.612 29.834C216.322 29.914 216.012 29.974 215.672 29.994C215.332 30.014 214.982 30.004 214.602 29.944C214.232 29.894 213.892 29.804 213.602 29.694C213.322 29.584 213.072 29.454 212.872 29.294C212.672 29.144 212.512 28.974 212.382 28.794C212.252 28.604 212.162 28.414 212.112 28.214C212.052 28.014 212.042 27.804 212.052 27.594C212.062 27.384 212.112 27.174 212.192 26.974C212.322 26.604 212.522 26.284 212.782 25.994C213.042 25.714 213.362 25.474 213.712 25.294C214.072 25.114 214.492 24.994 214.942 24.934C215.402 24.864 215.892 24.874 216.412 24.954C216.932 25.034 217.382 25.154 217.752 25.344C218.122 25.524 218.402 25.744 218.612 26.004C218.822 26.264 218.932 26.564 218.972 26.884C219.012 27.214 218.972 27.564 218.832 27.934C218.762 28.124 218.652 28.324 218.512 28.514ZM218.042 26.984C218.022 26.734 217.932 26.504 217.802 26.294C217.652 26.094 217.452 25.924 217.182 25.784C216.912 25.644 216.592 25.544 216.212 25.494C215.832 25.444 215.472 25.434 215.132 25.494C214.802 25.544 214.502 25.644 214.242 25.784C213.972 25.924 213.732 26.114 213.542 26.334C213.352 26.554 213.202 26.814 213.102 27.094C212.992 27.384 212.952 27.664 212.962 27.904C212.982 28.154 213.062 28.384 213.192 28.584C213.332 28.784 213.542 28.944 213.802 29.094C214.072 29.234 214.402 29.324 214.812 29.384C215.222 29.444 215.592 29.444 215.922 29.394C216.262 29.334 216.562 29.244 216.822 29.104C217.082 28.964 217.302 28.774 217.482 28.544C217.672 28.324 217.812 28.064 217.922 27.774C218.022 27.514 218.062 27.234 218.042 26.984Z" fill="white"/>
<path d="M223.952 26.884L222.092 31.044L221.192 30.874L223.302 26.164L227.242 26.904L226.992 27.454L223.952 26.884Z" fill="white"/>
<path d="M234.292 28.544C234.512 28.674 234.682 28.814 234.792 28.974C234.902 29.134 234.952 29.304 234.952 29.484C234.952 29.674 234.892 29.864 234.782 30.064C234.672 30.274 234.542 30.444 234.362 30.594C234.192 30.744 233.982 30.854 233.752 30.934C233.512 31.014 233.242 31.054 232.952 31.064C232.652 31.064 232.322 31.024 231.952 30.944L230.062 30.514L229.032 32.434L228.152 32.234L230.622 27.604L233.392 28.234C233.772 28.324 234.062 28.424 234.292 28.544ZM233.272 30.404C233.562 30.314 233.762 30.134 233.902 29.864C234.042 29.604 234.052 29.374 233.912 29.184C233.782 29.004 233.482 28.854 233.012 28.744L231.212 28.334L230.342 29.964L232.142 30.374C232.622 30.494 233.002 30.494 233.272 30.404Z" fill="white"/>
<path d="M241.622 35.644L240.662 35.374L240.862 33.794L238.342 33.094L236.752 34.284L235.852 34.034L241.152 30.094L242.192 30.384L241.622 35.644ZM240.922 33.254L241.212 30.964L238.862 32.684L240.922 33.254Z" fill="white"/>
<path d="M247.902 36.7741L252.402 33.6441L253.602 34.0441L250.342 38.4541L249.562 38.1941L252.312 34.4841L252.292 34.4741L247.792 37.6041L246.962 37.3241L247.952 33.0341L247.932 33.0241L245.182 36.7341L244.402 36.4741L247.662 32.0641L248.862 32.4641L247.872 36.7541L247.902 36.7741Z" fill="white"/>
<path d="M256.992 40.0741L261.782 37.1641L262.932 37.6241L259.242 41.8841L258.492 41.584L261.592 38.0041L261.572 37.994L256.792 40.9041L255.992 40.584L257.412 36.334L257.392 36.3241L254.292 39.9041L253.542 39.6041L257.232 35.3441L258.382 35.804L256.972 40.054L256.992 40.0741Z" fill="white"/>
<path d="M263.882 42.7941L270.092 40.8341L270.972 41.2441L266.892 45.3341L266.132 44.9841L269.452 41.6541L269.432 41.6441L263.212 43.6241L262.332 43.2141L266.412 39.1241L267.172 39.4741L263.872 42.7841L263.882 42.7941Z" fill="white"/>
<path d="M277.242 44.5841C277.392 44.7541 277.482 44.9341 277.522 45.1041C277.562 45.2741 277.522 45.4541 277.432 45.6341C277.352 45.8141 277.202 45.9841 277.012 46.1641C276.812 46.3341 276.612 46.4741 276.372 46.5741C276.142 46.6841 275.902 46.7441 275.642 46.7641C275.382 46.7941 275.112 46.7741 274.842 46.7141C274.562 46.6541 274.272 46.5441 273.962 46.3841L272.392 45.5541L270.562 47.1841L269.832 46.7941L274.252 42.8741L276.552 44.0941C276.852 44.2441 277.082 44.4141 277.242 44.5841ZM275.432 46.1441C275.742 46.1141 276.012 45.9941 276.272 45.7641C276.522 45.5441 276.632 45.3241 276.592 45.1141C276.552 44.9141 276.342 44.7041 275.952 44.4941L274.462 43.7041L272.912 45.0841L274.402 45.8741C274.792 46.0841 275.142 46.1741 275.432 46.1441Z" fill="white"/>
<path d="M283.072 51.9241C282.822 52.0541 282.562 52.1741 282.292 52.2541C282.012 52.3441 281.732 52.4141 281.432 52.4541C281.132 52.4941 280.832 52.5041 280.532 52.4841C280.222 52.4641 279.922 52.4141 279.622 52.3141C279.322 52.2241 279.022 52.0941 278.742 51.9141C278.462 51.7441 278.232 51.5541 278.052 51.3641C277.892 51.1741 277.762 50.9641 277.692 50.7641C277.622 50.5641 277.602 50.3541 277.622 50.1541C277.642 49.9441 277.692 49.7341 277.792 49.5441C277.882 49.3441 278.012 49.1541 278.162 48.9641C278.322 48.7841 278.502 48.6041 278.702 48.4441C279.072 48.1541 279.462 47.9241 279.892 47.7541C280.312 47.5841 280.742 47.4741 281.172 47.4341C281.602 47.3941 282.042 47.4241 282.472 47.5141C282.912 47.6041 283.332 47.7741 283.722 48.0141C284.122 48.2541 284.422 48.5141 284.602 48.8041C284.802 49.0941 284.892 49.3841 284.882 49.6841C284.882 49.9841 284.772 50.2941 284.582 50.5941C284.382 50.9041 284.112 51.2041 283.742 51.4941C283.542 51.6441 283.322 51.7941 283.072 51.9241ZM283.722 50.3741C283.882 50.1341 283.962 49.9041 283.982 49.6741C283.992 49.4441 283.932 49.2241 283.802 49.0141C283.672 48.7941 283.462 48.6041 283.172 48.4241C282.882 48.2541 282.582 48.1241 282.252 48.0641C281.932 48.0041 281.612 47.9841 281.282 48.0341C280.952 48.0741 280.622 48.1641 280.302 48.3041C279.982 48.4441 279.672 48.6241 279.402 48.8441C279.112 49.0741 278.882 49.3041 278.722 49.5241C278.562 49.7541 278.472 49.9941 278.452 50.2141C278.432 50.4441 278.502 50.6541 278.622 50.8741C278.762 51.0841 278.982 51.2841 279.292 51.4741C279.602 51.6641 279.912 51.7841 280.242 51.8541C280.572 51.9141 280.892 51.9341 281.212 51.8941C281.532 51.8541 281.852 51.7541 282.162 51.6141C282.472 51.4841 282.772 51.2941 283.062 51.0641C283.342 50.8441 283.562 50.6141 283.722 50.3741Z" fill="white"/>
<path d="M291.042 52.9541C291.172 53.0641 291.282 53.1741 291.382 53.2841C291.462 53.3841 291.532 53.5041 291.572 53.6241C291.612 53.7341 291.612 53.8541 291.592 53.9841C291.572 54.1041 291.512 54.2341 291.432 54.3541C291.342 54.4741 291.222 54.5941 291.052 54.7141C290.972 54.7741 290.852 54.8341 290.732 54.8841C290.602 54.9341 290.472 54.9841 290.322 55.0141C290.172 55.0441 290.012 55.0641 289.852 55.0641C289.682 55.0741 289.512 55.0441 289.332 55.0041C289.402 55.0941 289.452 55.2041 289.492 55.3141C289.532 55.4241 289.542 55.5441 289.532 55.6741C289.512 55.7941 289.462 55.9341 289.392 56.0641C289.302 56.2041 289.162 56.3341 288.972 56.4641C288.862 56.5441 288.732 56.6141 288.602 56.6741C288.452 56.7441 288.292 56.794 288.132 56.834C287.962 56.874 287.782 56.8941 287.592 56.9041C287.402 56.9141 287.212 56.894 287.022 56.864C286.812 56.824 286.612 56.7741 286.412 56.6841C286.202 56.6041 285.992 56.4841 285.782 56.3441L283.732 54.9241L288.802 51.4041L290.542 52.6041C290.752 52.7241 290.912 52.8441 291.042 52.9541ZM289.102 54.494C289.272 54.554 289.442 54.584 289.582 54.584C289.722 54.584 289.852 54.5541 289.982 54.5041C290.102 54.4541 290.222 54.384 290.332 54.304C290.452 54.224 290.542 54.134 290.602 54.054C290.652 53.964 290.672 53.874 290.662 53.774C290.662 53.674 290.602 53.5641 290.502 53.4541C290.412 53.3441 290.272 53.2141 290.092 53.0941L288.882 52.2541L287.312 53.3441L288.522 54.1841C288.732 54.3341 288.922 54.434 289.102 54.494ZM286.892 56.1841C287.072 56.2541 287.252 56.294 287.432 56.304C287.592 56.314 287.752 56.294 287.902 56.244C288.052 56.194 288.192 56.1341 288.322 56.0341C288.452 55.9441 288.552 55.844 288.622 55.744C288.692 55.644 288.722 55.5341 288.712 55.4141C288.692 55.2941 288.632 55.1741 288.532 55.0441C288.422 54.9141 288.272 54.7741 288.062 54.6341L286.752 53.7341L284.982 54.9641L286.292 55.864C286.502 56.004 286.702 56.1041 286.892 56.1841Z" fill="white"/>
<path d="M293.482 62.1041L292.802 61.5741L293.962 60.1841L292.172 58.7841L290.022 59.4041L289.382 58.9041L296.522 56.8741L297.252 57.4541L293.482 62.1041ZM294.362 59.6941L296.052 57.6741L292.902 58.5441L294.362 59.6941Z" fill="white"/>
<path d="M301.512 64.4141L303.832 63.144L304.392 63.644L298.762 66.7341L298.202 66.2341L300.852 64.7841L298.612 62.7841L295.962 64.2341L295.402 63.7341L301.032 60.644L301.592 61.144L299.272 62.4141L301.512 64.4141Z" fill="white"/>
<path d="M302.542 68.7641L309.252 68.4741L309.842 69.0841L303.962 71.9341L303.452 71.4041L308.232 69.0941L308.222 69.0841L301.482 69.3941L300.892 68.7841L306.772 65.9341L307.282 66.4641L302.522 68.7641H302.542Z" fill="white"/>
<path d="M310.342 73.804C310.782 73.644 311.222 73.534 311.652 73.494C312.082 73.444 312.492 73.4441 312.872 73.5041C313.252 73.5641 313.612 73.6741 313.942 73.8541C314.272 74.0241 314.552 74.2641 314.802 74.5641C315.062 74.8841 315.222 75.1941 315.262 75.5041C315.312 75.8141 315.252 76.114 315.112 76.394C314.972 76.674 314.722 76.9441 314.402 77.1941C314.072 77.4441 313.682 77.664 313.202 77.864C312.942 77.974 312.662 78.064 312.382 78.144C312.092 78.224 311.802 78.274 311.502 78.304C311.202 78.334 310.912 78.3441 310.622 78.3241C310.322 78.3041 310.042 78.2441 309.782 78.1641C309.512 78.0841 309.252 77.9641 309.012 77.8141C308.772 77.6641 308.552 77.464 308.372 77.244C308.192 77.034 308.072 76.824 308.002 76.614C307.922 76.404 307.902 76.2041 307.922 76.0141C307.932 75.8241 307.982 75.6341 308.082 75.4541C308.172 75.2741 308.292 75.1041 308.452 74.9441C308.602 74.7741 308.782 74.6341 308.982 74.4841C309.192 74.3441 309.402 74.2141 309.642 74.1041L309.102 73.4541L306.382 74.584L305.922 74.0341L312.062 71.4741L312.522 72.024L309.822 73.1541L310.342 73.804ZM313.682 76.804C313.932 76.604 314.122 76.4041 314.242 76.1941C314.362 75.9841 314.412 75.7541 314.392 75.5341C314.372 75.3041 314.272 75.084 314.092 74.864C313.912 74.644 313.692 74.4741 313.422 74.3541C313.162 74.2341 312.862 74.1541 312.542 74.1241C312.222 74.0941 311.882 74.1141 311.522 74.1741C311.152 74.2341 310.782 74.344 310.432 74.494C310.052 74.654 309.742 74.824 309.502 75.024C309.252 75.224 309.062 75.424 308.942 75.644C308.822 75.854 308.782 76.074 308.792 76.304C308.812 76.524 308.912 76.7441 309.092 76.9541C309.292 77.2041 309.532 77.3941 309.792 77.5141C310.072 77.6441 310.352 77.714 310.662 77.744C310.982 77.764 311.312 77.7441 311.662 77.6641C312.002 77.5941 312.372 77.4741 312.742 77.3241C313.102 77.1741 313.422 76.994 313.682 76.804Z" fill="white"/>
<defs>
<linearGradient id="paint0_linear_56_530" x1="170.207" y1="25.6022" x2="184.178" y2="233.663" gradientUnits="userSpaceOnUse">
<stop stop-color="#310042"/>
<stop offset="1" stop-color="white" stop-opacity="0"/>
</linearGradient>
</defs>
</svg>
