<svg width="919" height="913" viewBox="0 0 919 913" fill="none" xmlns="http://www.w3.org/2000/svg">
<path d="M459.162 887.214C698.931 887.214 893.302 694.41 893.302 456.574C893.302 218.738 698.931 25.9341 459.162 25.9341C219.393 25.9341 25.022 218.738 25.022 456.574C25.022 694.41 219.393 887.214 459.162 887.214Z" stroke="url(#paint0_linear_56_1403)" stroke-width="50" stroke-miterlimit="10"/>
<path d="M14.3121 430.694L14.532 426.944L22.142 435.784L34.6121 427.904L34.412 431.344L23.8721 437.824L26.8121 441.254L33.8021 441.664L33.642 444.344L13.572 443.164L13.7321 440.484L23.512 441.064L14.3121 430.694Z" fill="white"/>
<path d="M33.3121 416.614C33.4121 416.454 33.4921 416.294 33.6021 416.114L33.842 415.524C33.892 415.334 33.942 415.144 33.972 414.944C34.022 414.554 34.0021 414.184 33.9321 413.864C33.8521 413.574 33.742 413.304 33.572 413.064C33.402 412.844 33.2321 412.624 32.9921 412.464C32.7621 412.294 32.522 412.184 32.282 412.074L15.322 418.354L15.692 415.244L29.702 410.224L17.0621 403.654L17.4221 400.654L31.6121 408.674C32.5321 409.234 33.3421 409.754 33.9921 410.194C34.6721 410.674 35.182 411.124 35.572 411.624C35.962 412.124 36.2421 412.664 36.3621 413.244C36.5221 413.824 36.5221 414.504 36.4321 415.284C36.3821 415.704 36.2821 416.084 36.1221 416.464C35.9621 416.844 35.7921 417.134 35.6021 417.304L33.012 416.994C33.102 416.904 33.2021 416.774 33.3121 416.614Z" fill="white"/>
<path d="M21.3421 379.744C21.7821 379.024 22.2921 378.434 22.8821 378.004C23.4721 377.574 24.1521 377.294 24.9121 377.174C25.6821 377.024 26.4721 377.054 27.3521 377.214C28.2321 377.374 28.9821 377.624 29.6521 378.024C30.3221 378.404 30.8621 378.894 31.2621 379.504C31.6921 380.124 31.9621 380.854 32.0921 381.674C32.2221 382.524 32.1921 383.484 31.9921 384.584L30.9721 390.264L39.1821 391.734L38.7121 394.384L18.9221 390.834L20.4121 382.514C20.6221 381.414 20.9221 380.494 21.3421 379.744ZM29.2921 381.264C28.8021 380.524 28.0021 380.064 26.8721 379.864C25.7421 379.664 24.8321 379.814 24.1121 380.334C23.4221 380.834 22.9421 381.804 22.6821 383.204L21.7121 388.604L28.6521 389.854L29.6221 384.454C29.8821 383.044 29.7621 381.974 29.2921 381.264Z" fill="white"/>
<path d="M37.472 366.044C38.522 365.984 39.472 365.754 40.292 365.344C41.142 364.944 41.822 364.394 42.392 363.694C42.962 362.994 43.372 362.174 43.602 361.224C43.812 360.384 43.852 359.614 43.692 358.854C43.552 358.124 43.312 357.464 42.932 356.884C42.532 356.264 42.082 355.754 41.552 355.314C40.992 354.894 40.422 354.524 39.782 354.284L40.402 351.754C40.962 351.944 41.502 352.194 42.062 352.534C42.612 352.894 43.122 353.284 43.582 353.744C44.042 354.204 44.472 354.714 44.852 355.294C45.232 355.844 45.542 356.474 45.782 357.164C45.992 357.844 46.132 358.574 46.142 359.354C46.192 360.114 46.102 360.934 45.892 361.804C45.742 362.404 45.542 363.014 45.242 363.664C44.972 364.314 44.582 364.944 44.122 365.524C43.682 366.134 43.122 366.664 42.482 367.174C41.842 367.684 41.082 368.074 40.232 368.354C39.382 368.634 38.392 368.804 37.322 368.824C36.242 368.874 35.012 368.724 33.682 368.394C32.372 368.074 31.212 367.644 30.242 367.154C29.272 366.664 28.452 366.084 27.772 365.454C27.112 364.834 26.592 364.154 26.192 363.424C25.782 362.724 25.502 361.984 25.312 361.224C25.152 360.464 25.082 359.694 25.092 358.954C25.132 358.184 25.232 357.434 25.402 356.724C25.622 355.824 25.932 355.034 26.262 354.374C26.632 353.684 27.032 353.094 27.482 352.564C27.952 352.074 28.452 351.674 28.962 351.334C29.472 350.994 30.002 350.724 30.542 350.534C31.082 350.344 31.622 350.244 32.152 350.204C32.682 350.164 33.172 350.164 33.642 350.254L33.022 352.814C32.352 352.824 31.722 352.934 31.152 353.134C30.582 353.344 30.052 353.614 29.612 354.024C29.172 354.404 28.772 354.854 28.442 355.384C28.132 355.944 27.872 356.544 27.712 357.194C27.472 358.204 27.442 359.144 27.622 360.054C27.782 360.934 28.152 361.764 28.692 362.504C29.262 363.244 29.962 363.904 30.872 364.444C31.782 364.984 32.852 365.414 34.052 365.704C35.262 366.004 36.422 366.104 37.472 366.044Z" fill="white"/>
<path d="M41.162 332.714C41.522 331.564 41.972 330.624 42.512 329.854C43.052 329.084 43.6421 328.514 44.2921 328.124C44.9521 327.714 45.662 327.504 46.442 327.454C47.222 327.404 48.0321 327.514 48.9221 327.794C49.7721 328.064 50.512 328.444 51.092 328.924C51.702 329.414 52.192 330.004 52.512 330.664C52.832 331.324 53.0321 332.094 53.0621 332.924C53.0921 333.754 52.942 334.674 52.642 335.644L50.012 343.944L30.8521 337.874L31.662 335.314L39.5621 337.814L41.162 332.714ZM55.3621 326.994L36.202 320.924L37.012 318.364L56.1721 324.434L55.3621 326.994ZM50.582 333.764C50.592 333.264 50.5221 332.834 50.3721 332.404C50.2021 332.004 49.942 331.624 49.572 331.294C49.202 330.974 48.6921 330.724 48.0521 330.524C47.4121 330.324 46.8521 330.234 46.3621 330.284C45.8721 330.364 45.432 330.544 45.022 330.804C44.662 331.104 44.3321 331.494 44.0421 331.964C43.7621 332.464 43.522 333.034 43.322 333.674L41.782 338.534L48.5621 340.684L50.282 335.264C50.442 334.744 50.542 334.254 50.582 333.764Z" fill="white"/>
<path d="M70.322 288.914L54.042 281.854L49.792 291.664L66.072 298.724L65.002 301.194L46.562 293.194L52.952 278.454L71.392 286.454L70.322 288.914Z" fill="white"/>
<path d="M77.6221 257.154C78.3221 257.704 78.922 258.294 79.452 258.974C79.982 259.654 80.4421 260.364 80.7921 261.144C81.1421 261.924 81.372 262.764 81.462 263.634C81.582 264.514 81.552 265.414 81.382 266.364C81.212 267.314 80.8721 268.274 80.3621 269.274C79.8621 270.244 79.262 271.104 78.592 271.794C77.932 272.464 77.2021 273.034 76.4221 273.444C75.6821 273.854 74.862 274.154 74.022 274.324C73.172 274.514 72.312 274.584 71.462 274.524C70.602 274.494 69.762 274.344 68.902 274.124C68.082 273.894 67.2721 273.564 66.4921 273.174C65.1021 272.454 63.9521 271.624 62.9921 270.624C62.0521 269.634 61.352 268.554 60.902 267.414C60.462 266.244 60.292 264.994 60.392 263.694C60.482 262.354 60.882 261.024 61.592 259.654C62.302 258.284 63.1621 257.154 64.1821 256.324C65.1921 255.454 66.3021 254.894 67.5021 254.574C68.7121 254.244 69.982 254.214 71.332 254.404C72.712 254.604 74.052 255.044 75.452 255.764C76.232 256.124 76.9621 256.594 77.6221 257.154ZM71.072 257.034C70.032 256.844 69.042 256.874 68.132 257.064C67.202 257.284 66.3621 257.694 65.6121 258.294C64.8321 258.894 64.1921 259.704 63.6821 260.704C63.1721 261.704 62.8821 262.684 62.8521 263.674C62.8021 264.624 62.952 265.554 63.332 266.404C63.702 267.284 64.252 268.104 65.012 268.834C65.772 269.564 66.6821 270.234 67.7321 270.764C68.8321 271.324 69.892 271.714 70.892 271.914C71.932 272.104 72.902 272.094 73.822 271.904C74.742 271.714 75.552 271.284 76.322 270.704C77.082 270.084 77.732 269.254 78.282 268.184C78.832 267.114 79.132 266.104 79.192 265.124C79.232 264.134 79.1021 263.224 78.7221 262.364C78.3421 261.514 77.7621 260.734 76.9921 260.034C76.2621 259.314 75.3321 258.674 74.2321 258.114C73.1821 257.584 72.112 257.224 71.072 257.034Z" fill="white"/>
<path d="M103.682 228.404L88.762 218.784L82.972 227.774L97.892 237.394L96.432 239.654L79.542 228.764L88.252 215.254L105.142 226.144L103.682 228.404Z" fill="white"/>
<path d="M102.012 196.644C102.722 196.194 103.442 195.884 104.162 195.754C104.882 195.624 105.612 195.674 106.352 195.894C107.102 196.104 107.802 196.474 108.522 197.004C109.242 197.534 109.812 198.084 110.232 198.754C110.672 199.384 110.932 200.064 111.022 200.794C111.132 201.534 111.052 202.314 110.812 203.104C110.562 203.924 110.102 204.774 109.442 205.674L106.032 210.324L112.762 215.264L111.172 217.434L94.972 205.534L99.972 198.714C100.632 197.824 101.302 197.134 102.012 196.644ZM108.482 201.504C108.362 200.624 107.852 199.854 106.922 199.174C105.992 198.494 105.112 198.234 104.242 198.384C103.402 198.534 102.542 199.184 101.692 200.334L98.442 204.754L104.132 208.934L107.382 204.514C108.232 203.364 108.592 202.344 108.482 201.504Z" fill="white"/>
<path d="M132.272 178.514C132.832 179.204 133.292 179.914 133.662 180.694C134.032 181.474 134.322 182.264 134.492 183.104C134.662 183.944 134.702 184.814 134.602 185.674C134.522 186.554 134.302 187.434 133.922 188.324C133.542 189.214 133.002 190.074 132.282 190.934C131.582 191.774 130.812 192.474 130.002 193.004C129.212 193.514 128.372 193.904 127.522 194.144C126.712 194.374 125.842 194.494 124.982 194.474C124.102 194.474 123.262 194.354 122.442 194.104C121.612 193.884 120.822 193.554 120.032 193.144C119.282 192.734 118.562 192.244 117.892 191.684C116.692 190.674 115.762 189.604 115.032 188.424C114.332 187.254 113.882 186.044 113.692 184.824C113.522 183.584 113.632 182.324 114.012 181.074C114.392 179.784 115.082 178.574 116.072 177.394C117.062 176.214 118.152 175.304 119.332 174.714C120.512 174.094 121.712 173.784 122.962 173.734C124.212 173.684 125.462 173.924 126.742 174.414C128.042 174.914 129.252 175.644 130.462 176.644C131.142 177.204 131.752 177.824 132.272 178.514ZM125.912 176.954C124.942 176.544 123.972 176.354 123.032 176.334C122.082 176.344 121.162 176.564 120.302 176.974C119.402 177.394 118.612 178.044 117.892 178.904C117.172 179.764 116.682 180.664 116.422 181.624C116.162 182.544 116.112 183.484 116.292 184.394C116.452 185.334 116.812 186.254 117.392 187.134C117.972 188.014 118.722 188.864 119.622 189.614C120.572 190.404 121.512 191.014 122.452 191.424C123.422 191.834 124.372 192.044 125.312 192.064C126.252 192.084 127.142 191.844 128.022 191.444C128.902 191.004 129.712 190.334 130.482 189.414C131.252 188.494 131.772 187.574 132.042 186.634C132.292 185.674 132.372 184.754 132.192 183.834C132.012 182.914 131.612 182.034 131.022 181.174C130.472 180.304 129.702 179.484 128.752 178.694C127.852 177.954 126.882 177.364 125.912 176.954Z" fill="white"/>
<path d="M133.542 161.894L146.482 174.044L144.642 176.004L129.982 162.244L138.072 153.624L139.782 155.234L133.542 161.894Z" fill="white"/>
<path d="M153.772 138.794C154.552 138.474 155.312 138.294 156.042 138.294C156.772 138.294 157.482 138.464 158.172 138.824C158.882 139.154 159.502 139.644 160.122 140.294C160.742 140.944 161.202 141.584 161.502 142.304C161.822 143.004 161.962 143.724 161.932 144.454C161.912 145.204 161.702 145.954 161.332 146.694C160.942 147.454 160.352 148.214 159.542 148.994L155.372 152.984L161.142 159.014L159.202 160.874L145.312 146.344L151.422 140.504C152.212 139.714 152.992 139.154 153.772 138.794ZM159.312 144.704C159.352 143.814 158.972 142.974 158.182 142.144C157.392 141.314 156.562 140.904 155.672 140.904C154.822 140.904 153.862 141.394 152.832 142.384L148.862 146.174L153.742 151.274L157.712 147.484C158.732 146.484 159.272 145.554 159.312 144.704Z" fill="white"/>
<path d="M190.152 133.024L187.872 134.964L182.262 131.644L176.242 136.754L178.522 142.904L176.362 144.734L168.902 124.304L171.382 122.204L190.152 133.024ZM180.302 130.514L172.202 125.674L175.392 134.674L180.302 130.514Z" fill="white"/>
<path d="M202.902 119.184L197.372 102.214L200.472 99.9041L212.472 116.044L210.452 117.544L200.362 103.964L200.322 103.994L205.872 120.944L203.712 122.544L189.082 112.344L189.042 112.374L199.132 125.954L197.112 127.454L185.112 111.314L188.212 109.004L202.862 119.184H202.902Z" fill="white"/>
<path d="M227.532 102.194L223.202 84.8841L226.462 82.8041L237.302 99.7441L235.182 101.104L226.062 86.8541L226.012 86.8841L230.362 104.184L228.102 105.634L214.222 94.4341L214.172 94.4641L223.282 108.714L221.162 110.074L210.322 93.1341L213.582 91.0541L227.482 102.234L227.532 102.194Z" fill="white"/>
<path d="M246.962 89.6941L248.082 70.5141L250.802 69.0141L260.492 86.6341L258.132 87.9241L250.252 73.5941L250.202 73.6241L249.122 92.8741L246.402 94.3741L236.712 76.7541L239.072 75.4641L246.912 89.7241L246.962 89.6941Z" fill="white"/>
<path d="M271.762 59.1941C272.602 59.1341 273.382 59.2041 274.072 59.4341C274.762 59.6641 275.382 60.0541 275.922 60.5941C276.482 61.1341 276.922 61.7941 277.302 62.6041C277.682 63.4141 277.922 64.1741 277.972 64.9541C278.052 65.7241 277.962 66.4441 277.702 67.1241C277.452 67.8341 277.012 68.4741 276.422 69.0641C275.812 69.6641 275.002 70.1941 273.992 70.6741L268.782 73.1341L272.342 80.6741L269.912 81.8241L261.322 63.6441L268.972 60.0341C269.992 59.5741 270.912 59.2941 271.762 59.1941ZM275.142 66.5541C275.462 65.7241 275.372 64.8041 274.882 63.7641C274.392 62.7241 273.742 62.0741 272.902 61.7941C272.092 61.5241 271.022 61.6941 269.732 62.3041L264.772 64.6441L267.782 71.0241L272.742 68.6841C274.032 68.0641 274.842 67.3441 275.142 66.5541Z" fill="white"/>
<path d="M306.982 57.6541C307.142 58.5241 307.212 59.3741 307.162 60.2341C307.112 61.0941 306.992 61.9241 306.742 62.7541C306.492 63.5841 306.112 64.3641 305.612 65.0741C305.122 65.8141 304.512 66.4741 303.762 67.0741C303.002 67.6741 302.122 68.1741 301.082 68.5941C300.072 68.9941 299.052 69.2541 298.092 69.3341C297.152 69.4041 296.232 69.3541 295.372 69.1541C294.542 68.9741 293.732 68.6641 292.992 68.2341C292.222 67.8141 291.542 67.3041 290.932 66.7041C290.302 66.1141 289.772 65.4441 289.262 64.7141C288.792 63.9941 288.392 63.2241 288.072 62.4141C287.492 60.9541 287.182 59.5741 287.112 58.1841C287.052 56.8241 287.242 55.5441 287.652 54.3841C288.092 53.2141 288.782 52.1541 289.712 51.2441C290.662 50.2941 291.842 49.5541 293.272 48.9841C294.702 48.4141 296.102 48.1341 297.412 48.1841C298.742 48.1941 299.952 48.5041 301.072 49.0541C302.192 49.6041 303.182 50.4141 304.072 51.4441C304.972 52.5041 305.702 53.7241 306.282 55.1741C306.612 55.9641 306.852 56.8041 306.982 57.6541ZM302.132 53.2541C301.472 52.4341 300.712 51.8041 299.892 51.3441C299.052 50.8941 298.142 50.6541 297.192 50.6141C296.202 50.5541 295.192 50.7441 294.152 51.1541C293.112 51.5641 292.252 52.1241 291.572 52.8441C290.912 53.5341 290.412 54.3241 290.142 55.2241C289.842 56.1241 289.722 57.1141 289.802 58.1641C289.892 59.2141 290.142 60.3141 290.582 61.4141C291.042 62.5541 291.582 63.5441 292.202 64.3541C292.862 65.1741 293.602 65.8141 294.412 66.2741C295.232 66.7341 296.122 66.9441 297.092 67.0141C298.072 67.0441 299.102 66.8441 300.222 66.4041C301.342 65.9541 302.232 65.3941 302.922 64.6941C303.602 63.9741 304.102 63.1941 304.382 62.3041C304.662 61.4141 304.732 60.4441 304.612 59.4041C304.532 58.3841 304.252 57.2841 303.802 56.1441C303.362 55.0541 302.792 54.0841 302.132 53.2541Z" fill="white"/>
<path d="M321.652 39.3741C322.232 39.2441 322.782 39.1541 323.332 39.1241C323.832 39.1141 324.342 39.1441 324.842 39.2541C325.322 39.3641 325.772 39.5741 326.212 39.8341C326.652 40.0941 327.042 40.4741 327.382 40.8941C327.702 41.3441 327.992 41.8741 328.202 42.5141C328.302 42.8341 328.372 43.2241 328.412 43.6241C328.432 44.0341 328.412 44.4441 328.352 44.8841C328.262 45.3241 328.132 45.7541 327.882 46.1541C327.672 46.6041 327.352 46.9741 326.942 47.3441C327.382 47.3441 327.842 47.4041 328.312 47.4841C328.792 47.5941 329.262 47.7641 329.722 48.0241C330.162 48.2941 330.572 48.6541 330.982 49.0841C331.372 49.5441 331.682 50.1541 331.922 50.8741C332.062 51.3041 332.142 51.7441 332.202 52.1941C332.252 52.7041 332.232 53.1841 332.152 53.6541C332.052 54.1541 331.892 54.6541 331.662 55.1341C331.442 55.6241 331.112 56.0741 330.722 56.5041C330.312 56.9641 329.822 57.3541 329.232 57.7241C328.642 58.0941 327.922 58.4141 327.102 58.6841L319.032 61.3141L312.802 42.1941L319.642 39.9641C320.412 39.7141 321.082 39.5241 321.652 39.3741ZM324.772 47.0441C325.222 46.7141 325.552 46.3541 325.752 45.9841C325.932 45.6341 326.012 45.2541 326.002 44.8441C325.962 44.4441 325.882 44.0241 325.742 43.6041C325.592 43.1541 325.412 42.7741 325.162 42.4641C324.892 42.1741 324.582 41.9441 324.182 41.8141C323.802 41.6441 323.312 41.5941 322.772 41.6541C322.222 41.6841 321.582 41.8041 320.862 42.0441L316.092 43.5941L318.022 49.5041L322.792 47.9541C323.652 47.6741 324.292 47.3741 324.772 47.0441ZM328.042 55.6341C328.552 55.2941 328.932 54.9341 329.202 54.4941C329.462 54.1141 329.582 53.6641 329.612 53.2141C329.642 52.7641 329.572 52.2841 329.412 51.7741C329.252 51.2641 329.022 50.8441 328.732 50.4941C328.442 50.1441 328.082 49.8541 327.642 49.6741C327.172 49.5041 326.652 49.4341 326.042 49.4641C325.402 49.4941 324.682 49.6441 323.862 49.9141L318.722 51.5941L320.892 58.2541L326.032 56.5741C326.842 56.2941 327.512 55.9841 328.042 55.6341Z" fill="white"/>
<path d="M359.012 49.6541L356.112 50.4141L352.502 44.9941L344.862 46.9841L344.252 53.5141L341.512 54.2241L343.652 32.5641L346.792 31.7441L359.012 49.6541ZM351.232 43.1141L346.022 35.2441L344.992 44.7441L351.232 43.1141Z" fill="white"/>
<path d="M378.562 33.5241L376.972 25.3941L379.612 24.8741L383.482 44.6041L380.842 45.1241L379.022 35.8341L368.522 37.8941L370.342 47.1841L367.702 47.7041L363.832 27.9741L366.472 27.4541L368.062 35.5841L378.562 33.5241Z" fill="white"/>
<path d="M396.102 38.7441L404.112 21.2841L407.192 20.8841L409.812 40.8141L407.152 41.1641L405.022 24.9541L404.962 24.9641L396.962 42.5041L393.882 42.9041L391.262 22.9741L393.922 22.6241L396.042 38.7541L396.102 38.7441Z" fill="white"/>
<path d="M425.452 28.0941C425.452 26.6941 425.662 25.3841 426.062 24.2141C426.442 23.0441 427.022 22.0241 427.762 21.1641C428.502 20.3041 429.412 19.6041 430.532 19.0941C431.622 18.5841 432.892 18.2841 434.352 18.1941C435.892 18.1041 437.272 18.2741 438.482 18.7341C439.712 19.1641 440.732 19.8341 441.602 20.7141C442.472 21.5841 443.122 22.6741 443.612 23.9341C444.112 25.2241 444.382 26.6141 444.482 28.1741C444.532 29.0441 444.502 29.9141 444.412 30.7541C444.292 31.6341 444.092 32.4541 443.802 33.2541C443.512 34.0541 443.132 34.8041 442.672 35.5041C442.182 36.2041 441.602 36.8341 440.932 37.3441C440.262 37.8841 439.472 38.3241 438.602 38.6641C437.692 38.9941 436.702 39.1941 435.612 39.2641C434.582 39.3241 433.622 39.2641 432.772 39.0641C431.892 38.8941 431.112 38.5741 430.422 38.1941C429.722 37.8141 429.082 37.3441 428.542 36.7941C428.002 36.2341 427.522 35.6241 427.142 34.9441C426.712 34.2641 426.412 33.5541 426.142 32.7841C425.902 32.0141 425.712 31.2341 425.612 30.4341L422.452 30.6241L422.972 39.5141L420.292 39.6741L419.112 19.6041L421.792 19.4441L422.312 28.2741L425.452 28.0941ZM441.152 25.0741C440.762 24.0841 440.262 23.2441 439.632 22.5541C439.002 21.8641 438.242 21.3441 437.382 21.0041C436.492 20.6341 435.532 20.4941 434.492 20.5541C433.432 20.6141 432.492 20.8641 431.682 21.3341C430.862 21.7741 430.172 22.3741 429.632 23.1341C429.092 23.8941 428.692 24.7841 428.442 25.8141C428.162 26.8441 428.062 27.9641 428.132 29.1441C428.202 30.3741 428.442 31.4841 428.832 32.4441C429.222 33.4341 429.722 34.2741 430.382 34.9641C431.012 35.6541 431.772 36.1441 432.632 36.5141C433.462 36.8541 434.432 36.9941 435.462 36.9341C436.662 36.8641 437.692 36.6041 438.502 36.1641C439.342 35.6941 440.012 35.1241 440.532 34.3641C441.052 33.6041 441.412 32.7141 441.612 31.6941C441.802 30.7041 441.882 29.5741 441.812 28.3441C441.722 27.1641 441.512 26.0541 441.152 25.0741Z" fill="white"/>
<path d="M482.322 18.7641L486.072 18.9241L477.362 26.6741L485.432 39.0141L481.992 38.8641L475.352 28.4341L471.972 31.4241L471.672 38.4141L468.982 38.2941L469.852 18.2141L472.532 18.3341L472.112 28.1241L482.322 18.7641Z" fill="white"/>
<path d="M496.702 37.5241C496.862 37.6241 497.022 37.6941 497.212 37.8041L497.812 38.0341C498.002 38.0841 498.192 38.1341 498.392 38.1541C498.782 38.1941 499.152 38.1741 499.472 38.0941C499.762 38.0141 500.022 37.8941 500.272 37.7241C500.482 37.5541 500.702 37.3741 500.862 37.1341C501.032 36.8941 501.132 36.6541 501.242 36.4141L494.682 19.5541L497.802 19.8741L503.052 33.8141L509.422 21.0641L512.432 21.3741L504.642 35.6941C504.102 36.6241 503.592 37.4441 503.162 38.1041C502.702 38.7841 502.252 39.3041 501.762 39.7041C501.272 40.1041 500.732 40.3841 500.162 40.5241C499.582 40.6941 498.902 40.7041 498.122 40.6241C497.702 40.5841 497.322 40.4841 496.942 40.3341C496.562 40.1841 496.272 40.0141 496.092 39.8241L496.352 37.2341C496.412 37.3241 496.542 37.4241 496.702 37.5241Z" fill="white"/>
<path d="M533.352 24.9541C534.072 25.3841 534.672 25.8741 535.122 26.4641C535.562 27.0441 535.852 27.7141 535.982 28.4741C536.142 29.2341 536.122 30.0341 535.982 30.9141C535.842 31.7941 535.602 32.5541 535.212 33.2241C534.842 33.9041 534.362 34.4441 533.752 34.8641C533.142 35.3041 532.412 35.5841 531.592 35.7341C530.742 35.8841 529.782 35.8641 528.682 35.6841L522.992 34.7641L521.652 42.9941L519.002 42.5641L522.222 22.7241L530.572 24.0741C531.682 24.2541 532.592 24.5441 533.352 24.9541ZM531.972 32.9241C532.702 32.4241 533.152 31.6141 533.332 30.4841C533.512 29.3541 533.352 28.4441 532.812 27.7341C532.302 27.0541 531.322 26.5841 529.912 26.3541L524.492 25.4741L523.362 32.4341L528.782 33.3141C530.202 33.5441 531.272 33.4041 531.972 32.9241Z" fill="white"/>
<path d="M547.332 40.8641C547.412 41.9141 547.652 42.8641 548.072 43.6741C548.482 44.5141 549.052 45.1841 549.762 45.7441C550.472 46.3041 551.302 46.6941 552.252 46.9141C553.102 47.1041 553.872 47.1341 554.622 46.9641C555.342 46.8141 556.002 46.5541 556.582 46.1741C557.192 45.7641 557.692 45.3041 558.132 44.7741C558.552 44.2041 558.912 43.6241 559.132 42.9941L561.672 43.5641C561.492 44.1241 561.252 44.6741 560.922 45.2341C560.572 45.7841 560.192 46.3041 559.742 46.7741C559.292 47.2441 558.792 47.6741 558.212 48.0641C557.662 48.4541 557.042 48.7741 556.362 49.0241C555.682 49.2441 554.962 49.3941 554.182 49.4241C553.422 49.4841 552.602 49.4141 551.732 49.2141C551.132 49.0741 550.512 48.8841 549.862 48.5941C549.202 48.3341 548.572 47.9541 547.982 47.5141C547.362 47.0841 546.822 46.5341 546.312 45.9041C545.792 45.2741 545.392 44.5241 545.092 43.6741C544.792 42.8241 544.612 41.8441 544.572 40.7741C544.502 39.6941 544.632 38.4641 544.932 37.1241C545.232 35.8141 545.632 34.6441 546.112 33.6641C546.592 32.6841 547.152 31.8641 547.762 31.1641C548.372 30.4941 549.042 29.9641 549.762 29.5441C550.462 29.1241 551.182 28.8341 551.952 28.6341C552.712 28.4641 553.472 28.3741 554.222 28.3741C554.992 28.4041 555.742 28.4841 556.452 28.6441C557.352 28.8441 558.152 29.1441 558.822 29.4641C559.512 29.8241 560.112 30.2141 560.652 30.6541C561.152 31.1141 561.552 31.6041 561.902 32.1141C562.242 32.6241 562.532 33.1441 562.722 33.6741C562.912 34.2041 563.022 34.7441 563.082 35.2741C563.132 35.8041 563.142 36.2941 563.062 36.7641L560.492 36.1841C560.472 35.5141 560.352 34.8941 560.132 34.3241C559.912 33.7541 559.632 33.2341 559.212 32.7941C558.822 32.3641 558.362 31.9741 557.832 31.6541C557.272 31.3541 556.662 31.1041 556.012 30.9541C555.002 30.7241 554.052 30.7141 553.152 30.9141C552.282 31.0941 551.442 31.4741 550.722 32.0341C549.992 32.6141 549.342 33.3341 548.812 34.2441C548.292 35.1641 547.872 36.2441 547.602 37.4441C547.342 38.6541 547.262 39.8141 547.332 40.8641Z" fill="white"/>
<path d="M580.712 44.0041C581.862 44.3541 582.822 44.7841 583.592 45.3041C584.372 45.8341 584.952 46.4141 585.342 47.0541C585.762 47.7041 585.982 48.4141 586.042 49.1941C586.102 49.9741 586.002 50.7941 585.742 51.6741C585.482 52.5341 585.122 53.2741 584.652 53.8641C584.172 54.4841 583.592 54.9741 582.932 55.3041C582.282 55.6341 581.512 55.8441 580.682 55.8841C579.852 55.9241 578.922 55.7941 577.962 55.5041L569.622 53.0041L575.382 33.7441L577.962 34.5141L575.582 42.4541L580.712 44.0041ZM579.812 53.4441C580.312 53.4441 580.742 53.3741 581.172 53.2041C581.572 53.0341 581.952 52.7641 582.262 52.3941C582.582 52.0241 582.822 51.5041 583.012 50.8641C583.202 50.2241 583.282 49.6641 583.222 49.1741C583.132 48.6841 582.942 48.2441 582.682 47.8441C582.382 47.4941 581.982 47.1641 581.512 46.8841C581.012 46.6141 580.432 46.3841 579.792 46.1941L574.912 44.7341L572.872 51.5441L578.322 53.1741C578.822 53.3241 579.322 53.4141 579.812 53.4441ZM586.652 58.1241L592.412 38.8641L594.992 39.6341L589.232 58.8941L586.652 58.1241Z" fill="white"/>
<path d="M625.002 72.4641L631.802 56.0641L621.922 51.9641L615.122 68.3641L612.642 67.3341L620.342 48.7641L635.192 54.9241L627.492 73.4941L625.002 72.4641Z" fill="white"/>
<path d="M656.862 79.2241C656.332 79.9241 655.742 80.5441 655.072 81.0841C654.402 81.6241 653.702 82.0941 652.922 82.4641C652.142 82.8341 651.312 83.0741 650.442 83.1841C649.562 83.3141 648.662 83.3041 647.712 83.1541C646.762 82.9941 645.792 82.6741 644.792 82.1841C643.812 81.7041 642.942 81.1141 642.242 80.4541C641.562 79.8041 640.982 79.0841 640.552 78.3141C640.132 77.5741 639.812 76.7641 639.632 75.9241C639.422 75.0741 639.342 74.2241 639.392 73.3741C639.412 72.5141 639.542 71.6741 639.752 70.8041C639.972 69.9741 640.282 69.1641 640.662 68.3841C641.352 66.9741 642.172 65.8241 643.162 64.8341C644.132 63.8741 645.202 63.1541 646.342 62.6841C647.502 62.2241 648.752 62.0341 650.062 62.1141C651.402 62.1841 652.742 62.5641 654.122 63.2441C655.502 63.9241 656.652 64.7741 657.492 65.7741C658.372 66.7741 658.952 67.8741 659.302 69.0641C659.642 70.2641 659.702 71.5441 659.542 72.8941C659.362 74.2741 658.942 75.6241 658.252 77.0341C657.862 77.8141 657.402 78.5541 656.862 79.2241ZM656.872 72.6741C657.042 71.6341 657.002 70.6441 656.792 69.7341C656.562 68.8041 656.132 67.9741 655.522 67.2341C654.902 66.4641 654.082 65.8441 653.082 65.3441C652.082 64.8541 651.082 64.5841 650.092 64.5641C649.142 64.5341 648.212 64.7041 647.362 65.0941C646.492 65.4741 645.682 66.0441 644.952 66.8141C644.222 67.5841 643.582 68.5141 643.062 69.5641C642.522 70.6741 642.152 71.7341 641.962 72.7341C641.792 73.7741 641.812 74.7541 642.012 75.6641C642.222 76.5741 642.662 77.3841 643.252 78.1441C643.882 78.8941 644.722 79.5241 645.802 80.0541C646.882 80.5841 647.902 80.8641 648.872 80.9141C649.862 80.9341 650.772 80.7941 651.622 80.3941C652.472 80.0041 653.232 79.4041 653.932 78.6241C654.642 77.8841 655.262 76.9341 655.802 75.8341C656.352 74.7941 656.702 73.7141 656.872 72.6741Z" fill="white"/>
<path d="M686.042 104.824L695.412 89.7541L686.332 84.1041L676.952 99.1741L674.672 97.7541L685.292 80.6841L698.942 89.1741L688.322 106.244L686.042 104.824Z" fill="white"/>
<path d="M717.742 102.634C718.202 103.334 718.522 104.044 718.662 104.764C718.802 105.484 718.772 106.214 718.552 106.954C718.362 107.714 717.992 108.414 717.482 109.144C716.972 109.874 716.422 110.444 715.772 110.884C715.142 111.334 714.472 111.604 713.742 111.714C713.002 111.844 712.222 111.774 711.422 111.544C710.602 111.304 709.742 110.864 708.832 110.214L704.132 106.874L699.302 113.674L697.112 112.114L708.742 95.7241L715.632 100.614C716.552 101.274 717.242 101.934 717.742 102.634ZM712.992 109.184C713.872 109.054 714.632 108.524 715.292 107.594C715.952 106.654 716.212 105.774 716.042 104.894C715.882 104.054 715.212 103.204 714.052 102.384L709.582 99.2041L705.502 104.954L709.972 108.134C711.122 108.954 712.152 109.304 712.992 109.184Z" fill="white"/>
<path d="M736.372 132.594C735.692 133.164 734.992 133.634 734.212 134.014C733.432 134.394 732.652 134.694 731.812 134.884C730.972 135.074 730.102 135.124 729.242 135.034C728.362 134.964 727.482 134.764 726.582 134.404C725.682 134.044 724.812 133.514 723.942 132.814C723.092 132.124 722.372 131.364 721.832 130.564C721.312 129.784 720.902 128.954 720.652 128.104C720.402 127.294 720.272 126.434 720.282 125.574C720.272 124.694 720.382 123.854 720.612 123.034C720.822 122.194 721.142 121.404 721.532 120.604C721.932 119.844 722.412 119.114 722.952 118.444C723.942 117.224 724.992 116.274 726.172 115.534C727.332 114.814 728.532 114.344 729.752 114.144C730.982 113.954 732.252 114.044 733.502 114.404C734.792 114.764 736.022 115.434 737.212 116.404C738.412 117.374 739.342 118.444 739.942 119.624C740.582 120.794 740.912 121.994 740.982 123.234C741.052 124.484 740.832 125.734 740.362 127.024C739.882 128.334 739.172 129.554 738.192 130.774C737.662 131.444 737.052 132.064 736.372 132.594ZM737.822 126.214C738.212 125.234 738.392 124.264 738.392 123.324C738.372 122.374 738.132 121.464 737.702 120.604C737.272 119.714 736.612 118.924 735.742 118.224C734.872 117.524 733.962 117.034 733.002 116.804C732.082 116.564 731.142 116.524 730.222 116.724C729.282 116.904 728.372 117.274 727.492 117.864C726.622 118.454 725.782 119.224 725.042 120.134C724.272 121.094 723.672 122.054 723.272 122.994C722.882 123.974 722.682 124.924 722.682 125.864C722.682 126.804 722.932 127.694 723.342 128.564C723.792 129.434 724.472 130.234 725.412 130.994C726.352 131.754 727.282 132.254 728.222 132.514C729.182 132.754 730.102 132.814 731.022 132.614C731.942 132.414 732.812 132.004 733.662 131.404C734.522 130.834 735.332 130.054 736.102 129.094C736.862 128.164 737.432 127.194 737.822 126.214Z" fill="white"/>
<path d="M753.032 133.614L741.092 146.754L739.102 144.944L752.622 130.064L761.362 138.014L759.782 139.754L753.032 133.614Z" fill="white"/>
<path d="M776.462 153.484C776.792 154.254 776.982 155.014 777.002 155.744C777.022 156.474 776.852 157.184 776.512 157.884C776.192 158.594 775.712 159.224 775.072 159.854C774.432 160.484 773.802 160.954 773.082 161.264C772.382 161.594 771.672 161.754 770.942 161.724C770.192 161.724 769.442 161.514 768.692 161.154C767.922 160.774 767.152 160.194 766.362 159.394L762.312 155.284L756.372 161.144L754.482 159.234L768.792 145.114L774.732 151.134C775.522 151.934 776.092 152.704 776.462 153.484ZM770.642 159.104C771.532 159.134 772.362 158.744 773.182 157.934C774.002 157.124 774.402 156.294 774.382 155.404C774.372 154.554 773.862 153.604 772.852 152.584L768.992 148.674L763.972 153.634L767.832 157.544C768.842 158.564 769.792 159.084 770.642 159.104Z" fill="white"/>
<path d="M782.812 189.754L780.832 187.504L784.062 181.844L778.852 175.904L772.742 178.284L770.872 176.154L791.192 168.364L793.332 170.804L782.812 189.754ZM785.162 179.864L789.872 171.674L780.922 175.014L785.162 179.864Z" fill="white"/>
<path d="M796.822 202.254L813.692 196.454L816.042 199.514L800.102 211.764L798.562 209.764L811.972 199.464L811.942 199.424L795.082 205.244L793.442 203.114L803.402 188.324L803.372 188.284L789.962 198.584L788.422 196.584L804.362 184.334L806.712 187.394L796.762 202.204L796.822 202.254Z" fill="white"/>
<path d="M814.222 226.604L831.452 221.994L833.582 225.214L816.832 236.324L815.442 234.224L829.532 224.874L829.502 224.824L812.282 229.454L810.792 227.214L821.762 213.154L821.732 213.104L807.642 222.454L806.252 220.354L823.002 209.244L825.132 212.464L814.182 226.544L814.222 226.604Z" fill="white"/>
<path d="M827.042 245.844L846.232 246.644L847.772 249.344L830.322 259.314L828.992 256.984L843.192 248.874L843.162 248.824L823.902 248.064L822.362 245.364L839.812 235.394L841.142 237.724L827.022 245.794L827.042 245.844Z" fill="white"/>
<path d="M857.932 270.144C858.002 270.984 857.952 271.764 857.732 272.464C857.512 273.164 857.132 273.784 856.592 274.334C856.062 274.904 855.412 275.354 854.602 275.754C853.792 276.154 853.042 276.394 852.272 276.474C851.512 276.574 850.782 276.494 850.092 276.234C849.382 275.994 848.732 275.564 848.132 274.984C847.522 274.384 846.972 273.584 846.482 272.584L843.932 267.414L836.452 271.104L835.262 268.694L853.292 259.814L857.032 267.394C857.532 268.374 857.832 269.294 857.932 270.144ZM850.642 273.644C851.482 273.954 852.392 273.844 853.422 273.334C854.452 272.824 855.092 272.164 855.362 271.314C855.622 270.504 855.432 269.434 854.802 268.154L852.372 263.234L846.042 266.354L848.462 271.274C849.102 272.554 849.842 273.354 850.642 273.644Z" fill="white"/>
<path d="M860.062 305.344C859.192 305.524 858.352 305.604 857.482 305.564C856.622 305.534 855.782 305.424 854.962 305.194C854.142 304.964 853.342 304.594 852.632 304.104C851.882 303.624 851.212 303.024 850.602 302.284C849.992 301.534 849.472 300.664 849.042 299.624C848.622 298.614 848.352 297.604 848.252 296.644C848.162 295.704 848.202 294.784 848.392 293.914C848.562 293.084 848.862 292.264 849.272 291.514C849.682 290.734 850.182 290.044 850.772 289.434C851.352 288.794 852.012 288.254 852.732 287.734C853.442 287.254 854.212 286.844 855.012 286.514C856.462 285.914 857.842 285.574 859.222 285.484C860.582 285.404 861.862 285.564 863.032 285.964C864.212 286.384 865.282 287.064 866.202 287.974C867.172 288.904 867.932 290.074 868.522 291.494C869.112 292.914 869.422 294.304 869.392 295.624C869.402 296.954 869.112 298.164 868.582 299.294C868.052 300.424 867.252 301.424 866.242 302.334C865.202 303.254 863.992 304.004 862.542 304.604C861.742 304.944 860.912 305.204 860.062 305.344ZM864.382 300.414C865.192 299.744 865.812 298.964 866.262 298.144C866.702 297.294 866.922 296.384 866.952 295.434C866.992 294.444 866.792 293.434 866.362 292.404C865.932 291.374 865.362 290.514 864.632 289.854C863.932 289.204 863.132 288.724 862.232 288.454C861.322 288.164 860.342 288.064 859.292 288.164C858.242 288.264 857.142 288.544 856.062 288.994C854.922 289.464 853.942 290.024 853.142 290.664C852.332 291.334 851.702 292.084 851.252 292.904C850.802 293.724 850.602 294.634 850.552 295.594C850.532 296.574 850.752 297.604 851.212 298.714C851.672 299.824 852.252 300.704 852.962 301.384C853.692 302.054 854.472 302.544 855.372 302.804C856.272 303.064 857.232 303.124 858.272 302.994C859.292 302.904 860.382 302.604 861.522 302.124C862.592 301.674 863.562 301.094 864.382 300.414Z" fill="white"/>
<path d="M878.562 319.714C878.702 320.284 878.802 320.844 878.842 321.394C878.862 321.894 878.832 322.404 878.742 322.914C878.642 323.394 878.442 323.844 878.182 324.294C877.922 324.744 877.552 325.134 877.142 325.484C876.692 325.814 876.172 326.114 875.542 326.334C875.222 326.444 874.832 326.514 874.442 326.564C874.032 326.584 873.622 326.584 873.182 326.524C872.742 326.444 872.312 326.324 871.902 326.074C871.452 325.874 871.072 325.564 870.702 325.154C870.702 325.594 870.662 326.054 870.582 326.524C870.482 327.004 870.312 327.474 870.062 327.944C869.802 328.394 869.442 328.804 869.022 329.224C868.562 329.614 867.962 329.944 867.252 330.184C866.832 330.334 866.382 330.424 865.932 330.484C865.422 330.544 864.942 330.534 864.472 330.454C863.962 330.364 863.472 330.204 862.982 329.994C862.492 329.784 862.032 329.464 861.602 329.074C861.142 328.674 860.732 328.184 860.352 327.604C859.972 327.024 859.642 326.314 859.362 325.484L856.602 317.464L875.612 310.924L877.952 317.724C878.202 318.474 878.402 319.144 878.562 319.714ZM862.412 326.364C862.762 326.864 863.132 327.244 863.572 327.504C863.952 327.754 864.412 327.864 864.862 327.894C865.312 327.914 865.792 327.844 866.292 327.664C866.792 327.484 867.222 327.254 867.562 326.954C867.902 326.654 868.192 326.294 868.362 325.844C868.522 325.374 868.582 324.854 868.552 324.244C868.512 323.604 868.352 322.894 868.072 322.074L866.312 316.964L859.692 319.244L861.452 324.354C861.732 325.174 862.052 325.834 862.412 326.364ZM870.952 322.954C871.282 323.404 871.662 323.714 872.022 323.914C872.382 324.084 872.762 324.164 873.162 324.144C873.562 324.094 873.972 324.014 874.402 323.864C874.852 323.714 875.232 323.524 875.532 323.264C875.822 322.984 876.042 322.674 876.172 322.274C876.342 321.894 876.372 321.404 876.312 320.864C876.272 320.314 876.142 319.674 875.892 318.964L874.262 314.224L868.382 316.244L870.012 320.984C870.302 321.844 870.612 322.474 870.952 322.954Z" fill="white"/>
<path d="M868.912 357.244L868.112 354.354L873.472 350.654L871.352 343.044L864.812 342.534L864.052 339.804L885.742 341.584L886.612 344.714L868.912 357.244ZM875.312 349.354L883.102 344.024L873.592 343.154L875.312 349.354Z" fill="white"/>
<path d="M885.332 376.494L893.442 374.764L894.002 377.394L874.332 381.584L873.772 378.954L883.032 376.984L880.802 366.524L871.542 368.494L870.982 365.864L890.652 361.674L891.212 364.304L883.102 366.034L885.332 376.494Z" fill="white"/>
<path d="M880.412 394.154L897.992 401.884L898.442 404.954L878.562 407.894L878.172 405.234L894.342 402.844L894.332 402.784L876.662 395.064L876.212 391.994L896.092 389.054L896.482 391.714L880.392 394.094L880.412 394.154Z" fill="white"/>
<path d="M891.542 423.334C892.942 423.314 894.252 423.494 895.432 423.884C896.612 424.244 897.632 424.814 898.502 425.534C899.372 426.254 900.082 427.154 900.622 428.264C901.152 429.344 901.472 430.614 901.582 432.064C901.702 433.604 901.552 434.984 901.112 436.204C900.702 437.444 900.052 438.474 899.192 439.354C898.332 440.234 897.262 440.904 896.002 441.424C894.722 441.944 893.342 442.244 891.772 442.364C890.902 442.434 890.032 442.414 889.182 442.334C888.302 442.234 887.472 442.044 886.672 441.764C885.862 441.484 885.112 441.124 884.402 440.674C883.692 440.194 883.062 439.624 882.532 438.964C881.982 438.304 881.522 437.524 881.182 436.654C880.832 435.754 880.622 434.754 880.532 433.674C880.452 432.644 880.492 431.684 880.682 430.824C880.842 429.944 881.142 429.164 881.512 428.454C881.882 427.754 882.332 427.104 882.882 426.554C883.432 426.004 884.042 425.514 884.712 425.124C885.382 424.684 886.092 424.374 886.852 424.094C887.622 423.844 888.392 423.644 889.192 423.524L888.952 420.364L880.072 421.034L879.872 418.354L899.922 416.844L900.122 419.524L891.302 420.194L891.542 423.334ZM894.822 438.974C895.802 438.564 896.632 438.054 897.312 437.414C897.992 436.774 898.502 436.004 898.822 435.134C899.172 434.234 899.302 433.274 899.222 432.244C899.142 431.184 898.872 430.244 898.392 429.444C897.942 428.634 897.322 427.954 896.552 427.424C895.782 426.894 894.882 426.514 893.852 426.284C892.822 426.024 891.692 425.944 890.522 426.034C889.292 426.124 888.192 426.374 887.232 426.784C886.252 427.194 885.422 427.704 884.742 428.374C884.062 429.014 883.582 429.784 883.232 430.654C882.902 431.494 882.782 432.454 882.852 433.494C882.942 434.694 883.212 435.714 883.672 436.524C884.152 437.354 884.742 438.014 885.502 438.524C886.272 439.024 887.172 439.384 888.192 439.554C889.192 439.734 890.312 439.784 891.542 439.694C892.732 439.584 893.842 439.364 894.822 438.974Z" fill="white"/>
<path d="M900.992 483.084L900.772 486.834L893.162 477.994L880.692 485.874L880.892 482.434L891.432 475.954L888.492 472.524L881.502 472.114L881.662 469.434L901.732 470.614L901.572 473.294L891.792 472.714L900.992 483.084Z" fill="white"/>
<path d="M882.002 497.164C881.902 497.324 881.822 497.484 881.712 497.664L881.472 498.254C881.422 498.444 881.372 498.634 881.342 498.834C881.292 499.224 881.312 499.594 881.382 499.914C881.462 500.204 881.572 500.474 881.742 500.714C881.912 500.934 882.082 501.154 882.322 501.314C882.562 501.474 882.792 501.594 883.032 501.704L899.992 495.424L899.622 498.534L885.612 503.554L898.252 510.124L897.892 513.124L883.702 505.104C882.782 504.544 881.972 504.024 881.322 503.584C880.642 503.104 880.132 502.654 879.742 502.154C879.352 501.654 879.072 501.114 878.952 500.534C878.792 499.954 878.792 499.274 878.882 498.494C878.932 498.074 879.032 497.694 879.192 497.314C879.352 496.934 879.522 496.644 879.712 496.474L882.302 496.784C882.202 496.884 882.102 497.014 882.002 497.164Z" fill="white"/>
<path d="M893.972 534.034C893.532 534.754 893.022 535.344 892.432 535.774C891.842 536.204 891.162 536.484 890.402 536.604C889.632 536.754 888.842 536.724 887.962 536.564C887.082 536.404 886.332 536.154 885.662 535.754C884.992 535.374 884.452 534.884 884.052 534.274C883.622 533.654 883.352 532.924 883.222 532.104C883.092 531.254 883.122 530.294 883.322 529.194L884.342 523.514L876.132 522.044L876.602 519.394L896.392 522.944L894.902 531.264C894.692 532.374 894.382 533.284 893.972 534.034ZM886.022 532.524C886.512 533.264 887.312 533.724 888.442 533.924C889.572 534.124 890.482 533.974 891.202 533.454C891.892 532.954 892.372 531.984 892.632 530.584L893.602 525.184L886.662 523.934L885.692 529.334C885.432 530.734 885.552 531.814 886.022 532.524Z" fill="white"/>
<path d="M877.842 547.734C876.792 547.794 875.842 548.024 875.022 548.434C874.172 548.834 873.492 549.384 872.922 550.084C872.352 550.784 871.942 551.604 871.712 552.554C871.502 553.394 871.462 554.164 871.622 554.924C871.762 555.654 872.002 556.314 872.382 556.894C872.782 557.514 873.232 558.024 873.762 558.464C874.322 558.884 874.892 559.254 875.522 559.494L874.902 562.024C874.342 561.834 873.802 561.584 873.242 561.244C872.692 560.884 872.182 560.494 871.722 560.034C871.262 559.574 870.832 559.074 870.452 558.484C870.072 557.934 869.762 557.304 869.522 556.614C869.312 555.934 869.172 555.204 869.162 554.424C869.112 553.664 869.202 552.844 869.412 551.974C869.562 551.374 869.762 550.764 870.062 550.114C870.342 549.464 870.722 548.834 871.182 548.254C871.622 547.644 872.182 547.114 872.822 546.604C873.462 546.094 874.222 545.704 875.072 545.424C875.922 545.144 876.912 544.974 877.982 544.954C879.062 544.904 880.292 545.054 881.622 545.384C882.932 545.704 884.092 546.124 885.062 546.624C886.032 547.124 886.852 547.694 887.532 548.324C888.192 548.944 888.712 549.624 889.112 550.354C889.522 551.054 889.802 551.794 889.992 552.554C890.152 553.314 890.222 554.084 890.212 554.824C890.172 555.594 890.072 556.344 889.902 557.054C889.682 557.954 889.372 558.744 889.042 559.414C888.672 560.104 888.272 560.694 887.822 561.224C887.352 561.714 886.852 562.114 886.342 562.444C885.832 562.774 885.302 563.054 884.762 563.244C884.222 563.434 883.682 563.534 883.152 563.574C882.622 563.614 882.132 563.614 881.662 563.534L882.282 560.974C882.952 560.964 883.582 560.854 884.152 560.654C884.722 560.454 885.252 560.174 885.692 559.764C886.132 559.384 886.532 558.934 886.862 558.404C887.172 557.844 887.432 557.244 887.592 556.594C887.832 555.584 887.862 554.644 887.682 553.734C887.522 552.854 887.152 552.024 886.602 551.284C886.032 550.544 885.332 549.874 884.422 549.344C883.512 548.814 882.442 548.374 881.242 548.084C880.042 547.784 878.892 547.674 877.842 547.734Z" fill="white"/>
<path d="M859.942 586.784L879.102 592.854L878.292 595.414L859.132 589.344L859.942 586.784ZM874.152 581.064C873.792 582.214 873.342 583.154 872.802 583.924C872.262 584.694 871.672 585.274 871.022 585.654C870.362 586.064 869.652 586.274 868.872 586.324C868.092 586.374 867.282 586.264 866.392 585.984C865.542 585.714 864.812 585.334 864.222 584.854C863.612 584.364 863.122 583.774 862.802 583.114C862.482 582.454 862.282 581.684 862.252 580.854C862.222 580.024 862.372 579.104 862.672 578.134L865.302 569.834L884.462 575.904L883.652 578.464L875.752 575.964L874.152 581.064ZM864.732 580.014C864.722 580.514 864.792 580.944 864.942 581.374C865.112 581.774 865.372 582.154 865.742 582.484C866.112 582.804 866.622 583.054 867.262 583.254C867.902 583.454 868.462 583.544 868.952 583.494C869.452 583.414 869.892 583.234 870.292 582.974C870.652 582.674 870.982 582.284 871.272 581.814C871.552 581.314 871.782 580.744 871.992 580.104L873.532 575.244L866.752 573.094L865.042 578.514C864.862 579.034 864.762 579.534 864.732 580.014Z" fill="white"/>
<path d="M844.982 624.864L861.262 631.924L865.512 622.114L849.232 615.054L850.302 612.594L868.742 620.594L862.352 635.334L843.912 627.334L844.982 624.864Z" fill="white"/>
<path d="M837.682 656.624C836.982 656.074 836.382 655.484 835.852 654.804C835.322 654.124 834.862 653.414 834.512 652.634C834.162 651.854 833.932 651.014 833.842 650.144C833.722 649.264 833.752 648.364 833.922 647.414C834.092 646.464 834.432 645.504 834.942 644.504C835.442 643.534 836.042 642.674 836.712 641.974C837.372 641.304 838.102 640.734 838.882 640.324C839.622 639.924 840.442 639.614 841.282 639.444C842.132 639.254 842.992 639.184 843.842 639.244C844.702 639.274 845.542 639.424 846.402 639.644C847.222 639.874 848.032 640.204 848.812 640.594C850.202 641.314 851.352 642.144 852.312 643.144C853.252 644.134 853.952 645.214 854.402 646.354C854.842 647.524 855.012 648.774 854.912 650.074C854.822 651.414 854.422 652.744 853.712 654.114C853.012 655.484 852.142 656.614 851.122 657.444C850.112 658.314 849.002 658.874 847.802 659.194C846.592 659.524 845.322 659.554 843.972 659.364C842.592 659.164 841.252 658.724 839.852 658.004C839.082 657.654 838.342 657.184 837.682 656.624ZM844.232 656.744C845.272 656.934 846.262 656.904 847.172 656.714C848.102 656.494 848.942 656.084 849.692 655.484C850.472 654.884 851.112 654.074 851.622 653.074C852.132 652.074 852.422 651.094 852.452 650.104C852.502 649.154 852.342 648.224 851.972 647.374C851.602 646.494 851.052 645.674 850.292 644.944C849.542 644.214 848.622 643.544 847.572 643.014C846.472 642.454 845.412 642.064 844.412 641.864C843.372 641.674 842.402 641.674 841.482 641.874C840.562 642.064 839.752 642.494 838.982 643.074C838.222 643.694 837.572 644.524 837.022 645.594C836.472 646.664 836.172 647.674 836.112 648.654C836.072 649.644 836.202 650.554 836.582 651.414C836.962 652.274 837.542 653.044 838.312 653.744C839.042 654.464 839.972 655.104 841.072 655.664C842.122 656.194 843.192 656.564 844.232 656.744Z" fill="white"/>
<path d="M811.632 685.374L826.552 694.994L832.342 686.004L817.422 676.384L818.882 674.124L835.772 685.014L827.062 698.514L810.172 687.624L811.632 685.374Z" fill="white"/>
<path d="M813.302 717.134C812.592 717.584 811.872 717.894 811.152 718.024C810.432 718.154 809.702 718.104 808.962 717.884C808.212 717.674 807.512 717.304 806.792 716.774C806.072 716.244 805.502 715.694 805.082 715.024C804.642 714.394 804.382 713.714 804.292 712.984C804.182 712.244 804.262 711.464 804.502 710.664C804.752 709.844 805.212 708.994 805.872 708.094L809.282 703.444L802.552 698.504L804.142 696.334L820.342 708.234L815.342 715.054C814.682 715.964 814.002 716.644 813.302 717.134ZM806.822 712.274C806.942 713.154 807.452 713.914 808.382 714.594C809.312 715.274 810.192 715.544 811.072 715.384C811.912 715.234 812.772 714.584 813.612 713.434L816.862 709.014L811.172 704.834L807.922 709.254C807.082 710.414 806.712 711.434 806.822 712.274Z" fill="white"/>
<path d="M783.032 735.264C782.472 734.574 782.012 733.864 781.642 733.084C781.272 732.304 780.982 731.514 780.812 730.674C780.642 729.834 780.602 728.964 780.702 728.104C780.782 727.224 781.002 726.344 781.382 725.454C781.762 724.564 782.302 723.704 783.012 722.844C783.712 722.004 784.482 721.304 785.292 720.774C786.082 720.264 786.922 719.874 787.772 719.634C788.582 719.404 789.452 719.284 790.312 719.304C791.192 719.304 792.032 719.434 792.852 719.674C793.692 719.894 794.472 720.224 795.262 720.634C796.012 721.044 796.732 721.534 797.402 722.094C798.602 723.104 799.532 724.174 800.262 725.354C800.962 726.524 801.412 727.734 801.602 728.954C801.772 730.194 801.662 731.454 801.282 732.704C800.902 733.994 800.212 735.204 799.222 736.384C798.232 737.564 797.142 738.474 795.962 739.064C794.782 739.684 793.582 739.994 792.332 740.044C791.082 740.094 789.832 739.854 788.552 739.364C787.252 738.864 786.042 738.134 784.832 737.134C784.162 736.574 783.552 735.954 783.032 735.264ZM789.392 736.824C790.362 737.234 791.332 737.424 792.272 737.444C793.222 737.444 794.142 737.214 795.002 736.804C795.902 736.384 796.692 735.734 797.412 734.884C798.132 734.024 798.622 733.124 798.882 732.164C799.142 731.244 799.192 730.304 799.012 729.394C798.852 728.454 798.492 727.534 797.912 726.654C797.332 725.774 796.582 724.924 795.682 724.164C794.732 723.374 793.792 722.764 792.852 722.354C791.882 721.944 790.932 721.734 789.992 721.714C789.052 721.694 788.162 721.934 787.282 722.334C786.402 722.774 785.592 723.444 784.822 724.364C784.052 725.284 783.532 726.204 783.262 727.144C783.012 728.104 782.932 729.024 783.112 729.944C783.292 730.864 783.692 731.744 784.282 732.604C784.832 733.474 785.602 734.294 786.552 735.084C787.462 735.824 788.422 736.414 789.392 736.824Z" fill="white"/>
<path d="M781.762 751.894L768.822 739.744L770.662 737.784L785.322 751.544L777.232 760.164L775.522 758.554L781.762 751.894Z" fill="white"/>
<path d="M761.532 774.984C760.752 775.304 759.992 775.484 759.262 775.484C758.532 775.484 757.822 775.314 757.132 774.954C756.422 774.624 755.802 774.134 755.182 773.484C754.562 772.834 754.102 772.194 753.802 771.474C753.482 770.774 753.342 770.054 753.372 769.324C753.392 768.574 753.602 767.824 753.972 767.084C754.362 766.324 754.952 765.564 755.762 764.784L759.932 760.794L754.162 754.764L756.102 752.904L769.992 767.434L763.882 773.274C763.102 774.074 762.312 774.624 761.532 774.984ZM756.002 769.084C755.962 769.974 756.342 770.814 757.132 771.644C757.922 772.474 758.752 772.884 759.642 772.884C760.492 772.884 761.452 772.394 762.482 771.404L766.452 767.614L761.572 762.514L757.612 766.304C756.572 767.294 756.042 768.234 756.002 769.084Z" fill="white"/>
<path d="M725.162 780.754L727.442 778.814L733.052 782.134L739.072 777.024L736.792 770.874L738.952 769.044L746.412 789.474L743.932 791.574L725.162 780.754ZM735.002 783.264L743.102 788.104L739.912 779.104L735.002 783.264Z" fill="white"/>
<path d="M712.402 794.594L717.932 811.564L714.832 813.874L702.832 797.734L704.852 796.234L714.942 809.814L714.982 809.784L709.432 792.834L711.592 791.234L726.222 801.434L726.262 801.404L716.172 787.824L718.192 786.324L730.192 802.464L727.092 804.764L712.442 794.584L712.402 794.594Z" fill="white"/>
<path d="M687.782 811.584L692.112 828.894L688.862 830.974L678.022 814.034L680.142 812.674L689.262 826.924L689.312 826.894L684.962 809.594L687.222 808.144L701.102 819.344L701.152 819.314L692.042 805.064L694.162 803.704L704.992 820.644L701.732 822.724L687.832 811.544L687.782 811.584Z" fill="white"/>
<path d="M668.352 824.084L667.232 843.264L664.512 844.764L654.822 827.144L657.182 825.854L665.062 840.184L665.112 840.154L666.192 820.904L668.912 819.404L678.602 837.024L676.242 838.314L668.402 824.064L668.352 824.084Z" fill="white"/>
<path d="M643.552 854.584C642.712 854.644 641.932 854.574 641.242 854.344C640.552 854.114 639.932 853.724 639.392 853.184C638.832 852.644 638.392 851.984 638.012 851.174C637.632 850.364 637.392 849.604 637.342 848.824C637.262 848.054 637.352 847.334 637.612 846.654C637.862 845.944 638.302 845.304 638.892 844.714C639.502 844.114 640.312 843.584 641.322 843.104L646.532 840.644L642.972 833.104L645.402 831.954L653.992 850.134L646.342 853.744C645.322 854.214 644.402 854.494 643.552 854.584ZM640.162 847.234C639.842 848.064 639.932 848.984 640.422 850.024C640.912 851.064 641.562 851.714 642.412 851.994C643.222 852.264 644.292 852.094 645.582 851.484L650.542 849.144L647.532 842.764L642.572 845.114C641.272 845.714 640.472 846.434 640.162 847.234Z" fill="white"/>
<path d="M608.332 856.124C608.172 855.254 608.102 854.404 608.152 853.544C608.202 852.684 608.322 851.854 608.572 851.024C608.822 850.194 609.202 849.414 609.702 848.704C610.192 847.964 610.802 847.304 611.562 846.704C612.312 846.104 613.202 845.604 614.242 845.184C615.262 844.784 616.272 844.524 617.232 844.444C618.172 844.374 619.092 844.424 619.952 844.624C620.782 844.804 621.592 845.114 622.332 845.544C623.102 845.964 623.782 846.474 624.392 847.074C625.022 847.664 625.552 848.334 626.052 849.064C626.522 849.784 626.922 850.554 627.242 851.364C627.822 852.824 628.132 854.204 628.202 855.594C628.262 856.954 628.072 858.234 627.662 859.394C627.222 860.564 626.532 861.624 625.592 862.534C624.642 863.484 623.462 864.224 622.032 864.794C620.602 865.364 619.212 865.644 617.892 865.594C616.562 865.584 615.352 865.274 614.232 864.724C613.112 864.174 612.122 863.364 611.232 862.334C610.332 861.274 609.602 860.054 609.022 858.604C608.702 857.814 608.452 856.984 608.332 856.124ZM613.182 860.524C613.842 861.344 614.602 861.974 615.422 862.434C616.262 862.884 617.172 863.124 618.122 863.164C619.112 863.224 620.122 863.034 621.162 862.624C622.202 862.214 623.072 861.654 623.742 860.934C624.402 860.254 624.902 859.454 625.182 858.554C625.482 857.654 625.602 856.664 625.522 855.614C625.442 854.564 625.182 853.464 624.742 852.364C624.282 851.224 623.742 850.234 623.122 849.424C622.462 848.604 621.722 847.964 620.912 847.504C620.102 847.044 619.202 846.834 618.232 846.764C617.252 846.734 616.222 846.934 615.102 847.374C613.982 847.824 613.092 848.384 612.402 849.084C611.722 849.804 611.222 850.584 610.942 851.474C610.662 852.364 610.592 853.334 610.712 854.374C610.792 855.394 611.072 856.494 611.522 857.634C611.952 858.724 612.522 859.704 613.182 860.524Z" fill="white"/>
<path d="M593.662 874.414C593.082 874.544 592.532 874.634 591.982 874.664C591.482 874.684 590.972 874.644 590.472 874.534C589.992 874.424 589.542 874.214 589.102 873.954C588.662 873.684 588.272 873.314 587.932 872.894C587.612 872.444 587.322 871.914 587.112 871.274C587.012 870.954 586.942 870.564 586.902 870.164C586.882 869.754 586.902 869.344 586.962 868.904C587.052 868.464 587.182 868.034 587.432 867.634C587.642 867.184 587.962 866.814 588.372 866.444C587.932 866.444 587.472 866.384 587.002 866.304C586.522 866.194 586.052 866.024 585.592 865.764C585.152 865.494 584.742 865.134 584.332 864.704C583.942 864.244 583.632 863.634 583.392 862.914C583.252 862.484 583.172 862.044 583.112 861.594C583.062 861.084 583.082 860.604 583.162 860.134C583.262 859.634 583.422 859.134 583.652 858.654C583.872 858.164 584.202 857.714 584.592 857.284C585.002 856.824 585.492 856.434 586.082 856.064C586.672 855.694 587.392 855.374 588.212 855.104L596.282 852.474L602.512 871.594L595.672 873.824C594.902 874.064 594.222 874.254 593.662 874.414ZM587.262 858.144C586.752 858.484 586.372 858.844 586.102 859.284C585.842 859.664 585.722 860.114 585.692 860.564C585.662 861.014 585.732 861.494 585.892 862.004C586.052 862.514 586.282 862.934 586.572 863.284C586.862 863.634 587.222 863.924 587.662 864.104C588.132 864.274 588.652 864.344 589.262 864.314C589.902 864.284 590.622 864.134 591.442 863.864L596.582 862.184L594.412 855.524L589.272 857.204C588.462 857.484 587.802 857.794 587.262 858.144ZM590.542 866.734C590.092 867.064 589.762 867.424 589.562 867.794C589.382 868.144 589.302 868.524 589.312 868.934C589.352 869.334 589.432 869.754 589.572 870.174C589.722 870.624 589.902 871.014 590.152 871.314C590.422 871.604 590.732 871.834 591.132 871.964C591.512 872.134 592.002 872.184 592.542 872.124C593.092 872.094 593.732 871.974 594.452 871.734L599.222 870.184L597.292 864.274L592.522 865.824C591.662 866.104 591.022 866.404 590.542 866.734Z" fill="white"/>
<path d="M556.302 864.124L559.202 863.364L562.812 868.784L570.452 866.794L571.062 860.264L573.802 859.554L571.662 881.214L568.522 882.034L556.302 864.124ZM564.082 870.664L569.292 878.534L570.322 869.034L564.082 870.664Z" fill="white"/>
<path d="M536.752 880.254L538.342 888.384L535.702 888.904L531.832 869.174L534.472 868.654L536.292 877.944L546.792 875.884L544.972 866.594L547.612 866.074L551.482 885.804L548.842 886.324L547.252 878.194L536.752 880.254Z" fill="white"/>
<path d="M519.212 875.034L511.202 892.494L508.122 892.904L505.502 872.974L508.172 872.624L510.302 888.834L510.362 888.824L518.362 871.284L521.442 870.874L524.062 890.804L521.402 891.154L519.282 875.024L519.212 875.034Z" fill="white"/>
<path d="M489.862 885.684C489.862 887.084 489.652 888.394 489.252 889.564C488.872 890.734 488.292 891.754 487.552 892.614C486.812 893.474 485.902 894.174 484.782 894.684C483.692 895.194 482.422 895.494 480.962 895.584C479.422 895.674 478.042 895.504 476.832 895.044C475.602 894.614 474.582 893.944 473.712 893.064C472.842 892.184 472.192 891.104 471.702 889.844C471.202 888.554 470.932 887.164 470.832 885.604C470.782 884.734 470.812 883.864 470.902 883.024C471.022 882.144 471.222 881.324 471.512 880.524C471.802 879.724 472.182 878.974 472.642 878.274C473.132 877.574 473.712 876.944 474.382 876.434C475.052 875.894 475.842 875.454 476.712 875.124C477.622 874.794 478.612 874.594 479.702 874.524C480.732 874.464 481.692 874.514 482.542 874.724C483.422 874.894 484.202 875.214 484.892 875.594C485.592 875.974 486.232 876.444 486.772 876.994C487.312 877.544 487.792 878.164 488.172 878.844C488.602 879.524 488.902 880.234 489.172 881.004C489.412 881.774 489.602 882.544 489.702 883.354L492.862 883.164L492.342 874.274L495.022 874.114L496.202 894.184L493.522 894.344L493.002 885.514L489.862 885.684ZM474.162 888.714C474.552 889.704 475.052 890.544 475.682 891.234C476.312 891.924 477.072 892.444 477.932 892.784C478.822 893.154 479.782 893.294 480.822 893.234C481.882 893.174 482.822 892.924 483.632 892.454C484.452 892.014 485.142 891.414 485.682 890.654C486.222 889.894 486.622 889.004 486.872 887.974C487.152 886.944 487.252 885.824 487.182 884.644C487.112 883.414 486.872 882.304 486.482 881.344C486.092 880.354 485.592 879.514 484.932 878.824C484.302 878.134 483.542 877.644 482.682 877.274C481.852 876.934 480.892 876.794 479.852 876.854C478.652 876.924 477.622 877.184 476.812 877.624C475.972 878.094 475.302 878.664 474.782 879.424C474.262 880.184 473.902 881.074 473.702 882.094C473.512 883.084 473.432 884.214 473.502 885.444C473.592 886.614 473.792 887.724 474.162 888.714Z" fill="white"/>
<path d="M432.982 895.014L429.232 894.854L437.942 887.104L429.872 874.764L433.312 874.914L439.952 885.344L443.332 882.354L443.632 875.364L446.322 875.484L445.452 895.564L442.772 895.444L443.192 885.654L432.982 895.014Z" fill="white"/>
<path d="M418.602 876.264C418.442 876.164 418.282 876.094 418.092 875.984L417.492 875.754C417.302 875.704 417.112 875.664 416.912 875.634C416.522 875.594 416.152 875.614 415.832 875.694C415.542 875.774 415.282 875.894 415.032 876.064C414.822 876.234 414.602 876.414 414.442 876.654C414.272 876.894 414.172 877.134 414.062 877.374L420.622 894.234L417.502 893.914L412.252 879.974L405.882 892.724L402.872 892.414L410.662 878.094C411.202 877.164 411.712 876.344 412.142 875.684C412.602 875.004 413.052 874.484 413.542 874.084C414.032 873.684 414.572 873.404 415.142 873.264C415.722 873.094 416.402 873.084 417.182 873.164C417.602 873.204 417.982 873.304 418.362 873.454C418.742 873.604 419.032 873.774 419.212 873.964L418.952 876.554C418.892 876.454 418.762 876.364 418.602 876.264Z" fill="white"/>
<path d="M381.962 888.824C381.242 888.394 380.642 887.904 380.192 887.314C379.752 886.734 379.462 886.064 379.332 885.304C379.172 884.544 379.192 883.744 379.332 882.864C379.472 881.984 379.712 881.224 380.102 880.554C380.472 879.874 380.952 879.334 381.562 878.924C382.172 878.484 382.902 878.204 383.722 878.054C384.572 877.904 385.532 877.924 386.632 878.104L392.322 879.024L393.662 870.794L396.312 871.224L393.092 891.064L384.742 889.704C383.632 889.524 382.712 889.234 381.962 888.824ZM383.342 880.854C382.612 881.354 382.162 882.164 381.982 883.294C381.802 884.424 381.962 885.334 382.502 886.044C383.012 886.724 383.992 887.194 385.402 887.424L390.822 888.304L391.952 881.344L386.532 880.464C385.112 880.234 384.042 880.374 383.342 880.854Z" fill="white"/>
<path d="M367.972 872.914C367.892 871.864 367.652 870.914 367.232 870.104C366.822 869.264 366.252 868.594 365.542 868.034C364.832 867.474 364.002 867.084 363.052 866.864C362.202 866.674 361.432 866.644 360.682 866.814C359.962 866.964 359.302 867.224 358.722 867.604C358.112 868.014 357.612 868.474 357.172 869.004C356.752 869.574 356.392 870.154 356.172 870.784L353.632 870.214C353.812 869.654 354.052 869.104 354.382 868.544C354.732 867.994 355.112 867.474 355.562 867.004C356.012 866.534 356.512 866.104 357.092 865.714C357.642 865.324 358.262 865.004 358.942 864.754C359.622 864.534 360.342 864.384 361.122 864.354C361.882 864.294 362.702 864.364 363.572 864.564C364.172 864.704 364.792 864.894 365.442 865.184C366.102 865.444 366.732 865.824 367.322 866.264C367.942 866.694 368.482 867.244 368.992 867.874C369.512 868.504 369.912 869.254 370.212 870.104C370.512 870.944 370.692 871.934 370.732 873.004C370.802 874.084 370.672 875.314 370.372 876.654C370.072 877.964 369.672 879.134 369.192 880.114C368.712 881.094 368.152 881.914 367.542 882.614C366.932 883.284 366.262 883.814 365.542 884.234C364.842 884.654 364.122 884.944 363.352 885.144C362.592 885.314 361.832 885.404 361.082 885.404C360.312 885.374 359.562 885.294 358.852 885.134C357.952 884.934 357.152 884.634 356.482 884.314C355.792 883.954 355.192 883.564 354.652 883.124C354.152 882.664 353.752 882.174 353.402 881.664C353.062 881.154 352.772 880.634 352.582 880.104C352.392 879.574 352.282 879.034 352.222 878.504C352.172 877.974 352.162 877.484 352.242 877.014L354.812 877.594C354.832 878.264 354.952 878.884 355.172 879.454C355.392 880.024 355.672 880.544 356.092 880.984C356.482 881.414 356.942 881.804 357.472 882.124C358.032 882.424 358.642 882.674 359.292 882.824C360.302 883.054 361.252 883.064 362.152 882.864C363.022 882.684 363.862 882.304 364.582 881.744C365.312 881.164 365.962 880.444 366.492 879.534C367.012 878.614 367.432 877.534 367.702 876.334C367.962 875.124 368.052 873.974 367.972 872.914Z" fill="white"/>
<path d="M328.652 855.664L322.892 874.924L320.312 874.154L326.072 854.894L328.652 855.664ZM334.602 869.774C333.452 869.434 332.492 868.994 331.722 868.474C330.952 867.954 330.362 867.364 329.972 866.724C329.552 866.074 329.332 865.364 329.272 864.584C329.212 863.804 329.312 862.984 329.572 862.104C329.832 861.244 330.192 860.504 330.662 859.914C331.142 859.294 331.722 858.804 332.382 858.474C333.042 858.144 333.802 857.934 334.632 857.894C335.462 857.854 336.392 857.984 337.352 858.274L345.692 860.774L339.932 880.034L337.352 879.264L339.732 871.324L334.602 869.774ZM335.492 860.344C334.992 860.344 334.562 860.414 334.132 860.584C333.732 860.754 333.352 861.024 333.042 861.394C332.722 861.764 332.482 862.274 332.292 862.924C332.102 863.564 332.022 864.124 332.082 864.614C332.172 865.104 332.362 865.544 332.622 865.944C332.922 866.294 333.322 866.624 333.792 866.904C334.292 867.174 334.872 867.404 335.512 867.594L340.392 869.054L342.432 862.244L336.982 860.614C336.482 860.464 335.982 860.364 335.492 860.344Z" fill="white"/>
<path d="M290.302 841.314L283.502 857.714L293.382 861.814L300.182 845.414L302.662 846.444L294.962 865.014L280.112 858.854L287.812 840.284L290.302 841.314Z" fill="white"/>
<path d="M258.452 834.564C258.982 833.854 259.572 833.244 260.242 832.704C260.912 832.164 261.612 831.694 262.392 831.324C263.162 830.954 264.002 830.714 264.872 830.614C265.752 830.484 266.652 830.494 267.602 830.644C268.552 830.804 269.522 831.124 270.522 831.614C271.502 832.094 272.372 832.684 273.072 833.344C273.752 833.994 274.332 834.714 274.762 835.484C275.182 836.224 275.502 837.034 275.682 837.874C275.892 838.724 275.972 839.574 275.922 840.424C275.902 841.294 275.772 842.124 275.562 842.994C275.342 843.824 275.032 844.634 274.652 845.414C273.962 846.824 273.142 847.974 272.152 848.954C271.182 849.914 270.112 850.634 268.972 851.104C267.812 851.564 266.562 851.754 265.252 851.674C263.912 851.604 262.572 851.224 261.192 850.544C259.812 849.864 258.662 849.014 257.822 848.004C256.942 847.004 256.362 845.914 256.012 844.714C255.672 843.514 255.612 842.234 255.772 840.884C255.952 839.504 256.372 838.154 257.062 836.744C257.442 835.964 257.902 835.224 258.452 834.564ZM258.442 841.104C258.272 842.144 258.312 843.134 258.522 844.044C258.752 844.974 259.182 845.804 259.792 846.544C260.412 847.314 261.232 847.934 262.232 848.434C263.232 848.924 264.232 849.194 265.222 849.214C266.172 849.244 267.102 849.074 267.952 848.684C268.822 848.304 269.632 847.734 270.362 846.964C271.092 846.194 271.732 845.264 272.252 844.214C272.792 843.104 273.162 842.044 273.352 841.044C273.522 840.004 273.502 839.024 273.302 838.114C273.092 837.204 272.652 836.394 272.062 835.634C271.432 834.884 270.592 834.254 269.512 833.724C268.432 833.194 267.412 832.914 266.442 832.864C265.452 832.844 264.542 832.984 263.692 833.384C262.842 833.774 262.082 834.374 261.382 835.154C260.672 835.894 260.052 836.844 259.512 837.944C258.952 838.994 258.612 840.064 258.442 841.104Z" fill="white"/>
<path d="M229.272 808.964L219.902 824.034L228.982 829.684L238.362 814.614L240.642 816.034L230.022 833.104L216.372 824.614L226.992 807.544L229.272 808.964Z" fill="white"/>
<path d="M197.562 811.144C197.102 810.444 196.782 809.734 196.642 809.014C196.502 808.294 196.532 807.564 196.752 806.824C196.942 806.064 197.312 805.364 197.822 804.634C198.332 803.904 198.882 803.334 199.532 802.894C200.162 802.444 200.832 802.174 201.562 802.064C202.302 801.934 203.082 802.004 203.882 802.234C204.702 802.474 205.562 802.914 206.472 803.564L211.172 806.904L216.002 800.104L218.192 801.664L206.562 818.054L199.672 813.164C198.762 812.514 198.062 811.844 197.562 811.144ZM202.322 804.604C201.442 804.734 200.682 805.264 200.022 806.194C199.362 807.134 199.102 808.014 199.272 808.894C199.432 809.734 200.102 810.584 201.262 811.404L205.732 814.584L209.812 808.834L205.342 805.654C204.182 804.824 203.162 804.474 202.322 804.604Z" fill="white"/>
<path d="M178.942 781.184C179.622 780.614 180.322 780.144 181.102 779.764C181.882 779.384 182.662 779.084 183.502 778.894C184.342 778.704 185.212 778.654 186.072 778.744C186.952 778.814 187.832 779.014 188.732 779.374C189.632 779.734 190.502 780.264 191.372 780.964C192.222 781.654 192.942 782.414 193.482 783.214C194.002 783.994 194.412 784.824 194.662 785.674C194.912 786.484 195.042 787.344 195.032 788.204C195.042 789.084 194.932 789.924 194.702 790.744C194.492 791.584 194.172 792.374 193.782 793.174C193.382 793.934 192.902 794.664 192.362 795.334C191.372 796.554 190.322 797.504 189.142 798.244C187.982 798.964 186.782 799.434 185.562 799.634C184.332 799.824 183.062 799.734 181.812 799.374C180.522 799.014 179.292 798.344 178.102 797.374C176.902 796.404 175.972 795.334 175.372 794.154C174.732 792.984 174.402 791.784 174.332 790.544C174.262 789.294 174.482 788.034 174.952 786.754C175.432 785.454 176.142 784.214 177.122 783.004C177.642 782.334 178.262 781.714 178.942 781.184ZM177.482 787.574C177.092 788.554 176.912 789.524 176.912 790.464C176.932 791.414 177.172 792.324 177.602 793.174C178.032 794.064 178.692 794.854 179.562 795.554C180.432 796.254 181.342 796.744 182.302 796.974C183.222 797.214 184.162 797.254 185.082 797.054C186.022 796.874 186.932 796.504 187.812 795.914C188.682 795.324 189.522 794.554 190.262 793.644C191.032 792.684 191.632 791.724 192.032 790.784C192.422 789.804 192.622 788.854 192.622 787.914C192.622 786.974 192.372 786.084 191.962 785.214C191.512 784.344 190.832 783.544 189.892 782.784C188.952 782.024 188.022 781.524 187.082 781.264C186.122 781.024 185.202 780.964 184.282 781.164C183.362 781.364 182.492 781.774 181.642 782.374C180.782 782.944 179.972 783.724 179.202 784.684C178.452 785.614 177.882 786.594 177.482 787.574Z" fill="white"/>
<path d="M162.282 780.164L174.222 767.024L176.212 768.834L162.692 783.714L153.952 775.764L155.532 774.024L162.282 780.164Z" fill="white"/>
<path d="M138.852 760.294C138.522 759.524 138.332 758.764 138.312 758.034C138.292 757.304 138.462 756.594 138.802 755.894C139.122 755.184 139.602 754.554 140.242 753.924C140.882 753.294 141.512 752.824 142.232 752.514C142.932 752.184 143.642 752.024 144.372 752.054C145.122 752.054 145.872 752.264 146.622 752.624C147.392 753.004 148.162 753.584 148.952 754.384L153.002 758.494L158.942 752.634L160.832 754.544L146.522 768.664L140.582 762.644C139.792 761.844 139.222 761.074 138.852 760.294ZM144.672 754.674C143.782 754.644 142.952 755.044 142.132 755.844C141.312 756.644 140.912 757.474 140.932 758.374C140.942 759.224 141.452 760.174 142.462 761.194L146.322 765.104L151.342 760.144L147.482 756.234C146.472 755.224 145.522 754.694 144.672 754.674Z" fill="white"/>
<path d="M132.502 724.024L134.482 726.274L131.252 731.934L136.462 737.874L142.572 735.494L144.442 737.624L124.122 745.414L121.982 742.974L132.502 724.024ZM130.142 733.914L125.432 742.094L134.382 738.754L130.142 733.914Z" fill="white"/>
<path d="M118.482 711.524L101.612 717.324L99.262 714.264L115.202 702.014L116.742 704.014L103.332 714.314L103.362 714.354L120.222 708.534L121.862 710.664L111.902 725.454L111.932 725.494L125.342 715.194L126.882 717.194L110.942 729.444L108.592 726.384L118.542 711.574L118.482 711.524Z" fill="white"/>
<path d="M101.092 687.184L83.8621 691.794L81.7321 688.574L98.4821 677.464L99.8721 679.564L85.782 688.914L85.8121 688.964L103.032 684.334L104.522 686.574L93.5521 700.634L93.582 700.684L107.672 691.344L109.062 693.444L92.3121 704.554L90.1821 701.334L101.132 687.254L101.092 687.184Z" fill="white"/>
<path d="M88.262 667.934L69.072 667.134L67.532 664.434L84.982 654.464L86.312 656.794L72.112 664.904L72.142 664.954L91.402 665.714L92.942 668.414L75.492 678.384L74.162 676.054L88.282 667.984L88.262 667.934Z" fill="white"/>
<path d="M57.372 643.634C57.302 642.794 57.352 642.014 57.572 641.314C57.792 640.614 58.172 639.994 58.712 639.444C59.242 638.874 59.892 638.424 60.702 638.024C61.502 637.624 62.262 637.384 63.032 637.304C63.792 637.204 64.522 637.284 65.212 637.544C65.922 637.784 66.572 638.214 67.172 638.794C67.782 639.394 68.332 640.194 68.822 641.194L71.372 646.364L78.852 642.674L80.042 645.084L62.012 653.964L58.272 646.384C57.772 645.404 57.482 644.494 57.372 643.634ZM64.672 640.134C63.832 639.824 62.922 639.934 61.892 640.444C60.862 640.954 60.222 641.614 59.952 642.464C59.692 643.274 59.882 644.344 60.512 645.624L62.942 650.544L69.272 647.424L66.852 642.504C66.202 641.224 65.472 640.424 64.672 640.134Z" fill="white"/>
<path d="M55.2521 608.434C56.1221 608.254 56.962 608.174 57.832 608.214C58.692 608.244 59.532 608.354 60.352 608.584C61.182 608.814 61.972 609.184 62.682 609.674C63.432 610.154 64.102 610.754 64.712 611.494C65.322 612.244 65.842 613.114 66.272 614.154C66.692 615.164 66.962 616.174 67.062 617.134C67.152 618.074 67.112 618.994 66.922 619.864C66.752 620.694 66.452 621.514 66.042 622.264C65.632 623.044 65.132 623.734 64.542 624.344C63.962 624.984 63.302 625.524 62.582 626.044C61.872 626.524 61.102 626.934 60.302 627.264C58.852 627.864 57.472 628.194 56.092 628.294C54.732 628.374 53.452 628.214 52.282 627.814C51.102 627.394 50.032 626.714 49.112 625.804C48.142 624.874 47.382 623.704 46.792 622.284C46.202 620.864 45.892 619.474 45.922 618.154C45.912 616.824 46.202 615.614 46.732 614.484C47.262 613.354 48.062 612.354 49.072 611.444C50.112 610.524 51.322 609.774 52.772 609.174C53.562 608.834 54.4021 608.584 55.2521 608.434ZM50.932 613.364C50.122 614.034 49.502 614.814 49.052 615.634C48.612 616.484 48.392 617.394 48.362 618.344C48.322 619.334 48.522 620.334 48.952 621.374C49.382 622.414 49.952 623.264 50.682 623.924C51.382 624.574 52.182 625.054 53.082 625.324C53.992 625.614 54.972 625.714 56.022 625.614C57.072 625.514 58.1721 625.234 59.2521 624.784C60.3921 624.314 61.372 623.754 62.172 623.114C62.982 622.444 63.612 621.694 64.062 620.874C64.512 620.054 64.712 619.144 64.762 618.184C64.782 617.204 64.562 616.174 64.102 615.064C63.642 613.954 63.062 613.074 62.352 612.394C61.622 611.724 60.842 611.234 59.942 610.974C59.042 610.714 58.082 610.654 57.042 610.784C56.022 610.874 54.932 611.174 53.792 611.654C52.712 612.104 51.742 612.694 50.932 613.364Z" fill="white"/>
<path d="M36.742 594.074C36.602 593.504 36.502 592.944 36.462 592.394C36.442 591.894 36.472 591.384 36.562 590.884C36.662 590.404 36.862 589.954 37.122 589.504C37.382 589.054 37.752 588.664 38.162 588.314C38.612 587.984 39.132 587.684 39.762 587.464C40.082 587.354 40.472 587.284 40.862 587.234C41.272 587.214 41.682 587.214 42.122 587.274C42.562 587.354 42.992 587.484 43.402 587.724C43.852 587.924 44.232 588.234 44.602 588.644C44.602 588.204 44.642 587.744 44.722 587.274C44.822 586.794 44.992 586.324 45.242 585.854C45.502 585.404 45.862 584.984 46.282 584.574C46.742 584.184 47.342 583.854 48.052 583.614C48.472 583.464 48.922 583.374 49.372 583.314C49.882 583.254 50.362 583.264 50.832 583.344C51.342 583.434 51.832 583.594 52.322 583.804C52.812 584.014 53.272 584.334 53.702 584.724C54.162 585.124 54.572 585.614 54.952 586.194C55.332 586.774 55.662 587.484 55.942 588.314L58.702 596.334L39.692 602.874L37.352 596.074C37.112 595.304 36.912 594.634 36.742 594.074ZM44.362 590.824C44.032 590.374 43.652 590.064 43.292 589.864C42.932 589.694 42.552 589.614 42.152 589.634C41.752 589.684 41.342 589.764 40.912 589.914C40.462 590.064 40.082 590.254 39.782 590.504C39.492 590.784 39.272 591.094 39.142 591.494C38.972 591.874 38.942 592.364 39.002 592.904C39.042 593.454 39.172 594.094 39.422 594.804L41.052 599.544L46.932 597.524L45.302 592.784C45.012 591.934 44.702 591.304 44.362 590.824ZM52.902 587.414C52.552 586.914 52.182 586.534 51.742 586.274C51.362 586.024 50.902 585.914 50.452 585.884C50.002 585.864 49.522 585.934 49.022 586.114C48.522 586.294 48.092 586.524 47.752 586.824C47.412 587.124 47.122 587.484 46.952 587.934C46.792 588.404 46.732 588.924 46.762 589.534C46.802 590.174 46.962 590.884 47.242 591.704L49.002 596.814L55.622 594.534L53.862 589.424C53.572 588.604 53.262 587.944 52.902 587.414Z" fill="white"/>
<path d="M46.402 556.544L47.202 559.434L41.842 563.134L43.962 570.744L50.5021 571.254L51.262 573.974L29.572 572.194L28.702 569.064L46.402 556.544ZM39.9921 564.434L32.202 569.764L41.712 570.634L39.9921 564.434Z" fill="white"/>
<path d="M29.972 537.294L21.862 539.014L21.302 536.384L40.972 532.194L41.532 534.824L32.272 536.794L34.502 547.254L43.762 545.284L44.322 547.914L24.652 552.094L24.092 549.464L32.202 547.744L29.972 537.294Z" fill="white"/>
<path d="M34.892 519.634L17.3121 511.904L16.8621 508.834L36.7421 505.894L37.132 508.554L20.962 510.944L20.972 511.004L38.642 518.724L39.092 521.794L19.212 524.734L18.822 522.074L34.912 519.694L34.892 519.634Z" fill="white"/>
<path d="M23.772 490.454C22.372 490.474 21.062 490.294 19.882 489.904C18.702 489.544 17.6821 488.974 16.8121 488.254C15.9421 487.534 15.232 486.634 14.692 485.524C14.162 484.444 13.842 483.174 13.732 481.724C13.612 480.184 13.762 478.804 14.202 477.584C14.612 476.344 15.2621 475.314 16.1221 474.434C16.9821 473.554 18.0521 472.884 19.3121 472.364C20.5921 471.844 21.972 471.544 23.542 471.424C24.412 471.354 25.282 471.374 26.132 471.454C27.012 471.554 27.842 471.744 28.642 472.024C29.452 472.304 30.202 472.664 30.912 473.114C31.622 473.594 32.252 474.164 32.782 474.824C33.332 475.484 33.792 476.264 34.132 477.134C34.482 478.034 34.692 479.034 34.782 480.114C34.862 481.144 34.822 482.104 34.632 482.964C34.472 483.844 34.1721 484.624 33.8021 485.334C33.4321 486.034 32.9821 486.684 32.4321 487.234C31.8821 487.784 31.272 488.274 30.602 488.664C29.932 489.104 29.222 489.414 28.462 489.694C27.692 489.944 26.9221 490.144 26.1221 490.264L26.3621 493.424L35.2421 492.754L35.442 495.434L15.392 496.944L15.192 494.264L24.012 493.594L23.772 490.454ZM20.482 474.804C19.502 475.214 18.6721 475.724 17.9921 476.364C17.3121 477.004 16.802 477.774 16.482 478.644C16.132 479.544 16.002 480.504 16.082 481.534C16.162 482.594 16.432 483.534 16.912 484.334C17.362 485.144 17.9821 485.824 18.7521 486.354C19.5221 486.884 20.422 487.264 21.452 487.494C22.482 487.754 23.612 487.834 24.782 487.744C26.012 487.654 27.112 487.404 28.072 486.994C29.052 486.584 29.8821 486.074 30.5621 485.404C31.2421 484.764 31.722 483.994 32.072 483.124C32.402 482.284 32.522 481.324 32.452 480.284C32.362 479.084 32.092 478.064 31.632 477.254C31.152 476.424 30.5621 475.764 29.8021 475.254C29.0321 474.754 28.1321 474.394 27.1121 474.224C26.1121 474.044 24.992 473.994 23.762 474.084C22.572 474.194 21.472 474.424 20.482 474.804Z" fill="white"/>
<defs>
<linearGradient id="paint0_linear_56_1403" x1="459.162" y1="25.9341" x2="459.162" y2="887.214" gradientUnits="userSpaceOnUse">
<stop stop-color="#3A6FE8"/>
<stop offset="1" stop-color="white" stop-opacity="0"/>
</linearGradient>
</defs>
</svg>
