<svg width="811" height="895" viewBox="0 0 811 895" fill="none" xmlns="http://www.w3.org/2000/svg">
<path d="M566.581 567.816C701.145 387.22 737.973 186.979 648.84 120.565C559.706 54.151 378.364 146.714 243.801 327.311C109.237 507.907 72.409 708.149 161.542 774.562C250.676 840.976 432.018 748.413 566.581 567.816Z" stroke="url(#paint0_linear_56_1112)" stroke-width="50" stroke-miterlimit="10"/>
<path d="M342.402 209.984L344.892 207.714L340.472 217.114L347.862 218.314L345.572 220.394L339.452 219.264L337.732 222.904L338.712 226.644L336.932 228.274L334.112 217.544L335.892 215.914L337.272 221.144L342.402 209.984Z" fill="white"/>
<path d="M355.012 210.484C355.132 210.434 355.252 210.374 355.392 210.304L355.822 210.044C355.952 209.944 356.092 209.854 356.222 209.744C356.482 209.524 356.722 209.284 356.922 209.044C357.102 208.824 357.252 208.594 357.382 208.354C357.492 208.134 357.602 207.904 357.672 207.684C357.742 207.464 357.772 207.274 357.802 207.074L350.662 202.634L352.762 200.844L358.552 204.624L360.592 194.164L362.622 192.434L359.912 204.584C359.712 205.394 359.512 206.134 359.342 206.734C359.152 207.374 358.942 207.914 358.692 208.424C358.432 208.934 358.132 209.414 357.772 209.844C357.422 210.294 356.982 210.724 356.452 211.174C356.172 211.414 355.902 211.604 355.632 211.764C355.362 211.924 355.142 212.024 354.992 212.034L354.732 210.554C354.792 210.564 354.892 210.534 355.012 210.484Z" fill="white"/>
<path d="M376.992 181.114C377.542 180.874 378.022 180.754 378.412 180.774C378.802 180.794 379.102 180.954 379.322 181.254C379.552 181.544 379.682 181.954 379.732 182.494C379.782 183.034 379.762 183.564 379.612 184.154C379.482 184.724 379.262 185.304 378.932 185.894C378.602 186.504 378.172 187.094 377.662 187.684C377.132 188.284 376.492 188.884 375.742 189.484L371.842 192.584L372.352 197.604L370.532 199.044L369.312 186.954L375.022 182.414C375.772 181.814 376.422 181.384 376.992 181.114ZM377.422 186.034C377.822 185.314 377.972 184.634 377.902 183.944C377.832 183.254 377.572 182.894 377.102 182.874C376.652 182.854 375.932 183.224 374.972 183.994L371.262 186.944L371.692 191.184L375.402 188.234C376.362 187.454 377.042 186.714 377.422 186.034Z" fill="white"/>
<path d="M388.842 180.434C389.072 180.914 389.392 181.244 389.802 181.394C390.212 181.564 390.702 181.544 391.262 181.394C391.822 181.234 392.432 180.914 393.092 180.424C393.682 179.994 394.192 179.524 394.662 178.964C395.112 178.434 395.502 177.894 395.812 177.334C396.142 176.744 396.402 176.194 396.592 175.654C396.772 175.104 396.912 174.584 396.952 174.124L398.722 172.824C398.692 173.224 398.632 173.654 398.512 174.144C398.372 174.644 398.212 175.144 397.992 175.664C397.772 176.184 397.522 176.724 397.202 177.274C396.912 177.814 396.552 178.364 396.142 178.924C395.732 179.464 395.282 179.994 394.772 180.494C394.282 181.004 393.732 181.474 393.132 181.924C392.712 182.234 392.272 182.514 391.802 182.774C391.322 183.054 390.842 183.264 390.382 183.404C389.902 183.574 389.462 183.634 389.012 183.634C388.562 183.634 388.172 183.504 387.832 183.264C387.492 183.024 387.212 182.634 387.002 182.114C386.772 181.614 386.652 180.904 386.632 180.034C386.602 179.184 386.682 178.334 386.832 177.534C386.982 176.734 387.212 175.964 387.502 175.234C387.792 174.514 388.142 173.824 388.542 173.164C388.932 172.514 389.362 171.914 389.822 171.334C390.292 170.774 390.782 170.244 391.272 169.774C391.782 169.304 392.292 168.874 392.782 168.514C393.412 168.054 393.982 167.704 394.472 167.444C394.992 167.194 395.452 167.014 395.872 166.904C396.282 166.824 396.622 166.824 396.942 166.864C397.252 166.904 397.532 166.994 397.742 167.144C397.962 167.294 398.122 167.494 398.242 167.734C398.362 167.974 398.452 168.214 398.482 168.504L396.702 169.814C396.572 169.494 396.392 169.244 396.152 169.094C395.912 168.944 395.642 168.854 395.292 168.894C394.962 168.914 394.592 169.004 394.192 169.174C393.772 169.374 393.332 169.624 392.872 169.964C392.172 170.484 391.542 171.064 390.982 171.734C390.442 172.374 389.952 173.084 389.572 173.824C389.192 174.574 388.882 175.344 388.692 176.144C388.502 176.934 388.412 177.744 388.432 178.524C388.472 179.314 388.612 179.954 388.842 180.434Z" fill="white"/>
<path d="M411.302 161.104C412.122 160.554 412.812 160.174 413.412 159.954C414.012 159.734 414.492 159.664 414.862 159.744C415.242 159.814 415.512 160.034 415.692 160.384C415.862 160.744 415.932 161.214 415.912 161.834C415.892 162.434 415.772 163.034 415.562 163.634C415.352 164.244 415.052 164.864 414.672 165.444C414.302 166.024 413.832 166.604 413.292 167.154C412.752 167.694 412.122 168.214 411.442 168.674L405.542 172.634L406.082 159.254L407.902 158.034L407.682 163.554L411.302 161.104ZM417.592 164.534L418.132 151.154L419.952 149.934L419.412 163.314L417.592 164.534ZM412.302 166.454C412.632 166.144 412.902 165.834 413.152 165.484C413.392 165.144 413.582 164.774 413.732 164.384C413.872 163.994 413.952 163.584 413.962 163.134C413.982 162.684 413.942 162.354 413.812 162.144C413.672 161.944 413.472 161.844 413.232 161.804C412.972 161.814 412.652 161.904 412.302 162.054C411.922 162.234 411.512 162.474 411.052 162.784L407.602 165.104L407.412 169.834L411.262 167.244C411.632 167.004 411.982 166.744 412.302 166.454Z" fill="white"/>
<path d="M445.182 147.784L446.882 135.204L439.702 139.314L438.002 151.894L436.202 152.924L438.132 138.674L448.922 132.494L446.992 146.744L445.182 147.784Z" fill="white"/>
<path d="M467.262 131.244C467.032 131.934 466.752 132.614 466.402 133.314C466.052 134.014 465.672 134.684 465.222 135.354C464.772 136.024 464.262 136.674 463.712 137.264C463.162 137.874 462.562 138.444 461.912 138.954C461.262 139.474 460.572 139.914 459.832 140.294C459.112 140.664 458.442 140.914 457.862 141.014C457.302 141.114 456.802 141.104 456.392 140.984C455.992 140.874 455.652 140.654 455.392 140.344C455.112 140.044 454.922 139.664 454.802 139.194C454.672 138.744 454.612 138.234 454.602 137.664C454.612 137.104 454.672 136.494 454.792 135.864C455.012 134.714 455.352 133.614 455.832 132.504C456.312 131.414 456.892 130.374 457.562 129.424C458.252 128.464 459.042 127.584 459.902 126.804C460.792 125.994 461.742 125.354 462.762 124.834C463.782 124.314 464.682 124.024 465.402 124.004C466.152 123.954 466.712 124.154 467.142 124.544C467.572 124.934 467.822 125.544 467.942 126.344C468.052 127.154 468.012 128.104 467.792 129.254C467.692 129.894 467.512 130.564 467.262 131.244ZM466.172 127.914C466.112 127.284 465.912 126.804 465.622 126.474C465.312 126.154 464.892 125.994 464.372 126.004C463.832 126.004 463.192 126.194 462.452 126.574C461.712 126.954 461.012 127.434 460.362 128.044C459.732 128.624 459.152 129.294 458.662 130.024C458.152 130.764 457.712 131.564 457.372 132.404C457.032 133.244 456.762 134.124 456.592 134.984C456.422 135.884 456.362 136.654 456.402 137.284C456.462 137.914 456.642 138.404 456.932 138.734C457.222 139.064 457.652 139.204 458.162 139.214C458.702 139.194 459.362 138.994 460.162 138.584C460.962 138.174 461.672 137.684 462.322 137.094C462.972 136.484 463.552 135.834 464.042 135.104C464.532 134.374 464.932 133.594 465.262 132.764C465.602 131.944 465.852 131.074 466.022 130.174C466.192 129.314 466.232 128.544 466.172 127.914Z" fill="white"/>
<path d="M490.732 125.944L494.352 112.424L487.432 115.254L483.812 128.774L482.072 129.484L486.172 114.164L496.562 109.914L492.462 125.224L490.732 125.944Z" fill="white"/>
<path d="M511.212 104.944C511.632 105.014 511.962 105.174 512.182 105.444C512.392 105.724 512.492 106.114 512.482 106.624C512.482 107.124 512.362 107.714 512.142 108.404C511.922 109.104 511.662 109.734 511.302 110.364C510.962 110.984 510.572 111.544 510.112 112.054C509.642 112.584 509.122 113.034 508.562 113.424C507.982 113.814 507.342 114.134 506.632 114.374L502.982 115.634L500.952 122.114L499.252 122.704L504.132 107.094L509.482 105.254C510.202 104.994 510.772 104.904 511.212 104.944ZM509.192 111.244C509.752 110.624 510.152 109.884 510.432 108.994C510.712 108.104 510.722 107.494 510.472 107.154C510.222 106.834 509.642 106.814 508.742 107.124L505.272 108.314L503.562 113.794L507.042 112.604C507.932 112.294 508.662 111.834 509.192 111.244Z" fill="white"/>
<path d="M528.492 108.474C528.142 109.184 527.762 109.874 527.312 110.554C526.862 111.234 526.402 111.874 525.882 112.494C525.362 113.114 524.802 113.684 524.222 114.184C523.632 114.704 523.022 115.154 522.372 115.524C521.722 115.904 521.062 116.184 520.372 116.374C519.702 116.554 519.102 116.624 518.612 116.554C518.142 116.484 517.732 116.314 517.422 116.044C517.122 115.784 516.892 115.434 516.752 114.994C516.592 114.554 516.522 114.064 516.542 113.494C516.542 112.934 516.612 112.344 516.732 111.684C516.862 111.054 517.062 110.384 517.302 109.694C517.742 108.454 518.282 107.314 518.922 106.204C519.562 105.114 520.272 104.124 521.032 103.254C521.812 102.384 522.652 101.634 523.542 101.034C524.452 100.404 525.372 99.9741 526.322 99.7141C527.272 99.4541 528.062 99.4141 528.652 99.6341C529.272 99.8241 529.682 100.224 529.942 100.814C530.202 101.404 530.262 102.184 530.172 103.124C530.072 104.084 529.822 105.154 529.382 106.394C529.152 107.074 528.852 107.774 528.492 108.474ZM528.372 104.324C528.462 103.584 528.422 102.974 528.262 102.504C528.092 102.034 527.782 101.724 527.352 101.554C526.922 101.374 526.352 101.384 525.662 101.574C524.972 101.764 524.292 102.084 523.622 102.574C522.972 103.034 522.352 103.594 521.782 104.274C521.192 104.954 520.662 105.714 520.182 106.564C519.712 107.414 519.292 108.324 518.952 109.254C518.602 110.224 518.372 111.084 518.272 111.814C518.182 112.554 518.212 113.164 518.362 113.644C518.522 114.124 518.832 114.414 519.252 114.594C519.692 114.754 520.282 114.734 521.022 114.534C521.762 114.334 522.462 114.004 523.122 113.544C523.792 113.064 524.412 112.514 524.982 111.844C525.552 111.174 526.052 110.414 526.512 109.574C526.982 108.744 527.382 107.844 527.732 106.874C528.072 105.914 528.282 105.064 528.372 104.324Z" fill="white"/>
<path d="M539.602 98.5441L533.972 112.694L532.362 113.024L538.742 96.9941L545.822 95.5441L545.072 97.4141L539.602 98.5441Z" fill="white"/>
<path d="M558.332 93.9341C558.682 94.1141 558.932 94.3841 559.072 94.7441C559.202 95.1041 559.222 95.5741 559.112 96.1341C559.022 96.6941 558.812 97.3141 558.502 98.0341C558.192 98.7541 557.852 99.3941 557.432 99.9941C557.032 100.594 556.592 101.124 556.102 101.574C555.612 102.044 555.082 102.414 554.522 102.694C553.952 102.984 553.352 103.174 552.702 103.264L549.352 103.724L546.442 110.424L544.882 110.634L551.892 94.5041L556.812 93.8341C557.452 93.7341 557.952 93.7741 558.332 93.9341ZM555.462 100.434C556.052 99.8841 556.532 99.1641 556.932 98.2441C557.332 97.3241 557.452 96.6541 557.292 96.2041C557.142 95.7841 556.642 95.6141 555.812 95.7341L552.622 96.1741L550.162 101.834L553.352 101.394C554.182 101.284 554.892 100.954 555.462 100.434Z" fill="white"/>
<path d="M568.622 108.354L566.942 108.454L568.112 103.554L563.692 103.804L560.082 108.844L558.502 108.934L570.532 92.2441L572.352 92.1441L568.622 108.354ZM568.502 101.864L570.212 94.7641L564.892 102.064L568.502 101.864Z" fill="white"/>
<path d="M579.962 105.904L590.072 92.3841L592.132 92.4641L583.722 108.674L582.372 108.624L589.442 94.9841H589.412L579.322 108.514L577.882 108.464L581.932 94.7141H581.902L574.832 108.354L573.482 108.304L581.892 92.0941L583.952 92.1741L579.912 105.924L579.962 105.904Z" fill="white"/>
<path d="M595.482 107.354L606.032 94.2141L607.982 94.5141L598.842 110.654L597.572 110.464L605.262 96.8841H605.232L594.692 110.034L593.342 109.824L598.182 95.8141H598.152L590.462 109.394L589.192 109.204L598.332 93.0641L600.282 93.3641L595.452 107.384L595.482 107.354Z" fill="white"/>
<path d="M607.142 109.084L619.892 97.4641L621.362 97.8641L611.572 113.864L610.302 113.514L618.262 100.494L618.232 100.484L605.442 112.174L603.972 111.774L613.762 95.7741L615.032 96.1241L607.112 109.074L607.142 109.084Z" fill="white"/>
<path d="M631.532 102.044C631.722 102.424 631.812 102.854 631.792 103.344C631.772 103.834 631.622 104.394 631.362 105.004C631.112 105.624 630.752 106.264 630.292 106.964C629.832 107.674 629.382 108.264 628.872 108.794C628.382 109.324 627.892 109.734 627.402 110.034C626.892 110.354 626.392 110.544 625.902 110.624C625.402 110.704 624.902 110.644 624.412 110.444L621.862 109.414L617.562 115.974L616.372 115.494L626.722 99.6841L630.452 101.194C630.972 101.394 631.322 101.674 631.532 102.044ZM627.332 108.394C627.932 108.024 628.512 107.394 629.112 106.494C629.702 105.594 630.012 104.854 630.042 104.254C630.072 103.684 629.772 103.254 629.142 103.004L626.722 102.024L623.092 107.574L625.512 108.554C626.142 108.804 626.752 108.744 627.332 108.394Z" fill="white"/>
<path d="M638.852 118.574C638.312 119.204 637.772 119.774 637.202 120.304C636.632 120.824 636.062 121.294 635.482 121.694C634.902 122.094 634.322 122.404 633.762 122.604C633.192 122.824 632.652 122.944 632.122 122.954C631.592 122.964 631.102 122.844 630.652 122.584C630.202 122.334 629.862 121.994 629.632 121.564C629.422 121.144 629.292 120.654 629.262 120.094C629.232 119.564 629.292 118.964 629.432 118.324C629.572 117.674 629.782 117.014 630.062 116.324C630.342 115.634 630.672 114.944 631.062 114.234C631.452 113.544 631.882 112.854 632.352 112.184C633.202 110.974 634.052 109.934 634.942 109.024C635.822 108.134 636.692 107.414 637.522 106.874C638.362 106.354 639.182 106.024 639.942 105.904C640.732 105.774 641.432 105.894 642.062 106.244C642.692 106.594 643.122 107.104 643.332 107.794C643.562 108.464 643.582 109.254 643.422 110.164C643.262 111.074 642.912 112.074 642.392 113.174C641.862 114.294 641.192 115.424 640.342 116.644C639.892 117.314 639.382 117.964 638.852 118.574ZM640.862 113.364C641.282 112.514 641.562 111.734 641.712 111.034C641.852 110.334 641.852 109.724 641.712 109.224C641.572 108.694 641.272 108.314 640.812 108.064C640.352 107.814 639.842 107.734 639.242 107.854C638.672 107.964 638.062 108.224 637.432 108.654C636.782 109.074 636.122 109.644 635.452 110.354C634.782 111.064 634.102 111.894 633.472 112.804C632.802 113.754 632.252 114.654 631.842 115.474C631.422 116.324 631.132 117.094 630.982 117.794C630.832 118.494 630.852 119.074 630.972 119.594C631.122 120.104 631.442 120.484 631.932 120.764C632.422 121.034 632.952 121.124 633.532 121.024C634.122 120.904 634.722 120.664 635.352 120.234C635.982 119.804 636.632 119.224 637.292 118.514C637.952 117.824 638.612 116.994 639.282 116.034C639.902 115.124 640.442 114.214 640.862 113.364Z" fill="white"/>
<path d="M653.442 114.254C653.632 114.454 653.792 114.674 653.912 114.934C654.012 115.174 654.082 115.454 654.102 115.764C654.112 116.074 654.062 116.424 653.962 116.814C653.862 117.204 653.692 117.634 653.482 118.074C653.242 118.524 652.952 119.004 652.572 119.514C652.382 119.774 652.142 120.054 651.882 120.324C651.622 120.594 651.342 120.844 651.052 121.094C650.742 121.334 650.442 121.534 650.132 121.674C649.802 121.854 649.502 121.934 649.182 121.964C649.262 122.184 649.302 122.454 649.332 122.734C649.342 123.044 649.322 123.384 649.232 123.784C649.132 124.174 648.972 124.614 648.762 125.084C648.532 125.574 648.192 126.114 647.762 126.684C647.512 127.024 647.232 127.344 646.952 127.664C646.622 128.014 646.312 128.304 645.982 128.564C645.632 128.834 645.282 129.064 644.922 129.264C644.562 129.464 644.202 129.594 643.862 129.664C643.492 129.754 643.142 129.754 642.792 129.704C642.442 129.644 642.102 129.494 641.782 129.254L638.612 126.914L650.002 111.674L652.692 113.664C652.992 113.854 653.232 114.074 653.442 114.254ZM648.982 120.674C649.272 120.694 649.572 120.614 649.852 120.494C650.112 120.354 650.382 120.154 650.642 119.894C650.892 119.624 651.152 119.314 651.412 118.974C651.682 118.614 651.902 118.284 652.052 117.964C652.192 117.644 652.282 117.344 652.302 117.064C652.342 116.764 652.292 116.494 652.152 116.264C652.032 116.014 651.842 115.774 651.562 115.564L649.692 114.184L646.172 118.894L648.042 120.274C648.372 120.524 648.672 120.654 648.982 120.674ZM643.942 127.764C644.252 127.804 644.562 127.764 644.902 127.614C645.192 127.504 645.512 127.274 645.812 127.004C646.112 126.734 646.412 126.394 646.712 125.994C647.012 125.594 647.252 125.204 647.432 124.844C647.612 124.484 647.732 124.114 647.772 123.774C647.802 123.434 647.752 123.134 647.622 122.844C647.492 122.544 647.262 122.284 646.942 122.044L644.922 120.554L640.952 125.864L642.972 127.354C643.302 127.584 643.622 127.724 643.942 127.764Z" fill="white"/>
<path d="M653.402 139.354L652.392 138.394L655.292 133.154L652.622 130.624L648.242 134.464L647.282 133.554L661.832 120.864L662.932 121.904L653.402 139.354ZM656.292 131.334L660.512 123.744L654.112 129.264L656.292 131.334Z" fill="white"/>
<path d="M667.452 138.834L672.492 132.874L673.302 133.854L661.092 148.304L660.282 147.324L666.032 140.524L662.802 136.614L657.052 143.414L656.242 142.434L668.452 127.984L669.262 128.964L664.222 134.924L667.452 138.834Z" fill="white"/>
<path d="M667.182 150.874L680.042 143.774L680.862 145.044L668.292 159.004L667.582 157.904L677.802 146.554L677.792 146.534L664.882 153.694L664.062 152.424L676.632 138.464L677.342 139.564L667.172 150.854L667.182 150.874Z" fill="white"/>
<path d="M679.402 158.704C680.322 157.814 681.212 157.084 682.052 156.544C682.882 155.984 683.652 155.634 684.352 155.454C685.042 155.274 685.662 155.284 686.202 155.514C686.732 155.734 687.152 156.174 687.472 156.844C687.802 157.554 687.942 158.344 687.852 159.244C687.792 160.134 687.532 161.064 687.122 162.054C686.702 163.044 686.112 164.054 685.372 165.104C684.622 166.174 683.762 167.184 682.752 168.224C682.192 168.804 681.622 169.334 681.052 169.834C680.462 170.334 679.882 170.754 679.302 171.124C678.722 171.494 678.162 171.784 677.622 171.994C677.072 172.194 676.562 172.304 676.102 172.294C675.622 172.304 675.202 172.194 674.822 171.964C674.442 171.724 674.132 171.354 673.892 170.854C673.662 170.374 673.532 169.864 673.512 169.314C673.472 168.764 673.532 168.174 673.662 167.594C673.782 167.004 673.972 166.394 674.242 165.764C674.512 165.144 674.822 164.514 675.202 163.894C675.562 163.254 675.982 162.654 676.432 162.024C676.892 161.414 677.362 160.834 677.872 160.264L677.182 158.814L671.462 164.724L670.882 163.494L683.802 150.164L684.382 151.394L678.692 157.264L679.402 158.704ZM684.202 164.584C684.772 163.764 685.232 162.984 685.572 162.224C685.912 161.474 686.112 160.764 686.182 160.124C686.262 159.444 686.182 158.884 685.962 158.404C685.732 157.914 685.402 157.604 684.942 157.504C684.512 157.374 683.992 157.414 683.392 157.624C682.792 157.834 682.142 158.204 681.432 158.734C680.712 159.244 679.952 159.914 679.202 160.694C678.412 161.514 677.722 162.334 677.172 163.134C676.602 163.954 676.132 164.734 675.802 165.504C675.462 166.254 675.282 166.944 675.192 167.604C675.112 168.234 675.202 168.804 675.422 169.274C675.682 169.824 676.032 170.174 676.472 170.294C676.932 170.414 677.422 170.384 678.012 170.154C678.602 169.924 679.252 169.544 679.952 168.994C680.632 168.464 681.382 167.784 682.182 166.964C682.932 166.194 683.622 165.394 684.202 164.584Z" fill="white"/>
<path d="M695.702 181.044L696.272 183.014L689.642 183.604L683.012 195.454L682.492 193.654L688.122 183.734L685.562 183.954L680.932 188.244L680.522 186.834L693.812 174.514L694.222 175.924L687.742 181.934L695.702 181.044Z" fill="white"/>
<path d="M686.002 200.104C685.962 200.244 685.942 200.374 685.912 200.534L685.872 200.974C685.872 201.104 685.882 201.224 685.902 201.334C685.942 201.554 686.022 201.724 686.132 201.834C686.242 201.924 686.362 201.984 686.512 201.994C686.662 201.994 686.822 201.984 687.002 201.914C687.182 201.844 687.362 201.744 687.542 201.644L697.392 187.674L697.742 189.424L689.572 200.884L699.052 195.954L699.392 197.644L688.622 202.864C687.912 203.184 687.292 203.454 686.782 203.654C686.252 203.854 685.832 203.964 685.482 203.974C685.132 203.984 684.852 203.894 684.652 203.694C684.442 203.514 684.312 203.184 684.222 202.744C684.172 202.514 684.172 202.254 684.202 201.974C684.232 201.694 684.292 201.434 684.382 201.224L686.122 199.714C686.082 199.834 686.042 199.964 686.002 200.104Z" fill="white"/>
<path d="M700.792 210.344C700.642 210.974 700.422 211.594 700.122 212.184C699.822 212.774 699.432 213.344 698.962 213.894C698.492 214.454 697.972 214.954 697.362 215.444C696.762 215.934 696.222 216.294 695.712 216.524C695.202 216.774 694.762 216.874 694.382 216.834C693.982 216.814 693.672 216.624 693.432 216.314C693.182 215.984 693.022 215.494 692.942 214.834L692.522 211.414L686.892 215.984L686.702 214.394L700.262 203.394L700.872 208.404C700.952 209.074 700.922 209.714 700.792 210.344ZM695.332 214.724C695.792 214.764 696.402 214.474 697.172 213.844C697.942 213.214 698.512 212.554 698.882 211.844C699.232 211.154 699.372 210.374 699.262 209.524L698.872 206.274L694.112 210.134L694.502 213.384C694.602 214.234 694.892 214.684 695.332 214.724Z" fill="white"/>
<path d="M692.892 227.404C692.222 228.114 691.642 228.834 691.192 229.554C690.712 230.294 690.382 231.004 690.142 231.704C689.902 232.414 689.792 233.074 689.822 233.684C689.852 234.224 689.962 234.624 690.212 234.894C690.442 235.154 690.722 235.324 691.082 235.364C691.462 235.404 691.852 235.364 692.272 235.244C692.712 235.094 693.162 234.904 693.622 234.614L693.702 236.244C693.302 236.514 692.902 236.734 692.472 236.934C692.052 237.104 691.642 237.254 691.252 237.324C690.862 237.404 690.492 237.424 690.132 237.384C689.772 237.364 689.452 237.254 689.172 237.074C688.902 236.874 688.682 236.614 688.522 236.244C688.352 235.904 688.242 235.454 688.222 234.894C688.202 234.504 688.222 234.074 688.292 233.574C688.342 233.084 688.472 232.524 688.662 231.954C688.832 231.374 689.092 230.754 689.412 230.094C689.732 229.434 690.152 228.754 690.652 228.074C691.152 227.394 691.762 226.674 692.462 225.974C693.152 225.254 693.982 224.534 694.912 223.834C695.822 223.144 696.662 222.604 697.392 222.224C698.122 221.834 698.762 221.594 699.322 221.464C699.872 221.344 700.342 221.334 700.742 221.434C701.142 221.514 701.462 221.694 701.732 221.944C701.982 222.214 702.172 222.534 702.312 222.904C702.432 223.304 702.512 223.734 702.532 224.194C702.562 224.774 702.512 225.354 702.422 225.894C702.312 226.464 702.162 227.014 701.972 227.554C701.762 228.094 701.512 228.604 701.242 229.104C700.972 229.594 700.682 230.074 700.362 230.504C700.052 230.944 699.712 231.334 699.382 231.694C699.042 232.054 698.722 232.364 698.402 232.624L698.322 230.984C698.752 230.554 699.142 230.094 699.472 229.624C699.802 229.154 700.092 228.684 700.302 228.194C700.512 227.724 700.692 227.254 700.802 226.784C700.902 226.314 700.952 225.854 700.932 225.434C700.902 224.784 700.742 224.314 700.452 223.984C700.182 223.664 699.782 223.494 699.282 223.484C698.772 223.484 698.182 223.614 697.492 223.944C696.802 224.264 696.012 224.744 695.182 225.374C694.332 226.004 693.562 226.694 692.892 227.404Z" fill="white"/>
<path d="M696.812 245.994C696.792 246.784 696.682 247.534 696.482 248.254C696.282 248.974 696.002 249.634 695.652 250.244C695.302 250.864 694.872 251.434 694.382 251.954C693.882 252.474 693.332 252.944 692.702 253.374C692.092 253.794 691.542 254.074 691.072 254.224C690.582 254.384 690.152 254.404 689.822 254.284C689.492 254.164 689.212 253.924 689.042 253.534C688.862 253.144 688.782 252.604 688.802 251.944L688.942 246.214L702.572 236.844L702.532 238.614L696.912 242.474L696.812 245.994ZM690.482 251.534C690.572 251.784 690.692 251.954 690.882 252.054C691.062 252.144 691.312 252.164 691.612 252.084C691.912 252.004 692.292 251.794 692.742 251.484C693.202 251.174 693.582 250.854 693.882 250.514C694.192 250.154 694.442 249.784 694.652 249.404C694.832 249.024 694.972 248.624 695.072 248.204C695.152 247.784 695.202 247.354 695.212 246.904L695.292 243.554L690.472 246.864L690.382 250.604C690.382 250.974 690.412 251.274 690.482 251.534ZM688.642 257.914L702.272 248.544L702.232 250.314L688.602 259.684L688.642 257.914Z" fill="white"/>
<path d="M686.132 286.084L698.072 279.054L698.982 271.544L687.042 278.574L687.272 276.684L700.802 268.724L699.432 280.014L685.902 287.974L686.132 286.084Z" fill="white"/>
<path d="M687.412 306.214C686.852 306.394 686.352 306.494 685.872 306.504C685.392 306.514 684.962 306.464 684.582 306.314C684.202 306.164 683.892 305.904 683.672 305.534C683.432 305.184 683.272 304.724 683.202 304.154C683.132 303.584 683.172 302.894 683.312 302.084C683.452 301.294 683.682 300.484 683.982 299.724C684.282 298.974 684.652 298.224 685.082 297.524C685.492 296.854 685.962 296.174 686.482 295.554C687.002 294.914 687.542 294.334 688.112 293.814C688.682 293.274 689.252 292.804 689.852 292.364C690.432 291.944 691.022 291.584 691.602 291.284C692.642 290.734 693.552 290.404 694.372 290.274C695.172 290.144 695.832 290.224 696.342 290.494C696.852 290.784 697.202 291.284 697.382 291.974C697.582 292.684 697.572 293.594 697.372 294.714C697.172 295.834 696.822 296.934 696.322 298.004C695.832 299.074 695.212 300.064 694.492 300.994C693.772 301.924 692.942 302.764 692.032 303.544C691.102 304.334 690.142 304.984 689.092 305.534C688.512 305.824 687.952 306.064 687.412 306.214ZM691.702 302.064C692.412 301.484 693.052 300.834 693.612 300.154C694.172 299.454 694.642 298.704 695.022 297.934C695.412 297.134 695.672 296.334 695.822 295.524C695.962 294.714 695.962 294.044 695.802 293.544C695.652 293.054 695.372 292.694 694.972 292.524C694.562 292.334 694.052 292.294 693.422 292.414C692.792 292.534 692.062 292.814 691.282 293.224C690.462 293.654 689.702 294.144 689.012 294.694C688.302 295.274 687.662 295.904 687.102 296.584C686.542 297.264 686.092 298.004 685.702 298.784C685.322 299.574 685.062 300.394 684.912 301.264C684.762 302.144 684.752 302.824 684.902 303.334C685.062 303.834 685.322 304.204 685.732 304.374C686.142 304.544 686.662 304.544 687.302 304.404C687.912 304.284 688.642 303.994 689.462 303.564C690.222 303.154 690.992 302.634 691.702 302.064Z" fill="white"/>
<path d="M675.892 336.974L687.432 332.064L689.502 323.964L677.962 328.874L678.482 326.834L691.552 321.274L688.442 333.444L675.372 339.004L675.892 336.974Z" fill="white"/>
<path d="M683.002 351.354C682.622 352.034 682.222 352.644 681.772 353.164C681.332 353.694 680.842 354.134 680.322 354.494C679.792 354.874 679.272 355.144 678.692 355.354C678.122 355.564 677.652 355.654 677.252 355.604C676.842 355.574 676.542 355.414 676.352 355.124C676.132 354.834 676.042 354.404 676.052 353.864C676.062 353.304 676.192 352.594 676.452 351.734L677.792 347.274L672.472 349.194L673.102 347.114L685.912 342.494L683.942 349.034C683.682 349.894 683.372 350.654 683.002 351.354ZM677.872 353.144C678.112 353.504 678.592 353.534 679.332 353.274C680.062 353.014 680.692 352.574 681.232 351.934C681.752 351.324 682.182 350.454 682.522 349.344L683.802 345.104L679.312 346.724L678.032 350.964C677.682 352.074 677.642 352.804 677.872 353.144Z" fill="white"/>
<path d="M666.742 379.644C666.252 379.674 665.812 379.614 665.422 379.474C665.032 379.334 664.692 379.134 664.422 378.834C664.152 378.534 663.962 378.134 663.862 377.654C663.742 377.174 663.722 376.604 663.802 375.934C663.882 375.264 664.062 374.494 664.372 373.614C664.672 372.754 665.042 371.914 665.462 371.134C665.882 370.384 666.352 369.644 666.862 368.984C667.352 368.344 667.892 367.734 668.452 367.194C669.022 366.634 669.592 366.144 670.172 365.744C670.762 365.314 671.332 364.974 671.922 364.664C672.492 364.384 673.052 364.154 673.592 364.004C674.562 363.724 675.372 363.644 676.072 363.754C676.752 363.874 677.272 364.174 677.622 364.644C677.972 365.134 678.142 365.814 678.122 366.674C678.122 367.544 677.902 368.574 677.482 369.784C677.062 370.994 676.522 372.144 675.872 373.184C675.222 374.244 674.492 375.164 673.692 375.994C672.892 376.824 672.022 377.504 671.102 378.094C670.162 378.684 669.232 379.114 668.262 379.394C667.722 379.554 667.212 379.644 666.742 379.644ZM671.182 376.314C671.892 375.894 672.562 375.354 673.172 374.764C673.792 374.144 674.342 373.454 674.822 372.694C675.322 371.914 675.722 371.084 676.032 370.204C676.332 369.324 676.492 368.564 676.472 367.934C676.462 367.324 676.322 366.834 676.032 366.504C675.752 366.154 675.342 365.934 674.792 365.874C674.252 365.814 673.602 365.884 672.872 366.094C672.102 366.314 671.372 366.634 670.692 367.024C669.982 367.444 669.322 367.954 668.712 368.554C668.102 369.144 667.562 369.834 667.062 370.594C666.572 371.374 666.172 372.214 665.842 373.164C665.512 374.114 665.352 374.894 665.352 375.524C665.372 376.154 665.492 376.654 665.782 376.984C666.072 377.314 666.502 377.484 667.052 377.524C667.582 377.584 668.232 377.494 669.002 377.274C669.732 377.064 670.472 376.734 671.182 376.314Z" fill="white"/>
<path d="M669.062 388.574L658.332 390.984L659.162 388.844L671.312 386.114L667.682 395.504L666.262 395.824L669.062 388.574Z" fill="white"/>
<path d="M660.262 412.834C659.812 413.494 659.352 414.064 658.882 414.534C658.402 415.004 657.912 415.374 657.392 415.644C656.872 415.934 656.372 416.094 655.842 416.184C655.312 416.264 654.892 416.254 654.562 416.094C654.222 415.964 653.992 415.704 653.872 415.324C653.742 414.944 653.742 414.444 653.842 413.844C653.952 413.214 654.192 412.474 654.572 411.574L656.532 406.954L651.632 407.724L652.542 405.574L664.342 403.724L661.472 410.504C661.102 411.384 660.702 412.154 660.262 412.834ZM655.542 413.514C655.682 413.974 656.092 414.144 656.762 414.034C657.432 413.924 658.052 413.604 658.632 413.024C659.182 412.474 659.722 411.614 660.202 410.474L662.062 406.074L657.922 406.724L656.062 411.124C655.572 412.274 655.402 413.074 655.542 413.514Z" fill="white"/>
<path d="M637.672 439.024L638.792 436.614L643.072 434.624L646.022 428.264L643.372 426.734L644.432 424.454L653.172 429.604L651.962 432.224L637.672 439.024ZM644.562 433.914L650.762 431.054L646.972 428.724L644.562 433.914Z" fill="white"/>
<path d="M632.002 453.934L638.812 458.644L637.232 461.764L626.362 461.614L627.392 459.584L636.532 459.704L636.552 459.654L629.722 454.974L630.822 452.804L642.282 448.364L642.302 448.314L633.162 448.194L634.192 446.164L645.062 446.314L643.482 449.434L632.012 453.894L632.002 453.934Z" fill="white"/>
<path d="M619.192 478.044L625.292 483.684L623.572 486.794L613.302 485.524L614.422 483.494L623.062 484.564L623.092 484.514L616.982 478.894L618.182 476.734L629.342 473.254L629.362 473.214L620.722 472.144L621.842 470.114L632.112 471.384L630.392 474.494L619.222 477.994L619.192 478.044Z" fill="white"/>
<path d="M608.902 496.644L611.812 506.694L610.322 509.174L600.672 506.834L601.962 504.694L609.812 506.604L609.842 506.554L606.892 496.494L608.382 494.014L618.032 496.364L616.742 498.504L608.932 496.604L608.902 496.644Z" fill="white"/>
<path d="M598.542 527.434C598.002 528.004 597.492 528.464 596.992 528.804C596.492 529.144 596.022 529.344 595.562 529.424C595.092 529.524 594.682 529.484 594.282 529.334C593.882 529.184 593.582 528.964 593.392 528.634C593.192 528.314 593.112 527.904 593.162 527.404C593.192 526.894 593.362 526.304 593.632 525.634C593.922 524.944 594.342 524.174 594.912 523.284L597.842 518.734L594.092 517.354L595.452 515.234L604.492 518.554L600.202 525.234C599.622 526.104 599.082 526.834 598.542 527.434ZM594.942 526.024C594.892 526.634 595.122 527.024 595.642 527.214C596.162 527.404 596.702 527.304 597.312 526.894C597.892 526.504 598.552 525.734 599.282 524.614L602.072 520.284L598.902 519.114L596.112 523.444C595.382 524.574 594.992 525.444 594.942 526.024Z" fill="white"/>
<path d="M575.892 550.844C575.622 550.524 575.412 550.154 575.282 549.704C575.152 549.254 575.072 548.774 575.072 548.214C575.072 547.654 575.172 547.024 575.362 546.364C575.542 545.694 575.812 544.974 576.192 544.194C576.572 543.414 577.052 542.604 577.652 541.734C578.232 540.884 578.852 540.114 579.462 539.454C580.062 538.814 580.672 538.244 581.272 537.794C581.842 537.354 582.432 536.974 583.002 536.704C583.582 536.414 584.122 536.224 584.632 536.124C585.152 536.014 585.632 535.984 586.092 536.024C586.532 536.074 586.942 536.194 587.302 536.384C587.952 536.724 588.422 537.194 588.732 537.824C589.032 538.444 589.152 539.194 589.102 540.024C589.042 540.874 588.792 541.834 588.352 542.884C587.912 543.954 587.282 545.074 586.462 546.274C585.642 547.474 584.782 548.504 583.922 549.324C583.052 550.174 582.212 550.804 581.372 551.254C580.542 551.704 579.742 551.944 578.962 552.024C578.172 552.094 577.472 551.964 576.812 551.624C576.462 551.424 576.142 551.174 575.892 550.844ZM579.892 549.864C580.472 549.844 581.092 549.654 581.712 549.354C582.342 549.034 582.982 548.564 583.612 547.974C584.262 547.364 584.892 546.624 585.482 545.754C586.082 544.884 586.542 544.054 586.842 543.274C587.142 542.514 587.312 541.804 587.322 541.194C587.352 540.554 587.242 540.004 586.982 539.544C586.722 539.084 586.352 538.714 585.862 538.464C585.352 538.204 584.802 538.064 584.252 538.074C583.672 538.094 583.062 538.264 582.452 538.564C581.832 538.864 581.212 539.334 580.572 539.924C579.932 540.534 579.292 541.304 578.652 542.234C578.012 543.174 577.532 544.014 577.222 544.794C576.922 545.584 576.732 546.284 576.722 546.894C576.712 547.504 576.852 548.024 577.122 548.454C577.362 548.904 577.762 549.254 578.272 549.514C578.752 549.774 579.302 549.884 579.892 549.864Z" fill="white"/>
<path d="M569.812 569.164C569.462 569.594 569.112 570.004 568.762 570.374C568.442 570.704 568.102 571.014 567.752 571.284C567.422 571.534 567.092 571.724 566.752 571.884C566.412 572.034 566.092 572.104 565.792 572.124C565.492 572.114 565.212 572.044 564.952 571.864C564.822 571.774 564.702 571.634 564.602 571.464C564.512 571.274 564.442 571.064 564.402 570.814C564.382 570.544 564.382 570.254 564.462 569.894C564.512 569.544 564.652 569.154 564.842 568.714C564.552 568.994 564.242 569.264 563.922 569.524C563.592 569.774 563.252 569.994 562.902 570.174C562.562 570.324 562.222 570.414 561.882 570.464C561.542 570.484 561.222 570.394 560.932 570.194C560.762 570.074 560.622 569.914 560.492 569.734C560.362 569.514 560.282 569.274 560.252 568.984C560.222 568.674 560.232 568.324 560.292 567.944C560.342 567.564 560.472 567.134 560.642 566.674C560.822 566.184 561.062 565.684 561.382 565.124C561.692 564.564 562.102 563.944 562.592 563.284L567.342 556.814L575.022 562.114L570.992 567.594C570.552 568.194 570.152 568.724 569.812 569.164ZM562.562 565.364C562.292 565.854 562.112 566.274 562.022 566.664C561.922 567.014 561.932 567.314 562.002 567.554C562.072 567.794 562.202 567.984 562.402 568.124C562.602 568.264 562.832 568.324 563.092 568.304C563.342 568.284 563.642 568.194 563.962 568.004C564.302 567.784 564.652 567.484 565.042 567.074C565.452 566.644 565.892 566.114 566.382 565.454L569.412 561.334L566.732 559.494L563.702 563.614C563.222 564.264 562.842 564.844 562.562 565.364ZM566.322 567.434C566.092 567.884 565.952 568.274 565.882 568.574C565.832 568.864 565.852 569.104 565.942 569.284C566.042 569.454 566.172 569.604 566.342 569.724C566.522 569.854 566.712 569.914 566.932 569.904C567.162 569.874 567.412 569.784 567.692 569.594C567.972 569.434 568.302 569.144 568.642 568.764C568.992 568.394 569.382 567.924 569.812 567.354L572.622 563.534L570.242 561.894L567.432 565.714C566.932 566.414 566.572 566.964 566.322 567.434Z" fill="white"/>
<path d="M543.532 588.194L545.272 585.964L548.652 586.284L553.252 580.404L552.412 576.834L554.062 574.724L556.782 586.634L554.892 589.054L543.532 588.194ZM549.842 586.374L554.732 586.854L553.592 581.574L549.842 586.374Z" fill="white"/>
<path d="M533.882 608.594L536.462 611.524L534.842 613.474L528.582 606.354L530.202 604.404L533.152 607.754L539.602 600.004L536.652 596.654L538.272 594.704L544.532 601.824L542.912 603.774L540.332 600.834L533.882 608.594Z" fill="white"/>
<path d="M521.452 617.354L519.542 631.004L517.612 633.184L512.132 625.164L513.802 623.284L518.262 629.804L518.302 629.764L520.192 616.074L522.122 613.894L527.602 621.914L525.932 623.794L521.492 617.304L521.452 617.354Z" fill="white"/>
<path d="M504.352 641.424C504.622 642.104 504.732 642.874 504.692 643.704C504.672 644.514 504.482 645.394 504.162 646.284C503.842 647.174 503.382 648.104 502.752 649.074C502.142 650.024 501.362 650.994 500.432 651.964C499.452 652.994 498.512 653.804 497.642 654.354C496.762 654.934 495.962 655.264 495.232 655.394C494.502 655.524 493.872 655.414 493.312 655.124C492.742 654.814 492.302 654.324 491.942 653.614C491.742 653.224 491.602 652.784 491.502 652.314C491.412 651.814 491.392 651.284 491.422 650.704C491.462 650.124 491.562 649.524 491.732 648.884C491.922 648.224 492.182 647.544 492.512 646.864C492.842 646.164 493.272 645.444 493.782 644.724C494.312 643.974 494.922 643.244 495.622 642.504C496.282 641.814 496.922 641.224 497.512 640.774C498.122 640.294 498.682 639.944 499.212 639.684C499.732 639.424 500.242 639.234 500.702 639.164C501.162 639.094 501.592 639.074 501.962 639.164C502.372 639.214 502.702 639.374 503.022 639.574C503.322 639.794 503.592 640.054 503.812 640.374L505.832 638.254L503.802 634.264L505.522 632.464L510.102 641.474L508.382 643.274L506.362 639.314L504.352 641.424ZM494.702 652.994C495.142 653.224 495.632 653.304 496.172 653.244C496.712 653.174 497.302 652.934 497.932 652.554C498.582 652.164 499.232 651.614 499.892 650.914C500.572 650.204 501.132 649.474 501.572 648.724C502.022 647.984 502.352 647.244 502.562 646.524C502.772 645.804 502.862 645.114 502.822 644.454C502.802 643.774 502.662 643.164 502.392 642.634C502.112 642.084 501.752 641.694 501.312 641.474C500.872 641.244 500.382 641.164 499.822 641.244C499.282 641.314 498.692 641.564 498.062 641.934C497.452 642.304 496.802 642.854 496.142 643.544C495.372 644.354 494.752 645.134 494.312 645.874C493.852 646.644 493.532 647.354 493.332 648.054C493.142 648.754 493.072 649.424 493.142 650.044C493.202 650.654 493.372 651.244 493.652 651.804C493.932 652.344 494.282 652.744 494.702 652.994Z" fill="white"/>
<path d="M466.952 684.074L464.462 686.344L468.882 676.944L461.492 675.744L463.782 673.664L469.902 674.794L471.622 671.154L470.642 667.414L472.422 665.784L475.242 676.514L473.462 678.144L472.082 672.914L466.952 684.074Z" fill="white"/>
<path d="M454.342 683.574C454.222 683.624 454.102 683.684 453.962 683.754L453.532 684.014C453.402 684.114 453.262 684.204 453.132 684.324C452.872 684.544 452.632 684.784 452.432 685.024C452.252 685.244 452.102 685.474 451.972 685.714C451.862 685.934 451.752 686.164 451.682 686.384C451.612 686.604 451.582 686.794 451.552 686.994L458.692 691.434L456.592 693.224L450.802 689.444L448.762 699.904L446.732 701.634L449.442 689.484C449.642 688.674 449.842 687.934 450.012 687.334C450.202 686.694 450.412 686.154 450.662 685.644C450.912 685.134 451.222 684.654 451.572 684.224C451.922 683.774 452.372 683.344 452.892 682.894C453.172 682.654 453.442 682.464 453.712 682.304C453.982 682.144 454.202 682.044 454.352 682.034L454.612 683.514C454.562 683.494 454.462 683.524 454.342 683.574Z" fill="white"/>
<path d="M432.372 712.934C431.822 713.174 431.342 713.294 430.952 713.274C430.562 713.254 430.262 713.094 430.042 712.794C429.812 712.504 429.682 712.094 429.632 711.554C429.582 711.014 429.602 710.484 429.752 709.894C429.882 709.324 430.102 708.744 430.432 708.154C430.762 707.544 431.192 706.954 431.702 706.364C432.232 705.754 432.872 705.164 433.622 704.564L437.522 701.464L437.012 696.444L438.832 695.004L440.052 707.094L434.342 711.634C433.582 712.244 432.932 712.664 432.372 712.934ZM431.932 708.024C431.532 708.744 431.382 709.424 431.452 710.114C431.522 710.804 431.782 711.164 432.252 711.184C432.702 711.204 433.422 710.834 434.382 710.064L438.092 707.114L437.662 702.874L433.952 705.824C432.992 706.594 432.312 707.334 431.932 708.024Z" fill="white"/>
<path d="M420.522 713.614C420.292 713.134 419.972 712.804 419.562 712.654C419.152 712.484 418.662 712.504 418.102 712.654C417.542 712.804 416.932 713.134 416.272 713.624C415.682 714.054 415.172 714.524 414.702 715.084C414.252 715.614 413.862 716.154 413.552 716.714C413.222 717.304 412.962 717.854 412.772 718.394C412.592 718.944 412.452 719.464 412.412 719.924L410.642 721.224C410.672 720.824 410.732 720.394 410.852 719.904C410.992 719.404 411.152 718.904 411.372 718.384C411.592 717.864 411.842 717.324 412.162 716.774C412.452 716.234 412.812 715.684 413.222 715.124C413.632 714.584 414.082 714.054 414.592 713.554C415.082 713.044 415.632 712.574 416.232 712.124C416.652 711.814 417.092 711.534 417.562 711.264C418.042 710.984 418.522 710.774 418.982 710.634C419.462 710.464 419.902 710.404 420.352 710.404C420.802 710.404 421.192 710.534 421.532 710.774C421.872 711.014 422.152 711.404 422.362 711.924C422.592 712.424 422.712 713.134 422.732 714.004C422.762 714.854 422.692 715.704 422.542 716.504C422.392 717.304 422.162 718.074 421.872 718.814C421.582 719.534 421.232 720.224 420.832 720.884C420.442 721.534 420.012 722.134 419.552 722.714C419.082 723.274 418.592 723.804 418.102 724.274C417.592 724.744 417.082 725.174 416.592 725.534C415.962 725.994 415.392 726.344 414.892 726.604C414.372 726.854 413.912 727.034 413.492 727.144C413.082 727.224 412.742 727.224 412.422 727.184C412.112 727.144 411.832 727.054 411.622 726.904C411.402 726.754 411.242 726.554 411.122 726.314C411.002 726.084 410.912 725.834 410.882 725.544L412.662 724.234C412.792 724.554 412.972 724.804 413.212 724.954C413.452 725.104 413.722 725.194 414.072 725.154C414.402 725.124 414.772 725.044 415.172 724.874C415.592 724.674 416.032 724.424 416.482 724.084C417.182 723.564 417.812 722.984 418.372 722.314C418.912 721.674 419.402 720.964 419.782 720.224C420.162 719.474 420.472 718.704 420.662 717.904C420.852 717.104 420.942 716.304 420.922 715.524C420.882 714.744 420.752 714.104 420.522 713.614Z" fill="white"/>
<path d="M391.772 729.514L391.232 742.894L389.412 744.114L389.952 730.734L391.772 729.514ZM398.052 732.944C397.232 733.494 396.542 733.874 395.942 734.094C395.342 734.314 394.862 734.384 394.492 734.304C394.112 734.234 393.842 734.014 393.662 733.664C393.492 733.304 393.422 732.834 393.442 732.214C393.462 731.614 393.582 731.014 393.792 730.414C394.002 729.804 394.302 729.184 394.672 728.604C395.042 728.024 395.512 727.444 396.052 726.894C396.592 726.354 397.222 725.834 397.902 725.374L403.802 721.414L403.262 734.794L401.442 736.014L401.662 730.494L398.052 732.944ZM397.052 727.604C396.722 727.914 396.452 728.224 396.202 728.574C395.972 728.914 395.772 729.284 395.622 729.674C395.482 730.064 395.402 730.474 395.392 730.924C395.372 731.374 395.412 731.704 395.542 731.914C395.682 732.114 395.882 732.214 396.122 732.254C396.382 732.244 396.702 732.154 397.052 732.004C397.432 731.824 397.842 731.584 398.302 731.274L401.752 728.954L401.942 724.224L398.092 726.814C397.722 727.044 397.382 727.314 397.052 727.604Z" fill="white"/>
<path d="M364.182 746.264L362.482 758.844L369.662 754.724L371.362 742.144L373.162 741.114L371.232 755.364L360.442 761.544L362.372 747.294L364.182 746.264Z" fill="white"/>
<path d="M342.092 762.814C342.322 762.124 342.602 761.444 342.952 760.744C343.302 760.044 343.682 759.374 344.132 758.704C344.582 758.034 345.092 757.384 345.642 756.794C346.192 756.174 346.792 755.614 347.442 755.104C348.092 754.584 348.782 754.144 349.522 753.764C350.242 753.394 350.912 753.144 351.492 753.034C352.042 752.934 352.552 752.944 352.962 753.064C353.362 753.174 353.702 753.394 353.962 753.704C354.242 754.004 354.432 754.384 354.552 754.854C354.682 755.304 354.742 755.814 354.752 756.384C354.742 756.944 354.682 757.554 354.562 758.184C354.342 759.334 354.002 760.434 353.522 761.544C353.042 762.634 352.462 763.674 351.792 764.624C351.102 765.584 350.312 766.464 349.452 767.244C348.562 768.054 347.612 768.694 346.592 769.214C345.572 769.734 344.672 770.024 343.952 770.044C343.202 770.094 342.642 769.894 342.212 769.504C341.782 769.114 341.532 768.504 341.412 767.704C341.302 766.894 341.342 765.944 341.562 764.794C341.672 764.154 341.852 763.494 342.092 762.814ZM343.192 766.144C343.252 766.774 343.452 767.254 343.742 767.584C344.052 767.904 344.472 768.064 344.992 768.054C345.532 768.064 346.172 767.864 346.912 767.484C347.652 767.104 348.352 766.624 349.002 766.014C349.632 765.434 350.212 764.764 350.702 764.034C351.212 763.294 351.652 762.494 351.992 761.654C352.342 760.814 352.602 759.934 352.772 759.074C352.942 758.174 353.002 757.404 352.962 756.774C352.902 756.144 352.722 755.654 352.432 755.324C352.142 754.994 351.712 754.854 351.202 754.844C350.662 754.864 350.002 755.064 349.202 755.474C348.402 755.884 347.692 756.374 347.042 756.964C346.392 757.574 345.812 758.224 345.322 758.954C344.832 759.684 344.432 760.464 344.102 761.294C343.762 762.114 343.512 762.984 343.342 763.884C343.172 764.744 343.122 765.504 343.192 766.144Z" fill="white"/>
<path d="M318.622 768.114L315.002 781.634L321.922 778.804L325.542 765.284L327.282 764.574L323.182 779.894L312.792 784.144L316.892 768.834L318.622 768.114Z" fill="white"/>
<path d="M298.142 789.114C297.722 789.044 297.392 788.884 297.172 788.614C296.962 788.334 296.862 787.944 296.872 787.434C296.872 786.934 296.992 786.344 297.212 785.654C297.432 784.954 297.692 784.324 298.052 783.694C298.392 783.074 298.782 782.514 299.242 782.004C299.712 781.474 300.232 781.024 300.792 780.634C301.372 780.244 302.012 779.924 302.722 779.684L306.372 778.424L308.402 771.944L310.102 771.364L305.222 786.974L299.872 788.814C299.162 789.054 298.592 789.154 298.142 789.114ZM300.162 782.814C299.602 783.434 299.202 784.174 298.922 785.064C298.642 785.954 298.632 786.564 298.882 786.904C299.132 787.224 299.712 787.244 300.612 786.924L304.082 785.734L305.792 780.254L302.312 781.444C301.422 781.754 300.692 782.214 300.162 782.814Z" fill="white"/>
<path d="M280.862 785.584C281.212 784.874 281.592 784.184 282.042 783.504C282.492 782.824 282.952 782.184 283.472 781.564C283.992 780.944 284.552 780.374 285.132 779.874C285.722 779.354 286.332 778.904 286.982 778.534C287.632 778.154 288.292 777.874 288.982 777.684C289.652 777.504 290.252 777.434 290.742 777.504C291.212 777.574 291.622 777.744 291.932 778.014C292.232 778.274 292.462 778.624 292.602 779.064C292.762 779.504 292.832 779.994 292.812 780.564C292.812 781.124 292.742 781.724 292.622 782.374C292.492 783.004 292.292 783.674 292.052 784.364C291.612 785.604 291.072 786.744 290.432 787.854C289.792 788.944 289.082 789.934 288.322 790.804C287.542 791.674 286.702 792.424 285.812 793.024C284.902 793.654 283.982 794.084 283.032 794.344C282.082 794.604 281.292 794.644 280.702 794.424C280.082 794.234 279.672 793.834 279.412 793.244C279.152 792.654 279.092 791.874 279.182 790.934C279.272 789.974 279.532 788.904 279.972 787.664C280.212 786.974 280.502 786.274 280.862 785.584ZM280.982 789.734C280.892 790.474 280.932 791.084 281.092 791.554C281.262 792.024 281.572 792.334 282.002 792.504C282.432 792.684 283.002 792.674 283.692 792.484C284.382 792.294 285.062 791.974 285.732 791.484C286.382 791.034 287.002 790.464 287.572 789.784C288.162 789.104 288.692 788.344 289.172 787.494C289.642 786.644 290.062 785.734 290.402 784.804C290.752 783.834 290.982 782.974 291.082 782.244C291.172 781.504 291.142 780.894 290.992 780.414C290.832 779.934 290.522 779.644 290.102 779.464C289.662 779.304 289.072 779.324 288.332 779.524C287.592 779.724 286.892 780.054 286.232 780.514C285.562 780.994 284.942 781.544 284.372 782.214C283.802 782.884 283.302 783.644 282.842 784.484C282.372 785.314 281.972 786.214 281.622 787.184C281.292 788.134 281.082 788.994 280.982 789.734Z" fill="white"/>
<path d="M269.762 795.504L275.392 781.354L277.002 781.024L270.622 797.054L263.542 798.504L264.292 796.634L269.762 795.504Z" fill="white"/>
<path d="M251.022 800.114C250.672 799.934 250.422 799.664 250.282 799.304C250.152 798.944 250.132 798.474 250.242 797.914C250.332 797.354 250.542 796.734 250.852 796.014C251.162 795.294 251.502 794.654 251.922 794.054C252.322 793.454 252.762 792.924 253.252 792.474C253.742 792.004 254.272 791.634 254.832 791.354C255.402 791.064 256.002 790.874 256.652 790.784L260.002 790.324L262.912 783.624L264.472 783.414L257.462 799.544L252.542 800.214C251.902 800.314 251.402 800.274 251.022 800.114ZM253.902 793.614C253.312 794.164 252.832 794.884 252.432 795.804C252.032 796.724 251.912 797.394 252.072 797.844C252.222 798.264 252.722 798.434 253.552 798.314L256.742 797.874L259.202 792.214L256.012 792.654C255.172 792.764 254.462 793.094 253.902 793.614Z" fill="white"/>
<path d="M240.742 785.694L242.422 785.594L241.252 790.494L245.672 790.244L249.282 785.204L250.862 785.114L238.832 801.804L237.012 801.904L240.742 785.694ZM240.862 792.184L239.152 799.284L244.472 791.984L240.862 792.184Z" fill="white"/>
<path d="M229.402 788.144L219.292 801.664L217.232 801.584L225.642 785.374L226.992 785.424L219.922 799.064H219.952L230.042 785.544L231.482 785.594L227.432 799.344H227.462L234.532 785.704L235.882 785.754L227.472 801.964L225.412 801.884L229.452 788.134L229.402 788.144Z" fill="white"/>
<path d="M213.872 786.694L203.322 799.834L201.372 799.534L210.512 783.394L211.782 783.584L204.092 797.164H204.122L214.662 784.034L216.012 784.244L211.172 798.254H211.202L218.892 784.674L220.162 784.864L211.022 801.004L209.072 800.704L213.902 786.694H213.872Z" fill="white"/>
<path d="M202.212 784.974L189.462 796.594L187.992 796.194L197.782 780.194L199.052 780.544L191.092 793.564L191.122 793.574L203.912 781.884L205.382 782.284L195.592 798.284L194.322 797.934L202.242 784.984L202.212 784.974Z" fill="white"/>
<path d="M177.822 792.014C177.632 791.634 177.542 791.204 177.562 790.714C177.582 790.224 177.732 789.664 177.992 789.054C178.242 788.434 178.602 787.794 179.062 787.094C179.522 786.384 179.972 785.794 180.482 785.264C180.972 784.734 181.462 784.324 181.952 784.024C182.462 783.704 182.962 783.514 183.452 783.434C183.952 783.354 184.452 783.414 184.942 783.614L187.492 784.644L191.792 778.084L192.982 778.564L182.632 794.374L178.902 792.864C178.382 792.654 178.042 792.374 177.822 792.014ZM182.032 785.664C181.432 786.034 180.852 786.664 180.252 787.564C179.662 788.464 179.352 789.204 179.322 789.804C179.292 790.374 179.592 790.804 180.222 791.054L182.642 792.034L186.272 786.484L183.852 785.504C183.222 785.254 182.602 785.304 182.032 785.664Z" fill="white"/>
<path d="M170.502 775.484C171.042 774.854 171.582 774.284 172.152 773.754C172.722 773.234 173.292 772.764 173.872 772.364C174.452 771.964 175.032 771.654 175.592 771.454C176.162 771.234 176.702 771.114 177.232 771.104C177.762 771.094 178.252 771.214 178.702 771.474C179.152 771.724 179.492 772.064 179.722 772.494C179.932 772.914 180.062 773.404 180.092 773.964C180.122 774.494 180.062 775.094 179.922 775.734C179.792 776.384 179.572 777.044 179.292 777.734C179.012 778.424 178.682 779.114 178.292 779.824C177.902 780.514 177.472 781.204 177.002 781.874C176.152 783.084 175.302 784.124 174.412 785.034C173.532 785.924 172.662 786.644 171.832 787.184C170.992 787.704 170.172 788.034 169.412 788.154C168.622 788.284 167.922 788.174 167.292 787.814C166.662 787.464 166.232 786.954 166.022 786.264C165.792 785.594 165.772 784.804 165.932 783.894C166.092 782.984 166.442 781.984 166.962 780.884C167.492 779.764 168.162 778.634 169.012 777.414C169.472 776.734 169.972 776.084 170.502 775.484ZM168.502 780.684C168.082 781.534 167.802 782.314 167.652 783.014C167.512 783.714 167.512 784.324 167.652 784.824C167.792 785.354 168.092 785.734 168.552 785.984C169.012 786.244 169.522 786.314 170.122 786.194C170.692 786.084 171.302 785.824 171.932 785.394C172.582 784.974 173.242 784.404 173.912 783.694C174.582 782.984 175.262 782.154 175.892 781.244C176.562 780.294 177.112 779.394 177.522 778.574C177.942 777.724 178.232 776.954 178.382 776.254C178.532 775.554 178.512 774.974 178.392 774.454C178.242 773.944 177.922 773.564 177.432 773.284C176.942 773.014 176.412 772.924 175.832 773.024C175.242 773.144 174.642 773.384 174.012 773.814C173.382 774.244 172.732 774.824 172.072 775.534C171.412 776.224 170.752 777.054 170.082 778.014C169.462 778.934 168.922 779.834 168.502 780.684Z" fill="white"/>
<path d="M155.922 779.804C155.732 779.604 155.572 779.384 155.452 779.124C155.352 778.884 155.282 778.604 155.262 778.294C155.252 777.984 155.302 777.634 155.402 777.244C155.502 776.854 155.672 776.424 155.882 775.984C156.122 775.534 156.412 775.054 156.792 774.544C156.982 774.294 157.222 774.004 157.482 773.734C157.742 773.464 158.022 773.204 158.312 772.964C158.622 772.734 158.922 772.524 159.232 772.394C159.562 772.214 159.862 772.134 160.182 772.104C160.102 771.884 160.062 771.614 160.032 771.334C160.022 771.024 160.042 770.684 160.132 770.284C160.232 769.894 160.392 769.454 160.602 768.984C160.832 768.494 161.172 767.954 161.602 767.384C161.852 767.044 162.132 766.724 162.412 766.404C162.742 766.054 163.052 765.764 163.382 765.504C163.732 765.234 164.082 765.004 164.442 764.804C164.802 764.604 165.162 764.474 165.502 764.404C165.872 764.314 166.222 764.314 166.562 764.364C166.912 764.424 167.252 764.574 167.572 764.814L170.742 767.154L159.352 782.394L156.672 780.404C156.362 780.194 156.122 779.984 155.922 779.804ZM165.412 766.284C165.102 766.254 164.792 766.284 164.452 766.434C164.162 766.544 163.842 766.774 163.542 767.044C163.242 767.314 162.942 767.654 162.642 768.054C162.342 768.454 162.102 768.844 161.922 769.204C161.752 769.564 161.622 769.934 161.582 770.264C161.552 770.604 161.602 770.904 161.732 771.194C161.862 771.494 162.092 771.754 162.412 771.994L164.432 773.484L168.402 768.174L166.382 766.684C166.062 766.464 165.742 766.334 165.412 766.284ZM160.382 773.374C160.092 773.354 159.792 773.434 159.512 773.554C159.252 773.684 158.982 773.894 158.722 774.154C158.472 774.424 158.212 774.734 157.952 775.074C157.682 775.434 157.462 775.774 157.312 776.084C157.172 776.404 157.082 776.704 157.062 776.984C157.022 777.284 157.072 777.554 157.212 777.784C157.332 778.034 157.522 778.274 157.802 778.484L159.672 779.864L163.192 775.154L161.322 773.774C160.992 773.534 160.682 773.404 160.382 773.374Z" fill="white"/>
<path d="M155.952 754.694L156.962 755.654L154.062 760.894L156.732 763.424L161.112 759.584L162.072 760.494L147.522 773.184L146.422 772.144L155.952 754.694ZM153.072 762.714L148.852 770.304L155.252 764.784L153.072 762.714Z" fill="white"/>
<path d="M141.902 755.214L136.862 761.174L136.052 760.194L148.262 745.744L149.072 746.724L143.322 753.524L146.552 757.434L152.302 750.634L153.112 751.614L140.902 766.064L140.092 765.084L145.132 759.124L141.902 755.214Z" fill="white"/>
<path d="M142.172 743.184L129.322 750.284L128.502 749.014L141.072 735.054L141.782 736.154L131.562 747.504L131.582 747.524L144.492 740.364L145.312 741.634L132.742 755.594L132.032 754.494L142.202 743.194L142.172 743.184Z" fill="white"/>
<path d="M129.952 735.354C129.032 736.244 128.142 736.974 127.302 737.514C126.472 738.064 125.692 738.424 125.002 738.604C124.312 738.784 123.692 738.774 123.152 738.544C122.622 738.324 122.192 737.884 121.882 737.214C121.552 736.504 121.412 735.714 121.502 734.814C121.562 733.924 121.822 732.994 122.232 732.004C122.652 731.014 123.242 730.004 123.972 728.954C124.722 727.884 125.582 726.874 126.592 725.834C127.152 725.254 127.722 724.724 128.292 724.224C128.882 723.724 129.462 723.304 130.042 722.934C130.622 722.564 131.182 722.274 131.722 722.064C132.272 721.864 132.782 721.754 133.242 721.764C133.722 721.754 134.142 721.864 134.522 722.094C134.902 722.334 135.212 722.704 135.452 723.204C135.682 723.684 135.812 724.194 135.832 724.744C135.882 725.294 135.812 725.874 135.682 726.464C135.562 727.054 135.372 727.664 135.102 728.284C134.832 728.904 134.512 729.534 134.142 730.154C133.782 730.794 133.362 731.394 132.912 732.024C132.452 732.634 131.982 733.214 131.472 733.784L132.162 735.234L137.882 729.324L138.462 730.554L125.542 743.884L124.962 742.654L130.642 736.784L129.952 735.354ZM125.162 729.474C124.592 730.294 124.132 731.074 123.792 731.834C123.452 732.584 123.252 733.294 123.182 733.934C123.102 734.614 123.182 735.174 123.412 735.654C123.642 736.144 123.972 736.454 124.432 736.554C124.862 736.684 125.382 736.644 125.982 736.434C126.582 736.224 127.232 735.854 127.942 735.324C128.662 734.814 129.422 734.144 130.172 733.364C130.962 732.544 131.652 731.724 132.202 730.924C132.772 730.104 133.242 729.324 133.572 728.554C133.912 727.804 134.092 727.114 134.182 726.454C134.262 725.824 134.172 725.254 133.952 724.784C133.692 724.234 133.342 723.884 132.902 723.764C132.442 723.644 131.952 723.674 131.362 723.904C130.772 724.134 130.122 724.514 129.422 725.064C128.742 725.594 127.992 726.274 127.192 727.094C126.432 727.854 125.742 728.664 125.162 729.474Z" fill="white"/>
<path d="M113.662 713.004L113.092 711.034L119.722 710.444L126.352 698.594L126.872 700.394L121.242 710.314L123.802 710.094L128.432 705.804L128.842 707.214L115.552 719.534L115.152 718.124L121.632 712.114L113.662 713.004Z" fill="white"/>
<path d="M123.352 693.944C123.392 693.804 123.412 693.674 123.442 693.514L123.482 693.074C123.482 692.944 123.472 692.824 123.452 692.714C123.412 692.494 123.332 692.324 123.222 692.214C123.112 692.124 122.992 692.064 122.842 692.054C122.692 692.054 122.532 692.064 122.352 692.134C122.172 692.204 121.992 692.304 121.812 692.404L111.962 706.374L111.612 704.624L119.792 693.164L110.312 698.094L109.972 696.404L120.742 691.184C121.452 690.864 122.072 690.594 122.582 690.394C123.112 690.194 123.532 690.084 123.882 690.074C124.232 690.064 124.512 690.154 124.712 690.354C124.922 690.534 125.052 690.864 125.142 691.304C125.192 691.544 125.192 691.794 125.162 692.074C125.132 692.354 125.072 692.614 124.982 692.824L123.242 694.334C123.272 694.214 123.312 694.084 123.352 693.944Z" fill="white"/>
<path d="M108.562 683.704C108.712 683.074 108.932 682.454 109.232 681.864C109.532 681.274 109.922 680.704 110.392 680.154C110.862 679.594 111.382 679.094 111.982 678.604C112.582 678.114 113.122 677.754 113.632 677.524C114.142 677.274 114.582 677.174 114.962 677.214C115.362 677.234 115.672 677.424 115.922 677.734C116.172 678.064 116.332 678.554 116.412 679.214L116.832 682.634L122.462 678.074L122.652 679.664L109.092 690.664L108.482 685.654C108.412 684.984 108.432 684.344 108.562 683.704ZM114.032 679.334C113.572 679.294 112.962 679.584 112.192 680.214C111.422 680.844 110.852 681.504 110.482 682.214C110.132 682.904 109.992 683.684 110.102 684.534L110.502 687.784L115.262 683.924L114.872 680.674C114.752 679.814 114.472 679.374 114.032 679.334Z" fill="white"/>
<path d="M116.472 666.654C117.142 665.944 117.722 665.224 118.172 664.504C118.652 663.764 118.982 663.054 119.222 662.354C119.462 661.644 119.572 660.984 119.542 660.374C119.512 659.834 119.402 659.434 119.152 659.164C118.922 658.904 118.642 658.734 118.282 658.694C117.902 658.654 117.512 658.694 117.092 658.814C116.652 658.964 116.202 659.154 115.742 659.444L115.662 657.814C116.062 657.544 116.462 657.324 116.892 657.124C117.312 656.954 117.722 656.804 118.112 656.734C118.502 656.654 118.872 656.634 119.232 656.674C119.592 656.694 119.902 656.804 120.192 656.984C120.462 657.184 120.682 657.444 120.842 657.814C121.012 658.154 121.112 658.604 121.142 659.164C121.162 659.554 121.142 659.984 121.072 660.484C121.022 660.974 120.892 661.534 120.702 662.104C120.532 662.684 120.272 663.304 119.952 663.964C119.632 664.624 119.212 665.304 118.712 665.984C118.212 666.664 117.602 667.384 116.902 668.084C116.212 668.804 115.382 669.524 114.452 670.224C113.542 670.914 112.702 671.454 111.972 671.834C111.242 672.224 110.602 672.464 110.042 672.594C109.502 672.714 109.022 672.724 108.622 672.624C108.222 672.544 107.902 672.364 107.632 672.114C107.382 671.844 107.192 671.524 107.052 671.154C106.932 670.754 106.852 670.324 106.832 669.864C106.802 669.284 106.852 668.704 106.942 668.164C107.052 667.594 107.202 667.044 107.392 666.504C107.602 665.964 107.852 665.454 108.122 664.954C108.392 664.464 108.682 663.984 109.002 663.554C109.312 663.114 109.652 662.724 109.982 662.364C110.322 662.004 110.642 661.694 110.962 661.434L111.042 663.074C110.612 663.504 110.222 663.964 109.892 664.434C109.562 664.904 109.272 665.374 109.062 665.864C108.852 666.334 108.672 666.804 108.562 667.274C108.462 667.744 108.412 668.204 108.432 668.624C108.462 669.274 108.622 669.744 108.912 670.074C109.182 670.394 109.582 670.564 110.082 670.574C110.592 670.574 111.182 670.434 111.872 670.114C112.562 669.794 113.352 669.314 114.182 668.684C115.022 668.044 115.792 667.354 116.472 666.654Z" fill="white"/>
<path d="M120.712 636.144L107.082 645.514L107.122 643.744L120.752 634.374L120.712 636.144ZM112.542 648.064C112.562 647.274 112.672 646.524 112.882 645.804C113.082 645.084 113.362 644.424 113.712 643.814C114.062 643.194 114.492 642.624 114.982 642.104C115.482 641.584 116.032 641.114 116.662 640.684C117.272 640.264 117.822 639.984 118.292 639.834C118.782 639.674 119.212 639.654 119.542 639.774C119.872 639.894 120.152 640.134 120.332 640.524C120.512 640.914 120.592 641.454 120.572 642.114L120.432 647.844L106.802 657.214L106.842 655.444L112.462 651.584L112.542 648.064ZM118.882 642.514C118.792 642.264 118.672 642.104 118.482 641.994C118.302 641.904 118.052 641.884 117.752 641.964C117.452 642.044 117.072 642.244 116.622 642.564C116.162 642.874 115.782 643.194 115.482 643.534C115.172 643.894 114.922 644.264 114.712 644.644C114.532 645.024 114.392 645.424 114.292 645.844C114.212 646.264 114.162 646.694 114.152 647.144L114.072 650.494L118.892 647.184L118.982 643.444C118.982 643.084 118.952 642.774 118.882 642.514Z" fill="white"/>
<path d="M123.232 607.964L111.292 614.994L110.382 622.504L122.322 615.474L122.092 617.364L108.562 625.324L109.932 614.034L123.462 606.074L123.232 607.964Z" fill="white"/>
<path d="M121.942 587.844C122.502 587.664 123.012 587.564 123.482 587.554C123.962 587.544 124.392 587.594 124.772 587.744C125.152 587.894 125.462 588.154 125.682 588.524C125.922 588.874 126.082 589.334 126.152 589.904C126.222 590.474 126.182 591.164 126.042 591.974C125.902 592.764 125.672 593.574 125.372 594.334C125.072 595.084 124.702 595.834 124.272 596.534C123.862 597.204 123.392 597.884 122.872 598.504C122.352 599.144 121.812 599.724 121.242 600.244C120.672 600.784 120.102 601.254 119.492 601.694C118.912 602.114 118.322 602.474 117.742 602.784C116.702 603.334 115.792 603.664 114.972 603.794C114.172 603.914 113.512 603.844 113.002 603.574C112.492 603.284 112.142 602.794 111.962 602.094C111.762 601.384 111.772 600.474 111.972 599.354C112.172 598.234 112.522 597.134 113.022 596.064C113.512 594.994 114.132 594.004 114.852 593.074C115.572 592.144 116.402 591.304 117.312 590.524C118.242 589.734 119.202 589.084 120.252 588.534C120.842 588.234 121.412 587.994 121.942 587.844ZM117.652 591.994C116.942 592.574 116.302 593.224 115.742 593.904C115.182 594.604 114.712 595.354 114.332 596.124C113.942 596.924 113.682 597.724 113.532 598.534C113.392 599.344 113.392 600.014 113.552 600.514C113.702 601.004 113.972 601.364 114.382 601.534C114.792 601.724 115.302 601.764 115.932 601.644C116.562 601.514 117.292 601.244 118.072 600.834C118.892 600.404 119.652 599.914 120.342 599.364C121.052 598.784 121.692 598.154 122.252 597.474C122.812 596.794 123.262 596.054 123.652 595.274C124.032 594.484 124.292 593.664 124.442 592.794C124.592 591.924 124.602 591.234 124.452 590.724C124.292 590.224 124.032 589.854 123.622 589.684C123.212 589.514 122.692 589.514 122.052 589.664C121.442 589.784 120.712 590.074 119.892 590.504C119.132 590.904 118.372 591.414 117.652 591.994Z" fill="white"/>
<path d="M133.462 557.074L121.922 561.984L119.852 570.084L131.392 565.174L130.872 567.214L117.802 572.774L120.912 560.604L133.982 555.044L133.462 557.074Z" fill="white"/>
<path d="M126.352 542.704C126.732 542.024 127.132 541.414 127.582 540.894C128.022 540.364 128.512 539.924 129.032 539.564C129.562 539.184 130.082 538.914 130.662 538.704C131.232 538.494 131.702 538.404 132.102 538.454C132.502 538.484 132.812 538.644 133.002 538.934C133.222 539.224 133.312 539.654 133.302 540.194C133.292 540.754 133.162 541.464 132.902 542.324L131.562 546.784L136.882 544.864L136.252 546.944L123.442 551.564L125.412 545.034C125.672 544.164 125.982 543.394 126.352 542.704ZM131.482 540.904C131.242 540.544 130.762 540.504 130.032 540.774C129.302 541.034 128.672 541.474 128.132 542.114C127.612 542.724 127.182 543.594 126.842 544.704L125.562 548.944L130.052 547.324L131.332 543.084C131.672 541.974 131.722 541.244 131.482 540.904Z" fill="white"/>
<path d="M142.612 514.414C143.102 514.384 143.542 514.444 143.932 514.584C144.322 514.724 144.662 514.924 144.932 515.224C145.202 515.524 145.392 515.924 145.492 516.404C145.612 516.884 145.632 517.454 145.552 518.124C145.472 518.804 145.292 519.564 144.982 520.444C144.682 521.304 144.312 522.144 143.892 522.924C143.472 523.674 143.002 524.414 142.492 525.074C142.002 525.714 141.462 526.324 140.902 526.864C140.332 527.424 139.762 527.914 139.182 528.314C138.592 528.744 138.022 529.084 137.432 529.394C136.862 529.674 136.302 529.904 135.762 530.064C134.792 530.344 133.982 530.424 133.282 530.314C132.602 530.194 132.082 529.894 131.732 529.424C131.382 528.934 131.212 528.244 131.232 527.394C131.232 526.524 131.452 525.494 131.872 524.284C132.292 523.074 132.832 521.924 133.482 520.884C134.132 519.824 134.862 518.904 135.662 518.074C136.462 517.244 137.332 516.554 138.252 515.974C139.192 515.384 140.122 514.954 141.092 514.674C141.632 514.504 142.152 514.414 142.612 514.414ZM138.182 517.744C137.472 518.174 136.802 518.704 136.192 519.294C135.572 519.914 135.022 520.604 134.542 521.354C134.032 522.134 133.642 522.964 133.332 523.844C133.032 524.724 132.872 525.484 132.892 526.114C132.902 526.724 133.042 527.214 133.332 527.544C133.622 527.894 134.022 528.114 134.572 528.174C135.112 528.234 135.762 528.164 136.492 527.954C137.262 527.734 137.992 527.414 138.672 527.024C139.382 526.604 140.042 526.094 140.652 525.494C141.262 524.904 141.802 524.214 142.302 523.454C142.792 522.674 143.192 521.834 143.522 520.884C143.852 519.934 144.012 519.164 144.012 518.524C143.992 517.894 143.872 517.394 143.582 517.064C143.292 516.734 142.862 516.564 142.312 516.524C141.782 516.464 141.132 516.554 140.362 516.774C139.632 516.984 138.892 517.324 138.182 517.744Z" fill="white"/>
<path d="M140.302 505.484L151.032 503.074L150.202 505.214L138.052 507.944L141.682 498.554L143.102 498.234L140.302 505.484Z" fill="white"/>
<path d="M149.102 481.214C149.552 480.554 150.012 479.984 150.482 479.514C150.962 479.044 151.452 478.674 151.972 478.404C152.492 478.114 152.992 477.954 153.522 477.864C154.052 477.784 154.472 477.794 154.802 477.954C155.142 478.084 155.372 478.344 155.492 478.724C155.622 479.104 155.622 479.604 155.522 480.204C155.412 480.834 155.172 481.574 154.792 482.474L152.832 487.094L157.732 486.324L156.822 488.474L145.022 490.324L147.892 483.554C148.252 482.674 148.662 481.894 149.102 481.214ZM153.822 480.534C153.682 480.074 153.272 479.904 152.602 480.014C151.932 480.124 151.312 480.444 150.732 481.024C150.182 481.574 149.642 482.434 149.162 483.574L147.302 487.974L151.442 487.324L153.302 482.924C153.782 481.784 153.952 480.974 153.822 480.534Z" fill="white"/>
<path d="M171.692 455.024L170.572 457.434L166.292 459.424L163.342 465.784L165.992 467.314L164.932 469.594L156.192 464.444L157.402 461.824L171.692 455.024ZM164.802 460.134L158.602 462.994L162.392 465.324L164.802 460.134Z" fill="white"/>
<path d="M177.352 440.114L170.542 435.404L172.122 432.284L182.992 432.434L181.962 434.464L172.822 434.344L172.802 434.384L179.632 439.064L178.532 441.234L167.072 445.674L167.052 445.724L176.192 445.844L175.162 447.874L164.292 447.724L165.872 444.604L177.342 440.144L177.352 440.114Z" fill="white"/>
<path d="M190.162 416.014L184.062 410.374L185.782 407.264L196.052 408.534L194.932 410.564L186.292 409.494L186.262 409.544L192.372 415.164L191.172 417.324L180.012 420.804L179.992 420.844L188.632 421.914L187.512 423.944L177.242 422.674L178.962 419.564L190.132 416.064L190.162 416.014Z" fill="white"/>
<path d="M200.452 397.414L197.542 387.364L199.032 384.884L208.682 387.224L207.392 389.364L199.542 387.454L199.512 387.504L202.462 397.564L200.972 400.044L191.322 397.694L192.612 395.554L200.422 397.454L200.452 397.414Z" fill="white"/>
<path d="M210.822 366.624C211.362 366.054 211.872 365.594 212.372 365.254C212.872 364.914 213.342 364.714 213.802 364.634C214.272 364.534 214.682 364.574 215.082 364.724C215.482 364.874 215.782 365.094 215.972 365.434C216.172 365.754 216.252 366.164 216.202 366.664C216.172 367.174 216.002 367.764 215.732 368.434C215.442 369.124 215.022 369.894 214.452 370.784L211.522 375.334L215.272 376.714L213.912 378.834L204.872 375.514L209.162 368.834C209.732 367.944 210.282 367.214 210.822 366.624ZM214.412 368.024C214.462 367.414 214.232 367.024 213.712 366.834C213.192 366.644 212.652 366.744 212.042 367.154C211.462 367.544 210.802 368.314 210.072 369.434L207.282 373.764L210.452 374.934L213.242 370.604C213.982 369.474 214.362 368.614 214.412 368.024Z" fill="white"/>
<path d="M233.462 343.214C233.732 343.534 233.942 343.904 234.072 344.354C234.202 344.804 234.282 345.284 234.282 345.844C234.282 346.404 234.182 347.034 233.992 347.694C233.812 348.364 233.542 349.084 233.162 349.864C232.782 350.644 232.302 351.454 231.702 352.324C231.122 353.174 230.502 353.954 229.892 354.604C229.292 355.244 228.682 355.814 228.082 356.264C227.512 356.704 226.922 357.084 226.352 357.354C225.772 357.644 225.232 357.834 224.722 357.934C224.202 358.044 223.732 358.074 223.262 358.034C222.822 357.984 222.412 357.864 222.052 357.674C221.402 357.334 220.932 356.864 220.622 356.234C220.322 355.614 220.202 354.864 220.252 354.034C220.312 353.184 220.562 352.224 221.002 351.174C221.442 350.104 222.072 348.984 222.892 347.784C223.712 346.584 224.572 345.554 225.432 344.734C226.302 343.884 227.142 343.254 227.982 342.804C228.822 342.354 229.612 342.114 230.392 342.044C231.182 341.974 231.882 342.104 232.542 342.444C232.902 342.624 233.222 342.884 233.462 343.214ZM229.462 344.194C228.872 344.214 228.262 344.404 227.642 344.704C227.012 345.024 226.372 345.494 225.742 346.084C225.092 346.694 224.462 347.434 223.872 348.304C223.272 349.174 222.812 350.004 222.512 350.784C222.212 351.544 222.042 352.254 222.032 352.864C222.002 353.504 222.112 354.054 222.372 354.514C222.632 354.974 223.002 355.344 223.492 355.594C224.002 355.854 224.552 355.994 225.102 355.984C225.682 355.964 226.292 355.794 226.902 355.494C227.522 355.194 228.142 354.724 228.782 354.134C229.422 353.524 230.062 352.754 230.702 351.824C231.342 350.884 231.822 350.044 232.132 349.264C232.432 348.474 232.622 347.774 232.632 347.164C232.642 346.554 232.502 346.034 232.232 345.604C231.992 345.154 231.592 344.804 231.082 344.544C230.612 344.284 230.052 344.174 229.462 344.194Z" fill="white"/>
<path d="M239.542 324.884C239.892 324.454 240.242 324.044 240.592 323.674C240.912 323.344 241.252 323.034 241.602 322.764C241.932 322.514 242.262 322.324 242.602 322.164C242.942 322.014 243.262 321.944 243.562 321.924C243.862 321.934 244.142 322.004 244.402 322.184C244.532 322.274 244.652 322.414 244.752 322.584C244.842 322.774 244.912 322.984 244.952 323.234C244.972 323.504 244.972 323.794 244.892 324.154C244.842 324.504 244.702 324.894 244.512 325.334C244.802 325.054 245.112 324.784 245.432 324.524C245.762 324.274 246.102 324.054 246.452 323.874C246.792 323.724 247.132 323.634 247.472 323.584C247.812 323.564 248.132 323.654 248.422 323.854C248.592 323.974 248.732 324.134 248.862 324.314C248.992 324.534 249.072 324.774 249.102 325.064C249.132 325.374 249.122 325.714 249.062 326.104C249.002 326.494 248.882 326.914 248.712 327.374C248.532 327.864 248.292 328.364 247.972 328.924C247.662 329.484 247.252 330.104 246.762 330.764L242.012 337.234L234.332 331.934L238.362 326.454C238.802 325.854 239.202 325.324 239.542 324.884ZM243.032 326.614C243.262 326.164 243.402 325.774 243.472 325.474C243.522 325.184 243.502 324.944 243.412 324.764C243.312 324.594 243.182 324.444 243.012 324.324C242.832 324.194 242.642 324.134 242.422 324.144C242.192 324.174 241.942 324.264 241.662 324.454C241.382 324.614 241.052 324.904 240.712 325.284C240.362 325.654 239.972 326.124 239.542 326.694L236.732 330.514L239.112 332.154L241.922 328.334C242.422 327.644 242.782 327.084 243.032 326.614ZM246.792 328.694C247.052 328.204 247.242 327.784 247.332 327.394C247.432 327.044 247.422 326.744 247.352 326.504C247.282 326.264 247.152 326.074 246.952 325.934C246.752 325.794 246.522 325.734 246.262 325.754C246.012 325.774 245.712 325.864 245.392 326.054C245.052 326.274 244.702 326.574 244.312 326.974C243.902 327.404 243.462 327.934 242.972 328.594L239.942 332.714L242.622 334.554L245.652 330.434C246.132 329.784 246.512 329.204 246.792 328.694Z" fill="white"/>
<path d="M265.822 305.854L264.082 308.084L260.702 307.764L256.102 313.644L256.942 317.214L255.292 319.324L252.572 307.414L254.462 304.994L265.822 305.854ZM259.522 307.674L254.642 307.194L255.782 312.474L259.522 307.674Z" fill="white"/>
<path d="M275.482 285.464L272.902 282.534L274.522 280.584L280.782 287.704L279.162 289.654L276.212 286.304L269.762 294.054L272.712 297.404L271.092 299.354L264.832 292.234L266.452 290.284L269.032 293.224L275.482 285.464Z" fill="white"/>
<path d="M287.912 276.694L289.822 263.044L291.752 260.864L297.232 268.884L295.562 270.764L291.102 264.244L291.062 264.284L289.172 277.974L287.242 280.154L281.762 272.134L283.432 270.254L287.872 276.744L287.912 276.694Z" fill="white"/>
<path d="M305.002 252.634C304.732 251.954 304.622 251.184 304.662 250.354C304.682 249.544 304.872 248.664 305.192 247.774C305.512 246.884 305.972 245.954 306.602 244.984C307.212 244.034 307.992 243.064 308.922 242.094C309.902 241.064 310.842 240.254 311.712 239.704C312.592 239.124 313.392 238.794 314.122 238.664C314.852 238.534 315.482 238.644 316.042 238.934C316.612 239.244 317.052 239.734 317.412 240.444C317.612 240.834 317.752 241.274 317.852 241.744C317.942 242.244 317.962 242.774 317.932 243.354C317.892 243.934 317.792 244.534 317.622 245.174C317.432 245.834 317.172 246.514 316.832 247.194C316.502 247.894 316.072 248.614 315.562 249.334C315.032 250.084 314.422 250.814 313.722 251.554C313.062 252.244 312.422 252.834 311.832 253.284C311.222 253.764 310.662 254.114 310.132 254.374C309.612 254.634 309.102 254.824 308.642 254.894C308.182 254.964 307.752 254.984 307.382 254.894C306.972 254.844 306.642 254.684 306.322 254.484C306.022 254.264 305.752 254.004 305.532 253.684L303.512 255.804L305.542 259.794L303.822 261.594L299.242 252.584L300.962 250.784L302.982 254.744L305.002 252.634ZM314.652 241.064C314.212 240.834 313.722 240.754 313.182 240.814C312.642 240.884 312.052 241.124 311.422 241.504C310.772 241.894 310.122 242.444 309.462 243.144C308.782 243.854 308.222 244.584 307.782 245.334C307.332 246.074 307.002 246.814 306.792 247.534C306.582 248.254 306.492 248.944 306.532 249.604C306.542 250.284 306.692 250.894 306.962 251.424C307.242 251.974 307.602 252.364 308.042 252.584C308.482 252.814 308.972 252.894 309.532 252.814C310.072 252.744 310.662 252.494 311.292 252.124C311.902 251.754 312.552 251.204 313.212 250.514C313.982 249.704 314.602 248.924 315.042 248.184C315.502 247.414 315.822 246.704 316.022 246.004C316.212 245.304 316.282 244.634 316.212 244.014C316.152 243.404 315.982 242.814 315.702 242.254C315.422 241.714 315.082 241.304 314.652 241.064Z" fill="white"/>
<defs>
<linearGradient id="paint0_linear_56_1112" x1="243.801" y1="327.311" x2="566.581" y2="567.816" gradientUnits="userSpaceOnUse">
<stop stop-color="#483AE8"/>
<stop offset="1" stop-color="white" stop-opacity="0"/>
</linearGradient>
</defs>
</svg>
