<svg width="769" height="771" viewBox="0 0 769 771" fill="none" xmlns="http://www.w3.org/2000/svg">
<path d="M500.713 501.706C648.462 353.455 716.044 181.26 651.663 117.097C587.282 52.9346 415.318 121.101 267.569 269.352C119.821 417.603 52.2384 589.798 116.619 653.96C181 718.123 352.965 649.957 500.713 501.706Z" stroke="url(#paint0_linear_56_1015)" stroke-width="28.88" stroke-miterlimit="10"/>
<path d="M416.412 145.394L418.942 143.864L412.712 151.654L417.632 154.614L415.312 156.014L411.282 153.434L408.862 156.454L408.352 160.234L406.542 161.334L408.012 150.494L409.822 149.394L409.112 154.684L416.412 145.394Z" fill="white"/>
<path d="M425.312 148.994C425.412 148.974 425.522 148.944 425.642 148.924L426.032 148.784C426.162 148.724 426.292 148.664 426.422 148.594C426.682 148.444 426.932 148.274 427.152 148.104C427.352 147.934 427.532 147.764 427.712 147.564C427.862 147.384 428.022 147.194 428.142 147.004C428.262 146.814 428.352 146.634 428.432 146.464L424.742 140.494L426.842 139.314L429.772 144.324L434.642 134.934L436.662 133.804L430.762 144.624C430.352 145.344 429.972 145.984 429.652 146.514C429.312 147.074 428.982 147.534 428.632 147.954C428.282 148.374 427.912 148.754 427.512 149.074C427.112 149.414 426.652 149.714 426.132 150.004C425.852 150.164 425.592 150.274 425.342 150.364C425.092 150.444 424.902 150.484 424.792 150.464L425.082 149.004C425.132 149.014 425.212 149.004 425.312 148.994Z" fill="white"/>
<path d="M450.662 126.664C451.132 126.574 451.512 126.574 451.792 126.694C452.062 126.804 452.232 127.034 452.292 127.374C452.362 127.704 452.322 128.124 452.182 128.644C452.042 129.164 451.852 129.664 451.552 130.184C451.272 130.694 450.922 131.184 450.492 131.664C450.062 132.154 449.552 132.614 448.992 133.044C448.412 133.484 447.762 133.894 447.022 134.274L443.212 136.244L441.942 141.114L440.172 142.034L443.232 130.304L448.812 127.424C449.562 127.024 450.172 126.774 450.662 126.664ZM449.372 131.414C449.892 130.834 450.222 130.224 450.402 129.554C450.572 128.884 450.502 128.484 450.172 128.344C449.852 128.214 449.222 128.384 448.272 128.874L444.652 130.744L443.582 134.864L447.202 132.994C448.152 132.504 448.882 131.974 449.372 131.414Z" fill="white"/>
<path d="M459.402 128.954C459.412 129.464 459.532 129.854 459.782 130.104C460.022 130.364 460.372 130.474 460.832 130.464C461.282 130.454 461.832 130.294 462.462 130.004C463.022 129.744 463.542 129.424 464.062 129.014C464.562 128.624 465.012 128.204 465.422 127.754C465.852 127.284 466.212 126.824 466.532 126.354C466.842 125.884 467.112 125.424 467.292 124.994L468.982 124.204C468.832 124.574 468.642 124.964 468.402 125.394C468.142 125.834 467.862 126.264 467.532 126.704C467.202 127.144 466.852 127.584 466.442 128.034C466.052 128.474 465.622 128.904 465.142 129.334C464.672 129.744 464.172 130.134 463.642 130.484C463.122 130.844 462.572 131.154 461.992 131.424C461.592 131.614 461.182 131.774 460.752 131.904C460.322 132.054 459.912 132.124 459.532 132.144C459.132 132.184 458.792 132.134 458.472 132.024C458.152 131.914 457.912 131.694 457.742 131.384C457.572 131.074 457.502 130.634 457.522 130.094C457.522 129.564 457.672 128.864 457.932 128.034C458.192 127.224 458.522 126.434 458.882 125.714C459.252 124.994 459.662 124.324 460.112 123.704C460.552 123.094 461.032 122.524 461.532 122.004C462.022 121.484 462.522 121.024 463.052 120.584C463.572 120.164 464.092 119.794 464.602 119.474C465.122 119.164 465.632 118.874 466.102 118.654C466.702 118.374 467.222 118.184 467.672 118.064C468.122 117.954 468.512 117.904 468.852 117.894C469.172 117.914 469.422 118.004 469.632 118.114C469.842 118.234 470.012 118.384 470.122 118.574C470.232 118.764 470.282 119.004 470.292 119.254C470.302 119.504 470.282 119.764 470.212 120.044L468.502 120.844C468.512 120.504 468.462 120.224 468.342 120.024C468.222 119.824 468.052 119.674 467.792 119.624C467.552 119.564 467.252 119.564 466.912 119.624C466.542 119.714 466.142 119.834 465.712 120.044C465.042 120.364 464.402 120.764 463.782 121.254C463.182 121.724 462.602 122.284 462.092 122.884C461.572 123.504 461.102 124.154 460.702 124.854C460.312 125.554 459.982 126.304 459.742 127.044C459.502 127.794 459.392 128.434 459.402 128.954Z" fill="white"/>
<path d="M481.842 116.234C482.602 115.914 483.232 115.734 483.732 115.674C484.232 115.614 484.602 115.664 484.842 115.834C485.092 115.994 485.222 116.264 485.222 116.644C485.232 117.024 485.122 117.494 484.912 118.064C484.702 118.624 484.422 119.164 484.072 119.674C483.722 120.204 483.302 120.714 482.842 121.164C482.382 121.614 481.862 122.054 481.292 122.434C480.732 122.814 480.112 123.144 479.472 123.404L473.942 125.694L478.682 113.174L480.392 112.464L478.432 117.624L481.842 116.234ZM485.242 121.034L489.982 108.514L491.692 107.804L486.952 120.324L485.242 121.034ZM480.822 121.534C481.162 121.324 481.452 121.094 481.752 120.824C482.032 120.564 482.292 120.264 482.532 119.924C482.762 119.594 482.952 119.224 483.102 118.804C483.262 118.384 483.342 118.054 483.322 117.834C483.282 117.614 483.172 117.464 483.012 117.374C482.822 117.324 482.562 117.324 482.262 117.374C481.932 117.454 481.552 117.574 481.132 117.754L477.892 119.094L476.212 123.524L479.822 122.034C480.152 121.894 480.492 121.734 480.822 121.534Z" fill="white"/>
<path d="M510.522 112.024L515.842 100.554L509.342 102.664L504.022 114.134L502.392 114.664L508.412 101.674L518.182 98.4941L512.162 111.484L510.522 112.024Z" fill="white"/>
<path d="M531.772 101.844C531.382 102.444 530.952 103.014 530.482 103.584C530.002 104.154 529.512 104.704 528.972 105.224C528.432 105.744 527.852 106.234 527.262 106.664C526.662 107.104 526.052 107.494 525.422 107.814C524.782 108.144 524.142 108.394 523.492 108.564C522.852 108.734 522.292 108.804 521.842 108.764C521.412 108.714 521.052 108.594 520.792 108.374C520.542 108.174 520.362 107.884 520.282 107.524C520.182 107.174 520.162 106.764 520.232 106.294C520.282 105.834 520.412 105.344 520.592 104.804C520.782 104.274 521.022 103.724 521.312 103.144C521.842 102.114 522.452 101.154 523.152 100.224C523.852 99.3041 524.612 98.4741 525.402 97.7341C526.212 96.9941 527.062 96.3541 527.942 95.8341C528.842 95.2941 529.732 94.9141 530.642 94.6741C531.542 94.4341 532.282 94.3841 532.812 94.5441C533.362 94.6841 533.712 95.0041 533.892 95.4841C534.072 95.9641 534.052 96.6041 533.882 97.3841C533.702 98.1841 533.352 99.0641 532.822 100.094C532.512 100.674 532.172 101.264 531.772 101.844ZM532.072 98.4241C532.232 97.8041 532.252 97.3141 532.152 96.9241C532.042 96.5441 531.782 96.2941 531.402 96.1641C531.022 96.0241 530.492 96.0541 529.832 96.2241C529.172 96.3941 528.522 96.6841 527.852 97.0941C527.212 97.4841 526.572 97.9741 525.982 98.5441C525.372 99.1141 524.802 99.7641 524.282 100.474C523.762 101.184 523.282 101.944 522.882 102.724C522.462 103.534 522.172 104.254 522.002 104.854C521.842 105.474 521.812 105.974 521.912 106.354C522.012 106.744 522.272 106.974 522.642 107.114C523.032 107.234 523.572 107.204 524.282 107.014C524.992 106.824 525.662 106.534 526.322 106.144C526.992 105.724 527.612 105.264 528.202 104.694C528.792 104.124 529.332 103.484 529.842 102.784C530.352 102.094 530.812 101.334 531.232 100.524C531.632 99.7541 531.912 99.0441 532.072 98.4241Z" fill="white"/>
<path d="M550.362 102.634L557.362 90.7441L551.472 91.7041L544.472 103.594L542.992 103.834L550.922 90.3641L559.772 88.9141L551.842 102.384L550.362 102.634Z" fill="white"/>
<path d="M571.922 87.8541C572.202 88.0241 572.392 88.2541 572.452 88.5641C572.512 88.8741 572.462 89.2741 572.282 89.7541C572.122 90.2341 571.842 90.7541 571.462 91.3541C571.082 91.9541 570.682 92.4941 570.222 92.9941C569.782 93.4941 569.312 93.9341 568.812 94.2941C568.302 94.6741 567.782 94.9741 567.252 95.2041C566.702 95.4341 566.142 95.5741 565.552 95.6241L562.522 95.9041L558.952 101.534L557.542 101.664L566.132 88.1141L570.582 87.6941C571.172 87.6541 571.612 87.7041 571.922 87.8541ZM568.412 93.3141C569.012 92.8641 569.542 92.2641 570.042 91.4941C570.532 90.7241 570.742 90.1541 570.662 89.7641C570.592 89.3941 570.172 89.2441 569.422 89.3141L566.532 89.5841L563.512 94.3441L566.402 94.0741C567.162 93.9941 567.842 93.7341 568.412 93.3141Z" fill="white"/>
<path d="M583.182 95.464C582.702 96.054 582.202 96.6041 581.662 97.1341C581.122 97.6641 580.572 98.1641 580.002 98.6241C579.432 99.0841 578.842 99.4841 578.252 99.8141C577.662 100.164 577.072 100.434 576.482 100.624C575.892 100.824 575.322 100.924 574.772 100.924C574.232 100.934 573.772 100.844 573.442 100.664C573.122 100.484 572.882 100.224 572.752 99.8841C572.622 99.5641 572.572 99.1741 572.612 98.7241C572.642 98.2741 572.752 97.7841 572.942 97.2541C573.122 96.7241 573.372 96.1841 573.672 95.5941C573.972 95.0241 574.332 94.4441 574.732 93.8541C575.452 92.7941 576.212 91.8441 577.032 90.9541C577.852 90.0841 578.682 89.324 579.512 88.684C580.352 88.054 581.202 87.5541 582.032 87.2041C582.892 86.8341 583.692 86.6541 584.452 86.6441C585.222 86.6341 585.802 86.7941 586.152 87.1441C586.532 87.4741 586.702 87.9641 586.692 88.5841C586.682 89.2041 586.482 89.954 586.112 90.824C585.732 91.714 585.202 92.654 584.482 93.714C584.112 94.304 583.672 94.894 583.182 95.464ZM584.452 91.5041C584.762 90.8241 584.922 90.2441 584.962 89.7541C584.992 89.2641 584.872 88.8941 584.622 88.6341C584.372 88.3541 583.952 88.2341 583.402 88.2341C582.842 88.2441 582.252 88.3841 581.612 88.6741C581.002 88.9441 580.362 89.324 579.742 89.824C579.102 90.324 578.462 90.9141 577.852 91.5941C577.232 92.2741 576.632 93.0341 576.092 93.8341C575.522 94.6641 575.082 95.4241 574.772 96.0841C574.462 96.7641 574.282 97.3441 574.242 97.8341C574.202 98.3241 574.332 98.6741 574.572 98.9541C574.842 99.2141 575.262 99.3341 575.862 99.3341C576.462 99.3241 577.072 99.1841 577.692 98.9141C578.332 98.6241 578.952 98.2641 579.582 97.7641C580.212 97.2641 580.822 96.6741 581.422 95.9941C582.022 95.3341 582.612 94.5741 583.172 93.7341C583.712 92.9441 584.142 92.1841 584.452 91.5041Z" fill="white"/>
<path d="M594.392 88.824L585.742 100.814L584.472 100.724L594.272 87.144L599.832 87.524L598.682 89.114L594.392 88.824Z" fill="white"/>
<path d="M609.362 89.1041C609.552 89.3641 609.652 89.6741 609.632 90.0541C609.612 90.4341 609.472 90.8741 609.202 91.3841C608.952 91.8941 608.602 92.4241 608.142 93.0341C607.682 93.6341 607.232 94.1541 606.742 94.6241C606.262 95.0941 605.772 95.4841 605.272 95.7841C604.762 96.1041 604.262 96.3241 603.772 96.4541C603.272 96.5841 602.772 96.6141 602.282 96.5341L599.722 96.1341L595.452 101.744L594.262 101.564L604.552 88.0441L608.302 88.6241C608.792 88.6941 609.142 88.8541 609.362 89.1041ZM605.182 94.5341C605.782 94.1641 606.362 93.6041 606.952 92.8341C607.542 92.0641 607.852 91.4541 607.882 90.9941C607.912 90.5541 607.612 90.2741 606.972 90.1841L604.532 89.8041L600.922 94.5441L603.362 94.9241C603.992 95.0241 604.602 94.8941 605.182 94.5341Z" fill="white"/>
<path d="M612.062 105.284L610.822 104.964L613.252 100.624L609.992 99.764L605.762 103.634L604.592 103.324L618.672 90.524L620.012 90.874L612.062 105.284ZM614.082 99.114L617.622 92.824L611.422 98.414L614.082 99.114Z" fill="white"/>
<path d="M621.002 105.774L632.672 95.4841L634.132 96.0641L622.812 109.314L621.862 108.934L631.382 97.7841L631.362 97.7741L619.702 108.064L618.692 107.654L626.082 95.6541L626.062 95.6441L616.542 106.794L615.592 106.414L626.912 93.1641L628.372 93.7441L620.992 105.754L621.002 105.774Z" fill="white"/>
<path d="M631.692 110.984L643.552 101.164L644.852 101.924L633.032 114.924L632.182 114.424L642.132 103.484L642.112 103.474L630.262 113.294L629.352 112.764L637.392 100.714L637.372 100.704L627.422 111.644L626.572 111.144L638.392 98.144L639.692 98.904L631.662 110.964L631.692 110.984Z" fill="white"/>
<path d="M639.502 115.494L652.442 107.654L653.362 108.394L641.122 121.104L640.322 120.464L650.282 110.124L650.262 110.114L637.272 118.004L636.352 117.264L648.592 104.554L649.392 105.194L639.482 115.474L639.502 115.494Z" fill="white"/>
<path d="M659.322 114.884C659.332 115.294 659.262 115.724 659.082 116.174C658.902 116.634 658.622 117.124 658.232 117.634C657.852 118.164 657.382 118.674 656.822 119.224C656.262 119.774 655.742 120.224 655.212 120.604C654.692 120.984 654.202 121.254 653.752 121.414C653.282 121.594 652.862 121.654 652.482 121.604C652.092 121.554 651.762 121.374 651.472 121.064L649.972 119.464L644.752 124.604L644.052 123.854L656.642 111.464L658.832 113.814C659.132 114.134 659.292 114.484 659.322 114.884ZM654.232 119.844C654.782 119.644 655.412 119.194 656.122 118.484C656.842 117.774 657.302 117.154 657.522 116.594C657.732 116.064 657.652 115.584 657.282 115.184L655.862 113.664L651.442 118.014L652.862 119.534C653.242 119.934 653.712 120.034 654.232 119.844Z" fill="white"/>
<path d="M659.202 132.324C658.612 132.794 658.032 133.194 657.452 133.544C656.872 133.894 656.312 134.204 655.762 134.434C655.212 134.664 654.692 134.814 654.232 134.874C653.752 134.944 653.322 134.924 652.942 134.794C652.562 134.674 652.252 134.434 652.002 134.084C651.762 133.734 651.622 133.324 651.602 132.864C651.582 132.414 651.652 131.914 651.812 131.384C651.962 130.874 652.202 130.324 652.512 129.754C652.822 129.174 653.192 128.604 653.622 128.024C654.042 127.444 654.512 126.874 655.022 126.294C655.522 125.744 656.062 125.194 656.622 124.674C657.632 123.734 658.572 122.974 659.512 122.324C660.432 121.694 661.292 121.234 662.062 120.934C662.842 120.644 663.532 120.544 664.122 120.614C664.732 120.684 665.192 120.964 665.532 121.454C665.872 121.944 666.012 122.534 665.942 123.234C665.892 123.924 665.642 124.674 665.232 125.494C664.822 126.314 664.242 127.174 663.512 128.084C662.762 129.014 661.922 129.924 660.912 130.854C660.352 131.384 659.782 131.884 659.202 132.324ZM662.342 127.894C662.922 127.194 663.372 126.524 663.712 125.904C664.042 125.274 664.232 124.704 664.302 124.194C664.372 123.664 664.282 123.224 664.032 122.874C663.782 122.524 663.442 122.314 662.972 122.284C662.532 122.244 662.002 122.344 661.412 122.594C660.812 122.834 660.152 123.204 659.432 123.704C658.722 124.214 657.962 124.824 657.212 125.524C656.422 126.264 655.732 126.974 655.172 127.644C654.592 128.344 654.132 129.004 653.792 129.624C653.452 130.244 653.282 130.804 653.202 131.324C653.152 131.844 653.252 132.284 653.512 132.664C653.772 133.044 654.132 133.254 654.572 133.304C655.042 133.334 655.542 133.254 656.142 133.004C656.742 132.754 657.382 132.364 658.092 131.854C658.792 131.364 659.532 130.744 660.322 130.004C661.072 129.314 661.762 128.594 662.342 127.894Z" fill="white"/>
<path d="M671.092 131.844C671.162 132.084 671.202 132.334 671.212 132.594C671.202 132.844 671.162 133.124 671.082 133.424C670.992 133.714 670.842 134.044 670.642 134.384C670.442 134.724 670.182 135.094 669.882 135.454C669.562 135.824 669.202 136.194 668.762 136.584C668.542 136.774 668.272 136.984 668.002 137.184C667.722 137.374 667.442 137.544 667.152 137.704C666.852 137.854 666.572 137.974 666.302 138.024C666.002 138.114 665.762 138.114 665.532 138.064C665.512 138.294 665.462 138.554 665.392 138.834C665.302 139.124 665.172 139.444 664.982 139.794C664.782 140.134 664.522 140.514 664.222 140.904C663.892 141.304 663.472 141.734 662.982 142.164C662.692 142.424 662.382 142.664 662.082 142.894C661.732 143.144 661.412 143.344 661.092 143.504C660.752 143.674 660.422 143.804 660.102 143.904C659.782 144.004 659.482 144.034 659.212 144.024C658.912 144.014 658.662 143.934 658.432 143.794C658.202 143.654 658.012 143.424 657.852 143.114L656.342 140.114L669.492 128.524L670.772 131.064C670.892 131.364 671.002 131.624 671.092 131.844ZM665.792 136.814C666.002 136.904 666.232 136.904 666.472 136.854C666.702 136.794 666.962 136.664 667.232 136.484C667.502 136.284 667.792 136.064 668.082 135.804C668.392 135.534 668.662 135.264 668.872 135.004C669.082 134.734 669.242 134.474 669.342 134.214C669.472 133.944 669.522 133.674 669.492 133.424C669.492 133.154 669.432 132.884 669.292 132.614L668.402 130.844L664.342 134.424L665.232 136.194C665.402 136.514 665.582 136.714 665.792 136.814ZM659.872 142.274C660.082 142.384 660.322 142.424 660.612 142.364C660.862 142.334 661.162 142.194 661.462 142.014C661.762 141.834 662.092 141.584 662.442 141.284C662.792 140.974 663.082 140.674 663.332 140.374C663.572 140.074 663.792 139.754 663.922 139.454C664.052 139.134 664.112 138.844 664.122 138.534C664.122 138.224 664.042 137.914 663.892 137.604L662.932 135.694L658.352 139.734L659.312 141.644C659.462 141.944 659.652 142.154 659.872 142.274Z" fill="white"/>
<path d="M662.892 155.574L662.472 154.414L666.262 150.174L665.162 147.114L660.762 149.664L660.372 148.574L674.962 140.174L675.412 141.434L662.892 155.574ZM667.572 148.704L673.072 142.574L666.672 146.214L667.572 148.704Z" fill="white"/>
<path d="M673.162 158.554L678.722 154.164L678.982 155.294L665.502 165.934L665.242 164.804L671.592 159.794L670.552 155.294L664.202 160.304L663.942 159.174L677.422 148.534L677.682 149.664L672.122 154.054L673.162 158.554Z" fill="white"/>
<path d="M669.042 169.874L680.592 166.334L680.762 167.744L667.182 177.834L667.032 176.614L678.072 168.404V168.374L666.462 171.954L666.292 170.544L679.862 160.454L680.012 161.674L669.022 169.834L669.042 169.874Z" fill="white"/>
<path d="M675.282 180.294C676.232 179.684 677.102 179.214 677.882 178.904C678.662 178.584 679.332 178.444 679.892 178.444C680.452 178.444 680.892 178.614 681.202 178.964C681.512 179.304 681.672 179.824 681.682 180.534C681.692 181.284 681.532 182.074 681.182 182.894C680.852 183.714 680.362 184.534 679.742 185.364C679.122 186.194 678.362 187.004 677.492 187.814C676.602 188.634 675.652 189.384 674.592 190.124C674.002 190.534 673.412 190.894 672.842 191.224C672.252 191.544 671.702 191.804 671.172 192.004C670.642 192.204 670.142 192.344 669.682 192.414C669.222 192.474 668.822 192.444 668.492 192.324C668.142 192.214 667.872 192.004 667.682 191.704C667.482 191.384 667.382 190.954 667.372 190.424C667.362 189.914 667.432 189.404 667.602 188.874C667.752 188.344 667.992 187.804 668.272 187.284C668.552 186.764 668.892 186.224 669.282 185.704C669.682 185.184 670.112 184.664 670.582 184.174C671.052 183.654 671.542 183.194 672.072 182.714C672.602 182.254 673.132 181.814 673.682 181.404L673.662 179.864L667.632 184.034L667.612 182.724L681.232 173.314L681.252 174.624L675.252 178.764L675.282 180.294ZM676.812 187.044C677.492 186.404 678.082 185.784 678.572 185.154C679.062 184.524 679.432 183.914 679.692 183.314C679.972 182.694 680.102 182.134 680.092 181.634C680.082 181.114 679.942 180.744 679.652 180.534C679.382 180.304 678.992 180.214 678.502 180.264C678.002 180.314 677.412 180.504 676.732 180.824C676.042 181.134 675.282 181.574 674.492 182.124C673.652 182.704 672.902 183.304 672.232 183.934C671.552 184.574 670.962 185.194 670.472 185.834C669.982 186.464 669.632 187.064 669.352 187.674C669.092 188.254 668.962 188.814 668.972 189.314C668.982 189.904 669.122 190.314 669.392 190.544C669.682 190.774 670.052 190.864 670.542 190.794C671.042 190.724 671.632 190.524 672.312 190.174C672.982 189.834 673.742 189.384 674.572 188.804C675.372 188.254 676.132 187.664 676.812 187.044Z" fill="white"/>
<path d="M679.712 205.454L679.482 207.454L674.522 206.374L665.902 215.934L666.112 214.104L673.392 206.114L671.482 205.684L666.762 208.594L666.932 207.164L680.492 198.804L680.322 200.234L673.712 204.314L679.712 205.454Z" fill="white"/>
<path d="M666.542 221.084C666.472 221.214 666.412 221.324 666.342 221.464L666.162 221.874C666.122 221.994 666.082 222.114 666.062 222.224C666.022 222.444 666.022 222.624 666.062 222.754C666.112 222.864 666.172 222.954 666.282 223.004C666.392 223.034 666.502 223.074 666.662 223.054C666.812 223.034 666.972 222.984 667.142 222.934L678.772 212.164L678.452 213.904L668.842 222.714L677.262 220.394L676.952 222.074L667.512 224.344C666.902 224.474 666.362 224.574 665.932 224.634C665.482 224.694 665.152 224.694 664.892 224.614C664.642 224.534 664.462 224.384 664.392 224.154C664.302 223.924 664.312 223.584 664.392 223.154C664.432 222.924 664.512 222.684 664.632 222.424C664.742 222.164 664.872 221.934 665.002 221.764L666.742 220.764C666.682 220.844 666.612 220.954 666.542 221.084Z" fill="white"/>
<path d="M673.832 234.424C673.522 234.984 673.162 235.514 672.752 235.994C672.342 236.474 671.882 236.924 671.362 237.324C670.842 237.744 670.302 238.084 669.712 238.394C669.122 238.704 668.612 238.914 668.172 239.014C667.722 239.124 667.372 239.114 667.112 238.984C666.832 238.864 666.672 238.614 666.592 238.254C666.522 237.884 666.562 237.384 666.722 236.734L667.532 233.404L662.002 236.324L662.382 234.774L675.702 227.724L674.512 232.614C674.362 233.254 674.132 233.854 673.832 234.424ZM668.482 237.204C668.802 237.364 669.332 237.234 670.092 236.834C670.852 236.434 671.472 235.954 671.972 235.364C672.452 234.804 672.802 234.094 673.002 233.274L673.772 230.104L669.092 232.574L668.322 235.744C668.122 236.564 668.182 237.054 668.482 237.204Z" fill="white"/>
<path d="M662.602 248.594C661.892 249.094 661.242 249.634 660.672 250.204C660.092 250.784 659.612 251.374 659.212 251.984C658.812 252.594 658.522 253.194 658.342 253.774C658.182 254.294 658.142 254.704 658.232 255.014C658.312 255.314 658.462 255.544 658.702 255.674C658.962 255.804 659.252 255.864 659.602 255.854C659.972 255.824 660.352 255.754 660.772 255.594L660.302 257.154C659.932 257.304 659.562 257.424 659.202 257.504C658.842 257.564 658.502 257.594 658.202 257.574C657.902 257.554 657.622 257.484 657.382 257.354C657.132 257.244 656.942 257.064 656.792 256.824C656.662 256.574 656.582 256.264 656.592 255.874C656.582 255.504 656.652 255.054 656.812 254.524C656.922 254.154 657.082 253.754 657.292 253.294C657.492 252.844 657.762 252.354 658.092 251.854C658.402 251.344 658.792 250.834 659.242 250.284C659.692 249.744 660.212 249.204 660.792 248.684C661.372 248.164 662.042 247.634 662.772 247.144C663.502 246.634 664.332 246.164 665.232 245.734C666.112 245.314 666.892 245.004 667.542 244.824C668.192 244.644 668.732 244.564 669.182 244.584C669.612 244.604 669.952 244.714 670.212 244.904C670.472 245.084 670.642 245.324 670.762 245.624C670.852 245.934 670.882 246.294 670.862 246.674C670.812 247.084 670.732 247.504 670.602 247.944C670.432 248.494 670.212 249.034 669.972 249.524C669.702 250.034 669.422 250.524 669.112 250.984C668.782 251.444 668.442 251.864 668.082 252.264C667.722 252.664 667.362 253.044 666.992 253.374C666.622 253.704 666.252 254.004 665.892 254.264C665.532 254.524 665.202 254.744 664.882 254.904L665.362 253.334C665.812 253.034 666.242 252.694 666.632 252.334C667.022 251.974 667.382 251.604 667.692 251.194C668.002 250.804 668.272 250.394 668.512 249.984C668.732 249.564 668.922 249.144 669.042 248.744C669.232 248.124 669.272 247.634 669.162 247.254C669.072 246.884 668.842 246.624 668.492 246.494C668.122 246.374 667.662 246.354 667.062 246.484C666.462 246.614 665.742 246.874 664.932 247.264C664.092 247.624 663.312 248.094 662.602 248.594Z" fill="white"/>
<path d="M659.362 267.134C659.092 267.874 658.762 268.554 658.382 269.184C658.002 269.814 657.582 270.374 657.142 270.854C656.692 271.354 656.202 271.784 655.672 272.154C655.142 272.524 654.592 272.834 654.002 273.084C653.432 273.324 652.942 273.464 652.562 273.484C652.162 273.514 651.842 273.424 651.642 273.234C651.442 273.044 651.322 272.744 651.322 272.334C651.322 271.924 651.442 271.394 651.672 270.764L653.642 265.374L666.482 259.894L665.872 261.554L660.572 263.814L659.362 267.134ZM653.012 270.814C652.992 271.074 653.032 271.264 653.132 271.404C653.232 271.534 653.402 271.614 653.652 271.604C653.892 271.604 654.232 271.504 654.662 271.324C655.092 271.144 655.472 270.934 655.802 270.694C656.142 270.434 656.442 270.144 656.722 269.834C656.972 269.524 657.202 269.174 657.412 268.804C657.612 268.424 657.782 268.034 657.932 267.614L659.082 264.464L654.542 266.404L653.262 269.924C653.122 270.254 653.042 270.554 653.012 270.814ZM649.612 276.384L662.452 270.904L661.842 272.564L649.002 278.044L649.612 276.384Z" fill="white"/>
<path d="M638.642 302.404L649.512 298.714L652.612 291.834L641.742 295.524L642.522 293.794L654.832 289.614L650.172 299.954L637.862 304.134L638.642 302.404Z" fill="white"/>
<path d="M633.012 321.754C632.552 321.784 632.152 321.754 631.812 321.654C631.472 321.544 631.172 321.394 630.952 321.154C630.732 320.914 630.592 320.594 630.552 320.194C630.492 319.804 630.532 319.334 630.662 318.774C630.802 318.214 631.052 317.574 631.422 316.844C631.782 316.124 632.202 315.424 632.672 314.774C633.132 314.144 633.642 313.524 634.182 312.964C634.692 312.424 635.252 311.904 635.832 311.444C636.412 310.964 636.992 310.554 637.572 310.204C638.152 309.834 638.722 309.534 639.302 309.264C639.852 309.014 640.392 308.814 640.912 308.674C641.842 308.414 642.592 308.324 643.232 308.404C643.852 308.484 644.302 308.724 644.582 309.094C644.852 309.494 644.942 310.044 644.842 310.754C644.752 311.474 644.452 312.334 643.942 313.344C643.432 314.354 642.822 315.314 642.112 316.194C641.412 317.084 640.642 317.864 639.822 318.574C639.002 319.274 638.132 319.864 637.222 320.374C636.292 320.884 635.392 321.264 634.462 321.524C633.932 321.654 633.442 321.744 633.012 321.754ZM637.442 318.884C638.142 318.514 638.812 318.054 639.432 317.554C640.062 317.034 640.642 316.444 641.162 315.804C641.702 315.144 642.152 314.454 642.522 313.724C642.892 312.994 643.102 312.364 643.152 311.844C643.202 311.344 643.122 310.934 642.882 310.674C642.652 310.394 642.292 310.224 641.802 310.194C641.302 310.164 640.702 310.234 640.002 310.434C639.272 310.644 638.562 310.914 637.892 311.264C637.192 311.634 636.532 312.074 635.912 312.574C635.292 313.084 634.722 313.664 634.192 314.304C633.662 314.954 633.212 315.664 632.812 316.454C632.412 317.244 632.192 317.894 632.132 318.414C632.082 318.934 632.152 319.334 632.392 319.604C632.632 319.864 633.002 320.004 633.512 320.014C633.992 320.054 634.612 319.954 635.342 319.754C636.022 319.554 636.742 319.254 637.442 318.884Z" fill="white"/>
<path d="M614.712 347.994L624.602 346.204L628.722 339.054L618.832 340.844L619.872 339.044L631.072 337.014L624.872 347.754L613.672 349.784L614.712 347.994Z" fill="white"/>
<path d="M615.142 363.344C614.652 363.894 614.162 364.364 613.672 364.754C613.182 365.144 612.692 365.444 612.192 365.654C611.682 365.884 611.222 366.004 610.742 366.064C610.262 366.114 609.892 366.094 609.622 365.944C609.342 365.814 609.172 365.594 609.132 365.264C609.072 364.934 609.142 364.504 609.322 363.994C609.512 363.464 609.842 362.834 610.302 362.074L612.722 358.194L608.282 358.694L609.412 356.884L620.122 355.684L616.582 361.374C616.102 362.124 615.632 362.774 615.142 363.344ZM610.872 363.764C610.932 364.164 611.262 364.314 611.872 364.244C612.482 364.174 613.072 363.914 613.672 363.444C614.242 362.994 614.842 362.274 615.442 361.314L617.742 357.624L613.982 358.044L611.682 361.734C611.082 362.714 610.812 363.394 610.872 363.764Z" fill="white"/>
<path d="M594.242 386.064C593.882 385.964 593.582 385.814 593.352 385.574C593.122 385.344 592.942 385.074 592.842 384.724C592.742 384.374 592.732 383.954 592.822 383.464C592.892 382.984 593.062 382.444 593.342 381.824C593.622 381.204 594.002 380.524 594.512 379.764C595.002 379.024 595.542 378.324 596.102 377.694C596.652 377.084 597.222 376.504 597.812 376.004C598.372 375.524 598.952 375.074 599.532 374.704C600.122 374.314 600.692 373.994 601.242 373.754C601.802 373.494 602.332 373.314 602.852 373.164C603.352 373.034 603.832 372.964 604.272 372.944C605.062 372.914 605.672 373.044 606.132 373.324C606.582 373.604 606.852 374.024 606.952 374.554C607.042 375.104 606.942 375.794 606.652 376.594C606.362 377.414 605.872 378.344 605.182 379.384C604.482 380.424 603.732 381.374 602.912 382.204C602.102 383.044 601.282 383.744 600.432 384.324C599.582 384.904 598.742 385.344 597.892 385.674C597.022 386.004 596.212 386.174 595.422 386.204C594.982 386.224 594.582 386.184 594.242 386.064ZM598.522 384.014C599.172 383.784 599.822 383.454 600.462 383.044C601.112 382.614 601.732 382.094 602.322 381.504C602.942 380.894 603.492 380.204 604.002 379.454C604.512 378.694 604.862 378.024 605.052 377.424C605.242 376.844 605.302 376.344 605.202 375.954C605.112 375.554 604.892 375.244 604.522 375.054C604.152 374.864 603.662 374.774 603.062 374.794C602.442 374.814 601.812 374.934 601.192 375.134C600.542 375.364 599.902 375.674 599.272 376.084C598.642 376.494 598.032 377.014 597.422 377.604C596.822 378.214 596.252 378.924 595.712 379.734C595.172 380.544 594.802 381.244 594.592 381.844C594.402 382.444 594.332 382.944 594.432 383.324C594.532 383.704 594.782 383.974 595.162 384.144C595.522 384.334 596.022 384.414 596.642 384.384C597.232 384.374 597.872 384.244 598.522 384.014Z" fill="white"/>
<path d="M593.002 395.084L584.502 394.704L585.792 392.884L595.412 393.314L589.742 401.294L588.612 401.244L593.002 395.084Z" fill="white"/>
<path d="M578.782 415.844C578.242 416.354 577.732 416.784 577.232 417.114C576.732 417.444 576.262 417.674 575.802 417.804C575.332 417.954 574.922 417.984 574.512 417.924C574.112 417.874 573.812 417.754 573.622 417.524C573.422 417.314 573.342 417.014 573.382 416.624C573.412 416.234 573.572 415.764 573.842 415.214C574.122 414.654 574.542 414.004 575.112 413.244L578.022 409.364L574.252 408.884L575.612 407.074L584.692 408.244L580.422 413.944C579.862 414.684 579.322 415.314 578.782 415.844ZM575.172 415.324C575.122 415.794 575.362 416.054 575.882 416.114C576.402 416.184 576.952 416.024 577.552 415.624C578.132 415.244 578.792 414.564 579.512 413.604L582.282 409.904L579.092 409.494L576.322 413.194C575.592 414.154 575.212 414.874 575.172 415.324Z" fill="white"/>
<path d="M554.022 435.024L555.612 433.024L559.342 432.204L563.532 426.924L562.122 424.824L563.622 422.934L568.222 429.964L566.502 432.134L554.022 435.024ZM560.632 431.894L566.012 430.724L564.042 427.584L560.632 431.894Z" fill="white"/>
<path d="M545.092 447.714L548.452 453.854L546.302 456.414L538.542 453.584L539.942 451.914L546.472 454.294L546.502 454.254L543.122 448.134L544.622 446.354L554.302 444.994L554.332 444.954L547.802 442.574L549.202 440.904L556.962 443.734L554.812 446.284L545.122 447.664L545.092 447.714Z" fill="white"/>
<path d="M528.042 467.344L530.592 474.184L528.342 476.694L521.382 472.954L522.852 471.314L528.712 474.464L528.742 474.424L526.172 467.604L527.742 465.854L536.892 465.334L536.922 465.294L531.062 462.144L532.532 460.504L539.492 464.244L537.242 466.754L528.072 467.294L528.042 467.344Z" fill="white"/>
<path d="M514.592 482.384L513.412 492.604L511.532 494.584L505.362 489.984L506.982 488.274L512.002 492.024L512.032 491.984L513.182 481.744L515.062 479.764L521.232 484.364L519.612 486.074L514.622 482.344L514.592 482.384Z" fill="white"/>
<path d="M497.122 508.924C496.552 509.324 496.032 509.644 495.562 509.834C495.092 510.034 494.682 510.104 494.332 510.064C493.962 510.044 493.682 509.904 493.442 509.664C493.202 509.424 493.062 509.144 493.032 508.774C492.992 508.424 493.072 508.014 493.262 507.554C493.452 507.084 493.762 506.564 494.172 505.994C494.602 505.414 495.152 504.784 495.852 504.094L499.442 500.514L497.192 498.284L498.862 496.614L504.282 501.994L499.022 507.244C498.332 507.944 497.702 508.504 497.122 508.924ZM494.992 506.714C494.762 507.274 494.802 507.704 495.112 508.014C495.422 508.324 495.842 508.364 496.412 508.124C496.952 507.904 497.682 507.334 498.572 506.454L501.982 503.044L500.082 501.154L496.672 504.564C495.782 505.444 495.222 506.174 494.992 506.714Z" fill="white"/>
<path d="M473.232 525.464C473.142 525.094 473.112 524.694 473.162 524.234C473.212 523.774 473.312 523.294 473.502 522.774C473.692 522.254 473.962 521.674 474.322 521.094C474.672 520.504 475.102 519.894 475.622 519.254C476.152 518.614 476.762 517.964 477.472 517.284C478.172 516.624 478.862 516.044 479.512 515.574C480.152 515.124 480.772 514.734 481.352 514.444C481.912 514.164 482.452 513.964 482.952 513.844C483.462 513.714 483.912 513.664 484.312 513.704C484.722 513.724 485.072 513.824 485.392 513.974C485.692 514.134 485.942 514.344 486.142 514.614C486.502 515.094 486.682 515.654 486.702 516.334C486.712 516.994 486.562 517.734 486.252 518.504C485.932 519.294 485.432 520.144 484.782 521.024C484.122 521.934 483.302 522.834 482.322 523.764C481.342 524.694 480.392 525.464 479.502 526.024C478.602 526.614 477.792 526.994 477.042 527.224C476.292 527.444 475.642 527.474 475.062 527.354C474.472 527.224 474.012 526.924 473.652 526.444C473.442 526.154 473.292 525.834 473.232 525.464ZM476.422 525.524C476.852 525.644 477.352 525.624 477.892 525.494C478.452 525.344 479.062 525.064 479.702 524.654C480.372 524.244 481.062 523.694 481.772 523.024C482.482 522.344 483.082 521.684 483.562 521.014C484.022 520.374 484.382 519.744 484.582 519.164C484.812 518.574 484.912 518.014 484.872 517.524C484.832 517.034 484.682 516.584 484.412 516.224C484.132 515.844 483.782 515.584 483.382 515.454C482.952 515.334 482.472 515.334 481.922 515.464C481.382 515.594 480.772 515.884 480.122 516.284C479.462 516.704 478.752 517.264 477.992 517.994C477.222 518.724 476.612 519.404 476.132 520.064C475.662 520.734 475.302 521.354 475.092 521.924C474.882 522.504 474.812 523.024 474.872 523.494C474.902 523.984 475.072 524.404 475.352 524.784C475.622 525.154 475.992 525.394 476.422 525.524Z" fill="white"/>
<path d="M462.892 541.284C462.502 541.604 462.122 541.904 461.742 542.164C461.402 542.394 461.062 542.604 460.722 542.774C460.402 542.934 460.102 543.024 459.812 543.094C459.522 543.154 459.262 543.134 459.042 543.074C458.832 542.994 458.652 542.854 458.522 542.624C458.462 542.504 458.422 542.344 458.402 542.154C458.402 541.954 458.422 541.734 458.472 541.494C458.542 541.224 458.642 540.954 458.822 540.644C458.972 540.324 459.202 539.994 459.482 539.624C459.182 539.824 458.872 539.994 458.552 540.164C458.232 540.324 457.922 540.444 457.612 540.524C457.322 540.584 457.052 540.584 456.782 540.544C456.532 540.484 456.332 540.314 456.192 540.054C456.112 539.904 456.062 539.714 456.032 539.514C456.012 539.274 456.032 539.024 456.102 538.754C456.182 538.454 456.302 538.134 456.462 537.784C456.622 537.434 456.852 537.064 457.132 536.674C457.422 536.254 457.762 535.834 458.162 535.394C458.572 534.944 459.062 534.464 459.622 533.954L465.142 529.014L468.942 535.924L464.262 540.114C463.742 540.554 463.282 540.944 462.892 541.284ZM458.922 535.894C458.572 536.294 458.302 536.644 458.112 536.994C457.932 537.304 457.842 537.584 457.802 537.824C457.772 538.064 457.812 538.274 457.912 538.464C458.012 538.644 458.152 538.764 458.352 538.804C458.542 538.854 458.782 538.834 459.072 538.734C459.382 538.614 459.742 538.414 460.152 538.124C460.582 537.824 461.072 537.424 461.642 536.924L465.162 533.774L463.842 531.364L460.322 534.514C459.752 535.024 459.292 535.474 458.922 535.894ZM460.952 538.784C460.642 539.154 460.412 539.484 460.262 539.754C460.132 540.014 460.072 540.244 460.072 540.444C460.092 540.624 460.132 540.804 460.222 540.954C460.312 541.114 460.432 541.234 460.592 541.274C460.772 541.304 460.972 541.274 461.242 541.164C461.492 541.084 461.822 540.884 462.192 540.614C462.562 540.354 463.002 540.004 463.492 539.564L466.752 536.644L465.582 534.504L462.322 537.424C461.722 537.964 461.282 538.404 460.952 538.784Z" fill="white"/>
<path d="M437.812 552.774L439.792 551.094L442.122 552.234L447.342 547.804L447.902 544.224L449.772 542.634L447.842 554.574L445.692 556.394L437.812 552.774ZM442.932 552.614L446.282 554.284L447.182 549.004L442.932 552.614Z" fill="white"/>
<path d="M424.232 569.674L425.132 573.084L423.332 574.524L421.152 566.244L422.952 564.804L423.982 568.704L431.142 562.974L430.112 559.074L431.912 557.634L434.092 565.914L432.292 567.354L431.392 563.944L424.232 569.674Z" fill="white"/>
<path d="M412.442 574.884L406.622 587.324L404.522 588.904L403.192 579.964L405.002 578.594L406.082 585.864L406.122 585.834L411.932 573.364L414.032 571.784L415.362 580.724L413.552 582.094L412.482 574.864L412.442 574.884Z" fill="white"/>
<path d="M392.322 593.404C392.292 594.114 392.122 594.864 391.822 595.644C391.542 596.404 391.122 597.184 390.602 597.944C390.082 598.704 389.452 599.474 388.682 600.234C387.932 600.984 387.062 601.704 386.072 602.394C385.032 603.124 384.092 603.664 383.292 603.964C382.472 604.294 381.792 604.414 381.222 604.354C380.652 604.294 380.242 604.044 379.932 603.624C379.622 603.194 379.462 602.614 379.442 601.864C379.422 601.444 379.472 600.994 379.552 600.524C379.652 600.024 379.802 599.514 380.022 598.984C380.232 598.444 380.512 597.894 380.832 597.334C381.182 596.754 381.592 596.184 382.052 595.624C382.522 595.054 383.062 594.474 383.662 593.914C384.282 593.344 384.962 592.794 385.702 592.274C386.402 591.784 387.052 591.384 387.622 591.104C388.212 590.794 388.732 590.614 389.192 590.494C389.652 590.374 390.082 590.324 390.432 590.364C390.782 590.404 391.102 590.504 391.342 590.674C391.622 590.824 391.802 591.054 391.972 591.324C392.122 591.604 392.232 591.914 392.282 592.284L394.422 590.774L394.262 586.504L396.082 585.224L396.442 594.874L394.622 596.154L394.462 591.904L392.322 593.404ZM381.622 601.954C381.872 602.274 382.182 602.484 382.602 602.554C383.012 602.624 383.512 602.544 384.092 602.334C384.692 602.124 385.332 601.764 386.042 601.274C386.762 600.764 387.402 600.224 387.962 599.614C388.522 599.024 389.002 598.414 389.392 597.784C389.782 597.154 390.062 596.524 390.252 595.894C390.462 595.254 390.552 594.634 390.532 594.064C390.512 593.474 390.372 593.014 390.132 592.704C389.882 592.384 389.572 592.174 389.142 592.124C388.732 592.054 388.232 592.144 387.652 592.344C387.092 592.544 386.442 592.904 385.742 593.394C384.922 593.964 384.232 594.554 383.662 595.144C383.082 595.754 382.612 596.344 382.252 596.964C381.882 597.584 381.612 598.194 381.462 598.804C381.312 599.394 381.232 599.994 381.252 600.594C381.282 601.154 381.402 601.624 381.622 601.954Z" fill="white"/>
<path d="M351.572 624.474L349.042 626.004L355.272 618.214L350.352 615.254L352.672 613.854L356.702 616.434L359.122 613.414L359.632 609.634L361.442 608.534L359.972 619.374L358.162 620.474L358.872 615.184L351.572 624.474Z" fill="white"/>
<path d="M342.672 620.884C342.572 620.904 342.462 620.934 342.342 620.954L341.952 621.094C341.822 621.154 341.692 621.214 341.562 621.284C341.302 621.434 341.052 621.594 340.832 621.774C340.632 621.944 340.452 622.114 340.272 622.304C340.122 622.484 339.962 622.674 339.842 622.864C339.722 623.054 339.632 623.234 339.552 623.404L343.242 629.374L341.152 630.554L338.222 625.544L333.352 634.924L331.332 636.054L337.232 625.234C337.642 624.514 338.022 623.874 338.342 623.344C338.682 622.784 339.012 622.324 339.362 621.904C339.712 621.484 340.082 621.104 340.482 620.784C340.882 620.444 341.342 620.144 341.862 619.854C342.142 619.694 342.402 619.584 342.652 619.494C342.902 619.414 343.092 619.374 343.202 619.394L342.912 620.854C342.852 620.864 342.772 620.864 342.672 620.884Z" fill="white"/>
<path d="M317.322 643.214C316.852 643.304 316.472 643.304 316.192 643.184C315.922 643.074 315.752 642.844 315.692 642.504C315.622 642.174 315.662 641.754 315.802 641.234C315.942 640.714 316.132 640.214 316.432 639.694C316.712 639.184 317.062 638.694 317.492 638.214C317.922 637.724 318.432 637.264 318.982 636.834C319.562 636.394 320.212 635.984 320.952 635.604L324.762 633.634L326.032 628.764L327.802 627.844L324.742 639.574L319.162 642.454C318.422 642.854 317.812 643.094 317.322 643.214ZM318.602 638.454C318.082 639.034 317.752 639.644 317.572 640.314C317.402 640.984 317.472 641.384 317.802 641.524C318.122 641.654 318.752 641.484 319.702 640.994L323.322 639.124L324.392 635.004L320.772 636.874C319.832 637.374 319.102 637.904 318.602 638.454Z" fill="white"/>
<path d="M308.582 640.924C308.572 640.414 308.452 640.024 308.202 639.774C307.962 639.514 307.612 639.404 307.152 639.414C306.692 639.424 306.152 639.584 305.522 639.874C304.962 640.134 304.442 640.454 303.922 640.864C303.422 641.254 302.972 641.674 302.562 642.124C302.132 642.594 301.772 643.054 301.452 643.524C301.142 643.994 300.882 644.454 300.692 644.884L299.002 645.674C299.152 645.304 299.342 644.914 299.582 644.484C299.842 644.044 300.122 643.614 300.452 643.174C300.782 642.734 301.132 642.294 301.542 641.844C301.932 641.404 302.362 640.974 302.842 640.544C303.312 640.134 303.812 639.744 304.342 639.394C304.862 639.034 305.402 638.724 305.992 638.454C306.392 638.264 306.802 638.104 307.232 637.974C307.662 637.834 308.072 637.754 308.452 637.734C308.852 637.694 309.192 637.744 309.512 637.854C309.832 637.964 310.072 638.184 310.242 638.494C310.402 638.804 310.482 639.244 310.462 639.784C310.462 640.314 310.322 641.014 310.052 641.844C309.792 642.654 309.462 643.444 309.102 644.164C308.742 644.884 308.322 645.554 307.872 646.174C307.432 646.784 306.952 647.354 306.452 647.874C305.962 648.394 305.462 648.854 304.932 649.294C304.412 649.714 303.892 650.084 303.382 650.404C302.862 650.714 302.352 651.004 301.882 651.224C301.282 651.504 300.762 651.694 300.312 651.814C299.862 651.924 299.472 651.974 299.132 651.984C298.812 651.964 298.562 651.874 298.352 651.764C298.142 651.644 297.972 651.494 297.862 651.304C297.752 651.114 297.702 650.874 297.692 650.624C297.682 650.374 297.702 650.114 297.772 649.844L299.482 649.044C299.472 649.384 299.522 649.664 299.642 649.864C299.762 650.064 299.932 650.214 300.192 650.264C300.432 650.324 300.732 650.324 301.072 650.264C301.442 650.174 301.842 650.044 302.272 649.844C302.942 649.524 303.582 649.124 304.202 648.634C304.802 648.164 305.382 647.604 305.902 647.004C306.422 646.384 306.892 645.734 307.292 645.034C307.682 644.334 308.012 643.584 308.252 642.844C308.472 642.074 308.582 641.434 308.582 640.924Z" fill="white"/>
<path d="M282.742 648.844L278.002 661.364L276.292 662.074L281.032 649.554L282.742 648.844ZM286.142 653.644C285.382 653.964 284.752 654.144 284.252 654.204C283.752 654.264 283.382 654.214 283.142 654.044C282.892 653.884 282.762 653.614 282.762 653.234C282.752 652.854 282.862 652.384 283.072 651.814C283.282 651.254 283.562 650.714 283.912 650.204C284.262 649.674 284.682 649.164 285.132 648.714C285.592 648.264 286.112 647.824 286.682 647.444C287.242 647.064 287.862 646.734 288.502 646.464L294.032 644.174L289.292 656.694L287.582 657.404L289.542 652.244L286.142 653.644ZM287.162 648.344C286.822 648.554 286.532 648.784 286.232 649.054C285.952 649.314 285.692 649.614 285.452 649.954C285.222 650.284 285.032 650.654 284.882 651.074C284.722 651.494 284.642 651.824 284.662 652.044C284.702 652.264 284.812 652.414 284.972 652.504C285.162 652.554 285.422 652.554 285.722 652.504C286.052 652.424 286.432 652.304 286.852 652.124L290.092 650.784L291.772 646.354L288.162 647.844C287.822 647.974 287.492 648.144 287.162 648.344Z" fill="white"/>
<path d="M257.462 657.854L252.142 669.324L258.642 667.214L263.962 655.744L265.592 655.214L259.572 668.204L249.812 671.384L255.832 658.394L257.462 657.854Z" fill="white"/>
<path d="M236.212 668.034C236.602 667.434 237.032 666.864 237.502 666.294C237.982 665.724 238.472 665.174 239.012 664.654C239.552 664.124 240.132 663.644 240.722 663.214C241.322 662.774 241.932 662.384 242.562 662.054C243.202 661.724 243.842 661.474 244.492 661.304C245.132 661.134 245.692 661.064 246.142 661.104C246.572 661.154 246.932 661.274 247.192 661.494C247.442 661.704 247.622 661.984 247.702 662.344C247.802 662.694 247.822 663.104 247.752 663.574C247.702 664.034 247.572 664.524 247.392 665.064C247.202 665.594 246.962 666.144 246.672 666.724C246.142 667.754 245.532 668.714 244.832 669.644C244.132 670.564 243.372 671.394 242.582 672.134C241.772 672.874 240.922 673.514 240.042 674.034C239.142 674.574 238.252 674.954 237.342 675.194C236.442 675.434 235.702 675.484 235.172 675.324C234.622 675.184 234.272 674.864 234.092 674.384C233.912 673.904 233.932 673.264 234.102 672.484C234.282 671.684 234.632 670.804 235.162 669.774C235.462 669.194 235.812 668.614 236.212 668.034ZM235.912 671.454C235.752 672.074 235.732 672.564 235.832 672.954C235.952 673.334 236.202 673.584 236.582 673.714C236.962 673.854 237.492 673.824 238.152 673.654C238.812 673.484 239.462 673.194 240.132 672.784C240.772 672.394 241.412 671.904 242.002 671.334C242.612 670.764 243.182 670.114 243.702 669.404C244.222 668.694 244.702 667.934 245.102 667.154C245.522 666.344 245.812 665.624 245.982 665.024C246.142 664.404 246.172 663.904 246.072 663.524C245.972 663.134 245.712 662.904 245.342 662.764C244.952 662.644 244.412 662.674 243.702 662.864C242.992 663.054 242.322 663.344 241.662 663.734C240.992 664.154 240.372 664.614 239.782 665.184C239.192 665.754 238.652 666.394 238.142 667.094C237.632 667.784 237.172 668.544 236.752 669.354C236.352 670.124 236.072 670.834 235.912 671.454Z" fill="white"/>
<path d="M217.612 667.234L210.612 679.124L216.502 678.164L223.502 666.274L224.982 666.034L217.052 679.504L208.202 680.954L216.132 667.484L217.612 667.234Z" fill="white"/>
<path d="M196.062 682.024C195.782 681.854 195.592 681.624 195.532 681.314C195.472 681.004 195.522 680.604 195.702 680.124C195.862 679.644 196.142 679.124 196.522 678.524C196.902 677.924 197.302 677.384 197.762 676.884C198.202 676.384 198.672 675.944 199.172 675.584C199.682 675.194 200.202 674.904 200.732 674.674C201.282 674.444 201.842 674.304 202.432 674.254L205.462 673.974L209.032 668.344L210.442 668.214L201.852 681.764L197.402 682.184C196.812 682.224 196.372 682.174 196.062 682.024ZM199.562 676.564C198.962 677.014 198.432 677.614 197.942 678.384C197.452 679.154 197.242 679.724 197.322 680.114C197.392 680.484 197.812 680.634 198.562 680.564L201.452 680.294L204.472 675.534L201.582 675.804C200.812 675.884 200.142 676.144 199.562 676.564Z" fill="white"/>
<path d="M184.792 674.414C185.272 673.824 185.772 673.274 186.312 672.744C186.852 672.214 187.392 671.714 187.972 671.264C188.542 670.804 189.142 670.404 189.722 670.074C190.312 669.724 190.902 669.454 191.492 669.264C192.082 669.064 192.642 668.964 193.202 668.964C193.742 668.954 194.202 669.044 194.532 669.224C194.852 669.404 195.092 669.664 195.222 670.004C195.352 670.324 195.402 670.714 195.362 671.164C195.332 671.614 195.222 672.104 195.032 672.634C194.852 673.164 194.602 673.714 194.302 674.294C194.002 674.864 193.642 675.444 193.242 676.034C192.522 677.094 191.762 678.044 190.942 678.934C190.122 679.804 189.292 680.564 188.462 681.204C187.622 681.834 186.772 682.334 185.942 682.684C185.082 683.054 184.282 683.234 183.522 683.244C182.752 683.254 182.172 683.094 181.822 682.744C181.442 682.414 181.272 681.924 181.282 681.304C181.292 680.684 181.492 679.934 181.862 679.064C182.242 678.174 182.772 677.234 183.492 676.174C183.872 675.564 184.312 674.984 184.792 674.414ZM183.532 678.364C183.222 679.044 183.062 679.624 183.022 680.114C182.992 680.604 183.112 680.974 183.362 681.234C183.612 681.514 184.022 681.634 184.582 681.634C185.142 681.624 185.732 681.484 186.372 681.194C186.982 680.924 187.622 680.544 188.242 680.044C188.882 679.544 189.522 678.954 190.132 678.274C190.752 677.594 191.352 676.834 191.892 676.034C192.462 675.204 192.902 674.444 193.212 673.784C193.522 673.104 193.702 672.524 193.742 672.034C193.782 671.544 193.652 671.194 193.412 670.914C193.142 670.654 192.722 670.534 192.122 670.534C191.522 670.544 190.912 670.684 190.292 670.954C189.652 671.244 189.032 671.604 188.402 672.104C187.772 672.604 187.162 673.194 186.562 673.874C185.962 674.534 185.372 675.294 184.812 676.134C184.272 676.934 183.842 677.684 183.532 678.364Z" fill="white"/>
<path d="M173.582 681.054L182.232 669.064L183.502 669.154L173.702 682.734L168.142 682.354L169.292 680.764L173.582 681.054Z" fill="white"/>
<path d="M158.622 680.774C158.432 680.514 158.332 680.204 158.352 679.824C158.372 679.444 158.512 679.004 158.782 678.494C159.032 677.984 159.382 677.454 159.842 676.844C160.302 676.244 160.752 675.724 161.242 675.254C161.722 674.784 162.212 674.394 162.712 674.094C163.222 673.774 163.722 673.554 164.212 673.424C164.712 673.294 165.212 673.264 165.712 673.344L168.272 673.744L172.542 668.134L173.732 668.314L163.442 681.834L159.692 681.254C159.192 681.174 158.842 681.014 158.622 680.774ZM162.802 675.334C162.202 675.704 161.622 676.264 161.032 677.034C160.442 677.804 160.132 678.414 160.102 678.874C160.072 679.314 160.372 679.594 161.012 679.684L163.452 680.064L167.062 675.324L164.622 674.944C163.992 674.844 163.372 674.984 162.802 675.334Z" fill="white"/>
<path d="M155.922 664.594L157.162 664.914L154.732 669.254L157.992 670.114L162.222 666.244L163.392 666.554L149.312 679.354L147.972 679.004L155.922 664.594ZM153.892 670.754L150.352 677.044L156.552 671.454L153.892 670.754Z" fill="white"/>
<path d="M146.982 664.104L135.312 674.394L133.852 673.814L145.172 660.564L146.122 660.944L136.602 672.094L136.622 672.104L148.282 661.814L149.292 662.224L141.902 674.224L141.922 674.234L151.442 663.084L152.392 663.464L141.072 676.714L139.612 676.134L146.992 664.134L146.982 664.104Z" fill="white"/>
<path d="M136.292 658.894L124.432 668.714L123.132 667.954L134.952 654.954L135.802 655.454L125.852 666.394L125.872 666.404L137.722 656.584L138.632 657.114L130.592 669.164L130.612 669.174L140.562 658.234L141.412 658.734L129.592 671.734L128.292 670.974L136.322 658.914L136.292 658.894Z" fill="white"/>
<path d="M128.482 654.374L115.542 662.214L114.622 661.474L126.862 648.764L127.662 649.404L117.702 659.744L117.722 659.754L130.712 651.864L131.632 652.604L119.392 665.314L118.592 664.674L128.502 654.394L128.482 654.374Z" fill="white"/>
<path d="M108.662 654.994C108.652 654.584 108.722 654.154 108.902 653.704C109.082 653.254 109.362 652.754 109.752 652.244C110.132 651.714 110.592 651.204 111.162 650.654C111.722 650.104 112.242 649.654 112.772 649.274C113.292 648.894 113.782 648.624 114.232 648.464C114.702 648.284 115.122 648.224 115.502 648.274C115.892 648.324 116.222 648.504 116.512 648.814L118.002 650.414L123.222 645.274L123.922 646.024L111.332 658.414L109.142 656.064C108.852 655.744 108.692 655.394 108.662 654.994ZM113.742 650.034C113.192 650.234 112.562 650.684 111.842 651.394C111.122 652.104 110.662 652.724 110.442 653.284C110.232 653.814 110.312 654.294 110.682 654.694L112.102 656.214L116.522 651.864L115.102 650.344C114.732 649.934 114.272 649.844 113.742 650.034Z" fill="white"/>
<path d="M108.782 637.554C109.372 637.084 109.952 636.684 110.532 636.334C111.112 635.984 111.672 635.674 112.222 635.444C112.772 635.214 113.292 635.064 113.752 635.004C114.232 634.934 114.662 634.954 115.042 635.084C115.422 635.204 115.732 635.444 115.982 635.794C116.222 636.144 116.362 636.554 116.382 637.014C116.402 637.464 116.332 637.964 116.172 638.494C116.022 639.004 115.782 639.554 115.472 640.124C115.162 640.704 114.792 641.284 114.362 641.854C113.942 642.434 113.472 643.004 112.962 643.584C112.462 644.134 111.922 644.684 111.362 645.204C110.352 646.144 109.412 646.904 108.472 647.554C107.552 648.184 106.692 648.644 105.922 648.944C105.142 649.234 104.452 649.344 103.862 649.264C103.252 649.194 102.792 648.914 102.452 648.424C102.112 647.934 101.972 647.344 102.042 646.644C102.092 645.954 102.342 645.204 102.752 644.384C103.162 643.564 103.742 642.704 104.472 641.794C105.222 640.864 106.062 639.964 107.072 639.024C107.622 638.484 108.202 637.994 108.782 637.554ZM105.642 641.984C105.062 642.684 104.612 643.354 104.272 643.974C103.942 644.604 103.752 645.174 103.682 645.684C103.612 646.214 103.702 646.654 103.952 647.004C104.202 647.354 104.542 647.564 105.012 647.594C105.452 647.634 105.982 647.534 106.572 647.294C107.172 647.054 107.832 646.684 108.552 646.184C109.262 645.674 110.022 645.064 110.772 644.364C111.562 643.624 112.252 642.914 112.812 642.244C113.392 641.544 113.852 640.884 114.182 640.264C114.522 639.644 114.692 639.084 114.772 638.564C114.822 638.044 114.722 637.604 114.462 637.224C114.202 636.844 113.842 636.634 113.402 636.584C112.932 636.554 112.432 636.634 111.832 636.884C111.232 637.134 110.592 637.524 109.882 638.034C109.182 638.524 108.442 639.144 107.652 639.884C106.902 640.554 106.222 641.284 105.642 641.984Z" fill="white"/>
<path d="M96.8921 638.024C96.8221 637.784 96.7821 637.534 96.7721 637.274C96.7821 637.024 96.8221 636.744 96.9021 636.444C96.9921 636.154 97.1421 635.824 97.3421 635.484C97.5421 635.144 97.8021 634.774 98.1021 634.414C98.4221 634.044 98.7821 633.674 99.2221 633.284C99.4421 633.094 99.7121 632.884 99.9821 632.684C100.262 632.494 100.542 632.324 100.832 632.164C101.132 632.014 101.412 631.894 101.682 631.844C101.982 631.754 102.222 631.754 102.452 631.804C102.472 631.574 102.522 631.314 102.592 631.034C102.682 630.744 102.812 630.424 103.002 630.074C103.202 629.734 103.462 629.354 103.762 628.964C104.092 628.564 104.512 628.134 105.002 627.704C105.292 627.444 105.602 627.204 105.902 626.974C106.252 626.724 106.572 626.524 106.892 626.364C107.232 626.194 107.562 626.064 107.882 625.964C108.202 625.864 108.502 625.834 108.772 625.844C109.072 625.854 109.322 625.934 109.552 626.074C109.782 626.214 109.972 626.444 110.132 626.754L111.642 629.754L98.4921 641.344L97.2121 638.804C97.0821 638.514 96.9821 638.254 96.8921 638.024ZM108.112 627.604C107.902 627.494 107.662 627.454 107.372 627.514C107.122 627.544 106.822 627.684 106.522 627.864C106.212 628.044 105.892 628.294 105.542 628.594C105.192 628.894 104.902 629.204 104.652 629.504C104.412 629.804 104.192 630.124 104.062 630.424C103.932 630.744 103.872 631.034 103.862 631.344C103.862 631.654 103.942 631.964 104.092 632.274L105.052 634.184L109.632 630.144L108.672 628.234C108.522 627.934 108.332 627.724 108.112 627.604ZM102.192 633.054C101.982 632.964 101.752 632.964 101.512 633.014C101.282 633.074 101.022 633.204 100.752 633.384C100.482 633.584 100.192 633.804 99.9021 634.064C99.5921 634.334 99.3221 634.604 99.1121 634.864C98.9021 635.134 98.7421 635.394 98.6421 635.654C98.5121 635.924 98.4621 636.194 98.4821 636.444C98.4821 636.714 98.5421 636.984 98.6821 637.254L99.5721 639.024L103.632 635.444L102.742 633.674C102.582 633.354 102.402 633.164 102.192 633.054Z" fill="white"/>
<path d="M105.092 614.304L105.512 615.464L101.722 619.704L102.822 622.764L107.222 620.214L107.612 621.304L93.022 629.704L92.572 628.444L105.092 614.304ZM100.402 621.174L94.902 627.304L101.302 623.664L100.402 621.174Z" fill="white"/>
<path d="M94.8221 611.314L89.2621 615.704L89.0022 614.574L102.482 603.934L102.742 605.064L96.3922 610.074L97.4322 614.574L103.782 609.564L104.042 610.694L90.5622 621.334L90.3022 620.204L95.8622 615.814L94.8221 611.314Z" fill="white"/>
<path d="M98.9421 600.004L87.3922 603.544L87.2222 602.134L100.802 592.044L100.952 593.264L89.9122 601.474V601.504L101.522 597.924L101.692 599.334L88.1122 609.424L87.9622 608.204L98.9521 600.044L98.9421 600.004Z" fill="white"/>
<path d="M92.7022 589.574C91.7522 590.184 90.8822 590.654 90.0922 590.964C89.3122 591.284 88.6422 591.424 88.0822 591.424C87.5222 591.424 87.0822 591.254 86.7722 590.904C86.4622 590.564 86.3022 590.044 86.2922 589.334C86.2822 588.584 86.4422 587.794 86.7922 586.974C87.1222 586.154 87.6122 585.334 88.2322 584.504C88.8522 583.674 89.6122 582.864 90.4822 582.054C91.3722 581.234 92.3222 580.484 93.3822 579.744C93.9722 579.334 94.5622 578.974 95.1322 578.644C95.7222 578.324 96.2722 578.064 96.8022 577.864C97.3322 577.664 97.8322 577.524 98.2922 577.454C98.7522 577.394 99.1522 577.424 99.4822 577.544C99.8322 577.654 100.102 577.864 100.292 578.164C100.492 578.484 100.592 578.914 100.602 579.444C100.612 579.954 100.542 580.464 100.372 580.994C100.222 581.524 99.9822 582.064 99.7022 582.584C99.4222 583.104 99.0822 583.644 98.6922 584.164C98.3022 584.684 97.8622 585.204 97.3922 585.694C96.9222 586.214 96.4322 586.674 95.9022 587.154C95.3722 587.614 94.8422 588.054 94.2922 588.464L94.3122 590.004L100.342 585.834L100.362 587.144L86.7422 596.554L86.7222 595.244L92.7222 591.104L92.7022 589.574ZM91.1722 582.834C90.4922 583.474 89.9022 584.094 89.4122 584.724C88.9222 585.354 88.5522 585.964 88.2922 586.564C88.0122 587.184 87.8822 587.744 87.8922 588.244C87.9022 588.764 88.0422 589.134 88.3322 589.344C88.6022 589.574 88.9922 589.664 89.4822 589.614C89.9822 589.564 90.5722 589.374 91.2522 589.054C91.9322 588.744 92.7022 588.304 93.4922 587.754C94.3322 587.174 95.0822 586.574 95.7522 585.944C96.4322 585.304 97.0222 584.684 97.5122 584.044C98.0022 583.414 98.3522 582.814 98.6322 582.204C98.8922 581.624 99.0222 581.074 99.0122 580.564C99.0022 579.974 98.8622 579.564 98.5922 579.334C98.3022 579.104 97.9322 579.014 97.4422 579.084C96.9422 579.154 96.3522 579.354 95.6722 579.704C95.0022 580.044 94.2422 580.494 93.4122 581.074C92.6122 581.614 91.8522 582.214 91.1722 582.834Z" fill="white"/>
<path d="M88.2722 564.414L88.5022 562.414L93.4622 563.494L102.082 553.934L101.872 555.764L94.5922 563.754L96.5022 564.184L101.222 561.274L101.052 562.704L87.4922 571.064L87.6622 569.634L94.2722 565.554L88.2722 564.414Z" fill="white"/>
<path d="M101.442 548.794C101.512 548.664 101.572 548.554 101.642 548.414L101.822 548.004C101.862 547.884 101.902 547.764 101.922 547.654C101.962 547.434 101.962 547.254 101.922 547.124C101.872 547.014 101.802 546.924 101.702 546.874C101.592 546.844 101.482 546.804 101.322 546.824C101.172 546.844 101.012 546.894 100.842 546.944L89.2122 557.714L89.5322 555.974L99.1422 547.164L90.7222 549.484L91.0322 547.804L100.472 545.534C101.082 545.404 101.622 545.304 102.052 545.244C102.502 545.184 102.832 545.184 103.092 545.264C103.342 545.344 103.522 545.494 103.592 545.724C103.682 545.954 103.672 546.294 103.592 546.724C103.552 546.954 103.472 547.194 103.352 547.454C103.242 547.714 103.112 547.944 102.982 548.114L101.242 549.114C101.302 549.034 101.372 548.924 101.442 548.794Z" fill="white"/>
<path d="M94.1521 535.454C94.4621 534.894 94.8221 534.364 95.2321 533.884C95.6421 533.404 96.1021 532.954 96.6221 532.554C97.1421 532.134 97.6821 531.794 98.2721 531.484C98.8621 531.174 99.3721 530.964 99.8121 530.864C100.262 530.754 100.612 530.764 100.872 530.894C101.152 531.014 101.312 531.264 101.392 531.624C101.462 531.994 101.422 532.494 101.262 533.144L100.452 536.474L105.982 533.554L105.602 535.104L92.2821 542.154L93.4721 537.264C93.6221 536.624 93.8521 536.024 94.1521 535.454ZM99.5021 532.664C99.1821 532.504 98.6521 532.634 97.8921 533.034C97.1321 533.434 96.5121 533.914 96.0121 534.504C95.5321 535.064 95.1821 535.774 94.9821 536.594L94.2121 539.764L98.8921 537.294L99.6721 534.124C99.8621 533.304 99.8021 532.814 99.5021 532.664Z" fill="white"/>
<path d="M105.382 521.284C106.092 520.784 106.742 520.244 107.312 519.674C107.892 519.094 108.372 518.504 108.772 517.894C109.172 517.284 109.462 516.684 109.642 516.104C109.802 515.584 109.842 515.174 109.752 514.864C109.672 514.564 109.522 514.334 109.282 514.204C109.022 514.074 108.732 514.014 108.382 514.024C108.012 514.054 107.632 514.124 107.212 514.284L107.682 512.724C108.052 512.574 108.422 512.454 108.782 512.374C109.142 512.314 109.482 512.284 109.782 512.304C110.082 512.324 110.362 512.394 110.602 512.524C110.852 512.634 111.042 512.814 111.192 513.054C111.322 513.304 111.402 513.614 111.392 514.004C111.402 514.374 111.332 514.824 111.172 515.354C111.062 515.724 110.902 516.124 110.692 516.584C110.492 517.034 110.222 517.524 109.892 518.024C109.582 518.534 109.192 519.044 108.742 519.594C108.292 520.134 107.772 520.674 107.192 521.194C106.612 521.714 105.942 522.244 105.212 522.734C104.482 523.244 103.652 523.714 102.752 524.144C101.872 524.564 101.092 524.874 100.442 525.054C99.7921 525.234 99.2521 525.314 98.8021 525.294C98.3721 525.274 98.0321 525.164 97.7721 524.974C97.5121 524.794 97.3421 524.554 97.2221 524.254C97.1321 523.944 97.1021 523.584 97.1221 523.204C97.1721 522.794 97.2521 522.374 97.3821 521.934C97.5521 521.384 97.7721 520.844 98.0221 520.354C98.2821 519.844 98.5721 519.354 98.8821 518.894C99.2121 518.434 99.5521 518.014 99.9121 517.614C100.272 517.214 100.632 516.834 101.002 516.504C101.372 516.174 101.742 515.874 102.102 515.614C102.462 515.354 102.792 515.134 103.112 514.974L102.632 516.544C102.182 516.844 101.752 517.184 101.362 517.544C100.972 517.904 100.612 518.274 100.302 518.684C99.9921 519.074 99.7121 519.484 99.4821 519.894C99.2621 520.314 99.0721 520.734 98.9521 521.134C98.7621 521.754 98.7221 522.244 98.8321 522.624C98.9221 522.994 99.1521 523.254 99.5021 523.384C99.8721 523.504 100.332 523.524 100.932 523.394C101.532 523.264 102.252 523.004 103.062 522.614C103.882 522.244 104.662 521.784 105.382 521.284Z" fill="white"/>
<path d="M118.362 493.494L105.512 498.974L106.122 497.314L118.962 491.834L118.362 493.494ZM108.612 502.734C108.882 501.994 109.212 501.314 109.592 500.684C109.972 500.054 110.392 499.494 110.832 499.014C111.292 498.514 111.772 498.084 112.302 497.714C112.832 497.344 113.382 497.034 113.972 496.784C114.542 496.544 115.032 496.404 115.422 496.384C115.822 496.354 116.142 496.444 116.342 496.634C116.542 496.824 116.662 497.124 116.662 497.534C116.662 497.944 116.542 498.474 116.312 499.104L114.342 504.494L101.502 509.974L102.112 508.314L107.412 506.054L108.612 502.734ZM114.972 499.064C114.992 498.804 114.952 498.614 114.852 498.474C114.752 498.344 114.582 498.264 114.332 498.274C114.092 498.274 113.752 498.374 113.322 498.554C112.892 498.734 112.512 498.944 112.182 499.184C111.842 499.444 111.542 499.734 111.262 500.044C111.012 500.354 110.782 500.704 110.572 501.074C110.372 501.454 110.202 501.844 110.042 502.264L108.892 505.414L113.432 503.474L114.712 499.954C114.862 499.624 114.932 499.324 114.972 499.064Z" fill="white"/>
<path d="M129.342 467.474L118.472 471.164L115.372 478.044L126.242 474.354L125.462 476.084L113.152 480.264L117.812 469.924L130.122 465.744L129.342 467.474Z" fill="white"/>
<path d="M134.972 448.124C135.432 448.094 135.832 448.124 136.172 448.224C136.512 448.334 136.812 448.484 137.032 448.724C137.252 448.964 137.392 449.284 137.432 449.684C137.492 450.074 137.452 450.544 137.322 451.104C137.182 451.664 136.932 452.304 136.562 453.034C136.202 453.754 135.782 454.454 135.312 455.104C134.852 455.734 134.342 456.354 133.802 456.914C133.292 457.454 132.732 457.974 132.152 458.434C131.572 458.914 130.992 459.324 130.412 459.674C129.832 460.044 129.262 460.344 128.682 460.614C128.132 460.864 127.592 461.064 127.072 461.204C126.142 461.464 125.392 461.554 124.752 461.474C124.132 461.394 123.682 461.154 123.402 460.784C123.132 460.384 123.042 459.834 123.142 459.124C123.232 458.404 123.532 457.544 124.042 456.534C124.552 455.524 125.162 454.564 125.872 453.684C126.572 452.794 127.342 452.014 128.162 451.304C128.982 450.604 129.852 450.014 130.762 449.504C131.692 448.994 132.592 448.614 133.522 448.354C134.052 448.224 134.542 448.134 134.972 448.124ZM130.542 450.984C129.842 451.354 129.172 451.814 128.552 452.314C127.922 452.844 127.342 453.424 126.822 454.064C126.282 454.724 125.832 455.414 125.462 456.144C125.092 456.874 124.882 457.504 124.832 458.024C124.782 458.524 124.862 458.934 125.102 459.194C125.332 459.474 125.692 459.644 126.182 459.674C126.672 459.704 127.282 459.634 127.982 459.434C128.712 459.224 129.422 458.954 130.092 458.604C130.792 458.234 131.452 457.794 132.072 457.294C132.692 456.784 133.262 456.204 133.792 455.564C134.322 454.914 134.772 454.204 135.172 453.414C135.572 452.624 135.792 451.984 135.852 451.454C135.902 450.934 135.832 450.534 135.592 450.264C135.352 450.004 134.982 449.864 134.472 449.854C133.992 449.814 133.372 449.914 132.642 450.114C131.962 450.324 131.242 450.614 130.542 450.984Z" fill="white"/>
<path d="M153.272 421.884L143.382 423.674L139.262 430.824L149.152 429.034L148.112 430.834L136.912 432.864L143.112 422.124L154.312 420.094L153.272 421.884Z" fill="white"/>
<path d="M152.832 406.534C153.322 405.984 153.812 405.514 154.302 405.124C154.792 404.734 155.282 404.434 155.782 404.224C156.292 403.994 156.752 403.874 157.232 403.814C157.712 403.754 158.082 403.784 158.352 403.934C158.632 404.064 158.802 404.284 158.842 404.614C158.902 404.944 158.832 405.374 158.652 405.884C158.462 406.414 158.132 407.044 157.672 407.804L155.262 411.684L159.702 411.184L158.572 412.994L147.862 414.194L151.402 408.504C151.872 407.744 152.352 407.094 152.832 406.534ZM157.112 406.104C157.052 405.704 156.722 405.554 156.112 405.624C155.502 405.694 154.912 405.954 154.312 406.424C153.742 406.874 153.142 407.594 152.542 408.554L150.242 412.244L154.002 411.824L156.302 408.134C156.902 407.164 157.162 406.484 157.112 406.104Z" fill="white"/>
<path d="M173.732 383.804C174.092 383.904 174.392 384.054 174.622 384.294C174.852 384.524 175.032 384.794 175.132 385.144C175.232 385.494 175.242 385.914 175.152 386.404C175.082 386.884 174.912 387.424 174.632 388.044C174.352 388.664 173.972 389.344 173.462 390.104C172.972 390.844 172.432 391.544 171.872 392.174C171.322 392.784 170.752 393.364 170.162 393.864C169.602 394.344 169.022 394.794 168.442 395.164C167.852 395.554 167.282 395.874 166.732 396.114C166.172 396.374 165.642 396.554 165.122 396.704C164.622 396.834 164.142 396.904 163.702 396.924C162.912 396.954 162.302 396.824 161.842 396.544C161.392 396.264 161.122 395.844 161.012 395.314C160.922 394.764 161.022 394.074 161.312 393.274C161.602 392.454 162.092 391.524 162.782 390.484C163.482 389.444 164.232 388.494 165.052 387.664C165.862 386.824 166.682 386.124 167.532 385.544C168.382 384.964 169.222 384.524 170.072 384.194C170.942 383.864 171.752 383.694 172.542 383.664C173.002 383.654 173.402 383.694 173.732 383.804ZM169.462 385.864C168.812 386.094 168.162 386.424 167.522 386.834C166.872 387.264 166.252 387.784 165.662 388.374C165.042 388.984 164.492 389.674 163.982 390.424C163.472 391.184 163.122 391.854 162.932 392.454C162.742 393.034 162.682 393.534 162.782 393.924C162.872 394.324 163.092 394.634 163.462 394.824C163.832 395.014 164.322 395.104 164.922 395.084C165.542 395.064 166.172 394.944 166.792 394.744C167.442 394.514 168.082 394.204 168.712 393.794C169.342 393.384 169.952 392.864 170.562 392.274C171.162 391.664 171.732 390.954 172.272 390.144C172.812 389.334 173.182 388.634 173.392 388.034C173.582 387.434 173.652 386.934 173.552 386.554C173.452 386.174 173.202 385.904 172.822 385.734C172.462 385.544 171.962 385.464 171.342 385.494C170.752 385.504 170.112 385.634 169.462 385.864Z" fill="white"/>
<path d="M174.982 374.794L183.482 375.174L182.192 376.994L172.572 376.564L178.242 368.584L179.372 368.634L174.982 374.794Z" fill="white"/>
<path d="M189.202 354.024C189.742 353.514 190.252 353.084 190.752 352.754C191.252 352.424 191.722 352.194 192.182 352.064C192.652 351.914 193.062 351.884 193.472 351.944C193.882 351.994 194.172 352.114 194.362 352.344C194.562 352.554 194.642 352.854 194.602 353.244C194.572 353.634 194.412 354.104 194.142 354.654C193.862 355.214 193.442 355.864 192.872 356.624L189.962 360.504L193.732 360.984L192.372 362.794L183.292 361.624L187.562 355.924C188.122 355.194 188.662 354.554 189.202 354.024ZM192.812 354.554C192.862 354.084 192.622 353.824 192.102 353.764C191.582 353.704 191.032 353.854 190.432 354.254C189.852 354.634 189.192 355.314 188.472 356.274L185.702 359.974L188.892 360.384L191.662 356.684C192.382 355.714 192.772 355.004 192.812 354.554Z" fill="white"/>
<path d="M213.962 334.854L212.372 336.854L208.642 337.674L204.452 342.954L205.862 345.054L204.362 346.944L199.762 339.914L201.482 337.744L213.962 334.854ZM207.342 337.974L201.962 339.144L203.932 342.284L207.342 337.974Z" fill="white"/>
<path d="M222.892 322.154L219.532 316.014L221.682 313.464L229.442 316.294L228.042 317.964L221.512 315.584L221.482 315.624L224.862 321.744L223.362 323.524L213.682 324.884L213.652 324.924L220.182 327.304L218.782 328.974L211.022 326.144L213.172 323.594L222.862 322.214L222.892 322.154Z" fill="white"/>
<path d="M239.942 302.534L237.392 295.694L239.642 293.184L246.602 296.924L245.132 298.564L239.272 295.414L239.242 295.454L241.812 302.274L240.242 304.024L231.092 304.554L231.062 304.594L236.922 307.744L235.452 309.384L228.492 305.644L230.742 303.134L239.912 302.594L239.942 302.534Z" fill="white"/>
<path d="M253.392 287.494L254.572 277.274L256.452 275.294L262.622 279.894L261.002 281.604L255.982 277.854L255.952 277.894L254.802 288.134L252.922 290.114L246.752 285.514L248.372 283.804L253.362 287.534L253.392 287.494Z" fill="white"/>
<path d="M270.862 260.944C271.432 260.544 271.952 260.224 272.422 260.034C272.892 259.834 273.302 259.764 273.652 259.804C274.022 259.824 274.302 259.964 274.542 260.204C274.782 260.444 274.922 260.724 274.952 261.094C274.992 261.444 274.912 261.854 274.722 262.314C274.532 262.784 274.222 263.304 273.812 263.874C273.382 264.454 272.832 265.084 272.132 265.774L268.542 269.354L270.792 271.584L269.122 273.254L263.702 267.874L268.962 262.624C269.652 261.934 270.282 261.374 270.862 260.944ZM272.992 263.164C273.222 262.594 273.182 262.174 272.872 261.864C272.562 261.554 272.142 261.514 271.572 261.754C271.032 261.974 270.302 262.544 269.412 263.424L266.002 266.834L267.902 268.724L271.312 265.314C272.202 264.434 272.762 263.704 272.992 263.164Z" fill="white"/>
<path d="M294.752 244.414C294.842 244.784 294.872 245.184 294.822 245.644C294.772 246.104 294.672 246.584 294.482 247.104C294.292 247.634 294.022 248.204 293.662 248.784C293.312 249.374 292.882 249.984 292.362 250.624C291.832 251.264 291.222 251.914 290.512 252.594C289.812 253.254 289.122 253.834 288.472 254.304C287.832 254.754 287.212 255.144 286.632 255.434C286.072 255.714 285.532 255.914 285.042 256.034C284.532 256.164 284.082 256.214 283.682 256.174C283.272 256.154 282.922 256.054 282.602 255.904C282.302 255.744 282.052 255.534 281.852 255.264C281.492 254.784 281.312 254.224 281.292 253.544C281.282 252.884 281.432 252.144 281.742 251.374C282.062 250.584 282.562 249.734 283.212 248.854C283.872 247.944 284.692 247.044 285.672 246.114C286.652 245.184 287.602 244.414 288.492 243.854C289.392 243.264 290.202 242.884 290.952 242.654C291.702 242.434 292.352 242.404 292.932 242.524C293.522 242.654 293.982 242.954 294.342 243.434C294.542 243.724 294.682 244.044 294.752 244.414ZM291.562 244.354C291.132 244.234 290.632 244.254 290.092 244.384C289.532 244.534 288.922 244.814 288.282 245.224C287.612 245.634 286.922 246.184 286.212 246.854C285.502 247.534 284.902 248.194 284.422 248.864C283.962 249.504 283.602 250.134 283.402 250.714C283.172 251.304 283.072 251.864 283.112 252.354C283.152 252.844 283.302 253.294 283.572 253.654C283.852 254.034 284.202 254.294 284.602 254.424C285.032 254.544 285.512 254.544 286.062 254.414C286.602 254.284 287.212 253.994 287.862 253.594C288.522 253.174 289.232 252.614 290.002 251.884C290.772 251.154 291.382 250.474 291.862 249.814C292.342 249.144 292.692 248.524 292.902 247.954C293.112 247.374 293.182 246.854 293.122 246.384C293.092 245.894 292.922 245.474 292.642 245.094C292.352 244.714 291.992 244.474 291.562 244.354Z" fill="white"/>
<path d="M305.092 228.594C305.482 228.274 305.862 227.974 306.242 227.714C306.582 227.484 306.922 227.274 307.262 227.104C307.582 226.944 307.882 226.854 308.172 226.784C308.462 226.724 308.722 226.744 308.942 226.804C309.152 226.884 309.332 227.024 309.462 227.254C309.522 227.374 309.562 227.534 309.582 227.724C309.582 227.924 309.562 228.144 309.512 228.384C309.442 228.654 309.342 228.924 309.162 229.244C309.012 229.564 308.782 229.894 308.502 230.264C308.802 230.064 309.112 229.894 309.432 229.724C309.752 229.564 310.062 229.444 310.372 229.364C310.662 229.304 310.942 229.304 311.202 229.344C311.452 229.404 311.652 229.574 311.792 229.834C311.872 229.984 311.922 230.174 311.952 230.374C311.972 230.614 311.952 230.864 311.882 231.134C311.802 231.434 311.682 231.754 311.522 232.104C311.362 232.454 311.132 232.824 310.852 233.214C310.562 233.634 310.222 234.054 309.822 234.494C309.412 234.944 308.922 235.424 308.352 235.934L302.832 240.874L299.032 233.964L303.712 229.774C304.242 229.324 304.702 228.924 305.092 228.594ZM307.032 231.094C307.352 230.724 307.572 230.394 307.722 230.124C307.852 229.864 307.912 229.634 307.912 229.434C307.892 229.254 307.852 229.074 307.762 228.924C307.672 228.764 307.552 228.644 307.392 228.604C307.212 228.574 307.012 228.604 306.742 228.714C306.492 228.794 306.162 228.994 305.792 229.264C305.422 229.524 304.982 229.874 304.492 230.314L301.232 233.234L302.402 235.374L305.662 232.454C306.262 231.914 306.702 231.474 307.032 231.094ZM309.062 233.984C309.412 233.584 309.682 233.234 309.872 232.884C310.052 232.574 310.142 232.294 310.182 232.054C310.212 231.814 310.172 231.604 310.072 231.414C309.972 231.234 309.832 231.114 309.632 231.074C309.442 231.024 309.202 231.044 308.912 231.144C308.602 231.264 308.252 231.464 307.832 231.754C307.402 232.054 306.912 232.454 306.342 232.954L302.822 236.104L304.142 238.514L307.662 235.364C308.232 234.854 308.692 234.404 309.062 233.984Z" fill="white"/>
<path d="M330.172 217.104L328.192 218.784L325.862 217.644L320.642 222.074L320.082 225.654L318.212 227.244L320.142 215.304L322.292 213.484L330.172 217.104ZM325.042 217.264L321.692 215.594L320.792 220.874L325.042 217.264Z" fill="white"/>
<path d="M343.752 200.204L342.852 196.794L344.652 195.354L346.832 203.634L345.032 205.074L344.002 201.174L336.842 206.904L337.872 210.804L336.072 212.244L333.892 203.964L335.692 202.524L336.592 205.934L343.752 200.204Z" fill="white"/>
<path d="M355.532 194.994L361.352 182.554L363.452 180.974L364.782 189.914L362.972 191.284L361.892 184.014L361.852 184.044L356.042 196.514L353.942 198.094L352.612 189.154L354.422 187.784L355.502 195.014L355.532 194.994Z" fill="white"/>
<path d="M375.652 176.474C375.682 175.764 375.852 175.014 376.152 174.234C376.432 173.474 376.852 172.694 377.372 171.934C377.892 171.174 378.522 170.404 379.292 169.644C380.042 168.894 380.912 168.174 381.902 167.484C382.942 166.754 383.882 166.214 384.682 165.914C385.502 165.584 386.182 165.464 386.752 165.524C387.322 165.584 387.732 165.834 388.042 166.254C388.352 166.684 388.512 167.264 388.532 168.014C388.552 168.434 388.502 168.884 388.422 169.354C388.322 169.854 388.172 170.364 387.952 170.894C387.742 171.434 387.462 171.984 387.142 172.544C386.792 173.124 386.382 173.694 385.922 174.254C385.452 174.824 384.912 175.404 384.312 175.964C383.692 176.534 383.012 177.084 382.272 177.604C381.572 178.094 380.922 178.494 380.352 178.774C379.762 179.084 379.242 179.264 378.782 179.384C378.322 179.504 377.892 179.554 377.542 179.514C377.192 179.474 376.872 179.374 376.632 179.204C376.352 179.054 376.172 178.824 376.002 178.554C375.852 178.274 375.742 177.964 375.692 177.594L373.552 179.104L373.712 183.374L371.892 184.654L371.532 175.004L373.352 173.724L373.512 177.974L375.652 176.474ZM386.352 167.914C386.102 167.594 385.792 167.384 385.372 167.314C384.962 167.244 384.462 167.324 383.882 167.534C383.282 167.744 382.642 168.104 381.932 168.594C381.212 169.104 380.572 169.644 380.012 170.254C379.452 170.844 378.972 171.454 378.582 172.084C378.192 172.714 377.912 173.344 377.722 173.974C377.512 174.614 377.422 175.234 377.442 175.804C377.462 176.394 377.602 176.854 377.842 177.164C378.092 177.484 378.402 177.694 378.832 177.744C379.242 177.814 379.742 177.724 380.322 177.524C380.882 177.324 381.532 176.964 382.232 176.474C383.052 175.904 383.742 175.314 384.312 174.724C384.892 174.114 385.362 173.524 385.722 172.904C386.092 172.284 386.362 171.674 386.512 171.064C386.662 170.474 386.742 169.874 386.722 169.274C386.692 168.724 386.582 168.254 386.352 167.914Z" fill="white"/>
<defs>
<linearGradient id="paint0_linear_56_1015" x1="267.569" y1="269.352" x2="500.713" y2="501.706" gradientUnits="userSpaceOnUse">
<stop stop-color="#723AE8"/>
<stop offset="1" stop-color="white" stop-opacity="0"/>
</linearGradient>
</defs>
</svg>
