<svg width="711" height="633" viewBox="0 0 711 633" fill="none" xmlns="http://www.w3.org/2000/svg">
<path d="M439.529 427.921C588.954 314.68 672.326 173.053 625.744 111.588C579.163 50.1222 420.269 92.094 270.844 205.334C121.419 318.575 38.0481 460.202 84.6292 521.667C131.21 583.133 290.105 541.161 439.529 427.921Z" stroke="url(#paint0_linear_56_918)" stroke-width="25.177" stroke-miterlimit="10"/>
<path d="M456.532 97.4641L458.842 96.6441L451.822 102.474L454.392 106.494L452.272 107.244L450.212 103.804L447.492 106.054L445.892 109.494L444.232 110.084L448.812 100.194L450.472 99.6041L448.242 104.424L456.532 97.4641Z" fill="white"/>
<path d="M461.752 103.064C461.832 103.074 461.922 103.074 462.012 103.074L462.342 103.044C462.452 103.024 462.562 102.994 462.682 102.964C462.922 102.894 463.152 102.794 463.372 102.674C463.572 102.564 463.762 102.444 463.942 102.304C464.112 102.164 464.282 102.034 464.432 101.874C464.582 101.724 464.702 101.574 464.812 101.434L464.102 94.8741L465.992 94.2841L466.472 99.7441L473.022 92.0742L474.842 91.5042L467.082 100.274C466.552 100.854 466.072 101.374 465.672 101.794C465.242 102.234 464.862 102.594 464.472 102.904C464.082 103.214 463.692 103.484 463.302 103.684C462.902 103.904 462.482 104.074 462.002 104.224C461.752 104.304 461.532 104.354 461.322 104.364C461.112 104.384 460.962 104.374 460.892 104.324L461.582 103.014C461.612 103.034 461.672 103.054 461.752 103.064Z" fill="white"/>
<path d="M487.242 88.2241C487.612 88.2541 487.882 88.3541 488.042 88.5241C488.202 88.6941 488.252 88.9541 488.182 89.2841C488.132 89.6141 487.962 90.0041 487.692 90.4641C487.422 90.9241 487.122 91.3441 486.742 91.7641C486.372 92.1741 485.962 92.5541 485.502 92.9041C485.032 93.2641 484.522 93.5741 483.982 93.8441C483.422 94.1141 482.822 94.3441 482.172 94.5141L478.792 95.4341L476.292 99.7241L474.722 100.154L480.742 89.8141L485.692 88.4741C486.332 88.2941 486.852 88.2141 487.242 88.2241ZM484.772 92.4041C485.332 91.9841 485.772 91.4941 486.122 90.9041C486.462 90.3141 486.542 89.9141 486.352 89.7041C486.172 89.5041 485.652 89.5041 484.822 89.7341L481.612 90.6041L479.502 94.2341L482.712 93.3641C483.532 93.1241 484.232 92.8041 484.772 92.4041Z" fill="white"/>
<path d="M492.772 92.5541C492.612 93.0441 492.572 93.4441 492.672 93.7341C492.762 94.0441 492.982 94.2341 493.312 94.3341C493.642 94.4341 494.082 94.4241 494.632 94.3041C495.122 94.1941 495.602 94.0241 496.102 93.7641C496.582 93.5141 497.052 93.2341 497.492 92.9141C497.952 92.5741 498.362 92.2241 498.742 91.8641C499.112 91.4941 499.462 91.1241 499.732 90.7641L501.202 90.4341C500.972 90.7441 500.712 91.0741 500.392 91.4141C500.062 91.7641 499.722 92.1041 499.342 92.4441C498.962 92.7841 498.562 93.1041 498.122 93.4341C497.702 93.7541 497.252 94.0541 496.772 94.3441C496.302 94.6141 495.822 94.8641 495.322 95.0541C494.832 95.2641 494.342 95.4241 493.832 95.5441C493.482 95.6241 493.142 95.6741 492.792 95.6941C492.432 95.7241 492.112 95.6941 491.832 95.6241C491.532 95.5641 491.302 95.4241 491.112 95.2441C490.912 95.0641 490.812 94.7941 490.802 94.4641C490.782 94.1341 490.872 93.6941 491.062 93.1941C491.232 92.6941 491.572 92.0641 492.022 91.3441C492.472 90.6441 492.962 89.9741 493.462 89.3941C493.962 88.8041 494.472 88.2741 495.002 87.7941C495.522 87.3241 496.042 86.9041 496.582 86.5341C497.102 86.1641 497.612 85.8541 498.132 85.5741C498.642 85.3141 499.142 85.0841 499.602 84.9041C500.072 84.7341 500.532 84.5941 500.942 84.5041C501.462 84.3841 501.902 84.3341 502.262 84.3341C502.622 84.3441 502.922 84.3841 503.162 84.4741C503.382 84.5741 503.532 84.7141 503.652 84.8741C503.762 85.0341 503.832 85.2241 503.852 85.4341C503.872 85.6441 503.822 85.8841 503.752 86.1241C503.682 86.3641 503.582 86.6041 503.442 86.8441L501.952 87.1741C502.072 86.8541 502.122 86.5841 502.102 86.3641C502.082 86.1441 502.012 85.9541 501.832 85.8441C501.672 85.7241 501.472 85.6541 501.202 85.6241C500.912 85.6141 500.582 85.6341 500.202 85.7241C499.612 85.8541 499.022 86.0741 498.422 86.3841C497.842 86.6741 497.242 87.0641 496.672 87.5041C496.092 87.9641 495.542 88.4641 495.032 89.0241C494.522 89.5941 494.042 90.2141 493.632 90.8541C493.222 91.4841 492.932 92.0641 492.772 92.5541Z" fill="white"/>
<path d="M513.042 86.0741C513.692 85.9641 514.202 85.9441 514.582 86.0141C514.962 86.0841 515.212 86.2241 515.332 86.4341C515.462 86.6441 515.462 86.9341 515.342 87.2941C515.222 87.6541 514.992 88.0741 514.652 88.5641C514.322 89.0441 513.942 89.4841 513.522 89.8841C513.102 90.2941 512.632 90.6741 512.152 90.9941C511.672 91.3141 511.152 91.5941 510.622 91.8141C510.092 92.0341 509.542 92.1941 508.992 92.2841L504.272 93.0841L511.752 82.4241L513.212 82.1741L510.122 86.5741L513.042 86.0741ZM513.922 91.4541L521.402 80.7941L522.862 80.5441L515.382 91.2041L513.922 91.4541ZM510.582 90.8341C510.892 90.7141 511.182 90.5741 511.482 90.3941C511.772 90.2141 512.052 89.9941 512.332 89.7441C512.602 89.4841 512.862 89.1841 513.112 88.8241C513.362 88.4641 513.522 88.1741 513.582 87.9641C513.632 87.7441 513.592 87.5841 513.512 87.4541C513.392 87.3541 513.212 87.2941 512.972 87.2741C512.712 87.2641 512.402 87.2941 512.032 87.3541L509.272 87.8241L506.622 91.5941L509.702 91.0741C509.982 91.0141 510.282 90.9441 510.582 90.8341Z" fill="white"/>
<path d="M535.022 89.1941L542.582 79.6641L537.222 80.0541L529.662 89.5841L528.312 89.6841L536.872 78.8941L544.922 78.3041L536.362 89.0941L535.022 89.1941Z" fill="white"/>
<path d="M553.602 84.8241C553.122 85.2941 552.632 85.7241 552.102 86.1541C551.572 86.5741 551.042 86.9741 550.482 87.3341C549.922 87.6941 549.352 88.0141 548.792 88.2741C548.222 88.5441 547.652 88.7541 547.092 88.9141C546.532 89.0641 545.992 89.1441 545.462 89.1441C544.942 89.1441 544.522 89.0741 544.212 88.9241C543.912 88.7741 543.702 88.5641 543.582 88.2941C543.472 88.0341 543.432 87.7241 543.492 87.3641C543.532 87.0041 543.652 86.6141 543.852 86.1941C544.042 85.7741 544.292 85.3341 544.592 84.8741C544.902 84.4241 545.252 83.9541 545.652 83.4841C546.372 82.6441 547.112 81.8841 547.932 81.1741C548.732 80.4841 549.552 79.8741 550.352 79.3741C551.172 78.8741 551.992 78.4841 552.792 78.2041C553.612 77.9141 554.382 77.7741 555.112 77.7741C555.842 77.7741 556.382 77.9041 556.712 78.1941C557.062 78.4641 557.202 78.8541 557.182 79.3541C557.152 79.8541 556.932 80.4541 556.552 81.1441C556.162 81.8541 555.622 82.6041 554.912 83.4441C554.522 83.9041 554.082 84.3741 553.602 84.8241ZM554.932 81.6641C555.252 81.1241 555.422 80.6541 555.472 80.2641C555.512 79.8741 555.412 79.5741 555.182 79.3641C554.952 79.1441 554.562 79.0341 554.032 79.0341C553.502 79.0341 552.942 79.1441 552.322 79.3741C551.732 79.5841 551.122 79.8841 550.512 80.2841C549.892 80.6741 549.262 81.1441 548.662 81.6841C548.052 82.2241 547.462 82.8341 546.922 83.4641C546.362 84.1241 545.912 84.7341 545.592 85.2541C545.272 85.7941 545.092 86.2641 545.032 86.6541C544.972 87.0441 545.092 87.3341 545.312 87.5541C545.552 87.7641 545.952 87.8641 546.522 87.8641C547.092 87.8641 547.672 87.7541 548.272 87.5441C548.892 87.3141 549.492 87.0341 550.102 86.6341C550.712 86.2441 551.312 85.7741 551.902 85.2341C552.492 84.7041 553.072 84.1041 553.642 83.4441C554.182 82.8141 554.612 82.2041 554.932 81.6641Z" fill="white"/>
<path d="M566.712 90.1741L575.612 80.6641L571.062 80.1141L562.162 89.6241L561.022 89.4841L571.102 78.7141L577.932 79.5341L567.852 90.3041L566.712 90.1741Z" fill="white"/>
<path d="M587.012 81.5241C587.162 81.7541 587.212 82.0141 587.162 82.3341C587.102 82.6441 586.932 83.0041 586.652 83.4141C586.382 83.8241 586.012 84.2541 585.542 84.7241C585.072 85.2041 584.612 85.6041 584.122 85.9741C583.642 86.3441 583.162 86.6341 582.682 86.8541C582.192 87.0941 581.722 87.2441 581.262 87.3241C580.792 87.4041 580.342 87.4041 579.902 87.3041L577.632 86.8241L573.242 91.2641L572.182 91.0341L582.772 80.3441L586.102 81.0541C586.532 81.1541 586.842 81.3141 587.012 81.5241ZM582.712 85.8241C583.292 85.5541 583.872 85.1141 584.472 84.5041C585.072 83.8941 585.412 83.4041 585.482 83.0241C585.552 82.6641 585.302 82.4141 584.742 82.2941L582.582 81.8341L578.862 85.5841L581.022 86.0441C581.592 86.1641 582.162 86.0841 582.712 85.8241Z" fill="white"/>
<path d="M592.632 91.5141C592.092 91.9541 591.552 92.3441 590.992 92.7141C590.432 93.0841 589.882 93.4141 589.312 93.7041C588.752 93.9941 588.192 94.2241 587.672 94.3941C587.132 94.5741 586.622 94.6841 586.142 94.7241C585.652 94.7641 585.212 94.7141 584.812 94.5841C584.422 94.4541 584.122 94.2641 583.942 94.0041C583.772 93.7541 583.682 93.4441 583.702 93.0941C583.712 92.7641 583.802 92.3741 583.982 91.9641C584.152 91.5441 584.392 91.1141 584.702 90.6541C585.002 90.2041 585.362 89.7441 585.762 89.2641C586.162 88.8041 586.612 88.3341 587.092 87.8841C587.952 87.0641 588.802 86.3541 589.692 85.7141C590.562 85.0941 591.412 84.5741 592.212 84.1841C593.022 83.7941 593.792 83.5341 594.512 83.4141C595.252 83.2741 595.882 83.3041 596.432 83.4841C596.982 83.6641 597.352 83.9641 597.492 84.3841C597.662 84.7941 597.622 85.2941 597.412 85.8741C597.202 86.4541 596.812 87.1141 596.262 87.8441C595.702 88.5841 595.012 89.3541 594.142 90.1741C593.672 90.6541 593.162 91.0941 592.632 91.5141ZM594.822 88.0841C595.262 87.5141 595.572 87.0041 595.762 86.5541C595.942 86.1041 595.972 85.7141 595.882 85.4141C595.792 85.0841 595.532 84.8641 595.132 84.7341C594.732 84.6041 594.262 84.5841 593.702 84.7041C593.172 84.8041 592.592 85.0141 591.982 85.3241C591.362 85.6341 590.712 86.0341 590.042 86.5241C589.372 87.0141 588.702 87.5841 588.052 88.2041C587.372 88.8541 586.812 89.4541 586.372 90.0041C585.932 90.5741 585.612 91.0741 585.422 91.5341C585.232 91.9841 585.212 92.3541 585.292 92.6741C585.402 92.9841 585.662 93.2041 586.102 93.3541C586.532 93.4941 587.012 93.5141 587.552 93.4141C588.102 93.2941 588.672 93.1041 589.282 92.7941C589.892 92.4841 590.522 92.0741 591.182 91.5741C591.832 91.0941 592.502 90.5241 593.182 89.8741C593.822 89.2641 594.382 88.6541 594.822 88.0841Z" fill="white"/>
<path d="M602.842 88.0141L592.722 97.2041L591.842 96.8041L603.302 86.3941L607.172 88.1341L605.832 89.3541L602.842 88.0141Z" fill="white"/>
<path d="M613.512 91.9741C613.562 92.2641 613.532 92.5841 613.392 92.9341C613.252 93.2841 613.012 93.6641 612.652 94.0841C612.312 94.5041 611.882 94.9241 611.352 95.3741C610.822 95.8341 610.332 96.2141 609.822 96.5341C609.322 96.8641 608.842 97.1041 608.392 97.2741C607.922 97.4541 607.492 97.5341 607.092 97.5441C606.692 97.5441 606.322 97.4541 605.992 97.2541L604.282 96.2441L599.382 100.494L598.582 100.024L610.382 89.7941L612.892 91.2741C613.232 91.4541 613.432 91.6941 613.512 91.9741ZM608.732 96.0841C609.282 95.8841 609.882 95.4941 610.562 94.9141C611.232 94.3341 611.652 93.8341 611.822 93.4041C611.982 92.9941 611.862 92.6641 611.432 92.4141L609.802 91.4541L605.662 95.0441L607.292 96.0041C607.722 96.2441 608.202 96.2741 608.732 96.0841Z" fill="white"/>
<path d="M610.182 107.944L609.402 107.334L612.562 103.834L610.502 102.214L606.202 104.824L605.462 104.244L619.742 95.6241L620.592 96.2841L610.182 107.944ZM613.642 102.614L618.232 97.5442L611.962 101.294L613.642 102.614Z" fill="white"/>
<path d="M616.442 110.614L628.172 103.774L629.032 104.684L616.582 114.414L616.022 113.814L626.492 105.634L626.482 105.624L614.752 112.474L614.152 111.834L623.372 102.314L623.362 102.304L612.892 110.484L612.332 109.884L624.782 100.154L625.642 101.064L616.432 110.594L616.442 110.614Z" fill="white"/>
<path d="M622.432 118.194L634.152 111.844L634.842 112.884L622.112 122.254L621.662 121.574L632.372 113.694L632.362 113.684L620.652 120.044L620.172 119.324L629.872 109.914L629.862 109.894L619.152 117.774L618.702 117.094L631.432 107.724L632.122 108.764L622.422 118.174L622.432 118.194Z" fill="white"/>
<path d="M626.572 124.394L638.422 120.184L638.842 121.114L625.902 130.104L625.542 129.294L636.062 121.984L636.052 121.964L624.142 126.204L623.722 125.274L636.662 116.284L637.022 117.094L626.552 124.364L626.572 124.394Z" fill="white"/>
<path d="M641.022 128.714C640.892 129.104 640.702 129.484 640.432 129.874C640.152 130.264 639.792 130.654 639.342 131.044C638.892 131.444 638.392 131.824 637.812 132.204C637.232 132.584 636.712 132.884 636.202 133.104C635.702 133.334 635.262 133.464 634.882 133.514C634.482 133.564 634.162 133.514 633.912 133.384C633.652 133.234 633.472 132.984 633.362 132.624L632.812 130.744L627.382 134.314L627.122 133.434L640.202 124.834L641.012 127.594C641.122 127.954 641.122 128.324 641.022 128.714ZM635.742 132.144C636.202 132.094 636.802 131.824 637.542 131.324C638.292 130.834 638.822 130.364 639.162 129.884C639.482 129.434 639.582 128.964 639.452 128.494L638.922 126.704L634.332 129.724L634.862 131.514C635.002 131.994 635.302 132.194 635.742 132.144Z" fill="white"/>
<path d="M635.252 145.174C634.672 145.464 634.132 145.704 633.592 145.894C633.062 146.084 632.562 146.234 632.092 146.314C631.622 146.394 631.202 146.414 630.852 146.344C630.482 146.294 630.182 146.164 629.942 145.954C629.712 145.744 629.562 145.444 629.502 145.044C629.442 144.654 629.482 144.234 629.612 143.794C629.742 143.364 629.962 142.904 630.252 142.444C630.522 142.004 630.872 141.534 631.292 141.074C631.702 140.604 632.152 140.154 632.652 139.714C633.142 139.264 633.662 138.844 634.222 138.424C634.762 138.024 635.332 137.644 635.892 137.284C636.922 136.644 637.852 136.154 638.732 135.784C639.602 135.414 640.372 135.194 641.022 135.104C641.672 135.024 642.212 135.094 642.602 135.314C643.022 135.534 643.262 135.914 643.342 136.454C643.422 136.994 643.342 137.594 643.052 138.234C642.792 138.874 642.372 139.524 641.812 140.194C641.252 140.864 640.552 141.534 639.732 142.224C638.892 142.914 637.992 143.564 636.962 144.204C636.382 144.574 635.812 144.904 635.252 145.174ZM638.942 141.764C639.582 141.244 640.132 140.724 640.572 140.224C641.012 139.714 641.342 139.214 641.552 138.754C641.782 138.264 641.852 137.834 641.792 137.434C641.732 137.034 641.552 136.764 641.222 136.614C640.922 136.464 640.512 136.424 640.002 136.514C639.492 136.594 638.892 136.774 638.222 137.074C637.542 137.374 636.802 137.774 636.032 138.254C635.222 138.754 634.502 139.264 633.872 139.754C633.232 140.274 632.682 140.784 632.242 141.284C631.802 141.784 631.492 142.274 631.262 142.744C631.052 143.224 630.982 143.664 631.052 144.094C631.122 144.514 631.302 144.804 631.612 144.964C631.932 145.114 632.322 145.164 632.832 145.074C633.342 144.984 633.932 144.784 634.612 144.474C635.272 144.184 636.012 143.774 636.822 143.274C637.582 142.794 638.302 142.284 638.942 141.764Z" fill="white"/>
<path d="M643.952 147.664C643.922 147.904 643.872 148.154 643.792 148.404C643.702 148.634 643.582 148.894 643.422 149.154C643.262 149.414 643.042 149.674 642.792 149.954C642.542 150.234 642.232 150.504 641.902 150.774C641.552 151.044 641.172 151.314 640.732 151.564C640.512 151.694 640.252 151.824 639.992 151.944C639.732 152.054 639.472 152.154 639.212 152.224C638.952 152.294 638.712 152.334 638.502 152.314C638.262 152.324 638.082 152.264 637.932 152.164C637.842 152.374 637.722 152.614 637.582 152.854C637.422 153.114 637.222 153.374 636.972 153.664C636.722 153.944 636.412 154.234 636.062 154.524C635.692 154.824 635.252 155.124 634.762 155.414C634.472 155.584 634.172 155.734 633.872 155.874C633.542 156.024 633.242 156.134 632.962 156.214C632.662 156.294 632.382 156.334 632.122 156.344C631.862 156.354 631.632 156.314 631.442 156.234C631.232 156.154 631.082 156.014 630.962 155.824C630.842 155.634 630.782 155.374 630.762 155.044L630.652 151.834L643.872 144.124L643.962 146.844C643.972 147.154 643.962 147.434 643.952 147.664ZM638.522 151.054C638.642 151.194 638.812 151.254 639.002 151.264C639.192 151.264 639.412 151.204 639.672 151.104C639.932 150.984 640.212 150.844 640.502 150.674C640.812 150.494 641.092 150.314 641.332 150.114C641.572 149.914 641.772 149.704 641.932 149.484C642.112 149.264 642.232 149.014 642.302 148.774C642.392 148.524 642.432 148.244 642.422 147.954L642.352 146.064L638.262 148.444L638.332 150.334C638.342 150.674 638.412 150.904 638.522 151.054ZM632.492 154.744C632.612 154.904 632.762 154.994 632.992 155.014C633.182 155.044 633.442 154.994 633.722 154.894C634.002 154.794 634.312 154.644 634.662 154.444C635.012 154.244 635.322 154.024 635.602 153.804C635.872 153.584 636.132 153.334 636.332 153.074C636.532 152.804 636.672 152.544 636.772 152.254C636.872 151.954 636.922 151.654 636.912 151.324L636.842 149.284L632.242 151.964L632.312 154.004C632.312 154.334 632.372 154.574 632.492 154.744Z" fill="white"/>
<path d="M630.332 168.074L630.412 166.874L634.512 163.804L634.722 160.644L630.732 161.964L630.802 160.834L644.022 156.504L643.932 157.804L630.332 168.074ZM635.932 162.734L641.882 158.294L636.102 160.154L635.932 162.734Z" fill="white"/>
<path d="M636.742 173.434L642.162 170.664L641.982 171.794L628.832 178.524L629.012 177.394L635.202 174.224L635.912 169.714L629.722 172.884L629.902 171.754L643.052 165.024L642.872 166.154L637.452 168.924L636.742 173.434Z" fill="white"/>
<path d="M630.102 183.114L639.552 182.624L639.222 183.994L626.182 190.174L626.472 188.984L637.082 183.954L637.092 183.934L627.582 184.444L627.912 183.074L640.952 176.894L640.662 178.084L630.112 183.084L630.102 183.114Z" fill="white"/>
<path d="M631.182 194.514C632.062 194.164 632.842 193.944 633.502 193.844C634.162 193.734 634.692 193.764 635.092 193.904C635.492 194.044 635.752 194.304 635.862 194.714C635.972 195.114 635.922 195.644 635.692 196.314C635.452 197.024 635.082 197.734 634.562 198.424C634.052 199.124 633.442 199.774 632.722 200.404C632.002 201.034 631.202 201.614 630.312 202.164C629.402 202.724 628.482 203.194 627.482 203.624C626.922 203.864 626.382 204.064 625.872 204.224C625.342 204.384 624.862 204.494 624.412 204.554C623.962 204.614 623.562 204.624 623.212 204.574C622.862 204.514 622.582 204.394 622.382 204.194C622.172 204.004 622.042 203.744 622.002 203.404C621.962 203.054 622.032 202.624 622.202 202.124C622.362 201.644 622.582 201.174 622.872 200.714C623.152 200.254 623.502 199.804 623.872 199.374C624.242 198.944 624.662 198.524 625.112 198.124C625.562 197.724 626.042 197.344 626.542 196.994C627.052 196.624 627.552 196.304 628.092 195.984C628.622 195.674 629.142 195.394 629.672 195.144L630.162 193.684L624.472 196.134L624.882 194.894L637.732 189.364L637.322 190.604L631.662 193.034L631.182 194.514ZM630.092 201.274C630.792 200.844 631.412 200.394 631.972 199.924C632.532 199.454 633.002 198.964 633.382 198.464C633.782 197.944 634.052 197.454 634.212 196.974C634.372 196.484 634.402 196.094 634.262 195.824C634.142 195.544 633.892 195.364 633.522 195.284C633.152 195.214 632.662 195.244 632.062 195.374C631.472 195.494 630.782 195.724 630.022 196.054C629.232 196.394 628.492 196.774 627.812 197.204C627.112 197.634 626.492 198.084 625.932 198.564C625.372 199.034 624.922 199.524 624.522 200.024C624.142 200.504 623.872 201.004 623.712 201.484C623.522 202.044 623.492 202.464 623.612 202.744C623.742 203.034 623.982 203.204 624.362 203.264C624.742 203.324 625.232 203.274 625.842 203.114C626.432 202.964 627.122 202.714 627.912 202.384C628.662 202.064 629.402 201.694 630.092 201.274Z" fill="white"/>
<path d="M626.182 219.404L625.362 221.234L622.152 218.984L612.842 225.894L613.592 224.214L621.422 218.464L620.182 217.584L615.842 219.164L616.432 217.854L628.902 213.304L628.312 214.614L622.232 216.834L626.182 219.404Z" fill="white"/>
<path d="M611.632 230.914C611.542 231.014 611.462 231.114 611.362 231.224L611.102 231.564C611.032 231.664 610.972 231.774 610.922 231.874C610.822 232.074 610.762 232.244 610.752 232.374C610.752 232.494 610.772 232.594 610.832 232.664C610.902 232.724 610.972 232.784 611.092 232.804C611.212 232.824 611.342 232.814 611.472 232.804L623.332 225.504L622.532 227.074L612.762 233.034L619.572 232.924L618.802 234.434L611.282 234.254C610.802 234.224 610.382 234.184 610.052 234.144C609.712 234.094 609.472 234.004 609.312 233.874C609.152 233.734 609.082 233.554 609.102 233.314C609.112 233.074 609.232 232.754 609.432 232.364C609.542 232.154 609.672 231.944 609.842 231.724C610.012 231.504 610.172 231.324 610.322 231.194L611.902 230.684C611.812 230.724 611.722 230.814 611.632 230.914Z" fill="white"/>
<path d="M612.522 245.334C612.112 245.784 611.692 246.194 611.232 246.554C610.782 246.914 610.302 247.214 609.802 247.464C609.292 247.734 608.792 247.914 608.272 248.064C607.742 248.214 607.312 248.284 606.962 248.264C606.602 248.254 606.352 248.164 606.212 247.974C606.052 247.794 606.012 247.514 606.082 247.154C606.152 246.784 606.342 246.324 606.672 245.754L608.342 242.804L603.412 244.204L604.192 242.834L616.062 239.464L613.612 243.794C613.282 244.354 612.922 244.864 612.522 245.334ZM607.772 246.644C607.952 246.874 608.372 246.884 609.052 246.694C609.732 246.504 610.332 246.204 610.882 245.764C611.412 245.354 611.892 244.764 612.302 244.034L613.892 241.224L609.722 242.404L608.132 245.214C607.722 245.944 607.602 246.424 607.772 246.644Z" fill="white"/>
<path d="M599.842 255.954C599.162 256.254 598.522 256.604 597.932 257.004C597.322 257.414 596.792 257.844 596.302 258.324C595.812 258.804 595.412 259.294 595.092 259.804C594.812 260.254 594.642 260.634 594.612 260.954C594.572 261.264 594.602 261.514 594.732 261.694C594.872 261.884 595.062 262.014 595.312 262.094C595.592 262.154 595.882 262.184 596.242 262.134L595.392 263.494C595.072 263.544 594.772 263.564 594.482 263.544C594.202 263.514 593.952 263.464 593.742 263.364C593.532 263.264 593.352 263.134 593.222 262.954C593.082 262.794 592.992 262.574 592.972 262.304C592.962 262.034 593.002 261.724 593.142 261.354C593.252 261.004 593.452 260.594 593.742 260.134C593.942 259.814 594.182 259.474 594.492 259.084C594.782 258.704 595.142 258.314 595.532 257.914C595.922 257.514 596.372 257.114 596.862 256.714C597.362 256.314 597.912 255.934 598.492 255.584C599.072 255.234 599.732 254.904 600.422 254.614C601.112 254.314 601.862 254.074 602.652 253.884C603.422 253.704 604.082 253.604 604.602 253.594C605.132 253.584 605.542 253.644 605.852 253.764C606.152 253.894 606.362 254.074 606.482 254.324C606.612 254.554 606.662 254.824 606.642 255.144C606.602 255.464 606.512 255.804 606.372 256.164C606.202 256.534 606.012 256.924 605.772 257.304C605.472 257.784 605.132 258.234 604.802 258.644C604.442 259.064 604.082 259.444 603.702 259.814C603.322 260.164 602.932 260.484 602.542 260.774C602.152 261.064 601.772 261.334 601.402 261.554C601.032 261.784 600.672 261.964 600.322 262.124C599.982 262.284 599.672 262.404 599.392 262.484L600.252 261.114C600.672 260.934 601.092 260.724 601.492 260.484C601.892 260.244 602.272 259.974 602.632 259.664C602.982 259.374 603.312 259.054 603.612 258.724C603.912 258.384 604.182 258.034 604.402 257.684C604.742 257.144 604.932 256.694 604.972 256.304C605.032 255.934 604.942 255.624 604.732 255.414C604.502 255.204 604.182 255.074 603.702 255.054C603.222 255.034 602.622 255.094 601.922 255.264C601.232 255.404 600.522 255.654 599.842 255.954Z" fill="white"/>
<path d="M591.482 272.684C591.042 273.324 590.592 273.884 590.112 274.384C589.632 274.884 589.152 275.314 588.672 275.654C588.182 276.014 587.692 276.294 587.192 276.524C586.692 276.744 586.192 276.904 585.692 276.994C585.202 277.084 584.802 277.094 584.522 277.014C584.222 276.934 584.022 276.784 583.942 276.554C583.862 276.324 583.872 276.014 584.002 275.624C584.132 275.234 584.392 274.764 584.762 274.234L587.932 269.624L598.952 267.614L597.972 269.034L593.432 269.864L591.482 272.684ZM585.712 274.594C585.612 274.834 585.582 275.024 585.602 275.184C585.632 275.334 585.732 275.444 585.902 275.504C586.072 275.564 586.352 275.554 586.722 275.484C587.092 275.414 587.432 275.314 587.742 275.164C588.072 275.004 588.382 274.804 588.682 274.574C588.962 274.344 589.242 274.074 589.512 273.774C589.782 273.464 590.032 273.134 590.272 272.784L592.122 270.084L588.222 270.794L586.152 273.804C585.982 274.084 585.822 274.354 585.712 274.594ZM581.462 279.014L592.482 277.004L591.502 278.424L580.482 280.434L581.462 279.014Z" fill="white"/>
<path d="M565.102 300.904L574.122 300.104L578.592 294.364L569.572 295.164L570.692 293.724L580.902 292.814L574.192 301.434L563.982 302.344L565.102 300.904Z" fill="white"/>
<path d="M554.752 317.804C554.412 317.724 554.132 317.594 553.922 317.404C553.712 317.214 553.552 316.994 553.462 316.714C553.382 316.434 553.382 316.094 553.482 315.704C553.572 315.314 553.742 314.884 554.022 314.394C554.302 313.904 554.692 313.354 555.192 312.754C555.682 312.164 556.212 311.604 556.762 311.104C557.302 310.614 557.862 310.164 558.432 309.764C558.972 309.384 559.542 309.034 560.112 308.734C560.682 308.424 561.242 308.174 561.762 307.984C562.302 307.784 562.802 307.634 563.312 307.524C563.792 307.424 564.242 307.374 564.662 307.364C565.412 307.344 565.982 307.454 566.412 307.684C566.832 307.914 567.072 308.244 567.152 308.674C567.222 309.114 567.102 309.664 566.802 310.314C566.502 310.974 566.012 311.704 565.312 312.534C564.622 313.364 563.872 314.124 563.072 314.774C562.272 315.444 561.472 315.994 560.652 316.454C559.832 316.914 559.012 317.254 558.192 317.514C557.362 317.764 556.582 317.904 555.832 317.924C555.452 317.934 555.072 317.904 554.752 317.804ZM558.872 316.194C559.492 316.014 560.122 315.754 560.742 315.424C561.372 315.084 561.972 314.674 562.552 314.204C563.152 313.714 563.702 313.174 564.212 312.574C564.712 311.974 565.072 311.434 565.272 310.954C565.472 310.494 565.542 310.094 565.462 309.784C565.392 309.464 565.182 309.214 564.842 309.054C564.502 308.894 564.032 308.824 563.472 308.834C562.882 308.844 562.282 308.934 561.682 309.094C561.062 309.274 560.442 309.524 559.832 309.844C559.222 310.164 558.622 310.584 558.032 311.054C557.442 311.544 556.882 312.104 556.342 312.744C555.802 313.394 555.432 313.944 555.212 314.424C555.012 314.904 554.922 315.304 555.012 315.614C555.092 315.924 555.322 316.144 555.682 316.284C556.012 316.444 556.492 316.504 557.082 316.494C557.642 316.474 558.252 316.364 558.872 316.194Z" fill="white"/>
<path d="M533.072 338.084L540.762 338.844L546.052 333.104L538.362 332.344L539.692 330.904L548.402 331.764L540.452 340.384L531.742 339.524L533.072 338.084Z" fill="white"/>
<path d="M528.382 352.704C527.852 353.094 527.342 353.424 526.862 353.674C526.382 353.924 525.932 354.084 525.502 354.164C525.062 354.254 524.692 354.264 524.332 354.194C523.972 354.124 523.712 354.004 523.572 353.804C523.412 353.614 523.362 353.364 523.442 353.034C523.502 352.714 523.692 352.324 523.992 351.884C524.302 351.434 524.742 350.914 525.322 350.314L528.322 347.244L524.962 346.614L526.362 345.184L534.452 346.694L530.052 351.204C529.472 351.794 528.912 352.294 528.382 352.704ZM525.172 352.054C525.082 352.444 525.272 352.674 525.732 352.764C526.192 352.854 526.702 352.754 527.282 352.454C527.842 352.174 528.502 351.644 529.242 350.884L532.092 347.964L529.252 347.434L526.402 350.354C525.672 351.104 525.252 351.684 525.172 352.054Z" fill="white"/>
<path d="M505.962 369.024C505.732 368.844 505.572 368.624 505.482 368.344C505.392 368.064 505.352 367.764 505.392 367.414C505.432 367.064 505.572 366.654 505.792 366.224C506.002 365.784 506.302 365.314 506.702 364.794C507.102 364.274 507.602 363.734 508.212 363.134C508.802 362.554 509.422 362.024 510.032 361.574C510.622 361.134 511.222 360.734 511.812 360.404C512.372 360.084 512.932 359.814 513.472 359.604C514.022 359.384 514.542 359.224 515.012 359.134C515.502 359.024 515.932 358.984 516.362 358.974C516.762 358.974 517.132 359.024 517.452 359.124C518.032 359.294 518.422 359.564 518.662 359.944C518.892 360.324 518.952 360.784 518.852 361.314C518.732 361.854 518.442 362.484 517.972 363.174C517.502 363.884 516.842 364.634 516.002 365.444C515.162 366.254 514.312 366.964 513.452 367.544C512.592 368.134 511.782 368.594 510.982 368.934C510.182 369.274 509.432 369.484 508.712 369.574C507.982 369.664 507.342 369.634 506.762 369.464C506.442 369.354 506.172 369.214 505.962 369.024ZM509.702 368.134C510.242 368.084 510.822 367.924 511.412 367.694C512.012 367.444 512.632 367.114 513.252 366.694C513.892 366.264 514.512 365.754 515.122 365.164C515.732 364.574 516.212 364.024 516.542 363.504C516.872 363.004 517.072 362.544 517.122 362.154C517.192 361.754 517.132 361.404 516.922 361.134C516.722 360.864 516.392 360.654 515.962 360.524C515.512 360.394 515.022 360.344 514.502 360.384C513.962 360.434 513.402 360.584 512.812 360.814C512.222 361.044 511.612 361.384 510.992 361.794C510.362 362.224 509.722 362.754 509.072 363.384C508.412 364.014 507.922 364.584 507.582 365.104C507.252 365.624 507.032 366.074 506.982 366.464C506.932 366.854 507.022 367.164 507.242 367.424C507.432 367.694 507.772 367.884 508.232 368.024C508.662 368.154 509.162 368.194 509.702 368.134Z" fill="white"/>
<path d="M502.132 377.244L496.152 374.784L497.672 373.384L504.442 376.174L497.772 382.324L496.982 381.994L502.132 377.244Z" fill="white"/>
<path d="M485.152 393.354C484.602 393.704 484.092 393.984 483.622 394.174C483.162 394.364 482.742 394.464 482.372 394.464C481.982 394.484 481.682 394.414 481.412 394.264C481.142 394.114 480.962 393.924 480.902 393.664C480.822 393.414 480.862 393.114 481.022 392.754C481.172 392.394 481.442 391.984 481.812 391.534C482.202 391.074 482.712 390.564 483.362 389.984L486.722 387.034L484.172 385.644L485.732 384.264L491.882 387.614L486.962 391.944C486.312 392.524 485.712 392.984 485.152 393.354ZM482.732 391.964C482.542 392.394 482.632 392.694 482.982 392.894C483.332 393.084 483.782 393.074 484.342 392.844C484.882 392.624 485.582 392.144 486.412 391.414L489.602 388.604L487.442 387.424L484.252 390.234C483.422 390.964 482.912 391.554 482.732 391.964Z" fill="white"/>
<path d="M461.122 405.364L462.922 403.864L465.862 404.004L470.592 400.044L470.262 397.714L471.952 396.294L472.972 404.084L471.022 405.714L461.122 405.364ZM466.892 404.044L471.142 404.274L470.752 400.824L466.892 404.044Z" fill="white"/>
<path d="M450.572 415.154L450.992 421.784L448.612 423.664L443.952 419.074L445.502 417.844L449.422 421.704L449.452 421.674L449.012 415.054L450.662 413.744L458.062 414.854L458.092 414.824L454.172 410.964L455.722 409.734L460.382 414.324L458.002 416.204L450.582 415.114L450.572 415.154Z" fill="white"/>
<path d="M431.932 429.494L431.532 436.594L429.102 438.414L425.312 433.154L426.902 431.964L430.082 436.394L430.122 436.364L430.502 429.274L432.192 428.014L438.942 429.784L438.982 429.754L435.802 425.324L437.392 424.144L441.182 429.404L438.752 431.224L431.982 429.474L431.932 429.494Z" fill="white"/>
<path d="M417.372 440.384L413.192 449.764L411.202 451.164L408.272 445.284L409.992 444.074L412.382 448.854L412.422 448.824L416.582 439.424L418.572 438.024L421.502 443.904L419.782 445.114L417.412 440.354L417.372 440.384Z" fill="white"/>
<path d="M396.172 461.154C395.632 461.394 395.152 461.564 394.752 461.634C394.352 461.704 394.032 461.674 393.792 461.554C393.532 461.444 393.372 461.244 393.282 460.954C393.182 460.664 393.172 460.364 393.282 460.014C393.372 459.674 393.552 459.304 393.852 458.914C394.142 458.514 394.532 458.094 395.012 457.664C395.512 457.224 396.112 456.764 396.842 456.284L400.582 453.784L399.692 451.114L401.432 449.954L403.572 456.384L398.082 460.044C397.362 460.524 396.732 460.894 396.172 461.154ZM395.362 458.534C395.012 459.014 394.902 459.424 395.022 459.784C395.142 460.154 395.432 460.294 395.922 460.214C396.382 460.134 397.092 459.784 398.012 459.164L401.572 456.784L400.822 454.524L397.262 456.904C396.342 457.534 395.702 458.084 395.362 458.534Z" fill="white"/>
<path d="M373.622 470.874C373.672 470.504 373.792 470.114 373.972 469.694C374.162 469.274 374.382 468.844 374.692 468.394C374.992 467.944 375.382 467.474 375.822 467.004C376.262 466.534 376.772 466.054 377.352 465.584C377.942 465.104 378.592 464.644 379.322 464.184C380.032 463.734 380.722 463.354 381.352 463.074C381.952 462.804 382.532 462.594 383.042 462.464C383.532 462.344 383.992 462.274 384.382 462.294C384.792 462.294 385.132 462.364 385.402 462.494C385.692 462.614 385.912 462.794 386.092 463.014C386.252 463.234 386.372 463.504 386.422 463.804C386.522 464.344 386.472 464.924 386.262 465.564C386.052 466.194 385.702 466.844 385.232 467.504C384.742 468.174 384.112 468.854 383.362 469.524C382.592 470.214 381.712 470.864 380.702 471.504C379.692 472.134 378.762 472.624 377.942 472.944C377.102 473.274 376.392 473.444 375.782 473.464C375.172 473.494 374.692 473.354 374.322 473.094C373.942 472.824 373.702 472.434 373.602 471.884C373.552 471.584 373.542 471.244 373.622 470.874ZM375.892 471.724C376.162 471.944 376.532 472.054 376.962 472.064C377.412 472.064 377.942 471.944 378.542 471.724C379.152 471.504 379.832 471.154 380.562 470.694C381.292 470.234 381.942 469.744 382.502 469.234C383.042 468.744 383.502 468.234 383.842 467.744C384.202 467.234 384.452 466.744 384.592 466.264C384.732 465.784 384.762 465.334 384.692 464.924C384.612 464.494 384.442 464.164 384.202 463.944C383.932 463.724 383.582 463.604 383.152 463.594C382.722 463.584 382.192 463.714 381.592 463.924C380.982 464.154 380.292 464.514 379.502 465.014C378.712 465.514 378.052 466.004 377.492 466.514C376.932 467.024 376.472 467.524 376.132 468.024C375.792 468.514 375.572 468.994 375.462 469.454C375.322 469.924 375.302 470.364 375.392 470.794C375.442 471.184 375.622 471.504 375.892 471.724Z" fill="white"/>
<path d="M361.042 483.274C360.652 483.484 360.282 483.664 359.932 483.824C359.612 483.954 359.302 484.074 359.002 484.154C358.722 484.224 358.472 484.244 358.242 484.224C358.012 484.214 357.832 484.134 357.692 484.024C357.572 483.894 357.482 483.714 357.462 483.464C357.452 483.344 357.482 483.174 357.532 482.994C357.592 482.804 357.682 482.604 357.802 482.384C357.942 482.154 358.092 481.914 358.332 481.664C358.542 481.394 358.812 481.144 359.142 480.864C358.862 480.974 358.582 481.064 358.302 481.144C358.022 481.214 357.752 481.254 357.502 481.244C357.272 481.224 357.072 481.164 356.902 481.064C356.742 480.944 356.652 480.734 356.632 480.454C356.622 480.284 356.652 480.104 356.692 479.904C356.752 479.674 356.852 479.444 356.992 479.194C357.152 478.934 357.342 478.654 357.572 478.364C357.802 478.074 358.092 477.774 358.412 477.474C358.752 477.154 359.132 476.844 359.572 476.514C360.012 476.194 360.522 475.854 361.092 475.514L366.662 472.214L367.142 479.684L362.412 482.484C361.892 482.794 361.432 483.064 361.042 483.274ZM359.942 477.204C359.562 477.494 359.252 477.764 359.002 478.044C358.772 478.294 358.612 478.534 358.512 478.754C358.412 478.974 358.372 479.184 358.382 479.384C358.392 479.584 358.462 479.724 358.582 479.814C358.702 479.904 358.882 479.954 359.122 479.924C359.382 479.884 359.702 479.784 360.092 479.614C360.502 479.434 360.982 479.184 361.552 478.844L365.102 476.744L364.932 474.144L361.382 476.244C360.822 476.584 360.342 476.894 359.942 477.204ZM360.452 480.434C360.102 480.704 359.832 480.964 359.642 481.184C359.462 481.394 359.342 481.594 359.282 481.784C359.232 481.964 359.212 482.144 359.222 482.304C359.232 482.484 359.282 482.614 359.382 482.694C359.502 482.764 359.652 482.794 359.882 482.754C360.092 482.734 360.392 482.634 360.742 482.474C361.092 482.314 361.522 482.104 362.022 481.804L365.312 479.854L365.162 477.544L361.872 479.494C361.282 479.854 360.822 480.154 360.452 480.434Z" fill="white"/>
<path d="M339.272 487.944L341.242 486.844L342.542 488.494L347.732 485.604L349.302 482.354L351.162 481.314L345.892 492.124L343.752 493.314L339.272 487.944ZM343.012 489.054L344.882 491.454L347.252 486.694L343.012 489.054Z" fill="white"/>
<path d="M324.022 500.554L323.552 504.004L321.792 504.924L322.922 496.554L324.682 495.634L324.152 499.574L331.162 495.924L331.692 491.984L333.452 491.064L332.322 499.434L330.562 500.354L331.032 496.904L324.022 500.554Z" fill="white"/>
<path d="M313.852 502.564L305.622 512.884L303.602 513.864L305.562 505.084L307.312 504.234L305.722 511.374L305.762 511.354L314.002 500.994L316.022 500.014L314.062 508.794L312.312 509.644L313.892 502.534L313.852 502.564Z" fill="white"/>
<path d="M293.362 515.104C293.112 515.774 292.742 516.434 292.272 517.104C291.822 517.754 291.262 518.384 290.642 518.984C290.022 519.574 289.322 520.144 288.522 520.674C287.742 521.194 286.882 521.664 285.942 522.074C284.952 522.514 284.112 522.784 283.432 522.874C282.732 522.984 282.212 522.924 281.822 522.734C281.432 522.544 281.212 522.194 281.132 521.724C281.052 521.244 281.122 520.654 281.352 519.934C281.472 519.534 281.652 519.114 281.862 518.694C282.092 518.244 282.372 517.804 282.702 517.354C283.032 516.904 283.402 516.444 283.822 515.994C284.262 515.534 284.742 515.094 285.262 514.674C285.782 514.244 286.362 513.834 286.972 513.454C287.602 513.064 288.272 512.714 288.972 512.404C289.632 512.114 290.232 511.894 290.732 511.774C291.252 511.634 291.692 511.584 292.062 511.584C292.432 511.584 292.752 511.644 292.992 511.774C293.232 511.904 293.422 512.074 293.542 512.294C293.692 512.504 293.752 512.764 293.782 513.064C293.792 513.364 293.772 513.684 293.692 514.044L295.722 513.154L297.002 509.074L298.732 508.314L295.852 517.524L294.122 518.284L295.392 514.224L293.362 515.104ZM282.892 520.544C282.962 520.914 283.122 521.184 283.402 521.354C283.672 521.524 284.062 521.574 284.542 521.514C285.042 521.464 285.622 521.284 286.282 520.994C286.962 520.694 287.602 520.334 288.202 519.904C288.802 519.484 289.342 519.024 289.822 518.524C290.302 518.024 290.712 517.504 291.052 516.954C291.412 516.394 291.682 515.834 291.852 515.294C292.032 514.734 292.082 514.264 292.012 513.904C291.942 513.534 291.782 513.264 291.492 513.104C291.222 512.934 290.832 512.894 290.352 512.944C289.892 512.994 289.302 513.174 288.642 513.464C287.872 513.804 287.172 514.184 286.582 514.604C285.962 515.044 285.442 515.484 284.972 515.974C284.512 516.464 284.112 516.984 283.812 517.514C283.512 518.034 283.262 518.584 283.082 519.154C282.912 519.694 282.832 520.164 282.892 520.544Z" fill="white"/>
<path d="M253.962 534.394L251.642 535.214L258.662 529.384L256.092 525.364L258.212 524.614L260.272 528.054L262.992 525.804L264.592 522.364L266.252 521.774L261.672 531.664L260.012 532.254L262.242 527.434L253.962 534.394Z" fill="white"/>
<path d="M248.732 528.794C248.652 528.784 248.562 528.784 248.472 528.784L248.142 528.814C248.032 528.834 247.922 528.864 247.802 528.894C247.562 528.964 247.332 529.064 247.122 529.184C246.922 529.294 246.732 529.414 246.552 529.554C246.382 529.694 246.212 529.824 246.062 529.984C245.912 530.144 245.792 530.284 245.682 530.424L246.392 536.984L244.502 537.574L244.022 532.114L237.472 539.784L235.652 540.354L243.412 531.584C243.942 531.004 244.422 530.484 244.822 530.064C245.252 529.624 245.632 529.264 246.022 528.954C246.412 528.644 246.802 528.374 247.192 528.174C247.592 527.954 248.012 527.784 248.492 527.634C248.742 527.554 248.962 527.504 249.172 527.494C249.382 527.474 249.522 527.484 249.602 527.534L248.912 528.844C248.872 528.824 248.812 528.804 248.732 528.794Z" fill="white"/>
<path d="M223.252 543.634C222.882 543.604 222.612 543.504 222.452 543.334C222.292 543.164 222.242 542.904 222.312 542.574C222.362 542.244 222.532 541.854 222.802 541.394C223.072 540.934 223.372 540.514 223.752 540.094C224.122 539.684 224.532 539.304 224.992 538.954C225.462 538.594 225.972 538.284 226.512 538.024C227.072 537.754 227.672 537.524 228.322 537.354L231.702 536.434L234.202 532.144L235.772 531.714L229.752 542.054L224.802 543.394C224.152 543.574 223.642 543.654 223.252 543.634ZM225.722 539.464C225.162 539.884 224.722 540.374 224.372 540.964C224.032 541.554 223.952 541.954 224.142 542.164C224.322 542.364 224.842 542.364 225.672 542.134L228.882 541.264L230.992 537.634L227.782 538.504C226.952 538.734 226.252 539.064 225.722 539.464Z" fill="white"/>
<path d="M217.712 539.314C217.872 538.824 217.912 538.424 217.812 538.134C217.722 537.824 217.502 537.634 217.172 537.534C216.842 537.434 216.402 537.444 215.852 537.564C215.362 537.674 214.882 537.844 214.382 538.104C213.902 538.354 213.432 538.634 212.992 538.954C212.532 539.294 212.122 539.634 211.742 540.004C211.372 540.374 211.022 540.744 210.752 541.104L209.282 541.434C209.512 541.124 209.772 540.794 210.092 540.454C210.422 540.104 210.762 539.764 211.142 539.424C211.522 539.084 211.922 538.764 212.362 538.434C212.782 538.114 213.232 537.814 213.712 537.524C214.182 537.254 214.662 537.004 215.162 536.814C215.652 536.604 216.142 536.444 216.652 536.324C217.002 536.244 217.342 536.194 217.692 536.174C218.052 536.144 218.372 536.174 218.652 536.244C218.952 536.304 219.182 536.444 219.372 536.624C219.572 536.804 219.672 537.074 219.682 537.404C219.702 537.734 219.612 538.174 219.422 538.674C219.252 539.174 218.912 539.804 218.462 540.524C218.012 541.224 217.522 541.894 217.022 542.474C216.522 543.064 216.012 543.594 215.482 544.074C214.962 544.544 214.442 544.964 213.902 545.334C213.382 545.704 212.872 546.014 212.352 546.294C211.842 546.554 211.342 546.784 210.882 546.964C210.412 547.134 209.952 547.274 209.542 547.364C209.022 547.484 208.582 547.534 208.222 547.534C207.862 547.524 207.562 547.484 207.322 547.394C207.102 547.294 206.952 547.154 206.832 546.994C206.722 546.834 206.642 546.644 206.632 546.434C206.622 546.224 206.662 545.984 206.732 545.744C206.802 545.504 206.902 545.264 207.042 545.024L208.532 544.694C208.412 545.014 208.362 545.284 208.382 545.504C208.402 545.724 208.472 545.914 208.652 546.024C208.812 546.144 209.012 546.214 209.282 546.244C209.572 546.254 209.902 546.234 210.282 546.144C210.872 546.014 211.462 545.794 212.062 545.484C212.642 545.194 213.242 544.804 213.812 544.364C214.392 543.904 214.942 543.404 215.452 542.844C215.962 542.274 216.442 541.654 216.852 541.014C217.262 540.374 217.552 539.794 217.712 539.314Z" fill="white"/>
<path d="M196.572 540.404L189.092 551.064L187.632 551.314L195.112 540.654L196.572 540.404ZM197.452 545.784C196.802 545.894 196.292 545.914 195.912 545.844C195.532 545.774 195.282 545.634 195.162 545.424C195.032 545.214 195.032 544.924 195.152 544.564C195.272 544.204 195.502 543.784 195.842 543.294C196.172 542.814 196.552 542.374 196.972 541.974C197.392 541.564 197.862 541.184 198.342 540.864C198.822 540.544 199.342 540.264 199.872 540.044C200.402 539.824 200.952 539.664 201.502 539.574L206.222 538.784L198.742 549.444L197.282 549.694L200.362 545.294L197.452 545.784ZM199.912 541.024C199.602 541.144 199.312 541.284 199.012 541.464C198.722 541.644 198.442 541.864 198.162 542.114C197.892 542.374 197.632 542.674 197.382 543.034C197.132 543.394 196.972 543.684 196.912 543.894C196.862 544.114 196.902 544.274 196.982 544.404C197.102 544.504 197.282 544.564 197.522 544.584C197.782 544.594 198.102 544.564 198.462 544.504L201.222 544.034L203.872 540.264L200.792 540.784C200.502 540.844 200.212 540.924 199.912 541.024Z" fill="white"/>
<path d="M175.472 542.674L167.912 552.204L173.272 551.814L180.832 542.284L182.182 542.184L173.622 552.974L165.572 553.564L174.132 542.774L175.472 542.674Z" fill="white"/>
<path d="M156.882 547.034C157.362 546.564 157.852 546.134 158.382 545.704C158.912 545.284 159.442 544.884 160.002 544.524C160.562 544.164 161.132 543.844 161.692 543.584C162.262 543.314 162.832 543.104 163.392 542.944C163.952 542.794 164.492 542.714 165.022 542.714C165.542 542.714 165.962 542.784 166.272 542.934C166.562 543.084 166.782 543.294 166.902 543.564C167.012 543.824 167.052 544.134 166.992 544.494C166.952 544.854 166.832 545.244 166.632 545.664C166.442 546.084 166.192 546.524 165.892 546.984C165.582 547.434 165.232 547.904 164.832 548.374C164.112 549.214 163.372 549.974 162.552 550.684C161.752 551.374 160.932 551.984 160.132 552.484C159.312 552.984 158.492 553.374 157.692 553.654C156.872 553.944 156.102 554.084 155.372 554.084C154.642 554.084 154.102 553.954 153.772 553.664C153.422 553.394 153.282 553.004 153.302 552.504C153.332 552.004 153.552 551.404 153.932 550.714C154.322 550.004 154.862 549.254 155.572 548.414C155.972 547.954 156.402 547.484 156.882 547.034ZM155.552 550.194C155.232 550.734 155.062 551.204 155.012 551.594C154.972 551.984 155.072 552.284 155.302 552.494C155.532 552.714 155.922 552.824 156.452 552.824C156.982 552.824 157.542 552.714 158.162 552.484C158.752 552.274 159.362 551.964 159.972 551.574C160.592 551.184 161.222 550.714 161.822 550.174C162.432 549.634 163.022 549.024 163.562 548.394C164.122 547.734 164.572 547.124 164.892 546.604C165.212 546.064 165.392 545.594 165.452 545.204C165.512 544.814 165.392 544.524 165.172 544.304C164.932 544.094 164.532 543.994 163.962 543.994C163.392 543.994 162.812 544.104 162.212 544.314C161.592 544.544 160.992 544.834 160.382 545.224C159.772 545.614 159.172 546.084 158.582 546.624C157.992 547.154 157.412 547.754 156.842 548.414C156.302 549.054 155.872 549.654 155.552 550.194Z" fill="white"/>
<path d="M143.782 541.684L134.882 551.194L139.432 551.744L148.332 542.234L149.472 542.374L139.392 553.144L132.562 552.324L142.642 541.554L143.782 541.684Z" fill="white"/>
<path d="M123.482 550.334C123.332 550.104 123.282 549.844 123.332 549.524C123.392 549.214 123.562 548.854 123.842 548.444C124.112 548.034 124.482 547.604 124.952 547.134C125.422 546.654 125.882 546.254 126.372 545.884C126.852 545.514 127.332 545.224 127.812 545.004C128.302 544.764 128.772 544.614 129.232 544.534C129.702 544.454 130.152 544.454 130.592 544.554L132.862 545.034L137.252 540.594L138.312 540.824L127.722 551.514L124.392 550.804C123.952 550.704 123.652 550.554 123.482 550.334ZM127.772 546.034C127.192 546.304 126.612 546.744 126.012 547.354C125.412 547.964 125.072 548.454 125.002 548.834C124.932 549.194 125.182 549.444 125.742 549.564L127.902 550.024L131.622 546.274L129.462 545.814C128.892 545.704 128.322 545.774 127.772 546.034Z" fill="white"/>
<path d="M117.862 540.344C118.402 539.904 118.942 539.514 119.502 539.144C120.062 538.774 120.612 538.444 121.182 538.154C121.742 537.864 122.302 537.634 122.822 537.464C123.362 537.284 123.872 537.174 124.362 537.134C124.852 537.094 125.292 537.144 125.692 537.274C126.082 537.404 126.382 537.594 126.562 537.854C126.732 538.104 126.822 538.414 126.802 538.764C126.792 539.094 126.702 539.484 126.522 539.894C126.352 540.314 126.112 540.744 125.802 541.194C125.502 541.654 125.142 542.104 124.742 542.584C124.342 543.044 123.892 543.514 123.412 543.964C122.552 544.784 121.702 545.494 120.812 546.134C119.942 546.754 119.092 547.274 118.292 547.664C117.482 548.054 116.712 548.314 115.992 548.434C115.252 548.574 114.622 548.544 114.072 548.364C113.522 548.184 113.152 547.884 113.012 547.464C112.842 547.054 112.882 546.554 113.092 545.974C113.302 545.394 113.692 544.734 114.242 544.004C114.802 543.264 115.492 542.494 116.362 541.674C116.822 541.214 117.332 540.764 117.862 540.344ZM115.662 543.774C115.222 544.344 114.912 544.854 114.722 545.304C114.542 545.764 114.512 546.144 114.602 546.444C114.692 546.774 114.952 546.994 115.352 547.124C115.752 547.254 116.222 547.274 116.782 547.154C117.312 547.054 117.892 546.844 118.502 546.534C119.122 546.224 119.772 545.824 120.442 545.334C121.112 544.844 121.782 544.274 122.432 543.654C123.112 543.004 123.672 542.404 124.112 541.854C124.552 541.284 124.872 540.784 125.062 540.324C125.252 539.874 125.272 539.504 125.192 539.184C125.082 538.874 124.822 538.654 124.382 538.504C123.952 538.364 123.472 538.344 122.932 538.444C122.382 538.564 121.812 538.754 121.202 539.064C120.592 539.374 119.962 539.784 119.302 540.284C118.652 540.764 117.982 541.334 117.312 541.984C116.662 542.594 116.102 543.204 115.662 543.774Z" fill="white"/>
<path d="M107.642 543.854L117.762 534.664L118.642 535.064L107.182 545.474L103.312 543.734L104.652 542.514L107.642 543.854Z" fill="white"/>
<path d="M96.9821 539.884C96.9321 539.594 96.9621 539.274 97.1021 538.924C97.2421 538.574 97.4821 538.194 97.8421 537.774C98.1821 537.354 98.612 536.934 99.142 536.484C99.672 536.024 100.162 535.644 100.672 535.324C101.172 534.994 101.652 534.754 102.102 534.584C102.572 534.404 103.002 534.324 103.402 534.314C103.812 534.314 104.172 534.404 104.502 534.604L106.212 535.614L111.112 531.364L111.912 531.834L100.112 542.064L97.6021 540.584C97.2621 540.404 97.0621 540.174 96.9821 539.884ZM101.752 535.784C101.202 535.984 100.602 536.374 99.9221 536.954C99.2421 537.534 98.8321 538.034 98.6621 538.464C98.5021 538.874 98.6221 539.204 99.0521 539.454L100.682 540.414L104.822 536.824L103.192 535.864C102.772 535.614 102.282 535.584 101.752 535.784Z" fill="white"/>
<path d="M100.312 523.914L101.092 524.524L97.9321 528.024L99.9921 529.644L104.292 527.034L105.032 527.614L90.7521 536.234L89.9021 535.574L100.312 523.914ZM96.8421 529.244L92.2521 534.314L98.5221 530.564L96.8421 529.244Z" fill="white"/>
<path d="M94.0422 521.244L82.3122 528.084L81.4521 527.174L93.9022 517.444L94.4622 518.044L83.9922 526.224L84.0022 526.234L95.7322 519.384L96.3322 520.024L87.1122 529.544L87.1222 529.554L97.5922 521.374L98.1522 521.974L85.7021 531.704L84.8422 530.794L94.0522 521.264L94.0422 521.244Z" fill="white"/>
<path d="M88.0621 513.674L76.3421 520.024L75.6521 518.984L88.3821 509.614L88.8321 510.294L78.1221 518.174L78.1321 518.184L89.8421 511.824L90.3221 512.544L80.6221 521.954L80.6321 521.964L91.3421 514.084L91.7921 514.764L79.0621 524.134L78.3721 523.094L88.0721 513.684L88.0621 513.674Z" fill="white"/>
<path d="M83.9121 507.464L72.0621 511.674L71.6421 510.744L84.5821 501.754L84.9421 502.564L74.4221 509.874L74.4321 509.894L86.3421 505.654L86.7621 506.584L73.8221 515.574L73.4621 514.764L83.9321 507.494L83.9121 507.464Z" fill="white"/>
<path d="M69.4721 503.154C69.6021 502.764 69.7922 502.384 70.0622 501.994C70.3422 501.604 70.7021 501.214 71.1521 500.824C71.6021 500.424 72.1022 500.044 72.6822 499.664C73.2622 499.284 73.7822 498.984 74.2922 498.764C74.7922 498.534 75.2322 498.404 75.6022 498.354C76.0022 498.304 76.3221 498.354 76.5721 498.484C76.8321 498.634 77.0122 498.884 77.1222 499.244L77.6722 501.124L83.1022 497.554L83.3622 498.434L70.2821 507.034L69.4721 504.274C69.3621 503.904 69.3621 503.534 69.4721 503.154ZM74.7422 499.714C74.2822 499.764 73.6821 500.034 72.9421 500.534C72.1921 501.024 71.6621 501.494 71.3221 501.974C71.0021 502.424 70.9021 502.894 71.0321 503.364L71.5622 505.154L76.1521 502.134L75.6222 500.344C75.4822 499.874 75.1822 499.664 74.7422 499.714Z" fill="white"/>
<path d="M75.2321 486.694C75.8121 486.404 76.3521 486.164 76.8921 485.974C77.4221 485.784 77.9221 485.634 78.3921 485.554C78.8621 485.464 79.282 485.454 79.632 485.524C80.002 485.574 80.3021 485.704 80.5421 485.914C80.7721 486.124 80.9221 486.424 80.9821 486.824C81.0421 487.214 81.0021 487.634 80.8721 488.074C80.7421 488.504 80.5221 488.964 80.2321 489.424C79.9621 489.864 79.6121 490.334 79.2021 490.794C78.7921 491.264 78.3421 491.714 77.8421 492.154C77.3521 492.604 76.8321 493.024 76.2721 493.444C75.7321 493.844 75.1621 494.224 74.6021 494.584C73.5721 495.224 72.6421 495.714 71.7621 496.084C70.8921 496.454 70.1221 496.674 69.4721 496.764C68.8221 496.844 68.2821 496.774 67.8921 496.554C67.4721 496.334 67.2321 495.954 67.1521 495.414C67.0721 494.874 67.152 494.274 67.442 493.634C67.702 492.994 68.1221 492.344 68.6821 491.674C69.2421 491.004 69.9421 490.334 70.7621 489.644C71.6021 488.954 72.5021 488.304 73.5321 487.664C74.1021 487.284 74.6721 486.964 75.2321 486.694ZM71.5421 490.094C70.9021 490.614 70.3521 491.134 69.9121 491.634C69.4721 492.144 69.1421 492.644 68.9321 493.104C68.7021 493.594 68.632 494.024 68.692 494.424C68.752 494.824 68.9321 495.094 69.2621 495.244C69.5621 495.394 69.9721 495.434 70.4821 495.344C70.9921 495.264 71.5921 495.084 72.2621 494.784C72.9321 494.484 73.6821 494.084 74.4521 493.614C75.2621 493.114 75.9821 492.604 76.6121 492.114C77.2521 491.594 77.8021 491.084 78.2421 490.584C78.6821 490.084 78.9921 489.594 79.2221 489.124C79.4321 488.644 79.5021 488.204 79.4321 487.774C79.3621 487.354 79.1821 487.064 78.8721 486.904C78.5521 486.754 78.1621 486.704 77.6521 486.794C77.1421 486.884 76.5521 487.084 75.8721 487.394C75.2121 487.684 74.4721 488.094 73.6621 488.594C72.9121 489.064 72.1821 489.574 71.5421 490.094Z" fill="white"/>
<path d="M66.5421 484.194C66.5721 483.954 66.6221 483.704 66.7021 483.454C66.7921 483.224 66.9121 482.964 67.0721 482.704C67.2321 482.444 67.4521 482.184 67.7021 481.904C67.9521 481.624 68.2621 481.354 68.5921 481.084C68.9421 480.814 69.3221 480.544 69.7621 480.294C69.9821 480.164 70.2421 480.034 70.5021 479.914C70.7621 479.804 71.0221 479.704 71.2821 479.634C71.5421 479.564 71.7821 479.524 71.9921 479.544C72.2321 479.534 72.4121 479.594 72.5621 479.694C72.6521 479.484 72.7721 479.244 72.9121 479.004C73.0721 478.744 73.2721 478.484 73.5221 478.194C73.7721 477.914 74.0821 477.624 74.4321 477.334C74.8021 477.034 75.2421 476.734 75.7321 476.444C76.0221 476.274 76.3221 476.124 76.6221 475.984C76.9521 475.834 77.2521 475.724 77.5321 475.644C77.8321 475.564 78.1121 475.524 78.3721 475.514C78.6321 475.504 78.8621 475.544 79.0521 475.624C79.2621 475.704 79.4121 475.844 79.5321 476.034C79.6521 476.224 79.7221 476.484 79.7321 476.814L79.8421 480.024L66.6221 487.734L66.5321 485.014C66.5221 484.704 66.5321 484.434 66.5421 484.194ZM77.9921 477.114C77.8721 476.954 77.7221 476.864 77.4921 476.844C77.3021 476.814 77.0421 476.874 76.7621 476.964C76.4821 477.064 76.1721 477.214 75.8221 477.414C75.4721 477.614 75.1621 477.834 74.8821 478.054C74.6121 478.274 74.3521 478.524 74.1521 478.784C73.9521 479.054 73.8121 479.314 73.7121 479.604C73.6121 479.904 73.5621 480.204 73.5721 480.534L73.6421 482.574L78.2421 479.894L78.1721 477.854C78.1821 477.524 78.1121 477.284 77.9921 477.114ZM71.9621 480.804C71.8421 480.664 71.6721 480.604 71.4821 480.594C71.2921 480.594 71.0721 480.654 70.8121 480.754C70.5521 480.874 70.2721 481.014 69.9821 481.184C69.6721 481.364 69.3921 481.544 69.1521 481.744C68.9121 481.944 68.7121 482.154 68.5521 482.374C68.3721 482.594 68.2521 482.844 68.1821 483.084C68.1021 483.334 68.0521 483.614 68.0621 483.904L68.1321 485.794L72.2221 483.414L72.1521 481.524C72.1421 481.184 72.0821 480.954 71.9621 480.804Z" fill="white"/>
<path d="M80.1522 463.794L80.0721 464.994L75.9722 468.064L75.7621 471.224L79.7522 469.904L79.6822 471.034L66.4622 475.364L66.5522 474.064L80.1522 463.794ZM74.5522 469.124L68.6022 473.564L74.3821 471.704L74.5522 469.124Z" fill="white"/>
<path d="M73.7522 458.424L68.3322 461.194L68.5121 460.064L81.6622 453.334L81.4822 454.464L75.2922 457.634L74.5822 462.144L80.7722 458.974L80.5922 460.104L67.4421 466.834L67.6222 465.704L73.0422 462.934L73.7522 458.424Z" fill="white"/>
<path d="M80.3821 448.754L70.9321 449.234L71.2621 447.864L84.3021 441.684L84.0121 442.874L73.4021 447.904L73.3921 447.924L82.9021 447.414L82.5721 448.784L69.5321 454.964L69.8221 453.774L80.3721 448.774L80.3821 448.754Z" fill="white"/>
<path d="M79.3022 437.354C78.4222 437.704 77.6422 437.924 76.9822 438.024C76.3222 438.134 75.7922 438.104 75.3922 437.964C74.9922 437.824 74.7322 437.564 74.6222 437.154C74.5122 436.754 74.5622 436.224 74.7822 435.554C75.0222 434.844 75.3922 434.134 75.9122 433.444C76.4222 432.744 77.0322 432.094 77.7522 431.464C78.4722 430.834 79.2722 430.254 80.1622 429.704C81.0722 429.144 81.9922 428.674 82.9922 428.244C83.5422 428.004 84.0922 427.804 84.6022 427.644C85.1322 427.484 85.6122 427.374 86.0622 427.314C86.5122 427.254 86.9121 427.244 87.2621 427.294C87.6121 427.354 87.8922 427.474 88.0922 427.674C88.3022 427.864 88.4322 428.124 88.4722 428.464C88.5122 428.814 88.4422 429.244 88.2722 429.744C88.1122 430.224 87.8922 430.694 87.6022 431.154C87.3222 431.614 86.9722 432.064 86.6022 432.494C86.2322 432.924 85.8122 433.344 85.3622 433.734C84.9122 434.134 84.4322 434.514 83.9322 434.864C83.4222 435.234 82.9221 435.554 82.3821 435.874C81.8521 436.184 81.3322 436.464 80.8022 436.714L80.3122 438.174L86.0022 435.724L85.5922 436.964L72.7422 442.494L73.1522 441.254L78.8122 438.824L79.3022 437.354ZM80.4022 430.594C79.7022 431.024 79.0822 431.474 78.5222 431.944C77.9622 432.414 77.4922 432.904 77.1122 433.404C76.7122 433.924 76.4422 434.414 76.2822 434.894C76.1222 435.384 76.1022 435.774 76.2322 436.044C76.3522 436.324 76.6022 436.504 76.9722 436.584C77.3422 436.654 77.8322 436.624 78.4322 436.494C79.0222 436.374 79.7122 436.144 80.4622 435.814C81.2522 435.474 81.9922 435.094 82.6722 434.664C83.3722 434.234 83.9922 433.784 84.5522 433.304C85.1122 432.834 85.5622 432.344 85.9622 431.844C86.3422 431.364 86.6122 430.864 86.7722 430.384C86.9622 429.824 86.9922 429.404 86.8722 429.124C86.7422 428.834 86.5022 428.664 86.1222 428.604C85.7422 428.544 85.2522 428.594 84.6422 428.754C84.0522 428.904 83.3621 429.154 82.5721 429.484C81.8321 429.804 81.0922 430.174 80.4022 430.594Z" fill="white"/>
<path d="M84.3121 412.464L85.132 410.634L88.342 412.884L97.652 405.974L96.902 407.654L89.072 413.404L90.3121 414.284L94.652 412.704L94.0621 414.014L81.592 418.564L82.1821 417.254L88.262 415.034L84.3121 412.464Z" fill="white"/>
<path d="M98.8621 400.944C98.9521 400.844 99.0321 400.744 99.1321 400.634L99.3921 400.294C99.4621 400.194 99.5221 400.084 99.5721 399.984C99.6721 399.784 99.7321 399.614 99.7421 399.484C99.7421 399.364 99.7221 399.264 99.6621 399.194C99.5921 399.134 99.5221 399.074 99.4021 399.054C99.2821 399.034 99.1521 399.044 99.0221 399.054L87.1621 406.354L87.9621 404.784L97.7321 398.824L90.9221 398.934L91.6921 397.424L99.2121 397.604C99.6921 397.634 100.112 397.674 100.442 397.714C100.782 397.764 101.022 397.854 101.182 397.984C101.342 398.124 101.412 398.304 101.392 398.544C101.382 398.784 101.262 399.104 101.062 399.494C100.952 399.704 100.822 399.914 100.652 400.134C100.482 400.354 100.322 400.534 100.172 400.664L98.5921 401.174C98.6821 401.134 98.7621 401.054 98.8621 400.944Z" fill="white"/>
<path d="M97.9621 386.534C98.3721 386.084 98.8021 385.674 99.2521 385.314C99.7021 384.954 100.182 384.654 100.682 384.404C101.192 384.134 101.692 383.954 102.212 383.804C102.742 383.654 103.172 383.584 103.522 383.604C103.882 383.614 104.132 383.704 104.272 383.894C104.432 384.074 104.472 384.354 104.412 384.714C104.342 385.084 104.152 385.544 103.822 386.114L102.152 389.064L107.082 387.664L106.302 389.034L94.4321 392.404L96.8821 388.074C97.2021 387.504 97.5621 386.994 97.9621 386.534ZM102.712 385.224C102.532 384.994 102.112 384.984 101.432 385.174C100.752 385.364 100.152 385.664 99.6021 386.104C99.0721 386.514 98.5921 387.104 98.1821 387.834L96.5921 390.644L100.762 389.464L102.352 386.654C102.762 385.914 102.882 385.434 102.712 385.224Z" fill="white"/>
<path d="M110.642 375.914C111.322 375.614 111.962 375.264 112.552 374.864C113.162 374.454 113.692 374.024 114.182 373.544C114.672 373.064 115.072 372.574 115.392 372.064C115.672 371.614 115.842 371.234 115.872 370.914C115.912 370.604 115.882 370.354 115.752 370.174C115.612 369.984 115.422 369.854 115.162 369.774C114.882 369.714 114.592 369.684 114.232 369.734L115.082 368.374C115.402 368.324 115.702 368.304 115.992 368.324C116.272 368.354 116.522 368.404 116.732 368.504C116.942 368.604 117.122 368.734 117.252 368.914C117.392 369.074 117.482 369.294 117.502 369.564C117.512 369.834 117.472 370.144 117.332 370.514C117.222 370.864 117.022 371.274 116.732 371.734C116.532 372.054 116.292 372.394 115.982 372.784C115.692 373.164 115.332 373.554 114.942 373.954C114.552 374.354 114.102 374.754 113.612 375.154C113.112 375.554 112.562 375.934 111.982 376.284C111.392 376.634 110.742 376.964 110.052 377.254C109.362 377.554 108.612 377.794 107.822 377.984C107.052 378.164 106.392 378.264 105.872 378.274C105.342 378.284 104.932 378.224 104.622 378.104C104.322 377.974 104.112 377.794 103.992 377.544C103.862 377.314 103.812 377.044 103.832 376.724C103.872 376.404 103.962 376.064 104.102 375.704C104.272 375.334 104.462 374.944 104.702 374.564C105.002 374.084 105.342 373.634 105.672 373.224C106.032 372.804 106.392 372.414 106.772 372.054C107.152 371.704 107.542 371.384 107.932 371.094C108.322 370.804 108.702 370.534 109.072 370.314C109.442 370.094 109.802 369.904 110.152 369.744C110.492 369.584 110.802 369.464 111.082 369.384L110.222 370.754C109.802 370.934 109.382 371.144 108.982 371.384C108.582 371.624 108.202 371.894 107.842 372.204C107.492 372.494 107.162 372.814 106.862 373.144C106.562 373.484 106.292 373.834 106.072 374.184C105.732 374.724 105.542 375.174 105.502 375.564C105.442 375.934 105.532 376.244 105.742 376.454C105.972 376.664 106.292 376.794 106.772 376.814C107.252 376.834 107.852 376.764 108.552 376.604C109.262 376.454 109.972 376.214 110.642 375.914Z" fill="white"/>
<path d="M129.022 352.844L118.002 354.854L118.982 353.434L130.002 351.424L129.022 352.844ZM119.012 359.174C119.452 358.534 119.902 357.974 120.382 357.474C120.862 356.974 121.342 356.544 121.822 356.204C122.312 355.844 122.802 355.554 123.302 355.334C123.802 355.114 124.302 354.954 124.802 354.864C125.292 354.774 125.692 354.764 125.972 354.844C126.272 354.924 126.472 355.074 126.552 355.304C126.632 355.534 126.622 355.844 126.492 356.234C126.362 356.624 126.102 357.094 125.732 357.634L122.562 362.244L111.542 364.254L112.522 362.834L117.062 362.004L119.012 359.174ZM124.772 357.274C124.872 357.034 124.902 356.844 124.882 356.684C124.852 356.534 124.752 356.424 124.582 356.364C124.412 356.304 124.132 356.314 123.762 356.384C123.392 356.454 123.052 356.554 122.742 356.694C122.412 356.854 122.102 357.054 121.802 357.284C121.522 357.514 121.242 357.784 120.972 358.084C120.712 358.394 120.452 358.724 120.212 359.074L118.362 361.774L122.262 361.064L124.332 358.054C124.512 357.774 124.662 357.514 124.772 357.274Z" fill="white"/>
<path d="M145.382 330.964L136.362 331.764L131.892 337.504L140.912 336.704L139.792 338.144L129.582 339.054L136.292 330.434L146.502 329.524L145.382 330.964Z" fill="white"/>
<path d="M155.732 314.054C156.072 314.134 156.352 314.264 156.562 314.454C156.772 314.644 156.932 314.864 157.022 315.144C157.102 315.424 157.102 315.764 157.002 316.154C156.912 316.544 156.742 316.974 156.462 317.464C156.182 317.954 155.792 318.504 155.292 319.104C154.802 319.694 154.272 320.254 153.722 320.754C153.182 321.244 152.622 321.694 152.052 322.094C151.512 322.474 150.932 322.824 150.372 323.124C149.802 323.434 149.242 323.684 148.722 323.874C148.182 324.074 147.682 324.224 147.172 324.334C146.692 324.434 146.242 324.484 145.822 324.494C145.072 324.514 144.502 324.404 144.072 324.174C143.652 323.944 143.412 323.614 143.332 323.184C143.262 322.744 143.382 322.194 143.682 321.544C143.982 320.884 144.482 320.154 145.172 319.324C145.862 318.494 146.612 317.734 147.412 317.084C148.212 316.414 149.012 315.864 149.832 315.404C150.652 314.944 151.472 314.604 152.282 314.344C153.112 314.084 153.882 313.954 154.642 313.934C155.042 313.924 155.412 313.964 155.732 314.054ZM151.612 315.674C150.992 315.854 150.362 316.114 149.742 316.444C149.112 316.784 148.502 317.194 147.932 317.664C147.332 318.154 146.782 318.694 146.282 319.294C145.782 319.894 145.422 320.434 145.222 320.914C145.022 321.374 144.952 321.774 145.032 322.084C145.102 322.404 145.302 322.654 145.652 322.814C145.992 322.974 146.462 323.044 147.022 323.034C147.612 323.024 148.212 322.934 148.812 322.774C149.432 322.594 150.052 322.344 150.662 322.024C151.272 321.704 151.872 321.284 152.462 320.814C153.052 320.324 153.612 319.764 154.152 319.124C154.692 318.474 155.062 317.924 155.282 317.444C155.482 316.964 155.572 316.564 155.482 316.254C155.392 315.944 155.172 315.724 154.812 315.584C154.482 315.424 154.002 315.364 153.412 315.374C152.852 315.394 152.232 315.494 151.612 315.674Z" fill="white"/>
<path d="M177.422 293.774L169.732 293.014L164.442 298.754L172.132 299.514L170.802 300.954L162.092 300.094L170.042 291.474L178.752 292.334L177.422 293.774Z" fill="white"/>
<path d="M182.102 279.154C182.632 278.764 183.142 278.434 183.622 278.184C184.102 277.934 184.552 277.774 184.982 277.694C185.422 277.604 185.792 277.594 186.152 277.664C186.512 277.734 186.772 277.854 186.912 278.054C187.072 278.244 187.122 278.494 187.042 278.824C186.982 279.144 186.792 279.534 186.492 279.974C186.182 280.424 185.742 280.944 185.162 281.544L182.162 284.614L185.522 285.244L184.122 286.674L176.032 285.164L180.432 280.654C181.022 280.064 181.572 279.564 182.102 279.154ZM185.322 279.814C185.412 279.424 185.222 279.194 184.762 279.104C184.302 279.014 183.792 279.114 183.212 279.414C182.652 279.694 181.992 280.224 181.252 280.984L178.402 283.904L181.242 284.434L184.092 281.514C184.822 280.754 185.232 280.184 185.322 279.814Z" fill="white"/>
<path d="M204.522 262.844C204.752 263.024 204.912 263.244 205.002 263.524C205.092 263.804 205.132 264.104 205.092 264.454C205.052 264.804 204.912 265.214 204.692 265.644C204.482 266.084 204.182 266.554 203.782 267.074C203.382 267.594 202.882 268.134 202.272 268.734C201.682 269.314 201.062 269.844 200.452 270.294C199.862 270.734 199.262 271.134 198.672 271.464C198.112 271.784 197.552 272.054 197.012 272.264C196.462 272.484 195.942 272.644 195.472 272.734C194.982 272.844 194.552 272.884 194.122 272.894C193.722 272.894 193.352 272.844 193.032 272.744C192.452 272.574 192.062 272.304 191.822 271.924C191.592 271.544 191.532 271.084 191.632 270.554C191.752 270.014 192.042 269.384 192.512 268.694C192.982 267.984 193.642 267.234 194.482 266.424C195.322 265.614 196.172 264.904 197.032 264.324C197.892 263.734 198.702 263.274 199.502 262.934C200.302 262.594 201.052 262.384 201.772 262.294C202.502 262.204 203.142 262.234 203.722 262.404C204.042 262.504 204.322 262.644 204.522 262.844ZM200.782 263.724C200.242 263.774 199.662 263.934 199.072 264.164C198.472 264.414 197.852 264.744 197.232 265.164C196.592 265.594 195.972 266.104 195.362 266.694C194.752 267.284 194.272 267.834 193.942 268.354C193.612 268.854 193.412 269.314 193.362 269.704C193.292 270.104 193.352 270.454 193.562 270.724C193.762 270.994 194.092 271.204 194.522 271.334C194.972 271.464 195.462 271.514 195.982 271.474C196.522 271.424 197.082 271.274 197.672 271.044C198.262 270.814 198.872 270.474 199.492 270.064C200.122 269.634 200.762 269.104 201.412 268.474C202.072 267.844 202.562 267.274 202.902 266.754C203.232 266.234 203.452 265.784 203.502 265.394C203.552 265.004 203.462 264.694 203.242 264.434C203.052 264.164 202.712 263.974 202.252 263.834C201.832 263.704 201.322 263.674 200.782 263.724Z" fill="white"/>
<path d="M208.352 254.624L214.332 257.084L212.812 258.484L206.042 255.694L212.712 249.544L213.502 249.874L208.352 254.624Z" fill="white"/>
<path d="M225.332 238.504C225.882 238.154 226.392 237.874 226.862 237.684C227.322 237.494 227.742 237.394 228.112 237.384C228.502 237.364 228.802 237.434 229.072 237.584C229.342 237.734 229.522 237.924 229.582 238.184C229.662 238.434 229.622 238.734 229.462 239.094C229.312 239.454 229.042 239.864 228.672 240.314C228.282 240.774 227.772 241.284 227.122 241.864L223.762 244.814L226.312 246.204L224.742 247.584L218.592 244.234L223.512 239.904C224.172 239.344 224.772 238.874 225.332 238.504ZM227.762 239.894C227.952 239.464 227.862 239.164 227.512 238.964C227.162 238.774 226.712 238.784 226.152 239.014C225.612 239.234 224.912 239.714 224.082 240.444L220.882 243.254L223.042 244.434L226.242 241.624C227.072 240.894 227.582 240.314 227.762 239.894Z" fill="white"/>
<path d="M249.372 226.504L247.572 228.004L244.632 227.864L239.902 231.824L240.232 234.154L238.532 235.574L237.512 227.784L239.462 226.154L249.372 226.504ZM243.592 227.824L239.342 227.594L239.732 231.044L243.592 227.824Z" fill="white"/>
<path d="M259.912 216.704L259.492 210.074L261.872 208.194L266.532 212.784L264.982 214.014L261.062 210.154L261.032 210.184L261.472 216.804L259.822 218.114L252.422 217.004L252.392 217.034L256.312 220.894L254.762 222.124L250.102 217.534L252.482 215.654L259.902 216.744L259.912 216.704Z" fill="white"/>
<path d="M278.562 202.374L278.962 195.274L281.392 193.454L285.182 198.714L283.592 199.904L280.412 195.474L280.372 195.504L279.992 202.594L278.302 203.854L271.552 202.084L271.522 202.114L274.702 206.544L273.112 207.724L269.322 202.464L271.752 200.644L278.512 202.394L278.562 202.374Z" fill="white"/>
<path d="M293.122 191.484L297.302 182.104L299.292 180.704L302.222 186.584L300.502 187.794L298.112 183.014L298.072 183.044L293.912 192.444L291.922 193.844L288.992 187.964L290.712 186.754L293.082 191.514L293.122 191.484Z" fill="white"/>
<path d="M314.312 170.704C314.852 170.464 315.332 170.294 315.732 170.224C316.132 170.154 316.452 170.184 316.692 170.304C316.952 170.414 317.112 170.614 317.202 170.904C317.302 171.194 317.312 171.494 317.202 171.844C317.112 172.184 316.932 172.554 316.632 172.944C316.342 173.344 315.952 173.764 315.472 174.194C314.972 174.634 314.372 175.094 313.642 175.574L309.902 178.074L310.792 180.744L309.052 181.904L306.912 175.474L312.402 171.814C313.122 171.334 313.762 170.964 314.312 170.704ZM315.122 173.324C315.472 172.844 315.582 172.434 315.462 172.074C315.342 171.704 315.052 171.564 314.562 171.644C314.102 171.724 313.392 172.074 312.472 172.694L308.912 175.074L309.662 177.334L313.222 174.954C314.142 174.324 314.782 173.784 315.122 173.324Z" fill="white"/>
<path d="M336.872 160.984C336.822 161.354 336.702 161.744 336.522 162.164C336.332 162.584 336.112 163.014 335.802 163.464C335.502 163.914 335.112 164.384 334.672 164.854C334.232 165.334 333.722 165.804 333.142 166.274C332.552 166.754 331.902 167.214 331.172 167.674C330.452 168.124 329.772 168.504 329.142 168.784C328.532 169.054 327.962 169.264 327.452 169.394C326.962 169.514 326.502 169.584 326.112 169.564C325.702 169.564 325.362 169.494 325.092 169.364C324.802 169.244 324.582 169.064 324.402 168.844C324.232 168.624 324.122 168.354 324.072 168.054C323.972 167.514 324.022 166.934 324.232 166.294C324.442 165.664 324.792 165.014 325.262 164.354C325.752 163.684 326.382 163.004 327.132 162.334C327.902 161.644 328.782 160.994 329.792 160.354C330.802 159.714 331.732 159.234 332.552 158.914C333.392 158.584 334.102 158.414 334.712 158.394C335.322 158.364 335.802 158.504 336.172 158.764C336.552 159.034 336.792 159.424 336.892 159.974C336.942 160.274 336.942 160.614 336.872 160.984ZM334.592 160.134C334.322 159.914 333.952 159.804 333.522 159.794C333.072 159.794 332.542 159.914 331.942 160.134C331.332 160.354 330.652 160.704 329.922 161.164C329.192 161.624 328.542 162.114 327.982 162.624C327.442 163.114 326.982 163.624 326.642 164.114C326.282 164.624 326.032 165.114 325.892 165.594C325.752 166.074 325.722 166.524 325.802 166.934C325.882 167.364 326.052 167.694 326.292 167.914C326.562 168.134 326.912 168.254 327.342 168.264C327.772 168.274 328.302 168.144 328.902 167.934C329.512 167.704 330.202 167.344 330.992 166.844C331.782 166.344 332.442 165.854 333.002 165.344C333.562 164.834 334.022 164.334 334.362 163.834C334.702 163.344 334.922 162.864 335.032 162.404C335.172 161.934 335.192 161.494 335.102 161.064C335.042 160.674 334.862 160.364 334.592 160.134Z" fill="white"/>
<path d="M349.452 148.584C349.842 148.374 350.212 148.194 350.562 148.034C350.882 147.904 351.192 147.784 351.492 147.704C351.772 147.634 352.022 147.614 352.252 147.634C352.482 147.644 352.662 147.724 352.802 147.834C352.922 147.964 353.012 148.144 353.032 148.394C353.042 148.514 353.012 148.684 352.962 148.864C352.902 149.054 352.812 149.254 352.692 149.474C352.552 149.704 352.392 149.944 352.162 150.194C351.952 150.464 351.682 150.714 351.352 150.994C351.632 150.884 351.912 150.794 352.192 150.714C352.472 150.644 352.742 150.604 352.982 150.614C353.212 150.634 353.412 150.694 353.582 150.794C353.742 150.914 353.832 151.124 353.852 151.404C353.862 151.574 353.842 151.754 353.792 151.954C353.732 152.184 353.632 152.414 353.492 152.664C353.342 152.924 353.142 153.204 352.912 153.494C352.682 153.784 352.392 154.084 352.072 154.384C351.732 154.704 351.352 155.014 350.912 155.344C350.472 155.664 349.962 156.004 349.392 156.344L343.822 159.644L343.342 152.174L348.072 149.374C348.602 149.064 349.062 148.804 349.452 148.584ZM350.032 151.424C350.382 151.154 350.652 150.894 350.842 150.674C351.022 150.464 351.142 150.264 351.202 150.074C351.252 149.894 351.272 149.714 351.262 149.554C351.252 149.374 351.202 149.244 351.102 149.164C350.982 149.094 350.832 149.064 350.602 149.104C350.392 149.124 350.092 149.224 349.742 149.384C349.392 149.544 348.962 149.754 348.462 150.054L345.172 152.004L345.322 154.314L348.612 152.364C349.212 152.004 349.662 151.704 350.032 151.424ZM350.542 154.664C350.922 154.374 351.232 154.104 351.482 153.824C351.712 153.574 351.872 153.334 351.972 153.114C352.072 152.894 352.112 152.684 352.102 152.484C352.092 152.284 352.022 152.144 351.902 152.054C351.782 151.964 351.602 151.914 351.362 151.944C351.102 151.984 350.782 152.084 350.392 152.254C349.982 152.434 349.502 152.684 348.932 153.024L345.382 155.124L345.552 157.724L349.102 155.624C349.662 155.284 350.142 154.964 350.542 154.664Z" fill="white"/>
<path d="M371.212 143.924L369.242 145.024L367.942 143.374L362.752 146.264L361.182 149.514L359.322 150.554L364.592 139.744L366.732 138.554L371.212 143.924ZM367.472 142.804L365.602 140.404L363.232 145.164L367.472 142.804Z" fill="white"/>
<path d="M386.472 131.304L386.942 127.854L388.702 126.934L387.572 135.304L385.812 136.224L386.342 132.284L379.332 135.934L378.802 139.874L377.042 140.794L378.172 132.424L379.932 131.504L379.462 134.954L386.472 131.304Z" fill="white"/>
<path d="M396.632 129.294L404.862 118.974L406.882 117.994L404.922 126.774L403.172 127.624L404.762 120.484L404.722 120.504L396.482 130.864L394.462 131.844L396.422 123.064L398.172 122.224L396.592 129.334L396.632 129.294Z" fill="white"/>
<path d="M417.122 116.764C417.372 116.094 417.742 115.434 418.212 114.764C418.662 114.114 419.222 113.484 419.842 112.884C420.462 112.294 421.162 111.724 421.962 111.194C422.742 110.674 423.602 110.204 424.542 109.794C425.532 109.354 426.372 109.084 427.052 108.994C427.752 108.884 428.272 108.944 428.662 109.134C429.052 109.324 429.272 109.674 429.352 110.144C429.432 110.624 429.362 111.214 429.132 111.934C429.012 112.334 428.832 112.754 428.622 113.174C428.392 113.624 428.112 114.064 427.782 114.514C427.452 114.964 427.082 115.424 426.662 115.874C426.222 116.334 425.742 116.774 425.222 117.194C424.702 117.624 424.122 118.034 423.512 118.414C422.882 118.804 422.212 119.154 421.512 119.464C420.852 119.754 420.252 119.974 419.752 120.094C419.232 120.234 418.792 120.284 418.422 120.284C418.052 120.284 417.732 120.224 417.492 120.094C417.252 119.964 417.062 119.794 416.942 119.574C416.792 119.364 416.732 119.104 416.702 118.804C416.692 118.504 416.712 118.184 416.792 117.824L414.762 118.714L413.482 122.794L411.762 123.554L414.642 114.344L416.372 113.584L415.102 117.634L417.122 116.764ZM427.602 111.324C427.532 110.954 427.372 110.684 427.092 110.514C426.822 110.344 426.432 110.294 425.952 110.354C425.452 110.404 424.872 110.584 424.212 110.874C423.532 111.174 422.892 111.534 422.292 111.964C421.692 112.384 421.152 112.844 420.672 113.344C420.192 113.844 419.782 114.364 419.442 114.914C419.082 115.474 418.812 116.034 418.642 116.574C418.462 117.134 418.412 117.604 418.482 117.964C418.552 118.334 418.712 118.604 419.012 118.764C419.282 118.934 419.672 118.974 420.152 118.924C420.612 118.874 421.202 118.694 421.862 118.404C422.632 118.064 423.332 117.684 423.922 117.264C424.542 116.824 425.062 116.384 425.532 115.894C425.992 115.404 426.392 114.884 426.692 114.354C426.992 113.834 427.242 113.284 427.422 112.714C427.582 112.164 427.652 111.694 427.602 111.324Z" fill="white"/>
<defs>
<linearGradient id="paint0_linear_56_918" x1="270.844" y1="205.334" x2="439.529" y2="427.921" gradientUnits="userSpaceOnUse">
<stop stop-color="#8500B4"/>
<stop offset="1" stop-color="white" stop-opacity="0"/>
</linearGradient>
</defs>
</svg>
