<svg width="849" height="989" viewBox="0 0 849 989" fill="none" xmlns="http://www.w3.org/2000/svg">
<path d="M648.694 614.181C758.901 407.269 747.715 185.991 623.709 119.941C499.702 53.8915 309.835 168.082 199.627 374.994C89.4199 581.905 100.606 803.184 224.613 869.233C348.619 935.283 538.487 821.092 648.694 614.181Z" stroke="url(#paint0_linear_56_1209)" stroke-width="50" stroke-miterlimit="10"/>
<path d="M244.302 290.354L246.432 287.394L244.962 297.714L254.662 296.444L252.712 299.154L244.612 300.084L244.032 304.084L246.852 307.294L245.332 309.414L237.222 300.184L238.742 298.064L242.692 302.564L244.302 290.354Z" fill="white"/>
<path d="M260.212 286.724C260.342 286.634 260.462 286.544 260.612 286.434L261.032 286.054C261.162 285.924 261.282 285.784 261.402 285.634C261.632 285.334 261.822 285.034 261.962 284.744C262.082 284.474 262.182 284.214 262.242 283.944C262.282 283.694 262.332 283.444 262.322 283.214C262.312 282.984 262.272 282.794 262.222 282.594L251.432 280.724L253.282 278.344L262.112 280.034L260.162 269.484L261.942 267.184L263.782 279.554C263.882 280.384 263.952 281.144 263.992 281.774C264.032 282.444 264.002 283.024 263.902 283.584C263.802 284.144 263.632 284.704 263.372 285.224C263.122 285.764 262.762 286.314 262.302 286.914C262.052 287.234 261.802 287.504 261.532 287.744C261.262 287.984 261.022 288.144 260.852 288.214L259.892 286.904C259.972 286.874 260.082 286.804 260.212 286.724Z" fill="white"/>
<path d="M274.972 251.804C275.552 251.404 276.092 251.124 276.582 251.014C277.072 250.904 277.522 250.954 277.912 251.174C278.322 251.374 278.652 251.714 278.952 252.214C279.252 252.714 279.442 253.214 279.512 253.824C279.602 254.404 279.572 255.034 279.412 255.694C279.262 256.374 278.982 257.074 278.602 257.804C278.202 258.544 277.662 259.314 276.982 260.134L273.462 264.334L276.242 268.914L274.602 270.874L267.902 259.844L273.062 253.694C273.752 252.864 274.382 252.244 274.972 251.804ZM277.612 256.314C277.802 255.504 277.702 254.804 277.312 254.174C276.932 253.544 276.452 253.294 275.852 253.424C275.282 253.554 274.542 254.134 273.672 255.174L270.322 259.164L272.672 263.034L276.022 259.044C276.902 258.004 277.432 257.084 277.612 256.314Z" fill="white"/>
<path d="M289.422 247.304C289.912 247.684 290.452 247.894 291.032 247.894C291.612 247.914 292.212 247.744 292.842 247.414C293.472 247.084 294.092 246.574 294.712 245.904C295.262 245.304 295.692 244.694 296.032 244.014C296.362 243.364 296.622 242.724 296.772 242.094C296.932 241.434 297.012 240.824 297.022 240.244C297.012 239.664 296.962 239.134 296.812 238.674L298.452 236.874C298.592 237.264 298.692 237.684 298.752 238.184C298.792 238.704 298.812 239.224 298.762 239.794C298.712 240.354 298.622 240.944 298.472 241.574C298.342 242.184 298.132 242.814 297.862 243.474C297.582 244.114 297.252 244.764 296.832 245.404C296.442 246.044 295.962 246.674 295.402 247.294C295.012 247.724 294.592 248.134 294.112 248.534C293.642 248.954 293.132 249.304 292.622 249.584C292.102 249.904 291.572 250.104 291.012 250.244C290.462 250.394 289.912 250.394 289.392 250.284C288.872 250.164 288.352 249.894 287.872 249.474C287.372 249.074 286.922 248.444 286.512 247.624C286.112 246.824 285.842 246.004 285.682 245.194C285.522 244.384 285.482 243.594 285.522 242.794C285.572 242.024 285.712 241.254 285.932 240.494C286.132 239.754 286.412 239.044 286.742 238.344C287.082 237.664 287.472 237.004 287.872 236.404C288.302 235.794 288.762 235.224 289.212 234.714C289.792 234.074 290.352 233.554 290.862 233.154C291.392 232.744 291.892 232.434 292.372 232.184C292.842 231.974 293.272 231.854 293.682 231.794C294.092 231.734 294.472 231.724 294.802 231.794C295.132 231.864 295.422 232.004 295.682 232.184C295.932 232.364 296.152 232.574 296.302 232.834L294.642 234.654C294.342 234.394 294.012 234.214 293.652 234.154C293.292 234.084 292.912 234.094 292.492 234.244C292.092 234.374 291.672 234.574 291.252 234.864C290.812 235.194 290.372 235.574 289.952 236.034C289.302 236.754 288.772 237.504 288.362 238.324C287.962 239.104 287.662 239.934 287.502 240.764C287.342 241.604 287.292 242.434 287.402 243.244C287.502 244.054 287.742 244.854 288.102 245.584C288.482 246.354 288.932 246.924 289.422 247.304Z" fill="white"/>
<path d="M309.082 221.714C309.862 220.934 310.572 220.344 311.222 219.944C311.872 219.544 312.442 219.314 312.932 219.274C313.442 219.214 313.872 219.334 314.232 219.614C314.592 219.894 314.892 220.324 315.122 220.914C315.352 221.484 315.462 222.094 315.452 222.724C315.452 223.374 315.342 224.054 315.122 224.724C314.902 225.394 314.572 226.094 314.142 226.784C313.702 227.474 313.142 228.164 312.492 228.824L306.852 234.494L301.792 221.664L303.532 219.914L305.622 225.204L309.082 221.714ZM318.372 222.904L313.312 210.074L315.052 208.324L320.112 221.154L318.372 222.904ZM312.622 226.444C312.892 226.044 313.102 225.664 313.262 225.244C313.412 224.844 313.502 224.434 313.512 224.014C313.522 223.604 313.442 223.184 313.272 222.764C313.102 222.334 312.912 222.034 312.662 221.874C312.402 221.734 312.112 221.704 311.802 221.744C311.482 221.834 311.122 222.024 310.742 222.284C310.352 222.574 309.942 222.944 309.502 223.384L306.202 226.704L307.992 231.244L311.672 227.544C312.032 227.184 312.342 226.824 312.622 226.444Z" fill="white"/>
<path d="M345.532 198.094L342.262 185.644L335.092 191.874L338.362 204.324L336.562 205.894L332.862 191.794L343.632 182.434L347.332 196.534L345.532 198.094Z" fill="white"/>
<path d="M365.912 175.254C365.922 175.984 365.862 176.714 365.722 177.494C365.582 178.264 365.402 179.034 365.132 179.814C364.862 180.594 364.512 181.374 364.082 182.114C363.662 182.874 363.162 183.604 362.572 184.294C361.982 184.994 361.312 185.634 360.552 186.234C359.812 186.814 359.082 187.274 358.412 187.564C357.762 187.834 357.132 187.994 356.572 188.014C356.032 188.034 355.512 187.944 355.052 187.734C354.572 187.534 354.172 187.244 353.832 186.844C353.472 186.464 353.192 185.994 352.932 185.464C352.702 184.934 352.522 184.334 352.402 183.694C352.182 182.534 352.142 181.384 352.262 180.174C352.382 178.984 352.672 177.814 353.092 176.694C353.532 175.564 354.142 174.474 354.882 173.454C355.642 172.404 356.542 171.484 357.592 170.654C358.642 169.834 359.632 169.264 360.522 169.014C361.432 168.724 362.222 168.724 362.922 168.954C363.622 169.184 364.202 169.684 364.682 170.394C365.172 171.124 365.522 172.034 365.742 173.194C365.872 173.844 365.932 174.534 365.912 175.254ZM363.132 172.464C362.782 171.884 362.332 171.504 361.832 171.274C361.312 171.064 360.722 171.054 360.072 171.234C359.402 171.404 358.692 171.804 357.922 172.394C357.162 172.994 356.502 173.674 355.952 174.464C355.412 175.214 354.982 176.034 354.682 176.884C354.362 177.754 354.162 178.644 354.092 179.554C354.022 180.464 354.062 181.374 354.232 182.244C354.402 183.154 354.662 183.904 354.982 184.474C355.332 185.054 355.762 185.454 356.262 185.674C356.762 185.894 357.352 185.884 358.002 185.734C358.672 185.544 359.402 185.134 360.222 184.484C361.042 183.844 361.722 183.144 362.272 182.374C362.822 181.584 363.262 180.784 363.562 179.934C363.862 179.084 364.022 178.214 364.072 177.324C364.142 176.434 364.082 175.534 363.912 174.624C363.752 173.784 363.482 173.044 363.132 172.464Z" fill="white"/>
<path d="M392.842 162.604L391.552 148.644L384.162 153.574L385.452 167.534L383.592 168.774L382.132 152.964L393.242 145.564L394.702 161.374L392.842 162.604Z" fill="white"/>
<path d="M409.332 136.074C409.882 136.004 410.362 136.044 410.752 136.234C411.142 136.424 411.432 136.764 411.632 137.254C411.852 137.734 411.952 138.324 411.982 139.054C412.012 139.784 411.952 140.464 411.782 141.174C411.632 141.874 411.372 142.534 411.022 143.164C410.672 143.814 410.212 144.414 409.682 144.964C409.122 145.524 408.472 146.034 407.692 146.494L403.682 148.874L403.942 155.664L402.072 156.774L401.452 140.424L407.322 136.944C408.092 136.464 408.752 136.184 409.332 136.074ZM409.522 142.694C409.952 141.924 410.142 141.094 410.102 140.164C410.062 139.234 409.822 138.654 409.362 138.414C408.912 138.194 408.182 138.364 407.192 138.954L403.382 141.214L403.602 146.954L407.412 144.694C408.402 144.104 409.112 143.424 409.522 142.694Z" fill="white"/>
<path d="M432.342 133.794C432.212 134.584 432.032 135.354 431.762 136.144C431.502 136.934 431.202 137.694 430.822 138.444C430.442 139.194 429.992 139.924 429.472 140.584C428.962 141.264 428.392 141.894 427.742 142.454C427.092 143.024 426.392 143.504 425.612 143.904C424.852 144.294 424.132 144.554 423.492 144.654C422.872 144.744 422.292 144.714 421.792 144.554C421.312 144.404 420.872 144.144 420.512 143.774C420.132 143.414 419.832 142.964 419.602 142.424C419.362 141.894 419.192 141.314 419.072 140.654C418.962 140.014 418.922 139.314 418.932 138.584C418.952 137.274 419.122 136.014 419.452 134.754C419.782 133.514 420.242 132.344 420.822 131.274C421.422 130.194 422.152 129.214 422.992 128.364C423.852 127.474 424.812 126.774 425.882 126.214C426.952 125.664 427.922 125.364 428.752 125.374C429.602 125.354 430.292 125.604 430.862 126.074C431.432 126.544 431.852 127.264 432.142 128.184C432.432 129.124 432.572 130.214 432.552 131.534C432.552 132.264 432.482 133.014 432.342 133.794ZM430.412 129.904C430.212 129.174 429.892 128.614 429.492 128.214C429.072 127.824 428.552 127.634 427.952 127.614C427.332 127.584 426.632 127.784 425.862 128.184C425.082 128.584 424.382 129.114 423.752 129.784C423.142 130.424 422.612 131.164 422.192 131.984C421.752 132.814 421.412 133.714 421.182 134.674C420.952 135.634 420.822 136.624 420.812 137.614C420.792 138.644 420.882 139.534 421.062 140.254C421.262 140.984 421.562 141.554 421.962 141.954C422.362 142.354 422.882 142.524 423.482 142.564C424.102 142.574 424.822 142.364 425.652 141.924C426.492 141.494 427.212 140.954 427.842 140.304C428.472 139.634 429.002 138.914 429.422 138.094C429.842 137.274 430.142 136.394 430.352 135.454C430.582 134.524 430.692 133.534 430.712 132.504C430.712 131.514 430.612 130.644 430.412 129.904Z" fill="white"/>
<path d="M441.902 120.794L440.962 136.004L439.102 136.844L440.172 119.614L448.362 115.934L448.242 117.954L441.902 120.794Z" fill="white"/>
<path d="M463.232 110.334C463.742 110.394 464.172 110.564 464.492 110.854C464.812 111.154 465.032 111.584 465.132 112.154C465.262 112.714 465.262 113.364 465.182 114.154C465.102 114.934 464.952 115.644 464.692 116.354C464.452 117.054 464.122 117.694 463.712 118.274C463.302 118.874 462.802 119.394 462.232 119.854C461.642 120.314 460.982 120.684 460.202 120.984L456.222 122.514L455.472 129.794L453.622 130.504L455.442 112.964L461.272 110.724C462.052 110.434 462.702 110.304 463.232 110.334ZM462.442 117.414C462.942 116.704 463.232 115.864 463.332 114.864C463.432 113.864 463.302 113.184 462.912 112.824C462.542 112.474 461.852 112.484 460.872 112.854L457.092 114.304L456.452 120.464L460.232 119.014C461.222 118.634 461.962 118.094 462.442 117.414Z" fill="white"/>
<path d="M482.212 120.624L480.162 121.264L479.512 116.254L474.122 117.934L471.782 123.874L469.852 124.474L477.672 104.784L479.892 104.094L482.212 120.624ZM479.282 114.524L478.372 107.254L474.892 115.894L479.282 114.524Z" fill="white"/>
<path d="M495.262 114.614L502.042 98.5341L504.642 97.9341L501.132 116.004L499.432 116.394L502.392 101.194L502.352 101.204L495.592 117.274L493.782 117.694L492.932 103.374L492.892 103.384L489.932 118.584L488.232 118.974L491.752 100.904L494.352 100.304L495.222 114.624L495.262 114.614Z" fill="white"/>
<path d="M515.202 110.924L522.692 95.0641L525.242 94.7141L520.792 112.954L519.132 113.184L522.882 97.8441L522.842 97.8541L515.362 113.714L513.592 113.964L513.612 99.1341L513.572 99.1441L509.822 114.484L508.162 114.714L512.612 96.4741L515.162 96.1241V110.944L515.202 110.924Z" fill="white"/>
<path d="M530.442 108.764L541.322 93.6242L543.322 93.5242L538.002 111.844L536.272 111.924L540.602 97.0242H540.562L529.662 112.244L527.662 112.344L532.982 94.0242L534.712 93.9442L530.402 108.764H530.442Z" fill="white"/>
<path d="M557.772 94.1641C558.172 94.4641 558.472 94.8341 558.652 95.3141C558.832 95.7841 558.892 96.3541 558.832 97.0241C558.782 97.6941 558.622 98.4142 558.342 99.2242C558.072 100.044 557.762 100.754 557.362 101.414C556.982 102.074 556.552 102.624 556.062 103.074C555.572 103.544 555.032 103.884 554.452 104.124C553.862 104.364 553.222 104.464 552.522 104.434L548.912 104.294L546.382 111.894L544.702 111.824L550.802 93.5042L556.092 93.7141C556.802 93.7441 557.352 93.8941 557.772 94.1641ZM555.262 101.544C555.852 100.994 556.312 100.214 556.652 99.1641C557.002 98.1141 557.072 97.3241 556.852 96.7441C556.642 96.1941 556.092 95.8841 555.202 95.8541L551.772 95.7141L549.632 102.144L553.062 102.284C553.962 102.314 554.702 102.064 555.262 101.544Z" fill="white"/>
<path d="M573.962 107.414C573.562 108.184 573.132 108.904 572.642 109.584C572.152 110.264 571.652 110.894 571.102 111.464C570.552 112.034 569.962 112.514 569.352 112.884C568.742 113.284 568.112 113.574 567.462 113.754C566.802 113.934 566.152 113.974 565.472 113.884C564.812 113.794 564.232 113.584 563.772 113.254C563.322 112.924 562.952 112.504 562.682 111.984C562.422 111.494 562.232 110.904 562.142 110.254C562.032 109.594 562.012 108.904 562.072 108.164C562.122 107.424 562.242 106.664 562.422 105.864C562.612 105.084 562.852 104.294 563.152 103.504C563.692 102.084 564.302 100.824 565.022 99.6741C565.732 98.5441 566.512 97.5741 567.312 96.8041C568.132 96.0341 569.012 95.4541 569.912 95.1041C570.842 94.7241 571.752 94.6041 572.692 94.7341C573.622 94.8641 574.382 95.2041 574.932 95.7841C575.502 96.3441 575.862 97.0841 576.062 97.9941C576.252 98.9041 576.242 99.9741 576.072 101.174C575.892 102.404 575.552 103.694 575.012 105.114C574.712 105.884 574.372 106.664 573.962 107.414ZM574.232 101.834C574.392 100.894 574.402 100.064 574.292 99.3541C574.172 98.6441 573.902 98.0741 573.512 97.6441C573.112 97.1841 572.572 96.9241 571.892 96.8341C571.212 96.7441 570.542 96.8341 569.852 97.1441C569.192 97.4241 568.542 97.8741 567.942 98.4841C567.322 99.0941 566.732 99.8441 566.202 100.734C565.672 101.624 565.182 102.624 564.782 103.694C564.362 104.814 564.062 105.844 563.892 106.754C563.732 107.694 563.712 108.524 563.812 109.224C563.922 109.934 564.192 110.474 564.572 110.934C564.982 111.364 565.542 111.624 566.272 111.724C567.002 111.824 567.692 111.734 568.372 111.444C569.062 111.134 569.702 110.714 570.302 110.104C570.912 109.494 571.462 108.734 571.972 107.844C572.492 106.984 572.962 105.974 573.382 104.854C573.792 103.814 574.072 102.784 574.232 101.834Z" fill="white"/>
<path d="M590.262 98.5841C590.582 98.7141 590.882 98.8741 591.132 99.0741C591.352 99.2641 591.562 99.5141 591.722 99.7941C591.872 100.084 591.952 100.434 592.002 100.834C592.052 101.234 592.012 101.694 591.942 102.184C591.842 102.684 591.682 103.234 591.422 103.834C591.292 104.134 591.112 104.484 590.912 104.824C590.702 105.164 590.472 105.494 590.202 105.824C589.922 106.144 589.642 106.444 589.312 106.664C588.982 106.944 588.642 107.114 588.262 107.244C588.452 107.424 588.622 107.664 588.782 107.924C588.932 108.214 589.042 108.544 589.102 108.944C589.152 109.344 589.132 109.814 589.072 110.324C588.992 110.864 588.802 111.484 588.512 112.164C588.342 112.564 588.142 112.964 587.922 113.354C587.662 113.794 587.402 114.174 587.112 114.524C586.792 114.894 586.452 115.224 586.092 115.534C585.732 115.834 585.342 116.074 584.942 116.264C584.512 116.464 584.092 116.584 583.632 116.644C583.172 116.704 582.692 116.664 582.182 116.544L577.242 115.364L584.882 97.2441L589.072 98.2441C589.532 98.3541 589.932 98.4741 590.262 98.5841ZM587.462 106.104C587.832 106.024 588.172 105.854 588.462 105.644C588.732 105.434 588.972 105.154 589.192 104.814C589.392 104.474 589.582 104.104 589.752 103.694C589.932 103.264 590.062 102.874 590.112 102.534C590.152 102.184 590.142 101.874 590.042 101.604C589.972 101.304 589.782 101.074 589.512 100.894C589.252 100.694 588.912 100.524 588.472 100.424L585.552 99.7241L583.192 105.324L586.112 106.024C586.632 106.154 587.072 106.184 587.462 106.104ZM584.232 114.444C584.642 114.374 585.002 114.234 585.352 113.994C585.672 113.794 585.962 113.474 586.222 113.124C586.482 112.764 586.712 112.354 586.912 111.874C587.112 111.394 587.242 110.954 587.312 110.554C587.372 110.154 587.372 109.764 587.282 109.434C587.172 109.104 586.982 108.834 586.702 108.604C586.412 108.364 586.012 108.194 585.512 108.064L582.362 107.314L579.702 113.624L582.852 114.374C583.352 114.484 583.812 114.514 584.232 114.444Z" fill="white"/>
<path d="M600.972 122.324L599.302 121.744L600.662 115.844L596.252 114.314L592.452 119.374L590.872 118.824L603.542 102.084L605.352 102.714L600.972 122.324ZM601.122 113.804L603.122 105.254L597.532 112.564L601.122 113.804Z" fill="white"/>
<path d="M618.232 117.264L621.942 109.994L623.372 110.664L614.372 128.304L612.942 127.634L617.182 119.324L611.492 116.674L607.252 124.984L605.822 124.314L614.822 106.674L616.252 107.344L612.542 114.614L618.232 117.264Z" fill="white"/>
<path d="M623.042 128.724L635.992 117.824L637.552 118.764L627.892 136.054L626.542 135.244L634.392 121.184L634.362 121.164L621.372 132.134L619.812 131.194L629.472 113.904L630.822 114.714L623.012 128.704L623.042 128.724Z" fill="white"/>
<path d="M641.602 132.154C642.362 131.014 643.152 130.034 643.972 129.254C644.772 128.454 645.582 127.874 646.362 127.474C647.142 127.084 647.922 126.884 648.692 126.934C649.442 126.964 650.162 127.244 650.842 127.774C651.562 128.334 652.072 129.044 652.352 129.914C652.652 130.774 652.742 131.734 652.642 132.804C652.542 133.874 652.242 135.024 651.772 136.254C651.292 137.504 650.662 138.754 649.852 140.064C649.402 140.794 648.922 141.484 648.422 142.134C647.892 142.794 647.362 143.384 646.802 143.924C646.242 144.454 645.672 144.914 645.092 145.294C644.502 145.664 643.902 145.934 643.332 146.074C642.742 146.244 642.162 146.274 641.602 146.184C641.022 146.084 640.482 145.834 639.972 145.434C639.492 145.054 639.102 144.614 638.842 144.104C638.552 143.604 638.382 143.024 638.292 142.424C638.192 141.824 638.162 141.184 638.232 140.504C638.302 139.824 638.422 139.124 638.622 138.424C638.802 137.694 639.062 136.994 639.352 136.254C639.662 135.524 640.002 134.824 640.392 134.124L638.912 132.974L634.322 140.424L633.062 139.444L643.422 122.634L644.682 123.614L640.122 131.014L641.602 132.154ZM650.092 136.154C650.452 135.194 650.692 134.304 650.792 133.474C650.892 132.654 650.842 131.914 650.652 131.284C650.462 130.614 650.122 130.104 649.632 129.734C649.132 129.344 648.592 129.164 647.982 129.214C647.392 129.234 646.762 129.444 646.112 129.834C645.462 130.234 644.802 130.794 644.142 131.524C643.462 132.244 642.812 133.124 642.202 134.104C641.562 135.134 641.072 136.134 640.722 137.074C640.362 138.044 640.122 138.924 640.032 139.764C639.932 140.584 640.002 141.294 640.172 141.954C640.352 142.574 640.692 143.084 641.172 143.464C641.732 143.904 642.322 144.114 642.912 144.094C643.532 144.054 644.132 143.864 644.772 143.464C645.412 143.054 646.052 142.484 646.692 141.734C647.312 141.004 647.962 140.124 648.592 139.094C649.202 138.094 649.712 137.104 650.092 136.154Z" fill="white"/>
<path d="M671.452 147.974L673.002 149.644L665.002 152.364L661.832 165.724L660.412 164.184L663.172 152.964L660.082 154.004L656.162 159.564L655.052 158.364L666.312 142.384L667.422 143.584L661.932 151.374L671.452 147.974Z" fill="white"/>
<path d="M667.552 169.154C667.562 169.304 667.602 169.424 667.622 169.584L667.762 170.014C667.822 170.134 667.882 170.254 667.952 170.344C668.102 170.534 668.272 170.674 668.452 170.734C668.622 170.784 668.802 170.804 669.002 170.764C669.192 170.714 669.382 170.654 669.582 170.534C669.782 170.414 669.962 170.254 670.142 170.104L676.412 153.694L677.602 155.234L672.342 168.734L682.022 160.984L683.172 162.474L672.012 170.914C671.272 171.444 670.602 171.904 670.062 172.264C669.492 172.634 669.012 172.864 668.582 172.994C668.152 173.114 667.762 173.124 667.442 173.004C667.102 172.904 666.792 172.634 666.502 172.244C666.342 172.034 666.222 171.804 666.142 171.524C666.062 171.244 666.022 170.984 666.052 170.764L667.572 168.764C667.532 168.874 667.542 169.004 667.552 169.154Z" fill="white"/>
<path d="M690.332 174.024C690.412 174.674 690.412 175.324 690.282 175.974C690.162 176.634 689.922 177.294 689.572 177.964C689.232 178.654 688.792 179.284 688.252 179.944C687.712 180.604 687.202 181.124 686.662 181.504C686.132 181.904 685.632 182.154 685.142 182.234C684.642 182.344 684.172 182.264 683.732 182.054C683.282 181.824 682.872 181.414 682.492 180.814L680.512 177.714L675.472 183.864L674.552 182.424L686.702 167.614L689.602 172.154C689.982 172.764 690.222 173.384 690.332 174.024ZM685.412 179.934C686.002 179.824 686.632 179.354 687.332 178.504C688.022 177.654 688.442 176.854 688.592 176.054C688.732 175.294 688.562 174.504 688.072 173.744L686.192 170.794L681.922 175.994L683.802 178.944C684.302 179.714 684.852 180.044 685.412 179.934Z" fill="white"/>
<path d="M687.812 192.724C687.272 193.614 686.872 194.484 686.612 195.314C686.342 196.164 686.222 196.944 686.222 197.694C686.222 198.444 686.372 199.104 686.672 199.664C686.942 200.164 687.252 200.514 687.682 200.684C688.082 200.854 688.502 200.924 688.962 200.844C689.452 200.764 689.922 200.594 690.392 200.344C690.882 200.054 691.352 199.734 691.792 199.304L692.592 200.814C692.212 201.194 691.802 201.544 691.362 201.864C690.912 202.164 690.462 202.434 690.012 202.634C689.562 202.834 689.112 202.974 688.652 203.054C688.202 203.144 687.762 203.154 687.322 203.074C686.902 202.974 686.512 202.794 686.152 202.494C685.792 202.224 685.472 201.834 685.202 201.314C685.012 200.954 684.852 200.544 684.722 200.034C684.582 199.544 684.502 198.984 684.492 198.374C684.452 197.774 684.522 197.104 684.632 196.374C684.752 195.644 684.982 194.864 685.312 194.064C685.642 193.264 686.092 192.384 686.662 191.484C687.212 190.574 687.942 189.634 688.802 188.664C689.642 187.724 690.452 186.934 691.192 186.334C691.932 185.734 692.622 185.294 693.262 184.984C693.892 184.694 694.472 184.534 695.012 184.494C695.542 184.444 696.022 184.504 696.462 184.654C696.882 184.824 697.262 185.074 697.592 185.374C697.912 185.714 698.192 186.094 698.412 186.514C698.692 187.054 698.882 187.614 699.002 188.154C699.112 188.734 699.162 189.294 699.152 189.874C699.122 190.454 699.032 191.024 698.902 191.574C698.772 192.134 698.622 192.674 698.412 193.184C698.212 193.694 697.962 194.184 697.702 194.634C697.442 195.084 697.172 195.484 696.882 195.834L696.082 194.304C696.432 193.754 696.722 193.194 696.932 192.644C697.142 192.094 697.302 191.554 697.362 191.024C697.422 190.514 697.442 190.004 697.382 189.524C697.302 189.044 697.172 188.594 696.962 188.204C696.642 187.604 696.242 187.204 695.742 186.994C695.262 186.774 694.692 186.744 694.082 186.904C693.452 187.074 692.782 187.384 692.052 187.914C691.332 188.444 690.562 189.154 689.792 190.014C689.012 190.924 688.342 191.834 687.812 192.724Z" fill="white"/>
<path d="M700.652 209.024C700.972 209.784 701.152 210.524 701.202 211.274C701.252 212.024 701.192 212.734 701.022 213.424C700.852 214.124 700.562 214.794 700.172 215.454C699.772 216.114 699.292 216.734 698.692 217.344C698.112 217.934 697.552 218.384 697.032 218.674C696.492 218.984 695.962 219.144 695.502 219.144C695.042 219.144 694.592 219.004 694.202 218.694C693.812 218.384 693.482 217.904 693.222 217.264L690.942 211.794L703.892 198.504L704.592 200.194L699.252 205.674L700.652 209.024ZM695.152 216.324C695.362 216.534 695.592 216.644 695.872 216.694C696.142 216.724 696.452 216.654 696.792 216.484C697.132 216.314 697.512 215.994 697.952 215.544C698.392 215.094 698.722 214.674 698.962 214.254C699.192 213.814 699.342 213.384 699.452 212.954C699.512 212.544 699.512 212.114 699.462 211.684C699.392 211.254 699.262 210.834 699.082 210.414L697.742 207.214L693.162 211.914L694.652 215.484C694.782 215.824 694.952 216.104 695.152 216.324ZM695.602 222.944L708.552 209.654L709.252 211.344L696.302 224.634L695.602 222.944Z" fill="white"/>
<path d="M704.542 250.404L716.392 239.864L714.302 232.464L702.452 243.004L701.932 241.144L715.352 229.214L718.482 240.334L705.062 252.264L704.542 250.404Z" fill="white"/>
<path d="M714.762 269.024C714.152 269.374 713.562 269.634 712.972 269.804C712.382 269.964 711.832 270.064 711.292 270.044C710.752 270.024 710.262 269.874 709.822 269.604C709.372 269.354 708.982 268.974 708.652 268.454C708.322 267.934 708.072 267.274 707.902 266.464C707.732 265.664 707.672 264.834 707.722 264.014C707.772 263.204 707.912 262.384 708.142 261.574C708.362 260.804 708.662 260.014 709.032 259.254C709.402 258.474 709.832 257.754 710.312 257.074C710.792 256.384 711.302 255.754 711.862 255.134C712.402 254.554 712.982 254.014 713.572 253.544C714.632 252.684 715.622 252.084 716.582 251.684C717.522 251.304 718.382 251.164 719.132 251.244C719.882 251.354 720.542 251.704 721.062 252.304C721.612 252.914 721.992 253.774 722.222 254.894C722.452 256.014 722.492 257.174 722.322 258.344C722.162 259.514 721.822 260.654 721.322 261.774C720.822 262.894 720.152 263.954 719.352 264.984C718.522 266.034 717.612 266.964 716.542 267.824C715.962 268.294 715.362 268.704 714.762 269.024ZM718.312 263.694C718.952 262.914 719.462 262.094 719.872 261.264C720.272 260.414 720.542 259.554 720.672 258.714C720.822 257.834 720.802 256.984 720.632 256.174C720.462 255.354 720.172 254.734 719.752 254.304C719.352 253.884 718.862 253.644 718.272 253.614C717.682 253.564 717.022 253.694 716.292 254.024C715.562 254.354 714.772 254.844 713.982 255.484C713.142 256.164 712.402 256.874 711.782 257.614C711.142 258.394 710.622 259.194 710.222 260.024C709.822 260.854 709.572 261.694 709.422 262.554C709.292 263.424 709.312 264.284 709.502 265.164C709.682 266.044 709.972 266.694 710.372 267.124C710.792 267.544 711.272 267.804 711.852 267.834C712.432 267.864 713.092 267.694 713.812 267.344C714.522 267.034 715.302 266.524 716.142 265.844C716.942 265.214 717.672 264.474 718.312 263.694Z" fill="white"/>
<path d="M713.612 301.854L725.862 293.454L724.962 285.124L712.712 293.524L712.482 291.434L726.352 281.924L727.702 294.444L713.832 303.954L713.612 301.854Z" fill="white"/>
<path d="M728.612 313.134C728.432 313.894 728.192 314.604 727.862 315.244C727.532 315.884 727.122 316.464 726.632 316.974C726.142 317.514 725.602 317.934 724.982 318.314C724.362 318.694 723.812 318.934 723.292 319.024C722.772 319.134 722.332 319.074 721.962 318.864C721.572 318.664 721.272 318.284 721.042 317.774C720.812 317.234 720.682 316.534 720.632 315.624L720.392 310.974L714.602 314.524L714.492 312.354L728.442 303.814L728.792 310.634C728.832 311.534 728.772 312.364 728.612 313.134ZM722.992 316.504C723.442 316.764 724.062 316.644 724.862 316.154C725.662 315.664 726.252 315.054 726.652 314.264C727.032 313.514 727.202 312.554 727.142 311.404L726.912 306.974L722.012 309.974L722.242 314.404C722.302 315.554 722.562 316.254 722.992 316.504Z" fill="white"/>
<path d="M720.492 345.184C719.892 345.364 719.322 345.464 718.782 345.454C718.242 345.444 717.732 345.364 717.262 345.174C716.792 344.984 716.392 344.664 716.062 344.234C715.712 343.814 715.442 343.284 715.252 342.624C715.062 341.964 714.962 341.174 714.962 340.244C714.962 339.334 715.062 338.424 715.262 337.544C715.462 336.694 715.732 335.844 716.082 335.054C716.412 334.294 716.822 333.534 717.292 332.844C717.762 332.124 718.272 331.484 718.812 330.914C719.362 330.314 719.922 329.804 720.532 329.314C721.112 328.864 721.722 328.464 722.322 328.144C723.412 327.554 724.382 327.224 725.302 327.104C726.192 326.994 726.972 327.114 727.612 327.444C728.252 327.794 728.762 328.384 729.102 329.204C729.472 330.034 729.642 331.074 729.642 332.354C729.642 333.634 729.462 334.894 729.092 336.094C728.742 337.304 728.232 338.414 727.582 339.464C726.942 340.504 726.162 341.434 725.262 342.294C724.342 343.154 723.372 343.864 722.282 344.454C721.682 344.774 721.082 345.024 720.492 345.184ZM724.592 340.584C725.292 339.954 725.902 339.234 726.402 338.474C726.912 337.694 727.302 336.854 727.572 335.984C727.862 335.084 728.002 334.174 728.002 333.234C728.002 332.304 727.872 331.534 727.582 330.954C727.312 330.374 726.922 329.954 726.422 329.744C725.912 329.504 725.312 329.434 724.612 329.554C723.912 329.674 723.132 329.954 722.312 330.394C721.452 330.854 720.672 331.394 719.992 331.984C719.292 332.614 718.682 333.314 718.182 334.074C717.672 334.834 717.302 335.664 717.012 336.544C716.742 337.434 716.602 338.374 716.602 339.374C716.602 340.374 716.732 341.164 717.002 341.764C717.292 342.354 717.662 342.784 718.162 343.004C718.662 343.224 719.272 343.244 719.972 343.104C720.652 342.994 721.432 342.694 722.292 342.234C723.112 341.774 723.892 341.214 724.592 340.584Z" fill="white"/>
<path d="M727.202 352.864L714.882 358.634L714.992 356.344L728.942 349.804L728.452 359.864L726.822 360.624L727.202 352.864Z" fill="white"/>
<path d="M726.652 378.674C726.372 379.444 726.052 380.134 725.662 380.734C725.272 381.334 724.812 381.844 724.292 382.274C723.762 382.724 723.212 383.034 722.602 383.284C721.982 383.534 721.452 383.654 720.972 383.614C720.492 383.594 720.092 383.424 719.792 383.104C719.462 382.794 719.252 382.314 719.122 381.714C718.992 381.084 718.972 380.304 719.062 379.324L719.522 374.314L713.762 376.634L713.972 374.304L727.862 368.704L727.192 376.044C727.082 377.024 726.912 377.894 726.652 378.674ZM721.072 380.854C721.442 381.244 722.022 381.264 722.812 380.944C723.602 380.624 724.232 380.114 724.702 379.384C725.162 378.684 725.452 377.704 725.562 376.464L726.002 371.704L721.132 373.664L720.692 378.424C720.582 379.664 720.712 380.484 721.072 380.854Z" fill="white"/>
<path d="M709.772 410.794L710.132 408.144L714.612 404.864L715.562 397.894L711.612 397.314L711.952 394.814L725.032 396.834L724.642 399.704L709.772 410.794ZM716.152 403.724L722.642 399.004L716.932 398.034L716.152 403.724Z" fill="white"/>
<path d="M709.102 426.734L719.592 428.964L718.962 432.424L705.382 435.824L705.792 433.564L717.222 430.704L717.232 430.654L706.732 428.444L707.172 426.034L719.522 418.104L719.532 418.054L708.102 420.914L708.512 418.654L722.092 415.254L721.462 418.714L709.102 426.664V426.734Z" fill="white"/>
<path d="M703.492 453.704L713.502 457.054L712.692 460.554L699.372 462.694L699.902 460.414L711.102 458.614L711.112 458.564L701.102 455.244L701.672 452.814L714.072 445.894L714.082 445.844L702.882 447.644L703.412 445.364L716.732 443.224L715.922 446.724L703.522 453.674L703.492 453.704Z" fill="white"/>
<path d="M698.652 474.634L706.582 483.194L705.792 486.024L692.782 486.944L693.462 484.494L704.042 483.744L704.052 483.694L696.072 475.144L696.862 472.314L709.872 471.394L709.192 473.844L698.662 474.594L698.652 474.634Z" fill="white"/>
<path d="M698.952 507.124C698.532 507.834 698.082 508.444 697.612 508.924C697.142 509.404 696.632 509.754 696.102 509.974C695.562 510.224 695.032 510.314 694.472 510.304C693.912 510.294 693.442 510.184 693.072 509.924C692.682 509.684 692.412 509.324 692.252 508.834C692.072 508.344 692.022 507.724 692.072 507.014C692.132 506.274 692.322 505.404 692.652 504.384L694.342 499.124L689.082 499.044L689.872 496.594L702.542 496.794L700.062 504.504C699.742 505.514 699.372 506.384 698.952 507.124ZM693.882 506.964C694.082 507.554 694.542 507.844 695.262 507.854C695.982 507.864 696.622 507.594 697.202 507.014C697.752 506.454 698.252 505.514 698.672 504.214L700.282 499.214L695.832 499.144L694.222 504.144C693.802 505.444 693.692 506.394 693.882 506.964Z" fill="white"/>
<path d="M680.812 536.624C680.342 536.414 679.922 536.124 679.572 535.744C679.212 535.364 678.912 534.934 678.672 534.404C678.442 533.874 678.292 533.254 678.242 532.554C678.172 531.854 678.202 531.094 678.342 530.234C678.482 529.374 678.732 528.444 679.102 527.434C679.462 526.444 679.892 525.504 680.372 524.684C680.842 523.884 681.362 523.154 681.912 522.524C682.432 521.924 683.012 521.374 683.592 520.934C684.192 520.474 684.782 520.114 685.372 519.854C685.972 519.574 686.552 519.404 687.152 519.284C687.722 519.184 688.282 519.174 688.812 519.224C689.772 519.334 690.552 519.624 691.202 520.124C691.842 520.614 692.312 521.274 692.602 522.084C692.882 522.914 692.992 523.904 692.892 525.034C692.812 526.194 692.502 527.454 691.992 528.854C691.482 530.254 690.862 531.514 690.132 532.574C689.412 533.664 688.632 534.524 687.792 535.234C686.952 535.944 686.062 536.424 685.122 536.744C684.172 537.064 683.242 537.174 682.282 537.064C681.762 536.994 681.262 536.864 680.812 536.624ZM685.362 534.404C686.082 534.194 686.772 533.814 687.412 533.334C688.062 532.824 688.652 532.174 689.182 531.414C689.732 530.624 690.192 529.724 690.562 528.704C690.932 527.684 691.152 526.754 691.192 525.914C691.242 525.094 691.152 524.374 690.902 523.794C690.662 523.184 690.292 522.694 689.772 522.344C689.262 521.994 688.632 521.764 687.912 521.694C687.162 521.614 686.432 521.664 685.732 521.854C685.012 522.064 684.332 522.414 683.692 522.904C683.052 523.394 682.472 524.044 681.932 524.804C681.392 525.594 680.932 526.524 680.532 527.614C680.132 528.704 679.912 529.664 679.852 530.504C679.812 531.344 679.882 532.074 680.132 532.654C680.382 533.234 680.772 533.674 681.292 534.004C681.792 534.354 682.422 534.554 683.182 534.634C683.902 534.694 684.642 534.614 685.362 534.404Z" fill="white"/>
<path d="M681.092 555.934C680.842 556.454 680.582 556.954 680.302 557.414C680.042 557.824 679.752 558.234 679.442 558.604C679.142 558.954 678.802 559.234 678.452 559.494C678.102 559.744 677.722 559.914 677.352 560.034C676.972 560.124 676.592 560.144 676.192 560.064C675.992 560.024 675.782 559.924 675.582 559.794C675.392 559.644 675.212 559.464 675.052 559.244C674.902 558.994 674.782 558.724 674.742 558.354C674.652 558.004 674.662 557.594 674.712 557.114C674.472 557.474 674.202 557.834 673.912 558.184C673.612 558.534 673.282 558.844 672.912 559.124C672.552 559.374 672.172 559.574 671.762 559.734C671.352 559.864 670.912 559.884 670.472 559.794C670.212 559.734 669.962 559.634 669.732 559.504C669.482 559.344 669.272 559.134 669.112 558.874C668.942 558.594 668.812 558.264 668.712 557.884C668.612 557.504 668.582 557.064 668.602 556.574C668.622 556.054 668.702 555.494 668.852 554.864C669.002 554.234 669.242 553.514 669.562 552.734L672.702 545.074L684.532 547.584L681.862 554.084C681.602 554.774 681.332 555.404 681.092 555.934ZM670.452 554.694C670.332 555.244 670.292 555.704 670.342 556.104C670.372 556.464 670.512 556.744 670.692 556.954C670.872 557.154 671.122 557.294 671.442 557.364C671.762 557.434 672.062 557.414 672.382 557.314C672.692 557.214 673.012 557.034 673.332 556.744C673.662 556.424 673.962 556.024 674.282 555.514C674.612 554.974 674.932 554.334 675.252 553.544L677.252 548.664L673.132 547.794L671.132 552.674C670.792 553.454 670.572 554.114 670.452 554.694ZM676.012 555.434C675.912 555.934 675.902 556.344 675.952 556.654C676.012 556.944 676.142 557.164 676.332 557.314C676.532 557.444 676.762 557.544 677.022 557.594C677.302 557.654 677.572 557.654 677.832 557.574C678.112 557.464 678.372 557.304 678.642 557.034C678.922 556.794 679.202 556.414 679.462 555.944C679.742 555.484 680.032 554.914 680.312 554.224L682.172 549.694L678.512 548.924L676.652 553.454C676.332 554.264 676.122 554.904 676.012 555.434Z" fill="white"/>
<path d="M656.552 582.484L657.762 579.804L662.102 579.004L665.302 571.944L662.732 568.844L663.882 566.314L672.362 576.694L671.042 579.594L656.552 582.484ZM663.622 578.704L669.902 577.574L666.222 572.944L663.622 578.704Z" fill="white"/>
<path d="M653.282 604.914L657.752 606.844L656.572 609.214L645.732 604.524L646.912 602.154L652.012 604.364L656.712 594.934L651.612 592.724L652.792 590.354L663.632 595.044L662.452 597.414L657.982 595.484L653.282 604.914Z" fill="white"/>
<path d="M641.572 617.244L645.042 630.774L643.572 633.464L633.312 627.664L634.582 625.344L642.922 630.064L642.952 630.014L639.432 616.464L640.902 613.774L651.162 619.574L649.892 621.894L641.592 617.204L641.572 617.244Z" fill="white"/>
<path d="M630.602 645.564C631.222 646.124 631.692 646.814 632.002 647.614C632.322 648.394 632.462 649.274 632.452 650.224C632.442 651.164 632.262 652.194 631.892 653.314C631.532 654.414 630.992 655.574 630.252 656.804C629.472 658.104 628.652 659.164 627.802 659.974C626.952 660.814 626.112 661.384 625.252 661.744C624.402 662.104 623.572 662.204 622.742 662.114C621.902 662.004 621.142 661.684 620.392 661.134C619.982 660.834 619.612 660.454 619.282 660.044C618.952 659.604 618.692 659.104 618.492 658.544C618.292 657.984 618.162 657.374 618.092 656.724C618.042 656.044 618.072 655.314 618.202 654.564C618.322 653.794 618.542 652.974 618.862 652.124C619.202 651.244 619.642 650.354 620.202 649.434C620.732 648.564 621.262 647.804 621.812 647.184C622.362 646.534 622.912 646.024 623.452 645.604C623.992 645.184 624.542 644.844 625.082 644.624C625.622 644.404 626.152 644.254 626.652 644.214C627.182 644.124 627.662 644.174 628.142 644.254C628.612 644.364 629.062 644.514 629.472 644.754L631.082 642.084L626.852 638.974L628.212 636.714L637.772 643.744L636.412 646.004L632.202 642.914L630.602 645.564ZM623.562 659.644C624.212 659.714 624.852 659.644 625.492 659.394C626.132 659.154 626.772 658.734 627.382 658.164C628.022 657.584 628.602 656.844 629.122 655.974C629.662 655.074 630.052 654.204 630.282 653.354C630.522 652.514 630.622 651.704 630.582 650.954C630.532 650.204 630.352 649.524 630.022 648.914C629.712 648.274 629.262 647.744 628.712 647.334C628.122 646.904 627.512 646.654 626.872 646.594C626.222 646.524 625.582 646.594 624.922 646.864C624.282 647.104 623.652 647.534 623.032 648.094C622.432 648.644 621.862 649.374 621.332 650.244C620.722 651.254 620.292 652.204 620.052 653.044C619.812 653.924 619.712 654.694 619.772 655.424C619.832 656.154 620.032 656.804 620.382 657.374C620.722 657.924 621.182 658.434 621.772 658.864C622.322 659.284 622.922 659.554 623.562 659.644Z" fill="white"/>
<path d="M602.352 698.064L600.222 701.024L601.692 690.704L591.992 691.974L593.942 689.264L602.042 688.334L602.622 684.334L599.802 681.124L601.322 679.004L609.432 688.234L607.912 690.354L603.962 685.854L602.352 698.064Z" fill="white"/>
<path d="M586.442 701.704C586.312 701.794 586.192 701.894 586.042 701.994L585.622 702.374C585.492 702.504 585.372 702.644 585.252 702.794C585.022 703.094 584.832 703.394 584.682 703.684C584.562 703.954 584.462 704.214 584.402 704.484C584.362 704.734 584.312 704.984 584.322 705.214C584.332 705.444 584.372 705.634 584.422 705.824L595.212 707.694L593.362 710.074L584.532 708.384L586.482 718.934L584.702 721.234L582.862 708.864C582.762 708.034 582.692 707.274 582.652 706.644C582.612 705.974 582.642 705.394 582.742 704.834C582.842 704.264 583.012 703.714 583.272 703.194C583.522 702.654 583.882 702.104 584.342 701.504C584.592 701.184 584.842 700.914 585.112 700.674C585.382 700.434 585.622 700.274 585.792 700.204L586.752 701.514C586.692 701.554 586.572 701.614 586.442 701.704Z" fill="white"/>
<path d="M571.692 736.614C571.112 737.014 570.572 737.284 570.082 737.404C569.592 737.514 569.142 737.464 568.752 737.244C568.342 737.044 568.012 736.704 567.712 736.204C567.412 735.714 567.222 735.204 567.152 734.594C567.062 734.014 567.092 733.384 567.252 732.724C567.402 732.044 567.682 731.344 568.062 730.614C568.462 729.864 569.002 729.094 569.682 728.284L573.202 724.084L570.422 719.504L572.062 717.544L578.762 728.574L573.602 734.734C572.902 735.564 572.282 736.184 571.692 736.614ZM569.042 732.114C568.852 732.924 568.952 733.624 569.342 734.254C569.722 734.884 570.202 735.134 570.802 735.004C571.372 734.874 572.112 734.294 572.982 733.254L576.332 729.264L573.982 725.394L570.632 729.384C569.752 730.424 569.222 731.344 569.042 732.114Z" fill="white"/>
<path d="M557.232 741.124C556.742 740.744 556.202 740.534 555.622 740.534C555.042 740.514 554.442 740.684 553.812 741.014C553.182 741.344 552.562 741.854 551.942 742.524C551.392 743.124 550.962 743.734 550.622 744.414C550.292 745.064 550.032 745.704 549.882 746.334C549.722 746.994 549.642 747.604 549.632 748.184C549.642 748.764 549.692 749.294 549.842 749.754L548.202 751.564C548.062 751.174 547.962 750.754 547.902 750.254C547.862 749.734 547.842 749.214 547.892 748.644C547.942 748.084 548.032 747.494 548.182 746.864C548.312 746.254 548.522 745.624 548.792 744.964C549.072 744.324 549.402 743.674 549.822 743.034C550.212 742.394 550.692 741.764 551.252 741.144C551.642 740.714 552.062 740.304 552.542 739.904C553.012 739.484 553.522 739.134 554.032 738.854C554.552 738.534 555.082 738.334 555.642 738.194C556.192 738.044 556.742 738.044 557.262 738.154C557.782 738.274 558.302 738.544 558.782 738.964C559.282 739.364 559.732 739.994 560.142 740.814C560.542 741.614 560.812 742.434 560.972 743.244C561.132 744.054 561.172 744.854 561.132 745.644C561.082 746.424 560.942 747.184 560.722 747.944C560.522 748.684 560.242 749.394 559.912 750.094C559.572 750.774 559.182 751.434 558.782 752.034C558.352 752.644 557.892 753.214 557.442 753.714C556.862 754.354 556.302 754.874 555.792 755.274C555.262 755.684 554.762 755.994 554.282 756.244C553.812 756.454 553.382 756.574 552.972 756.634C552.562 756.694 552.182 756.704 551.852 756.634C551.522 756.564 551.232 756.424 550.972 756.244C550.712 756.064 550.502 755.854 550.352 755.594L552.012 753.774C552.312 754.034 552.642 754.214 553.002 754.274C553.362 754.344 553.742 754.334 554.162 754.184C554.562 754.054 554.982 753.854 555.412 753.554C555.852 753.224 556.292 752.844 556.712 752.384C557.362 751.664 557.892 750.914 558.302 750.094C558.702 749.314 559.002 748.484 559.162 747.654C559.312 746.814 559.372 745.984 559.262 745.174C559.162 744.364 558.922 743.564 558.562 742.834C558.172 742.064 557.732 741.504 557.232 741.124Z" fill="white"/>
<path d="M528.282 765.514L533.342 778.344L531.602 780.094L526.542 767.264L528.282 765.514ZM537.572 766.714C536.792 767.494 536.082 768.084 535.432 768.484C534.782 768.884 534.212 769.114 533.722 769.154C533.212 769.214 532.782 769.094 532.422 768.814C532.052 768.534 531.762 768.104 531.532 767.514C531.302 766.944 531.192 766.334 531.202 765.704C531.202 765.054 531.312 764.374 531.532 763.704C531.752 763.034 532.082 762.334 532.522 761.644C532.962 760.954 533.522 760.264 534.172 759.604L539.812 753.934L544.872 766.764L543.132 768.514L541.042 763.224L537.572 766.714ZM534.032 761.984C533.762 762.384 533.552 762.764 533.392 763.184C533.242 763.584 533.152 763.994 533.142 764.414C533.132 764.824 533.212 765.244 533.382 765.664C533.552 766.094 533.742 766.394 533.992 766.554C534.252 766.694 534.542 766.724 534.852 766.684C535.172 766.594 535.532 766.404 535.912 766.144C536.302 765.854 536.712 765.484 537.152 765.044L540.452 761.724L538.662 757.184L534.982 760.884C534.622 761.244 534.312 761.604 534.032 761.984Z" fill="white"/>
<path d="M501.132 790.334L504.402 802.784L511.572 796.554L508.302 784.104L510.102 782.544L513.802 796.644L503.032 806.004L499.332 791.904L501.132 790.334Z" fill="white"/>
<path d="M480.742 813.164C480.732 812.434 480.792 811.704 480.932 810.924C481.072 810.154 481.252 809.384 481.522 808.604C481.792 807.824 482.142 807.044 482.572 806.304C483.002 805.544 483.492 804.814 484.082 804.114C484.672 803.414 485.342 802.774 486.102 802.174C486.842 801.584 487.572 801.134 488.242 800.844C488.892 800.574 489.522 800.414 490.082 800.394C490.622 800.374 491.142 800.464 491.602 800.674C492.082 800.874 492.482 801.164 492.822 801.564C493.182 801.944 493.462 802.414 493.722 802.944C493.952 803.474 494.132 804.074 494.252 804.714C494.472 805.874 494.512 807.024 494.392 808.234C494.262 809.424 493.982 810.594 493.562 811.714C493.122 812.844 492.512 813.934 491.762 814.954C491.002 816.004 490.102 816.924 489.052 817.754C488.002 818.574 487.012 819.144 486.122 819.394C485.212 819.684 484.422 819.684 483.722 819.454C483.022 819.224 482.442 818.724 481.962 818.014C481.472 817.284 481.122 816.374 480.902 815.214C480.792 814.574 480.722 813.894 480.742 813.164ZM483.532 815.954C483.882 816.534 484.332 816.914 484.832 817.144C485.352 817.354 485.942 817.364 486.592 817.184C487.262 817.014 487.972 816.614 488.732 816.014C489.492 815.414 490.152 814.734 490.702 813.944C491.242 813.194 491.672 812.374 491.972 811.524C492.292 810.654 492.492 809.764 492.562 808.854C492.632 807.944 492.592 807.034 492.422 806.164C492.252 805.254 491.992 804.504 491.672 803.934C491.322 803.354 490.892 802.954 490.392 802.734C489.892 802.514 489.302 802.524 488.652 802.674C487.982 802.864 487.252 803.274 486.432 803.924C485.612 804.564 484.932 805.264 484.382 806.034C483.832 806.824 483.392 807.624 483.092 808.474C482.792 809.324 482.632 810.194 482.582 811.084C482.512 811.974 482.572 812.874 482.742 813.784C482.912 814.644 483.182 815.384 483.532 815.954Z" fill="white"/>
<path d="M453.812 825.824L455.102 839.784L462.492 834.854L461.202 820.894L463.062 819.654L464.522 835.464L453.412 842.864L451.952 827.054L453.812 825.824Z" fill="white"/>
<path d="M437.332 852.344C436.782 852.414 436.302 852.374 435.912 852.184C435.532 851.994 435.232 851.654 435.032 851.164C434.812 850.684 434.712 850.094 434.682 849.364C434.652 848.634 434.712 847.954 434.882 847.244C435.032 846.544 435.292 845.884 435.642 845.254C435.992 844.604 436.452 844.004 436.982 843.454C437.542 842.894 438.192 842.384 438.972 841.924L442.982 839.544L442.722 832.754L444.592 831.644L445.212 847.994L439.342 851.474C438.572 851.964 437.902 852.234 437.332 852.344ZM437.142 845.734C436.712 846.504 436.522 847.334 436.562 848.264C436.602 849.194 436.842 849.774 437.302 850.014C437.752 850.234 438.472 850.064 439.472 849.474L443.282 847.214L443.062 841.474L439.252 843.734C438.262 844.324 437.552 844.994 437.142 845.734Z" fill="white"/>
<path d="M414.322 854.634C414.452 853.844 414.632 853.074 414.902 852.284C415.162 851.494 415.462 850.734 415.842 849.984C416.222 849.224 416.672 848.504 417.192 847.844C417.702 847.154 418.272 846.534 418.922 845.974C419.572 845.404 420.272 844.924 421.052 844.524C421.812 844.134 422.532 843.874 423.172 843.774C423.792 843.684 424.372 843.714 424.872 843.874C425.352 844.024 425.792 844.284 426.152 844.654C426.532 845.014 426.832 845.464 427.062 845.994C427.302 846.524 427.472 847.114 427.592 847.764C427.702 848.404 427.742 849.104 427.732 849.834C427.712 851.144 427.532 852.404 427.212 853.664C426.882 854.904 426.422 856.074 425.842 857.144C425.242 858.224 424.512 859.204 423.672 860.054C422.812 860.944 421.852 861.644 420.782 862.204C419.712 862.754 418.742 863.054 417.912 863.044C417.062 863.064 416.372 862.824 415.802 862.344C415.232 861.874 414.812 861.154 414.522 860.234C414.232 859.294 414.092 858.204 414.112 856.884C414.102 856.164 414.172 855.404 414.322 854.634ZM416.252 858.514C416.452 859.244 416.772 859.804 417.172 860.204C417.592 860.594 418.112 860.784 418.712 860.804C419.332 860.834 420.032 860.634 420.802 860.234C421.582 859.834 422.282 859.304 422.912 858.624C423.522 857.984 424.052 857.244 424.472 856.424C424.912 855.594 425.252 854.694 425.482 853.734C425.712 852.784 425.842 851.784 425.852 850.794C425.872 849.764 425.782 848.874 425.602 848.154C425.402 847.424 425.102 846.854 424.702 846.454C424.302 846.054 423.782 845.884 423.182 845.844C422.562 845.834 421.842 846.044 421.012 846.484C420.172 846.914 419.452 847.454 418.822 848.104C418.192 848.774 417.662 849.494 417.242 850.314C416.822 851.134 416.522 852.014 416.312 852.954C416.082 853.884 415.972 854.874 415.962 855.904C415.942 856.904 416.042 857.784 416.252 858.514Z" fill="white"/>
<path d="M404.762 867.634L405.702 852.424L407.562 851.584L406.492 868.814L398.302 872.494L398.422 870.474L404.762 867.634Z" fill="white"/>
<path d="M383.422 878.094C382.912 878.034 382.482 877.864 382.162 877.574C381.842 877.274 381.622 876.844 381.522 876.274C381.392 875.714 381.392 875.064 381.472 874.274C381.552 873.494 381.702 872.784 381.962 872.074C382.202 871.374 382.532 870.734 382.942 870.154C383.352 869.554 383.852 869.034 384.422 868.574C385.012 868.114 385.672 867.744 386.452 867.444L390.432 865.914L391.182 858.634L393.032 857.924L391.212 875.464L385.382 877.704C384.602 877.994 383.962 878.124 383.422 878.094ZM384.212 871.014C383.712 871.724 383.422 872.564 383.322 873.564C383.222 874.564 383.352 875.244 383.742 875.604C384.112 875.954 384.802 875.944 385.782 875.574L389.562 874.124L390.202 867.964L386.422 869.414C385.432 869.794 384.692 870.334 384.212 871.014Z" fill="white"/>
<path d="M364.452 867.804L366.502 867.164L367.142 872.174L372.532 870.494L374.872 864.554L376.802 863.954L368.982 883.644L366.762 884.334L364.452 867.804ZM367.382 873.904L368.292 881.174L371.772 872.534L367.382 873.904Z" fill="white"/>
<path d="M351.392 873.814L344.612 889.894L342.012 890.494L345.522 872.424L347.222 872.034L344.262 887.234L344.302 887.224L351.062 871.154L352.872 870.734L353.722 885.054L353.762 885.044L356.722 869.844L358.422 869.454L354.902 887.524L352.302 888.124L351.432 873.804L351.392 873.814Z" fill="white"/>
<path d="M331.452 877.494L323.962 893.354L321.412 893.704L325.862 875.464L327.522 875.234L323.772 890.574L323.812 890.564L331.292 874.704L333.062 874.454L333.042 889.284L333.082 889.274L336.832 873.934L338.492 873.704L334.042 891.944L331.492 892.294V877.474L331.452 877.494Z" fill="white"/>
<path d="M316.212 879.664L305.332 894.804L303.332 894.904L308.652 876.584L310.382 876.504L306.052 891.404H306.092L316.992 876.184L318.992 876.084L313.672 894.404L311.942 894.484L316.252 879.664H316.212Z" fill="white"/>
<path d="M288.882 894.254C288.482 893.954 288.182 893.584 288.002 893.104C287.822 892.634 287.762 892.064 287.822 891.394C287.872 890.724 288.032 890.004 288.312 889.194C288.582 888.374 288.892 887.664 289.292 887.004C289.672 886.344 290.102 885.794 290.592 885.354C291.082 884.884 291.622 884.544 292.202 884.304C292.792 884.064 293.432 883.964 294.132 883.994L297.742 884.134L300.272 876.534L301.952 876.604L295.852 894.924L290.562 894.714C289.862 894.684 289.302 894.534 288.882 894.254ZM291.392 886.884C290.802 887.434 290.342 888.214 290.002 889.264C289.652 890.314 289.582 891.114 289.802 891.684C290.012 892.234 290.562 892.544 291.452 892.574L294.882 892.714L297.022 886.284L293.592 886.144C292.702 886.104 291.952 886.364 291.392 886.884Z" fill="white"/>
<path d="M272.702 881.014C273.102 880.244 273.532 879.524 274.022 878.844C274.512 878.164 275.012 877.534 275.562 876.964C276.112 876.394 276.702 875.914 277.312 875.544C277.922 875.144 278.552 874.854 279.202 874.674C279.852 874.494 280.512 874.454 281.192 874.544C281.852 874.634 282.432 874.844 282.892 875.174C283.342 875.504 283.712 875.924 283.982 876.444C284.242 876.934 284.432 877.524 284.522 878.174C284.632 878.834 284.652 879.524 284.592 880.264C284.542 881.004 284.422 881.764 284.242 882.564C284.052 883.344 283.812 884.134 283.512 884.924C282.972 886.344 282.362 887.604 281.642 888.764C280.932 889.894 280.152 890.864 279.352 891.634C278.532 892.404 277.652 892.984 276.752 893.334C275.822 893.714 274.912 893.834 273.972 893.704C273.042 893.574 272.282 893.234 271.732 892.654C271.162 892.094 270.802 891.354 270.602 890.444C270.412 889.534 270.422 888.464 270.592 887.264C270.772 886.034 271.112 884.744 271.652 883.324C271.942 882.534 272.292 881.754 272.702 881.014ZM272.432 886.584C272.272 887.524 272.262 888.354 272.372 889.064C272.492 889.774 272.762 890.344 273.152 890.774C273.552 891.234 274.092 891.494 274.772 891.584C275.452 891.674 276.122 891.584 276.812 891.274C277.472 890.994 278.122 890.544 278.722 889.934C279.342 889.324 279.932 888.574 280.462 887.684C280.992 886.794 281.482 885.794 281.882 884.724C282.302 883.604 282.602 882.574 282.772 881.664C282.932 880.724 282.952 879.894 282.852 879.194C282.742 878.484 282.472 877.944 282.092 877.484C281.682 877.054 281.122 876.794 280.392 876.694C279.662 876.594 278.972 876.684 278.292 876.974C277.602 877.284 276.962 877.704 276.362 878.314C275.762 878.924 275.202 879.684 274.692 880.574C274.172 881.434 273.702 882.444 273.282 883.564C272.872 884.614 272.592 885.644 272.432 886.584Z" fill="white"/>
<path d="M256.402 889.844C256.082 889.714 255.782 889.554 255.532 889.354C255.312 889.164 255.102 888.924 254.942 888.634C254.792 888.344 254.712 887.994 254.662 887.594C254.612 887.194 254.652 886.734 254.722 886.244C254.822 885.744 254.982 885.194 255.242 884.594C255.372 884.294 255.552 883.944 255.752 883.604C255.962 883.264 256.192 882.934 256.462 882.604C256.742 882.284 257.022 881.994 257.352 881.764C257.682 881.484 258.022 881.314 258.402 881.184C258.212 880.994 258.042 880.764 257.882 880.504C257.732 880.214 257.622 879.884 257.562 879.484C257.512 879.084 257.532 878.614 257.592 878.104C257.672 877.564 257.862 876.944 258.152 876.264C258.322 875.864 258.522 875.464 258.742 875.074C259.002 874.634 259.262 874.254 259.552 873.904C259.872 873.534 260.212 873.204 260.572 872.894C260.932 872.594 261.322 872.354 261.722 872.164C262.152 871.964 262.572 871.844 263.032 871.784C263.492 871.724 263.972 871.764 264.482 871.884L269.422 873.064L261.782 891.184L257.592 890.184C257.122 890.074 256.732 889.954 256.402 889.844ZM262.422 873.974C262.012 874.044 261.652 874.184 261.302 874.424C260.982 874.624 260.692 874.944 260.432 875.294C260.172 875.654 259.942 876.064 259.742 876.544C259.542 877.024 259.412 877.464 259.342 877.864C259.282 878.264 259.282 878.654 259.372 878.984C259.482 879.314 259.672 879.584 259.952 879.814C260.242 880.054 260.642 880.224 261.142 880.354L264.292 881.104L266.952 874.794L263.802 874.044C263.302 873.934 262.842 873.914 262.422 873.974ZM259.192 882.314C258.822 882.394 258.482 882.564 258.192 882.774C257.922 882.984 257.682 883.264 257.462 883.604C257.262 883.944 257.072 884.314 256.902 884.724C256.722 885.154 256.592 885.544 256.532 885.884C256.492 886.234 256.502 886.544 256.602 886.814C256.672 887.114 256.862 887.354 257.132 887.524C257.392 887.724 257.732 887.894 258.172 887.994L261.092 888.694L263.452 883.094L260.532 882.394C260.022 882.264 259.582 882.244 259.192 882.314Z" fill="white"/>
<path d="M245.692 866.094L247.362 866.674L246.002 872.574L250.412 874.104L254.212 869.044L255.792 869.594L243.122 886.334L241.312 885.704L245.692 866.094ZM245.532 874.614L243.532 883.164L249.122 875.864L245.532 874.614Z" fill="white"/>
<path d="M228.432 871.164L224.722 878.434L223.292 877.764L232.292 860.124L233.722 860.794L229.482 869.094L235.172 871.744L239.412 863.434L240.842 864.104L231.842 881.744L230.412 881.074L234.122 873.804L228.432 871.164Z" fill="white"/>
<path d="M223.612 859.694L210.662 870.594L209.102 869.654L218.762 852.364L220.112 853.174L212.262 867.234L212.292 867.254L225.282 856.284L226.842 857.224L217.182 874.514L215.832 873.704L223.642 859.714L223.612 859.694Z" fill="white"/>
<path d="M205.052 856.274C204.292 857.414 203.502 858.394 202.682 859.174C201.882 859.974 201.072 860.554 200.292 860.954C199.512 861.354 198.732 861.544 197.962 861.494C197.212 861.464 196.492 861.184 195.812 860.654C195.092 860.094 194.582 859.384 194.302 858.514C194.002 857.654 193.912 856.694 194.012 855.624C194.112 854.554 194.412 853.404 194.882 852.174C195.362 850.924 195.992 849.674 196.802 848.364C197.252 847.634 197.732 846.944 198.232 846.294C198.762 845.624 199.292 845.044 199.852 844.504C200.412 843.974 200.982 843.514 201.562 843.134C202.152 842.764 202.742 842.494 203.322 842.354C203.912 842.184 204.492 842.154 205.052 842.244C205.632 842.344 206.172 842.594 206.682 842.994C207.162 843.374 207.552 843.814 207.812 844.324C208.102 844.824 208.272 845.404 208.362 846.004C208.462 846.594 208.492 847.244 208.422 847.914C208.352 848.594 208.232 849.294 208.032 849.994C207.852 850.724 207.602 851.424 207.302 852.164C206.992 852.894 206.652 853.594 206.262 854.294L207.742 855.444L212.332 847.994L213.592 848.974L203.222 865.794L201.962 864.814L206.522 857.414L205.052 856.274ZM196.572 852.274C196.212 853.234 195.972 854.124 195.872 854.954C195.772 855.774 195.822 856.504 196.012 857.144C196.202 857.814 196.542 858.324 197.032 858.694C197.532 859.084 198.072 859.264 198.682 859.214C199.272 859.194 199.902 858.984 200.552 858.594C201.202 858.204 201.862 857.634 202.522 856.904C203.202 856.184 203.852 855.304 204.462 854.324C205.102 853.294 205.592 852.294 205.942 851.354C206.302 850.394 206.542 849.504 206.632 848.664C206.732 847.844 206.662 847.134 206.492 846.474C206.312 845.854 205.972 845.344 205.492 844.964C204.932 844.524 204.342 844.314 203.752 844.334C203.132 844.374 202.532 844.564 201.892 844.964C201.252 845.374 200.612 845.944 199.972 846.694C199.352 847.424 198.702 848.304 198.072 849.334C197.452 850.334 196.942 851.314 196.572 852.274Z" fill="white"/>
<path d="M175.212 840.444L173.662 838.774L181.662 836.054L184.832 822.694L186.252 824.234L183.492 835.454L186.582 834.414L190.502 828.854L191.612 830.054L180.352 846.034L179.242 844.834L184.732 837.044L175.212 840.444Z" fill="white"/>
<path d="M179.102 819.264C179.092 819.114 179.052 818.994 179.032 818.834L178.892 818.404C178.832 818.284 178.772 818.164 178.702 818.074C178.552 817.884 178.382 817.744 178.202 817.684C178.032 817.634 177.852 817.614 177.652 817.654C177.462 817.704 177.272 817.764 177.072 817.884C176.872 818.004 176.692 818.164 176.512 818.314L170.242 834.724L169.052 833.184L174.312 819.684L164.632 827.434L163.482 825.944L174.642 817.504C175.382 816.974 176.052 816.514 176.592 816.154C177.162 815.784 177.642 815.554 178.072 815.424C178.502 815.304 178.892 815.294 179.212 815.414C179.552 815.514 179.862 815.784 180.152 816.174C180.312 816.384 180.422 816.614 180.512 816.894C180.592 817.174 180.632 817.434 180.602 817.654L179.082 819.654C179.122 819.554 179.122 819.414 179.102 819.264Z" fill="white"/>
<path d="M156.322 814.404C156.242 813.754 156.242 813.104 156.372 812.454C156.492 811.794 156.732 811.134 157.082 810.464C157.422 809.774 157.862 809.134 158.402 808.484C158.942 807.824 159.452 807.304 159.992 806.924C160.522 806.524 161.022 806.284 161.512 806.194C162.012 806.084 162.482 806.164 162.922 806.374C163.372 806.604 163.782 807.014 164.162 807.614L166.142 810.714L171.182 804.564L172.102 806.004L159.952 820.814L157.052 816.274C156.672 815.654 156.432 815.044 156.322 814.404ZM161.242 808.484C160.652 808.594 160.022 809.064 159.322 809.914C158.632 810.764 158.212 811.564 158.062 812.364C157.922 813.124 158.092 813.914 158.582 814.674L160.462 817.624L164.732 812.424L162.852 809.474C162.352 808.714 161.812 808.384 161.242 808.484Z" fill="white"/>
<path d="M158.852 795.704C159.392 794.814 159.792 793.944 160.052 793.114C160.322 792.264 160.442 791.484 160.442 790.734C160.442 789.984 160.292 789.324 159.992 788.764C159.722 788.264 159.412 787.914 158.982 787.744C158.582 787.574 158.162 787.504 157.702 787.584C157.212 787.664 156.742 787.834 156.262 788.084C155.772 788.374 155.302 788.694 154.862 789.124L154.062 787.614C154.442 787.234 154.852 786.884 155.292 786.564C155.742 786.264 156.192 785.994 156.642 785.794C157.092 785.594 157.542 785.454 158.002 785.374C158.452 785.284 158.892 785.274 159.332 785.354C159.752 785.454 160.142 785.634 160.502 785.934C160.862 786.204 161.182 786.594 161.452 787.114C161.642 787.474 161.802 787.884 161.932 788.394C162.072 788.884 162.152 789.444 162.162 790.054C162.202 790.654 162.132 791.324 162.022 792.054C161.902 792.784 161.672 793.564 161.342 794.364C161.012 795.174 160.562 796.044 159.992 796.944C159.442 797.854 158.712 798.794 157.852 799.764C157.012 800.714 156.202 801.494 155.462 802.094C154.722 802.694 154.032 803.134 153.392 803.444C152.762 803.734 152.182 803.894 151.642 803.934C151.112 803.984 150.632 803.924 150.192 803.774C149.772 803.604 149.392 803.354 149.062 803.054C148.742 802.714 148.462 802.334 148.232 801.914C147.952 801.374 147.762 800.814 147.642 800.274C147.532 799.694 147.482 799.134 147.492 798.554C147.522 797.974 147.612 797.404 147.742 796.854C147.862 796.304 148.022 795.754 148.232 795.244C148.432 794.734 148.682 794.244 148.942 793.794C149.202 793.344 149.472 792.944 149.762 792.594L150.572 794.124C150.222 794.674 149.932 795.234 149.722 795.784C149.512 796.334 149.352 796.874 149.292 797.404C149.232 797.914 149.212 798.424 149.272 798.904C149.352 799.384 149.482 799.834 149.692 800.224C150.012 800.824 150.412 801.224 150.912 801.434C151.392 801.654 151.962 801.684 152.572 801.524C153.202 801.354 153.882 801.044 154.602 800.514C155.322 799.984 156.092 799.274 156.862 798.414C157.642 797.494 158.312 796.594 158.852 795.704Z" fill="white"/>
<path d="M151.062 765.474L138.112 778.764L137.412 777.074L150.362 763.784L151.062 765.474ZM146.002 779.404C145.682 778.644 145.502 777.904 145.452 777.154C145.402 776.404 145.462 775.694 145.632 775.004C145.802 774.304 146.092 773.634 146.482 772.974C146.882 772.314 147.362 771.694 147.962 771.084C148.542 770.494 149.102 770.044 149.622 769.754C150.162 769.444 150.692 769.284 151.152 769.284C151.612 769.284 152.062 769.424 152.452 769.734C152.842 770.044 153.172 770.524 153.432 771.164L155.712 776.634L142.762 789.924L142.052 788.234L147.392 782.754L146.002 779.404ZM151.512 772.094C151.302 771.884 151.072 771.774 150.792 771.724C150.522 771.694 150.212 771.764 149.872 771.934C149.532 772.104 149.152 772.424 148.712 772.874C148.282 773.314 147.942 773.744 147.702 774.154C147.472 774.594 147.322 775.024 147.212 775.454C147.152 775.864 147.152 776.294 147.202 776.724C147.282 777.154 147.402 777.574 147.582 777.994L148.922 781.194L153.502 776.494L152.012 772.924C151.872 772.604 151.702 772.324 151.512 772.094Z" fill="white"/>
<path d="M142.122 738.014L130.272 748.554L132.362 755.954L144.212 745.414L144.732 747.274L131.312 759.204L128.182 748.084L141.602 736.154L142.122 738.014Z" fill="white"/>
<path d="M131.902 719.404C132.512 719.054 133.102 718.794 133.692 718.624C134.282 718.464 134.832 718.364 135.372 718.384C135.912 718.404 136.402 718.554 136.842 718.824C137.292 719.074 137.682 719.454 138.012 719.974C138.342 720.494 138.592 721.154 138.762 721.964C138.932 722.764 138.992 723.594 138.942 724.414C138.892 725.224 138.752 726.044 138.522 726.854C138.302 727.624 138.002 728.414 137.632 729.174C137.262 729.954 136.832 730.674 136.352 731.354C135.872 732.054 135.362 732.674 134.802 733.294C134.262 733.874 133.682 734.414 133.092 734.894C132.032 735.754 131.042 736.354 130.082 736.754C129.142 737.134 128.282 737.274 127.532 737.194C126.782 737.084 126.122 736.734 125.602 736.134C125.052 735.524 124.672 734.664 124.442 733.544C124.212 732.424 124.172 731.264 124.342 730.094C124.502 728.924 124.842 727.784 125.342 726.664C125.842 725.544 126.512 724.484 127.312 723.454C128.142 722.404 129.052 721.474 130.122 720.614C130.692 720.134 131.302 719.724 131.902 719.404ZM128.342 724.724C127.702 725.504 127.192 726.324 126.782 727.154C126.382 728.004 126.112 728.864 125.982 729.704C125.832 730.584 125.852 731.424 126.022 732.244C126.192 733.064 126.482 733.684 126.902 734.114C127.302 734.534 127.792 734.774 128.382 734.804C128.972 734.854 129.632 734.724 130.362 734.394C131.092 734.064 131.882 733.574 132.672 732.934C133.512 732.254 134.252 731.544 134.872 730.804C135.512 730.024 136.032 729.224 136.432 728.394C136.832 727.564 137.082 726.724 137.232 725.864C137.362 724.994 137.342 724.134 137.152 723.254C136.972 722.374 136.682 721.734 136.282 721.294C135.862 720.874 135.382 720.614 134.802 720.584C134.222 720.554 133.562 720.724 132.842 721.074C132.132 721.384 131.352 721.894 130.512 722.574C129.712 723.214 128.982 723.944 128.342 724.724Z" fill="white"/>
<path d="M133.052 686.564L120.802 694.964L121.702 703.294L133.952 694.894L134.182 696.984L120.312 706.494L118.962 693.974L132.832 684.464L133.052 686.564Z" fill="white"/>
<path d="M118.042 675.294C118.222 674.534 118.462 673.824 118.792 673.184C119.122 672.544 119.532 671.964 120.022 671.454C120.512 670.914 121.052 670.494 121.672 670.114C122.292 669.734 122.842 669.494 123.362 669.404C123.882 669.294 124.322 669.354 124.692 669.564C125.082 669.764 125.382 670.144 125.612 670.654C125.842 671.194 125.972 671.894 126.022 672.804L126.262 677.454L132.052 673.904L132.162 676.074L118.212 684.614L117.862 677.794C117.832 676.894 117.882 676.064 118.042 675.294ZM123.662 671.924C123.212 671.664 122.592 671.784 121.792 672.274C120.992 672.764 120.402 673.384 120.002 674.164C119.622 674.914 119.452 675.874 119.512 677.034L119.742 681.464L124.642 678.464L124.412 674.034C124.352 672.874 124.102 672.164 123.662 671.924Z" fill="white"/>
<path d="M126.162 643.244C126.762 643.064 127.332 642.964 127.872 642.974C128.412 642.984 128.922 643.064 129.392 643.254C129.862 643.444 130.262 643.764 130.592 644.194C130.942 644.614 131.212 645.144 131.402 645.804C131.592 646.464 131.692 647.254 131.692 648.184C131.692 649.094 131.592 650.004 131.392 650.884C131.192 651.734 130.922 652.584 130.572 653.374C130.242 654.134 129.832 654.894 129.362 655.584C128.892 656.304 128.382 656.944 127.842 657.514C127.292 658.114 126.732 658.624 126.122 659.114C125.542 659.564 124.932 659.964 124.332 660.284C123.242 660.874 122.272 661.204 121.352 661.324C120.452 661.434 119.682 661.314 119.042 660.984C118.402 660.634 117.902 660.044 117.552 659.224C117.182 658.394 117.012 657.354 117.012 656.074C117.012 654.794 117.192 653.534 117.562 652.334C117.912 651.124 118.422 650.014 119.062 648.964C119.702 647.924 120.482 646.984 121.382 646.134C122.302 645.274 123.272 644.564 124.362 643.974C124.972 643.654 125.582 643.394 126.162 643.244ZM122.072 647.844C121.372 648.474 120.762 649.194 120.262 649.954C119.752 650.734 119.362 651.574 119.092 652.444C118.802 653.344 118.662 654.254 118.662 655.194C118.662 656.124 118.792 656.894 119.082 657.484C119.352 658.064 119.742 658.474 120.242 658.694C120.752 658.934 121.352 659.004 122.052 658.884C122.752 658.764 123.532 658.484 124.352 658.044C125.212 657.584 125.992 657.044 126.672 656.454C127.372 655.824 127.982 655.124 128.482 654.364C128.992 653.604 129.362 652.774 129.652 651.894C129.922 651.004 130.062 650.064 130.062 649.064C130.062 648.064 129.932 647.274 129.662 646.674C129.372 646.084 129.002 645.654 128.502 645.434C127.992 645.214 127.392 645.194 126.692 645.334C126.012 645.444 125.232 645.744 124.372 646.204C123.552 646.654 122.772 647.204 122.072 647.844Z" fill="white"/>
<path d="M119.452 635.554L131.772 629.784L131.662 632.074L117.712 638.614L118.202 628.554L119.832 627.794L119.452 635.554Z" fill="white"/>
<path d="M120.002 609.754C120.282 608.984 120.602 608.294 120.992 607.694C121.382 607.094 121.842 606.584 122.362 606.154C122.882 605.704 123.432 605.394 124.052 605.144C124.672 604.894 125.202 604.774 125.682 604.814C126.162 604.834 126.562 605.004 126.862 605.324C127.192 605.634 127.402 606.114 127.532 606.714C127.662 607.344 127.682 608.124 127.592 609.104L127.132 614.114L132.892 611.794L132.682 614.124L118.792 619.724L119.462 612.384C119.572 611.394 119.752 610.534 120.002 609.754ZM125.592 607.574C125.222 607.184 124.642 607.164 123.852 607.484C123.062 607.804 122.432 608.314 121.962 609.044C121.512 609.744 121.212 610.724 121.102 611.964L120.662 616.734L125.532 614.774L125.972 610.004C126.082 608.754 125.952 607.944 125.592 607.574Z" fill="white"/>
<path d="M136.892 577.634L136.532 580.284L132.052 583.564L131.102 590.534L135.052 591.114L134.712 593.614L121.632 591.594L122.022 588.724L136.892 577.634ZM130.502 584.704L124.022 589.424L129.732 590.394L130.502 584.704Z" fill="white"/>
<path d="M137.552 561.684L127.062 559.454L127.692 555.994L141.272 552.594L140.862 554.854L129.432 557.714L129.422 557.764L139.922 559.974L139.482 562.384L127.132 570.314L127.122 570.364L138.552 567.504L138.142 569.764L124.562 573.164L125.192 569.704L137.552 561.754V561.684Z" fill="white"/>
<path d="M143.162 534.724L133.152 531.374L133.962 527.874L147.282 525.734L146.752 528.014L135.552 529.814L135.542 529.864L145.552 533.184L144.982 535.614L132.582 542.534L132.572 542.584L143.772 540.784L143.242 543.064L129.922 545.204L130.732 541.704L143.132 534.754L143.162 534.724Z" fill="white"/>
<path d="M148.002 513.784L140.072 505.224L140.862 502.394L153.872 501.474L153.192 503.924L142.612 504.674L142.602 504.724L150.582 513.274L149.792 516.104L136.782 517.034L137.462 514.584L147.992 513.834L148.002 513.784Z" fill="white"/>
<path d="M147.702 481.304C148.122 480.594 148.572 479.984 149.042 479.504C149.512 479.024 150.022 478.674 150.552 478.454C151.092 478.204 151.622 478.114 152.182 478.124C152.742 478.134 153.212 478.244 153.582 478.504C153.972 478.744 154.242 479.104 154.402 479.594C154.582 480.084 154.632 480.704 154.582 481.414C154.522 482.154 154.332 483.024 154.002 484.044L152.312 489.304L157.572 489.384L156.782 491.834L144.112 491.634L146.592 483.924C146.922 482.904 147.292 482.044 147.702 481.304ZM152.782 481.464C152.582 480.874 152.122 480.584 151.402 480.574C150.682 480.564 150.042 480.834 149.462 481.414C148.912 481.974 148.412 482.914 147.992 484.214L146.382 489.214L150.832 489.284L152.442 484.284C152.862 482.974 152.972 482.024 152.782 481.464Z" fill="white"/>
<path d="M165.842 451.794C166.312 452.004 166.732 452.294 167.082 452.674C167.442 453.054 167.742 453.484 167.982 454.014C168.212 454.544 168.362 455.164 168.412 455.864C168.482 456.564 168.442 457.324 168.312 458.184C168.172 459.044 167.922 459.974 167.552 460.984C167.192 461.974 166.762 462.914 166.282 463.734C165.812 464.534 165.292 465.264 164.742 465.894C164.222 466.494 163.642 467.044 163.062 467.484C162.462 467.944 161.872 468.304 161.282 468.564C160.682 468.844 160.102 469.014 159.512 469.134C158.942 469.234 158.382 469.244 157.852 469.194C156.892 469.084 156.112 468.794 155.462 468.294C154.822 467.804 154.352 467.134 154.062 466.334C153.782 465.504 153.672 464.514 153.772 463.384C153.852 462.224 154.162 460.964 154.672 459.564C155.182 458.164 155.802 456.904 156.532 455.844C157.252 454.754 158.032 453.884 158.872 453.184C159.712 452.484 160.602 451.994 161.542 451.674C162.492 451.354 163.422 451.244 164.382 451.354C164.892 451.424 165.402 451.564 165.842 451.794ZM161.292 454.024C160.572 454.234 159.882 454.614 159.242 455.094C158.592 455.604 158.002 456.254 157.472 457.014C156.922 457.804 156.462 458.704 156.092 459.724C155.722 460.744 155.502 461.674 155.462 462.514C155.412 463.334 155.502 464.054 155.752 464.634C155.992 465.244 156.362 465.734 156.882 466.084C157.392 466.434 158.022 466.664 158.742 466.734C159.492 466.814 160.222 466.764 160.922 466.574C161.642 466.364 162.322 466.014 162.962 465.524C163.602 465.034 164.182 464.384 164.722 463.624C165.262 462.834 165.722 461.904 166.122 460.814C166.522 459.724 166.742 458.764 166.802 457.924C166.842 457.084 166.772 456.354 166.522 455.774C166.272 455.194 165.882 454.754 165.362 454.424C164.862 454.074 164.232 453.874 163.472 453.794C162.752 453.734 162.012 453.814 161.292 454.024Z" fill="white"/>
<path d="M165.562 432.484C165.812 431.964 166.072 431.464 166.352 431.004C166.612 430.594 166.902 430.184 167.212 429.814C167.512 429.464 167.852 429.174 168.202 428.924C168.552 428.674 168.932 428.504 169.302 428.384C169.682 428.294 170.062 428.274 170.462 428.354C170.662 428.394 170.872 428.494 171.072 428.624C171.262 428.774 171.442 428.954 171.602 429.174C171.752 429.424 171.872 429.694 171.912 430.064C172.002 430.414 171.992 430.824 171.942 431.304C172.182 430.944 172.452 430.584 172.742 430.234C173.042 429.884 173.372 429.574 173.742 429.294C174.102 429.044 174.482 428.844 174.892 428.684C175.302 428.554 175.742 428.534 176.182 428.624C176.442 428.684 176.692 428.784 176.922 428.914C177.172 429.074 177.382 429.284 177.542 429.544C177.712 429.824 177.842 430.154 177.942 430.534C178.042 430.914 178.072 431.354 178.042 431.844C178.022 432.364 177.942 432.924 177.792 433.554C177.642 434.184 177.402 434.904 177.082 435.684L173.942 443.344L162.112 440.834L164.782 434.334C165.052 433.644 165.332 433.014 165.562 432.484ZM170.642 432.984C170.742 432.484 170.752 432.074 170.702 431.754C170.642 431.464 170.512 431.244 170.322 431.094C170.122 430.964 169.892 430.864 169.632 430.814C169.352 430.754 169.082 430.754 168.822 430.834C168.542 430.944 168.282 431.104 168.012 431.374C167.732 431.614 167.452 431.994 167.192 432.464C166.912 432.924 166.622 433.494 166.342 434.184L164.482 438.714L168.142 439.494L170.002 434.964C170.322 434.154 170.532 433.514 170.642 432.984ZM176.212 433.724C176.332 433.174 176.372 432.714 176.322 432.314C176.292 431.954 176.152 431.674 175.972 431.464C175.792 431.264 175.542 431.124 175.222 431.054C174.912 430.984 174.602 431.004 174.282 431.104C173.972 431.204 173.652 431.384 173.332 431.674C173.002 431.994 172.702 432.394 172.382 432.904C172.052 433.444 171.732 434.084 171.412 434.874L169.412 439.754L173.532 440.624L175.532 435.744C175.862 434.974 176.082 434.304 176.212 433.724Z" fill="white"/>
<path d="M190.102 405.934L188.892 408.614L184.552 409.414L181.352 416.474L183.922 419.574L182.772 422.104L174.292 411.724L175.612 408.824L190.102 405.934ZM183.042 409.714L176.762 410.844L180.442 415.464L183.042 409.714Z" fill="white"/>
<path d="M193.382 383.514L188.912 381.584L190.092 379.214L200.932 383.904L199.752 386.274L194.652 384.064L189.952 393.494L195.052 395.704L193.872 398.074L183.032 393.384L184.212 391.014L188.682 392.954L193.382 383.514Z" fill="white"/>
<path d="M205.092 371.174L201.622 357.644L203.092 354.954L213.352 360.754L212.082 363.074L203.742 358.354L203.712 358.404L207.232 371.954L205.762 374.644L195.502 368.844L196.772 366.524L205.072 371.214L205.092 371.174Z" fill="white"/>
<path d="M216.052 342.854C215.432 342.294 214.962 341.604 214.652 340.804C214.332 340.024 214.192 339.144 214.202 338.194C214.212 337.254 214.392 336.224 214.762 335.104C215.122 334.004 215.662 332.844 216.402 331.614C217.182 330.314 218.002 329.254 218.852 328.444C219.702 327.604 220.542 327.034 221.402 326.674C222.252 326.314 223.082 326.214 223.912 326.304C224.752 326.414 225.512 326.734 226.262 327.284C226.672 327.584 227.042 327.964 227.372 328.374C227.702 328.814 227.962 329.314 228.162 329.874C228.362 330.434 228.492 331.034 228.562 331.694C228.612 332.374 228.582 333.104 228.452 333.854C228.332 334.624 228.112 335.444 227.792 336.294C227.452 337.174 227.012 338.064 226.452 338.984C225.922 339.854 225.392 340.624 224.842 341.234C224.292 341.884 223.742 342.394 223.202 342.814C222.662 343.234 222.112 343.574 221.572 343.794C221.032 344.014 220.502 344.164 220.002 344.204C219.472 344.294 218.992 344.244 218.512 344.164C218.042 344.054 217.592 343.904 217.182 343.664L215.572 346.324L219.802 349.434L218.442 351.694L208.882 344.674L210.242 342.414L214.452 345.504L216.052 342.854ZM223.102 328.774C222.452 328.704 221.812 328.774 221.172 329.024C220.532 329.264 219.892 329.684 219.282 330.254C218.642 330.834 218.062 331.574 217.542 332.444C217.002 333.344 216.612 334.214 216.382 335.064C216.142 335.904 216.042 336.714 216.082 337.464C216.132 338.214 216.312 338.894 216.642 339.504C216.952 340.144 217.402 340.674 217.952 341.084C218.542 341.514 219.152 341.764 219.792 341.824C220.442 341.894 221.082 341.824 221.742 341.554C222.382 341.314 223.012 340.884 223.632 340.324C224.232 339.774 224.812 339.044 225.332 338.174C225.942 337.164 226.372 336.214 226.612 335.374C226.852 334.494 226.952 333.724 226.892 332.994C226.832 332.264 226.632 331.614 226.282 331.044C225.942 330.494 225.482 329.984 224.892 329.554C224.332 329.144 223.732 328.874 223.102 328.774Z" fill="white"/>
<defs>
<linearGradient id="paint0_linear_56_1209" x1="199.627" y1="374.994" x2="648.694" y2="614.181" gradientUnits="userSpaceOnUse">
<stop stop-color="#3D3AE8"/>
<stop offset="1" stop-color="white" stop-opacity="0"/>
</linearGradient>
</defs>
</svg>
