<svg width="434" height="295" viewBox="0 0 434 295" fill="none" xmlns="http://www.w3.org/2000/svg">
<path d="M240.743 251.818C345.703 228.08 420.242 162.197 407.23 104.664C394.218 47.1307 298.583 19.7345 193.623 43.4727C88.6626 67.2108 14.1239 133.094 27.1358 190.627C40.1477 248.16 135.783 275.556 240.743 251.818Z" stroke="url(#paint0_linear_56_627)" stroke-width="50" stroke-miterlimit="10"/>
<path d="M378.642 58.8141L379.592 59.4441L374.522 59.6541L372.352 63.4841L371.482 62.9041L373.362 59.6941L371.402 59.7741L368.862 61.1641L368.182 60.7141L375.472 56.7141L376.152 57.1641L372.602 59.1141L378.642 58.8141Z" fill="white"/>
<path d="M375.922 64.9742C375.932 65.0242 375.952 65.0641 375.962 65.1141L376.042 65.2542C376.072 65.2942 376.112 65.3341 376.152 65.3741C376.242 65.4441 376.352 65.4941 376.462 65.5341C376.572 65.5641 376.682 65.5841 376.802 65.5841C376.922 65.5841 377.042 65.5841 377.172 65.5541C377.302 65.5341 377.412 65.5041 377.532 65.4641L381.692 60.9542L382.422 61.5142L378.932 65.2242L385.122 63.6141L385.822 64.1541L378.692 65.8641C378.222 65.9641 377.792 66.0541 377.442 66.1241C377.072 66.1941 376.772 66.2242 376.502 66.2342C376.232 66.2342 375.982 66.2141 375.782 66.1441C375.572 66.0841 375.382 65.9841 375.202 65.8441C375.102 65.7641 375.032 65.6841 374.982 65.5941C374.932 65.5041 374.912 65.4242 374.932 65.3542L375.912 64.8641C375.912 64.8841 375.912 64.9242 375.922 64.9742Z" fill="white"/>
<path d="M390.192 68.2241C390.232 68.4241 390.222 68.6241 390.142 68.8141C390.052 69.0041 389.902 69.1841 389.672 69.3641C389.442 69.5441 389.162 69.7041 388.812 69.8641C388.462 70.0241 388.132 70.1441 387.792 70.2141C387.452 70.2941 387.132 70.3341 386.822 70.3141C386.502 70.3041 386.212 70.2541 385.942 70.1541C385.662 70.0541 385.412 69.8941 385.172 69.6841L383.972 68.5841L380.722 70.0641L380.162 69.5541L388.002 65.9841L389.772 67.5941C389.982 67.8141 390.132 68.0141 390.192 68.2241ZM387.012 69.6441C387.382 69.6541 387.792 69.5641 388.242 69.3541C388.692 69.1541 388.962 68.9341 389.072 68.7041C389.172 68.4841 389.072 68.2341 388.782 67.9641L387.632 66.9241L384.882 68.1741L386.032 69.2141C386.322 69.4841 386.662 69.6341 387.012 69.6441Z" fill="white"/>
<path d="M388.352 73.7141C388.002 73.9441 387.742 74.1741 387.562 74.4141C387.382 74.6541 387.292 74.8841 387.282 75.1141C387.272 75.3441 387.362 75.5541 387.542 75.7541C387.702 75.9241 387.902 76.0541 388.162 76.1441C388.412 76.2241 388.672 76.2841 388.962 76.2941C389.272 76.3041 389.562 76.2941 389.872 76.2541C390.182 76.2041 390.482 76.1441 390.772 76.0441L391.252 76.5641C391.002 76.6541 390.752 76.7241 390.462 76.7841C390.172 76.8441 389.892 76.8841 389.602 76.9141C389.312 76.9441 389.032 76.9541 388.742 76.9341C388.452 76.9241 388.182 76.8941 387.902 76.8341C387.642 76.7741 387.392 76.6841 387.172 76.5641C386.952 76.4541 386.752 76.3141 386.592 76.1341C386.482 76.0141 386.382 75.8741 386.312 75.7041C386.232 75.5441 386.192 75.3641 386.192 75.1841C386.172 74.9941 386.222 74.7941 386.312 74.5841C386.402 74.3741 386.552 74.1541 386.772 73.9341C386.992 73.7141 387.292 73.4841 387.652 73.2541C388.012 73.0241 388.482 72.7841 389.032 72.5641C389.572 72.3441 390.092 72.1641 390.572 72.0441C391.052 71.9241 391.482 71.8341 391.892 71.7941C392.292 71.7541 392.662 71.7541 393.002 71.7841C393.332 71.8141 393.632 71.8641 393.912 71.9441C394.172 72.0241 394.412 72.1341 394.612 72.2541C394.812 72.3841 394.982 72.5241 395.112 72.6641C395.282 72.8541 395.392 73.0341 395.462 73.2141C395.522 73.3941 395.542 73.5741 395.532 73.7541C395.502 73.9241 395.442 74.0941 395.352 74.2541C395.262 74.4141 395.162 74.5641 395.022 74.7041C394.892 74.8441 394.722 74.9741 394.552 75.0941C394.382 75.2141 394.212 75.3141 394.022 75.3941L393.532 74.8641C393.762 74.7241 393.952 74.5742 394.092 74.4242C394.232 74.2742 394.342 74.1241 394.382 73.9641C394.432 73.8141 394.442 73.6641 394.412 73.5141C394.362 73.3641 394.292 73.2141 394.172 73.0841C393.982 72.8741 393.732 72.7241 393.422 72.6241C393.122 72.5241 392.762 72.4641 392.372 72.4641C391.972 72.4641 391.542 72.5141 391.082 72.6141C390.622 72.7241 390.132 72.8741 389.632 73.0841C389.132 73.2641 388.702 73.4841 388.352 73.7141Z" fill="white"/>
<path d="M396.222 79.6841C396.412 79.9341 396.512 80.1741 396.542 80.4141C396.562 80.6441 396.522 80.8641 396.402 81.0541C396.282 81.2541 396.092 81.4341 395.842 81.6041C395.582 81.7741 395.272 81.9241 394.892 82.0641C394.522 82.2041 394.162 82.2941 393.832 82.3441C393.492 82.3941 393.152 82.4041 392.862 82.3641C392.572 82.3241 392.292 82.2541 392.052 82.1241C391.812 82.0041 391.612 81.8241 391.452 81.6141L390.082 79.7741L398.402 76.7241L398.822 77.2941L395.392 78.5541L396.222 79.6841ZM392.862 83.5341L401.182 80.4841L401.602 81.0541L393.282 84.1041L392.862 83.5341ZM392.662 81.4841C392.792 81.5641 392.942 81.6141 393.112 81.6541C393.282 81.6841 393.472 81.6841 393.692 81.6641C393.912 81.6341 394.152 81.5741 394.432 81.4641C394.712 81.3641 394.932 81.2641 395.082 81.1541C395.232 81.0341 395.332 80.9141 395.402 80.7941C395.442 80.6741 395.452 80.5441 395.422 80.4041C395.382 80.2641 395.312 80.1341 395.202 79.9841L394.402 78.9041L391.462 79.9841L392.352 81.1841C392.442 81.2941 392.542 81.3941 392.662 81.4841Z" fill="white"/>
<path d="M398.112 92.5841L405.702 90.2841L404.482 87.8641L396.892 90.1642L396.582 89.5541L405.172 86.9542L407.002 90.5841L398.412 93.1841L398.112 92.5841Z" fill="white"/>
<path d="M404.302 99.0541C403.912 99.1141 403.532 99.1442 403.162 99.1542C402.792 99.1542 402.442 99.1442 402.102 99.0942C401.762 99.0442 401.452 98.9642 401.182 98.8442C400.902 98.7342 400.662 98.5842 400.462 98.4042C400.262 98.2242 400.112 98.0042 400.022 97.7342C399.932 97.4742 399.902 97.2242 399.942 96.9742C399.982 96.7342 400.082 96.4942 400.242 96.2642C400.392 96.0442 400.592 95.8242 400.832 95.6242C401.072 95.4142 401.352 95.2242 401.662 95.0642C401.972 94.8942 402.302 94.7342 402.662 94.5942C403.012 94.4542 403.382 94.3442 403.762 94.2442C404.442 94.0642 405.072 93.9542 405.682 93.9142C406.282 93.8742 406.822 93.8942 407.292 93.9742C407.762 94.0642 408.172 94.2242 408.492 94.4442C408.832 94.6742 409.052 94.9642 409.182 95.3242C409.312 95.6842 409.322 96.0442 409.192 96.3842C409.082 96.7342 408.852 97.0442 408.522 97.3542C408.192 97.6542 407.762 97.9242 407.242 98.1842C406.712 98.4442 406.122 98.6541 405.442 98.8341C405.062 98.9241 404.682 99.0041 404.302 99.0541ZM406.602 97.7042C407.012 97.5142 407.352 97.3041 407.612 97.0841C407.872 96.8541 408.052 96.6141 408.152 96.3641C408.262 96.1041 408.252 95.8441 408.162 95.5841C408.062 95.3241 407.892 95.1042 407.632 94.9442C407.392 94.7842 407.082 94.6741 406.712 94.6141C406.342 94.5541 405.922 94.5441 405.462 94.5841C405.002 94.6241 404.502 94.7142 403.992 94.8542C403.462 94.9942 402.982 95.1541 402.582 95.3341C402.172 95.5241 401.832 95.7242 401.562 95.9442C401.292 96.1642 401.132 96.4042 401.022 96.6542C400.932 96.9042 400.932 97.1742 401.032 97.4542C401.132 97.7342 401.312 97.9542 401.552 98.1242C401.812 98.2842 402.102 98.4042 402.472 98.4542C402.842 98.5042 403.252 98.5042 403.712 98.4542C404.162 98.4142 404.662 98.3142 405.192 98.1742C405.722 98.0642 406.192 97.8942 406.602 97.7042Z" fill="white"/>
<path d="M403.152 108.964L410.972 107.354L410.512 104.744L402.692 106.354L402.582 105.694L411.432 103.864L412.112 107.784L403.262 109.614L403.152 108.964Z" fill="white"/>
<path d="M412.442 113.564C412.322 113.784 412.152 113.984 411.942 114.154C411.732 114.324 411.462 114.474 411.142 114.584C410.822 114.704 410.482 114.794 410.082 114.864C409.682 114.934 409.342 114.964 409.012 114.944C408.682 114.934 408.412 114.884 408.172 114.794C407.932 114.704 407.742 114.564 407.612 114.394C407.472 114.214 407.402 113.984 407.382 113.704L407.292 112.264L403.602 112.894L403.562 112.224L412.452 110.694L412.582 112.804C412.602 113.094 412.552 113.344 412.442 113.564ZM408.862 114.164C409.142 114.274 409.532 114.284 410.042 114.204C410.552 114.114 410.932 113.974 411.192 113.764C411.442 113.564 411.562 113.284 411.542 112.924L411.452 111.554L408.332 112.094L408.422 113.464C408.442 113.814 408.592 114.054 408.862 114.164Z" fill="white"/>
<path d="M406.912 122.704C406.532 122.714 406.172 122.694 405.832 122.654C405.492 122.604 405.172 122.544 404.882 122.454C404.592 122.364 404.342 122.234 404.132 122.074C403.922 121.924 403.752 121.734 403.642 121.524C403.532 121.304 403.482 121.064 403.492 120.774C403.502 120.494 403.582 120.224 403.712 119.974C403.842 119.734 404.032 119.494 404.262 119.284C404.482 119.074 404.752 118.884 405.052 118.704C405.352 118.524 405.682 118.364 406.032 118.234C406.382 118.094 406.742 117.984 407.132 117.884C407.502 117.794 407.892 117.714 408.272 117.664C408.962 117.574 409.582 117.544 410.162 117.574C410.722 117.614 411.212 117.704 411.612 117.854C412.012 118.014 412.322 118.234 412.532 118.504C412.752 118.784 412.852 119.114 412.832 119.504C412.812 119.894 412.682 120.264 412.432 120.604C412.192 120.944 411.862 121.244 411.442 121.514C411.022 121.784 410.522 122.004 409.942 122.194C409.352 122.384 408.732 122.524 408.042 122.624C407.662 122.674 407.282 122.704 406.912 122.704ZM409.552 121.624C410.002 121.484 410.392 121.314 410.722 121.124C411.052 120.924 411.312 120.704 411.492 120.454C411.692 120.204 411.792 119.934 411.802 119.654C411.812 119.374 411.742 119.124 411.562 118.924C411.402 118.724 411.162 118.574 410.842 118.464C410.532 118.354 410.152 118.284 409.712 118.264C409.272 118.244 408.772 118.274 408.252 118.344C407.712 118.414 407.212 118.524 406.772 118.654C406.322 118.794 405.932 118.954 405.602 119.154C405.272 119.344 405.032 119.574 404.832 119.814C404.652 120.064 404.552 120.334 404.532 120.644C404.522 120.944 404.592 121.204 404.752 121.404C404.932 121.604 405.152 121.764 405.472 121.874C405.782 121.984 406.162 122.034 406.612 122.044C407.042 122.064 407.532 122.034 408.082 121.954C408.602 121.864 409.102 121.754 409.552 121.624Z" fill="white"/>
<path d="M411.032 125.554L403.202 126.364L403.302 125.674L412.162 124.764L411.722 127.794L410.682 127.904L411.032 125.554Z" fill="white"/>
<path d="M410.352 133.374C410.172 133.584 409.952 133.774 409.702 133.924C409.452 134.074 409.152 134.194 408.822 134.284C408.482 134.384 408.132 134.434 407.742 134.464C407.352 134.494 407.012 134.484 406.712 134.444C406.412 134.404 406.162 134.324 405.972 134.194C405.772 134.074 405.642 133.914 405.562 133.714C405.492 133.514 405.482 133.274 405.552 132.984L405.902 131.494L402.242 131.754L402.402 131.064L411.212 130.434L410.692 132.614C410.642 132.904 410.522 133.154 410.352 133.374ZM406.812 133.614C407.042 133.764 407.402 133.814 407.902 133.774C408.402 133.734 408.802 133.634 409.112 133.444C409.412 133.264 409.602 132.984 409.692 132.624L410.032 131.204L406.942 131.424L406.602 132.844C406.522 133.214 406.592 133.474 406.812 133.614Z" fill="white"/>
<path d="M399.312 141.864L399.572 141.084L402.432 140.434L403.122 138.384L400.642 137.904L400.892 137.174L409.092 138.804L408.812 139.644L399.312 141.864ZM403.422 140.204L407.562 139.264L403.982 138.524L403.422 140.204Z" fill="white"/>
<path d="M398.682 146.674L405.262 148.164L404.822 149.174L396.232 149.164L396.522 148.504L403.752 148.514L403.762 148.504L397.182 147.024L397.492 146.324L405.372 144.864L405.382 144.854L398.152 144.844L398.442 144.184L407.032 144.194L406.592 145.204L398.712 146.674H398.682Z" fill="white"/>
<path d="M394.802 154.464L401.052 156.254L400.492 157.254L392.082 156.874L392.442 156.224L399.512 156.544L399.522 156.534L393.262 154.744L393.652 154.044L401.542 152.894L401.552 152.884L394.482 152.564L394.842 151.914L403.252 152.294L402.692 153.294L394.802 154.454V154.464Z" fill="white"/>
<path d="M391.492 160.464L396.372 163.684L395.842 164.484L387.642 163.764L388.102 163.074L394.772 163.664L394.782 163.654L389.872 160.434L390.402 159.634L398.602 160.354L398.142 161.044L391.512 160.454L391.492 160.464Z" fill="white"/>
<path d="M391.252 170.384C390.972 170.564 390.692 170.724 390.382 170.824C390.082 170.934 389.752 171.004 389.422 171.034C389.082 171.064 388.742 171.054 388.392 171.014C388.032 170.964 387.752 170.894 387.512 170.784C387.272 170.684 387.102 170.554 387.012 170.384C386.902 170.224 386.882 170.034 386.922 169.814C386.972 169.594 387.102 169.344 387.322 169.054L388.452 167.584L385.142 167.154L385.672 166.464L393.642 167.504L391.982 169.664C391.762 169.954 391.522 170.194 391.252 170.384ZM388.062 169.944C388.182 170.144 388.462 170.264 388.922 170.324C389.372 170.384 389.782 170.354 390.152 170.214C390.502 170.084 390.832 169.834 391.112 169.474L392.192 168.074L389.392 167.714L388.312 169.114C388.032 169.474 387.952 169.754 388.062 169.944Z" fill="white"/>
<path d="M379.452 177.974C379.152 177.874 378.902 177.754 378.682 177.614C378.462 177.474 378.272 177.314 378.132 177.134C377.992 176.954 377.912 176.754 377.892 176.534C377.862 176.314 377.892 176.084 377.982 175.834C378.082 175.584 378.252 175.324 378.492 175.034C378.732 174.764 379.012 174.504 379.332 174.294C379.642 174.084 379.972 173.904 380.332 173.754C380.672 173.614 381.032 173.484 381.412 173.404C381.792 173.304 382.172 173.244 382.542 173.214C382.922 173.174 383.292 173.164 383.662 173.174C384.022 173.184 384.372 173.224 384.702 173.284C385.302 173.394 385.792 173.544 386.192 173.744C386.582 173.944 386.872 174.184 387.052 174.444C387.222 174.714 387.272 175.024 387.202 175.364C387.132 175.714 386.922 176.074 386.582 176.454C386.242 176.844 385.832 177.174 385.362 177.444C384.892 177.724 384.392 177.924 383.852 178.074C383.312 178.224 382.742 178.304 382.152 178.324C381.552 178.344 380.962 178.314 380.362 178.204C380.042 178.154 379.732 178.074 379.452 177.974ZM382.342 177.644C382.792 177.634 383.232 177.574 383.642 177.474C384.062 177.364 384.442 177.214 384.782 177.024C385.142 176.824 385.442 176.584 385.682 176.304C385.932 176.024 386.082 175.754 386.112 175.504C386.152 175.264 386.102 175.034 385.962 174.834C385.822 174.634 385.592 174.454 385.272 174.304C384.952 174.154 384.562 174.044 384.112 173.964C383.642 173.884 383.182 173.844 382.742 173.844C382.292 173.854 381.852 173.904 381.442 174.004C381.032 174.104 380.662 174.254 380.312 174.444C379.962 174.644 379.662 174.894 379.392 175.194C379.122 175.494 378.972 175.774 378.922 176.024C378.882 176.274 378.922 176.504 379.072 176.704C379.222 176.904 379.462 177.064 379.782 177.204C380.092 177.344 380.492 177.454 380.962 177.544C381.422 177.614 381.892 177.654 382.342 177.644Z" fill="white"/>
<path d="M379.382 183.874C379.222 184.014 379.052 184.144 378.872 184.264C378.702 184.374 378.512 184.474 378.312 184.564C378.112 184.644 377.902 184.704 377.672 184.754C377.442 184.804 377.212 184.824 376.972 184.834C376.732 184.834 376.492 184.814 376.242 184.754C376.122 184.724 375.992 184.684 375.862 184.624C375.742 184.564 375.632 184.494 375.542 184.414C375.452 184.324 375.382 184.234 375.352 184.114C375.302 184.004 375.312 183.874 375.352 183.734C375.202 183.824 375.022 183.914 374.832 183.994C374.632 184.074 374.422 184.144 374.192 184.204C373.962 184.254 373.722 184.284 373.462 184.304C373.202 184.314 372.922 184.284 372.642 184.224C372.472 184.184 372.322 184.134 372.182 184.074C372.022 184.004 371.902 183.924 371.802 183.834C371.702 183.734 371.622 183.624 371.562 183.504C371.502 183.384 371.492 183.244 371.512 183.094C371.532 182.934 371.592 182.774 371.692 182.594C371.792 182.414 371.952 182.214 372.172 182.004L374.252 179.914L381.662 181.594L379.902 183.364C379.712 183.564 379.532 183.734 379.382 183.874ZM376.192 183.334C376.122 183.484 376.112 183.604 376.142 183.704C376.172 183.794 376.252 183.874 376.372 183.934C376.492 183.984 376.642 184.034 376.802 184.074C376.982 184.114 377.142 184.134 377.312 184.134C377.492 184.124 377.652 184.094 377.832 184.034C378.012 183.984 378.192 183.884 378.362 183.764C378.542 183.644 378.732 183.494 378.922 183.304L380.152 182.064L377.862 181.544L376.632 182.784C376.402 183.004 376.262 183.184 376.192 183.334ZM372.692 182.674C372.612 182.834 372.572 182.974 372.602 183.094C372.612 183.204 372.702 183.304 372.812 183.374C372.922 183.454 373.082 183.514 373.272 183.554C373.472 183.594 373.662 183.614 373.862 183.614C374.062 183.604 374.262 183.574 374.462 183.514C374.672 183.444 374.872 183.344 375.072 183.214C375.282 183.074 375.492 182.904 375.702 182.694L377.022 181.364L374.442 180.784L373.122 182.114C372.932 182.324 372.782 182.514 372.692 182.674Z" fill="white"/>
<path d="M363.592 190.064L364.392 189.344L367.132 189.434L369.242 187.534L367.662 186.394L368.412 185.714L373.612 189.534L372.742 190.314L363.592 190.064ZM368.082 189.464L372.052 189.604L369.802 187.914L368.082 189.464Z" fill="white"/>
<path d="M361.232 196.654L364.022 197.584L363.252 198.214L356.492 195.944L357.262 195.314L360.442 196.384L363.522 193.874L360.342 192.804L361.112 192.174L367.872 194.444L367.102 195.074L364.312 194.144L361.232 196.654Z" fill="white"/>
<path d="M353.712 199.504L355.722 203.894L354.762 204.604L348.382 202.044L349.212 201.434L354.402 203.514L354.422 203.504L352.382 199.104L353.342 198.394L359.722 200.954L358.892 201.564L353.732 199.494L353.712 199.504Z" fill="white"/>
<path d="M346.442 207.284C346.822 207.504 347.112 207.744 347.292 208.014C347.482 208.274 347.562 208.554 347.542 208.844C347.522 209.134 347.402 209.434 347.152 209.744C346.912 210.054 346.552 210.364 346.072 210.684C345.562 211.014 345.032 211.284 344.492 211.464C343.942 211.654 343.412 211.764 342.872 211.804C342.332 211.844 341.812 211.814 341.292 211.724C340.762 211.624 340.292 211.464 339.832 211.244C339.572 211.124 339.352 210.974 339.152 210.824C338.952 210.664 338.792 210.494 338.672 210.304C338.552 210.114 338.472 209.924 338.442 209.714C338.422 209.504 338.452 209.284 338.542 209.064C338.622 208.844 338.782 208.604 338.992 208.374C339.212 208.134 339.502 207.894 339.872 207.654C340.212 207.424 340.562 207.234 340.912 207.094C341.262 206.934 341.622 206.824 341.972 206.744C342.322 206.654 342.672 206.594 343.012 206.574C343.352 206.544 343.692 206.544 344.002 206.574C344.342 206.594 344.632 206.634 344.942 206.704C345.242 206.774 345.512 206.854 345.772 206.964L346.822 206.274L344.202 204.994L345.092 204.414L351.012 207.294L350.122 207.874L347.512 206.604L346.442 207.284ZM341.832 211.034C342.242 211.104 342.642 211.134 343.052 211.104C343.462 211.084 343.862 211.004 344.262 210.874C344.672 210.744 345.042 210.564 345.382 210.344C345.732 210.114 345.992 209.874 346.142 209.634C346.302 209.394 346.382 209.154 346.362 208.924C346.342 208.694 346.232 208.474 346.042 208.264C345.852 208.044 345.582 207.854 345.232 207.684C344.872 207.504 344.482 207.384 344.082 207.314C343.672 207.244 343.272 207.214 342.852 207.244C342.442 207.264 342.042 207.354 341.642 207.474C341.262 207.594 340.882 207.774 340.542 207.994C340.142 208.254 339.862 208.514 339.702 208.744C339.542 208.994 339.462 209.224 339.492 209.444C339.522 209.674 339.642 209.884 339.852 210.084C340.062 210.284 340.342 210.474 340.702 210.644C341.052 210.824 341.432 210.954 341.832 211.034Z" fill="white"/>
<path d="M329.272 220.604L327.922 221.364L328.822 218.344L322.632 218.104L323.862 217.414L329.032 217.654L329.382 216.484L327.572 215.334L328.532 214.794L333.742 218.104L332.782 218.644L330.242 217.034L329.272 220.604Z" fill="white"/>
<path d="M319.132 220.674C319.052 220.694 318.972 220.714 318.882 220.734L318.612 220.824C318.532 220.854 318.452 220.894 318.382 220.924C318.232 221.004 318.112 221.074 318.022 221.154C317.942 221.224 317.882 221.304 317.842 221.374C317.812 221.444 317.792 221.514 317.792 221.594C317.802 221.664 317.832 221.724 317.852 221.784L324.752 223.044L323.582 223.644L317.932 222.564L319.222 225.874L318.092 226.454L316.862 222.594C316.792 222.334 316.742 222.104 316.712 221.904C316.682 221.704 316.702 221.524 316.762 221.364C316.822 221.204 316.932 221.044 317.092 220.904C317.252 220.754 317.482 220.614 317.772 220.464C317.932 220.384 318.092 220.314 318.262 220.264C318.432 220.204 318.582 220.174 318.692 220.164L319.312 220.624C319.282 220.644 319.212 220.664 319.132 220.674Z" fill="white"/>
<path d="M309.862 230.274C309.492 230.354 309.152 230.404 308.832 230.404C308.522 230.404 308.232 230.364 307.982 230.274C307.712 230.184 307.502 230.064 307.312 229.894C307.122 229.724 306.992 229.564 306.942 229.374C306.882 229.194 306.902 229.004 307.002 228.814C307.092 228.614 307.272 228.424 307.512 228.224C307.762 228.024 308.102 227.824 308.532 227.624L310.762 226.584L308.962 225.024L310.002 224.534L314.332 228.294L311.062 229.824C310.632 230.034 310.232 230.184 309.862 230.274ZM308.152 228.754C308.032 228.984 308.102 229.204 308.352 229.414C308.602 229.624 308.902 229.734 309.282 229.734C309.642 229.734 310.112 229.604 310.662 229.344L312.782 228.354L311.262 227.034L309.142 228.024C308.602 228.284 308.262 228.524 308.152 228.754Z" fill="white"/>
<path d="M300.642 230.714C300.322 230.564 299.982 230.474 299.612 230.434C299.242 230.394 298.852 230.404 298.462 230.464C298.062 230.524 297.672 230.634 297.282 230.804C296.932 230.954 296.662 231.104 296.442 231.294C296.232 231.464 296.072 231.644 295.982 231.824C295.882 232.014 295.832 232.194 295.832 232.364C295.842 232.534 295.882 232.704 295.972 232.854L294.932 233.294C294.842 233.164 294.772 233.034 294.732 232.874C294.702 232.714 294.692 232.554 294.722 232.384C294.752 232.214 294.802 232.044 294.902 231.864C294.982 231.684 295.112 231.514 295.282 231.324C295.462 231.144 295.672 230.974 295.932 230.804C296.182 230.634 296.482 230.474 296.842 230.324C297.092 230.224 297.352 230.124 297.662 230.034C297.962 229.934 298.282 229.864 298.612 229.814C298.942 229.754 299.282 229.724 299.632 229.714C299.982 229.704 300.332 229.734 300.662 229.804C300.992 229.874 301.332 229.994 301.642 230.144C301.962 230.294 302.252 230.514 302.522 230.784C302.782 231.054 302.962 231.314 303.062 231.574C303.162 231.824 303.192 232.074 303.172 232.304C303.142 232.534 303.062 232.754 302.922 232.974C302.792 233.184 302.622 233.384 302.412 233.574C302.192 233.754 301.952 233.934 301.692 234.084C301.422 234.244 301.132 234.384 300.842 234.504C300.472 234.664 300.112 234.784 299.792 234.874C299.452 234.964 299.132 235.024 298.832 235.074C298.532 235.104 298.262 235.114 298.002 235.104C297.742 235.094 297.502 235.074 297.282 235.034C297.072 234.994 296.882 234.934 296.722 234.854C296.562 234.784 296.422 234.704 296.322 234.614L297.372 234.164C297.562 234.264 297.772 234.334 298.002 234.384C298.232 234.424 298.472 234.454 298.742 234.434C298.992 234.424 299.262 234.384 299.532 234.324C299.812 234.254 300.092 234.164 300.352 234.054C300.762 233.874 301.092 233.684 301.352 233.464C301.602 233.254 301.792 233.024 301.892 232.784C301.992 232.544 302.012 232.294 301.942 232.044C301.872 231.794 301.722 231.534 301.482 231.294C301.242 231.064 300.962 230.864 300.642 230.714Z" fill="white"/>
<path d="M288.192 237.184C287.702 237.374 287.252 237.504 286.832 237.584C286.422 237.664 286.052 237.694 285.742 237.674C285.422 237.664 285.142 237.594 284.912 237.484C284.682 237.374 284.492 237.224 284.332 237.034C284.182 236.844 284.112 236.654 284.112 236.464C284.112 236.264 284.172 236.064 284.312 235.884C284.452 235.694 284.652 235.504 284.932 235.324C285.212 235.144 285.562 234.974 285.982 234.814L289.562 233.464L292.852 237.664L291.742 238.084L290.392 236.354L288.192 237.184ZM285.922 235.534C285.752 235.634 285.622 235.734 285.512 235.854C285.422 235.964 285.362 236.084 285.352 236.204C285.342 236.324 285.402 236.454 285.512 236.594C285.622 236.734 285.752 236.834 285.902 236.904C286.072 236.964 286.252 236.994 286.452 236.994C286.652 236.984 286.882 236.954 287.122 236.904C287.372 236.844 287.632 236.754 287.912 236.654L290.012 235.864L288.852 234.374L286.512 235.254C286.292 235.344 286.092 235.434 285.922 235.534ZM282.262 236.234L285.552 240.434L284.442 240.854L281.152 236.654L282.262 236.234Z" fill="white"/>
<path d="M265.012 241.994L267.152 245.964L271.702 244.544L269.562 240.574L270.702 240.214L273.122 244.714L266.282 246.854L263.862 242.354L265.012 241.994Z" fill="white"/>
<path d="M252.102 247.584C252.092 247.364 252.132 247.144 252.212 246.924C252.292 246.704 252.412 246.484 252.582 246.264C252.752 246.044 252.972 245.834 253.242 245.634C253.512 245.434 253.822 245.244 254.202 245.074C254.572 244.904 255.002 244.744 255.482 244.614C255.952 244.484 256.412 244.394 256.842 244.354C257.252 244.314 257.652 244.304 258.022 244.334C258.372 244.364 258.702 244.424 258.992 244.514C259.292 244.604 259.562 244.724 259.772 244.864C260.002 245.004 260.182 245.164 260.352 245.344C260.502 245.514 260.622 245.714 260.702 245.914C260.852 246.274 260.882 246.624 260.812 246.984C260.742 247.334 260.562 247.674 260.302 247.984C260.022 248.294 259.642 248.584 259.172 248.844C258.692 249.114 258.122 249.334 257.452 249.514C256.782 249.694 256.152 249.804 255.582 249.824C255.002 249.854 254.502 249.804 254.052 249.684C253.602 249.564 253.232 249.384 252.922 249.134C252.602 248.884 252.382 248.584 252.232 248.224C252.142 248.014 252.092 247.804 252.102 247.584ZM253.902 248.604C254.132 248.804 254.412 248.944 254.732 249.044C255.062 249.144 255.442 249.184 255.862 249.164C256.292 249.154 256.742 249.084 257.232 248.954C257.712 248.824 258.132 248.654 258.482 248.454C258.822 248.264 259.092 248.044 259.282 247.804C259.482 247.564 259.602 247.304 259.642 247.034C259.682 246.764 259.652 246.484 259.542 246.214C259.432 245.924 259.262 245.684 259.052 245.494C258.822 245.294 258.552 245.144 258.232 245.054C257.912 244.954 257.532 244.924 257.122 244.924C256.702 244.934 256.232 245.014 255.712 245.154C255.192 245.294 254.762 245.464 254.412 245.664C254.062 245.864 253.782 246.084 253.602 246.314C253.412 246.554 253.312 246.804 253.282 247.074C253.242 247.334 253.282 247.614 253.402 247.904C253.492 248.174 253.672 248.414 253.902 248.604Z" fill="white"/>
<path d="M234.952 249.684L235.832 253.984L240.532 252.974L239.652 248.674L240.832 248.424L241.832 253.294L234.762 254.814L233.762 249.944L234.952 249.684Z" fill="white"/>
<path d="M224.552 256.634C224.202 256.624 223.892 256.574 223.642 256.494C223.392 256.414 223.212 256.294 223.082 256.134C222.942 255.974 222.872 255.794 222.852 255.564C222.832 255.334 222.862 255.134 222.972 254.934C223.062 254.734 223.222 254.554 223.452 254.384C223.672 254.214 223.962 254.054 224.302 253.924C224.652 253.794 225.072 253.684 225.562 253.594L228.112 253.134L227.922 251.064L229.112 250.854L229.572 255.834L225.832 256.514C225.342 256.604 224.912 256.644 224.552 256.634ZM224.402 254.624C224.132 254.824 224.012 255.064 224.042 255.354C224.072 255.634 224.222 255.824 224.522 255.934C224.812 256.034 225.272 256.024 225.902 255.914L228.322 255.474L228.162 253.724L225.742 254.164C225.112 254.274 224.662 254.434 224.402 254.624Z" fill="white"/>
<path d="M209.862 255.854C209.942 255.624 210.052 255.404 210.222 255.184C210.392 254.964 210.572 254.754 210.812 254.544C211.052 254.344 211.342 254.154 211.662 253.984C211.982 253.814 212.352 253.664 212.762 253.534C213.172 253.404 213.622 253.304 214.112 253.234C214.592 253.164 215.052 253.134 215.462 253.144C215.862 253.154 216.222 253.204 216.542 253.284C216.852 253.364 217.132 253.464 217.362 253.604C217.602 253.734 217.802 253.894 217.942 254.064C218.102 254.234 218.202 254.424 218.292 254.634C218.362 254.834 218.392 255.044 218.392 255.264C218.382 255.664 218.282 256.024 218.072 256.384C217.872 256.734 217.582 257.064 217.212 257.344C216.832 257.634 216.372 257.884 215.842 258.084C215.292 258.294 214.682 258.444 214.002 258.544C213.322 258.644 212.702 258.674 212.172 258.614C211.632 258.564 211.182 258.444 210.822 258.264C210.452 258.084 210.192 257.844 209.992 257.544C209.802 257.244 209.712 256.904 209.712 256.504C209.732 256.304 209.772 256.084 209.862 255.854ZM211.102 257.154C211.232 257.384 211.442 257.574 211.692 257.724C211.962 257.864 212.292 257.964 212.672 258.004C213.062 258.054 213.512 258.034 214.002 257.964C214.502 257.894 214.942 257.774 215.342 257.614C215.732 257.464 216.062 257.274 216.332 257.044C216.612 256.824 216.822 256.574 216.962 256.294C217.102 256.024 217.182 255.724 217.192 255.434C217.202 255.124 217.142 254.854 217.022 254.624C216.892 254.394 216.692 254.204 216.442 254.054C216.182 253.904 215.852 253.824 215.472 253.774C215.082 253.734 214.622 253.754 214.092 253.824C213.562 253.904 213.102 254.014 212.702 254.174C212.302 254.334 211.962 254.524 211.702 254.744C211.442 254.964 211.252 255.214 211.122 255.484C210.982 255.754 210.912 256.044 210.912 256.354C210.902 256.644 210.972 256.924 211.102 257.154Z" fill="white"/>
<path d="M203.802 259.174L204.342 254.634L205.532 254.504L204.922 259.644L199.702 260.234L199.772 259.634L203.802 259.174Z" fill="white"/>
<path d="M190.212 260.964C189.882 260.914 189.612 260.834 189.402 260.724C189.192 260.614 189.052 260.464 188.982 260.294C188.902 260.114 188.892 259.914 188.942 259.684C188.992 259.454 189.082 259.244 189.242 259.054C189.392 258.854 189.602 258.684 189.862 258.534C190.122 258.374 190.442 258.254 190.802 258.154C191.172 258.054 191.602 257.984 192.092 257.944L194.622 257.734L195.072 255.584L196.252 255.484L195.162 260.664L191.452 260.964C190.962 261.004 190.552 261.004 190.212 260.964ZM190.692 258.874C190.372 259.054 190.192 259.294 190.132 259.584C190.072 259.884 190.162 260.094 190.412 260.224C190.652 260.354 191.092 260.394 191.712 260.344L194.122 260.144L194.502 258.324L192.092 258.524C191.462 258.584 190.992 258.704 190.692 258.874Z" fill="white"/>
<path d="M178.052 256.634L179.352 256.574L179.782 258.134L183.222 257.974L184.692 256.334L185.922 256.274L181.012 261.724L179.602 261.794L178.052 256.634ZM179.952 258.674L180.562 260.934L182.752 258.544L179.952 258.674Z" fill="white"/>
<path d="M169.762 257.614L165.502 262.034L163.842 262.044L166.012 256.814L167.092 256.804L165.262 261.204H165.282L169.532 256.784L170.682 256.774L171.282 261.154H171.302L173.132 256.754L174.212 256.744L172.042 261.974L170.382 261.984L169.772 257.604L169.762 257.614Z" fill="white"/>
<path d="M157.042 257.454L152.322 261.764L150.702 261.704L153.462 256.484L154.522 256.524L152.192 260.914H152.212L156.912 256.604L158.042 256.644L158.092 261.124H158.112L160.442 256.734L161.502 256.774L158.732 261.994L157.112 261.934L157.052 257.454H157.042Z" fill="white"/>
<path d="M147.312 257.124L140.432 261.004L139.152 260.904L142.472 255.714L143.572 255.804L140.872 260.024H140.892L147.782 256.124L149.062 256.224L145.742 261.414L144.642 261.324L147.332 257.124H147.312Z" fill="white"/>
<path d="M129.922 259.784C129.672 259.664 129.472 259.534 129.352 259.384C129.232 259.234 129.192 259.054 129.232 258.854C129.262 258.654 129.362 258.444 129.532 258.214C129.702 257.984 129.892 257.794 130.142 257.614C130.382 257.444 130.652 257.304 130.962 257.194C131.272 257.084 131.622 257.014 131.982 256.984C132.362 256.954 132.762 256.964 133.212 257.014L135.512 257.284L137.102 255.144L138.172 255.274L134.352 260.424L130.972 260.024C130.542 259.974 130.192 259.894 129.922 259.784ZM131.492 257.714C131.122 257.844 130.832 258.044 130.612 258.344C130.392 258.634 130.352 258.874 130.492 259.064C130.622 259.244 130.982 259.374 131.552 259.444L133.742 259.704L135.082 257.894L132.892 257.634C132.322 257.564 131.852 257.594 131.492 257.714Z" fill="white"/>
<path d="M119.522 254.744C119.772 254.534 120.042 254.344 120.352 254.174C120.662 254.004 120.982 253.844 121.332 253.704C121.682 253.564 122.062 253.464 122.442 253.384C122.832 253.304 123.232 253.254 123.652 253.244C124.072 253.234 124.492 253.264 124.922 253.334C125.342 253.404 125.712 253.504 126.012 253.634C126.302 253.764 126.542 253.914 126.712 254.084C126.882 254.244 127.002 254.434 127.062 254.644C127.132 254.854 127.152 255.064 127.112 255.284C127.082 255.504 127.012 255.724 126.892 255.954C126.772 256.174 126.622 256.404 126.432 256.624C126.092 257.024 125.712 257.364 125.252 257.664C124.802 257.964 124.312 258.204 123.802 258.384C123.282 258.564 122.722 258.684 122.152 258.734C121.562 258.794 120.972 258.764 120.382 258.664C119.782 258.564 119.302 258.414 118.952 258.204C118.582 257.994 118.352 257.754 118.222 257.464C118.092 257.174 118.102 256.854 118.202 256.504C118.312 256.144 118.522 255.774 118.862 255.384C119.052 255.154 119.272 254.944 119.522 254.744ZM119.372 256.414C119.272 256.684 119.272 256.934 119.342 257.154C119.422 257.374 119.592 257.564 119.852 257.724C120.112 257.884 120.452 258.004 120.892 258.074C121.322 258.144 121.762 258.164 122.192 258.114C122.612 258.074 123.022 257.974 123.412 257.834C123.802 257.694 124.182 257.504 124.512 257.264C124.852 257.034 125.152 256.754 125.402 256.464C125.662 256.154 125.852 255.864 125.952 255.594C126.052 255.324 126.062 255.074 125.992 254.854C125.922 254.634 125.742 254.454 125.502 254.294C125.242 254.134 124.882 254.024 124.412 253.944C123.942 253.864 123.502 253.854 123.072 253.894C122.632 253.944 122.232 254.034 121.842 254.174C121.462 254.324 121.112 254.514 120.782 254.754C120.452 254.984 120.162 255.254 119.892 255.564C119.652 255.844 119.472 256.144 119.372 256.414Z" fill="white"/>
<path d="M109.162 256.364C108.952 256.304 108.772 256.234 108.602 256.164C108.462 256.094 108.332 256.004 108.222 255.904C108.122 255.804 108.072 255.694 108.042 255.574C108.012 255.454 108.032 255.314 108.082 255.174C108.142 255.024 108.242 254.874 108.402 254.704C108.482 254.624 108.592 254.524 108.722 254.434C108.862 254.344 109.002 254.264 109.172 254.174C109.352 254.094 109.532 254.024 109.742 253.974C109.952 253.914 110.172 253.884 110.412 253.864C110.292 253.794 110.182 253.714 110.072 253.624C109.972 253.524 109.902 253.424 109.862 253.294C109.832 253.174 109.842 253.034 109.872 252.874C109.922 252.714 110.042 252.544 110.222 252.354C110.332 252.244 110.452 252.134 110.592 252.034C110.752 251.914 110.922 251.824 111.112 251.734C111.312 251.644 111.532 251.564 111.762 251.494C111.992 251.424 112.242 251.374 112.492 251.344C112.762 251.314 113.032 251.304 113.322 251.314C113.612 251.324 113.922 251.364 114.252 251.434L117.412 252.104L112.612 257.084L109.932 256.514C109.622 256.484 109.372 256.424 109.162 256.364ZM112.942 251.964C112.682 251.964 112.452 251.974 112.222 252.024C112.022 252.064 111.832 252.144 111.672 252.234C111.512 252.324 111.362 252.434 111.242 252.564C111.112 252.694 111.032 252.824 110.992 252.934C110.952 253.054 110.952 253.164 111.012 253.274C111.082 253.384 111.212 253.474 111.382 253.564C111.572 253.654 111.822 253.734 112.142 253.804L114.152 254.234L115.822 252.494L113.812 252.064C113.502 252.004 113.212 251.964 112.942 251.964ZM110.912 254.274C110.672 254.274 110.462 254.304 110.272 254.344C110.102 254.394 109.952 254.454 109.812 254.544C109.682 254.634 109.562 254.734 109.462 254.844C109.352 254.964 109.272 255.074 109.232 255.174C109.212 255.274 109.222 255.374 109.282 255.464C109.332 255.554 109.452 255.644 109.622 255.714C109.782 255.794 110.002 255.864 110.292 255.924L112.162 256.324L113.642 254.784L111.772 254.384C111.442 254.314 111.162 254.274 110.912 254.274Z" fill="white"/>
<path d="M102.212 248.504L103.282 248.784L102.432 250.484L105.252 251.224L107.662 249.944L108.672 250.214L100.652 254.464L99.4922 254.154L102.212 248.504ZM102.152 251.074L100.912 253.534L104.452 251.684L102.152 251.074Z" fill="white"/>
<path d="M91.2222 248.934L88.8821 250.894L87.9622 250.604L93.6422 245.854L94.5622 246.144L91.8922 248.384L95.5322 249.554L98.2021 247.314L99.1222 247.604L93.4421 252.354L92.5222 252.064L94.8622 250.104L91.2222 248.934Z" fill="white"/>
<path d="M88.092 245.154L79.8721 247.614L78.8721 247.234L84.972 242.634L85.842 242.964L80.882 246.714L80.902 246.724L89.152 244.244L90.152 244.624L84.0521 249.224L83.1821 248.894L88.1121 245.164L88.092 245.154Z" fill="white"/>
<path d="M76.2221 242.934C75.7421 243.234 75.2421 243.474 74.7221 243.664C74.2121 243.854 73.7021 243.984 73.2021 244.044C72.7021 244.114 72.2121 244.124 71.7221 244.064C71.2421 244.004 70.7821 243.874 70.3421 243.674C69.8821 243.454 69.5521 243.214 69.3721 242.934C69.1721 242.654 69.1221 242.354 69.1721 242.044C69.2321 241.724 69.4221 241.404 69.7121 241.054C70.0121 240.704 70.4121 240.374 70.9221 240.024C71.2021 239.834 71.5121 239.654 71.8321 239.494C72.1621 239.324 72.5021 239.184 72.8621 239.054C73.2221 238.924 73.5821 238.824 73.9521 238.754C74.3321 238.684 74.702 238.634 75.072 238.634C75.442 238.624 75.8121 238.644 76.1721 238.714C76.5421 238.784 76.8921 238.894 77.2121 239.044C77.5221 239.184 77.772 239.344 77.942 239.514C78.132 239.684 78.2421 239.874 78.3021 240.054C78.3621 240.244 78.3921 240.434 78.3421 240.634C78.2921 240.834 78.2221 241.034 78.1021 241.234C77.9921 241.444 77.8321 241.634 77.6421 241.844C77.4421 242.044 77.2321 242.234 76.9821 242.424L77.9321 242.864L80.8321 240.904L81.6421 241.284L75.1021 245.704L74.2921 245.324L77.1721 243.384L76.2221 242.934ZM70.7821 241.184C70.5521 241.454 70.4021 241.704 70.3421 241.944C70.2821 242.184 70.322 242.414 70.442 242.614C70.562 242.824 70.7921 243.004 71.1021 243.144C71.4221 243.294 71.7721 243.384 72.1621 243.404C72.5421 243.434 72.9421 243.414 73.3521 243.334C73.7621 243.254 74.1821 243.124 74.6021 242.954C75.0321 242.784 75.4421 242.554 75.8321 242.294C76.2321 242.024 76.5521 241.754 76.7621 241.494C76.9921 241.224 77.142 240.974 77.192 240.724C77.252 240.484 77.2121 240.264 77.0921 240.054C76.9721 239.854 76.752 239.674 76.442 239.534C76.082 239.364 75.7021 239.264 75.3321 239.234C74.9321 239.204 74.5521 239.224 74.1521 239.304C73.7421 239.384 73.3421 239.514 72.9321 239.704C72.5421 239.884 72.1321 240.114 71.7321 240.384C71.3421 240.654 71.0221 240.914 70.7821 241.184Z" fill="white"/>
<path d="M56.532 235.594L55.582 234.964L60.652 234.754L62.822 230.924L63.692 231.504L61.8121 234.714L63.772 234.634L66.3121 233.244L66.9921 233.694L59.702 237.694L59.022 237.244L62.572 235.294L56.532 235.594Z" fill="white"/>
<path d="M59.262 229.444C59.252 229.394 59.232 229.354 59.222 229.304L59.142 229.164C59.112 229.124 59.072 229.084 59.022 229.044C58.932 228.974 58.822 228.924 58.712 228.884C58.602 228.854 58.4921 228.834 58.3721 228.834C58.2521 228.834 58.1321 228.834 58.0021 228.864C57.8721 228.884 57.762 228.914 57.642 228.954L53.4821 233.464L52.7521 232.904L56.2421 229.204L50.0521 230.814L49.3521 230.274L56.4821 228.564C56.9521 228.464 57.3821 228.374 57.7321 228.304C58.1021 228.234 58.4021 228.204 58.6721 228.194C58.9421 228.194 59.192 228.214 59.392 228.284C59.602 228.344 59.792 228.444 59.972 228.584C60.072 228.664 60.142 228.744 60.192 228.834C60.242 228.924 60.2621 229.004 60.2421 229.074L59.262 229.564C59.272 229.524 59.272 229.484 59.262 229.444Z" fill="white"/>
<path d="M44.9921 226.194C44.9521 225.994 44.9621 225.794 45.0421 225.604C45.1321 225.414 45.2821 225.234 45.5121 225.054C45.7421 224.874 46.0221 224.714 46.3721 224.554C46.7221 224.394 47.0521 224.274 47.3921 224.204C47.7321 224.124 48.0521 224.084 48.3621 224.104C48.6821 224.114 48.9721 224.164 49.2421 224.264C49.5221 224.364 49.7721 224.524 50.0121 224.734L51.2121 225.834L54.4621 224.354L55.0221 224.864L47.1821 228.434L45.4121 226.824C45.2021 226.604 45.0521 226.394 44.9921 226.194ZM48.1721 224.774C47.8021 224.764 47.392 224.854 46.942 225.064C46.492 225.264 46.2221 225.484 46.1121 225.714C46.0121 225.934 46.1121 226.184 46.4021 226.454L47.5521 227.494L50.3021 226.244L49.1521 225.204C48.8621 224.924 48.5221 224.784 48.1721 224.774Z" fill="white"/>
<path d="M46.8321 220.694C47.1821 220.464 47.4421 220.234 47.6221 219.994C47.8021 219.754 47.8921 219.524 47.9021 219.294C47.9121 219.064 47.8221 218.854 47.6421 218.654C47.4821 218.484 47.2821 218.354 47.0221 218.264C46.7721 218.184 46.5121 218.124 46.2221 218.114C45.9121 218.104 45.6221 218.114 45.3121 218.154C45.0021 218.204 44.7021 218.264 44.4121 218.364L43.9321 217.844C44.1821 217.754 44.4321 217.684 44.7221 217.624C45.0121 217.564 45.2921 217.524 45.5821 217.494C45.8721 217.464 46.1521 217.454 46.4421 217.474C46.7321 217.484 47.0021 217.514 47.2721 217.574C47.5321 217.634 47.7821 217.724 48.0021 217.844C48.2221 217.954 48.4221 218.094 48.5821 218.274C48.6921 218.394 48.7921 218.534 48.8621 218.704C48.9421 218.864 48.9821 219.044 48.9821 219.224C49.0021 219.414 48.9521 219.614 48.8621 219.824C48.7821 220.034 48.6221 220.254 48.4021 220.474C48.1821 220.694 47.8821 220.924 47.5221 221.154C47.1621 221.384 46.6921 221.624 46.1421 221.844C45.6021 222.064 45.0821 222.244 44.6021 222.374C44.1321 222.504 43.6921 222.584 43.2821 222.624C42.8821 222.664 42.5121 222.664 42.1821 222.634C41.8521 222.614 41.5521 222.554 41.2721 222.474C41.0121 222.394 40.7721 222.284 40.5721 222.164C40.3721 222.034 40.2021 221.894 40.0721 221.754C39.9021 221.564 39.7921 221.384 39.7221 221.204C39.6621 221.024 39.6421 220.844 39.6521 220.664C39.6821 220.494 39.7421 220.324 39.8321 220.164C39.9221 220.004 40.0221 219.854 40.1621 219.714C40.2921 219.574 40.4621 219.444 40.6321 219.324C40.8021 219.204 40.9721 219.104 41.1621 219.024L41.6521 219.554C41.4221 219.694 41.2321 219.844 41.0921 219.994C40.9521 220.144 40.8421 220.294 40.8021 220.454C40.7521 220.604 40.7421 220.754 40.7721 220.914C40.8221 221.064 40.8921 221.214 41.0121 221.344C41.2021 221.554 41.4521 221.704 41.7621 221.804C42.0621 221.904 42.4221 221.964 42.8121 221.964C43.2121 221.964 43.6421 221.914 44.1021 221.814C44.5621 221.714 45.0521 221.554 45.5521 221.344C46.0521 221.144 46.4821 220.924 46.8321 220.694Z" fill="white"/>
<path d="M42.322 210.884L34.0021 213.934L33.582 213.364L41.902 210.314L42.322 210.884ZM38.962 214.734C38.772 214.484 38.672 214.244 38.642 214.004C38.622 213.774 38.662 213.554 38.782 213.364C38.902 213.164 39.092 212.984 39.342 212.814C39.602 212.644 39.9121 212.494 40.2921 212.354C40.6621 212.214 41.0221 212.124 41.3521 212.074C41.6921 212.024 42.032 212.014 42.322 212.054C42.612 212.094 42.892 212.164 43.132 212.294C43.372 212.414 43.5721 212.594 43.7321 212.804L45.1021 214.644L36.782 217.694L36.3621 217.124L39.7921 215.864L38.962 214.734ZM42.522 212.934C42.392 212.854 42.242 212.804 42.072 212.764C41.902 212.734 41.7121 212.734 41.4921 212.754C41.2721 212.784 41.0321 212.844 40.7521 212.954C40.4721 213.054 40.2521 213.154 40.1021 213.264C39.9521 213.384 39.852 213.504 39.782 213.624C39.742 213.744 39.732 213.874 39.762 214.014C39.802 214.154 39.8821 214.284 39.9821 214.434L40.782 215.514L43.722 214.434L42.832 213.234C42.742 213.114 42.642 213.014 42.522 212.934Z" fill="white"/>
<path d="M37.0621 201.824L29.4721 204.124L30.6921 206.544L38.2821 204.244L38.5921 204.854L30.0021 207.454L28.1721 203.824L36.7621 201.224L37.0621 201.824Z" fill="white"/>
<path d="M30.882 195.354C31.272 195.294 31.642 195.264 32.022 195.254C32.392 195.254 32.742 195.264 33.082 195.314C33.422 195.364 33.7321 195.444 34.0021 195.564C34.2821 195.674 34.522 195.824 34.722 196.004C34.922 196.184 35.072 196.404 35.162 196.674C35.252 196.934 35.2821 197.184 35.2421 197.434C35.1921 197.674 35.102 197.914 34.942 198.144C34.792 198.364 34.592 198.584 34.352 198.784C34.112 198.994 33.832 199.184 33.522 199.344C33.212 199.514 32.882 199.674 32.522 199.814C32.172 199.954 31.802 200.064 31.422 200.164C30.742 200.344 30.1121 200.454 29.5021 200.494C28.9021 200.534 28.362 200.514 27.892 200.434C27.422 200.344 27.012 200.184 26.692 199.964C26.352 199.734 26.1321 199.444 26.0021 199.084C25.8721 198.724 25.8621 198.364 25.9921 198.024C26.1021 197.674 26.332 197.364 26.662 197.054C26.992 196.754 27.422 196.484 27.942 196.224C28.472 195.964 29.0621 195.754 29.7421 195.574C30.1221 195.484 30.502 195.414 30.882 195.354ZM28.582 196.704C28.172 196.894 27.832 197.104 27.572 197.324C27.312 197.554 27.132 197.794 27.032 198.044C26.922 198.304 26.932 198.564 27.022 198.824C27.122 199.084 27.2921 199.304 27.5521 199.464C27.7921 199.624 28.102 199.734 28.472 199.784C28.842 199.844 29.262 199.854 29.722 199.814C30.182 199.774 30.682 199.684 31.192 199.544C31.722 199.404 32.202 199.244 32.602 199.064C33.012 198.874 33.3521 198.674 33.6221 198.454C33.8921 198.234 34.052 197.994 34.162 197.744C34.252 197.494 34.252 197.224 34.152 196.944C34.052 196.664 33.872 196.444 33.632 196.274C33.372 196.114 33.082 195.994 32.712 195.944C32.342 195.894 31.932 195.894 31.472 195.944C31.022 195.984 30.5221 196.084 29.9921 196.224C29.4621 196.354 28.992 196.514 28.582 196.704Z" fill="white"/>
<path d="M32.032 185.444L24.212 187.054L24.6721 189.664L32.4921 188.054L32.6021 188.714L23.7521 190.544L23.072 186.624L31.9221 184.794L32.032 185.444Z" fill="white"/>
<path d="M22.7421 180.844C22.8621 180.624 23.0321 180.424 23.2421 180.254C23.4521 180.084 23.7221 179.934 24.0421 179.824C24.3621 179.704 24.7021 179.614 25.1021 179.544C25.5021 179.474 25.8421 179.444 26.1721 179.464C26.5021 179.474 26.7721 179.524 27.0121 179.614C27.2521 179.704 27.4421 179.844 27.5721 180.014C27.7121 180.194 27.7821 180.424 27.8021 180.704L27.8921 182.144L31.5821 181.514L31.6221 182.184L22.7321 183.714L22.6021 181.604C22.5821 181.314 22.6321 181.074 22.7421 180.844ZM26.3221 180.254C26.0421 180.144 25.6521 180.134 25.1421 180.214C24.6321 180.304 24.2521 180.444 23.9921 180.654C23.7421 180.854 23.6221 181.134 23.6421 181.494L23.7321 182.864L26.8521 182.324L26.7621 180.954C26.7421 180.594 26.5921 180.364 26.3221 180.254Z" fill="white"/>
<path d="M28.2721 171.714C28.6521 171.704 29.0121 171.724 29.3521 171.764C29.6921 171.814 30.0121 171.874 30.3021 171.964C30.5921 172.054 30.8421 172.184 31.0421 172.344C31.2521 172.494 31.4221 172.684 31.5321 172.894C31.6421 173.114 31.6921 173.354 31.6821 173.644C31.6721 173.924 31.5921 174.194 31.4621 174.444C31.3321 174.684 31.1421 174.924 30.9121 175.144C30.6921 175.354 30.4221 175.544 30.1221 175.724C29.8221 175.904 29.4921 176.064 29.1421 176.194C28.7921 176.334 28.4321 176.444 28.0421 176.544C27.6721 176.634 27.2821 176.714 26.9021 176.764C26.2121 176.854 25.5921 176.884 25.0121 176.854C24.4521 176.814 23.9621 176.724 23.5621 176.574C23.1621 176.414 22.8521 176.194 22.6421 175.924C22.4221 175.644 22.3221 175.314 22.3421 174.924C22.3621 174.534 22.4921 174.164 22.7421 173.824C22.9821 173.484 23.3121 173.184 23.7321 172.914C24.1521 172.644 24.6521 172.424 25.2321 172.234C25.8221 172.044 26.4421 171.904 27.1321 171.804C27.5121 171.744 27.9021 171.714 28.2721 171.714ZM25.6321 172.794C25.1821 172.934 24.7921 173.104 24.4621 173.294C24.1321 173.494 23.8721 173.714 23.6921 173.964C23.4921 174.214 23.3921 174.484 23.3821 174.764C23.3721 175.044 23.4421 175.294 23.6221 175.494C23.7821 175.694 24.0221 175.844 24.3421 175.954C24.6521 176.064 25.0321 176.134 25.4821 176.154C25.9221 176.174 26.4221 176.144 26.9421 176.074C27.4821 176.004 27.9821 175.894 28.4221 175.764C28.8721 175.624 29.2621 175.464 29.5921 175.264C29.9221 175.074 30.1621 174.844 30.3621 174.604C30.5421 174.354 30.6421 174.084 30.6621 173.774C30.6721 173.474 30.6021 173.214 30.4421 173.014C30.2721 172.814 30.0421 172.654 29.7221 172.544C29.4021 172.434 29.0321 172.384 28.5821 172.374C28.1521 172.354 27.6621 172.384 27.1121 172.464C26.5821 172.544 26.0821 172.654 25.6321 172.794Z" fill="white"/>
<path d="M24.1421 168.854L31.9721 168.044L31.8721 168.734L23.0121 169.644L23.4521 166.614L24.4921 166.504L24.1421 168.854Z" fill="white"/>
<path d="M24.8322 161.034C25.0122 160.824 25.2322 160.634 25.4822 160.484C25.7322 160.334 26.0322 160.214 26.3622 160.124C26.7022 160.024 27.0521 159.974 27.4421 159.944C27.8321 159.914 28.1722 159.924 28.4722 159.964C28.7722 160.004 29.0222 160.084 29.2122 160.214C29.4122 160.334 29.5422 160.494 29.6222 160.694C29.6922 160.894 29.7021 161.134 29.6321 161.424L29.2822 162.914L32.9421 162.654L32.7822 163.344L23.9722 163.974L24.4922 161.794C24.5422 161.504 24.6522 161.254 24.8322 161.034ZM28.3722 160.804C28.1422 160.654 27.7822 160.604 27.2822 160.644C26.7822 160.684 26.3821 160.784 26.0721 160.974C25.7721 161.154 25.5822 161.434 25.4922 161.794L25.1522 163.214L28.2422 162.994L28.5822 161.574C28.6622 161.204 28.5922 160.944 28.3722 160.804Z" fill="white"/>
<path d="M35.8721 152.554L35.6121 153.334L32.7521 153.984L32.0621 156.034L34.5421 156.514L34.2921 157.244L26.092 155.614L26.3721 154.774L35.8721 152.554ZM31.762 154.214L27.6221 155.154L31.202 155.894L31.762 154.214Z" fill="white"/>
<path d="M36.5021 147.734L29.9221 146.244L30.3621 145.234L38.9521 145.244L38.6621 145.904L31.4321 145.894L31.4221 145.904L38.0021 147.384L37.6921 148.084L29.8121 149.544L29.8021 149.554L37.0321 149.564L36.7421 150.224L28.1521 150.214L28.5921 149.204L36.4721 147.734H36.5021Z" fill="white"/>
<path d="M40.3821 139.954L34.1321 138.164L34.6921 137.164L43.1021 137.544L42.7421 138.194L35.6721 137.874L35.6621 137.884L41.9221 139.674L41.5321 140.374L33.6421 141.524L33.6321 141.534L40.7021 141.854L40.3421 142.504L31.9321 142.124L32.4921 141.124L40.3821 139.964V139.954Z" fill="white"/>
<path d="M43.692 133.954L38.8121 130.734L39.342 129.934L47.5421 130.654L47.082 131.344L40.412 130.754L40.402 130.764L45.3121 133.984L44.782 134.784L36.582 134.064L37.0421 133.374L43.6721 133.964L43.692 133.954Z" fill="white"/>
<path d="M43.9321 124.034C44.2121 123.854 44.4921 123.694 44.8021 123.594C45.1121 123.494 45.4321 123.414 45.7621 123.384C46.1021 123.354 46.4421 123.364 46.7921 123.404C47.1521 123.454 47.4321 123.524 47.6721 123.634C47.9121 123.734 48.0821 123.864 48.1721 124.034C48.2821 124.194 48.3021 124.384 48.2621 124.604C48.2121 124.824 48.0821 125.074 47.8621 125.364L46.7321 126.834L50.0421 127.264L49.5121 127.954L41.5421 126.914L43.2021 124.754C43.4221 124.454 43.6621 124.224 43.9321 124.034ZM47.1221 124.474C47.0021 124.274 46.7221 124.154 46.2621 124.094C45.8121 124.034 45.4021 124.064 45.0321 124.204C44.6821 124.334 44.3521 124.584 44.0721 124.944L42.9921 126.344L45.7921 126.714L46.8721 125.314C47.1521 124.934 47.2321 124.654 47.1221 124.474Z" fill="white"/>
<path d="M55.732 116.444C56.032 116.544 56.2821 116.664 56.5021 116.804C56.7221 116.944 56.9121 117.104 57.0521 117.284C57.1921 117.464 57.272 117.664 57.292 117.884C57.322 118.104 57.292 118.334 57.202 118.584C57.102 118.834 56.932 119.094 56.692 119.384C56.452 119.654 56.172 119.914 55.852 120.124C55.542 120.334 55.2121 120.514 54.8621 120.664C54.5221 120.804 54.152 120.934 53.782 121.014C53.402 121.114 53.022 121.174 52.652 121.204C52.272 121.244 51.902 121.254 51.532 121.244C51.172 121.234 50.8221 121.194 50.4921 121.134C49.8921 121.024 49.4021 120.874 49.0021 120.674C48.6121 120.474 48.322 120.234 48.142 119.974C47.972 119.704 47.9221 119.394 47.9921 119.054C48.0621 118.704 48.2621 118.344 48.6121 117.964C48.9521 117.574 49.362 117.244 49.832 116.974C50.302 116.694 50.802 116.494 51.342 116.344C51.882 116.194 52.452 116.114 53.042 116.094C53.642 116.074 54.232 116.114 54.832 116.214C55.142 116.254 55.452 116.334 55.732 116.444ZM52.842 116.774C52.392 116.784 51.952 116.844 51.542 116.944C51.122 117.054 50.742 117.204 50.402 117.394C50.042 117.594 49.7421 117.834 49.5021 118.114C49.2521 118.394 49.102 118.664 49.072 118.914C49.032 119.154 49.082 119.384 49.222 119.584C49.362 119.784 49.592 119.964 49.912 120.114C50.232 120.264 50.622 120.374 51.072 120.454C51.542 120.534 52.002 120.574 52.442 120.574C52.892 120.564 53.3321 120.514 53.7421 120.414C54.1521 120.314 54.5221 120.164 54.8721 119.974C55.2221 119.774 55.522 119.524 55.792 119.224C56.062 118.924 56.212 118.644 56.262 118.394C56.302 118.144 56.2621 117.914 56.1121 117.714C55.9621 117.514 55.722 117.354 55.402 117.214C55.092 117.074 54.692 116.964 54.222 116.874C53.762 116.794 53.292 116.764 52.842 116.774Z" fill="white"/>
<path d="M55.8021 110.534C55.9621 110.394 56.1321 110.264 56.3121 110.144C56.4821 110.034 56.6721 109.934 56.8721 109.844C57.0721 109.764 57.2821 109.704 57.5121 109.654C57.7421 109.604 57.9721 109.584 58.2121 109.574C58.4521 109.574 58.6921 109.594 58.9421 109.654C59.0621 109.684 59.1921 109.724 59.3221 109.784C59.4421 109.844 59.5521 109.914 59.6421 109.994C59.7321 110.084 59.8021 110.174 59.8321 110.294C59.8821 110.404 59.8721 110.534 59.8321 110.674C59.9821 110.584 60.1621 110.494 60.3521 110.414C60.5521 110.334 60.7621 110.264 60.9921 110.204C61.2221 110.154 61.4621 110.124 61.7221 110.104C61.9821 110.094 62.2621 110.124 62.5321 110.184C62.6921 110.224 62.8521 110.274 62.9921 110.334C63.1521 110.404 63.2721 110.484 63.3721 110.574C63.4721 110.674 63.5521 110.784 63.6121 110.904C63.6721 111.024 63.6821 111.164 63.6621 111.314C63.6421 111.474 63.5821 111.634 63.4821 111.814C63.3821 111.994 63.2221 112.194 63.0021 112.404L60.9221 114.494L53.5121 112.814L55.2721 111.044C55.4721 110.844 55.6521 110.674 55.8021 110.534ZM62.4921 111.734C62.5721 111.574 62.6121 111.434 62.5821 111.314C62.5721 111.204 62.4821 111.104 62.3721 111.034C62.2621 110.954 62.1021 110.894 61.9121 110.854C61.7221 110.814 61.5221 110.794 61.3221 110.794C61.1221 110.804 60.9221 110.834 60.7221 110.894C60.5121 110.964 60.3121 111.064 60.1121 111.194C59.9021 111.334 59.6921 111.504 59.4821 111.714L58.1621 113.044L60.7421 113.624L62.0621 112.294C62.2521 112.084 62.4021 111.904 62.4921 111.734ZM58.9921 111.084C59.0621 110.934 59.0721 110.814 59.0421 110.714C59.0121 110.624 58.9321 110.544 58.8121 110.484C58.6921 110.434 58.5521 110.384 58.3821 110.344C58.2021 110.304 58.0421 110.284 57.8721 110.284C57.6921 110.294 57.5321 110.324 57.3521 110.384C57.1721 110.434 56.9921 110.534 56.8221 110.654C56.6421 110.774 56.4521 110.924 56.2621 111.114L55.0321 112.354L57.3221 112.874L58.5521 111.634C58.7821 111.414 58.9221 111.234 58.9921 111.084Z" fill="white"/>
<path d="M71.592 104.344L70.7921 105.064L68.0521 104.974L65.942 106.874L67.522 108.014L66.772 108.694L61.572 104.874L62.442 104.094L71.592 104.344ZM67.1021 104.954L63.132 104.814L65.382 106.504L67.1021 104.954Z" fill="white"/>
<path d="M73.9521 97.7542L71.1621 96.8242L71.9321 96.1942L78.6921 98.4641L77.9221 99.0941L74.7421 98.0241L71.6621 100.534L74.8421 101.604L74.0721 102.234L67.3121 99.9641L68.0821 99.3341L70.8721 100.264L73.9521 97.7542Z" fill="white"/>
<path d="M81.4722 94.9142L79.4622 90.5241L80.4222 89.8141L86.8022 92.3741L85.9722 92.9842L80.7822 90.9041L80.7621 90.9142L82.8022 95.3141L81.8422 96.0241L75.4622 93.4641L76.2922 92.8542L81.4521 94.9242L81.4722 94.9142Z" fill="white"/>
<path d="M88.7421 87.1341C88.3621 86.9141 88.0721 86.6741 87.8921 86.4041C87.7021 86.1441 87.6221 85.8641 87.6421 85.5741C87.6621 85.2841 87.7821 84.9841 88.0321 84.6741C88.2721 84.3641 88.6321 84.0541 89.1121 83.7341C89.6221 83.4041 90.1521 83.1341 90.6921 82.9541C91.2421 82.7641 91.7721 82.6541 92.3121 82.6141C92.8521 82.5741 93.3721 82.6041 93.8921 82.6941C94.4221 82.7941 94.8921 82.9541 95.3521 83.1741C95.6121 83.2941 95.8321 83.4441 96.0321 83.5941C96.2321 83.7541 96.3921 83.9241 96.5121 84.1141C96.6321 84.3041 96.7121 84.4941 96.7421 84.7041C96.7621 84.9141 96.7321 85.1341 96.6421 85.3541C96.5621 85.5741 96.4021 85.8141 96.1921 86.0441C95.9721 86.2841 95.6821 86.5241 95.3121 86.7641C94.9721 86.9941 94.6221 87.1841 94.2721 87.3241C93.9221 87.4841 93.5621 87.5941 93.2121 87.6741C92.8621 87.7641 92.5121 87.8241 92.1721 87.8441C91.8321 87.8741 91.4921 87.8741 91.1821 87.8441C90.8421 87.8341 90.5521 87.7841 90.2421 87.7141C89.9421 87.6441 89.6721 87.5641 89.4121 87.4541L88.3721 88.1441L90.9921 89.4241L90.1021 90.0041L84.1821 87.1241L85.0721 86.5441L87.6721 87.8141L88.7421 87.1341ZM93.3521 83.3841C92.9421 83.3141 92.5421 83.2841 92.1321 83.3141C91.7221 83.3341 91.3221 83.4141 90.9221 83.5441C90.5121 83.6741 90.1421 83.8541 89.8021 84.0741C89.4521 84.3041 89.1921 84.5441 89.0421 84.7841C88.8821 85.0241 88.8021 85.2641 88.8221 85.4941C88.8421 85.7241 88.9521 85.9441 89.1421 86.1541C89.3321 86.3741 89.6021 86.5641 89.9521 86.7341C90.3121 86.9141 90.7021 87.0341 91.1021 87.1041C91.5121 87.1741 91.9121 87.2041 92.3321 87.1741C92.7421 87.1541 93.1421 87.0641 93.5421 86.9441C93.9221 86.8241 94.3021 86.6441 94.6421 86.4241C95.0421 86.1641 95.3221 85.9041 95.4821 85.6741C95.6421 85.4241 95.7221 85.1941 95.6921 84.9741C95.6621 84.7441 95.5421 84.5341 95.3321 84.3341C95.1221 84.1341 94.8421 83.9441 94.4821 83.7741C94.1321 83.5941 93.7521 83.4641 93.3521 83.3841Z" fill="white"/>
<path d="M105.912 73.8141L107.262 73.0541L106.362 76.0742L112.552 76.3141L111.322 77.0042L106.152 76.7642L105.802 77.9341L107.612 79.0841L106.652 79.6241L101.442 76.3141L102.402 75.7741L104.942 77.3842L105.912 73.8141Z" fill="white"/>
<path d="M116.052 73.7342C116.132 73.7142 116.212 73.6942 116.302 73.6742L116.572 73.5841C116.652 73.5541 116.732 73.5142 116.802 73.4842C116.952 73.4042 117.072 73.3342 117.162 73.2542C117.242 73.1842 117.302 73.1041 117.342 73.0341C117.372 72.9641 117.392 72.8941 117.392 72.8141C117.382 72.7441 117.352 72.6841 117.332 72.6241L110.432 71.3641L111.602 70.7642L117.252 71.8441L115.962 68.5341L117.092 67.9542L118.322 71.8141C118.392 72.0741 118.442 72.3042 118.472 72.5042C118.502 72.7042 118.482 72.8842 118.422 73.0442C118.362 73.2042 118.252 73.3642 118.092 73.5042C117.932 73.6542 117.702 73.7942 117.412 73.9442C117.252 74.0242 117.092 74.0941 116.922 74.1441C116.752 74.2041 116.602 74.2341 116.492 74.2441L115.872 73.7841C115.902 73.7641 115.972 73.7542 116.052 73.7342Z" fill="white"/>
<path d="M125.322 64.1342C125.692 64.0542 126.032 64.0042 126.352 64.0042C126.662 64.0042 126.952 64.0442 127.202 64.1342C127.462 64.2242 127.682 64.3442 127.872 64.5142C128.062 64.6842 128.192 64.8441 128.242 65.0341C128.302 65.2141 128.282 65.4041 128.182 65.5941C128.092 65.7941 127.912 65.9841 127.672 66.1841C127.422 66.3841 127.082 66.5841 126.652 66.7841L124.422 67.8242L126.222 69.3842L125.182 69.8741L120.852 66.1141L124.122 64.5841C124.552 64.3741 124.952 64.2342 125.322 64.1342ZM127.032 65.6642C127.152 65.4342 127.082 65.2142 126.832 65.0042C126.582 64.7942 126.282 64.6841 125.902 64.6841C125.542 64.6841 125.072 64.8142 124.522 65.0742L122.402 66.0641L123.922 67.3842L126.042 66.3941C126.582 66.1341 126.922 65.8842 127.032 65.6642Z" fill="white"/>
<path d="M134.542 63.6941C134.862 63.8441 135.202 63.9341 135.572 63.9741C135.942 64.0141 136.322 64.0041 136.722 63.9441C137.122 63.8841 137.512 63.7741 137.902 63.6041C138.252 63.4541 138.522 63.3041 138.742 63.1141C138.952 62.9441 139.112 62.7641 139.202 62.5841C139.302 62.3941 139.352 62.2141 139.352 62.0441C139.342 61.8741 139.302 61.7041 139.212 61.5541L140.252 61.1141C140.342 61.2441 140.412 61.3741 140.452 61.5341C140.482 61.6941 140.492 61.8541 140.462 62.0241C140.432 62.1941 140.382 62.3641 140.282 62.5441C140.202 62.7241 140.072 62.8941 139.902 63.0841C139.722 63.2641 139.512 63.4341 139.252 63.6041C139.002 63.7741 138.702 63.9341 138.342 64.0841C138.092 64.1841 137.832 64.2841 137.522 64.3741C137.222 64.4741 136.902 64.5441 136.572 64.5941C136.242 64.6541 135.902 64.6841 135.552 64.6941C135.202 64.7041 134.852 64.6741 134.522 64.6041C134.192 64.5341 133.852 64.4141 133.542 64.2641C133.222 64.1141 132.932 63.8941 132.672 63.6241C132.412 63.3541 132.232 63.0941 132.132 62.8341C132.032 62.5841 132.002 62.3341 132.022 62.1041C132.052 61.8741 132.132 61.6541 132.272 61.4341C132.402 61.2241 132.572 61.0241 132.782 60.8341C132.992 60.6541 133.242 60.4741 133.502 60.3241C133.782 60.1641 134.062 60.0241 134.352 59.9041C134.722 59.7441 135.082 59.6241 135.402 59.5341C135.742 59.4441 136.062 59.3841 136.362 59.3341C136.662 59.3041 136.932 59.2941 137.192 59.3041C137.452 59.3141 137.692 59.3341 137.912 59.3741C138.132 59.4141 138.312 59.4741 138.472 59.5541C138.632 59.6241 138.772 59.7041 138.872 59.7941L137.822 60.2441C137.632 60.1441 137.422 60.0741 137.192 60.0241C136.962 59.9841 136.722 59.9541 136.452 59.9741C136.202 59.9841 135.932 60.0241 135.662 60.0841C135.382 60.1541 135.102 60.2441 134.842 60.3541C134.432 60.5341 134.102 60.7241 133.842 60.9441C133.592 61.1541 133.402 61.3841 133.302 61.6241C133.202 61.8641 133.182 62.1141 133.252 62.3641C133.322 62.6141 133.472 62.8741 133.712 63.1141C133.942 63.3541 134.222 63.5441 134.542 63.6941Z" fill="white"/>
<path d="M152.922 58.1841L149.632 53.9842L150.742 53.5641L154.032 57.7642L152.922 58.1841ZM146.982 57.2242C147.472 57.0342 147.922 56.9042 148.342 56.8242C148.752 56.7442 149.122 56.7142 149.432 56.7342C149.752 56.7442 150.032 56.8142 150.262 56.9242C150.492 57.0342 150.682 57.1841 150.842 57.3741C150.992 57.5641 151.062 57.7542 151.062 57.9442C151.062 58.1442 151.002 58.3441 150.862 58.5241C150.722 58.7141 150.522 58.9041 150.242 59.0841C149.962 59.2641 149.612 59.4341 149.192 59.5941L145.612 60.9442L142.322 56.7441L143.422 56.3242L144.772 58.0541L146.982 57.2242ZM149.262 58.8842C149.432 58.7842 149.562 58.6841 149.672 58.5641C149.762 58.4541 149.822 58.3341 149.832 58.2141C149.842 58.0941 149.782 57.9642 149.672 57.8242C149.562 57.6842 149.432 57.5842 149.282 57.5142C149.112 57.4542 148.932 57.4242 148.732 57.4242C148.532 57.4342 148.302 57.4642 148.062 57.5142C147.812 57.5742 147.552 57.6642 147.272 57.7642L145.182 58.5541L146.342 60.0442L148.682 59.1642C148.892 59.0642 149.092 58.9842 149.262 58.8842Z" fill="white"/>
<path d="M170.172 52.424L168.032 48.454L163.482 49.874L165.622 53.844L164.482 54.204L162.062 49.704L168.902 47.564L171.322 52.064L170.172 52.424Z" fill="white"/>
<path d="M183.082 46.824C183.092 47.044 183.052 47.264 182.972 47.484C182.892 47.704 182.772 47.924 182.602 48.144C182.432 48.364 182.212 48.574 181.942 48.774C181.672 48.974 181.362 49.164 180.982 49.334C180.612 49.504 180.182 49.664 179.702 49.794C179.232 49.924 178.772 50.014 178.342 50.054C177.932 50.094 177.532 50.104 177.172 50.074C176.822 50.044 176.492 49.984 176.202 49.894C175.902 49.804 175.632 49.684 175.422 49.544C175.192 49.404 175.012 49.244 174.842 49.064C174.692 48.884 174.572 48.694 174.492 48.494C174.342 48.134 174.312 47.784 174.382 47.424C174.452 47.074 174.632 46.734 174.892 46.424C175.172 46.114 175.552 45.814 176.022 45.564C176.502 45.294 177.072 45.074 177.742 44.894C178.412 44.714 179.042 44.604 179.612 44.584C180.192 44.554 180.692 44.604 181.142 44.724C181.592 44.834 181.962 45.024 182.272 45.274C182.592 45.524 182.812 45.824 182.962 46.184C183.042 46.394 183.082 46.614 183.082 46.824ZM181.282 45.804C181.052 45.604 180.772 45.464 180.452 45.364C180.122 45.264 179.742 45.224 179.322 45.244C178.892 45.254 178.442 45.324 177.962 45.454C177.482 45.584 177.062 45.754 176.712 45.954C176.372 46.144 176.102 46.364 175.912 46.604C175.712 46.844 175.592 47.104 175.552 47.374C175.512 47.644 175.542 47.924 175.652 48.194C175.762 48.484 175.932 48.724 176.142 48.914C176.372 49.114 176.642 49.264 176.962 49.354C177.282 49.454 177.662 49.484 178.072 49.484C178.492 49.474 178.962 49.394 179.482 49.254C180.002 49.114 180.432 48.944 180.782 48.744C181.132 48.544 181.412 48.324 181.592 48.094C181.782 47.854 181.882 47.604 181.912 47.334C181.952 47.074 181.912 46.794 181.792 46.504C181.692 46.244 181.512 46.004 181.282 45.804Z" fill="white"/>
<path d="M200.232 44.734L199.352 40.434L194.652 41.444L195.532 45.744L194.352 46.004L193.352 41.134L200.422 39.614L201.422 44.484L200.232 44.734Z" fill="white"/>
<path d="M210.632 37.774C210.982 37.784 211.292 37.8341 211.542 37.9141C211.792 37.9941 211.972 38.114 212.102 38.274C212.242 38.434 212.312 38.6141 212.332 38.8441C212.352 39.0741 212.322 39.2741 212.212 39.4741C212.122 39.6741 211.962 39.854 211.732 40.024C211.512 40.194 211.222 40.3541 210.882 40.4841C210.532 40.6141 210.112 40.7241 209.622 40.8141L207.072 41.274L207.262 43.3441L206.072 43.554L205.612 38.5741L209.352 37.894C209.842 37.814 210.272 37.774 210.632 37.774ZM210.782 39.7841C211.052 39.5841 211.172 39.344 211.142 39.054C211.112 38.774 210.962 38.5841 210.662 38.4741C210.372 38.3741 209.912 38.384 209.282 38.494L206.862 38.9341L207.022 40.6841L209.442 40.244C210.072 40.144 210.522 39.9841 210.782 39.7841Z" fill="white"/>
<path d="M225.322 38.554C225.242 38.784 225.132 39.004 224.962 39.224C224.802 39.444 224.612 39.654 224.372 39.864C224.132 40.064 223.842 40.254 223.522 40.424C223.202 40.594 222.832 40.744 222.422 40.874C222.012 41.004 221.562 41.104 221.072 41.174C220.592 41.244 220.132 41.274 219.722 41.264C219.322 41.254 218.962 41.204 218.642 41.124C218.332 41.044 218.052 40.944 217.822 40.804C217.582 40.674 217.382 40.514 217.242 40.344C217.082 40.174 216.982 39.984 216.892 39.774C216.822 39.574 216.792 39.364 216.792 39.144C216.802 38.744 216.902 38.384 217.112 38.024C217.312 37.674 217.602 37.344 217.972 37.064C218.352 36.774 218.812 36.524 219.342 36.324C219.892 36.114 220.502 35.964 221.182 35.864C221.862 35.764 222.482 35.734 223.012 35.794C223.552 35.844 224.002 35.964 224.362 36.144C224.732 36.324 224.992 36.564 225.192 36.864C225.382 37.164 225.472 37.504 225.472 37.904C225.452 38.104 225.412 38.334 225.322 38.554ZM224.072 37.264C223.942 37.034 223.732 36.844 223.482 36.694C223.212 36.554 222.882 36.454 222.502 36.414C222.112 36.364 221.662 36.384 221.162 36.454C220.662 36.524 220.222 36.644 219.822 36.804C219.432 36.954 219.102 37.144 218.832 37.374C218.552 37.594 218.342 37.844 218.202 38.124C218.062 38.394 217.982 38.694 217.972 38.984C217.962 39.294 218.022 39.564 218.142 39.794C218.272 40.024 218.472 40.214 218.722 40.364C218.982 40.514 219.312 40.594 219.692 40.644C220.082 40.684 220.542 40.664 221.072 40.594C221.602 40.514 222.062 40.404 222.462 40.244C222.862 40.084 223.202 39.894 223.462 39.674C223.722 39.454 223.912 39.204 224.042 38.934C224.182 38.664 224.252 38.374 224.252 38.064C224.272 37.764 224.212 37.494 224.072 37.264Z" fill="white"/>
<path d="M231.382 35.244L230.842 39.784L229.652 39.914L230.262 34.774L235.482 34.184L235.412 34.784L231.382 35.244Z" fill="white"/>
<path d="M244.972 33.4541C245.302 33.5041 245.572 33.5841 245.782 33.6941C245.992 33.8041 246.132 33.954 246.202 34.124C246.282 34.304 246.292 34.5041 246.242 34.7341C246.192 34.9641 246.102 35.174 245.942 35.364C245.792 35.564 245.582 35.7341 245.322 35.8841C245.062 36.0441 244.742 36.1641 244.382 36.2641C244.012 36.3641 243.582 36.4341 243.092 36.4741L240.562 36.684L240.112 38.834L238.932 38.934L240.022 33.7541L243.732 33.4541C244.212 33.4041 244.622 33.4041 244.972 33.4541ZM244.492 35.5441C244.812 35.3641 244.992 35.124 245.052 34.834C245.112 34.544 245.022 34.3241 244.772 34.1941C244.532 34.0641 244.092 34.0241 243.472 34.0741L241.062 34.274L240.682 36.094L243.092 35.894C243.722 35.834 244.192 35.7141 244.492 35.5441Z" fill="white"/>
<path d="M257.122 37.774L255.822 37.834L255.392 36.274L251.952 36.434L250.482 38.074L249.252 38.134L254.162 32.684L255.572 32.614L257.122 37.774ZM255.232 35.744L254.622 33.484L252.432 35.874L255.232 35.744Z" fill="white"/>
<path d="M265.422 36.804L269.692 32.384L271.352 32.374L269.182 37.604L268.102 37.614L269.932 33.214H269.912L265.662 37.634L264.512 37.644L263.912 33.264H263.892L262.062 37.664L260.982 37.674L263.152 32.444L264.812 32.434L265.422 36.814V36.804Z" fill="white"/>
<path d="M278.142 36.9641L282.862 32.6541L284.482 32.7141L281.722 37.9341L280.662 37.894L282.992 33.5041H282.972L278.272 37.8141L277.142 37.774L277.092 33.2941H277.072L274.742 37.6841L273.682 37.644L276.452 32.4241L278.072 32.4841L278.132 36.9641H278.142Z" fill="white"/>
<path d="M287.872 37.284L294.752 33.404L296.032 33.504L292.712 38.694L291.612 38.604L294.312 34.384H294.292L287.392 38.284L286.112 38.184L289.432 32.994L290.532 33.084L287.842 37.284H287.872Z" fill="white"/>
<path d="M305.262 34.6241C305.512 34.7441 305.712 34.874 305.832 35.024C305.952 35.174 305.992 35.354 305.952 35.554C305.922 35.754 305.822 35.9641 305.652 36.1941C305.482 36.4241 305.292 36.6141 305.042 36.7941C304.802 36.9641 304.532 37.1041 304.222 37.2141C303.912 37.3241 303.562 37.3941 303.202 37.4241C302.822 37.4541 302.422 37.444 301.972 37.394L299.672 37.1241L298.082 39.2641L297.012 39.1341L300.832 33.9841L304.212 34.3841C304.632 34.4341 304.992 34.5141 305.262 34.6241ZM303.692 36.6941C304.062 36.5641 304.352 36.3641 304.572 36.0641C304.792 35.7741 304.832 35.5341 304.692 35.3441C304.562 35.1641 304.202 35.0341 303.632 34.9641L301.442 34.7041L300.102 36.5141L302.292 36.774C302.862 36.844 303.332 36.8141 303.692 36.6941Z" fill="white"/>
<path d="M315.662 39.664C315.412 39.874 315.142 40.064 314.832 40.234C314.522 40.404 314.202 40.564 313.852 40.704C313.502 40.844 313.122 40.944 312.742 41.024C312.352 41.104 311.952 41.154 311.532 41.164C311.112 41.174 310.692 41.144 310.262 41.074C309.842 41.004 309.472 40.904 309.172 40.774C308.882 40.644 308.642 40.494 308.472 40.324C308.302 40.164 308.182 39.974 308.122 39.764C308.052 39.554 308.032 39.344 308.072 39.124C308.102 38.904 308.172 38.684 308.292 38.454C308.412 38.234 308.562 38.004 308.752 37.784C309.092 37.384 309.472 37.044 309.932 36.744C310.382 36.444 310.872 36.204 311.382 36.024C311.902 35.844 312.462 35.724 313.032 35.674C313.622 35.614 314.212 35.644 314.802 35.744C315.402 35.844 315.882 35.994 316.232 36.204C316.602 36.414 316.832 36.654 316.962 36.944C317.092 37.234 317.082 37.554 316.982 37.904C316.872 38.264 316.662 38.634 316.322 39.024C316.132 39.254 315.912 39.464 315.662 39.664ZM315.802 38.004C315.902 37.734 315.902 37.484 315.832 37.264C315.752 37.044 315.582 36.854 315.322 36.694C315.062 36.534 314.722 36.414 314.282 36.344C313.852 36.274 313.412 36.254 312.982 36.304C312.562 36.344 312.152 36.444 311.762 36.584C311.372 36.724 310.992 36.914 310.662 37.154C310.322 37.384 310.022 37.664 309.772 37.954C309.512 38.264 309.322 38.554 309.222 38.824C309.122 39.094 309.112 39.344 309.182 39.564C309.252 39.784 309.432 39.964 309.672 40.124C309.932 40.284 310.292 40.394 310.762 40.474C311.232 40.554 311.672 40.564 312.102 40.524C312.542 40.474 312.942 40.384 313.332 40.244C313.712 40.094 314.062 39.904 314.392 39.664C314.722 39.434 315.012 39.164 315.282 38.854C315.532 38.564 315.712 38.274 315.802 38.004Z" fill="white"/>
<path d="M326.022 38.044C326.232 38.104 326.412 38.174 326.582 38.244C326.722 38.314 326.852 38.404 326.962 38.504C327.062 38.604 327.112 38.714 327.142 38.834C327.172 38.954 327.152 39.094 327.102 39.234C327.042 39.384 326.942 39.534 326.782 39.704C326.702 39.784 326.592 39.884 326.462 39.974C326.322 40.064 326.182 40.144 326.012 40.234C325.832 40.314 325.652 40.384 325.442 40.434C325.232 40.494 325.012 40.524 324.772 40.544C324.892 40.614 325.002 40.694 325.112 40.784C325.212 40.884 325.282 40.984 325.322 41.114C325.352 41.234 325.342 41.374 325.312 41.534C325.262 41.694 325.142 41.864 324.962 42.054C324.852 42.164 324.732 42.274 324.592 42.374C324.432 42.494 324.262 42.584 324.072 42.674C323.872 42.764 323.652 42.844 323.432 42.914C323.202 42.984 322.952 43.034 322.702 43.064C322.432 43.094 322.162 43.104 321.872 43.094C321.582 43.084 321.272 43.044 320.942 42.974L317.782 42.304L322.582 37.324L325.262 37.894C325.562 37.934 325.812 37.994 326.022 38.044ZM324.272 40.144C324.512 40.144 324.722 40.114 324.912 40.074C325.082 40.024 325.232 39.964 325.372 39.874C325.502 39.784 325.622 39.684 325.722 39.574C325.832 39.454 325.912 39.344 325.952 39.244C325.972 39.144 325.962 39.044 325.902 38.954C325.852 38.864 325.732 38.774 325.562 38.704C325.402 38.624 325.182 38.554 324.892 38.494L323.022 38.094L321.542 39.634L323.412 40.034C323.742 40.104 324.022 40.134 324.272 40.144ZM322.242 42.454C322.502 42.454 322.732 42.444 322.962 42.394C323.162 42.354 323.352 42.274 323.512 42.184C323.672 42.094 323.822 41.984 323.942 41.854C324.072 41.724 324.152 41.594 324.192 41.484C324.232 41.364 324.232 41.254 324.172 41.144C324.102 41.034 323.972 40.944 323.802 40.854C323.612 40.764 323.362 40.684 323.042 40.614L321.032 40.184L319.362 41.924L321.372 42.354C321.682 42.404 321.972 42.444 322.242 42.454Z" fill="white"/>
<path d="M332.972 45.904L331.902 45.624L332.752 43.924L329.932 43.184L327.522 44.464L326.512 44.194L334.532 39.944L335.692 40.254L332.972 45.904ZM333.032 43.344L334.272 40.884L330.732 42.734L333.032 43.344Z" fill="white"/>
<path d="M343.962 45.484L346.302 43.524L347.222 43.814L341.542 48.564L340.622 48.274L343.292 46.034L339.652 44.864L336.982 47.104L336.062 46.814L341.742 42.064L342.662 42.354L340.322 44.314L343.962 45.484Z" fill="white"/>
<path d="M347.092 49.254L355.312 46.794L356.312 47.174L350.212 51.774L349.342 51.444L354.302 47.694L354.282 47.684L346.032 50.164L345.032 49.784L351.132 45.184L352.002 45.514L347.072 49.244L347.092 49.254Z" fill="white"/>
<path d="M358.962 51.4841C359.442 51.1841 359.942 50.9441 360.462 50.7541C360.972 50.5641 361.482 50.4341 361.982 50.3741C362.482 50.3041 362.972 50.2941 363.462 50.3541C363.942 50.4141 364.402 50.544 364.842 50.744C365.302 50.964 365.632 51.2041 365.812 51.4841C366.012 51.7641 366.062 52.0641 366.012 52.3741C365.952 52.6941 365.762 53.014 365.472 53.364C365.172 53.714 364.772 54.044 364.262 54.394C363.982 54.584 363.672 54.7641 363.352 54.9241C363.022 55.0941 362.682 55.234 362.322 55.364C361.962 55.494 361.602 55.5941 361.232 55.6641C360.852 55.7341 360.482 55.7841 360.112 55.7841C359.742 55.7941 359.372 55.7741 359.012 55.7041C358.642 55.6341 358.292 55.5241 357.972 55.3741C357.662 55.2341 357.412 55.0741 357.242 54.9041C357.052 54.7341 356.942 54.544 356.882 54.364C356.822 54.174 356.792 53.9841 356.832 53.7841C356.872 53.5841 356.952 53.3841 357.072 53.1841C357.182 52.9741 357.342 52.7841 357.532 52.5741C357.732 52.3741 357.942 52.184 358.192 51.994L357.242 51.554L354.342 53.5141L353.532 53.1341L360.072 48.7141L360.882 49.0941L358.002 51.0341L358.962 51.4841ZM364.402 53.2341C364.632 52.9641 364.782 52.7141 364.842 52.4741C364.902 52.2341 364.862 52.004 364.742 51.804C364.622 51.594 364.392 51.414 364.082 51.274C363.762 51.124 363.412 51.0341 363.022 51.0141C362.642 50.9841 362.242 51.004 361.832 51.084C361.422 51.164 361.002 51.2941 360.582 51.4641C360.152 51.6341 359.742 51.8641 359.352 52.1241C358.952 52.3941 358.632 52.6641 358.422 52.9241C358.192 53.1941 358.042 53.4441 357.992 53.6941C357.932 53.9341 357.972 54.154 358.092 54.364C358.212 54.564 358.432 54.7441 358.742 54.8841C359.102 55.0541 359.482 55.1541 359.852 55.1841C360.252 55.2141 360.632 55.194 361.032 55.114C361.442 55.034 361.842 54.9041 362.252 54.7141C362.642 54.5341 363.052 54.3041 363.452 54.0341C363.842 53.7641 364.162 53.4941 364.402 53.2341Z" fill="white"/>
<defs>
<linearGradient id="paint0_linear_56_627" x1="193.623" y1="43.4727" x2="240.743" y2="251.818" gradientUnits="userSpaceOnUse">
<stop stop-color="#1C0026"/>
<stop offset="1" stop-color="white" stop-opacity="0"/>
</linearGradient>
</defs>
</svg>
