<svg width="99" height="70" viewBox="0 0 99 70" fill="none" xmlns="http://www.w3.org/2000/svg">
<path d="M85.2499 0H96.7084C99.0001 0 99.0001 -2.18161e-07 99.0001 2.28758V67.7124C99.0001 70 99.0001 70 96.7084 70H85.2499C82.9582 70 82.9582 70 82.9582 67.7124V42.0915H62.5621V67.7124C62.5621 70 62.5621 70 60.2704 70H34.6034C34.6034 70 48.2027 66.6998 48.2027 49.8576C48.2027 35.462 22.9169 27.451 18.1044 24.2484C13.292 21.0458 15.3532 14.4118 23.1449 14.4118C28.0893 14.4118 30.5421 17.4515 31.6745 19.6732C32.7713 21.9608 32.5421 21.9608 34.8338 21.9608H44.4577C46.7494 21.9608 46.6357 21.9752 46.6357 19.6876C46.6357 19.6876 46.8934 13.4967 43.7702 8.46405C40.647 3.43137 32.5409 0 32.5409 0H60.2704C62.5621 0 62.5621 0 62.5621 2.28758V26.0784H82.9582V2.28758C82.9582 -2.18161e-07 82.9582 0 85.2499 0Z" fill="white"/>
<path d="M0 23.3335C0 23.3335 0.398032 31.5688 8.2501 36.3727C16.1022 41.1766 32.3129 44.3792 33.0004 49.1832C33.6017 53.3847 32.0837 56.2747 24.7503 56.2747C18.3163 56.2747 15.5947 52.764 14.4805 50.327C13.4346 48.0394 13.7502 48.0394 11.4585 48.0394H0V23.3335Z" fill="#3A6FE8"/>
</svg>
