<svg width="24" height="24" viewBox="0 0 24 24" fill="none" xmlns="http://www.w3.org/2000/svg">
<path d="M12 24C18.6274 24 24 18.6274 24 12C24 5.37258 18.6274 0 12 0C5.37258 0 0 5.37258 0 12C0 18.6274 5.37258 24 12 24Z" fill="url(#paint0_linear_231_266)"/>
<path fill-rule="evenodd" clip-rule="evenodd" d="M5.4319 11.8735C8.93013 10.3493 11.2629 9.3445 12.43 8.85906C15.7625 7.47297 16.455 7.23217 16.9063 7.2242C17.0056 7.22247 17.2276 7.24708 17.3713 7.36375C17.5846 7.53681 17.5858 7.91247 17.5622 8.1611C17.3815 10.0586 16.6001 14.6633 16.2026 16.7885C16.0344 17.6877 15.7031 17.9893 15.3825 18.0188C14.6857 18.0829 14.1565 17.5582 13.4816 17.1158C12.4254 16.4235 11.8287 15.9925 10.8035 15.3169C9.61877 14.5362 10.3868 14.1071 11.062 13.4058C11.2387 13.2223 14.3091 10.4295 14.3685 10.1762C14.376 10.1445 14.3829 10.0263 14.3127 9.964C14.2425 9.90166 14.139 9.92294 14.0643 9.93991C13.9583 9.96395 12.2711 11.0792 9.0026 13.2855C8.52368 13.6143 8.0899 13.7746 7.70126 13.7662C7.27278 13.7569 6.44862 13.5239 5.83592 13.3248C5.08442 13.0805 4.48714 12.9513 4.53917 12.5365C4.56626 12.3203 4.86383 12.0993 5.4319 11.8735Z" fill="white"/>
<defs>
<linearGradient id="paint0_linear_231_266" x1="12" y1="0" x2="12" y2="23.8125" gradientUnits="userSpaceOnUse">
<stop stop-color="#2AABEE"/>
<stop offset="1" stop-color="#229ED9"/>
</linearGradient>
</defs>
</svg>
